<?xml version="1.0" encoding="UTF-8" standalone="no"?>
<!DOCTYPE svg PUBLIC "-//W3C//DTD SVG 1.1//EN"
 "http://www.w3.org/Graphics/SVG/1.1/DTD/svg11.dtd">
<!-- Generated by graphviz version 2.43.0 (0)
 -->
<!-- Title: EnvSubst Pages: 1 -->
<svg width="2140pt" height="1074pt"
 viewBox="0.00 0.00 2140.00 1074.00" xmlns="http://www.w3.org/2000/svg" xmlns:xlink="http://www.w3.org/1999/xlink">
<g id="graph0" class="graph" transform="scale(1 1) rotate(0) translate(4 1070)">
<title>EnvSubst</title>
<polygon fill="white" stroke="transparent" points="-4,4 -4,-1070 2136,-1070 2136,4 -4,4"/>
<g id="clust1" class="cluster">
<title>cluster_EnvSubst</title>
<polygon fill="#ffffc3" stroke="black" points="8,-9.3 8,-1056.7 2124,-1056.7 2124,-9.3 8,-9.3"/>
<text text-anchor="middle" x="51" y="-1041.5" font-family="Times,serif" font-size="14.00">EnvSubst</text>
</g>
<g id="clust2" class="cluster">
<title>cluster_EnvSubst_Equivalence</title>
<polygon fill="#ffffa3" stroke="black" points="373,-613.79 373,-1020.66 2116,-1020.66 2116,-613.79 373,-613.79"/>
<text text-anchor="middle" x="425" y="-1005.46" font-family="Times,serif" font-size="14.00">Equivalence</text>
</g>
<g id="clust3" class="cluster">
<title>cluster_EnvSubst_NamedSubst</title>
<polygon fill="#ffffa3" stroke="black" points="125,-719.58 125,-1020.66 255,-1020.66 255,-719.58 125,-719.58"/>
<text text-anchor="middle" x="179.5" y="-1005.46" font-family="Times,serif" font-size="14.00">NamedSubst</text>
</g>
<g id="clust4" class="cluster">
<title>cluster_EnvSubst_NamelessSubst</title>
<polygon fill="#ffffa3" stroke="black" points="16,-18.6 16,-710.28 365,-710.28 365,-18.6 16,-18.6"/>
<text text-anchor="middle" x="80" y="-695.08" font-family="Times,serif" font-size="14.00">NamelessSubst</text>
</g>
<!-- EnvSubst_NamelessSubst_inst_env_i_in -->
<g id="node1" class="node">
<title>EnvSubst_NamelessSubst_inst_env_i_in</title>
<g id="a_node1"><a xlink:href="EnvSubst.html#NamelessSubst.inst_env_i_in" xlink:title="inst_env_i_in">
<ellipse fill="#f070d1" stroke="black" cx="125" cy="-644.3" rx="69.58" ry="18"/>
<ellipse fill="none" stroke="black" cx="125" cy="-644.3" rx="73.59" ry="22"/>
<ellipse fill="none" stroke="black" cx="125" cy="-644.3" rx="77.59" ry="26"/>
<text text-anchor="middle" x="125" y="-640.6" font-family="Times,serif" font-size="14.00">inst_env_i_in</text>
</a>
</g>
</g>
<!-- EnvSubst_NamelessSubst_lookup_i_of_val_env -->
<g id="node2" class="node">
<title>EnvSubst_NamelessSubst_lookup_i_of_val_env</title>
<g id="a_node2"><a xlink:href="EnvSubst.html#NamelessSubst.lookup_i_of_val_env" xlink:title="lookup_i_of_val_env">
<ellipse fill="#7fffd4" stroke="black" cx="125" cy="-551.3" rx="100.98" ry="18"/>
<text text-anchor="middle" x="125" y="-547.6" font-family="Times,serif" font-size="14.00">lookup_i_of_val_env</text>
</a>
</g>
</g>
<!-- EnvSubst_NamelessSubst_inst_env_i_in&#45;&gt;EnvSubst_NamelessSubst_lookup_i_of_val_env -->
<g id="edge1" class="edge">
<title>EnvSubst_NamelessSubst_inst_env_i_in&#45;&gt;EnvSubst_NamelessSubst_lookup_i_of_val_env</title>
<path fill="none" stroke="black" d="M125,-617.95C125,-605.99 125,-591.71 125,-579.52"/>
<polygon fill="black" stroke="black" points="128.5,-579.46 125,-569.46 121.5,-579.46 128.5,-579.46"/>
</g>
<!-- EnvSubst_NamelessSubst_of_val_i -->
<g id="node4" class="node">
<title>EnvSubst_NamelessSubst_of_val_i</title>
<g id="a_node4"><a xlink:href="EnvSubst.html#NamelessSubst.of_val_i" xlink:title="of_val_i">
<ellipse fill="#f070d1" stroke="black" cx="198" cy="-467.3" rx="44.69" ry="18"/>
<text text-anchor="middle" x="198" y="-463.6" font-family="Times,serif" font-size="14.00">of_val_i</text>
</a>
</g>
</g>
<!-- EnvSubst_NamelessSubst_lookup_i_of_val_env&#45;&gt;EnvSubst_NamelessSubst_of_val_i -->
<g id="edge2" class="edge">
<title>EnvSubst_NamelessSubst_lookup_i_of_val_env&#45;&gt;EnvSubst_NamelessSubst_of_val_i</title>
<path fill="none" stroke="black" d="M140.13,-533.31C150.71,-521.42 164.99,-505.38 176.72,-492.2"/>
<polygon fill="black" stroke="black" points="179.6,-494.23 183.64,-484.43 174.38,-489.57 179.6,-494.23"/>
</g>
<!-- EnvSubst_NamelessSubst_inst_env_i -->
<g id="node3" class="node">
<title>EnvSubst_NamelessSubst_inst_env_i</title>
<g id="a_node3"><a xlink:href="EnvSubst.html#NamelessSubst.inst_env_i" xlink:title="inst_env_i">
<ellipse fill="#f070d1" stroke="black" cx="300" cy="-551.3" rx="56.59" ry="18"/>
<text text-anchor="middle" x="300" y="-547.6" font-family="Times,serif" font-size="14.00">inst_env_i</text>
</a>
</g>
</g>
<!-- EnvSubst_NamelessSubst_inst_env_i&#45;&gt;EnvSubst_NamelessSubst_of_val_i -->
<g id="edge3" class="edge">
<title>EnvSubst_NamelessSubst_inst_env_i&#45;&gt;EnvSubst_NamelessSubst_of_val_i</title>
<path fill="none" stroke="black" d="M279.85,-534.1C264.18,-521.5 242.29,-503.91 225.09,-490.08"/>
<polygon fill="black" stroke="black" points="227.06,-487.17 217.08,-483.63 222.68,-492.63 227.06,-487.17"/>
</g>
<!-- EnvSubst_NamelessSubst_subst_env_i -->
<g id="node5" class="node">
<title>EnvSubst_NamelessSubst_subst_env_i</title>
<g id="a_node5"><a xlink:href="EnvSubst.html#NamelessSubst.subst_env_i" xlink:title="subst_env_i">
<ellipse fill="#f070d1" stroke="black" cx="198" cy="-383.3" rx="64.19" ry="18"/>
<text text-anchor="middle" x="198" y="-379.6" font-family="Times,serif" font-size="14.00">subst_env_i</text>
</a>
</g>
</g>
<!-- EnvSubst_NamelessSubst_of_val_i&#45;&gt;EnvSubst_NamelessSubst_subst_env_i -->
<g id="edge4" class="edge">
<title>EnvSubst_NamelessSubst_of_val_i&#45;&gt;EnvSubst_NamelessSubst_subst_env_i</title>
<path fill="none" stroke="black" d="M198,-448.91C198,-438.07 198,-423.9 198,-411.59"/>
<polygon fill="black" stroke="black" points="201.5,-411.38 198,-401.38 194.5,-411.38 201.5,-411.38"/>
</g>
<!-- EnvSubst_NamelessSubst_subst_env_i_aux -->
<g id="node6" class="node">
<title>EnvSubst_NamelessSubst_subst_env_i_aux</title>
<g id="a_node6"><a xlink:href="EnvSubst.html#NamelessSubst.subst_env_i_aux" xlink:title="subst_env_i_aux">
<ellipse fill="#f070d1" stroke="black" cx="198" cy="-300.3" rx="85.29" ry="18"/>
<text text-anchor="middle" x="198" y="-296.6" font-family="Times,serif" font-size="14.00">subst_env_i_aux</text>
</a>
</g>
</g>
<!-- EnvSubst_NamelessSubst_subst_env_i&#45;&gt;EnvSubst_NamelessSubst_subst_env_i_aux -->
<g id="edge5" class="edge">
<title>EnvSubst_NamelessSubst_subst_env_i&#45;&gt;EnvSubst_NamelessSubst_subst_env_i_aux</title>
<path fill="none" stroke="black" d="M198,-365.12C198,-354.49 198,-340.61 198,-328.5"/>
<polygon fill="black" stroke="black" points="201.5,-328.45 198,-318.45 194.5,-328.45 201.5,-328.45"/>
</g>
<!-- EnvSubst_NamelessSubst_subst_env_i_ty -->
<g id="node7" class="node">
<title>EnvSubst_NamelessSubst_subst_env_i_ty</title>
<g id="a_node7"><a xlink:href="EnvSubst.html#NamelessSubst.subst_env_i_ty" xlink:title="subst_env_i_ty">
<ellipse fill="#f070d1" stroke="black" cx="198" cy="-216.3" rx="77.99" ry="18"/>
<text text-anchor="middle" x="198" y="-212.6" font-family="Times,serif" font-size="14.00">subst_env_i_ty</text>
</a>
</g>
</g>
<!-- EnvSubst_NamelessSubst_subst_env_i_aux&#45;&gt;EnvSubst_NamelessSubst_subst_env_i_ty -->
<g id="edge6" class="edge">
<title>EnvSubst_NamelessSubst_subst_env_i_aux&#45;&gt;EnvSubst_NamelessSubst_subst_env_i_ty</title>
<path fill="none" stroke="black" d="M198,-281.91C198,-271.07 198,-256.9 198,-244.59"/>
<polygon fill="black" stroke="black" points="201.5,-244.38 198,-234.38 194.5,-244.38 201.5,-244.38"/>
</g>
<!-- EnvSubst_NamelessSubst_lookup_ty -->
<g id="node8" class="node">
<title>EnvSubst_NamelessSubst_lookup_ty</title>
<g id="a_node8"><a xlink:href="EnvSubst.html#NamelessSubst.lookup_ty" xlink:title="lookup_ty">
<ellipse fill="#f070d1" stroke="black" cx="198" cy="-132.3" rx="55.49" ry="18"/>
<text text-anchor="middle" x="198" y="-128.6" font-family="Times,serif" font-size="14.00">lookup_ty</text>
</a>
</g>
</g>
<!-- EnvSubst_NamelessSubst_subst_env_i_ty&#45;&gt;EnvSubst_NamelessSubst_lookup_ty -->
<g id="edge7" class="edge">
<title>EnvSubst_NamelessSubst_subst_env_i_ty&#45;&gt;EnvSubst_NamelessSubst_lookup_ty</title>
<path fill="none" stroke="black" d="M198,-197.91C198,-187.07 198,-172.9 198,-160.59"/>
<polygon fill="black" stroke="black" points="201.5,-160.38 198,-150.38 194.5,-160.38 201.5,-160.38"/>
</g>
<!-- EnvSubst_NamelessSubst_expr_to_ty -->
<g id="node9" class="node">
<title>EnvSubst_NamelessSubst_expr_to_ty</title>
<g id="a_node9"><a xlink:href="EnvSubst.html#NamelessSubst.expr_to_ty" xlink:title="expr_to_ty">
<ellipse fill="#f070d1" stroke="black" cx="198" cy="-49.3" rx="59.29" ry="18"/>
<text text-anchor="middle" x="198" y="-45.6" font-family="Times,serif" font-size="14.00">expr_to_ty</text>
</a>
</g>
</g>
<!-- EnvSubst_NamelessSubst_lookup_ty&#45;&gt;EnvSubst_NamelessSubst_expr_to_ty -->
<g id="edge8" class="edge">
<title>EnvSubst_NamelessSubst_lookup_ty&#45;&gt;EnvSubst_NamelessSubst_expr_to_ty</title>
<path fill="none" stroke="black" d="M198,-114.12C198,-103.49 198,-89.61 198,-77.5"/>
<polygon fill="black" stroke="black" points="201.5,-77.45 198,-67.45 194.5,-77.45 201.5,-77.45"/>
</g>
<!-- EnvSubst_NamedSubst_inst_env -->
<g id="node10" class="node">
<title>EnvSubst_NamedSubst_inst_env</title>
<g id="a_node10"><a xlink:href="EnvSubst.html#NamedSubst.inst_env" xlink:title="inst_env">
<ellipse fill="#f070d1" stroke="black" cx="190" cy="-954.3" rx="49.31" ry="18"/>
<ellipse fill="none" stroke="black" cx="190" cy="-954.3" rx="53.3" ry="22"/>
<ellipse fill="none" stroke="black" cx="190" cy="-954.3" rx="57.29" ry="26"/>
<text text-anchor="middle" x="190" y="-950.6" font-family="Times,serif" font-size="14.00">inst_env</text>
</a>
</g>
</g>
<!-- EnvSubst_NamedSubst_of_val -->
<g id="node11" class="node">
<title>EnvSubst_NamedSubst_of_val</title>
<g id="a_node11"><a xlink:href="EnvSubst.html#NamedSubst.of_val" xlink:title="of_val">
<ellipse fill="#f070d1" stroke="black" cx="190" cy="-852.3" rx="37.89" ry="18"/>
<text text-anchor="middle" x="190" y="-848.6" font-family="Times,serif" font-size="14.00">of_val</text>
</a>
</g>
</g>
<!-- EnvSubst_NamedSubst_inst_env&#45;&gt;EnvSubst_NamedSubst_of_val -->
<g id="edge9" class="edge">
<title>EnvSubst_NamedSubst_inst_env&#45;&gt;EnvSubst_NamedSubst_of_val</title>
<path fill="none" stroke="black" d="M190,-928.07C190,-913.54 190,-895.28 190,-880.45"/>
<polygon fill="black" stroke="black" points="193.5,-880.35 190,-870.35 186.5,-880.35 193.5,-880.35"/>
</g>
<!-- EnvSubst_NamedSubst_subst_env -->
<g id="node12" class="node">
<title>EnvSubst_NamedSubst_subst_env</title>
<g id="a_node12"><a xlink:href="EnvSubst.html#NamedSubst.subst_env" xlink:title="subst_env">
<ellipse fill="#f070d1" stroke="black" cx="190" cy="-750.3" rx="57.39" ry="18"/>
<text text-anchor="middle" x="190" y="-746.6" font-family="Times,serif" font-size="14.00">subst_env</text>
</a>
</g>
</g>
<!-- EnvSubst_NamedSubst_of_val&#45;&gt;EnvSubst_NamedSubst_subst_env -->
<g id="edge10" class="edge">
<title>EnvSubst_NamedSubst_of_val&#45;&gt;EnvSubst_NamedSubst_subst_env</title>
<path fill="none" stroke="black" d="M190,-833.88C190,-818.68 190,-796.37 190,-778.76"/>
<polygon fill="black" stroke="black" points="193.5,-778.52 190,-768.52 186.5,-778.52 193.5,-778.52"/>
</g>
<!-- EnvSubst_Equivalence_constr_morph -->
<g id="node13" class="node">
<title>EnvSubst_Equivalence_constr_morph</title>
<g id="a_node13"><a xlink:href="EnvSubst.html#Equivalence.constr_morph" xlink:title="constr_morph">
<ellipse fill="#7fffd4" stroke="black" cx="1502" cy="-954.3" rx="74.96" ry="18"/>
<ellipse fill="none" stroke="black" cx="1502" cy="-954.3" rx="78.98" ry="22"/>
<ellipse fill="none" stroke="black" cx="1502" cy="-954.3" rx="82.99" ry="26"/>
<text text-anchor="middle" x="1502" y="-950.6" font-family="Times,serif" font-size="14.00">constr_morph</text>
</a>
</g>
</g>
<!-- EnvSubst_Equivalence_constr_cons_compat -->
<g id="node14" class="node">
<title>EnvSubst_Equivalence_constr_cons_compat</title>
<g id="a_node14"><a xlink:href="EnvSubst.html#Equivalence.constr_cons_compat" xlink:title="constr_cons_compat">
<ellipse fill="#7fffd4" stroke="black" cx="1502" cy="-852.3" rx="103.98" ry="18"/>
<text text-anchor="middle" x="1502" y="-848.6" font-family="Times,serif" font-size="14.00">constr_cons_compat</text>
</a>
</g>
</g>
<!-- EnvSubst_Equivalence_constr_morph&#45;&gt;EnvSubst_Equivalence_constr_cons_compat -->
<g id="edge11" class="edge">
<title>EnvSubst_Equivalence_constr_morph&#45;&gt;EnvSubst_Equivalence_constr_cons_compat</title>
<path fill="none" stroke="black" d="M1502,-928.07C1502,-913.54 1502,-895.28 1502,-880.45"/>
<polygon fill="black" stroke="black" points="1505.5,-880.35 1502,-870.35 1498.5,-880.35 1505.5,-880.35"/>
</g>
<!-- EnvSubst_Equivalence_list_val_equiv -->
<g id="node23" class="node">
<title>EnvSubst_Equivalence_list_val_equiv</title>
<g id="a_node23"><a xlink:href="EnvSubst.html#Equivalence.list_val_equiv" xlink:title="list_val_equiv">
<ellipse fill="#f070d1" stroke="black" cx="454" cy="-750.3" rx="73.39" ry="18"/>
<text text-anchor="middle" x="454" y="-746.6" font-family="Times,serif" font-size="14.00">list_val_equiv</text>
</a>
</g>
</g>
<!-- EnvSubst_Equivalence_constr_cons_compat&#45;&gt;EnvSubst_Equivalence_list_val_equiv -->
<g id="edge12" class="edge">
<title>EnvSubst_Equivalence_constr_cons_compat&#45;&gt;EnvSubst_Equivalence_list_val_equiv</title>
<path fill="none" stroke="black" d="M1445.99,-837.06C1427.91,-832.97 1407.71,-828.9 1389,-826.3 1015.06,-774.25 913.14,-839.93 541,-776.3 529.38,-774.31 517.1,-771.34 505.54,-768.14"/>
<polygon fill="black" stroke="black" points="506.18,-764.68 495.6,-765.28 504.25,-771.41 506.18,-764.68"/>
</g>
<!-- EnvSubst_Equivalence_veqConstr -->
<g id="node30" class="node">
<title>EnvSubst_Equivalence_veqConstr</title>
<g id="a_node30"><a xlink:href="EnvSubst.html#Equivalence.veqConstr" xlink:title="veqConstr">
<ellipse fill="#7faaff" stroke="black" cx="1485" cy="-750.3" rx="58.49" ry="18"/>
<text text-anchor="middle" x="1485" y="-746.6" font-family="Times,serif" font-size="14.00">veqConstr</text>
</a>
</g>
</g>
<!-- EnvSubst_Equivalence_constr_cons_compat&#45;&gt;EnvSubst_Equivalence_veqConstr -->
<g id="edge13" class="edge">
<title>EnvSubst_Equivalence_constr_cons_compat&#45;&gt;EnvSubst_Equivalence_veqConstr</title>
<path fill="none" stroke="black" d="M1499.04,-833.88C1496.45,-818.68 1492.66,-796.37 1489.67,-778.76"/>
<polygon fill="black" stroke="black" points="1493.05,-777.79 1487.93,-768.52 1486.15,-778.96 1493.05,-777.79"/>
</g>
<!-- EnvSubst_Equivalence_cons_compat -->
<g id="node15" class="node">
<title>EnvSubst_Equivalence_cons_compat</title>
<g id="a_node15"><a xlink:href="EnvSubst.html#Equivalence.cons_compat" xlink:title="cons_compat">
<ellipse fill="#7fffd4" stroke="black" cx="741" cy="-954.3" rx="70.37" ry="18"/>
<ellipse fill="none" stroke="black" cx="741" cy="-954.3" rx="74.38" ry="22"/>
<ellipse fill="none" stroke="black" cx="741" cy="-954.3" rx="78.39" ry="26"/>
<text text-anchor="middle" x="741" y="-950.6" font-family="Times,serif" font-size="14.00">cons_compat</text>
</a>
</g>
</g>
<!-- EnvSubst_Equivalence_list_val_compat -->
<g id="node16" class="node">
<title>EnvSubst_Equivalence_list_val_compat</title>
<g id="a_node16"><a xlink:href="EnvSubst.html#Equivalence.list_val_compat" xlink:title="list_val_compat">
<ellipse fill="#7fffd4" stroke="black" cx="741" cy="-852.3" rx="81.79" ry="18"/>
<text text-anchor="middle" x="741" y="-848.6" font-family="Times,serif" font-size="14.00">list_val_compat</text>
</a>
</g>
</g>
<!-- EnvSubst_Equivalence_cons_compat&#45;&gt;EnvSubst_Equivalence_list_val_compat -->
<g id="edge14" class="edge">
<title>EnvSubst_Equivalence_cons_compat&#45;&gt;EnvSubst_Equivalence_list_val_compat</title>
<path fill="none" stroke="black" d="M741,-928.07C741,-913.54 741,-895.28 741,-880.45"/>
<polygon fill="black" stroke="black" points="744.5,-880.35 741,-870.35 737.5,-880.35 744.5,-880.35"/>
</g>
<!-- EnvSubst_Equivalence_list_val_compat&#45;&gt;EnvSubst_Equivalence_list_val_equiv -->
<g id="edge15" class="edge">
<title>EnvSubst_Equivalence_list_val_compat&#45;&gt;EnvSubst_Equivalence_list_val_equiv</title>
<path fill="none" stroke="black" d="M699.27,-836.76C647.5,-818.72 559.32,-788 503.99,-768.72"/>
<polygon fill="black" stroke="black" points="504.99,-765.36 494.39,-765.37 502.68,-771.97 504.99,-765.36"/>
</g>
<!-- EnvSubst_Equivalence_list_val_equiv_transitive -->
<g id="node17" class="node">
<title>EnvSubst_Equivalence_list_val_equiv_transitive</title>
<g id="a_node17"><a xlink:href="EnvSubst.html#Equivalence.list_val_equiv_transitive" xlink:title="list_val_equiv_transitive">
<ellipse fill="#ffb57f" stroke="black" cx="511" cy="-852.3" rx="122.37" ry="18"/>
<ellipse fill="none" stroke="black" cx="511" cy="-852.3" rx="126.37" ry="22"/>
<ellipse fill="none" stroke="black" cx="511" cy="-852.3" rx="130.38" ry="26"/>
<text text-anchor="middle" x="511" y="-848.6" font-family="Times,serif" font-size="14.00">list_val_equiv_transitive</text>
</a>
</g>
</g>
<!-- EnvSubst_Equivalence_list_val_equiv_transitive&#45;&gt;EnvSubst_Equivalence_list_val_equiv -->
<g id="edge16" class="edge">
<title>EnvSubst_Equivalence_list_val_equiv_transitive&#45;&gt;EnvSubst_Equivalence_list_val_equiv</title>
<path fill="none" stroke="black" d="M496.76,-826.32C488.24,-811.38 477.43,-792.41 468.81,-777.29"/>
<polygon fill="black" stroke="black" points="471.76,-775.39 463.77,-768.44 465.68,-778.86 471.76,-775.39"/>
</g>
<!-- EnvSubst_Equivalence_list_val_equiv_symmetric -->
<g id="node18" class="node">
<title>EnvSubst_Equivalence_list_val_equiv_symmetric</title>
<g id="a_node18"><a xlink:href="EnvSubst.html#Equivalence.list_val_equiv_symmetric" xlink:title="list_val_equiv_symmetric">
<ellipse fill="#ffb57f" stroke="black" cx="1245" cy="-852.3" rx="126.96" ry="18"/>
<ellipse fill="none" stroke="black" cx="1245" cy="-852.3" rx="130.97" ry="22"/>
<ellipse fill="none" stroke="black" cx="1245" cy="-852.3" rx="134.98" ry="26"/>
<text text-anchor="middle" x="1245" y="-848.6" font-family="Times,serif" font-size="14.00">list_val_equiv_symmetric</text>
</a>
</g>
</g>
<!-- EnvSubst_Equivalence_list_val_equiv_symmetric&#45;&gt;EnvSubst_Equivalence_list_val_equiv -->
<g id="edge17" class="edge">
<title>EnvSubst_Equivalence_list_val_equiv_symmetric&#45;&gt;EnvSubst_Equivalence_list_val_equiv</title>
<path fill="none" stroke="black" d="M1150.56,-833.63C1134.4,-830.94 1117.74,-828.37 1102,-826.3 853.82,-793.61 787.08,-822.19 541,-776.3 529.53,-774.16 517.39,-771.16 505.94,-767.98"/>
<polygon fill="black" stroke="black" points="506.67,-764.54 496.09,-765.15 504.74,-771.27 506.67,-764.54"/>
</g>
<!-- EnvSubst_Equivalence_list_val_equiv_reflexive -->
<g id="node19" class="node">
<title>EnvSubst_Equivalence_list_val_equiv_reflexive</title>
<g id="a_node19"><a xlink:href="EnvSubst.html#Equivalence.list_val_equiv_reflexive" xlink:title="list_val_equiv_reflexive">
<ellipse fill="#ffb57f" stroke="black" cx="967" cy="-852.3" rx="117.77" ry="18"/>
<ellipse fill="none" stroke="black" cx="967" cy="-852.3" rx="121.77" ry="22"/>
<ellipse fill="none" stroke="black" cx="967" cy="-852.3" rx="125.78" ry="26"/>
<text text-anchor="middle" x="967" y="-848.6" font-family="Times,serif" font-size="14.00">list_val_equiv_reflexive</text>
</a>
</g>
</g>
<!-- EnvSubst_Equivalence_list_val_equiv_reflexive&#45;&gt;EnvSubst_Equivalence_list_val_equiv -->
<g id="edge18" class="edge">
<title>EnvSubst_Equivalence_list_val_equiv_reflexive&#45;&gt;EnvSubst_Equivalence_list_val_equiv</title>
<path fill="none" stroke="black" d="M875.89,-834.26C861.22,-831.57 846.2,-828.83 832,-826.3 702.81,-803.24 668.92,-805.58 541,-776.3 530.09,-773.8 518.52,-770.76 507.5,-767.67"/>
<polygon fill="black" stroke="black" points="508.15,-764.22 497.57,-764.83 506.22,-770.95 508.15,-764.22"/>
</g>
<!-- EnvSubst_Equivalence_val_equiv_transitive -->
<g id="node20" class="node">
<title>EnvSubst_Equivalence_val_equiv_transitive</title>
<g id="a_node20"><a xlink:href="EnvSubst.html#Equivalence.val_equiv_transitive" xlink:title="val_equiv_transitive">
<ellipse fill="#ffb57f" stroke="black" cx="1116" cy="-750.3" rx="103.19" ry="18"/>
<ellipse fill="none" stroke="black" cx="1116" cy="-750.3" rx="107.19" ry="22"/>
<ellipse fill="none" stroke="black" cx="1116" cy="-750.3" rx="111.18" ry="26"/>
<text text-anchor="middle" x="1116" y="-746.6" font-family="Times,serif" font-size="14.00">val_equiv_transitive</text>
</a>
</g>
</g>
<!-- EnvSubst_Equivalence_val_equiv -->
<g id="node31" class="node">
<title>EnvSubst_Equivalence_val_equiv</title>
<g id="a_node31"><a xlink:href="EnvSubst.html#Equivalence.val_equiv" xlink:title="val_equiv">
<ellipse fill="#e2cdfa" stroke="black" cx="651" cy="-644.3" rx="53.89" ry="18"/>
<text text-anchor="middle" x="651" y="-640.6" font-family="Times,serif" font-size="14.00">val_equiv</text>
</a>
</g>
</g>
<!-- EnvSubst_Equivalence_val_equiv_transitive&#45;&gt;EnvSubst_Equivalence_val_equiv -->
<g id="edge19" class="edge">
<title>EnvSubst_Equivalence_val_equiv_transitive&#45;&gt;EnvSubst_Equivalence_val_equiv</title>
<path fill="none" stroke="black" d="M1037.64,-731.78C942.98,-710.6 786.26,-675.55 704.45,-657.25"/>
<polygon fill="black" stroke="black" points="705.14,-653.82 694.61,-655.05 703.61,-660.65 705.14,-653.82"/>
</g>
<!-- EnvSubst_Equivalence_val_equiv_symmetric -->
<g id="node21" class="node">
<title>EnvSubst_Equivalence_val_equiv_symmetric</title>
<g id="a_node21"><a xlink:href="EnvSubst.html#Equivalence.val_equiv_symmetric" xlink:title="val_equiv_symmetric">
<ellipse fill="#ffb57f" stroke="black" cx="871" cy="-750.3" rx="107.79" ry="18"/>
<ellipse fill="none" stroke="black" cx="871" cy="-750.3" rx="111.78" ry="22"/>
<ellipse fill="none" stroke="black" cx="871" cy="-750.3" rx="115.78" ry="26"/>
<text text-anchor="middle" x="871" y="-746.6" font-family="Times,serif" font-size="14.00">val_equiv_symmetric</text>
</a>
</g>
</g>
<!-- EnvSubst_Equivalence_val_equiv_symmetric&#45;&gt;EnvSubst_Equivalence_val_equiv -->
<g id="edge20" class="edge">
<title>EnvSubst_Equivalence_val_equiv_symmetric&#45;&gt;EnvSubst_Equivalence_val_equiv</title>
<path fill="none" stroke="black" d="M822.99,-726.61C783.3,-707.84 727.62,-681.52 690.48,-663.96"/>
<polygon fill="black" stroke="black" points="691.53,-660.59 680.99,-659.48 688.54,-666.92 691.53,-660.59"/>
</g>
<!-- EnvSubst_Equivalence_val_equiv_reflexive -->
<g id="node22" class="node">
<title>EnvSubst_Equivalence_val_equiv_reflexive</title>
<g id="a_node22"><a xlink:href="EnvSubst.html#Equivalence.val_equiv_reflexive" xlink:title="val_equiv_reflexive">
<ellipse fill="#7fffd4" stroke="black" cx="1733" cy="-852.3" rx="98.6" ry="18"/>
<ellipse fill="none" stroke="black" cx="1733" cy="-852.3" rx="102.59" ry="22"/>
<ellipse fill="none" stroke="black" cx="1733" cy="-852.3" rx="106.58" ry="26"/>
<text text-anchor="middle" x="1733" y="-848.6" font-family="Times,serif" font-size="14.00">val_equiv_reflexive</text>
</a>
</g>
</g>
<!-- EnvSubst_Equivalence_veqTy -->
<g id="node26" class="node">
<title>EnvSubst_Equivalence_veqTy</title>
<g id="a_node26"><a xlink:href="EnvSubst.html#Equivalence.veqTy" xlink:title="veqTy">
<ellipse fill="#7faaff" stroke="black" cx="1600" cy="-750.3" rx="38.19" ry="18"/>
<text text-anchor="middle" x="1600" y="-746.6" font-family="Times,serif" font-size="14.00">veqTy</text>
</a>
</g>
</g>
<!-- EnvSubst_Equivalence_val_equiv_reflexive&#45;&gt;EnvSubst_Equivalence_veqTy -->
<g id="edge21" class="edge">
<title>EnvSubst_Equivalence_val_equiv_reflexive&#45;&gt;EnvSubst_Equivalence_veqTy</title>
<path fill="none" stroke="black" d="M1701.14,-827.35C1678.75,-810.51 1649.1,-788.22 1627.69,-772.12"/>
<polygon fill="black" stroke="black" points="1629.74,-769.28 1619.64,-766.07 1625.53,-774.87 1629.74,-769.28"/>
</g>
<!-- EnvSubst_Equivalence_veqClosTyLam -->
<g id="node27" class="node">
<title>EnvSubst_Equivalence_veqClosTyLam</title>
<g id="a_node27"><a xlink:href="EnvSubst.html#Equivalence.veqClosTyLam" xlink:title="veqClosTyLam">
<ellipse fill="#7faaff" stroke="black" cx="1735" cy="-750.3" rx="78.79" ry="18"/>
<text text-anchor="middle" x="1735" y="-746.6" font-family="Times,serif" font-size="14.00">veqClosTyLam</text>
</a>
</g>
</g>
<!-- EnvSubst_Equivalence_val_equiv_reflexive&#45;&gt;EnvSubst_Equivalence_veqClosTyLam -->
<g id="edge22" class="edge">
<title>EnvSubst_Equivalence_val_equiv_reflexive&#45;&gt;EnvSubst_Equivalence_veqClosTyLam</title>
<path fill="none" stroke="black" d="M1733.5,-826.07C1733.8,-811.54 1734.16,-793.28 1734.46,-778.45"/>
<polygon fill="black" stroke="black" points="1737.96,-778.42 1734.66,-768.35 1730.96,-778.28 1737.96,-778.42"/>
</g>
<!-- EnvSubst_Equivalence_veqClosFix -->
<g id="node28" class="node">
<title>EnvSubst_Equivalence_veqClosFix</title>
<g id="a_node28"><a xlink:href="EnvSubst.html#Equivalence.veqClosFix" xlink:title="veqClosFix">
<ellipse fill="#7faaff" stroke="black" cx="1893" cy="-750.3" rx="61.99" ry="18"/>
<text text-anchor="middle" x="1893" y="-746.6" font-family="Times,serif" font-size="14.00">veqClosFix</text>
</a>
</g>
</g>
<!-- EnvSubst_Equivalence_val_equiv_reflexive&#45;&gt;EnvSubst_Equivalence_veqClosFix -->
<g id="edge23" class="edge">
<title>EnvSubst_Equivalence_val_equiv_reflexive&#45;&gt;EnvSubst_Equivalence_veqClosFix</title>
<path fill="none" stroke="black" d="M1770.51,-827.85C1797.45,-811.02 1833.44,-788.53 1859.43,-772.28"/>
<polygon fill="black" stroke="black" points="1861.55,-775.09 1868.17,-766.82 1857.84,-769.15 1861.55,-775.09"/>
</g>
<!-- EnvSubst_Equivalence_veqClosLam -->
<g id="node29" class="node">
<title>EnvSubst_Equivalence_veqClosLam</title>
<g id="a_node29"><a xlink:href="EnvSubst.html#Equivalence.veqClosLam" xlink:title="veqClosLam">
<ellipse fill="#7faaff" stroke="black" cx="2040" cy="-750.3" rx="67.69" ry="18"/>
<text text-anchor="middle" x="2040" y="-746.6" font-family="Times,serif" font-size="14.00">veqClosLam</text>
</a>
</g>
</g>
<!-- EnvSubst_Equivalence_val_equiv_reflexive&#45;&gt;EnvSubst_Equivalence_veqClosLam -->
<g id="edge24" class="edge">
<title>EnvSubst_Equivalence_val_equiv_reflexive&#45;&gt;EnvSubst_Equivalence_veqClosLam</title>
<path fill="none" stroke="black" d="M1795.28,-831.15C1841.78,-816.09 1906.89,-794.96 1964,-776.3 1972.35,-773.57 1981.2,-770.67 1989.81,-767.84"/>
<polygon fill="black" stroke="black" points="1990.98,-771.14 1999.38,-764.69 1988.79,-764.49 1990.98,-771.14"/>
</g>
<!-- EnvSubst_Equivalence_val_equiv_reflexive&#45;&gt;EnvSubst_Equivalence_veqConstr -->
<g id="edge25" class="edge">
<title>EnvSubst_Equivalence_val_equiv_reflexive&#45;&gt;EnvSubst_Equivalence_veqConstr</title>
<path fill="none" stroke="black" d="M1679.49,-829.72C1634.31,-811.51 1570.44,-785.75 1528.39,-768.8"/>
<polygon fill="black" stroke="black" points="1529.56,-765.5 1518.98,-765 1526.95,-771.99 1529.56,-765.5"/>
</g>
<!-- EnvSubst_Equivalence_val_equiv_reflexive&#45;&gt;EnvSubst_Equivalence_val_equiv -->
<g id="edge26" class="edge">
<title>EnvSubst_Equivalence_val_equiv_reflexive&#45;&gt;EnvSubst_Equivalence_val_equiv</title>
<path fill="none" stroke="black" d="M1658.4,-833.59C1644.07,-830.73 1629.12,-828.12 1615,-826.3 1556.58,-818.78 596.65,-818.92 556,-776.3 522.29,-740.96 578.18,-693.2 617.52,-666.19"/>
<polygon fill="black" stroke="black" points="619.75,-668.91 626.11,-660.44 615.86,-663.09 619.75,-668.91"/>
</g>
<!-- EnvSubst_Equivalence_list_val_equiv&#45;&gt;EnvSubst_Equivalence_val_equiv -->
<g id="edge27" class="edge">
<title>EnvSubst_Equivalence_list_val_equiv&#45;&gt;EnvSubst_Equivalence_val_equiv</title>
<path fill="none" stroke="black" d="M483.49,-733.73C518.42,-715.29 576.62,-684.57 614.4,-664.62"/>
<polygon fill="black" stroke="black" points="616.32,-667.56 623.53,-659.8 613.06,-661.37 616.32,-667.56"/>
</g>
<!-- EnvSubst_Equivalence_val_equiv_sind -->
<g id="node24" class="node">
<title>EnvSubst_Equivalence_val_equiv_sind</title>
<g id="a_node24"><a xlink:href="EnvSubst.html#Equivalence.val_equiv_sind" xlink:title="val_equiv_sind">
<ellipse fill="#f070d1" stroke="black" cx="651" cy="-750.3" rx="77.99" ry="18"/>
<ellipse fill="none" stroke="black" cx="651" cy="-750.3" rx="81.99" ry="22"/>
<ellipse fill="none" stroke="black" cx="651" cy="-750.3" rx="85.99" ry="26"/>
<text text-anchor="middle" x="651" y="-746.6" font-family="Times,serif" font-size="14.00">val_equiv_sind</text>
</a>
</g>
</g>
<!-- EnvSubst_Equivalence_val_equiv_sind&#45;&gt;EnvSubst_Equivalence_val_equiv -->
<g id="edge28" class="edge">
<title>EnvSubst_Equivalence_val_equiv_sind&#45;&gt;EnvSubst_Equivalence_val_equiv</title>
<path fill="none" stroke="black" d="M651,-724.12C651,-708.59 651,-688.66 651,-672.73"/>
<polygon fill="black" stroke="black" points="654.5,-672.44 651,-662.44 647.5,-672.44 654.5,-672.44"/>
</g>
<!-- EnvSubst_Equivalence_val_equiv_ind -->
<g id="node25" class="node">
<title>EnvSubst_Equivalence_val_equiv_ind</title>
<g id="a_node25"><a xlink:href="EnvSubst.html#Equivalence.val_equiv_ind" xlink:title="val_equiv_ind">
<ellipse fill="#7fffd4" stroke="black" cx="1327" cy="-750.3" rx="73.39" ry="18"/>
<ellipse fill="none" stroke="black" cx="1327" cy="-750.3" rx="77.39" ry="22"/>
<ellipse fill="none" stroke="black" cx="1327" cy="-750.3" rx="81.39" ry="26"/>
<text text-anchor="middle" x="1327" y="-746.6" font-family="Times,serif" font-size="14.00">val_equiv_ind</text>
</a>
</g>
</g>
<!-- EnvSubst_Equivalence_val_equiv_ind&#45;&gt;EnvSubst_Equivalence_val_equiv -->
<g id="edge29" class="edge">
<title>EnvSubst_Equivalence_val_equiv_ind&#45;&gt;EnvSubst_Equivalence_val_equiv</title>
<path fill="none" stroke="black" d="M1268.54,-732C1257.78,-729.17 1246.6,-726.46 1236,-724.3 1136.27,-703.96 839.15,-667.63 710.96,-652.36"/>
<polygon fill="black" stroke="black" points="711.27,-648.87 700.93,-651.17 710.44,-655.83 711.27,-648.87"/>
</g>
<!-- EnvSubst_Equivalence_veqTy&#45;&gt;EnvSubst_NamelessSubst_inst_env_i -->
<g id="edge30" class="edge">
<title>EnvSubst_Equivalence_veqTy&#45;&gt;EnvSubst_NamelessSubst_inst_env_i</title>
<path fill="none" stroke="black" d="M1576.61,-735.64C1568.95,-731.57 1560.28,-727.38 1552,-724.3 1360.24,-652.94 1306.09,-650.32 1104,-618.3 832.41,-575.27 504.5,-559.42 366.4,-554.37"/>
<polygon fill="black" stroke="black" points="366.51,-550.87 356.39,-554.01 366.26,-557.87 366.51,-550.87"/>
</g>
<!-- EnvSubst_Equivalence_veqClosTyLam&#45;&gt;EnvSubst_NamelessSubst_inst_env_i -->
<g id="edge31" class="edge">
<title>EnvSubst_Equivalence_veqClosTyLam&#45;&gt;EnvSubst_NamelessSubst_inst_env_i</title>
<path fill="none" stroke="black" d="M1696.36,-734.56C1620.77,-706.46 1447.47,-645.56 1296,-618.3 950.54,-556.12 528.22,-551.02 366.94,-551.6"/>
<polygon fill="black" stroke="black" points="366.68,-548.1 356.7,-551.64 366.71,-555.1 366.68,-548.1"/>
</g>
<!-- EnvSubst_Equivalence_veqClosFix&#45;&gt;EnvSubst_NamelessSubst_inst_env_i -->
<g id="edge32" class="edge">
<title>EnvSubst_Equivalence_veqClosFix&#45;&gt;EnvSubst_NamelessSubst_inst_env_i</title>
<path fill="none" stroke="black" d="M1857.48,-735.5C1783.56,-707.5 1607.21,-644.47 1453,-618.3 1241.61,-582.43 578.68,-560.43 366.22,-554.16"/>
<polygon fill="black" stroke="black" points="366.25,-550.66 356.15,-553.86 366.04,-557.66 366.25,-550.66"/>
</g>
<!-- EnvSubst_Equivalence_veqClosLam&#45;&gt;EnvSubst_NamelessSubst_inst_env_i -->
<g id="edge33" class="edge">
<title>EnvSubst_Equivalence_veqClosLam&#45;&gt;EnvSubst_NamelessSubst_inst_env_i</title>
<path fill="none" stroke="black" d="M2003.94,-734.93C1930.96,-706.62 1759.97,-644.14 1610,-618.3 1367.16,-576.46 598.65,-558.19 366.83,-553.54"/>
<polygon fill="black" stroke="black" points="366.6,-550.04 356.53,-553.34 366.46,-557.04 366.6,-550.04"/>
</g>
<!-- EnvSubst_Equivalence_veqConstr&#45;&gt;EnvSubst_NamelessSubst_inst_env_i -->
<g id="edge34" class="edge">
<title>EnvSubst_Equivalence_veqConstr&#45;&gt;EnvSubst_NamelessSubst_inst_env_i</title>
<path fill="none" stroke="black" d="M1451.53,-735.49C1440.66,-731.41 1428.45,-727.25 1417,-724.3 1023.92,-622.86 536.61,-573.04 364.13,-557.66"/>
<polygon fill="black" stroke="black" points="364.23,-554.16 353.96,-556.76 363.61,-561.13 364.23,-554.16"/>
</g>
<!-- EnvSubst_Equivalence_val_equiv&#45;&gt;EnvSubst_NamelessSubst_inst_env_i -->
<g id="edge35" class="edge">
<title>EnvSubst_Equivalence_val_equiv&#45;&gt;EnvSubst_NamelessSubst_inst_env_i</title>
<path fill="none" stroke="black" d="M609.7,-632.59C545.71,-616 422.66,-584.1 352.47,-565.9"/>
<polygon fill="black" stroke="black" points="353.06,-562.44 342.51,-563.32 351.31,-569.22 353.06,-562.44"/>
</g>
</g>
</svg>
