<?xml version="1.0" encoding="UTF-8" standalone="no"?>
<!DOCTYPE svg PUBLIC "-//W3C//DTD SVG 1.1//EN"
 "http://www.w3.org/Graphics/SVG/1.1/DTD/svg11.dtd">
<!-- Generated by graphviz version 2.43.0 (0)
 -->
<!-- Title: ResultMonad Pages: 1 -->
<svg width="1846pt" height="927pt"
 viewBox="0.00 0.00 1846.00 927.00" xmlns="http://www.w3.org/2000/svg" xmlns:xlink="http://www.w3.org/1999/xlink">
<g id="graph0" class="graph" transform="scale(1 1) rotate(0) translate(4 923)">
<title>ResultMonad</title>
<polygon fill="white" stroke="transparent" points="-4,4 -4,-923 1842,-923 1842,4 -4,4"/>
<g id="clust1" class="cluster">
<title>cluster_ResultMonad</title>
<polygon fill="#ffffc3" stroke="black" points="8,-20.71 8,-898.29 1830,-898.29 1830,-20.71 8,-20.71"/>
<text text-anchor="middle" x="63.5" y="-883.09" font-family="Times,serif" font-size="14.00">ResultMonad</text>
</g>
<!-- ResultMonad_isOk_neq_isErr -->
<g id="node1" class="node">
<title>ResultMonad_isOk_neq_isErr</title>
<g id="a_node1"><a xlink:href="ResultMonad.html#isOk_neq_isErr" xlink:title="isOk_neq_isErr">
<ellipse fill="#7fffd4" stroke="black" cx="1529" cy="-522.71" rx="80.68" ry="18"/>
<ellipse fill="none" stroke="black" cx="1529" cy="-522.71" rx="84.68" ry="22"/>
<ellipse fill="none" stroke="black" cx="1529" cy="-522.71" rx="88.69" ry="26"/>
<text text-anchor="middle" x="1529" y="-519.01" font-family="Times,serif" font-size="14.00">isOk_neq_isErr</text>
</a>
</g>
</g>
<!-- ResultMonad_isErr -->
<g id="node8" class="node">
<title>ResultMonad_isErr</title>
<g id="a_node8"><a xlink:href="ResultMonad.html#isErr" xlink:title="isErr">
<ellipse fill="#f070d1" stroke="black" cx="1404" cy="-294.71" rx="34.39" ry="18"/>
<text text-anchor="middle" x="1404" y="-291.01" font-family="Times,serif" font-size="14.00">isErr</text>
</a>
</g>
</g>
<!-- ResultMonad_isOk_neq_isErr&#45;&gt;ResultMonad_isErr -->
<g id="edge1" class="edge">
<title>ResultMonad_isOk_neq_isErr&#45;&gt;ResultMonad_isErr</title>
<path fill="none" stroke="black" d="M1515.15,-496.66C1491.16,-453.3 1442.17,-364.71 1418.05,-321.11"/>
<polygon fill="black" stroke="black" points="1421.06,-319.33 1413.16,-312.27 1414.94,-322.72 1421.06,-319.33"/>
</g>
<!-- ResultMonad_isOk -->
<g id="node9" class="node">
<title>ResultMonad_isOk</title>
<g id="a_node9"><a xlink:href="ResultMonad.html#isOk" xlink:title="isOk">
<ellipse fill="#f070d1" stroke="black" cx="1195" cy="-294.71" rx="31.4" ry="18"/>
<text text-anchor="middle" x="1195" y="-291.01" font-family="Times,serif" font-size="14.00">isOk</text>
</a>
</g>
</g>
<!-- ResultMonad_isOk_neq_isErr&#45;&gt;ResultMonad_isOk -->
<g id="edge2" class="edge">
<title>ResultMonad_isOk_neq_isErr&#45;&gt;ResultMonad_isOk</title>
<path fill="none" stroke="black" d="M1494.83,-498.59C1428.59,-453.77 1283.89,-355.86 1222.94,-314.62"/>
<polygon fill="black" stroke="black" points="1224.82,-311.66 1214.58,-308.96 1220.9,-317.46 1224.82,-311.66"/>
</g>
<!-- ResultMonad_Err -->
<g id="node22" class="node">
<title>ResultMonad_Err</title>
<g id="a_node22"><a xlink:href="ResultMonad.html#Err" xlink:title="Err">
<ellipse fill="#7faaff" stroke="black" cx="802" cy="-294.71" rx="27" ry="18"/>
<text text-anchor="middle" x="802" y="-291.01" font-family="Times,serif" font-size="14.00">Err</text>
</a>
</g>
</g>
<!-- ResultMonad_isOk_neq_isErr&#45;&gt;ResultMonad_Err -->
<g id="edge3" class="edge">
<title>ResultMonad_isOk_neq_isErr&#45;&gt;ResultMonad_Err</title>
<path fill="none" stroke="black" d="M1469.81,-503.31C1323.73,-457.9 949.59,-341.59 835.52,-306.13"/>
<polygon fill="black" stroke="black" points="836.5,-302.77 825.91,-303.14 834.42,-309.45 836.5,-302.77"/>
</g>
<!-- ResultMonad_Ok -->
<g id="node23" class="node">
<title>ResultMonad_Ok</title>
<g id="a_node23"><a xlink:href="ResultMonad.html#Ok" xlink:title="Ok">
<ellipse fill="#7faaff" stroke="black" cx="699" cy="-294.71" rx="27" ry="18"/>
<text text-anchor="middle" x="699" y="-291.01" font-family="Times,serif" font-size="14.00">Ok</text>
</a>
</g>
</g>
<!-- ResultMonad_isOk_neq_isErr&#45;&gt;ResultMonad_Ok -->
<g id="edge4" class="edge">
<title>ResultMonad_isOk_neq_isErr&#45;&gt;ResultMonad_Ok</title>
<path fill="none" stroke="black" d="M1463.89,-504.96C1291.84,-460.62 833.65,-342.18 766,-320.71 754.49,-317.06 742.06,-312.57 731.07,-308.42"/>
<polygon fill="black" stroke="black" points="732.03,-305.04 721.44,-304.72 729.53,-311.57 732.03,-305.04"/>
</g>
<!-- ResultMonad_isOk_not_exists -->
<g id="node2" class="node">
<title>ResultMonad_isOk_not_exists</title>
<g id="a_node2"><a xlink:href="ResultMonad.html#isOk_not_exists" xlink:title="isOk_not_exists">
<ellipse fill="#7fffd4" stroke="black" cx="1195" cy="-522.71" rx="82.58" ry="18"/>
<ellipse fill="none" stroke="black" cx="1195" cy="-522.71" rx="86.58" ry="22"/>
<ellipse fill="none" stroke="black" cx="1195" cy="-522.71" rx="90.59" ry="26"/>
<text text-anchor="middle" x="1195" y="-519.01" font-family="Times,serif" font-size="14.00">isOk_not_exists</text>
</a>
</g>
</g>
<!-- ResultMonad_isOk_not_exists&#45;&gt;ResultMonad_isOk -->
<g id="edge5" class="edge">
<title>ResultMonad_isOk_not_exists&#45;&gt;ResultMonad_isOk</title>
<path fill="none" stroke="black" d="M1195,-496.66C1195,-453.87 1195,-367.06 1195,-322.87"/>
<polygon fill="black" stroke="black" points="1198.5,-322.86 1195,-312.86 1191.5,-322.86 1198.5,-322.86"/>
</g>
<!-- ResultMonad_isOk_not_exists&#45;&gt;ResultMonad_Err -->
<g id="edge6" class="edge">
<title>ResultMonad_isOk_not_exists&#45;&gt;ResultMonad_Err</title>
<path fill="none" stroke="black" d="M1155.88,-499.21C1076.91,-453.8 900.08,-352.11 830.71,-312.22"/>
<polygon fill="black" stroke="black" points="832.45,-309.18 822.03,-307.23 828.96,-315.25 832.45,-309.18"/>
</g>
<!-- ResultMonad_isOk_not_exists&#45;&gt;ResultMonad_Ok -->
<g id="edge7" class="edge">
<title>ResultMonad_isOk_not_exists&#45;&gt;ResultMonad_Ok</title>
<path fill="none" stroke="black" d="M1147.89,-500.24C1047.4,-454.46 814.34,-348.26 730.09,-309.88"/>
<polygon fill="black" stroke="black" points="731.35,-306.61 720.8,-305.64 728.45,-312.98 731.35,-306.61"/>
</g>
<!-- ResultMonad_isOk_exists -->
<g id="node3" class="node">
<title>ResultMonad_isOk_exists</title>
<g id="a_node3"><a xlink:href="ResultMonad.html#isOk_exists" xlink:title="isOk_exists">
<ellipse fill="#7fffd4" stroke="black" cx="1322" cy="-750.71" rx="63.08" ry="18"/>
<ellipse fill="none" stroke="black" cx="1322" cy="-750.71" rx="67.09" ry="22"/>
<ellipse fill="none" stroke="black" cx="1322" cy="-750.71" rx="71.09" ry="26"/>
<text text-anchor="middle" x="1322" y="-747.01" font-family="Times,serif" font-size="14.00">isOk_exists</text>
</a>
</g>
</g>
<!-- ResultMonad_isOk_Ok -->
<g id="node5" class="node">
<title>ResultMonad_isOk_Ok</title>
<g id="a_node5"><a xlink:href="ResultMonad.html#isOk_Ok" xlink:title="isOk_Ok">
<ellipse fill="#7fffd4" stroke="black" cx="1038" cy="-522.71" rx="48.19" ry="18"/>
<text text-anchor="middle" x="1038" y="-519.01" font-family="Times,serif" font-size="14.00">isOk_Ok</text>
</a>
</g>
</g>
<!-- ResultMonad_isOk_exists&#45;&gt;ResultMonad_isOk_Ok -->
<g id="edge8" class="edge">
<title>ResultMonad_isOk_exists&#45;&gt;ResultMonad_isOk_Ok</title>
<path fill="none" stroke="black" d="M1293.21,-726.8C1238.32,-683.12 1119.42,-588.5 1065.54,-545.62"/>
<polygon fill="black" stroke="black" points="1067.47,-542.69 1057.47,-539.2 1063.11,-548.17 1067.47,-542.69"/>
</g>
<!-- ResultMonad_isOk_exists&#45;&gt;ResultMonad_Err -->
<g id="edge9" class="edge">
<title>ResultMonad_isOk_exists&#45;&gt;ResultMonad_Err</title>
<path fill="none" stroke="black" d="M1271.43,-732.19C1152.18,-690.44 861.24,-585.75 833,-548.71 806.41,-513.83 802.41,-381.28 801.96,-323.22"/>
<polygon fill="black" stroke="black" points="805.46,-322.96 801.91,-312.97 798.46,-322.99 805.46,-322.96"/>
</g>
<!-- ResultMonad_isOk_Err -->
<g id="node4" class="node">
<title>ResultMonad_isOk_Err</title>
<g id="a_node4"><a xlink:href="ResultMonad.html#isOk_Err" xlink:title="isOk_Err">
<ellipse fill="#7fffd4" stroke="black" cx="1363" cy="-522.71" rx="51.21" ry="18"/>
<ellipse fill="none" stroke="black" cx="1363" cy="-522.71" rx="55.2" ry="22"/>
<ellipse fill="none" stroke="black" cx="1363" cy="-522.71" rx="59.19" ry="26"/>
<text text-anchor="middle" x="1363" y="-519.01" font-family="Times,serif" font-size="14.00">isOk_Err</text>
</a>
</g>
</g>
<!-- ResultMonad_isOk_Err&#45;&gt;ResultMonad_isOk -->
<g id="edge10" class="edge">
<title>ResultMonad_isOk_Err&#45;&gt;ResultMonad_isOk</title>
<path fill="none" stroke="black" d="M1345.02,-497.52C1312.71,-454.06 1245.2,-363.24 1212.92,-319.82"/>
<polygon fill="black" stroke="black" points="1215.55,-317.49 1206.78,-311.56 1209.94,-321.67 1215.55,-317.49"/>
</g>
<!-- ResultMonad_isOk_Err&#45;&gt;ResultMonad_Err -->
<g id="edge11" class="edge">
<title>ResultMonad_isOk_Err&#45;&gt;ResultMonad_Err</title>
<path fill="none" stroke="black" d="M1320.37,-504.54C1212.33,-461.01 929.56,-347.1 834.05,-308.62"/>
<polygon fill="black" stroke="black" points="835.21,-305.32 824.63,-304.82 832.59,-311.81 835.21,-305.32"/>
</g>
<!-- ResultMonad_isOk_Ok&#45;&gt;ResultMonad_isOk -->
<g id="edge12" class="edge">
<title>ResultMonad_isOk_Ok&#45;&gt;ResultMonad_isOk</title>
<path fill="none" stroke="black" d="M1049.54,-505.09C1076.95,-465.64 1146.05,-366.18 1178.14,-319.98"/>
<polygon fill="black" stroke="black" points="1181.03,-321.95 1183.86,-311.75 1175.28,-317.96 1181.03,-321.95"/>
</g>
<!-- ResultMonad_isOk_Ok&#45;&gt;ResultMonad_Ok -->
<g id="edge13" class="edge">
<title>ResultMonad_isOk_Ok&#45;&gt;ResultMonad_Ok</title>
<path fill="none" stroke="black" d="M1015.49,-506.71C955.33,-466.6 790.93,-356.99 725.94,-313.67"/>
<polygon fill="black" stroke="black" points="727.72,-310.65 717.46,-308.01 723.84,-316.47 727.72,-310.65"/>
</g>
<!-- ResultMonad_result_of_option_eq_none -->
<g id="node6" class="node">
<title>ResultMonad_result_of_option_eq_none</title>
<g id="a_node6"><a xlink:href="ResultMonad.html#result_of_option_eq_none" xlink:title="result_of_option_eq_none">
<ellipse fill="#7fffd4" stroke="black" cx="648" cy="-750.71" rx="127.28" ry="18"/>
<ellipse fill="none" stroke="black" cx="648" cy="-750.71" rx="131.28" ry="22"/>
<ellipse fill="none" stroke="black" cx="648" cy="-750.71" rx="135.28" ry="26"/>
<text text-anchor="middle" x="648" y="-747.01" font-family="Times,serif" font-size="14.00">result_of_option_eq_none</text>
</a>
</g>
</g>
<!-- ResultMonad_result_of_option -->
<g id="node15" class="node">
<title>ResultMonad_result_of_option</title>
<g id="a_node15"><a xlink:href="ResultMonad.html#result_of_option" xlink:title="result_of_option">
<ellipse fill="#f070d1" stroke="black" cx="255" cy="-522.71" rx="85.29" ry="18"/>
<text text-anchor="middle" x="255" y="-519.01" font-family="Times,serif" font-size="14.00">result_of_option</text>
</a>
</g>
</g>
<!-- ResultMonad_result_of_option_eq_none&#45;&gt;ResultMonad_result_of_option -->
<g id="edge14" class="edge">
<title>ResultMonad_result_of_option_eq_none&#45;&gt;ResultMonad_result_of_option</title>
<path fill="none" stroke="black" d="M606.31,-725.74C529.12,-681.34 365.1,-587.02 291.77,-544.85"/>
<polygon fill="black" stroke="black" points="293.28,-541.69 282.87,-539.74 289.79,-547.76 293.28,-541.69"/>
</g>
<!-- ResultMonad_result_of_option_eq_some -->
<g id="node7" class="node">
<title>ResultMonad_result_of_option_eq_some</title>
<g id="a_node7"><a xlink:href="ResultMonad.html#result_of_option_eq_some" xlink:title="result_of_option_eq_some">
<ellipse fill="#7fffd4" stroke="black" cx="357" cy="-750.71" rx="129.19" ry="18"/>
<ellipse fill="none" stroke="black" cx="357" cy="-750.71" rx="133.18" ry="22"/>
<ellipse fill="none" stroke="black" cx="357" cy="-750.71" rx="137.18" ry="26"/>
<text text-anchor="middle" x="357" y="-747.01" font-family="Times,serif" font-size="14.00">result_of_option_eq_some</text>
</a>
</g>
</g>
<!-- ResultMonad_result_of_option_eq_some&#45;&gt;ResultMonad_result_of_option -->
<g id="edge15" class="edge">
<title>ResultMonad_result_of_option_eq_some&#45;&gt;ResultMonad_result_of_option</title>
<path fill="none" stroke="black" d="M345.69,-724.66C326.26,-681.6 286.7,-593.96 266.88,-550.03"/>
<polygon fill="black" stroke="black" points="270.04,-548.53 262.74,-540.86 263.66,-551.41 270.04,-548.53"/>
</g>
<!-- ResultMonad_result -->
<g id="node24" class="node">
<title>ResultMonad_result</title>
<g id="a_node24"><a xlink:href="ResultMonad.html#result" xlink:title="result">
<ellipse fill="#e2cdfa" stroke="black" cx="699" cy="-87.71" rx="38.19" ry="18"/>
<text text-anchor="middle" x="699" y="-84.01" font-family="Times,serif" font-size="14.00">result</text>
</a>
</g>
</g>
<!-- ResultMonad_isErr&#45;&gt;ResultMonad_result -->
<g id="edge16" class="edge">
<title>ResultMonad_isErr&#45;&gt;ResultMonad_result</title>
<path fill="none" stroke="black" d="M1374.6,-285.16C1263.73,-252.92 870.57,-138.6 740.86,-100.88"/>
<polygon fill="black" stroke="black" points="741.49,-97.42 730.91,-97.99 739.54,-104.14 741.49,-97.42"/>
</g>
<!-- ResultMonad_isOk&#45;&gt;ResultMonad_result -->
<g id="edge17" class="edge">
<title>ResultMonad_isOk&#45;&gt;ResultMonad_result</title>
<path fill="none" stroke="black" d="M1170.4,-283.54C1089.71,-250.19 832.68,-143.96 736.13,-104.06"/>
<polygon fill="black" stroke="black" points="737.34,-100.77 726.76,-100.18 734.67,-107.24 737.34,-100.77"/>
</g>
<!-- ResultMonad_bind_error -->
<g id="node10" class="node">
<title>ResultMonad_bind_error</title>
<g id="a_node10"><a xlink:href="ResultMonad.html#bind_error" xlink:title="bind_error">
<ellipse fill="#f070d1" stroke="black" cx="84" cy="-522.71" rx="59.61" ry="18"/>
<ellipse fill="none" stroke="black" cx="84" cy="-522.71" rx="63.6" ry="22"/>
<ellipse fill="none" stroke="black" cx="84" cy="-522.71" rx="67.59" ry="26"/>
<text text-anchor="middle" x="84" y="-519.01" font-family="Times,serif" font-size="14.00">bind_error</text>
</a>
</g>
</g>
<!-- ResultMonad_bind_error&#45;&gt;ResultMonad_Err -->
<g id="edge18" class="edge">
<title>ResultMonad_bind_error&#45;&gt;ResultMonad_Err</title>
<path fill="none" stroke="black" d="M134.49,-505.18C143.32,-502.33 152.42,-499.42 161,-496.71 415.46,-416.4 482.33,-406.5 735,-320.71 746.34,-316.86 758.65,-312.36 769.58,-308.25"/>
<polygon fill="black" stroke="black" points="771.07,-311.43 779.17,-304.61 768.58,-304.89 771.07,-311.43"/>
</g>
<!-- ResultMonad_bind_error&#45;&gt;ResultMonad_Ok -->
<g id="edge19" class="edge">
<title>ResultMonad_bind_error&#45;&gt;ResultMonad_Ok</title>
<path fill="none" stroke="black" d="M131.75,-504.16C251.92,-460 564.57,-345.11 666.41,-307.69"/>
<polygon fill="black" stroke="black" points="667.69,-310.94 675.87,-304.21 665.28,-304.37 667.69,-310.94"/>
</g>
<!-- ResultMonad_bind_error&#45;&gt;ResultMonad_result -->
<g id="edge20" class="edge">
<title>ResultMonad_bind_error&#45;&gt;ResultMonad_result</title>
<path fill="none" stroke="black" d="M112.58,-498.96C169.76,-453.72 302.74,-349.81 419,-268.71 507.31,-207.11 615.39,-139.83 667.68,-107.77"/>
<polygon fill="black" stroke="black" points="669.78,-110.59 676.48,-102.38 666.13,-104.62 669.78,-110.59"/>
</g>
<!-- ResultMonad_unpack_result -->
<g id="node11" class="node">
<title>ResultMonad_unpack_result</title>
<g id="a_node11"><a xlink:href="ResultMonad.html#unpack_result" xlink:title="unpack_result">
<ellipse fill="#f070d1" stroke="black" cx="511" cy="-294.71" rx="75.3" ry="18"/>
<ellipse fill="none" stroke="black" cx="511" cy="-294.71" rx="79.29" ry="22"/>
<ellipse fill="none" stroke="black" cx="511" cy="-294.71" rx="83.29" ry="26"/>
<text text-anchor="middle" x="511" y="-291.01" font-family="Times,serif" font-size="14.00">unpack_result</text>
</a>
</g>
</g>
<!-- ResultMonad_unpack_result&#45;&gt;ResultMonad_result -->
<g id="edge21" class="edge">
<title>ResultMonad_unpack_result&#45;&gt;ResultMonad_result</title>
<path fill="none" stroke="black" d="M533.3,-269.39C569.72,-229.68 641.47,-151.44 677.41,-112.25"/>
<polygon fill="black" stroke="black" points="680.33,-114.24 684.51,-104.51 675.17,-109.51 680.33,-114.24"/>
</g>
<!-- ResultMonad_result_to_option -->
<g id="node12" class="node">
<title>ResultMonad_result_to_option</title>
<g id="a_node12"><a xlink:href="ResultMonad.html#result_to_option" xlink:title="result_to_option">
<ellipse fill="#f070d1" stroke="black" cx="1729" cy="-522.71" rx="85.27" ry="18"/>
<ellipse fill="none" stroke="black" cx="1729" cy="-522.71" rx="89.28" ry="22"/>
<ellipse fill="none" stroke="black" cx="1729" cy="-522.71" rx="93.29" ry="26"/>
<text text-anchor="middle" x="1729" y="-519.01" font-family="Times,serif" font-size="14.00">result_to_option</text>
</a>
</g>
</g>
<!-- ResultMonad_option_of_result -->
<g id="node14" class="node">
<title>ResultMonad_option_of_result</title>
<g id="a_node14"><a xlink:href="ResultMonad.html#option_of_result" xlink:title="option_of_result">
<ellipse fill="#f070d1" stroke="black" cx="1635" cy="-294.71" rx="85.29" ry="18"/>
<text text-anchor="middle" x="1635" y="-291.01" font-family="Times,serif" font-size="14.00">option_of_result</text>
</a>
</g>
</g>
<!-- ResultMonad_result_to_option&#45;&gt;ResultMonad_option_of_result -->
<g id="edge22" class="edge">
<title>ResultMonad_result_to_option&#45;&gt;ResultMonad_option_of_result</title>
<path fill="none" stroke="black" d="M1718.58,-496.66C1700.71,-453.69 1664.37,-366.32 1646.06,-322.31"/>
<polygon fill="black" stroke="black" points="1649.2,-320.75 1642.13,-312.86 1642.74,-323.43 1649.2,-320.75"/>
</g>
<!-- ResultMonad_option_to_result -->
<g id="node13" class="node">
<title>ResultMonad_option_to_result</title>
<g id="a_node13"><a xlink:href="ResultMonad.html#option_to_result" xlink:title="option_to_result">
<ellipse fill="#f070d1" stroke="black" cx="109" cy="-750.71" rx="85.27" ry="18"/>
<ellipse fill="none" stroke="black" cx="109" cy="-750.71" rx="89.28" ry="22"/>
<ellipse fill="none" stroke="black" cx="109" cy="-750.71" rx="93.29" ry="26"/>
<text text-anchor="middle" x="109" y="-747.01" font-family="Times,serif" font-size="14.00">option_to_result</text>
</a>
</g>
</g>
<!-- ResultMonad_option_to_result&#45;&gt;ResultMonad_result_of_option -->
<g id="edge23" class="edge">
<title>ResultMonad_option_to_result&#45;&gt;ResultMonad_result_of_option</title>
<path fill="none" stroke="black" d="M125.18,-724.66C153.19,-681.31 210.38,-592.78 238.56,-549.16"/>
<polygon fill="black" stroke="black" points="241.63,-550.86 244.11,-540.56 235.75,-547.06 241.63,-550.86"/>
</g>
<!-- ResultMonad_option_of_result&#45;&gt;ResultMonad_result -->
<g id="edge24" class="edge">
<title>ResultMonad_option_of_result&#45;&gt;ResultMonad_result</title>
<path fill="none" stroke="black" d="M1578.21,-281.27C1406.69,-243.71 896.34,-131.93 743.03,-98.35"/>
<polygon fill="black" stroke="black" points="743.56,-94.89 733.04,-96.17 742.06,-101.72 743.56,-94.89"/>
</g>
<!-- ResultMonad_result_of_option&#45;&gt;ResultMonad_Err -->
<g id="edge25" class="edge">
<title>ResultMonad_result_of_option&#45;&gt;ResultMonad_Err</title>
<path fill="none" stroke="black" d="M292.17,-506.35C393.89,-464.33 675.56,-347.95 770.38,-308.77"/>
<polygon fill="black" stroke="black" points="771.82,-311.96 779.73,-304.91 769.15,-305.5 771.82,-311.96"/>
</g>
<!-- ResultMonad_result_of_option&#45;&gt;ResultMonad_Ok -->
<g id="edge26" class="edge">
<title>ResultMonad_result_of_option&#45;&gt;ResultMonad_Ok</title>
<path fill="none" stroke="black" d="M286.22,-505.82C368.16,-464.11 588.58,-351.91 669.06,-310.95"/>
<polygon fill="black" stroke="black" points="670.84,-313.97 678.16,-306.32 667.66,-307.73 670.84,-313.97"/>
</g>
<!-- ResultMonad_result_of_option&#45;&gt;ResultMonad_result -->
<g id="edge27" class="edge">
<title>ResultMonad_result_of_option&#45;&gt;ResultMonad_result</title>
<path fill="none" stroke="black" d="M301.5,-507.57C376.35,-482.39 523.25,-422.64 603,-320.71 617.82,-301.77 609.71,-291.29 618,-268.71 638.62,-212.55 668.79,-149.27 685.89,-114.71"/>
<polygon fill="black" stroke="black" points="689.03,-116.26 690.35,-105.75 682.76,-113.14 689.03,-116.26"/>
</g>
<!-- ResultMonad_MonadLaws_Monad_result -->
<g id="node16" class="node">
<title>ResultMonad_MonadLaws_Monad_result</title>
<g id="a_node16"><a xlink:href="ResultMonad.html#MonadLaws_Monad_result" xlink:title="MonadLaws_Monad_result">
<ellipse fill="#7fffd4" stroke="black" cx="943" cy="-750.71" rx="133.78" ry="18"/>
<ellipse fill="none" stroke="black" cx="943" cy="-750.71" rx="137.78" ry="22"/>
<ellipse fill="none" stroke="black" cx="943" cy="-750.71" rx="141.78" ry="26"/>
<text text-anchor="middle" x="943" y="-747.01" font-family="Times,serif" font-size="14.00">MonadLaws_Monad_result</text>
</a>
</g>
</g>
<!-- ResultMonad_Monad_result -->
<g id="node17" class="node">
<title>ResultMonad_Monad_result</title>
<g id="a_node17"><a xlink:href="ResultMonad.html#Monad_result" xlink:title="Monad_result">
<ellipse fill="#f070d1" stroke="black" cx="432" cy="-522.71" rx="74.19" ry="18"/>
<text text-anchor="middle" x="432" y="-519.01" font-family="Times,serif" font-size="14.00">Monad_result</text>
</a>
</g>
</g>
<!-- ResultMonad_MonadLaws_Monad_result&#45;&gt;ResultMonad_Monad_result -->
<g id="edge28" class="edge">
<title>ResultMonad_MonadLaws_Monad_result&#45;&gt;ResultMonad_Monad_result</title>
<path fill="none" stroke="black" d="M890.24,-726.38C788.91,-681.56 568.86,-584.24 475.4,-542.9"/>
<polygon fill="black" stroke="black" points="476.79,-539.69 466.23,-538.85 473.95,-546.09 476.79,-539.69"/>
</g>
<!-- ResultMonad_Monad_result&#45;&gt;ResultMonad_Err -->
<g id="edge29" class="edge">
<title>ResultMonad_Monad_result&#45;&gt;ResultMonad_Err</title>
<path fill="none" stroke="black" d="M458.02,-505.82C525.24,-464.76 704.29,-355.39 773.83,-312.92"/>
<polygon fill="black" stroke="black" points="775.8,-315.81 782.51,-307.61 772.16,-309.84 775.8,-315.81"/>
</g>
<!-- ResultMonad_Monad_result&#45;&gt;ResultMonad_Ok -->
<g id="edge30" class="edge">
<title>ResultMonad_Monad_result&#45;&gt;ResultMonad_Ok</title>
<path fill="none" stroke="black" d="M451.63,-505.09C499.65,-464.45 622.87,-360.15 675.06,-315.97"/>
<polygon fill="black" stroke="black" points="677.44,-318.55 682.81,-309.41 672.91,-313.2 677.44,-318.55"/>
</g>
<!-- ResultMonad_Monad_result&#45;&gt;ResultMonad_result -->
<g id="edge31" class="edge">
<title>ResultMonad_Monad_result&#45;&gt;ResultMonad_result</title>
<path fill="none" stroke="black" d="M451.95,-505.22C489.44,-473.28 570.84,-399.15 618,-320.71 623.51,-311.55 670.06,-174.48 690,-115.43"/>
<polygon fill="black" stroke="black" points="693.4,-116.28 693.28,-105.69 686.77,-114.04 693.4,-116.28"/>
</g>
<!-- ResultMonad_result_sind -->
<g id="node18" class="node">
<title>ResultMonad_result_sind</title>
<g id="a_node18"><a xlink:href="ResultMonad.html#result_sind" xlink:title="result_sind">
<ellipse fill="#f070d1" stroke="black" cx="734" cy="-522.71" rx="61.96" ry="18"/>
<ellipse fill="none" stroke="black" cx="734" cy="-522.71" rx="65.98" ry="22"/>
<ellipse fill="none" stroke="black" cx="734" cy="-522.71" rx="69.99" ry="26"/>
<text text-anchor="middle" x="734" y="-519.01" font-family="Times,serif" font-size="14.00">result_sind</text>
</a>
</g>
</g>
<!-- ResultMonad_result_sind&#45;&gt;ResultMonad_Err -->
<g id="edge32" class="edge">
<title>ResultMonad_result_sind&#45;&gt;ResultMonad_Err</title>
<path fill="none" stroke="black" d="M741.54,-496.66C754.47,-453.68 780.77,-366.26 794.01,-322.26"/>
<polygon fill="black" stroke="black" points="797.4,-323.15 796.93,-312.56 790.7,-321.13 797.4,-323.15"/>
</g>
<!-- ResultMonad_result_sind&#45;&gt;ResultMonad_Ok -->
<g id="edge33" class="edge">
<title>ResultMonad_result_sind&#45;&gt;ResultMonad_Ok</title>
<path fill="none" stroke="black" d="M730.12,-496.66C723.49,-453.87 710.05,-367.06 703.21,-322.87"/>
<polygon fill="black" stroke="black" points="706.64,-322.2 701.66,-312.86 699.73,-323.28 706.64,-322.2"/>
</g>
<!-- ResultMonad_result_sind&#45;&gt;ResultMonad_result -->
<g id="edge34" class="edge">
<title>ResultMonad_result_sind&#45;&gt;ResultMonad_result</title>
<path fill="none" stroke="black" d="M735.8,-496.49C738.69,-450.9 743.22,-351.76 735,-268.71 729.55,-213.67 714.94,-150.53 706.1,-115.57"/>
<polygon fill="black" stroke="black" points="709.44,-114.48 703.56,-105.67 702.66,-116.22 709.44,-114.48"/>
</g>
<!-- ResultMonad_result_rec -->
<g id="node19" class="node">
<title>ResultMonad_result_rec</title>
<g id="a_node19"><a xlink:href="ResultMonad.html#result_rec" xlink:title="result_rec">
<ellipse fill="#f070d1" stroke="black" cx="1168" cy="-750.71" rx="57.37" ry="18"/>
<ellipse fill="none" stroke="black" cx="1168" cy="-750.71" rx="61.38" ry="22"/>
<ellipse fill="none" stroke="black" cx="1168" cy="-750.71" rx="65.39" ry="26"/>
<text text-anchor="middle" x="1168" y="-747.01" font-family="Times,serif" font-size="14.00">result_rec</text>
</a>
</g>
</g>
<!-- ResultMonad_result_rect -->
<g id="node21" class="node">
<title>ResultMonad_result_rect</title>
<g id="a_node21"><a xlink:href="ResultMonad.html#result_rect" xlink:title="result_rect">
<ellipse fill="#f070d1" stroke="black" cx="585" cy="-522.71" rx="61.19" ry="18"/>
<text text-anchor="middle" x="585" y="-519.01" font-family="Times,serif" font-size="14.00">result_rect</text>
</a>
</g>
</g>
<!-- ResultMonad_result_rec&#45;&gt;ResultMonad_result_rect -->
<g id="edge35" class="edge">
<title>ResultMonad_result_rec&#45;&gt;ResultMonad_result_rect</title>
<path fill="none" stroke="black" d="M1122.25,-731.98C1013.08,-689.65 738.32,-583.15 629.95,-541.14"/>
<polygon fill="black" stroke="black" points="631.19,-537.86 620.61,-537.51 628.66,-544.39 631.19,-537.86"/>
</g>
<!-- ResultMonad_result_ind -->
<g id="node20" class="node">
<title>ResultMonad_result_ind</title>
<g id="a_node20"><a xlink:href="ResultMonad.html#result_ind" xlink:title="result_ind">
<ellipse fill="#7fffd4" stroke="black" cx="907" cy="-522.71" rx="57.37" ry="18"/>
<ellipse fill="none" stroke="black" cx="907" cy="-522.71" rx="61.38" ry="22"/>
<ellipse fill="none" stroke="black" cx="907" cy="-522.71" rx="65.39" ry="26"/>
<text text-anchor="middle" x="907" y="-519.01" font-family="Times,serif" font-size="14.00">result_ind</text>
</a>
</g>
</g>
<!-- ResultMonad_result_ind&#45;&gt;ResultMonad_Err -->
<g id="edge36" class="edge">
<title>ResultMonad_result_ind&#45;&gt;ResultMonad_Err</title>
<path fill="none" stroke="black" d="M895.56,-497.09C875.5,-453.91 834.17,-364.95 813.83,-321.18"/>
<polygon fill="black" stroke="black" points="816.98,-319.65 809.6,-312.06 810.63,-322.6 816.98,-319.65"/>
</g>
<!-- ResultMonad_result_ind&#45;&gt;ResultMonad_Ok -->
<g id="edge37" class="edge">
<title>ResultMonad_result_ind&#45;&gt;ResultMonad_Ok</title>
<path fill="none" stroke="black" d="M885.13,-497.95C844.68,-454 758.7,-360.58 719.39,-317.86"/>
<polygon fill="black" stroke="black" points="721.96,-315.49 712.61,-310.5 716.81,-320.23 721.96,-315.49"/>
</g>
<!-- ResultMonad_result_ind&#45;&gt;ResultMonad_result -->
<g id="edge38" class="edge">
<title>ResultMonad_result_ind&#45;&gt;ResultMonad_result</title>
<path fill="none" stroke="black" d="M903.47,-496.48C896.19,-449.61 876.86,-346.76 838,-268.71 807.02,-206.47 752.9,-144.7 722.12,-112.19"/>
<polygon fill="black" stroke="black" points="724.28,-109.38 714.83,-104.57 719.22,-114.22 724.28,-109.38"/>
</g>
<!-- ResultMonad_result_rect&#45;&gt;ResultMonad_Err -->
<g id="edge39" class="edge">
<title>ResultMonad_result_rect&#45;&gt;ResultMonad_Err</title>
<path fill="none" stroke="black" d="M600.96,-505.09C639.46,-464.99 737.48,-362.91 780.83,-317.76"/>
<polygon fill="black" stroke="black" points="783.62,-319.91 788.02,-310.27 778.57,-315.06 783.62,-319.91"/>
</g>
<!-- ResultMonad_result_rect&#45;&gt;ResultMonad_Ok -->
<g id="edge40" class="edge">
<title>ResultMonad_result_rect&#45;&gt;ResultMonad_Ok</title>
<path fill="none" stroke="black" d="M593.57,-504.72C613.44,-465.33 662.74,-367.59 686.2,-321.08"/>
<polygon fill="black" stroke="black" points="689.42,-322.48 690.79,-311.98 683.17,-319.33 689.42,-322.48"/>
</g>
<!-- ResultMonad_result_rect&#45;&gt;ResultMonad_result -->
<g id="edge41" class="edge">
<title>ResultMonad_result_rect&#45;&gt;ResultMonad_result</title>
<path fill="none" stroke="black" d="M589.54,-504.5C598.71,-469.76 620.08,-388.76 638,-320.71 657.59,-246.3 680.68,-158.45 692.01,-115.32"/>
<polygon fill="black" stroke="black" points="695.41,-116.16 694.56,-105.59 688.64,-114.38 695.41,-116.16"/>
</g>
</g>
</svg>
