<?xml version="1.0" encoding="UTF-8" standalone="no"?>
<!DOCTYPE svg PUBLIC "-//W3C//DTD SVG 1.1//EN"
 "http://www.w3.org/Graphics/SVG/1.1/DTD/svg11.dtd">
<!-- Generated by graphviz version 2.43.0 (0)
 -->
<!-- Title: ExchangeBuggyPrinters Pages: 1 -->
<svg width="686pt" height="347pt"
 viewBox="0.00 0.00 686.00 347.00" xmlns="http://www.w3.org/2000/svg" xmlns:xlink="http://www.w3.org/1999/xlink">
<g id="graph0" class="graph" transform="scale(1 1) rotate(0) translate(4 343)">
<title>ExchangeBuggyPrinters</title>
<polygon fill="white" stroke="transparent" points="-4,4 -4,-343 682,-343 682,4 -4,4"/>
<g id="clust1" class="cluster">
<title>cluster_ExchangeBuggyPrinters</title>
<polygon fill="#ffffc3" stroke="black" points="10.51,-8 10.51,-331 667.49,-331 667.49,-8 10.51,-8"/>
<text text-anchor="middle" x="106.01" y="-315.8" font-family="Times,serif" font-size="14.00">ExchangeBuggyPrinters</text>
</g>
<!-- ExchangeBuggyPrinters_showSerializedMsg -->
<g id="node1" class="node">
<title>ExchangeBuggyPrinters_showSerializedMsg</title>
<g id="a_node1"><a xlink:href="ExchangeBuggyPrinters.html#showSerializedMsg" xlink:title="showSerializedMsg">
<ellipse fill="#f070d1" stroke="black" cx="350.93" cy="-274" rx="100.96" ry="18"/>
<ellipse fill="none" stroke="black" cx="350.93" cy="-274" rx="104.97" ry="22"/>
<ellipse fill="none" stroke="black" cx="350.93" cy="-274" rx="108.98" ry="26"/>
<text text-anchor="middle" x="350.93" y="-270.3" font-family="Times,serif" font-size="14.00">showSerializedMsg</text>
</a>
</g>
</g>
<!-- ExchangeBuggyPrinters_showExchangeSetup -->
<g id="node2" class="node">
<title>ExchangeBuggyPrinters_showExchangeSetup</title>
<g id="a_node2"><a xlink:href="ExchangeBuggyPrinters.html#showExchangeSetup" xlink:title="showExchangeSetup">
<ellipse fill="#f070d1" stroke="black" cx="203.93" cy="-194" rx="107.48" ry="18"/>
<text text-anchor="middle" x="203.93" y="-190.3" font-family="Times,serif" font-size="14.00">showExchangeSetup</text>
</a>
</g>
</g>
<!-- ExchangeBuggyPrinters_showSerializedMsg&#45;&gt;ExchangeBuggyPrinters_showExchangeSetup -->
<g id="edge1" class="edge">
<title>ExchangeBuggyPrinters_showSerializedMsg&#45;&gt;ExchangeBuggyPrinters_showExchangeSetup</title>
<path fill="none" stroke="black" d="M307.62,-250.02C287.44,-239.31 263.59,-226.66 243.85,-216.18"/>
<polygon fill="black" stroke="black" points="245.29,-212.98 234.81,-211.39 242.01,-219.17 245.29,-212.98"/>
</g>
<!-- ExchangeBuggyPrinters_showExchangeMsg -->
<g id="node4" class="node">
<title>ExchangeBuggyPrinters_showExchangeMsg</title>
<g id="a_node4"><a xlink:href="ExchangeBuggyPrinters.html#showExchangeMsg" xlink:title="showExchangeMsg">
<ellipse fill="#f070d1" stroke="black" cx="498.93" cy="-194" rx="100.18" ry="18"/>
<text text-anchor="middle" x="498.93" y="-190.3" font-family="Times,serif" font-size="14.00">showExchangeMsg</text>
</a>
</g>
</g>
<!-- ExchangeBuggyPrinters_showSerializedMsg&#45;&gt;ExchangeBuggyPrinters_showExchangeMsg -->
<g id="edge2" class="edge">
<title>ExchangeBuggyPrinters_showSerializedMsg&#45;&gt;ExchangeBuggyPrinters_showExchangeMsg</title>
<path fill="none" stroke="black" d="M394.53,-250.02C415.09,-239.19 439.43,-226.36 459.44,-215.81"/>
<polygon fill="black" stroke="black" points="461.08,-218.9 468.3,-211.14 457.82,-212.71 461.08,-218.9"/>
</g>
<!-- ExchangeBuggyPrinters_showExchangeState -->
<g id="node3" class="node">
<title>ExchangeBuggyPrinters_showExchangeState</title>
<g id="a_node3"><a xlink:href="ExchangeBuggyPrinters.html#showExchangeState" xlink:title="showExchangeState">
<ellipse fill="#f070d1" stroke="black" cx="169.93" cy="-114" rx="104.77" ry="18"/>
<ellipse fill="none" stroke="black" cx="169.93" cy="-114" rx="108.78" ry="22"/>
<ellipse fill="none" stroke="black" cx="169.93" cy="-114" rx="112.78" ry="26"/>
<text text-anchor="middle" x="169.93" y="-110.3" font-family="Times,serif" font-size="14.00">showExchangeState</text>
</a>
</g>
</g>
<!-- ExchangeBuggyPrinters_showExchangeExchangeParam -->
<g id="node6" class="node">
<title>ExchangeBuggyPrinters_showExchangeExchangeParam</title>
<g id="a_node6"><a xlink:href="ExchangeBuggyPrinters.html#showExchangeExchangeParam" xlink:title="showExchangeExchangeParam">
<ellipse fill="#f070d1" stroke="black" cx="338.93" cy="-34" rx="155.17" ry="18"/>
<text text-anchor="middle" x="338.93" y="-30.3" font-family="Times,serif" font-size="14.00">showExchangeExchangeParam</text>
</a>
</g>
</g>
<!-- ExchangeBuggyPrinters_showExchangeState&#45;&gt;ExchangeBuggyPrinters_showExchangeExchangeParam -->
<g id="edge3" class="edge">
<title>ExchangeBuggyPrinters_showExchangeState&#45;&gt;ExchangeBuggyPrinters_showExchangeExchangeParam</title>
<path fill="none" stroke="black" d="M218.81,-90.44C242.46,-79.52 270.66,-66.51 293.8,-55.83"/>
<polygon fill="black" stroke="black" points="295.43,-58.93 303.04,-51.56 292.5,-52.58 295.43,-58.93"/>
</g>
<!-- ExchangeBuggyPrinters_showExchangeMsgMsg -->
<g id="node5" class="node">
<title>ExchangeBuggyPrinters_showExchangeMsgMsg</title>
<g id="a_node5"><a xlink:href="ExchangeBuggyPrinters.html#showExchangeMsgMsg" xlink:title="showExchangeMsgMsg">
<ellipse fill="#f070d1" stroke="black" cx="498.93" cy="-114" rx="120.48" ry="18"/>
<text text-anchor="middle" x="498.93" y="-110.3" font-family="Times,serif" font-size="14.00">showExchangeMsgMsg</text>
</a>
</g>
</g>
<!-- ExchangeBuggyPrinters_showExchangeMsg&#45;&gt;ExchangeBuggyPrinters_showExchangeMsgMsg -->
<g id="edge4" class="edge">
<title>ExchangeBuggyPrinters_showExchangeMsg&#45;&gt;ExchangeBuggyPrinters_showExchangeMsgMsg</title>
<path fill="none" stroke="black" d="M498.93,-175.69C498.93,-165.89 498.93,-153.42 498.93,-142.33"/>
<polygon fill="black" stroke="black" points="502.43,-142.26 498.93,-132.26 495.43,-142.26 502.43,-142.26"/>
</g>
<!-- ExchangeBuggyPrinters_showExchangeMsgMsg&#45;&gt;ExchangeBuggyPrinters_showExchangeExchangeParam -->
<g id="edge5" class="edge">
<title>ExchangeBuggyPrinters_showExchangeMsgMsg&#45;&gt;ExchangeBuggyPrinters_showExchangeExchangeParam</title>
<path fill="none" stroke="black" d="M465.39,-96.65C441.23,-84.87 408.43,-68.88 382.28,-56.13"/>
<polygon fill="black" stroke="black" points="383.5,-52.83 372.98,-51.6 380.43,-59.13 383.5,-52.83"/>
</g>
</g>
</svg>
