<?xml version="1.0" encoding="UTF-8" standalone="no"?>
<!DOCTYPE svg PUBLIC "-//W3C//DTD SVG 1.1//EN"
 "http://www.w3.org/Graphics/SVG/1.1/DTD/svg11.dtd">
<!-- Generated by graphviz version 2.43.0 (0)
 -->
<!-- Title: CounterDepCertifiedLiquidity Pages: 1 -->
<svg width="5264pt" height="2636pt"
 viewBox="0.00 0.00 5264.00 2636.00" xmlns="http://www.w3.org/2000/svg" xmlns:xlink="http://www.w3.org/1999/xlink">
<g id="graph0" class="graph" transform="scale(1 1) rotate(0) translate(4 2632)">
<title>CounterDepCertifiedLiquidity</title>
<polygon fill="white" stroke="transparent" points="-4,4 -4,-2632 5260,-2632 5260,4 -4,4"/>
<g id="clust1" class="cluster">
<title>cluster_CounterDepCertifiedLiquidity</title>
<polygon fill="#ffffc3" stroke="black" points="8,-46.72 8,-2581.28 5248,-2581.28 5248,-46.72 8,-46.72"/>
<text text-anchor="middle" x="122.5" y="-2566.08" font-family="Times,serif" font-size="14.00">CounterDepCertifiedLiquidity</text>
</g>
<g id="clust2" class="cluster">
<title>cluster_CounterDepCertifiedLiquidity_Counter</title>
<polygon fill="#ffffa3" stroke="black" points="3734,-93.44 3734,-2400.24 4776,-2400.24 4776,-93.44 3734,-93.44"/>
<text text-anchor="middle" x="3771" y="-2385.04" font-family="Times,serif" font-size="14.00">Counter</text>
</g>
<!-- CounterDepCertifiedLiquidity_Counter_counter_partially_applied -->
<g id="node1" class="node">
<title>CounterDepCertifiedLiquidity_Counter_counter_partially_applied</title>
<g id="a_node1"><a xlink:href="CounterDepCertifiedLiquidity.html#Counter.counter_partially_applied" xlink:title="counter_partially_applied">
<ellipse fill="#f070d1" stroke="black" cx="4012" cy="-1553.72" rx="128.08" ry="18"/>
<text text-anchor="middle" x="4012" y="-1550.02" font-family="Times,serif" font-size="14.00">counter_partially_applied</text>
</a>
</g>
</g>
<!-- CounterDepCertifiedLiquidity_Counter_my_bool_dec -->
<g id="node3" class="node">
<title>CounterDepCertifiedLiquidity_Counter_my_bool_dec</title>
<g id="a_node3"><a xlink:href="CounterDepCertifiedLiquidity.html#Counter.my_bool_dec" xlink:title="my_bool_dec">
<ellipse fill="#f070d1" stroke="black" cx="4012" cy="-1086.72" rx="69.59" ry="18"/>
<text text-anchor="middle" x="4012" y="-1083.02" font-family="Times,serif" font-size="14.00">my_bool_dec</text>
</a>
</g>
</g>
<!-- CounterDepCertifiedLiquidity_Counter_counter_partially_applied&#45;&gt;CounterDepCertifiedLiquidity_Counter_my_bool_dec -->
<g id="edge1" class="edge">
<title>CounterDepCertifiedLiquidity_Counter_counter_partially_applied&#45;&gt;CounterDepCertifiedLiquidity_Counter_my_bool_dec</title>
<path fill="none" stroke="black" d="M4012,-1535.62C4012,-1465.7 4012,-1201.17 4012,-1115.02"/>
<polygon fill="black" stroke="black" points="4015.5,-1114.98 4012,-1104.98 4008.5,-1114.98 4015.5,-1114.98"/>
</g>
<!-- CounterDepCertifiedLiquidity_Counter_dec_balance -->
<g id="node4" class="node">
<title>CounterDepCertifiedLiquidity_Counter_dec_balance</title>
<g id="a_node4"><a xlink:href="CounterDepCertifiedLiquidity.html#Counter.dec_balance" xlink:title="dec_balance">
<ellipse fill="#f070d1" stroke="black" cx="4327" cy="-1086.72" rx="66.89" ry="18"/>
<text text-anchor="middle" x="4327" y="-1083.02" font-family="Times,serif" font-size="14.00">dec_balance</text>
</a>
</g>
</g>
<!-- CounterDepCertifiedLiquidity_Counter_counter_partially_applied&#45;&gt;CounterDepCertifiedLiquidity_Counter_dec_balance -->
<g id="edge2" class="edge">
<title>CounterDepCertifiedLiquidity_Counter_counter_partially_applied&#45;&gt;CounterDepCertifiedLiquidity_Counter_dec_balance</title>
<path fill="none" stroke="black" d="M4023.58,-1535.62C4071.35,-1465.11 4253.15,-1196.73 4309.94,-1112.9"/>
<polygon fill="black" stroke="black" points="4312.93,-1114.73 4315.64,-1104.49 4307.14,-1110.8 4312.93,-1114.73"/>
</g>
<!-- CounterDepCertifiedLiquidity_Counter_inc_balance -->
<g id="node5" class="node">
<title>CounterDepCertifiedLiquidity_Counter_inc_balance</title>
<g id="a_node5"><a xlink:href="CounterDepCertifiedLiquidity.html#Counter.inc_balance" xlink:title="inc_balance">
<ellipse fill="#f070d1" stroke="black" cx="4476" cy="-1086.72" rx="64.19" ry="18"/>
<text text-anchor="middle" x="4476" y="-1083.02" font-family="Times,serif" font-size="14.00">inc_balance</text>
</a>
</g>
</g>
<!-- CounterDepCertifiedLiquidity_Counter_counter_partially_applied&#45;&gt;CounterDepCertifiedLiquidity_Counter_inc_balance -->
<g id="edge3" class="edge">
<title>CounterDepCertifiedLiquidity_Counter_counter_partially_applied&#45;&gt;CounterDepCertifiedLiquidity_Counter_inc_balance</title>
<path fill="none" stroke="black" d="M4029.06,-1535.62C4099.71,-1464.82 4369.39,-1194.56 4451.88,-1111.89"/>
<polygon fill="black" stroke="black" points="4454.68,-1114.04 4459.27,-1104.49 4449.73,-1109.09 4454.68,-1114.04"/>
</g>
<!-- CounterDepCertifiedLiquidity_Counter_msg -->
<g id="node12" class="node">
<title>CounterDepCertifiedLiquidity_Counter_msg</title>
<g id="a_node12"><a xlink:href="CounterDepCertifiedLiquidity.html#Counter.msg" xlink:title="msg">
<ellipse fill="#e2cdfa" stroke="black" cx="4589" cy="-1086.72" rx="30.59" ry="18"/>
<text text-anchor="middle" x="4589" y="-1083.02" font-family="Times,serif" font-size="14.00">msg</text>
</a>
</g>
</g>
<!-- CounterDepCertifiedLiquidity_Counter_counter_partially_applied&#45;&gt;CounterDepCertifiedLiquidity_Counter_msg -->
<g id="edge4" class="edge">
<title>CounterDepCertifiedLiquidity_Counter_counter_partially_applied&#45;&gt;CounterDepCertifiedLiquidity_Counter_msg</title>
<path fill="none" stroke="black" d="M4032.88,-1535.9C4121.61,-1464.38 4467.33,-1185.77 4563.85,-1107.99"/>
<polygon fill="black" stroke="black" points="4566.05,-1110.71 4571.64,-1101.71 4561.66,-1105.26 4566.05,-1110.71"/>
</g>
<!-- CounterDepCertifiedLiquidity_Counter_default_error -->
<g id="node14" class="node">
<title>CounterDepCertifiedLiquidity_Counter_default_error</title>
<g id="a_node14"><a xlink:href="CounterDepCertifiedLiquidity.html#Counter.default_error" xlink:title="default_error">
<ellipse fill="#f070d1" stroke="black" cx="4171" cy="-1086.72" rx="71.49" ry="18"/>
<text text-anchor="middle" x="4171" y="-1083.02" font-family="Times,serif" font-size="14.00">default_error</text>
</a>
</g>
</g>
<!-- CounterDepCertifiedLiquidity_Counter_counter_partially_applied&#45;&gt;CounterDepCertifiedLiquidity_Counter_default_error -->
<g id="edge5" class="edge">
<title>CounterDepCertifiedLiquidity_Counter_counter_partially_applied&#45;&gt;CounterDepCertifiedLiquidity_Counter_default_error</title>
<path fill="none" stroke="black" d="M4017.85,-1535.62C4041.81,-1465.55 4132.57,-1200.1 4161.84,-1114.5"/>
<polygon fill="black" stroke="black" points="4165.18,-1115.57 4165.1,-1104.98 4158.55,-1113.31 4165.18,-1115.57"/>
</g>
<!-- CounterDepCertifiedLiquidity_Counter_operation -->
<g id="node17" class="node">
<title>CounterDepCertifiedLiquidity_Counter_operation</title>
<g id="a_node17"><a xlink:href="CounterDepCertifiedLiquidity.html#Counter.operation" xlink:title="operation">
<ellipse fill="#f070d1" stroke="black" cx="3869" cy="-1086.72" rx="55.49" ry="18"/>
<text text-anchor="middle" x="3869" y="-1083.02" font-family="Times,serif" font-size="14.00">operation</text>
</a>
</g>
</g>
<!-- CounterDepCertifiedLiquidity_Counter_counter_partially_applied&#45;&gt;CounterDepCertifiedLiquidity_Counter_operation -->
<g id="edge6" class="edge">
<title>CounterDepCertifiedLiquidity_Counter_counter_partially_applied&#45;&gt;CounterDepCertifiedLiquidity_Counter_operation</title>
<path fill="none" stroke="black" d="M4006.74,-1535.62C3985.22,-1465.62 3903.72,-1200.63 3877.32,-1114.76"/>
<polygon fill="black" stroke="black" points="3880.59,-1113.51 3874.31,-1104.98 3873.9,-1115.56 3880.59,-1113.51"/>
</g>
<!-- CounterDepCertifiedLiquidity_Counter_counter -->
<g id="node2" class="node">
<title>CounterDepCertifiedLiquidity_Counter_counter</title>
<g id="a_node2"><a xlink:href="CounterDepCertifiedLiquidity.html#Counter.counter" xlink:title="counter">
<ellipse fill="#f070d1" stroke="black" cx="4204" cy="-1553.72" rx="46.29" ry="18"/>
<text text-anchor="middle" x="4204" y="-1550.02" font-family="Times,serif" font-size="14.00">counter</text>
</a>
</g>
</g>
<!-- CounterDepCertifiedLiquidity_Counter_counter&#45;&gt;CounterDepCertifiedLiquidity_Counter_my_bool_dec -->
<g id="edge7" class="edge">
<title>CounterDepCertifiedLiquidity_Counter_counter&#45;&gt;CounterDepCertifiedLiquidity_Counter_my_bool_dec</title>
<path fill="none" stroke="black" d="M4197.05,-1535.9C4168.28,-1466.2 4058.27,-1199.78 4022.97,-1114.29"/>
<polygon fill="black" stroke="black" points="4026.19,-1112.92 4019.14,-1105.01 4019.72,-1115.59 4026.19,-1112.92"/>
</g>
<!-- CounterDepCertifiedLiquidity_Counter_counter&#45;&gt;CounterDepCertifiedLiquidity_Counter_dec_balance -->
<g id="edge8" class="edge">
<title>CounterDepCertifiedLiquidity_Counter_counter&#45;&gt;CounterDepCertifiedLiquidity_Counter_dec_balance</title>
<path fill="none" stroke="black" d="M4208.52,-1535.62C4227.04,-1465.62 4297.13,-1200.63 4319.85,-1114.76"/>
<polygon fill="black" stroke="black" points="4323.26,-1115.54 4322.44,-1104.98 4316.49,-1113.75 4323.26,-1115.54"/>
</g>
<!-- CounterDepCertifiedLiquidity_Counter_counter&#45;&gt;CounterDepCertifiedLiquidity_Counter_inc_balance -->
<g id="edge9" class="edge">
<title>CounterDepCertifiedLiquidity_Counter_counter&#45;&gt;CounterDepCertifiedLiquidity_Counter_inc_balance</title>
<path fill="none" stroke="black" d="M4213.84,-1535.9C4254.78,-1465.9 4411.79,-1197.5 4461.09,-1113.21"/>
<polygon fill="black" stroke="black" points="4464.14,-1114.92 4466.17,-1104.52 4458.1,-1111.39 4464.14,-1114.92"/>
</g>
<!-- CounterDepCertifiedLiquidity_Counter_counter&#45;&gt;CounterDepCertifiedLiquidity_Counter_msg -->
<g id="edge10" class="edge">
<title>CounterDepCertifiedLiquidity_Counter_counter&#45;&gt;CounterDepCertifiedLiquidity_Counter_msg</title>
<path fill="none" stroke="black" d="M4217.48,-1536.44C4275.25,-1466.66 4502.12,-1192.65 4569.82,-1110.88"/>
<polygon fill="black" stroke="black" points="4572.54,-1113.09 4576.22,-1103.15 4567.15,-1108.62 4572.54,-1113.09"/>
</g>
<!-- CounterDepCertifiedLiquidity_Counter_counter&#45;&gt;CounterDepCertifiedLiquidity_Counter_default_error -->
<g id="edge11" class="edge">
<title>CounterDepCertifiedLiquidity_Counter_counter&#45;&gt;CounterDepCertifiedLiquidity_Counter_default_error</title>
<path fill="none" stroke="black" d="M4202.79,-1535.62C4197.82,-1465.7 4179.05,-1201.17 4172.94,-1115.02"/>
<polygon fill="black" stroke="black" points="4176.42,-1114.7 4172.22,-1104.98 4169.44,-1115.2 4176.42,-1114.7"/>
</g>
<!-- CounterDepCertifiedLiquidity_Counter_counter&#45;&gt;CounterDepCertifiedLiquidity_Counter_operation -->
<g id="edge12" class="edge">
<title>CounterDepCertifiedLiquidity_Counter_counter&#45;&gt;CounterDepCertifiedLiquidity_Counter_operation</title>
<path fill="none" stroke="black" d="M4192.08,-1536.17C4141.87,-1466.48 3947.46,-1196.63 3887.03,-1112.75"/>
<polygon fill="black" stroke="black" points="3889.82,-1110.63 3881.13,-1104.56 3884.14,-1114.72 3889.82,-1110.63"/>
</g>
<!-- CounterDepCertifiedLiquidity_Counter_storage -->
<g id="node16" class="node">
<title>CounterDepCertifiedLiquidity_Counter_storage</title>
<g id="a_node16"><a xlink:href="CounterDepCertifiedLiquidity.html#Counter.storage" xlink:title="storage">
<ellipse fill="#f070d1" stroke="black" cx="4327" cy="-665.72" rx="46.29" ry="18"/>
<text text-anchor="middle" x="4327" y="-662.02" font-family="Times,serif" font-size="14.00">storage</text>
</a>
</g>
</g>
<!-- CounterDepCertifiedLiquidity_Counter_dec_balance&#45;&gt;CounterDepCertifiedLiquidity_Counter_storage -->
<g id="edge13" class="edge">
<title>CounterDepCertifiedLiquidity_Counter_dec_balance&#45;&gt;CounterDepCertifiedLiquidity_Counter_storage</title>
<path fill="none" stroke="black" d="M4327,-1068.51C4327,-1003.65 4327,-773.6 4327,-694.03"/>
<polygon fill="black" stroke="black" points="4330.5,-693.84 4327,-683.84 4323.5,-693.84 4330.5,-693.84"/>
</g>
<!-- CounterDepCertifiedLiquidity_Counter_inc_balance&#45;&gt;CounterDepCertifiedLiquidity_Counter_storage -->
<g id="edge14" class="edge">
<title>CounterDepCertifiedLiquidity_Counter_inc_balance&#45;&gt;CounterDepCertifiedLiquidity_Counter_storage</title>
<path fill="none" stroke="black" d="M4469.97,-1068.78C4447,-1004.16 4364.75,-772.87 4336.56,-693.6"/>
<polygon fill="black" stroke="black" points="4339.75,-692.12 4333.1,-683.88 4333.15,-694.47 4339.75,-692.12"/>
</g>
<!-- CounterDepCertifiedLiquidity_Counter_msg_sind -->
<g id="node6" class="node">
<title>CounterDepCertifiedLiquidity_Counter_msg_sind</title>
<g id="a_node6"><a xlink:href="CounterDepCertifiedLiquidity.html#Counter.msg_sind" xlink:title="msg_sind">
<ellipse fill="#f070d1" stroke="black" cx="4582" cy="-1553.72" rx="53.9" ry="18"/>
<ellipse fill="none" stroke="black" cx="4582" cy="-1553.72" rx="57.89" ry="22"/>
<ellipse fill="none" stroke="black" cx="4582" cy="-1553.72" rx="61.89" ry="26"/>
<text text-anchor="middle" x="4582" y="-1550.02" font-family="Times,serif" font-size="14.00">msg_sind</text>
</a>
</g>
</g>
<!-- CounterDepCertifiedLiquidity_Counter_Dec -->
<g id="node10" class="node">
<title>CounterDepCertifiedLiquidity_Counter_Dec</title>
<g id="a_node10"><a xlink:href="CounterDepCertifiedLiquidity.html#Counter.Dec" xlink:title="Dec">
<ellipse fill="#7faaff" stroke="black" cx="4739" cy="-1086.72" rx="28.7" ry="18"/>
<text text-anchor="middle" x="4739" y="-1083.02" font-family="Times,serif" font-size="14.00">Dec</text>
</a>
</g>
</g>
<!-- CounterDepCertifiedLiquidity_Counter_msg_sind&#45;&gt;CounterDepCertifiedLiquidity_Counter_Dec -->
<g id="edge15" class="edge">
<title>CounterDepCertifiedLiquidity_Counter_msg_sind&#45;&gt;CounterDepCertifiedLiquidity_Counter_Dec</title>
<path fill="none" stroke="black" d="M4590.44,-1527.72C4617.56,-1447.4 4702.32,-1196.37 4730.09,-1114.11"/>
<polygon fill="black" stroke="black" points="4733.45,-1115.1 4733.33,-1104.51 4726.82,-1112.86 4733.45,-1115.1"/>
</g>
<!-- CounterDepCertifiedLiquidity_Counter_Inc -->
<g id="node11" class="node">
<title>CounterDepCertifiedLiquidity_Counter_Inc</title>
<g id="a_node11"><a xlink:href="CounterDepCertifiedLiquidity.html#Counter.Inc" xlink:title="Inc">
<ellipse fill="#7faaff" stroke="black" cx="4665" cy="-1086.72" rx="27" ry="18"/>
<text text-anchor="middle" x="4665" y="-1083.02" font-family="Times,serif" font-size="14.00">Inc</text>
</a>
</g>
</g>
<!-- CounterDepCertifiedLiquidity_Counter_msg_sind&#45;&gt;CounterDepCertifiedLiquidity_Counter_Inc -->
<g id="edge16" class="edge">
<title>CounterDepCertifiedLiquidity_Counter_msg_sind&#45;&gt;CounterDepCertifiedLiquidity_Counter_Inc</title>
<path fill="none" stroke="black" d="M4586.46,-1527.72C4600.75,-1447.66 4645.31,-1198.01 4660.14,-1114.92"/>
<polygon fill="black" stroke="black" points="4663.61,-1115.45 4661.92,-1104.99 4656.72,-1114.22 4663.61,-1115.45"/>
</g>
<!-- CounterDepCertifiedLiquidity_Counter_msg_sind&#45;&gt;CounterDepCertifiedLiquidity_Counter_msg -->
<g id="edge17" class="edge">
<title>CounterDepCertifiedLiquidity_Counter_msg_sind&#45;&gt;CounterDepCertifiedLiquidity_Counter_msg</title>
<path fill="none" stroke="black" d="M4582.38,-1527.72C4583.58,-1447.74 4587.33,-1198.52 4588.59,-1115.18"/>
<polygon fill="black" stroke="black" points="4592.09,-1115.04 4588.74,-1104.99 4585.09,-1114.93 4592.09,-1115.04"/>
</g>
<!-- CounterDepCertifiedLiquidity_Counter_msg_rec -->
<g id="node7" class="node">
<title>CounterDepCertifiedLiquidity_Counter_msg_rec</title>
<g id="a_node7"><a xlink:href="CounterDepCertifiedLiquidity.html#Counter.msg_rec" xlink:title="msg_rec">
<ellipse fill="#f070d1" stroke="black" cx="4708" cy="-2067.72" rx="49.31" ry="18"/>
<ellipse fill="none" stroke="black" cx="4708" cy="-2067.72" rx="53.3" ry="22"/>
<ellipse fill="none" stroke="black" cx="4708" cy="-2067.72" rx="57.29" ry="26"/>
<text text-anchor="middle" x="4708" y="-2064.02" font-family="Times,serif" font-size="14.00">msg_rec</text>
</a>
</g>
</g>
<!-- CounterDepCertifiedLiquidity_Counter_msg_rect -->
<g id="node9" class="node">
<title>CounterDepCertifiedLiquidity_Counter_msg_rect</title>
<g id="a_node9"><a xlink:href="CounterDepCertifiedLiquidity.html#Counter.msg_rect" xlink:title="msg_rect">
<ellipse fill="#f070d1" stroke="black" cx="4715" cy="-1553.72" rx="53.09" ry="18"/>
<text text-anchor="middle" x="4715" y="-1550.02" font-family="Times,serif" font-size="14.00">msg_rect</text>
</a>
</g>
</g>
<!-- CounterDepCertifiedLiquidity_Counter_msg_rec&#45;&gt;CounterDepCertifiedLiquidity_Counter_msg_rect -->
<g id="edge18" class="edge">
<title>CounterDepCertifiedLiquidity_Counter_msg_rec&#45;&gt;CounterDepCertifiedLiquidity_Counter_msg_rect</title>
<path fill="none" stroke="black" d="M4708.34,-2041.68C4709.52,-1955.53 4713.4,-1671.74 4714.63,-1582.11"/>
<polygon fill="black" stroke="black" points="4718.13,-1581.98 4714.76,-1571.93 4711.13,-1581.88 4718.13,-1581.98"/>
</g>
<!-- CounterDepCertifiedLiquidity_Counter_msg_ind -->
<g id="node8" class="node">
<title>CounterDepCertifiedLiquidity_Counter_msg_ind</title>
<g id="a_node8"><a xlink:href="CounterDepCertifiedLiquidity.html#Counter.msg_ind" xlink:title="msg_ind">
<ellipse fill="#7fffd4" stroke="black" cx="4445" cy="-1553.72" rx="49.31" ry="18"/>
<ellipse fill="none" stroke="black" cx="4445" cy="-1553.72" rx="53.3" ry="22"/>
<ellipse fill="none" stroke="black" cx="4445" cy="-1553.72" rx="57.29" ry="26"/>
<text text-anchor="middle" x="4445" y="-1550.02" font-family="Times,serif" font-size="14.00">msg_ind</text>
</a>
</g>
</g>
<!-- CounterDepCertifiedLiquidity_Counter_msg_ind&#45;&gt;CounterDepCertifiedLiquidity_Counter_Dec -->
<g id="edge19" class="edge">
<title>CounterDepCertifiedLiquidity_Counter_msg_ind&#45;&gt;CounterDepCertifiedLiquidity_Counter_Dec</title>
<path fill="none" stroke="black" d="M4460.39,-1528.37C4511.13,-1448.12 4672.76,-1192.48 4723.56,-1112.13"/>
<polygon fill="black" stroke="black" points="4726.55,-1113.97 4728.93,-1103.64 4720.63,-1110.23 4726.55,-1113.97"/>
</g>
<!-- CounterDepCertifiedLiquidity_Counter_msg_ind&#45;&gt;CounterDepCertifiedLiquidity_Counter_Inc -->
<g id="edge20" class="edge">
<title>CounterDepCertifiedLiquidity_Counter_msg_ind&#45;&gt;CounterDepCertifiedLiquidity_Counter_Inc</title>
<path fill="none" stroke="black" d="M4456.67,-1528.05C4494.66,-1447.76 4614.51,-1194.44 4652.98,-1113.12"/>
<polygon fill="black" stroke="black" points="4656.15,-1114.61 4657.26,-1104.08 4649.82,-1111.62 4656.15,-1114.61"/>
</g>
<!-- CounterDepCertifiedLiquidity_Counter_msg_ind&#45;&gt;CounterDepCertifiedLiquidity_Counter_msg -->
<g id="edge21" class="edge">
<title>CounterDepCertifiedLiquidity_Counter_msg_ind&#45;&gt;CounterDepCertifiedLiquidity_Counter_msg</title>
<path fill="none" stroke="black" d="M4452.74,-1527.72C4477.62,-1447.4 4555.35,-1196.37 4580.83,-1114.11"/>
<polygon fill="black" stroke="black" points="4584.19,-1115.1 4583.8,-1104.51 4577.5,-1113.03 4584.19,-1115.1"/>
</g>
<!-- CounterDepCertifiedLiquidity_Counter_msg_rect&#45;&gt;CounterDepCertifiedLiquidity_Counter_Dec -->
<g id="edge22" class="edge">
<title>CounterDepCertifiedLiquidity_Counter_msg_rect&#45;&gt;CounterDepCertifiedLiquidity_Counter_Dec</title>
<path fill="none" stroke="black" d="M4715.88,-1535.62C4719.49,-1465.7 4733.14,-1201.17 4737.59,-1115.02"/>
<polygon fill="black" stroke="black" points="4741.09,-1115.14 4738.11,-1104.98 4734.1,-1114.78 4741.09,-1115.14"/>
</g>
<!-- CounterDepCertifiedLiquidity_Counter_msg_rect&#45;&gt;CounterDepCertifiedLiquidity_Counter_Inc -->
<g id="edge23" class="edge">
<title>CounterDepCertifiedLiquidity_Counter_msg_rect&#45;&gt;CounterDepCertifiedLiquidity_Counter_Inc</title>
<path fill="none" stroke="black" d="M4713.16,-1535.62C4705.64,-1465.7 4677.2,-1201.17 4667.94,-1115.02"/>
<polygon fill="black" stroke="black" points="4671.4,-1114.55 4666.86,-1104.98 4664.44,-1115.29 4671.4,-1114.55"/>
</g>
<!-- CounterDepCertifiedLiquidity_Counter_msg_rect&#45;&gt;CounterDepCertifiedLiquidity_Counter_msg -->
<g id="edge24" class="edge">
<title>CounterDepCertifiedLiquidity_Counter_msg_rect&#45;&gt;CounterDepCertifiedLiquidity_Counter_msg</title>
<path fill="none" stroke="black" d="M4710.37,-1535.62C4691.4,-1465.62 4619.6,-1200.63 4596.33,-1114.76"/>
<polygon fill="black" stroke="black" points="4599.67,-1113.71 4593.68,-1104.98 4592.91,-1115.54 4599.67,-1113.71"/>
</g>
<!-- CounterDepCertifiedLiquidity_Counter_init -->
<g id="node13" class="node">
<title>CounterDepCertifiedLiquidity_Counter_init</title>
<g id="a_node13"><a xlink:href="CounterDepCertifiedLiquidity.html#Counter.init" xlink:title="init">
<ellipse fill="#f070d1" stroke="black" cx="3769" cy="-1086.72" rx="27" ry="18"/>
<text text-anchor="middle" x="3769" y="-1083.02" font-family="Times,serif" font-size="14.00">init</text>
</a>
</g>
</g>
<!-- CounterDepCertifiedLiquidity_Counter_Error -->
<g id="node15" class="node">
<title>CounterDepCertifiedLiquidity_Counter_Error</title>
<g id="a_node15"><a xlink:href="CounterDepCertifiedLiquidity.html#Counter.Error" xlink:title="Error">
<ellipse fill="#f070d1" stroke="black" cx="3975" cy="-665.72" rx="36.29" ry="18"/>
<text text-anchor="middle" x="3975" y="-662.02" font-family="Times,serif" font-size="14.00">Error</text>
</a>
</g>
</g>
<!-- CounterDepCertifiedLiquidity_Counter_init&#45;&gt;CounterDepCertifiedLiquidity_Counter_Error -->
<g id="edge25" class="edge">
<title>CounterDepCertifiedLiquidity_Counter_init&#45;&gt;CounterDepCertifiedLiquidity_Counter_Error</title>
<path fill="none" stroke="black" d="M3777.08,-1069.29C3808.61,-1005.16 3923.58,-771.3 3962.23,-692.7"/>
<polygon fill="black" stroke="black" points="3965.49,-694.01 3966.76,-683.49 3959.2,-690.92 3965.49,-694.01"/>
</g>
<!-- CounterDepCertifiedLiquidity_Counter_init&#45;&gt;CounterDepCertifiedLiquidity_Counter_storage -->
<g id="edge26" class="edge">
<title>CounterDepCertifiedLiquidity_Counter_init&#45;&gt;CounterDepCertifiedLiquidity_Counter_storage</title>
<path fill="none" stroke="black" d="M3786.31,-1072.72C3866.12,-1012.79 4198.91,-762.9 4298.64,-688.02"/>
<polygon fill="black" stroke="black" points="4300.86,-690.73 4306.75,-681.93 4296.65,-685.13 4300.86,-690.73"/>
</g>
<!-- CounterDepCertifiedLiquidity_Counter_default_error&#45;&gt;CounterDepCertifiedLiquidity_Counter_Error -->
<g id="edge27" class="edge">
<title>CounterDepCertifiedLiquidity_Counter_default_error&#45;&gt;CounterDepCertifiedLiquidity_Counter_Error</title>
<path fill="none" stroke="black" d="M4163.07,-1068.78C4132.72,-1003.88 4023.72,-770.88 3987.1,-692.59"/>
<polygon fill="black" stroke="black" points="3990.22,-690.99 3982.81,-683.42 3983.88,-693.96 3990.22,-690.99"/>
</g>
<!-- CounterDepCertifiedLiquidity_Counter_address -->
<g id="node18" class="node">
<title>CounterDepCertifiedLiquidity_Counter_address</title>
<g id="a_node18"><a xlink:href="CounterDepCertifiedLiquidity.html#Counter.address" xlink:title="address">
<ellipse fill="#f070d1" stroke="black" cx="4327" cy="-245.72" rx="47.39" ry="18"/>
<text text-anchor="middle" x="4327" y="-242.02" font-family="Times,serif" font-size="14.00">address</text>
</a>
</g>
</g>
<!-- CounterDepCertifiedLiquidity_Counter_storage&#45;&gt;CounterDepCertifiedLiquidity_Counter_address -->
<g id="edge28" class="edge">
<title>CounterDepCertifiedLiquidity_Counter_storage&#45;&gt;CounterDepCertifiedLiquidity_Counter_address</title>
<path fill="none" stroke="black" d="M4327,-647.55C4327,-582.85 4327,-353.35 4327,-273.97"/>
<polygon fill="black" stroke="black" points="4330.5,-273.8 4327,-263.8 4323.5,-273.8 4330.5,-273.8"/>
</g>
<!-- CounterDepCertifiedLiquidity_liquidity_counter_partially_applied_expanded -->
<g id="node19" class="node">
<title>CounterDepCertifiedLiquidity_liquidity_counter_partially_applied_expanded</title>
<g id="a_node19"><a xlink:href="CounterDepCertifiedLiquidity.html#liquidity_counter_partially_applied_expanded" xlink:title="liquidity_counter_partially_applied_expanded">
<ellipse fill="#f070d1" stroke="black" cx="5012" cy="-2067.72" rx="220.17" ry="18"/>
<ellipse fill="none" stroke="black" cx="5012" cy="-2067.72" rx="224.16" ry="22"/>
<ellipse fill="none" stroke="black" cx="5012" cy="-2067.72" rx="228.16" ry="26"/>
<text text-anchor="middle" x="5012" y="-2064.02" font-family="Times,serif" font-size="14.00">liquidity_counter_partially_applied_expanded</text>
</a>
</g>
</g>
<!-- CounterDepCertifiedLiquidity_COUNTER_PARTIAL_EXPANDED_MODULE -->
<g id="node20" class="node">
<title>CounterDepCertifiedLiquidity_COUNTER_PARTIAL_EXPANDED_MODULE</title>
<g id="a_node20"><a xlink:href="CounterDepCertifiedLiquidity.html#COUNTER_PARTIAL_EXPANDED_MODULE" xlink:title="COUNTER_PARTIAL_EXPANDED_MODULE">
<ellipse fill="#f070d1" stroke="black" cx="543" cy="-2067.72" rx="211.77" ry="18"/>
<ellipse fill="none" stroke="black" cx="543" cy="-2067.72" rx="215.76" ry="22"/>
<ellipse fill="none" stroke="black" cx="543" cy="-2067.72" rx="219.76" ry="26"/>
<text text-anchor="middle" x="543" y="-2064.02" font-family="Times,serif" font-size="14.00">COUNTER_PARTIAL_EXPANDED_MODULE</text>
</a>
</g>
</g>
<!-- CounterDepCertifiedLiquidity_COUNTER_PARTIAL_EXPANDED_MODULE&#45;&gt;CounterDepCertifiedLiquidity_Counter_init -->
<g id="edge29" class="edge">
<title>CounterDepCertifiedLiquidity_COUNTER_PARTIAL_EXPANDED_MODULE&#45;&gt;CounterDepCertifiedLiquidity_Counter_init</title>
<path fill="none" stroke="black" d="M550.61,-2041.55C578.61,-1953.69 684.84,-1658.87 886,-1527.72 1388.23,-1200.28 3428.5,-1102.12 3731.35,-1089.24"/>
<polygon fill="black" stroke="black" points="3731.93,-1092.72 3741.77,-1088.81 3731.63,-1085.73 3731.93,-1092.72"/>
</g>
<!-- CounterDepCertifiedLiquidity_ConCert_Examples_Counter_extraction_CounterDepCertifiedLiquidity_Counter_counter_partially_applied_expanded -->
<g id="node23" class="node">
<title>CounterDepCertifiedLiquidity_ConCert_Examples_Counter_extraction_CounterDepCertifiedLiquidity_Counter_counter_partially_applied_expanded</title>
<g id="a_node23"><a xlink:href="CounterDepCertifiedLiquidity.html#ConCert_Examples_Counter_extraction_CounterDepCertifiedLiquidity_Counter_counter_partially_applied_expanded" xlink:title="ConCert_Examples_Counter_extraction_CounterDepCertifiedLiquidity_Counter_counter_partially_applied_expanded">
<ellipse fill="#f070d1" stroke="black" cx="3178" cy="-1553.72" rx="547.8" ry="18"/>
<text text-anchor="middle" x="3178" y="-1550.02" font-family="Times,serif" font-size="14.00">ConCert_Examples_Counter_extraction_CounterDepCertifiedLiquidity_Counter_counter_partially_applied_expanded</text>
</a>
</g>
</g>
<!-- CounterDepCertifiedLiquidity_COUNTER_PARTIAL_EXPANDED_MODULE&#45;&gt;CounterDepCertifiedLiquidity_ConCert_Examples_Counter_extraction_CounterDepCertifiedLiquidity_Counter_counter_partially_applied_expanded -->
<g id="edge30" class="edge">
<title>CounterDepCertifiedLiquidity_COUNTER_PARTIAL_EXPANDED_MODULE&#45;&gt;CounterDepCertifiedLiquidity_ConCert_Examples_Counter_extraction_CounterDepCertifiedLiquidity_Counter_counter_partially_applied_expanded</title>
<path fill="none" stroke="black" d="M653.7,-2045.21C1088.16,-1960.79 2672.74,-1652.9 3081.35,-1573.5"/>
<polygon fill="black" stroke="black" points="3082.21,-1576.9 3091.36,-1571.55 3080.88,-1570.03 3082.21,-1576.9"/>
</g>
<!-- CounterDepCertifiedLiquidity_PREFIX -->
<g id="node32" class="node">
<title>CounterDepCertifiedLiquidity_PREFIX</title>
<g id="a_node32"><a xlink:href="CounterDepCertifiedLiquidity.html#PREFIX" xlink:title="PREFIX">
<ellipse fill="#f070d1" stroke="black" cx="942" cy="-1553.72" rx="46.59" ry="18"/>
<text text-anchor="middle" x="942" y="-1550.02" font-family="Times,serif" font-size="14.00">PREFIX</text>
</a>
</g>
</g>
<!-- CounterDepCertifiedLiquidity_COUNTER_PARTIAL_EXPANDED_MODULE&#45;&gt;CounterDepCertifiedLiquidity_PREFIX -->
<g id="edge31" class="edge">
<title>CounterDepCertifiedLiquidity_COUNTER_PARTIAL_EXPANDED_MODULE&#45;&gt;CounterDepCertifiedLiquidity_PREFIX</title>
<path fill="none" stroke="black" d="M562.51,-2041.68C630.35,-1954.63 855.42,-1665.82 922.79,-1579.38"/>
<polygon fill="black" stroke="black" points="925.59,-1581.47 928.98,-1571.43 920.07,-1577.16 925.59,-1581.47"/>
</g>
<!-- CounterDepCertifiedLiquidity_Σexpanded -->
<g id="node21" class="node">
<title>CounterDepCertifiedLiquidity_Σexpanded</title>
<g id="a_node21"><a xlink:href="CounterDepCertifiedLiquidity.html#Σexpanded" xlink:title="\206\163expanded">
<ellipse fill="#f070d1" stroke="black" cx="3627" cy="-2067.72" rx="90.98" ry="18"/>
<ellipse fill="none" stroke="black" cx="3627" cy="-2067.72" rx="94.98" ry="22"/>
<ellipse fill="none" stroke="black" cx="3627" cy="-2067.72" rx="98.98" ry="26"/>
<text text-anchor="middle" x="3627" y="-2064.02" font-family="Times,serif" font-size="14.00">206163expanded</text>
</a>
</g>
</g>
<!-- CounterDepCertifiedLiquidity_ConCert_Examples_Counter_extraction_CounterDepCertifiedLiquidity_Counter_counter_partially_applied_expanded_convertible -->
<g id="node22" class="node">
<title>CounterDepCertifiedLiquidity_ConCert_Examples_Counter_extraction_CounterDepCertifiedLiquidity_Counter_counter_partially_applied_expanded_convertible</title>
<g id="a_node22"><a xlink:href="CounterDepCertifiedLiquidity.html#ConCert_Examples_Counter_extraction_CounterDepCertifiedLiquidity_Counter_counter_partially_applied_expanded_convertible" xlink:title="ConCert_Examples_Counter_extraction_CounterDepCertifiedLiquidity_Counter_counter_partially_applied_expanded_convertible">
<ellipse fill="#7fffd4" stroke="black" cx="1945" cy="-2067.72" rx="604.39" ry="18"/>
<ellipse fill="none" stroke="black" cx="1945" cy="-2067.72" rx="608.39" ry="22"/>
<ellipse fill="none" stroke="black" cx="1945" cy="-2067.72" rx="612.39" ry="26"/>
<text text-anchor="middle" x="1945" y="-2064.02" font-family="Times,serif" font-size="14.00">ConCert_Examples_Counter_extraction_CounterDepCertifiedLiquidity_Counter_counter_partially_applied_expanded_convertible</text>
</a>
</g>
</g>
<!-- CounterDepCertifiedLiquidity_ConCert_Examples_Counter_extraction_CounterDepCertifiedLiquidity_Counter_counter_partially_applied_expanded_convertible&#45;&gt;CounterDepCertifiedLiquidity_Counter_counter_partially_applied -->
<g id="edge32" class="edge">
<title>CounterDepCertifiedLiquidity_ConCert_Examples_Counter_extraction_CounterDepCertifiedLiquidity_Counter_counter_partially_applied_expanded_convertible&#45;&gt;CounterDepCertifiedLiquidity_Counter_counter_partially_applied</title>
<path fill="none" stroke="black" d="M2044.7,-2042.03C2404.91,-1952.8 3633.94,-1648.37 3941.69,-1572.14"/>
<polygon fill="black" stroke="black" points="3942.95,-1575.43 3951.82,-1569.63 3941.27,-1568.63 3942.95,-1575.43"/>
</g>
<!-- CounterDepCertifiedLiquidity_ConCert_Examples_Counter_extraction_CounterDepCertifiedLiquidity_Counter_counter_partially_applied_expanded_convertible&#45;&gt;CounterDepCertifiedLiquidity_ConCert_Examples_Counter_extraction_CounterDepCertifiedLiquidity_Counter_counter_partially_applied_expanded -->
<g id="edge33" class="edge">
<title>CounterDepCertifiedLiquidity_ConCert_Examples_Counter_extraction_CounterDepCertifiedLiquidity_Counter_counter_partially_applied_expanded_convertible&#45;&gt;CounterDepCertifiedLiquidity_ConCert_Examples_Counter_extraction_CounterDepCertifiedLiquidity_Counter_counter_partially_applied_expanded</title>
<path fill="none" stroke="black" d="M2005.3,-2041.68C2218.08,-1953.33 2931.43,-1657.11 3127.67,-1575.62"/>
<polygon fill="black" stroke="black" points="3129.26,-1578.75 3137.16,-1571.68 3126.58,-1572.28 3129.26,-1578.75"/>
</g>
<!-- CounterDepCertifiedLiquidity_ConCert_Examples_Counter_extraction_CounterDepCertifiedLiquidity_Counter_counter_partially_applied_expanded&#45;&gt;CounterDepCertifiedLiquidity_Counter_my_bool_dec -->
<g id="edge34" class="edge">
<title>CounterDepCertifiedLiquidity_ConCert_Examples_Counter_extraction_CounterDepCertifiedLiquidity_Counter_counter_partially_applied_expanded&#45;&gt;CounterDepCertifiedLiquidity_Counter_my_bool_dec</title>
<path fill="none" stroke="black" d="M3208.67,-1535.62C3337.51,-1463.78 3834.74,-1186.55 3974.98,-1108.36"/>
<polygon fill="black" stroke="black" points="3977.05,-1111.22 3984.08,-1103.29 3973.64,-1105.1 3977.05,-1111.22"/>
</g>
<!-- CounterDepCertifiedLiquidity_ConCert_Examples_Counter_extraction_CounterDepCertifiedLiquidity_Counter_counter_partially_applied_expanded&#45;&gt;CounterDepCertifiedLiquidity_Counter_dec_balance -->
<g id="edge35" class="edge">
<title>CounterDepCertifiedLiquidity_ConCert_Examples_Counter_extraction_CounterDepCertifiedLiquidity_Counter_counter_partially_applied_expanded&#45;&gt;CounterDepCertifiedLiquidity_Counter_dec_balance</title>
<path fill="none" stroke="black" d="M3219.91,-1535.76C3398.84,-1463.35 4097.91,-1180.43 4282.24,-1105.83"/>
<polygon fill="black" stroke="black" points="4283.68,-1109.03 4291.63,-1102.03 4281.05,-1102.54 4283.68,-1109.03"/>
</g>
<!-- CounterDepCertifiedLiquidity_ConCert_Examples_Counter_extraction_CounterDepCertifiedLiquidity_Counter_counter_partially_applied_expanded&#45;&gt;CounterDepCertifiedLiquidity_Counter_inc_balance -->
<g id="edge36" class="edge">
<title>CounterDepCertifiedLiquidity_ConCert_Examples_Counter_extraction_CounterDepCertifiedLiquidity_Counter_counter_partially_applied_expanded&#45;&gt;CounterDepCertifiedLiquidity_Counter_inc_balance</title>
<path fill="none" stroke="black" d="M3225.35,-1535.76C3428.45,-1463 4224.82,-1177.7 4428.4,-1104.77"/>
<polygon fill="black" stroke="black" points="4429.69,-1108.03 4437.92,-1101.36 4427.33,-1101.44 4429.69,-1108.03"/>
</g>
<!-- CounterDepCertifiedLiquidity_ConCert_Examples_Counter_extraction_CounterDepCertifiedLiquidity_Counter_counter_partially_applied_expanded&#45;&gt;CounterDepCertifiedLiquidity_Counter_msg -->
<g id="edge37" class="edge">
<title>CounterDepCertifiedLiquidity_ConCert_Examples_Counter_extraction_CounterDepCertifiedLiquidity_Counter_counter_partially_applied_expanded&#45;&gt;CounterDepCertifiedLiquidity_Counter_msg</title>
<path fill="none" stroke="black" d="M3235.75,-1535.8C3425.6,-1479.75 4046.97,-1293.03 4549,-1104.72 4551.21,-1103.89 4553.47,-1103.01 4555.74,-1102.11"/>
<polygon fill="black" stroke="black" points="4557.1,-1105.34 4565.02,-1098.31 4554.44,-1098.86 4557.1,-1105.34"/>
</g>
<!-- CounterDepCertifiedLiquidity_ConCert_Examples_Counter_extraction_CounterDepCertifiedLiquidity_Counter_counter_partially_applied_expanded&#45;&gt;CounterDepCertifiedLiquidity_Counter_default_error -->
<g id="edge38" class="edge">
<title>CounterDepCertifiedLiquidity_ConCert_Examples_Counter_extraction_CounterDepCertifiedLiquidity_Counter_counter_partially_applied_expanded&#45;&gt;CounterDepCertifiedLiquidity_Counter_default_error</title>
<path fill="none" stroke="black" d="M3214.22,-1535.76C3367.95,-1463.77 3965.95,-1183.74 4129.47,-1107.17"/>
<polygon fill="black" stroke="black" points="4131.15,-1110.25 4138.72,-1102.84 4128.18,-1103.91 4131.15,-1110.25"/>
</g>
<!-- CounterDepCertifiedLiquidity_ConCert_Examples_Counter_extraction_CounterDepCertifiedLiquidity_Counter_counter_partially_applied_expanded&#45;&gt;CounterDepCertifiedLiquidity_Counter_operation -->
<g id="edge39" class="edge">
<title>CounterDepCertifiedLiquidity_ConCert_Examples_Counter_extraction_CounterDepCertifiedLiquidity_Counter_counter_partially_applied_expanded&#45;&gt;CounterDepCertifiedLiquidity_Counter_operation</title>
<path fill="none" stroke="black" d="M3203.41,-1535.62C3309.84,-1464 3719.67,-1188.21 3837.28,-1109.07"/>
<polygon fill="black" stroke="black" points="3839.52,-1111.78 3845.86,-1103.29 3835.61,-1105.97 3839.52,-1111.78"/>
</g>
<!-- CounterDepCertifiedLiquidity_counter_partially_applied_syn -->
<g id="node24" class="node">
<title>CounterDepCertifiedLiquidity_counter_partially_applied_syn</title>
<g id="a_node24"><a xlink:href="CounterDepCertifiedLiquidity.html#counter_partially_applied_syn" xlink:title="counter_partially_applied_syn">
<ellipse fill="#f070d1" stroke="black" cx="3102" cy="-2067.72" rx="148.68" ry="18"/>
<ellipse fill="none" stroke="black" cx="3102" cy="-2067.72" rx="152.68" ry="22"/>
<ellipse fill="none" stroke="black" cx="3102" cy="-2067.72" rx="156.67" ry="26"/>
<text text-anchor="middle" x="3102" y="-2064.02" font-family="Times,serif" font-size="14.00">counter_partially_applied_syn</text>
</a>
</g>
</g>
<!-- CounterDepCertifiedLiquidity_CURRENT_MODULE -->
<g id="node25" class="node">
<title>CounterDepCertifiedLiquidity_CURRENT_MODULE</title>
<g id="a_node25"><a xlink:href="CounterDepCertifiedLiquidity.html#CURRENT_MODULE" xlink:title="CURRENT_MODULE">
<ellipse fill="#f070d1" stroke="black" cx="2811" cy="-2067.72" rx="108.58" ry="18"/>
<ellipse fill="none" stroke="black" cx="2811" cy="-2067.72" rx="112.58" ry="22"/>
<ellipse fill="none" stroke="black" cx="2811" cy="-2067.72" rx="116.58" ry="26"/>
<text text-anchor="middle" x="2811" y="-2064.02" font-family="Times,serif" font-size="14.00">CURRENT_MODULE</text>
</a>
</g>
</g>
<!-- CounterDepCertifiedLiquidity_anchor -->
<g id="node26" class="node">
<title>CounterDepCertifiedLiquidity_anchor</title>
<g id="a_node26"><a xlink:href="CounterDepCertifiedLiquidity.html#anchor" xlink:title="anchor">
<ellipse fill="#f070d1" stroke="black" cx="2626" cy="-2067.72" rx="42.45" ry="18"/>
<ellipse fill="none" stroke="black" cx="2626" cy="-2067.72" rx="46.47" ry="22"/>
<ellipse fill="none" stroke="black" cx="2626" cy="-2067.72" rx="50.49" ry="26"/>
<text text-anchor="middle" x="2626" y="-2064.02" font-family="Times,serif" font-size="14.00">anchor</text>
</a>
</g>
</g>
<!-- CounterDepCertifiedLiquidity_COUNTER_PARTIAL_MODULE -->
<g id="node27" class="node">
<title>CounterDepCertifiedLiquidity_COUNTER_PARTIAL_MODULE</title>
<g id="a_node27"><a xlink:href="CounterDepCertifiedLiquidity.html#COUNTER_PARTIAL_MODULE" xlink:title="COUNTER_PARTIAL_MODULE">
<ellipse fill="#f070d1" stroke="black" cx="942" cy="-2067.72" rx="153.28" ry="18"/>
<ellipse fill="none" stroke="black" cx="942" cy="-2067.72" rx="157.28" ry="22"/>
<ellipse fill="none" stroke="black" cx="942" cy="-2067.72" rx="161.27" ry="26"/>
<text text-anchor="middle" x="942" y="-2064.02" font-family="Times,serif" font-size="14.00">COUNTER_PARTIAL_MODULE</text>
</a>
</g>
</g>
<!-- CounterDepCertifiedLiquidity_COUNTER_PARTIAL_MODULE&#45;&gt;CounterDepCertifiedLiquidity_Counter_counter_partially_applied -->
<g id="edge40" class="edge">
<title>CounterDepCertifiedLiquidity_COUNTER_PARTIAL_MODULE&#45;&gt;CounterDepCertifiedLiquidity_Counter_counter_partially_applied</title>
<path fill="none" stroke="black" d="M1054.57,-2049.01C1445.55,-1987.31 2780.73,-1774.9 3880,-1579.72 3896.17,-1576.85 3913.42,-1573.67 3929.94,-1570.56"/>
<polygon fill="black" stroke="black" points="3930.94,-1573.94 3940.12,-1568.64 3929.65,-1567.06 3930.94,-1573.94"/>
</g>
<!-- CounterDepCertifiedLiquidity_COUNTER_PARTIAL_MODULE&#45;&gt;CounterDepCertifiedLiquidity_Counter_init -->
<g id="edge41" class="edge">
<title>CounterDepCertifiedLiquidity_COUNTER_PARTIAL_MODULE&#45;&gt;CounterDepCertifiedLiquidity_Counter_init</title>
<path fill="none" stroke="black" d="M1007.72,-2043.96C1402.23,-1907.34 3448.71,-1198.64 3735.58,-1099.29"/>
<polygon fill="black" stroke="black" points="3737.1,-1102.47 3745.41,-1095.89 3734.81,-1095.86 3737.1,-1102.47"/>
</g>
<!-- CounterDepCertifiedLiquidity_COUNTER_PARTIAL_MODULE&#45;&gt;CounterDepCertifiedLiquidity_PREFIX -->
<g id="edge42" class="edge">
<title>CounterDepCertifiedLiquidity_COUNTER_PARTIAL_MODULE&#45;&gt;CounterDepCertifiedLiquidity_PREFIX</title>
<path fill="none" stroke="black" d="M942,-2041.68C942,-1955.53 942,-1671.74 942,-1582.11"/>
<polygon fill="black" stroke="black" points="945.5,-1581.93 942,-1571.93 938.5,-1581.93 945.5,-1581.93"/>
</g>
<!-- CounterDepCertifiedLiquidity_liquidity_counter -->
<g id="node28" class="node">
<title>CounterDepCertifiedLiquidity_liquidity_counter</title>
<g id="a_node28"><a xlink:href="CounterDepCertifiedLiquidity.html#liquidity_counter" xlink:title="liquidity_counter">
<ellipse fill="#f070d1" stroke="black" cx="1218" cy="-2067.72" rx="89.08" ry="18"/>
<ellipse fill="none" stroke="black" cx="1218" cy="-2067.72" rx="93.08" ry="22"/>
<ellipse fill="none" stroke="black" cx="1218" cy="-2067.72" rx="97.08" ry="26"/>
<text text-anchor="middle" x="1218" y="-2064.02" font-family="Times,serif" font-size="14.00">liquidity_counter</text>
</a>
</g>
</g>
<!-- CounterDepCertifiedLiquidity_COUNTER_MODULE -->
<g id="node29" class="node">
<title>CounterDepCertifiedLiquidity_COUNTER_MODULE</title>
<g id="a_node29"><a xlink:href="CounterDepCertifiedLiquidity.html#COUNTER_MODULE" xlink:title="COUNTER_MODULE">
<ellipse fill="#f070d1" stroke="black" cx="3393" cy="-2067.72" rx="108.58" ry="18"/>
<ellipse fill="none" stroke="black" cx="3393" cy="-2067.72" rx="112.58" ry="22"/>
<ellipse fill="none" stroke="black" cx="3393" cy="-2067.72" rx="116.58" ry="26"/>
<text text-anchor="middle" x="3393" y="-2064.02" font-family="Times,serif" font-size="14.00">COUNTER_MODULE</text>
</a>
</g>
</g>
<!-- CounterDepCertifiedLiquidity_COUNTER_MODULE&#45;&gt;CounterDepCertifiedLiquidity_Counter_counter -->
<g id="edge43" class="edge">
<title>CounterDepCertifiedLiquidity_COUNTER_MODULE&#45;&gt;CounterDepCertifiedLiquidity_Counter_counter</title>
<path fill="none" stroke="black" d="M3430.49,-2043.05C3568.15,-1956.14 4044.37,-1655.49 4172.21,-1574.79"/>
<polygon fill="black" stroke="black" points="4174.21,-1577.66 4180.8,-1569.37 4170.48,-1571.75 4174.21,-1577.66"/>
</g>
<!-- CounterDepCertifiedLiquidity_COUNTER_MODULE&#45;&gt;CounterDepCertifiedLiquidity_Counter_init -->
<g id="edge44" class="edge">
<title>CounterDepCertifiedLiquidity_COUNTER_MODULE&#45;&gt;CounterDepCertifiedLiquidity_Counter_init</title>
<path fill="none" stroke="black" d="M3311.71,-2048.96C3076.74,-1993.79 2425.57,-1811.92 2621,-1527.72 2891.41,-1134.48 3565.2,-1092.51 3731.46,-1088.18"/>
<polygon fill="black" stroke="black" points="3731.75,-1091.68 3741.67,-1087.95 3731.59,-1084.68 3731.75,-1091.68"/>
</g>
<!-- CounterDepCertifiedLiquidity_COUNTER_MODULE&#45;&gt;CounterDepCertifiedLiquidity_PREFIX -->
<g id="edge45" class="edge">
<title>CounterDepCertifiedLiquidity_COUNTER_MODULE&#45;&gt;CounterDepCertifiedLiquidity_PREFIX</title>
<path fill="none" stroke="black" d="M3310.05,-2049.39C2922.89,-1968.52 1299.52,-1629.4 992.29,-1565.23"/>
<polygon fill="black" stroke="black" points="992.84,-1561.77 982.34,-1563.15 991.41,-1568.62 992.84,-1561.77"/>
</g>
<!-- CounterDepCertifiedLiquidity_TT_rename -->
<g id="node30" class="node">
<title>CounterDepCertifiedLiquidity_TT_rename</title>
<g id="a_node30"><a xlink:href="CounterDepCertifiedLiquidity.html#TT_rename" xlink:title="TT_rename">
<ellipse fill="#f070d1" stroke="black" cx="235" cy="-2067.72" rx="62.3" ry="18"/>
<ellipse fill="none" stroke="black" cx="235" cy="-2067.72" rx="66.3" ry="22"/>
<ellipse fill="none" stroke="black" cx="235" cy="-2067.72" rx="70.29" ry="26"/>
<text text-anchor="middle" x="235" y="-2064.02" font-family="Times,serif" font-size="14.00">TT_rename</text>
</a>
</g>
</g>
<!-- CounterDepCertifiedLiquidity_TT_remap -->
<g id="node31" class="node">
<title>CounterDepCertifiedLiquidity_TT_remap</title>
<g id="a_node31"><a xlink:href="CounterDepCertifiedLiquidity.html#TT_remap" xlink:title="TT_remap">
<ellipse fill="#f070d1" stroke="black" cx="81" cy="-2067.72" rx="57.37" ry="18"/>
<ellipse fill="none" stroke="black" cx="81" cy="-2067.72" rx="61.38" ry="22"/>
<ellipse fill="none" stroke="black" cx="81" cy="-2067.72" rx="65.39" ry="26"/>
<text text-anchor="middle" x="81" y="-2064.02" font-family="Times,serif" font-size="14.00">TT_remap</text>
</a>
</g>
</g>
</g>
</svg>
