<?xml version="1.0" encoding="UTF-8" standalone="no"?>
<!DOCTYPE svg PUBLIC "-//W3C//DTD SVG 1.1//EN"
 "http://www.w3.org/Graphics/SVG/1.1/DTD/svg11.dtd">
<!-- Generated by graphviz version 2.43.0 (0)
 -->
<!-- Title: BoundedN Pages: 1 -->
<svg width="1803pt" height="906pt"
 viewBox="0.00 0.00 1803.00 905.50" xmlns="http://www.w3.org/2000/svg" xmlns:xlink="http://www.w3.org/1999/xlink">
<g id="graph0" class="graph" transform="scale(1 1) rotate(0) translate(4 901.5)">
<title>BoundedN</title>
<polygon fill="white" stroke="transparent" points="-4,4 -4,-901.5 1799,-901.5 1799,4 -4,4"/>
<g id="clust1" class="cluster">
<title>cluster_BoundedN</title>
<polygon fill="#ffffc3" stroke="black" points="8,-10.67 8,-886.83 1787,-886.83 1787,-10.67 8,-10.67"/>
<text text-anchor="middle" x="54" y="-871.63" font-family="Times,serif" font-size="14.00">BoundedN</text>
</g>
<g id="clust2" class="cluster">
<title>cluster_BoundedN_BoundedN</title>
<polygon fill="#ffffa3" stroke="black" points="16,-21.34 16,-845.49 1194,-845.49 1194,-21.34 16,-21.34"/>
<text text-anchor="middle" x="62" y="-830.29" font-family="Times,serif" font-size="14.00">BoundedN</text>
</g>
<g id="clust3" class="cluster">
<title>cluster_BoundedN_BoundedN_Stdpp</title>
<polygon fill="#ffff83" stroke="black" points="577,-480.09 577,-804.15 1064,-804.15 1064,-480.09 577,-480.09"/>
<text text-anchor="middle" x="606.5" y="-788.95" font-family="Times,serif" font-size="14.00">Stdpp</text>
</g>
<!-- BoundedN_BoundedN_Stdpp_BoundedNCountable -->
<g id="node1" class="node">
<title>BoundedN_BoundedN_Stdpp_BoundedNCountable</title>
<g id="a_node1"><a xlink:href="BoundedN.html#BoundedN.Stdpp.BoundedNCountable" xlink:title="BoundedNCountable">
<ellipse fill="#f070d1" stroke="black" cx="828" cy="-727.67" rx="106.67" ry="18"/>
<ellipse fill="none" stroke="black" cx="828" cy="-727.67" rx="110.68" ry="22"/>
<ellipse fill="none" stroke="black" cx="828" cy="-727.67" rx="114.68" ry="26"/>
<text text-anchor="middle" x="828" y="-723.97" font-family="Times,serif" font-size="14.00">BoundedNCountable</text>
</a>
</g>
</g>
<!-- BoundedN_BoundedN_Stdpp_decode_encode_bounded -->
<g id="node2" class="node">
<title>BoundedN_BoundedN_Stdpp_decode_encode_bounded</title>
<g id="a_node2"><a xlink:href="BoundedN.html#BoundedN.Stdpp.decode_encode_bounded" xlink:title="decode_encode_bounded">
<ellipse fill="#7fffd4" stroke="black" cx="716" cy="-621.67" rx="124.58" ry="18"/>
<text text-anchor="middle" x="716" y="-617.97" font-family="Times,serif" font-size="14.00">decode_encode_bounded</text>
</a>
</g>
</g>
<!-- BoundedN_BoundedN_Stdpp_BoundedNCountable&#45;&gt;BoundedN_BoundedN_Stdpp_decode_encode_bounded -->
<g id="edge1" class="edge">
<title>BoundedN_BoundedN_Stdpp_BoundedNCountable&#45;&gt;BoundedN_BoundedN_Stdpp_decode_encode_bounded</title>
<path fill="none" stroke="black" d="M801.74,-702.29C783.8,-685.62 760.12,-663.64 742.19,-646.99"/>
<polygon fill="black" stroke="black" points="744.11,-643.99 734.4,-639.75 739.35,-649.12 744.11,-643.99"/>
</g>
<!-- BoundedN_BoundedN_Stdpp_BoundedNEqDec -->
<g id="node5" class="node">
<title>BoundedN_BoundedN_Stdpp_BoundedNEqDec</title>
<g id="a_node5"><a xlink:href="BoundedN.html#BoundedN.Stdpp.BoundedNEqDec" xlink:title="BoundedNEqDec">
<ellipse fill="#f070d1" stroke="black" cx="960" cy="-621.67" rx="89.88" ry="18"/>
<text text-anchor="middle" x="960" y="-617.97" font-family="Times,serif" font-size="14.00">BoundedNEqDec</text>
</a>
</g>
</g>
<!-- BoundedN_BoundedN_Stdpp_BoundedNCountable&#45;&gt;BoundedN_BoundedN_Stdpp_BoundedNEqDec -->
<g id="edge2" class="edge">
<title>BoundedN_BoundedN_Stdpp_BoundedNCountable&#45;&gt;BoundedN_BoundedN_Stdpp_BoundedNEqDec</title>
<path fill="none" stroke="black" d="M858.62,-702.55C880.4,-685.38 909.49,-662.47 930.92,-645.58"/>
<polygon fill="black" stroke="black" points="933.32,-648.14 939.01,-639.21 928.99,-642.64 933.32,-648.14"/>
</g>
<!-- BoundedN_BoundedN_Stdpp_decode_bounded -->
<g id="node3" class="node">
<title>BoundedN_BoundedN_Stdpp_decode_bounded</title>
<g id="a_node3"><a xlink:href="BoundedN.html#BoundedN.Stdpp.decode_bounded" xlink:title="decode_bounded">
<ellipse fill="#f070d1" stroke="black" cx="673" cy="-514.67" rx="87.99" ry="18"/>
<text text-anchor="middle" x="673" y="-510.97" font-family="Times,serif" font-size="14.00">decode_bounded</text>
</a>
</g>
</g>
<!-- BoundedN_BoundedN_Stdpp_decode_encode_bounded&#45;&gt;BoundedN_BoundedN_Stdpp_decode_bounded -->
<g id="edge3" class="edge">
<title>BoundedN_BoundedN_Stdpp_decode_encode_bounded&#45;&gt;BoundedN_BoundedN_Stdpp_decode_bounded</title>
<path fill="none" stroke="black" d="M708.9,-603.33C702.07,-586.66 691.67,-561.25 683.81,-542.07"/>
<polygon fill="black" stroke="black" points="687,-540.61 679.97,-532.68 680.52,-543.27 687,-540.61"/>
</g>
<!-- BoundedN_BoundedN_Stdpp_encode_bounded -->
<g id="node4" class="node">
<title>BoundedN_BoundedN_Stdpp_encode_bounded</title>
<g id="a_node4"><a xlink:href="BoundedN.html#BoundedN.Stdpp.encode_bounded" xlink:title="encode_bounded">
<ellipse fill="#f070d1" stroke="black" cx="866" cy="-514.67" rx="87.99" ry="18"/>
<text text-anchor="middle" x="866" y="-510.97" font-family="Times,serif" font-size="14.00">encode_bounded</text>
</a>
</g>
</g>
<!-- BoundedN_BoundedN_Stdpp_decode_encode_bounded&#45;&gt;BoundedN_BoundedN_Stdpp_encode_bounded -->
<g id="edge4" class="edge">
<title>BoundedN_BoundedN_Stdpp_decode_encode_bounded&#45;&gt;BoundedN_BoundedN_Stdpp_encode_bounded</title>
<path fill="none" stroke="black" d="M740.1,-603.8C765.62,-585.94 806.02,-557.66 834.15,-537.96"/>
<polygon fill="black" stroke="black" points="836.27,-540.75 842.45,-532.15 832.25,-535.02 836.27,-540.75"/>
</g>
<!-- BoundedN_BoundedN_of_to_N -->
<g id="node19" class="node">
<title>BoundedN_BoundedN_of_to_N</title>
<g id="a_node19"><a xlink:href="BoundedN.html#BoundedN.of_to_N" xlink:title="of_to_N">
<ellipse fill="#7fffd4" stroke="black" cx="616" cy="-279.67" rx="45.49" ry="18"/>
<text text-anchor="middle" x="616" y="-275.97" font-family="Times,serif" font-size="14.00">of_to_N</text>
</a>
</g>
</g>
<!-- BoundedN_BoundedN_Stdpp_decode_encode_bounded&#45;&gt;BoundedN_BoundedN_of_to_N -->
<g id="edge5" class="edge">
<title>BoundedN_BoundedN_Stdpp_decode_encode_bounded&#45;&gt;BoundedN_BoundedN_of_to_N</title>
<path fill="none" stroke="black" d="M663.04,-605.31C631.75,-593.21 594.69,-572.87 576,-540.67 564.4,-520.68 569.83,-510.94 576,-488.67 584.99,-456.2 605.89,-456.1 615,-423.67 625.95,-384.67 623.35,-337.3 620.02,-308.06"/>
<polygon fill="black" stroke="black" points="623.45,-307.29 618.74,-297.8 616.51,-308.16 623.45,-307.29"/>
</g>
<!-- BoundedN_BoundedN_of_N -->
<g id="node30" class="node">
<title>BoundedN_BoundedN_of_N</title>
<g id="a_node30"><a xlink:href="BoundedN.html#BoundedN.of_N" xlink:title="of_N">
<ellipse fill="#f070d1" stroke="black" cx="505" cy="-162.67" rx="31.7" ry="18"/>
<text text-anchor="middle" x="505" y="-158.97" font-family="Times,serif" font-size="14.00">of_N</text>
</a>
</g>
</g>
<!-- BoundedN_BoundedN_Stdpp_decode_bounded&#45;&gt;BoundedN_BoundedN_of_N -->
<g id="edge6" class="edge">
<title>BoundedN_BoundedN_Stdpp_decode_bounded&#45;&gt;BoundedN_BoundedN_of_N</title>
<path fill="none" stroke="black" d="M691.08,-496.85C709.08,-479.55 736.86,-451.3 757,-423.67 772.59,-402.28 772.21,-394.25 786,-371.67 804.38,-341.58 819.78,-339.41 830,-305.67 836.7,-283.55 843.99,-272.06 830,-253.67 795.48,-208.29 625.39,-179.87 545.98,-168.87"/>
<polygon fill="black" stroke="black" points="546.23,-165.37 535.85,-167.49 545.29,-172.3 546.23,-165.37"/>
</g>
<!-- BoundedN_BoundedN_to_N -->
<g id="node33" class="node">
<title>BoundedN_BoundedN_to_N</title>
<g id="a_node33"><a xlink:href="BoundedN.html#BoundedN.to_N" xlink:title="to_N">
<ellipse fill="#f070d1" stroke="black" cx="915" cy="-162.67" rx="32.49" ry="18"/>
<text text-anchor="middle" x="915" y="-158.97" font-family="Times,serif" font-size="14.00">to_N</text>
</a>
</g>
</g>
<!-- BoundedN_BoundedN_Stdpp_encode_bounded&#45;&gt;BoundedN_BoundedN_to_N -->
<g id="edge7" class="edge">
<title>BoundedN_BoundedN_Stdpp_encode_bounded&#45;&gt;BoundedN_BoundedN_to_N</title>
<path fill="none" stroke="black" d="M846.86,-496.9C818.21,-469.73 770.28,-414.76 797,-371.67 831.78,-315.59 895.22,-361.75 930,-305.67 951.95,-270.27 938.63,-220.18 926.88,-189.92"/>
<polygon fill="black" stroke="black" points="930.04,-188.4 923.01,-180.47 923.56,-191.05 930.04,-188.4"/>
</g>
<!-- BoundedN_BoundedN_Stdpp_eq_dec -->
<g id="node6" class="node">
<title>BoundedN_BoundedN_Stdpp_eq_dec</title>
<g id="a_node6"><a xlink:href="BoundedN.html#BoundedN.Stdpp.eq_dec" xlink:title="eq_dec">
<ellipse fill="#f070d1" stroke="black" cx="1014" cy="-514.67" rx="42.49" ry="18"/>
<text text-anchor="middle" x="1014" y="-510.97" font-family="Times,serif" font-size="14.00">eq_dec</text>
</a>
</g>
</g>
<!-- BoundedN_BoundedN_Stdpp_BoundedNEqDec&#45;&gt;BoundedN_BoundedN_Stdpp_eq_dec -->
<g id="edge8" class="edge">
<title>BoundedN_BoundedN_Stdpp_BoundedNEqDec&#45;&gt;BoundedN_BoundedN_Stdpp_eq_dec</title>
<path fill="none" stroke="black" d="M968.92,-603.33C977.58,-586.49 990.84,-560.71 1000.74,-541.46"/>
<polygon fill="black" stroke="black" points="1003.97,-542.83 1005.43,-532.34 997.74,-539.63 1003.97,-542.83"/>
</g>
<!-- BoundedN_BoundedN_eqb_spec -->
<g id="node23" class="node">
<title>BoundedN_BoundedN_eqb_spec</title>
<g id="a_node23"><a xlink:href="BoundedN.html#BoundedN.eqb_spec" xlink:title="eqb_spec">
<ellipse fill="#f070d1" stroke="black" cx="1133" cy="-397.67" rx="53.09" ry="18"/>
<text text-anchor="middle" x="1133" y="-393.97" font-family="Times,serif" font-size="14.00">eqb_spec</text>
</a>
</g>
</g>
<!-- BoundedN_BoundedN_Stdpp_eq_dec&#45;&gt;BoundedN_BoundedN_eqb_spec -->
<g id="edge9" class="edge">
<title>BoundedN_BoundedN_Stdpp_eq_dec&#45;&gt;BoundedN_BoundedN_eqb_spec</title>
<path fill="none" stroke="black" d="M1030.55,-497.68C1050.86,-478.05 1085.47,-444.6 1108.78,-422.08"/>
<polygon fill="black" stroke="black" points="1111.45,-424.36 1116.21,-414.89 1106.59,-419.33 1111.45,-424.36"/>
</g>
<!-- BoundedN_BoundedN_BoundedN_finite -->
<g id="node7" class="node">
<title>BoundedN_BoundedN_BoundedN_finite</title>
<g id="a_node7"><a xlink:href="BoundedN.html#BoundedN.BoundedN_finite" xlink:title="BoundedN_finite">
<ellipse fill="#f070d1" stroke="black" cx="291" cy="-727.67" rx="87.96" ry="18"/>
<ellipse fill="none" stroke="black" cx="291" cy="-727.67" rx="91.97" ry="22"/>
<ellipse fill="none" stroke="black" cx="291" cy="-727.67" rx="95.99" ry="26"/>
<text text-anchor="middle" x="291" y="-723.97" font-family="Times,serif" font-size="14.00">BoundedN_finite</text>
</a>
</g>
</g>
<!-- BoundedN_BoundedN_bounded_elements_all -->
<g id="node8" class="node">
<title>BoundedN_BoundedN_bounded_elements_all</title>
<g id="a_node8"><a xlink:href="BoundedN.html#BoundedN.bounded_elements_all" xlink:title="bounded_elements_all">
<ellipse fill="#7fffd4" stroke="black" cx="415" cy="-621.67" rx="113.18" ry="18"/>
<text text-anchor="middle" x="415" y="-617.97" font-family="Times,serif" font-size="14.00">bounded_elements_all</text>
</a>
</g>
</g>
<!-- BoundedN_BoundedN_BoundedN_finite&#45;&gt;BoundedN_BoundedN_bounded_elements_all -->
<g id="edge10" class="edge">
<title>BoundedN_BoundedN_BoundedN_finite&#45;&gt;BoundedN_BoundedN_bounded_elements_all</title>
<path fill="none" stroke="black" d="M319.45,-702.81C339.68,-685.84 366.74,-663.14 386.9,-646.24"/>
<polygon fill="black" stroke="black" points="389.39,-648.72 394.8,-639.61 384.89,-643.35 389.39,-648.72"/>
</g>
<!-- BoundedN_BoundedN_bounded_elements_set -->
<g id="node9" class="node">
<title>BoundedN_BoundedN_bounded_elements_set</title>
<g id="a_node9"><a xlink:href="BoundedN.html#BoundedN.bounded_elements_set" xlink:title="bounded_elements_set">
<ellipse fill="#7fffd4" stroke="black" cx="168" cy="-621.67" rx="116.18" ry="18"/>
<text text-anchor="middle" x="168" y="-617.97" font-family="Times,serif" font-size="14.00">bounded_elements_set</text>
</a>
</g>
</g>
<!-- BoundedN_BoundedN_BoundedN_finite&#45;&gt;BoundedN_BoundedN_bounded_elements_set -->
<g id="edge11" class="edge">
<title>BoundedN_BoundedN_BoundedN_finite&#45;&gt;BoundedN_BoundedN_bounded_elements_set</title>
<path fill="none" stroke="black" d="M262.78,-702.81C242.71,-685.84 215.87,-663.14 195.87,-646.24"/>
<polygon fill="black" stroke="black" points="197.93,-643.39 188.03,-639.61 193.41,-648.74 197.93,-643.39"/>
</g>
<!-- BoundedN_BoundedN_bounded_elements -->
<g id="node10" class="node">
<title>BoundedN_BoundedN_bounded_elements</title>
<g id="a_node10"><a xlink:href="BoundedN.html#BoundedN.bounded_elements" xlink:title="bounded_elements">
<ellipse fill="#f070d1" stroke="black" cx="206" cy="-514.67" rx="97.48" ry="18"/>
<text text-anchor="middle" x="206" y="-510.97" font-family="Times,serif" font-size="14.00">bounded_elements</text>
</a>
</g>
</g>
<!-- BoundedN_BoundedN_bounded_elements_all&#45;&gt;BoundedN_BoundedN_bounded_elements -->
<g id="edge12" class="edge">
<title>BoundedN_BoundedN_bounded_elements_all&#45;&gt;BoundedN_BoundedN_bounded_elements</title>
<path fill="none" stroke="black" d="M382.34,-604.26C345.89,-585.95 286.82,-556.27 247.21,-536.37"/>
<polygon fill="black" stroke="black" points="248.59,-533.15 238.08,-531.79 245.45,-539.4 248.59,-533.15"/>
</g>
<!-- BoundedN_BoundedN_in_map_of_nat -->
<g id="node11" class="node">
<title>BoundedN_BoundedN_in_map_of_nat</title>
<g id="a_node11"><a xlink:href="BoundedN.html#BoundedN.in_map_of_nat" xlink:title="in_map_of_nat">
<ellipse fill="#7fffd4" stroke="black" cx="415" cy="-514.67" rx="76.89" ry="18"/>
<text text-anchor="middle" x="415" y="-510.97" font-family="Times,serif" font-size="14.00">in_map_of_nat</text>
</a>
</g>
</g>
<!-- BoundedN_BoundedN_bounded_elements_all&#45;&gt;BoundedN_BoundedN_in_map_of_nat -->
<g id="edge13" class="edge">
<title>BoundedN_BoundedN_bounded_elements_all&#45;&gt;BoundedN_BoundedN_in_map_of_nat</title>
<path fill="none" stroke="black" d="M415,-603.33C415,-586.89 415,-561.95 415,-542.86"/>
<polygon fill="black" stroke="black" points="418.5,-542.68 415,-532.68 411.5,-542.68 418.5,-542.68"/>
</g>
<!-- BoundedN_BoundedN_bounded_elements_set&#45;&gt;BoundedN_BoundedN_bounded_elements -->
<g id="edge14" class="edge">
<title>BoundedN_BoundedN_bounded_elements_set&#45;&gt;BoundedN_BoundedN_bounded_elements</title>
<path fill="none" stroke="black" d="M174.27,-603.33C180.28,-586.74 189.42,-561.48 196.35,-542.33"/>
<polygon fill="black" stroke="black" points="199.73,-543.28 199.84,-532.68 193.15,-540.9 199.73,-543.28"/>
</g>
<!-- BoundedN_BoundedN_bounded_elements_set&#45;&gt;BoundedN_BoundedN_in_map_of_nat -->
<g id="edge15" class="edge">
<title>BoundedN_BoundedN_bounded_elements_set&#45;&gt;BoundedN_BoundedN_in_map_of_nat</title>
<path fill="none" stroke="black" d="M205.78,-604.61C250.03,-585.8 323.26,-554.67 370.29,-534.67"/>
<polygon fill="black" stroke="black" points="371.79,-537.84 379.62,-530.71 369.05,-531.4 371.79,-537.84"/>
</g>
<!-- BoundedN_BoundedN_of_nat_none -->
<g id="node12" class="node">
<title>BoundedN_BoundedN_of_nat_none</title>
<g id="a_node12"><a xlink:href="BoundedN.html#BoundedN.of_nat_none" xlink:title="of_nat_none">
<ellipse fill="#7fffd4" stroke="black" cx="90" cy="-397.67" rx="65.79" ry="18"/>
<text text-anchor="middle" x="90" y="-393.97" font-family="Times,serif" font-size="14.00">of_nat_none</text>
</a>
</g>
</g>
<!-- BoundedN_BoundedN_bounded_elements_set&#45;&gt;BoundedN_BoundedN_of_nat_none -->
<g id="edge16" class="edge">
<title>BoundedN_BoundedN_bounded_elements_set&#45;&gt;BoundedN_BoundedN_of_nat_none</title>
<path fill="none" stroke="black" d="M147.99,-603.9C131.9,-589.1 110.33,-565.98 100,-540.67 84.7,-503.17 84.89,-455.49 87.01,-426.03"/>
<polygon fill="black" stroke="black" points="90.5,-426.32 87.85,-416.06 83.52,-425.73 90.5,-426.32"/>
</g>
<!-- BoundedN_BoundedN_of_nat -->
<g id="node28" class="node">
<title>BoundedN_BoundedN_of_nat</title>
<g id="a_node28"><a xlink:href="BoundedN.html#BoundedN.of_nat" xlink:title="of_nat">
<ellipse fill="#f070d1" stroke="black" cx="198" cy="-279.67" rx="38.99" ry="18"/>
<text text-anchor="middle" x="198" y="-275.97" font-family="Times,serif" font-size="14.00">of_nat</text>
</a>
</g>
</g>
<!-- BoundedN_BoundedN_bounded_elements&#45;&gt;BoundedN_BoundedN_of_nat -->
<g id="edge17" class="edge">
<title>BoundedN_BoundedN_bounded_elements&#45;&gt;BoundedN_BoundedN_of_nat</title>
<path fill="none" stroke="black" d="M200.79,-496.62C195.59,-478.67 187.97,-449.49 185,-423.67 180.37,-383.48 186.84,-336.79 192.19,-307.98"/>
<polygon fill="black" stroke="black" points="195.68,-308.35 194.16,-297.87 188.81,-307.01 195.68,-308.35"/>
</g>
<!-- BoundedN_BoundedN_of_nat_some -->
<g id="node13" class="node">
<title>BoundedN_BoundedN_of_nat_some</title>
<g id="a_node13"><a xlink:href="BoundedN.html#BoundedN.of_nat_some" xlink:title="of_nat_some">
<ellipse fill="#7fffd4" stroke="black" cx="415" cy="-397.67" rx="67.69" ry="18"/>
<text text-anchor="middle" x="415" y="-393.97" font-family="Times,serif" font-size="14.00">of_nat_some</text>
</a>
</g>
</g>
<!-- BoundedN_BoundedN_in_map_of_nat&#45;&gt;BoundedN_BoundedN_of_nat_some -->
<g id="edge18" class="edge">
<title>BoundedN_BoundedN_in_map_of_nat&#45;&gt;BoundedN_BoundedN_of_nat_some</title>
<path fill="none" stroke="black" d="M415,-496.2C415,-477.6 415,-447.91 415,-426.17"/>
<polygon fill="black" stroke="black" points="418.5,-425.92 415,-415.92 411.5,-425.92 418.5,-425.92"/>
</g>
<!-- BoundedN_BoundedN_of_to_nat -->
<g id="node18" class="node">
<title>BoundedN_BoundedN_of_to_nat</title>
<g id="a_node18"><a xlink:href="BoundedN.html#BoundedN.of_to_nat" xlink:title="of_to_nat">
<ellipse fill="#7fffd4" stroke="black" cx="553" cy="-397.67" rx="52.79" ry="18"/>
<text text-anchor="middle" x="553" y="-393.97" font-family="Times,serif" font-size="14.00">of_to_nat</text>
</a>
</g>
</g>
<!-- BoundedN_BoundedN_in_map_of_nat&#45;&gt;BoundedN_BoundedN_of_to_nat -->
<g id="edge19" class="edge">
<title>BoundedN_BoundedN_in_map_of_nat&#45;&gt;BoundedN_BoundedN_of_to_nat</title>
<path fill="none" stroke="black" d="M434.77,-497.19C458.68,-477.27 499.05,-443.63 525.86,-421.29"/>
<polygon fill="black" stroke="black" points="528.27,-423.83 533.71,-414.74 523.79,-418.46 528.27,-423.83"/>
</g>
<!-- BoundedN_BoundedN_of_N_none -->
<g id="node14" class="node">
<title>BoundedN_BoundedN_of_N_none</title>
<g id="a_node14"><a xlink:href="BoundedN.html#BoundedN.of_N_none" xlink:title="of_N_none">
<ellipse fill="#7fffd4" stroke="black" cx="83" cy="-279.67" rx="58.49" ry="18"/>
<text text-anchor="middle" x="83" y="-275.97" font-family="Times,serif" font-size="14.00">of_N_none</text>
</a>
</g>
</g>
<!-- BoundedN_BoundedN_of_nat_none&#45;&gt;BoundedN_BoundedN_of_N_none -->
<g id="edge20" class="edge">
<title>BoundedN_BoundedN_of_nat_none&#45;&gt;BoundedN_BoundedN_of_N_none</title>
<path fill="none" stroke="black" d="M88.97,-379.55C87.83,-360.7 85.99,-330.14 84.65,-307.97"/>
<polygon fill="black" stroke="black" points="88.13,-307.63 84.04,-297.86 81.15,-308.05 88.13,-307.63"/>
</g>
<!-- BoundedN_BoundedN_of_nat_none&#45;&gt;BoundedN_BoundedN_of_nat -->
<g id="edge21" class="edge">
<title>BoundedN_BoundedN_of_nat_none&#45;&gt;BoundedN_BoundedN_of_nat</title>
<path fill="none" stroke="black" d="M105.47,-380.05C124.05,-360.1 155.31,-326.52 176.29,-303.98"/>
<polygon fill="black" stroke="black" points="179,-306.22 183.25,-296.51 173.87,-301.45 179,-306.22"/>
</g>
<!-- BoundedN_BoundedN_of_N_some -->
<g id="node15" class="node">
<title>BoundedN_BoundedN_of_N_some</title>
<g id="a_node15"><a xlink:href="BoundedN.html#BoundedN.of_N_some" xlink:title="of_N_some">
<ellipse fill="#7fffd4" stroke="black" cx="395" cy="-279.67" rx="60.39" ry="18"/>
<text text-anchor="middle" x="395" y="-275.97" font-family="Times,serif" font-size="14.00">of_N_some</text>
</a>
</g>
</g>
<!-- BoundedN_BoundedN_of_nat_some&#45;&gt;BoundedN_BoundedN_of_N_some -->
<g id="edge22" class="edge">
<title>BoundedN_BoundedN_of_nat_some&#45;&gt;BoundedN_BoundedN_of_N_some</title>
<path fill="none" stroke="black" d="M412.05,-379.55C408.8,-360.7 403.53,-330.14 399.71,-307.97"/>
<polygon fill="black" stroke="black" points="403.11,-307.11 397.96,-297.86 396.21,-308.3 403.11,-307.11"/>
</g>
<!-- BoundedN_BoundedN_of_nat_some&#45;&gt;BoundedN_BoundedN_of_nat -->
<g id="edge23" class="edge">
<title>BoundedN_BoundedN_of_nat_some&#45;&gt;BoundedN_BoundedN_of_nat</title>
<path fill="none" stroke="black" d="M386.18,-381.26C346.2,-359.89 274.06,-321.33 231.65,-298.66"/>
<polygon fill="black" stroke="black" points="233.04,-295.43 222.57,-293.8 229.74,-301.6 233.04,-295.43"/>
</g>
<!-- BoundedN_BoundedN_to_nat -->
<g id="node29" class="node">
<title>BoundedN_BoundedN_to_nat</title>
<g id="a_node29"><a xlink:href="BoundedN.html#BoundedN.to_nat" xlink:title="to_nat">
<ellipse fill="#f070d1" stroke="black" cx="513" cy="-279.67" rx="39.79" ry="18"/>
<text text-anchor="middle" x="513" y="-275.97" font-family="Times,serif" font-size="14.00">to_nat</text>
</a>
</g>
</g>
<!-- BoundedN_BoundedN_of_nat_some&#45;&gt;BoundedN_BoundedN_to_nat -->
<g id="edge24" class="edge">
<title>BoundedN_BoundedN_of_nat_some&#45;&gt;BoundedN_BoundedN_to_nat</title>
<path fill="none" stroke="black" d="M429.04,-380.05C445.73,-360.3 473.7,-327.19 492.73,-304.66"/>
<polygon fill="black" stroke="black" points="495.52,-306.78 499.3,-296.88 490.17,-302.26 495.52,-306.78"/>
</g>
<!-- BoundedN_BoundedN_of_N_none&#45;&gt;BoundedN_BoundedN_of_N -->
<g id="edge25" class="edge">
<title>BoundedN_BoundedN_of_N_none&#45;&gt;BoundedN_BoundedN_of_N</title>
<path fill="none" stroke="black" d="M117.53,-264.97C127.89,-261.08 139.33,-257 150,-253.67 263.2,-218.31 399.9,-186.7 465.76,-172.15"/>
<polygon fill="black" stroke="black" points="466.7,-175.52 475.71,-169.96 465.19,-168.69 466.7,-175.52"/>
</g>
<!-- BoundedN_BoundedN_of_N_some&#45;&gt;BoundedN_BoundedN_of_N -->
<g id="edge26" class="edge">
<title>BoundedN_BoundedN_of_N_some&#45;&gt;BoundedN_BoundedN_of_N</title>
<path fill="none" stroke="black" d="M410.76,-262.19C429.78,-242.3 461.88,-208.75 483.25,-186.41"/>
<polygon fill="black" stroke="black" points="485.94,-188.66 490.32,-179.01 480.88,-183.82 485.94,-188.66"/>
</g>
<!-- BoundedN_BoundedN_of_N_some&#45;&gt;BoundedN_BoundedN_to_N -->
<g id="edge27" class="edge">
<title>BoundedN_BoundedN_of_N_some&#45;&gt;BoundedN_BoundedN_to_N</title>
<path fill="none" stroke="black" d="M429.77,-264.92C440.62,-260.94 452.71,-256.82 464,-253.67 612.67,-212.16 793.99,-182.02 873.87,-169.75"/>
<polygon fill="black" stroke="black" points="874.64,-173.17 884,-168.2 873.59,-166.25 874.64,-173.17"/>
</g>
<!-- BoundedN_BoundedN_of_to_Z -->
<g id="node16" class="node">
<title>BoundedN_BoundedN_of_to_Z</title>
<g id="a_node16"><a xlink:href="BoundedN.html#BoundedN.of_to_Z" xlink:title="of_to_Z">
<ellipse fill="#7fffd4" stroke="black" cx="696" cy="-397.67" rx="44.36" ry="18"/>
<ellipse fill="none" stroke="black" cx="696" cy="-397.67" rx="48.38" ry="22"/>
<ellipse fill="none" stroke="black" cx="696" cy="-397.67" rx="52.39" ry="26"/>
<text text-anchor="middle" x="696" y="-393.97" font-family="Times,serif" font-size="14.00">of_to_Z</text>
</a>
</g>
</g>
<!-- BoundedN_BoundedN_of_n_not_lt_0 -->
<g id="node17" class="node">
<title>BoundedN_BoundedN_of_n_not_lt_0</title>
<g id="a_node17"><a xlink:href="BoundedN.html#BoundedN.of_n_not_lt_0" xlink:title="of_n_not_lt_0">
<ellipse fill="#7fffd4" stroke="black" cx="750" cy="-279.67" rx="70.69" ry="18"/>
<text text-anchor="middle" x="750" y="-275.97" font-family="Times,serif" font-size="14.00">of_n_not_lt_0</text>
</a>
</g>
</g>
<!-- BoundedN_BoundedN_of_to_Z&#45;&gt;BoundedN_BoundedN_of_n_not_lt_0 -->
<g id="edge28" class="edge">
<title>BoundedN_BoundedN_of_to_Z&#45;&gt;BoundedN_BoundedN_of_n_not_lt_0</title>
<path fill="none" stroke="black" d="M707.45,-372.07C716.35,-352.95 728.67,-326.49 737.76,-306.96"/>
<polygon fill="black" stroke="black" points="741.01,-308.27 742.06,-297.72 734.67,-305.31 741.01,-308.27"/>
</g>
<!-- BoundedN_BoundedN_of_to_Z&#45;&gt;BoundedN_BoundedN_of_to_N -->
<g id="edge29" class="edge">
<title>BoundedN_BoundedN_of_to_Z&#45;&gt;BoundedN_BoundedN_of_to_N</title>
<path fill="none" stroke="black" d="M679.62,-372.91C666.08,-353.28 646.92,-325.5 633.17,-305.56"/>
<polygon fill="black" stroke="black" points="636.01,-303.52 627.45,-297.28 630.25,-307.49 636.01,-303.52"/>
</g>
<!-- BoundedN_BoundedN_of_Z -->
<g id="node26" class="node">
<title>BoundedN_BoundedN_of_Z</title>
<g id="a_node26"><a xlink:href="BoundedN.html#BoundedN.of_Z" xlink:title="of_Z">
<ellipse fill="#f070d1" stroke="black" cx="286" cy="-279.67" rx="30.59" ry="18"/>
<text text-anchor="middle" x="286" y="-275.97" font-family="Times,serif" font-size="14.00">of_Z</text>
</a>
</g>
</g>
<!-- BoundedN_BoundedN_of_to_Z&#45;&gt;BoundedN_BoundedN_of_Z -->
<g id="edge30" class="edge">
<title>BoundedN_BoundedN_of_to_Z&#45;&gt;BoundedN_BoundedN_of_Z</title>
<path fill="none" stroke="black" d="M652.88,-382.7C640.68,-378.93 627.37,-374.98 615,-371.67 487.74,-337.55 447.78,-355.95 326,-305.67 321.8,-303.93 317.54,-301.78 313.44,-299.46"/>
<polygon fill="black" stroke="black" points="315.19,-296.43 304.83,-294.24 311.57,-302.42 315.19,-296.43"/>
</g>
<!-- BoundedN_BoundedN_to_Z -->
<g id="node27" class="node">
<title>BoundedN_BoundedN_to_Z</title>
<g id="a_node27"><a xlink:href="BoundedN.html#BoundedN.to_Z" xlink:title="to_Z">
<ellipse fill="#f070d1" stroke="black" cx="890" cy="-279.67" rx="30.59" ry="18"/>
<text text-anchor="middle" x="890" y="-275.97" font-family="Times,serif" font-size="14.00">to_Z</text>
</a>
</g>
</g>
<!-- BoundedN_BoundedN_of_to_Z&#45;&gt;BoundedN_BoundedN_to_Z -->
<g id="edge31" class="edge">
<title>BoundedN_BoundedN_of_to_Z&#45;&gt;BoundedN_BoundedN_to_Z</title>
<path fill="none" stroke="black" d="M728.47,-377.25C765.31,-355.23 824.86,-319.62 860.44,-298.34"/>
<polygon fill="black" stroke="black" points="862.59,-301.14 869.37,-293 858.99,-295.13 862.59,-301.14"/>
</g>
<!-- BoundedN_BoundedN_of_to_nat&#45;&gt;BoundedN_BoundedN_of_to_N -->
<g id="edge32" class="edge">
<title>BoundedN_BoundedN_of_to_nat&#45;&gt;BoundedN_BoundedN_of_to_N</title>
<path fill="none" stroke="black" d="M562.3,-379.55C572.78,-360.25 589.93,-328.66 602.03,-306.39"/>
<polygon fill="black" stroke="black" points="605.17,-307.94 606.87,-297.48 599.02,-304.6 605.17,-307.94"/>
</g>
<!-- BoundedN_BoundedN_of_to_nat&#45;&gt;BoundedN_BoundedN_of_nat -->
<g id="edge33" class="edge">
<title>BoundedN_BoundedN_of_to_nat&#45;&gt;BoundedN_BoundedN_of_nat</title>
<path fill="none" stroke="black" d="M521.94,-383.05C512.43,-379.12 501.87,-375 492,-371.67 384.75,-335.47 351.49,-346.72 246,-305.67 240.86,-303.67 235.54,-301.27 230.41,-298.76"/>
<polygon fill="black" stroke="black" points="231.95,-295.61 221.45,-294.18 228.77,-301.85 231.95,-295.61"/>
</g>
<!-- BoundedN_BoundedN_of_to_nat&#45;&gt;BoundedN_BoundedN_to_nat -->
<g id="edge34" class="edge">
<title>BoundedN_BoundedN_of_to_nat&#45;&gt;BoundedN_BoundedN_to_nat</title>
<path fill="none" stroke="black" d="M547.1,-379.55C540.5,-360.42 529.74,-329.23 522.08,-306.99"/>
<polygon fill="black" stroke="black" points="525.37,-305.79 518.8,-297.48 518.75,-308.07 525.37,-305.79"/>
</g>
<!-- BoundedN_BoundedN_of_to_N&#45;&gt;BoundedN_BoundedN_of_N -->
<g id="edge35" class="edge">
<title>BoundedN_BoundedN_of_to_N&#45;&gt;BoundedN_BoundedN_of_N</title>
<path fill="none" stroke="black" d="M600.57,-262.68C581.38,-242.8 548.52,-208.76 526.78,-186.24"/>
<polygon fill="black" stroke="black" points="529.06,-183.56 519.6,-178.79 524.02,-188.42 529.06,-183.56"/>
</g>
<!-- BoundedN_BoundedN_of_to_N&#45;&gt;BoundedN_BoundedN_to_N -->
<g id="edge36" class="edge">
<title>BoundedN_BoundedN_of_to_N&#45;&gt;BoundedN_BoundedN_to_N</title>
<path fill="none" stroke="black" d="M643.84,-265.26C652.19,-261.37 661.41,-257.23 670,-253.67 742.89,-223.47 829.96,-192.72 878.21,-176.13"/>
<polygon fill="black" stroke="black" points="879.57,-179.37 887.9,-172.81 877.3,-172.74 879.57,-179.37"/>
</g>
<!-- BoundedN_BoundedN_to_Z_inj -->
<g id="node20" class="node">
<title>BoundedN_BoundedN_to_Z_inj</title>
<g id="a_node20"><a xlink:href="BoundedN.html#BoundedN.to_Z_inj" xlink:title="to_Z_inj">
<ellipse fill="#7fffd4" stroke="black" cx="1007" cy="-397.67" rx="46.62" ry="18"/>
<ellipse fill="none" stroke="black" cx="1007" cy="-397.67" rx="50.61" ry="22"/>
<ellipse fill="none" stroke="black" cx="1007" cy="-397.67" rx="54.59" ry="26"/>
<text text-anchor="middle" x="1007" y="-393.97" font-family="Times,serif" font-size="14.00">to_Z_inj</text>
</a>
</g>
</g>
<!-- BoundedN_BoundedN_to_N_inj -->
<g id="node24" class="node">
<title>BoundedN_BoundedN_to_N_inj</title>
<g id="a_node24"><a xlink:href="BoundedN.html#BoundedN.to_N_inj" xlink:title="to_N_inj">
<ellipse fill="#7fffd4" stroke="black" cx="1007" cy="-279.67" rx="48.19" ry="18"/>
<text text-anchor="middle" x="1007" y="-275.97" font-family="Times,serif" font-size="14.00">to_N_inj</text>
</a>
</g>
</g>
<!-- BoundedN_BoundedN_to_Z_inj&#45;&gt;BoundedN_BoundedN_to_N_inj -->
<g id="edge37" class="edge">
<title>BoundedN_BoundedN_to_Z_inj&#45;&gt;BoundedN_BoundedN_to_N_inj</title>
<path fill="none" stroke="black" d="M1007,-371.5C1007,-352.81 1007,-327.33 1007,-308.12"/>
<polygon fill="black" stroke="black" points="1010.5,-307.9 1007,-297.9 1003.5,-307.9 1010.5,-307.9"/>
</g>
<!-- BoundedN_BoundedN_to_Z_inj&#45;&gt;BoundedN_BoundedN_to_Z -->
<g id="edge38" class="edge">
<title>BoundedN_BoundedN_to_Z_inj&#45;&gt;BoundedN_BoundedN_to_Z</title>
<path fill="none" stroke="black" d="M984.16,-374.03C963.32,-353.36 932.69,-323 912.08,-302.56"/>
<polygon fill="black" stroke="black" points="914.55,-300.08 904.98,-295.52 909.62,-305.05 914.55,-300.08"/>
</g>
<!-- BoundedN_BoundedN_to_nat_inj -->
<g id="node21" class="node">
<title>BoundedN_BoundedN_to_nat_inj</title>
<g id="a_node21"><a xlink:href="BoundedN.html#BoundedN.to_nat_inj" xlink:title="to_nat_inj">
<ellipse fill="#7fffd4" stroke="black" cx="870" cy="-397.67" rx="55.8" ry="18"/>
<ellipse fill="none" stroke="black" cx="870" cy="-397.67" rx="59.8" ry="22"/>
<ellipse fill="none" stroke="black" cx="870" cy="-397.67" rx="63.79" ry="26"/>
<text text-anchor="middle" x="870" y="-393.97" font-family="Times,serif" font-size="14.00">to_nat_inj</text>
</a>
</g>
</g>
<!-- BoundedN_BoundedN_to_nat_inj&#45;&gt;BoundedN_BoundedN_to_N_inj -->
<g id="edge39" class="edge">
<title>BoundedN_BoundedN_to_nat_inj&#45;&gt;BoundedN_BoundedN_to_N_inj</title>
<path fill="none" stroke="black" d="M896.74,-374.03C920.95,-353.53 956.4,-323.51 980.53,-303.08"/>
<polygon fill="black" stroke="black" points="982.87,-305.68 988.24,-296.55 978.35,-300.34 982.87,-305.68"/>
</g>
<!-- BoundedN_BoundedN_to_nat_inj&#45;&gt;BoundedN_BoundedN_to_nat -->
<g id="edge40" class="edge">
<title>BoundedN_BoundedN_to_nat_inj&#45;&gt;BoundedN_BoundedN_to_nat</title>
<path fill="none" stroke="black" d="M815.57,-383.83C753.21,-368.38 648.49,-340.17 562,-305.67 556.79,-303.59 551.39,-301.15 546.16,-298.62"/>
<polygon fill="black" stroke="black" points="547.52,-295.39 537.01,-294.04 544.39,-301.65 547.52,-295.39"/>
</g>
<!-- BoundedN_BoundedN_eqb_refl -->
<g id="node22" class="node">
<title>BoundedN_BoundedN_eqb_refl</title>
<g id="a_node22"><a xlink:href="BoundedN.html#BoundedN.eqb_refl" xlink:title="eqb_refl">
<ellipse fill="#7fffd4" stroke="black" cx="1130" cy="-514.67" rx="48.18" ry="18"/>
<ellipse fill="none" stroke="black" cx="1130" cy="-514.67" rx="52.18" ry="22"/>
<ellipse fill="none" stroke="black" cx="1130" cy="-514.67" rx="56.19" ry="26"/>
<text text-anchor="middle" x="1130" y="-510.97" font-family="Times,serif" font-size="14.00">eqb_refl</text>
</a>
</g>
</g>
<!-- BoundedN_BoundedN_eqb_refl&#45;&gt;BoundedN_BoundedN_eqb_spec -->
<g id="edge41" class="edge">
<title>BoundedN_BoundedN_eqb_refl&#45;&gt;BoundedN_BoundedN_eqb_spec</title>
<path fill="none" stroke="black" d="M1130.66,-488.43C1131.14,-470 1131.79,-445.02 1132.28,-426.09"/>
<polygon fill="black" stroke="black" points="1135.79,-426.1 1132.55,-416.01 1128.79,-425.92 1135.79,-426.1"/>
</g>
<!-- BoundedN_BoundedN_eqb_spec&#45;&gt;BoundedN_BoundedN_to_N_inj -->
<g id="edge42" class="edge">
<title>BoundedN_BoundedN_eqb_spec&#45;&gt;BoundedN_BoundedN_to_N_inj</title>
<path fill="none" stroke="black" d="M1115.48,-380.54C1093.76,-360.54 1056.59,-326.32 1031.91,-303.6"/>
<polygon fill="black" stroke="black" points="1034.1,-300.86 1024.37,-296.66 1029.36,-306.01 1034.1,-300.86"/>
</g>
<!-- BoundedN_BoundedN_eqb -->
<g id="node32" class="node">
<title>BoundedN_BoundedN_eqb</title>
<g id="a_node32"><a xlink:href="BoundedN.html#BoundedN.eqb" xlink:title="eqb">
<ellipse fill="#f070d1" stroke="black" cx="1117" cy="-279.67" rx="27.9" ry="18"/>
<text text-anchor="middle" x="1117" y="-275.97" font-family="Times,serif" font-size="14.00">eqb</text>
</a>
</g>
</g>
<!-- BoundedN_BoundedN_eqb_spec&#45;&gt;BoundedN_BoundedN_eqb -->
<g id="edge43" class="edge">
<title>BoundedN_BoundedN_eqb_spec&#45;&gt;BoundedN_BoundedN_eqb</title>
<path fill="none" stroke="black" d="M1130.64,-379.55C1128.04,-360.7 1123.82,-330.14 1120.77,-307.97"/>
<polygon fill="black" stroke="black" points="1124.2,-307.28 1119.37,-297.86 1117.27,-308.24 1124.2,-307.28"/>
</g>
<!-- BoundedN_BoundedN_to_N_inj&#45;&gt;BoundedN_BoundedN_to_N -->
<g id="edge44" class="edge">
<title>BoundedN_BoundedN_to_N_inj&#45;&gt;BoundedN_BoundedN_to_N</title>
<path fill="none" stroke="black" d="M993.82,-262.19C978.13,-242.59 951.83,-209.7 933.96,-187.37"/>
<polygon fill="black" stroke="black" points="936.55,-185 927.57,-179.38 931.08,-189.37 936.55,-185"/>
</g>
<!-- BoundedN_bounded -->
<g id="node38" class="node">
<title>BoundedN_bounded</title>
<g id="a_node38"><a xlink:href="BoundedN.html#bounded" xlink:title="bounded">
<ellipse fill="#7faaff" stroke="black" cx="1472" cy="-55.67" rx="50.89" ry="18"/>
<text text-anchor="middle" x="1472" y="-51.97" font-family="Times,serif" font-size="14.00">bounded</text>
</a>
</g>
</g>
<!-- BoundedN_BoundedN_to_N_inj&#45;&gt;BoundedN_bounded -->
<g id="edge45" class="edge">
<title>BoundedN_BoundedN_to_N_inj&#45;&gt;BoundedN_bounded</title>
<path fill="none" stroke="black" d="M1038.52,-266.06C1051.22,-261.46 1066.12,-256.66 1080,-253.67 1230.13,-221.34 1664.64,-302.25 1768,-188.67 1840.93,-108.52 1636.61,-74.26 1530.91,-62.2"/>
<polygon fill="black" stroke="black" points="1531.02,-58.69 1520.7,-61.07 1530.25,-65.65 1531.02,-58.69"/>
</g>
<!-- BoundedN_BoundedN_of_Z_const -->
<g id="node25" class="node">
<title>BoundedN_BoundedN_of_Z_const</title>
<g id="a_node25"><a xlink:href="BoundedN.html#BoundedN.of_Z_const" xlink:title="of_Z_const">
<ellipse fill="#f070d1" stroke="black" cx="262" cy="-397.67" rx="59.61" ry="18"/>
<ellipse fill="none" stroke="black" cx="262" cy="-397.67" rx="63.6" ry="22"/>
<ellipse fill="none" stroke="black" cx="262" cy="-397.67" rx="67.59" ry="26"/>
<text text-anchor="middle" x="262" y="-393.97" font-family="Times,serif" font-size="14.00">of_Z_const</text>
</a>
</g>
</g>
<!-- BoundedN_BoundedN_of_Z_const&#45;&gt;BoundedN_BoundedN_of_Z -->
<g id="edge46" class="edge">
<title>BoundedN_BoundedN_of_Z_const&#45;&gt;BoundedN_BoundedN_of_Z</title>
<path fill="none" stroke="black" d="M267.21,-371.5C271.12,-352.61 276.46,-326.79 280.45,-307.51"/>
<polygon fill="black" stroke="black" points="283.91,-308.05 282.51,-297.55 277.05,-306.64 283.91,-308.05"/>
</g>
<!-- BoundedN_BoundedN_of_Z&#45;&gt;BoundedN_BoundedN_of_N -->
<g id="edge47" class="edge">
<title>BoundedN_BoundedN_of_Z&#45;&gt;BoundedN_BoundedN_of_N</title>
<path fill="none" stroke="black" d="M305.72,-265.84C312.11,-261.81 319.29,-257.44 326,-253.67 375.96,-225.58 435.76,-196.36 472.04,-179.11"/>
<polygon fill="black" stroke="black" points="473.64,-182.22 481.18,-174.78 470.64,-175.9 473.64,-182.22"/>
</g>
<!-- BoundedN_BoundedN_to_Z&#45;&gt;BoundedN_BoundedN_to_N -->
<g id="edge48" class="edge">
<title>BoundedN_BoundedN_to_Z&#45;&gt;BoundedN_BoundedN_to_N</title>
<path fill="none" stroke="black" d="M893.69,-261.7C897.75,-243.01 904.34,-212.71 909.12,-190.74"/>
<polygon fill="black" stroke="black" points="912.59,-191.22 911.3,-180.71 905.75,-189.74 912.59,-191.22"/>
</g>
<!-- BoundedN_BoundedN_of_nat&#45;&gt;BoundedN_BoundedN_of_N -->
<g id="edge49" class="edge">
<title>BoundedN_BoundedN_of_nat&#45;&gt;BoundedN_BoundedN_of_N</title>
<path fill="none" stroke="black" d="M222.09,-265.25C229.63,-261.28 238.06,-257.09 246,-253.67 323.04,-220.43 416.76,-190.3 467.68,-174.75"/>
<polygon fill="black" stroke="black" points="468.73,-178.09 477.28,-171.84 466.69,-171.4 468.73,-178.09"/>
</g>
<!-- BoundedN_BoundedN_to_nat&#45;&gt;BoundedN_BoundedN_to_N -->
<g id="edge50" class="edge">
<title>BoundedN_BoundedN_to_nat&#45;&gt;BoundedN_BoundedN_to_N</title>
<path fill="none" stroke="black" d="M536.94,-265.11C544.76,-261.05 553.6,-256.84 562,-253.67 671.81,-212.25 807.91,-183.59 874.48,-170.95"/>
<polygon fill="black" stroke="black" points="875.37,-174.34 884.56,-169.06 874.08,-167.46 875.37,-174.34"/>
</g>
<!-- BoundedN_BoundedN_of_N_compare -->
<g id="node31" class="node">
<title>BoundedN_BoundedN_of_N_compare</title>
<g id="a_node31"><a xlink:href="BoundedN.html#BoundedN.of_N_compare" xlink:title="of_N_compare">
<ellipse fill="#f070d1" stroke="black" cx="505" cy="-55.67" rx="76.09" ry="18"/>
<text text-anchor="middle" x="505" y="-51.97" font-family="Times,serif" font-size="14.00">of_N_compare</text>
</a>
</g>
</g>
<!-- BoundedN_BoundedN_of_N&#45;&gt;BoundedN_BoundedN_of_N_compare -->
<g id="edge51" class="edge">
<title>BoundedN_BoundedN_of_N&#45;&gt;BoundedN_BoundedN_of_N_compare</title>
<path fill="none" stroke="black" d="M505,-144.33C505,-127.89 505,-102.95 505,-83.86"/>
<polygon fill="black" stroke="black" points="508.5,-83.68 505,-73.68 501.5,-83.68 508.5,-83.68"/>
</g>
<!-- BoundedN_BoundedN_of_N&#45;&gt;BoundedN_bounded -->
<g id="edge52" class="edge">
<title>BoundedN_BoundedN_of_N&#45;&gt;BoundedN_bounded</title>
<path fill="none" stroke="black" d="M536.27,-158.88C647.64,-148.85 1035.24,-113.13 1354,-73.67 1374.38,-71.15 1396.68,-68.03 1416.36,-65.15"/>
<polygon fill="black" stroke="black" points="1417,-68.59 1426.39,-63.67 1415.98,-61.67 1417,-68.59"/>
</g>
<!-- BoundedN_BoundedN -->
<g id="node39" class="node">
<title>BoundedN_BoundedN</title>
<g id="a_node39"><a xlink:href="BoundedN.html#BoundedN" xlink:title="BoundedN">
<ellipse fill="#e2cdfa" stroke="black" cx="1285" cy="-55.67" rx="59.59" ry="18"/>
<text text-anchor="middle" x="1285" y="-51.97" font-family="Times,serif" font-size="14.00">BoundedN</text>
</a>
</g>
</g>
<!-- BoundedN_BoundedN_of_N&#45;&gt;BoundedN_BoundedN -->
<g id="edge53" class="edge">
<title>BoundedN_BoundedN_of_N&#45;&gt;BoundedN_BoundedN</title>
<path fill="none" stroke="black" d="M536.19,-158.46C634.03,-148.23 943.56,-114.64 1198,-73.67 1207.47,-72.14 1217.49,-70.35 1227.23,-68.52"/>
<polygon fill="black" stroke="black" points="1228.08,-71.92 1237.24,-66.6 1226.76,-65.04 1228.08,-71.92"/>
</g>
<!-- BoundedN_BoundedN_eqb&#45;&gt;BoundedN_BoundedN_to_N -->
<g id="edge54" class="edge">
<title>BoundedN_BoundedN_eqb&#45;&gt;BoundedN_BoundedN_to_N</title>
<path fill="none" stroke="black" d="M1095.61,-268.03C1063.59,-251.89 1001.53,-219.78 951,-188.67 948.21,-186.95 945.35,-185.11 942.51,-183.23"/>
<polygon fill="black" stroke="black" points="944.41,-180.29 934.17,-177.56 940.47,-186.08 944.41,-180.29"/>
</g>
<!-- BoundedN_BoundedN_to_N&#45;&gt;BoundedN_BoundedN -->
<g id="edge55" class="edge">
<title>BoundedN_BoundedN_to_N&#45;&gt;BoundedN_BoundedN</title>
<path fill="none" stroke="black" d="M932.9,-147.3C938.44,-143.39 944.75,-139.47 951,-136.67 999.78,-114.82 1144.03,-84.34 1226.12,-68.03"/>
<polygon fill="black" stroke="black" points="1226.93,-71.44 1236.06,-66.07 1225.57,-64.57 1226.93,-71.44"/>
</g>
<!-- BoundedN_BoundedN_sind -->
<g id="node34" class="node">
<title>BoundedN_BoundedN_sind</title>
<g id="a_node34"><a xlink:href="BoundedN.html#BoundedN_sind" xlink:title="BoundedN_sind">
<ellipse fill="#f070d1" stroke="black" cx="1668" cy="-162.67" rx="83.37" ry="18"/>
<ellipse fill="none" stroke="black" cx="1668" cy="-162.67" rx="87.38" ry="22"/>
<ellipse fill="none" stroke="black" cx="1668" cy="-162.67" rx="91.39" ry="26"/>
<text text-anchor="middle" x="1668" y="-158.97" font-family="Times,serif" font-size="14.00">BoundedN_sind</text>
</a>
</g>
</g>
<!-- BoundedN_BoundedN_sind&#45;&gt;BoundedN_bounded -->
<g id="edge56" class="edge">
<title>BoundedN_BoundedN_sind&#45;&gt;BoundedN_bounded</title>
<path fill="none" stroke="black" d="M1626.43,-139.4C1591.2,-120.53 1541.21,-93.75 1507.75,-75.82"/>
<polygon fill="black" stroke="black" points="1509.24,-72.65 1498.77,-71.01 1505.93,-78.82 1509.24,-72.65"/>
</g>
<!-- BoundedN_BoundedN_sind&#45;&gt;BoundedN_BoundedN -->
<g id="edge57" class="edge">
<title>BoundedN_BoundedN_sind&#45;&gt;BoundedN_BoundedN</title>
<path fill="none" stroke="black" d="M1603.89,-144.09C1529.1,-123.59 1406.86,-90.08 1337.46,-71.05"/>
<polygon fill="black" stroke="black" points="1338.19,-67.62 1327.62,-68.35 1336.33,-74.37 1338.19,-67.62"/>
</g>
<!-- BoundedN_BoundedN_rec -->
<g id="node35" class="node">
<title>BoundedN_BoundedN_rec</title>
<g id="a_node35"><a xlink:href="BoundedN.html#BoundedN_rec" xlink:title="BoundedN_rec">
<ellipse fill="#f070d1" stroke="black" cx="1289" cy="-279.67" rx="78.77" ry="18"/>
<ellipse fill="none" stroke="black" cx="1289" cy="-279.67" rx="82.78" ry="22"/>
<ellipse fill="none" stroke="black" cx="1289" cy="-279.67" rx="86.79" ry="26"/>
<text text-anchor="middle" x="1289" y="-275.97" font-family="Times,serif" font-size="14.00">BoundedN_rec</text>
</a>
</g>
</g>
<!-- BoundedN_BoundedN_rect -->
<g id="node37" class="node">
<title>BoundedN_BoundedN_rect</title>
<g id="a_node37"><a xlink:href="BoundedN.html#BoundedN_rect" xlink:title="BoundedN_rect">
<ellipse fill="#f070d1" stroke="black" cx="1285" cy="-162.67" rx="82.59" ry="18"/>
<text text-anchor="middle" x="1285" y="-158.97" font-family="Times,serif" font-size="14.00">BoundedN_rect</text>
</a>
</g>
</g>
<!-- BoundedN_BoundedN_rec&#45;&gt;BoundedN_BoundedN_rect -->
<g id="edge58" class="edge">
<title>BoundedN_BoundedN_rec&#45;&gt;BoundedN_BoundedN_rect</title>
<path fill="none" stroke="black" d="M1288.12,-253.43C1287.48,-235 1286.61,-210.02 1285.95,-191.09"/>
<polygon fill="black" stroke="black" points="1289.45,-190.88 1285.6,-181.01 1282.45,-191.13 1289.45,-190.88"/>
</g>
<!-- BoundedN_BoundedN_ind -->
<g id="node36" class="node">
<title>BoundedN_BoundedN_ind</title>
<g id="a_node36"><a xlink:href="BoundedN.html#BoundedN_ind" xlink:title="BoundedN_ind">
<ellipse fill="#7fffd4" stroke="black" cx="1472" cy="-162.67" rx="78.77" ry="18"/>
<ellipse fill="none" stroke="black" cx="1472" cy="-162.67" rx="82.78" ry="22"/>
<ellipse fill="none" stroke="black" cx="1472" cy="-162.67" rx="86.79" ry="26"/>
<text text-anchor="middle" x="1472" y="-158.97" font-family="Times,serif" font-size="14.00">BoundedN_ind</text>
</a>
</g>
</g>
<!-- BoundedN_BoundedN_ind&#45;&gt;BoundedN_bounded -->
<g id="edge59" class="edge">
<title>BoundedN_BoundedN_ind&#45;&gt;BoundedN_bounded</title>
<path fill="none" stroke="black" d="M1472,-136.52C1472,-120.74 1472,-100.4 1472,-84.19"/>
<polygon fill="black" stroke="black" points="1475.5,-83.74 1472,-73.74 1468.5,-83.74 1475.5,-83.74"/>
</g>
<!-- BoundedN_BoundedN_ind&#45;&gt;BoundedN_BoundedN -->
<g id="edge60" class="edge">
<title>BoundedN_BoundedN_ind&#45;&gt;BoundedN_BoundedN</title>
<path fill="none" stroke="black" d="M1432.34,-139.4C1399.36,-120.88 1352.82,-94.75 1320.92,-76.84"/>
<polygon fill="black" stroke="black" points="1322.36,-73.63 1311.93,-71.79 1318.94,-79.74 1322.36,-73.63"/>
</g>
<!-- BoundedN_BoundedN_rect&#45;&gt;BoundedN_bounded -->
<g id="edge61" class="edge">
<title>BoundedN_BoundedN_rect&#45;&gt;BoundedN_bounded</title>
<path fill="none" stroke="black" d="M1313.4,-145.72C1346.51,-127.13 1401.24,-96.4 1436.96,-76.34"/>
<polygon fill="black" stroke="black" points="1439.04,-79.19 1446.05,-71.24 1435.62,-73.08 1439.04,-79.19"/>
</g>
<!-- BoundedN_BoundedN_rect&#45;&gt;BoundedN_BoundedN -->
<g id="edge62" class="edge">
<title>BoundedN_BoundedN_rect&#45;&gt;BoundedN_BoundedN</title>
<path fill="none" stroke="black" d="M1285,-144.33C1285,-127.89 1285,-102.95 1285,-83.86"/>
<polygon fill="black" stroke="black" points="1288.5,-83.68 1285,-73.68 1281.5,-83.68 1288.5,-83.68"/>
</g>
</g>
</svg>
