<?xml version="1.0" encoding="UTF-8" standalone="no"?>
<!DOCTYPE svg PUBLIC "-//W3C//DTD SVG 1.1//EN"
 "http://www.w3.org/Graphics/SVG/1.1/DTD/svg11.dtd">
<!-- Generated by graphviz version 2.43.0 (0)
 -->
<!-- Title: Prelude Pages: 1 -->
<svg width="2365pt" height="1187pt"
 viewBox="0.00 0.00 2365.00 1186.50" xmlns="http://www.w3.org/2000/svg" xmlns:xlink="http://www.w3.org/1999/xlink">
<g id="graph0" class="graph" transform="scale(1 1) rotate(0) translate(4 1182.5)">
<title>Prelude</title>
<polygon fill="white" stroke="transparent" points="-4,4 -4,-1182.5 2361,-1182.5 2361,4 -4,4"/>
<g id="clust1" class="cluster">
<title>cluster_Prelude</title>
<polygon fill="#ffffc3" stroke="black" points="8,-30.81 8,-1147.69 2349,-1147.69 2349,-30.81 8,-30.81"/>
<text text-anchor="middle" x="44" y="-1132.49" font-family="Times,serif" font-size="14.00">Prelude</text>
</g>
<g id="clust2" class="cluster">
<title>cluster_Prelude_Maps</title>
<polygon fill="#ffffa3" stroke="black" points="805,-61.62 805,-1028.3 2341,-1028.3 2341,-61.62 805,-61.62"/>
<text text-anchor="middle" x="833" y="-1013.1" font-family="Times,serif" font-size="14.00">Maps</text>
</g>
<!-- Prelude_Maps_map_forallb_lookup_map -->
<g id="node1" class="node">
<title>Prelude_Maps_map_forallb_lookup_map</title>
<g id="a_node1"><a xlink:href="Prelude.html#Maps.map_forallb_lookup_map" xlink:title="map_forallb_lookup_map">
<ellipse fill="#7fffd4" stroke="black" cx="2039" cy="-808.81" rx="124.59" ry="18"/>
<ellipse fill="none" stroke="black" cx="2039" cy="-808.81" rx="128.58" ry="22"/>
<ellipse fill="none" stroke="black" cx="2039" cy="-808.81" rx="132.58" ry="26"/>
<text text-anchor="middle" x="2039" y="-805.11" font-family="Times,serif" font-size="14.00">map_forallb_lookup_map</text>
</a>
</g>
</g>
<!-- Prelude_Maps_map_forallb -->
<g id="node2" class="node">
<title>Prelude_Maps_map_forallb</title>
<g id="a_node2"><a xlink:href="Prelude.html#Maps.map_forallb" xlink:title="map_forallb">
<ellipse fill="#f070d1" stroke="black" cx="2188" cy="-469.81" rx="65.79" ry="18"/>
<text text-anchor="middle" x="2188" y="-466.11" font-family="Times,serif" font-size="14.00">map_forallb</text>
</a>
</g>
</g>
<!-- Prelude_Maps_map_forallb_lookup_map&#45;&gt;Prelude_Maps_map_forallb -->
<g id="edge1" class="edge">
<title>Prelude_Maps_map_forallb_lookup_map&#45;&gt;Prelude_Maps_map_forallb</title>
<path fill="none" stroke="black" d="M2050.08,-782.76C2077.48,-720.78 2148.23,-560.75 2176.29,-497.3"/>
<polygon fill="black" stroke="black" points="2179.57,-498.53 2180.41,-487.97 2173.17,-495.7 2179.57,-498.53"/>
</g>
<!-- Prelude_Maps_lookup_map -->
<g id="node10" class="node">
<title>Prelude_Maps_lookup_map</title>
<g id="a_node10"><a xlink:href="Prelude.html#Maps.lookup_map" xlink:title="lookup_map">
<ellipse fill="#f070d1" stroke="black" cx="2039" cy="-469.81" rx="65.79" ry="18"/>
<text text-anchor="middle" x="2039" y="-466.11" font-family="Times,serif" font-size="14.00">lookup_map</text>
</a>
</g>
</g>
<!-- Prelude_Maps_map_forallb_lookup_map&#45;&gt;Prelude_Maps_lookup_map -->
<g id="edge2" class="edge">
<title>Prelude_Maps_map_forallb_lookup_map&#45;&gt;Prelude_Maps_lookup_map</title>
<path fill="none" stroke="black" d="M2039,-782.76C2039,-721.04 2039,-562.07 2039,-498.09"/>
<polygon fill="black" stroke="black" points="2042.5,-497.97 2039,-487.97 2035.5,-497.97 2042.5,-497.97"/>
</g>
<!-- Prelude_Maps_addr_map_coq_ind -->
<g id="node14" class="node">
<title>Prelude_Maps_addr_map_coq_ind</title>
<g id="a_node14"><a xlink:href="Prelude.html#Maps.addr_map_coq_ind" xlink:title="addr_map_coq_ind">
<ellipse fill="#7fffd4" stroke="black" cx="1859" cy="-469.81" rx="96.38" ry="18"/>
<text text-anchor="middle" x="1859" y="-466.11" font-family="Times,serif" font-size="14.00">addr_map_coq_ind</text>
</a>
</g>
</g>
<!-- Prelude_Maps_map_forallb_lookup_map&#45;&gt;Prelude_Maps_addr_map_coq_ind -->
<g id="edge3" class="edge">
<title>Prelude_Maps_map_forallb_lookup_map&#45;&gt;Prelude_Maps_addr_map_coq_ind</title>
<path fill="none" stroke="black" d="M2025.62,-782.76C1992.45,-720.66 1906.69,-560.09 1872.94,-496.91"/>
<polygon fill="black" stroke="black" points="1875.97,-495.14 1868.17,-487.97 1869.79,-498.44 1875.97,-495.14"/>
</g>
<!-- Prelude_Maps_addr_map_coq -->
<g id="node18" class="node">
<title>Prelude_Maps_addr_map_coq</title>
<g id="a_node18"><a xlink:href="Prelude.html#Maps.addr_map_coq" xlink:title="addr_map_coq">
<ellipse fill="#e2cdfa" stroke="black" cx="1676" cy="-161.81" rx="77.19" ry="18"/>
<text text-anchor="middle" x="1676" y="-158.11" font-family="Times,serif" font-size="14.00">addr_map_coq</text>
</a>
</g>
</g>
<!-- Prelude_Maps_map_forallb&#45;&gt;Prelude_Maps_addr_map_coq -->
<g id="edge4" class="edge">
<title>Prelude_Maps_map_forallb&#45;&gt;Prelude_Maps_addr_map_coq</title>
<path fill="none" stroke="black" d="M2161.91,-453.22C2077.02,-402.48 1808.62,-242.07 1711.51,-184.03"/>
<polygon fill="black" stroke="black" points="1713.03,-180.87 1702.66,-178.74 1709.44,-186.88 1713.03,-180.87"/>
</g>
<!-- Prelude_Maps_to_list_of_list -->
<g id="node3" class="node">
<title>Prelude_Maps_to_list_of_list</title>
<g id="a_node3"><a xlink:href="Prelude.html#Maps.to_list_of_list" xlink:title="to_list_of_list">
<ellipse fill="#7fffd4" stroke="black" cx="1423" cy="-808.81" rx="71.49" ry="18"/>
<ellipse fill="none" stroke="black" cx="1423" cy="-808.81" rx="75.49" ry="22"/>
<ellipse fill="none" stroke="black" cx="1423" cy="-808.81" rx="79.49" ry="26"/>
<text text-anchor="middle" x="1423" y="-805.11" font-family="Times,serif" font-size="14.00">to_list_of_list</text>
</a>
</g>
</g>
<!-- Prelude_Maps_of_list -->
<g id="node5" class="node">
<title>Prelude_Maps_of_list</title>
<g id="a_node5"><a xlink:href="Prelude.html#Maps.of_list" xlink:title="of_list">
<ellipse fill="#f070d1" stroke="black" cx="1489" cy="-469.81" rx="38.19" ry="18"/>
<text text-anchor="middle" x="1489" y="-466.11" font-family="Times,serif" font-size="14.00">of_list</text>
</a>
</g>
</g>
<!-- Prelude_Maps_to_list_of_list&#45;&gt;Prelude_Maps_of_list -->
<g id="edge5" class="edge">
<title>Prelude_Maps_to_list_of_list&#45;&gt;Prelude_Maps_of_list</title>
<path fill="none" stroke="black" d="M1427.91,-782.76C1439.99,-721.04 1471.13,-562.07 1483.66,-498.09"/>
<polygon fill="black" stroke="black" points="1487.15,-498.46 1485.64,-487.97 1480.28,-497.11 1487.15,-498.46"/>
</g>
<!-- Prelude_Maps_to_list -->
<g id="node6" class="node">
<title>Prelude_Maps_to_list</title>
<g id="a_node6"><a xlink:href="Prelude.html#Maps.to_list" xlink:title="to_list">
<ellipse fill="#f070d1" stroke="black" cx="1584" cy="-469.81" rx="38.99" ry="18"/>
<text text-anchor="middle" x="1584" y="-466.11" font-family="Times,serif" font-size="14.00">to_list</text>
</a>
</g>
</g>
<!-- Prelude_Maps_to_list_of_list&#45;&gt;Prelude_Maps_to_list -->
<g id="edge6" class="edge">
<title>Prelude_Maps_to_list_of_list&#45;&gt;Prelude_Maps_to_list</title>
<path fill="none" stroke="black" d="M1434.84,-783.03C1464.41,-721.13 1541.3,-560.19 1571.53,-496.91"/>
<polygon fill="black" stroke="black" points="1574.81,-498.16 1575.97,-487.62 1568.5,-495.14 1574.81,-498.16"/>
</g>
<!-- Prelude_Maps_of_list_to_list -->
<g id="node4" class="node">
<title>Prelude_Maps_of_list_to_list</title>
<g id="a_node4"><a xlink:href="Prelude.html#Maps.of_list_to_list" xlink:title="of_list_to_list">
<ellipse fill="#7fffd4" stroke="black" cx="1600" cy="-808.81" rx="71.49" ry="18"/>
<ellipse fill="none" stroke="black" cx="1600" cy="-808.81" rx="75.49" ry="22"/>
<ellipse fill="none" stroke="black" cx="1600" cy="-808.81" rx="79.49" ry="26"/>
<text text-anchor="middle" x="1600" y="-805.11" font-family="Times,serif" font-size="14.00">of_list_to_list</text>
</a>
</g>
</g>
<!-- Prelude_Maps_of_list_to_list&#45;&gt;Prelude_Maps_of_list -->
<g id="edge7" class="edge">
<title>Prelude_Maps_of_list_to_list&#45;&gt;Prelude_Maps_of_list</title>
<path fill="none" stroke="black" d="M1591.75,-782.76C1571.38,-720.91 1518.84,-561.41 1497.85,-497.69"/>
<polygon fill="black" stroke="black" points="1501.11,-496.38 1494.65,-487.97 1494.46,-498.57 1501.11,-496.38"/>
</g>
<!-- Prelude_Maps_of_list_to_list&#45;&gt;Prelude_Maps_to_list -->
<g id="edge8" class="edge">
<title>Prelude_Maps_of_list_to_list&#45;&gt;Prelude_Maps_to_list</title>
<path fill="none" stroke="black" d="M1598.81,-782.76C1595.88,-721.04 1588.33,-562.07 1585.29,-498.09"/>
<polygon fill="black" stroke="black" points="1588.79,-497.8 1584.81,-487.97 1581.79,-498.13 1588.79,-497.8"/>
</g>
<!-- Prelude_Maps_of_list_to_list&#45;&gt;Prelude_Maps_addr_map_coq_ind -->
<g id="edge9" class="edge">
<title>Prelude_Maps_of_list_to_list&#45;&gt;Prelude_Maps_addr_map_coq_ind</title>
<path fill="none" stroke="black" d="M1618.84,-783.3C1666.53,-721.24 1791.69,-558.39 1839.79,-495.81"/>
<polygon fill="black" stroke="black" points="1842.73,-497.72 1846.05,-487.66 1837.18,-493.46 1842.73,-497.72"/>
</g>
<!-- Prelude_Maps_mcons -->
<g id="node16" class="node">
<title>Prelude_Maps_mcons</title>
<g id="a_node16"><a xlink:href="Prelude.html#Maps.mcons" xlink:title="mcons">
<ellipse fill="#7faaff" stroke="black" cx="1506" cy="-161.81" rx="40.09" ry="18"/>
<text text-anchor="middle" x="1506" y="-158.11" font-family="Times,serif" font-size="14.00">mcons</text>
</a>
</g>
</g>
<!-- Prelude_Maps_of_list&#45;&gt;Prelude_Maps_mcons -->
<g id="edge10" class="edge">
<title>Prelude_Maps_of_list&#45;&gt;Prelude_Maps_mcons</title>
<path fill="none" stroke="black" d="M1489.96,-451.48C1492.79,-400.67 1501.06,-251.78 1504.49,-190.08"/>
<polygon fill="black" stroke="black" points="1507.99,-190.13 1505.05,-179.95 1501,-189.74 1507.99,-190.13"/>
</g>
<!-- Prelude_Maps_mnil -->
<g id="node17" class="node">
<title>Prelude_Maps_mnil</title>
<g id="a_node17"><a xlink:href="Prelude.html#Maps.mnil" xlink:title="mnil">
<ellipse fill="#7faaff" stroke="black" cx="1417" cy="-161.81" rx="31.4" ry="18"/>
<text text-anchor="middle" x="1417" y="-158.11" font-family="Times,serif" font-size="14.00">mnil</text>
</a>
</g>
</g>
<!-- Prelude_Maps_of_list&#45;&gt;Prelude_Maps_mnil -->
<g id="edge11" class="edge">
<title>Prelude_Maps_of_list&#45;&gt;Prelude_Maps_mnil</title>
<path fill="none" stroke="black" d="M1484.92,-451.48C1472.94,-400.57 1437.79,-251.16 1423.33,-189.7"/>
<polygon fill="black" stroke="black" points="1426.73,-188.88 1421.03,-179.95 1419.92,-190.48 1426.73,-188.88"/>
</g>
<!-- Prelude_Maps_of_list&#45;&gt;Prelude_Maps_addr_map_coq -->
<g id="edge12" class="edge">
<title>Prelude_Maps_of_list&#45;&gt;Prelude_Maps_addr_map_coq</title>
<path fill="none" stroke="black" d="M1499.05,-452.36C1529.87,-401.94 1623.14,-249.31 1660.39,-188.35"/>
<polygon fill="black" stroke="black" points="1663.44,-190.08 1665.67,-179.72 1657.47,-186.43 1663.44,-190.08"/>
</g>
<!-- Prelude_Maps_to_list&#45;&gt;Prelude_Maps_addr_map_coq -->
<g id="edge13" class="edge">
<title>Prelude_Maps_to_list&#45;&gt;Prelude_Maps_addr_map_coq</title>
<path fill="none" stroke="black" d="M1589.08,-451.92C1604.25,-401.47 1649.33,-251.53 1667.88,-189.81"/>
<polygon fill="black" stroke="black" points="1671.3,-190.61 1670.82,-180.02 1664.59,-188.59 1671.3,-190.61"/>
</g>
<!-- Prelude_Maps_lookup_map_add -->
<g id="node7" class="node">
<title>Prelude_Maps_lookup_map_add</title>
<g id="a_node7"><a xlink:href="Prelude.html#Maps.lookup_map_add" xlink:title="lookup_map_add">
<ellipse fill="#7fffd4" stroke="black" cx="1793" cy="-808.81" rx="87.18" ry="18"/>
<ellipse fill="none" stroke="black" cx="1793" cy="-808.81" rx="91.18" ry="22"/>
<ellipse fill="none" stroke="black" cx="1793" cy="-808.81" rx="95.18" ry="26"/>
<text text-anchor="middle" x="1793" y="-805.11" font-family="Times,serif" font-size="14.00">lookup_map_add</text>
</a>
</g>
</g>
<!-- Prelude_Maps_add_map -->
<g id="node9" class="node">
<title>Prelude_Maps_add_map</title>
<g id="a_node9"><a xlink:href="Prelude.html#Maps.add_map" xlink:title="add_map">
<ellipse fill="#f070d1" stroke="black" cx="1693" cy="-469.81" rx="51.99" ry="18"/>
<text text-anchor="middle" x="1693" y="-466.11" font-family="Times,serif" font-size="14.00">add_map</text>
</a>
</g>
</g>
<!-- Prelude_Maps_lookup_map_add&#45;&gt;Prelude_Maps_add_map -->
<g id="edge14" class="edge">
<title>Prelude_Maps_lookup_map_add&#45;&gt;Prelude_Maps_add_map</title>
<path fill="none" stroke="black" d="M1785.57,-782.76C1767.21,-720.91 1719.88,-561.41 1700.98,-497.69"/>
<polygon fill="black" stroke="black" points="1704.29,-496.56 1698.09,-487.97 1697.58,-498.56 1704.29,-496.56"/>
</g>
<!-- Prelude_Maps_lookup_map_add&#45;&gt;Prelude_Maps_lookup_map -->
<g id="edge15" class="edge">
<title>Prelude_Maps_lookup_map_add&#45;&gt;Prelude_Maps_lookup_map</title>
<path fill="none" stroke="black" d="M1811.09,-783.03C1856.55,-720.75 1975.21,-558.2 2020.79,-495.75"/>
<polygon fill="black" stroke="black" points="2023.66,-497.76 2026.73,-487.62 2018,-493.64 2023.66,-497.76"/>
</g>
<!-- Prelude_Maps_lookup_map_add&#45;&gt;Prelude_Maps_addr_map_coq_ind -->
<g id="edge16" class="edge">
<title>Prelude_Maps_lookup_map_add&#45;&gt;Prelude_Maps_addr_map_coq_ind</title>
<path fill="none" stroke="black" d="M1797.91,-782.76C1809.99,-721.04 1841.13,-562.07 1853.66,-498.09"/>
<polygon fill="black" stroke="black" points="1857.15,-498.46 1855.64,-487.97 1850.28,-497.11 1857.15,-498.46"/>
</g>
<!-- Prelude_Maps_inmap_map -->
<g id="node8" class="node">
<title>Prelude_Maps_inmap_map</title>
<g id="a_node8"><a xlink:href="Prelude.html#Maps.inmap_map" xlink:title="inmap_map">
<ellipse fill="#f070d1" stroke="black" cx="2261" cy="-808.81" rx="63.87" ry="18"/>
<ellipse fill="none" stroke="black" cx="2261" cy="-808.81" rx="67.88" ry="22"/>
<ellipse fill="none" stroke="black" cx="2261" cy="-808.81" rx="71.89" ry="26"/>
<text text-anchor="middle" x="2261" y="-805.11" font-family="Times,serif" font-size="14.00">inmap_map</text>
</a>
</g>
</g>
<!-- Prelude_Maps_inmap_map&#45;&gt;Prelude_Maps_lookup_map -->
<g id="edge17" class="edge">
<title>Prelude_Maps_inmap_map&#45;&gt;Prelude_Maps_lookup_map</title>
<path fill="none" stroke="black" d="M2244.86,-783.3C2204.06,-721.37 2097.13,-559.06 2055.72,-496.19"/>
<polygon fill="black" stroke="black" points="2058.52,-494.09 2050.1,-487.66 2052.68,-497.94 2058.52,-494.09"/>
</g>
<!-- Prelude_Maps_add_map&#45;&gt;Prelude_Maps_mcons -->
<g id="edge18" class="edge">
<title>Prelude_Maps_add_map&#45;&gt;Prelude_Maps_mcons</title>
<path fill="none" stroke="black" d="M1682.68,-451.92C1651.51,-400.92 1558.21,-248.24 1521.28,-187.82"/>
<polygon fill="black" stroke="black" points="1524.26,-185.98 1516.06,-179.27 1518.29,-189.63 1524.26,-185.98"/>
</g>
<!-- Prelude_Maps_add_map&#45;&gt;Prelude_Maps_mnil -->
<g id="edge19" class="edge">
<title>Prelude_Maps_add_map&#45;&gt;Prelude_Maps_mnil</title>
<path fill="none" stroke="black" d="M1678.16,-452.36C1632.07,-401.26 1491.28,-245.17 1437.86,-185.93"/>
<polygon fill="black" stroke="black" points="1440.21,-183.32 1430.92,-178.24 1435.02,-188.01 1440.21,-183.32"/>
</g>
<!-- Prelude_Maps_add_map&#45;&gt;Prelude_Maps_addr_map_coq -->
<g id="edge20" class="edge">
<title>Prelude_Maps_add_map&#45;&gt;Prelude_Maps_addr_map_coq</title>
<path fill="none" stroke="black" d="M1692.04,-451.48C1689.21,-400.67 1680.94,-251.78 1677.51,-190.08"/>
<polygon fill="black" stroke="black" points="1681,-189.74 1676.95,-179.95 1674.01,-190.13 1681,-189.74"/>
</g>
<!-- Prelude_Maps_lookup_map&#45;&gt;Prelude_Maps_addr_map_coq -->
<g id="edge21" class="edge">
<title>Prelude_Maps_lookup_map&#45;&gt;Prelude_Maps_addr_map_coq</title>
<path fill="none" stroke="black" d="M2019.74,-452.57C1959.46,-401.76 1774.22,-245.61 1703.67,-186.14"/>
<polygon fill="black" stroke="black" points="1705.56,-183.15 1695.66,-179.38 1701.05,-188.5 1705.56,-183.15"/>
</g>
<!-- Prelude_Maps_Map -->
<g id="node11" class="node">
<title>Prelude_Maps_Map</title>
<g id="a_node11"><a xlink:href="Prelude.html#Maps.Map" xlink:title="Map">
<ellipse fill="#f070d1" stroke="black" cx="1286" cy="-808.81" rx="31.36" ry="18"/>
<ellipse fill="none" stroke="black" cx="1286" cy="-808.81" rx="35.38" ry="22"/>
<ellipse fill="none" stroke="black" cx="1286" cy="-808.81" rx="39.4" ry="26"/>
<text text-anchor="middle" x="1286" y="-805.11" font-family="Times,serif" font-size="14.00">Map</text>
</a>
</g>
</g>
<!-- Prelude_Maps_addr_map_coq_sind -->
<g id="node12" class="node">
<title>Prelude_Maps_addr_map_coq_sind</title>
<g id="a_node12"><a xlink:href="Prelude.html#Maps.addr_map_coq_sind" xlink:title="addr_map_coq_sind">
<ellipse fill="#f070d1" stroke="black" cx="1324" cy="-469.81" rx="100.96" ry="18"/>
<ellipse fill="none" stroke="black" cx="1324" cy="-469.81" rx="104.97" ry="22"/>
<ellipse fill="none" stroke="black" cx="1324" cy="-469.81" rx="108.98" ry="26"/>
<text text-anchor="middle" x="1324" y="-466.11" font-family="Times,serif" font-size="14.00">addr_map_coq_sind</text>
</a>
</g>
</g>
<!-- Prelude_Maps_addr_map_coq_sind&#45;&gt;Prelude_Maps_mcons -->
<g id="edge22" class="edge">
<title>Prelude_Maps_addr_map_coq_sind&#45;&gt;Prelude_Maps_mcons</title>
<path fill="none" stroke="black" d="M1338.74,-444.03C1372.73,-386.88 1456.32,-246.34 1490.77,-188.41"/>
<polygon fill="black" stroke="black" points="1493.95,-189.91 1496.06,-179.53 1487.94,-186.34 1493.95,-189.91"/>
</g>
<!-- Prelude_Maps_addr_map_coq_sind&#45;&gt;Prelude_Maps_mnil -->
<g id="edge23" class="edge">
<title>Prelude_Maps_addr_map_coq_sind&#45;&gt;Prelude_Maps_mnil</title>
<path fill="none" stroke="black" d="M1331.61,-443.77C1348.92,-386.81 1391.12,-247.97 1408.89,-189.49"/>
<polygon fill="black" stroke="black" points="1412.26,-190.44 1411.82,-179.85 1405.56,-188.4 1412.26,-190.44"/>
</g>
<!-- Prelude_Maps_addr_map_coq_sind&#45;&gt;Prelude_Maps_addr_map_coq -->
<g id="edge24" class="edge">
<title>Prelude_Maps_addr_map_coq_sind&#45;&gt;Prelude_Maps_addr_map_coq</title>
<path fill="none" stroke="black" d="M1351.92,-444.54C1418.03,-387.07 1583.53,-243.2 1648.86,-186.4"/>
<polygon fill="black" stroke="black" points="1651.43,-188.81 1656.68,-179.61 1646.84,-183.53 1651.43,-188.81"/>
</g>
<!-- Prelude_Maps_addr_map_coq_rec -->
<g id="node13" class="node">
<title>Prelude_Maps_addr_map_coq_rec</title>
<g id="a_node13"><a xlink:href="Prelude.html#Maps.addr_map_coq_rec" xlink:title="addr_map_coq_rec">
<ellipse fill="#f070d1" stroke="black" cx="1125" cy="-808.81" rx="96.37" ry="18"/>
<ellipse fill="none" stroke="black" cx="1125" cy="-808.81" rx="100.38" ry="22"/>
<ellipse fill="none" stroke="black" cx="1125" cy="-808.81" rx="104.38" ry="26"/>
<text text-anchor="middle" x="1125" y="-805.11" font-family="Times,serif" font-size="14.00">addr_map_coq_rec</text>
</a>
</g>
</g>
<!-- Prelude_Maps_addr_map_coq_rect -->
<g id="node15" class="node">
<title>Prelude_Maps_addr_map_coq_rect</title>
<g id="a_node15"><a xlink:href="Prelude.html#Maps.addr_map_coq_rect" xlink:title="addr_map_coq_rect">
<ellipse fill="#f070d1" stroke="black" cx="1097" cy="-469.81" rx="100.18" ry="18"/>
<text text-anchor="middle" x="1097" y="-466.11" font-family="Times,serif" font-size="14.00">addr_map_coq_rect</text>
</a>
</g>
</g>
<!-- Prelude_Maps_addr_map_coq_rec&#45;&gt;Prelude_Maps_addr_map_coq_rect -->
<g id="edge25" class="edge">
<title>Prelude_Maps_addr_map_coq_rec&#45;&gt;Prelude_Maps_addr_map_coq_rect</title>
<path fill="none" stroke="black" d="M1122.92,-782.76C1117.79,-721.04 1104.58,-562.07 1099.27,-498.09"/>
<polygon fill="black" stroke="black" points="1102.74,-497.65 1098.43,-487.97 1095.77,-498.23 1102.74,-497.65"/>
</g>
<!-- Prelude_Maps_addr_map_coq_ind&#45;&gt;Prelude_Maps_mcons -->
<g id="edge26" class="edge">
<title>Prelude_Maps_addr_map_coq_ind&#45;&gt;Prelude_Maps_mcons</title>
<path fill="none" stroke="black" d="M1839.77,-452.14C1780.18,-400.49 1598.6,-243.08 1531.38,-184.81"/>
<polygon fill="black" stroke="black" points="1533.61,-182.11 1523.76,-178.21 1529.03,-187.4 1533.61,-182.11"/>
</g>
<!-- Prelude_Maps_addr_map_coq_ind&#45;&gt;Prelude_Maps_mnil -->
<g id="edge27" class="edge">
<title>Prelude_Maps_addr_map_coq_ind&#45;&gt;Prelude_Maps_mnil</title>
<path fill="none" stroke="black" d="M1835.24,-452.36C1759.78,-400.12 1525.86,-238.18 1444.91,-182.13"/>
<polygon fill="black" stroke="black" points="1446.46,-178.95 1436.25,-176.14 1442.48,-184.71 1446.46,-178.95"/>
</g>
<!-- Prelude_Maps_addr_map_coq_ind&#45;&gt;Prelude_Maps_addr_map_coq -->
<g id="edge28" class="edge">
<title>Prelude_Maps_addr_map_coq_ind&#45;&gt;Prelude_Maps_addr_map_coq</title>
<path fill="none" stroke="black" d="M1848.64,-451.48C1818,-400.25 1727.73,-249.31 1691.4,-188.56"/>
<polygon fill="black" stroke="black" points="1694.39,-186.73 1686.25,-179.95 1688.38,-190.33 1694.39,-186.73"/>
</g>
<!-- Prelude_Maps_addr_map_coq_rect&#45;&gt;Prelude_Maps_mcons -->
<g id="edge29" class="edge">
<title>Prelude_Maps_addr_map_coq_rect&#45;&gt;Prelude_Maps_mcons</title>
<path fill="none" stroke="black" d="M1119.28,-452.14C1188.62,-400.26 1400.55,-241.71 1477.61,-184.05"/>
<polygon fill="black" stroke="black" points="1479.99,-186.64 1485.9,-177.85 1475.8,-181.04 1479.99,-186.64"/>
</g>
<!-- Prelude_Maps_addr_map_coq_rect&#45;&gt;Prelude_Maps_mnil -->
<g id="edge30" class="edge">
<title>Prelude_Maps_addr_map_coq_rect&#45;&gt;Prelude_Maps_mnil</title>
<path fill="none" stroke="black" d="M1114.66,-451.92C1168.83,-400.12 1332.66,-243.46 1393.72,-185.07"/>
<polygon fill="black" stroke="black" points="1396.5,-187.26 1401.31,-177.82 1391.66,-182.2 1396.5,-187.26"/>
</g>
<!-- Prelude_Maps_addr_map_coq_rect&#45;&gt;Prelude_Maps_addr_map_coq -->
<g id="edge31" class="edge">
<title>Prelude_Maps_addr_map_coq_rect&#45;&gt;Prelude_Maps_addr_map_coq</title>
<path fill="none" stroke="black" d="M1127.72,-452.57C1225.52,-400.89 1529.49,-240.24 1637.46,-183.18"/>
<polygon fill="black" stroke="black" points="1639.19,-186.22 1646.4,-178.46 1635.92,-180.03 1639.19,-186.22"/>
</g>
<!-- Prelude_Maps_addr_map_acorn -->
<g id="node19" class="node">
<title>Prelude_Maps_addr_map_acorn</title>
<g id="a_node19"><a xlink:href="Prelude.html#Maps.addr_map_acorn" xlink:title="addr_map_acorn">
<ellipse fill="#f070d1" stroke="black" cx="908" cy="-808.81" rx="87.18" ry="18"/>
<ellipse fill="none" stroke="black" cx="908" cy="-808.81" rx="91.18" ry="22"/>
<ellipse fill="none" stroke="black" cx="908" cy="-808.81" rx="95.18" ry="26"/>
<text text-anchor="middle" x="908" y="-805.11" font-family="Times,serif" font-size="14.00">addr_map_acorn</text>
</a>
</g>
</g>
<!-- Prelude_Maps_addr_map -->
<g id="node20" class="node">
<title>Prelude_Maps_addr_map</title>
<g id="a_node20"><a xlink:href="Prelude.html#Maps.addr_map" xlink:title="addr_map">
<ellipse fill="#f070d1" stroke="black" cx="908" cy="-469.81" rx="56.59" ry="18"/>
<text text-anchor="middle" x="908" y="-466.11" font-family="Times,serif" font-size="14.00">addr_map</text>
</a>
</g>
</g>
<!-- Prelude_Maps_addr_map_acorn&#45;&gt;Prelude_Maps_addr_map -->
<g id="edge32" class="edge">
<title>Prelude_Maps_addr_map_acorn&#45;&gt;Prelude_Maps_addr_map</title>
<path fill="none" stroke="black" d="M908,-782.76C908,-721.04 908,-562.07 908,-498.09"/>
<polygon fill="black" stroke="black" points="911.5,-497.97 908,-487.97 904.5,-497.97 911.5,-497.97"/>
</g>
<!-- Prelude_AcornMaybe -->
<g id="node21" class="node">
<title>Prelude_AcornMaybe</title>
<g id="a_node21"><a xlink:href="Prelude.html#AcornMaybe" xlink:title="AcornMaybe">
<ellipse fill="#f070d1" stroke="black" cx="718" cy="-808.81" rx="68.8" ry="18"/>
<ellipse fill="none" stroke="black" cx="718" cy="-808.81" rx="72.79" ry="22"/>
<ellipse fill="none" stroke="black" cx="718" cy="-808.81" rx="76.79" ry="26"/>
<text text-anchor="middle" x="718" y="-805.11" font-family="Times,serif" font-size="14.00">AcornMaybe</text>
</a>
</g>
</g>
<!-- Prelude_Maybe -->
<g id="node22" class="node">
<title>Prelude_Maybe</title>
<g id="a_node22"><a xlink:href="Prelude.html#Maybe" xlink:title="Maybe">
<ellipse fill="#f070d1" stroke="black" cx="718" cy="-469.81" rx="42.49" ry="18"/>
<text text-anchor="middle" x="718" y="-466.11" font-family="Times,serif" font-size="14.00">Maybe</text>
</a>
</g>
</g>
<!-- Prelude_AcornMaybe&#45;&gt;Prelude_Maybe -->
<g id="edge33" class="edge">
<title>Prelude_AcornMaybe&#45;&gt;Prelude_Maybe</title>
<path fill="none" stroke="black" d="M718,-782.76C718,-721.04 718,-562.07 718,-498.09"/>
<polygon fill="black" stroke="black" points="721.5,-497.97 718,-487.97 714.5,-497.97 721.5,-497.97"/>
</g>
<!-- Prelude_List -->
<g id="node23" class="node">
<title>Prelude_List</title>
<g id="a_node23"><a xlink:href="Prelude.html#List" xlink:title="List">
<ellipse fill="#f070d1" stroke="black" cx="587" cy="-808.81" rx="28.67" ry="18"/>
<ellipse fill="none" stroke="black" cx="587" cy="-808.81" rx="32.68" ry="22"/>
<ellipse fill="none" stroke="black" cx="587" cy="-808.81" rx="36.7" ry="26"/>
<text text-anchor="middle" x="587" y="-805.11" font-family="Times,serif" font-size="14.00">List</text>
</a>
</g>
</g>
<!-- Prelude_Nothing -->
<g id="node24" class="node">
<title>Prelude_Nothing</title>
<g id="a_node24"><a xlink:href="Prelude.html#Nothing" xlink:title="Nothing">
<ellipse fill="#f070d1" stroke="black" cx="476" cy="-808.81" rx="48.18" ry="18"/>
<ellipse fill="none" stroke="black" cx="476" cy="-808.81" rx="52.18" ry="22"/>
<ellipse fill="none" stroke="black" cx="476" cy="-808.81" rx="56.19" ry="26"/>
<text text-anchor="middle" x="476" y="-805.11" font-family="Times,serif" font-size="14.00">Nothing</text>
</a>
</g>
</g>
<!-- Prelude_Just -->
<g id="node25" class="node">
<title>Prelude_Just</title>
<g id="a_node25"><a xlink:href="Prelude.html#Just" xlink:title="Just">
<ellipse fill="#f070d1" stroke="black" cx="365" cy="-808.81" rx="28.67" ry="18"/>
<ellipse fill="none" stroke="black" cx="365" cy="-808.81" rx="32.68" ry="22"/>
<ellipse fill="none" stroke="black" cx="365" cy="-808.81" rx="36.7" ry="26"/>
<text text-anchor="middle" x="365" y="-805.11" font-family="Times,serif" font-size="14.00">Just</text>
</a>
</g>
</g>
<!-- Prelude_false_name -->
<g id="node26" class="node">
<title>Prelude_false_name</title>
<g id="a_node26"><a xlink:href="Prelude.html#false_name" xlink:title="false_name">
<ellipse fill="#f070d1" stroke="black" cx="240" cy="-808.81" rx="62.3" ry="18"/>
<ellipse fill="none" stroke="black" cx="240" cy="-808.81" rx="66.3" ry="22"/>
<ellipse fill="none" stroke="black" cx="240" cy="-808.81" rx="70.29" ry="26"/>
<text text-anchor="middle" x="240" y="-805.11" font-family="Times,serif" font-size="14.00">false_name</text>
</a>
</g>
</g>
<!-- Prelude_true_name -->
<g id="node27" class="node">
<title>Prelude_true_name</title>
<g id="a_node27"><a xlink:href="Prelude.html#true_name" xlink:title="true_name">
<ellipse fill="#f070d1" stroke="black" cx="84" cy="-808.81" rx="59.61" ry="18"/>
<ellipse fill="none" stroke="black" cx="84" cy="-808.81" rx="63.6" ry="22"/>
<ellipse fill="none" stroke="black" cx="84" cy="-808.81" rx="67.59" ry="26"/>
<text text-anchor="middle" x="84" y="-805.11" font-family="Times,serif" font-size="14.00">true_name</text>
</a>
</g>
</g>
</g>
</svg>
