<?xml version="1.0" encoding="UTF-8" standalone="no"?>
<!DOCTYPE svg PUBLIC "-//W3C//DTD SVG 1.1//EN"
 "http://www.w3.org/Graphics/SVG/1.1/DTD/svg11.dtd">
<!-- Generated by graphviz version 2.43.0 (0)
 -->
<!-- Title: Counter Pages: 1 -->
<svg width="1468pt" height="738pt"
 viewBox="0.00 0.00 1468.00 738.00" xmlns="http://www.w3.org/2000/svg" xmlns:xlink="http://www.w3.org/1999/xlink">
<g id="graph0" class="graph" transform="scale(1 1) rotate(0) translate(4 734)">
<title>Counter</title>
<polygon fill="white" stroke="transparent" points="-4,4 -4,-734 1464,-734 1464,4 -4,4"/>
<g id="clust1" class="cluster">
<title>cluster_Counter</title>
<polygon fill="#ffffc3" stroke="black" points="8,-9.95 8,-720.05 1452,-720.05 1452,-9.95 8,-9.95"/>
<text text-anchor="middle" x="45" y="-704.85" font-family="Times,serif" font-size="14.00">Counter</text>
</g>
<!-- Counter_counter_safe -->
<g id="node1" class="node">
<title>Counter_counter_safe</title>
<g id="a_node1"><a xlink:href="Counter.html#counter_safe" xlink:title="counter_safe">
<ellipse fill="#7fffd4" stroke="black" cx="508" cy="-648.95" rx="69.58" ry="18"/>
<ellipse fill="none" stroke="black" cx="508" cy="-648.95" rx="73.59" ry="22"/>
<ellipse fill="none" stroke="black" cx="508" cy="-648.95" rx="77.59" ry="26"/>
<text text-anchor="middle" x="508" y="-645.25" font-family="Times,serif" font-size="14.00">counter_safe</text>
</a>
</g>
</g>
<!-- Counter_sum_inc_dec -->
<g id="node2" class="node">
<title>Counter_sum_inc_dec</title>
<g id="a_node2"><a xlink:href="Counter.html#sum_inc_dec" xlink:title="sum_inc_dec">
<ellipse fill="#f070d1" stroke="black" cx="452" cy="-549.95" rx="68.79" ry="18"/>
<text text-anchor="middle" x="452" y="-546.25" font-family="Times,serif" font-size="14.00">sum_inc_dec</text>
</a>
</g>
</g>
<!-- Counter_counter_safe&#45;&gt;Counter_sum_inc_dec -->
<g id="edge1" class="edge">
<title>Counter_counter_safe&#45;&gt;Counter_sum_inc_dec</title>
<path fill="none" stroke="black" d="M493.72,-623.22C485.54,-609.04 475.27,-591.25 466.97,-576.88"/>
<polygon fill="black" stroke="black" points="469.87,-574.9 461.84,-567.99 463.81,-578.4 469.87,-574.9"/>
</g>
<!-- Counter_receive_produces_no_calls -->
<g id="node3" class="node">
<title>Counter_receive_produces_no_calls</title>
<g id="a_node3"><a xlink:href="Counter.html#receive_produces_no_calls" xlink:title="receive_produces_no_calls">
<ellipse fill="#7fffd4" stroke="black" cx="183" cy="-549.95" rx="131.88" ry="18"/>
<text text-anchor="middle" x="183" y="-546.25" font-family="Times,serif" font-size="14.00">receive_produces_no_calls</text>
</a>
</g>
</g>
<!-- Counter_counter_safe&#45;&gt;Counter_receive_produces_no_calls -->
<g id="edge2" class="edge">
<title>Counter_counter_safe&#45;&gt;Counter_receive_produces_no_calls</title>
<path fill="none" stroke="black" d="M451.39,-631.05C393.68,-613.83 304.4,-587.18 244.86,-569.41"/>
<polygon fill="black" stroke="black" points="245.79,-566.04 235.21,-566.53 243.79,-572.74 245.79,-566.04"/>
</g>
<!-- Counter_counter_correct -->
<g id="node5" class="node">
<title>Counter_counter_correct</title>
<g id="a_node5"><a xlink:href="Counter.html#counter_correct" xlink:title="counter_correct">
<ellipse fill="#7fffd4" stroke="black" cx="582" cy="-449.95" rx="83.69" ry="18"/>
<text text-anchor="middle" x="582" y="-446.25" font-family="Times,serif" font-size="14.00">counter_correct</text>
</a>
</g>
</g>
<!-- Counter_counter_safe&#45;&gt;Counter_counter_correct -->
<g id="edge3" class="edge">
<title>Counter_counter_safe&#45;&gt;Counter_counter_correct</title>
<path fill="none" stroke="black" d="M517.37,-623C531.4,-585.65 557.75,-515.51 572.09,-477.34"/>
<polygon fill="black" stroke="black" points="575.39,-478.51 575.63,-467.92 568.83,-476.05 575.39,-478.51"/>
</g>
<!-- Counter_counter_contract -->
<g id="node6" class="node">
<title>Counter_counter_contract</title>
<g id="a_node6"><a xlink:href="Counter.html#counter_contract" xlink:title="counter_contract">
<ellipse fill="#f070d1" stroke="black" cx="685" cy="-549.95" rx="89.08" ry="18"/>
<text text-anchor="middle" x="685" y="-546.25" font-family="Times,serif" font-size="14.00">counter_contract</text>
</a>
</g>
</g>
<!-- Counter_counter_safe&#45;&gt;Counter_counter_contract -->
<g id="edge4" class="edge">
<title>Counter_counter_safe&#45;&gt;Counter_counter_contract</title>
<path fill="none" stroke="black" d="M547.28,-626.42C576.87,-610.2 617.23,-588.09 646.61,-571.99"/>
<polygon fill="black" stroke="black" points="648.64,-574.87 655.73,-566.99 645.28,-568.73 648.64,-574.87"/>
</g>
<!-- Counter_opt_msg_to_number -->
<g id="node4" class="node">
<title>Counter_opt_msg_to_number</title>
<g id="a_node4"><a xlink:href="Counter.html#opt_msg_to_number" xlink:title="opt_msg_to_number">
<ellipse fill="#f070d1" stroke="black" cx="376" cy="-449.95" rx="103.98" ry="18"/>
<text text-anchor="middle" x="376" y="-446.25" font-family="Times,serif" font-size="14.00">opt_msg_to_number</text>
</a>
</g>
</g>
<!-- Counter_sum_inc_dec&#45;&gt;Counter_opt_msg_to_number -->
<g id="edge5" class="edge">
<title>Counter_sum_inc_dec&#45;&gt;Counter_opt_msg_to_number</title>
<path fill="none" stroke="black" d="M438.76,-531.88C426.77,-516.42 408.96,-493.45 395.37,-475.93"/>
<polygon fill="black" stroke="black" points="397.98,-473.58 389.09,-467.82 392.45,-477.87 397.98,-473.58"/>
</g>
<!-- Counter_counter_receive -->
<g id="node10" class="node">
<title>Counter_counter_receive</title>
<g id="a_node10"><a xlink:href="Counter.html#counter_receive" xlink:title="counter_receive">
<ellipse fill="#f070d1" stroke="black" cx="170" cy="-449.95" rx="84.49" ry="18"/>
<text text-anchor="middle" x="170" y="-446.25" font-family="Times,serif" font-size="14.00">counter_receive</text>
</a>
</g>
</g>
<!-- Counter_receive_produces_no_calls&#45;&gt;Counter_counter_receive -->
<g id="edge6" class="edge">
<title>Counter_receive_produces_no_calls&#45;&gt;Counter_counter_receive</title>
<path fill="none" stroke="black" d="M180.74,-531.88C178.77,-517.07 175.89,-495.38 173.61,-478.18"/>
<polygon fill="black" stroke="black" points="177.07,-477.61 172.28,-468.15 170.13,-478.53 177.07,-477.61"/>
</g>
<!-- Counter_Msg -->
<g id="node22" class="node">
<title>Counter_Msg</title>
<g id="a_node22"><a xlink:href="Counter.html#Msg" xlink:title="Msg">
<ellipse fill="#e2cdfa" stroke="black" cx="479" cy="-230.95" rx="30.59" ry="18"/>
<text text-anchor="middle" x="479" y="-227.25" font-family="Times,serif" font-size="14.00">Msg</text>
</a>
</g>
</g>
<!-- Counter_opt_msg_to_number&#45;&gt;Counter_Msg -->
<g id="edge7" class="edge">
<title>Counter_opt_msg_to_number&#45;&gt;Counter_Msg</title>
<path fill="none" stroke="black" d="M340.46,-432.89C315.14,-419.31 283.02,-397.21 268,-366.95 257.73,-346.25 254.54,-333.73 268,-314.95 314.75,-249.72 366.49,-291.33 439,-256.95 443.11,-255 447.31,-252.72 451.38,-250.35"/>
<polygon fill="black" stroke="black" points="453.28,-253.29 459.98,-245.09 449.62,-247.32 453.28,-253.29"/>
</g>
<!-- Counter_counter -->
<g id="node11" class="node">
<title>Counter_counter</title>
<g id="a_node11"><a xlink:href="Counter.html#counter" xlink:title="counter">
<ellipse fill="#f070d1" stroke="black" cx="193" cy="-340.95" rx="46.29" ry="18"/>
<text text-anchor="middle" x="193" y="-337.25" font-family="Times,serif" font-size="14.00">counter</text>
</a>
</g>
</g>
<!-- Counter_counter_correct&#45;&gt;Counter_counter -->
<g id="edge8" class="edge">
<title>Counter_counter_correct&#45;&gt;Counter_counter</title>
<path fill="none" stroke="black" d="M531.83,-435.36C517.96,-431.63 502.9,-427.61 489,-423.95 390.91,-398.12 365.29,-395.67 268,-366.95 257.53,-363.86 246.32,-360.27 235.84,-356.8"/>
<polygon fill="black" stroke="black" points="236.67,-353.38 226.07,-353.52 234.44,-360.02 236.67,-353.38"/>
</g>
<!-- Counter_Dec -->
<g id="node20" class="node">
<title>Counter_Dec</title>
<g id="a_node20"><a xlink:href="Counter.html#Dec" xlink:title="Dec">
<ellipse fill="#7faaff" stroke="black" cx="629" cy="-230.95" rx="28.7" ry="18"/>
<text text-anchor="middle" x="629" y="-227.25" font-family="Times,serif" font-size="14.00">Dec</text>
</a>
</g>
</g>
<!-- Counter_counter_correct&#45;&gt;Counter_Dec -->
<g id="edge9" class="edge">
<title>Counter_counter_correct&#45;&gt;Counter_Dec</title>
<path fill="none" stroke="black" d="M651.95,-439.95C732.59,-427.96 857.7,-403.89 886,-366.95 900.05,-348.6 900.1,-333.26 886,-314.95 824.59,-235.16 758.92,-298.04 667,-256.95 663.11,-255.21 659.17,-253.09 655.37,-250.83"/>
<polygon fill="black" stroke="black" points="657.18,-247.83 646.87,-245.41 653.42,-253.74 657.18,-247.83"/>
</g>
<!-- Counter_Inc -->
<g id="node21" class="node">
<title>Counter_Inc</title>
<g id="a_node21"><a xlink:href="Counter.html#Inc" xlink:title="Inc">
<ellipse fill="#7faaff" stroke="black" cx="555" cy="-230.95" rx="27" ry="18"/>
<text text-anchor="middle" x="555" y="-227.25" font-family="Times,serif" font-size="14.00">Inc</text>
</a>
</g>
</g>
<!-- Counter_counter_correct&#45;&gt;Counter_Inc -->
<g id="edge10" class="edge">
<title>Counter_counter_correct&#45;&gt;Counter_Inc</title>
<path fill="none" stroke="black" d="M578.07,-431.77C574.42,-415.24 569.11,-389.51 566,-366.95 560.89,-329.89 557.88,-286.76 556.34,-259.41"/>
<polygon fill="black" stroke="black" points="559.81,-258.86 555.78,-249.06 552.82,-259.24 559.81,-258.86"/>
</g>
<!-- Counter_Msg_serializable -->
<g id="node7" class="node">
<title>Counter_Msg_serializable</title>
<g id="a_node7"><a xlink:href="Counter.html#Msg_serializable" xlink:title="Msg_serializable">
<ellipse fill="#f070d1" stroke="black" cx="663" cy="-340.95" rx="88.28" ry="18"/>
<text text-anchor="middle" x="663" y="-337.25" font-family="Times,serif" font-size="14.00">Msg_serializable</text>
</a>
</g>
</g>
<!-- Counter_counter_contract&#45;&gt;Counter_Msg_serializable -->
<g id="edge11" class="edge">
<title>Counter_counter_contract&#45;&gt;Counter_Msg_serializable</title>
<path fill="none" stroke="black" d="M683.99,-531.93C682.49,-507.85 679.35,-462.46 675,-423.95 672.94,-405.71 669.95,-385.29 667.47,-369.39"/>
<polygon fill="black" stroke="black" points="670.88,-368.51 665.86,-359.18 663.97,-369.61 670.88,-368.51"/>
</g>
<!-- Counter_State_serializable -->
<g id="node8" class="node">
<title>Counter_State_serializable</title>
<g id="a_node8"><a xlink:href="Counter.html#State_serializable" xlink:title="State_serializable">
<ellipse fill="#f070d1" stroke="black" cx="1063" cy="-230.95" rx="92.88" ry="18"/>
<text text-anchor="middle" x="1063" y="-227.25" font-family="Times,serif" font-size="14.00">State_serializable</text>
</a>
</g>
</g>
<!-- Counter_counter_contract&#45;&gt;Counter_State_serializable -->
<g id="edge12" class="edge">
<title>Counter_counter_contract&#45;&gt;Counter_State_serializable</title>
<path fill="none" stroke="black" d="M754.91,-538.76C802.05,-529.03 863.53,-510.51 908,-475.95 984.37,-416.6 1033.6,-308.33 1053.27,-258.42"/>
<polygon fill="black" stroke="black" points="1056.58,-259.57 1056.91,-248.98 1050.05,-257.05 1056.58,-259.57"/>
</g>
<!-- Counter_counter_init -->
<g id="node9" class="node">
<title>Counter_counter_init</title>
<g id="a_node9"><a xlink:href="Counter.html#counter_init" xlink:title="counter_init">
<ellipse fill="#f070d1" stroke="black" cx="742" cy="-230.95" rx="66.09" ry="18"/>
<text text-anchor="middle" x="742" y="-227.25" font-family="Times,serif" font-size="14.00">counter_init</text>
</a>
</g>
</g>
<!-- Counter_counter_contract&#45;&gt;Counter_counter_init -->
<g id="edge13" class="edge">
<title>Counter_counter_contract&#45;&gt;Counter_counter_init</title>
<path fill="none" stroke="black" d="M764.5,-541.75C808.8,-533.29 860.77,-515.06 890,-475.95 932.87,-418.59 932.71,-376.43 896,-314.95 883.72,-294.38 828.12,-267.66 787.24,-250.16"/>
<polygon fill="black" stroke="black" points="788.55,-246.92 777.98,-246.25 785.83,-253.37 788.55,-246.92"/>
</g>
<!-- Counter_counter_contract&#45;&gt;Counter_counter_receive -->
<g id="edge14" class="edge">
<title>Counter_counter_contract&#45;&gt;Counter_counter_receive</title>
<path fill="none" stroke="black" d="M614.8,-538.81C530.74,-526.22 385.89,-503.04 263,-475.95 251.63,-473.44 239.57,-470.45 228.04,-467.42"/>
<polygon fill="black" stroke="black" points="228.63,-463.96 218.06,-464.77 226.82,-470.72 228.63,-463.96"/>
</g>
<!-- Counter_Msg_serializable&#45;&gt;Counter_Dec -->
<g id="edge15" class="edge">
<title>Counter_Msg_serializable&#45;&gt;Counter_Dec</title>
<path fill="none" stroke="black" d="M657.54,-322.6C652.1,-305.33 643.69,-278.61 637.4,-258.64"/>
<polygon fill="black" stroke="black" points="640.68,-257.39 634.34,-248.9 634,-259.49 640.68,-257.39"/>
</g>
<!-- Counter_Msg_serializable&#45;&gt;Counter_Inc -->
<g id="edge16" class="edge">
<title>Counter_Msg_serializable&#45;&gt;Counter_Inc</title>
<path fill="none" stroke="black" d="M646.12,-323.07C627.4,-304.35 597.12,-274.07 576.66,-253.61"/>
<polygon fill="black" stroke="black" points="578.89,-250.89 569.34,-246.29 573.94,-255.84 578.89,-250.89"/>
</g>
<!-- Counter_Msg_serializable&#45;&gt;Counter_Msg -->
<g id="edge17" class="edge">
<title>Counter_Msg_serializable&#45;&gt;Counter_Msg</title>
<path fill="none" stroke="black" d="M634.41,-323.87C605.23,-307.36 558.71,-280.79 519,-256.95 515.37,-254.77 511.57,-252.45 507.82,-250.13"/>
<polygon fill="black" stroke="black" points="509.6,-247.12 499.26,-244.81 505.9,-253.06 509.6,-247.12"/>
</g>
<!-- Counter_build_state -->
<g id="node29" class="node">
<title>Counter_build_state</title>
<g id="a_node29"><a xlink:href="Counter.html#build_state" xlink:title="build_state">
<ellipse fill="#7faaff" stroke="black" cx="872" cy="-131.95" rx="61.99" ry="18"/>
<text text-anchor="middle" x="872" y="-128.25" font-family="Times,serif" font-size="14.00">build_state</text>
</a>
</g>
</g>
<!-- Counter_State_serializable&#45;&gt;Counter_build_state -->
<g id="edge18" class="edge">
<title>Counter_State_serializable&#45;&gt;Counter_build_state</title>
<path fill="none" stroke="black" d="M1031.46,-213.93C998.29,-197.09 946.08,-170.57 910.5,-152.5"/>
<polygon fill="black" stroke="black" points="911.89,-149.28 901.39,-147.87 908.72,-155.52 911.89,-149.28"/>
</g>
<!-- Counter_State -->
<g id="node30" class="node">
<title>Counter_State</title>
<g id="a_node30"><a xlink:href="Counter.html#State" xlink:title="State">
<ellipse fill="#e2cdfa" stroke="black" cx="953" cy="-41.95" rx="36" ry="18"/>
<text text-anchor="middle" x="953" y="-38.25" font-family="Times,serif" font-size="14.00">State</text>
</a>
</g>
</g>
<!-- Counter_State_serializable&#45;&gt;Counter_State -->
<g id="edge19" class="edge">
<title>Counter_State_serializable&#45;&gt;Counter_State</title>
<path fill="none" stroke="black" d="M1053.04,-213.02C1033.69,-180.12 990.89,-107.36 968.05,-68.53"/>
<polygon fill="black" stroke="black" points="970.78,-66.28 962.7,-59.43 964.75,-69.83 970.78,-66.28"/>
</g>
<!-- Counter_Error -->
<g id="node15" class="node">
<title>Counter_Error</title>
<g id="a_node15"><a xlink:href="Counter.html#Error" xlink:title="Error">
<ellipse fill="#f070d1" stroke="black" cx="558" cy="-131.95" rx="36.29" ry="18"/>
<text text-anchor="middle" x="558" y="-128.25" font-family="Times,serif" font-size="14.00">Error</text>
</a>
</g>
</g>
<!-- Counter_counter_init&#45;&gt;Counter_Error -->
<g id="edge20" class="edge">
<title>Counter_counter_init&#45;&gt;Counter_Error</title>
<path fill="none" stroke="black" d="M712.84,-214.58C679.78,-197.15 625.96,-168.78 591.28,-150.49"/>
<polygon fill="black" stroke="black" points="592.51,-147.19 582.03,-145.62 589.25,-153.38 592.51,-147.19"/>
</g>
<!-- Counter_counter_init&#45;&gt;Counter_build_state -->
<g id="edge21" class="edge">
<title>Counter_counter_init&#45;&gt;Counter_build_state</title>
<path fill="none" stroke="black" d="M763.76,-213.71C785.35,-197.6 818.6,-172.79 842.55,-154.92"/>
<polygon fill="black" stroke="black" points="844.68,-157.7 850.6,-148.91 840.49,-152.09 844.68,-157.7"/>
</g>
<!-- Counter_counter_init&#45;&gt;Counter_State -->
<g id="edge22" class="edge">
<title>Counter_counter_init&#45;&gt;Counter_State</title>
<path fill="none" stroke="black" d="M746.78,-212.82C754.47,-188.08 771.76,-142.22 801,-113.95 832.21,-83.77 878.62,-64.66 911.94,-53.96"/>
<polygon fill="black" stroke="black" points="913.3,-57.2 921.83,-50.91 911.24,-50.52 913.3,-57.2"/>
</g>
<!-- Counter_counter_receive&#45;&gt;Counter_counter -->
<g id="edge23" class="edge">
<title>Counter_counter_receive&#45;&gt;Counter_counter</title>
<path fill="none" stroke="black" d="M173.7,-431.76C177.33,-414.83 182.94,-388.73 187.18,-369.02"/>
<polygon fill="black" stroke="black" points="190.63,-369.61 189.31,-359.1 183.79,-368.14 190.63,-369.61"/>
</g>
<!-- Counter_decrement -->
<g id="node12" class="node">
<title>Counter_decrement</title>
<g id="a_node12"><a xlink:href="Counter.html#decrement" xlink:title="decrement">
<ellipse fill="#f070d1" stroke="black" cx="76" cy="-230.95" rx="60.39" ry="18"/>
<text text-anchor="middle" x="76" y="-227.25" font-family="Times,serif" font-size="14.00">decrement</text>
</a>
</g>
</g>
<!-- Counter_counter&#45;&gt;Counter_decrement -->
<g id="edge24" class="edge">
<title>Counter_counter&#45;&gt;Counter_decrement</title>
<path fill="none" stroke="black" d="M175.74,-324.01C156.06,-305.85 123.73,-276.01 101.23,-255.24"/>
<polygon fill="black" stroke="black" points="103.44,-252.52 93.72,-248.3 98.69,-257.66 103.44,-252.52"/>
</g>
<!-- Counter_increment -->
<g id="node13" class="node">
<title>Counter_increment</title>
<g id="a_node13"><a xlink:href="Counter.html#increment" xlink:title="increment">
<ellipse fill="#f070d1" stroke="black" cx="212" cy="-230.95" rx="57.69" ry="18"/>
<text text-anchor="middle" x="212" y="-227.25" font-family="Times,serif" font-size="14.00">increment</text>
</a>
</g>
</g>
<!-- Counter_counter&#45;&gt;Counter_increment -->
<g id="edge25" class="edge">
<title>Counter_counter&#45;&gt;Counter_increment</title>
<path fill="none" stroke="black" d="M196.05,-322.6C199.06,-305.51 203.69,-279.16 207.19,-259.27"/>
<polygon fill="black" stroke="black" points="210.67,-259.71 208.95,-249.26 203.78,-258.5 210.67,-259.71"/>
</g>
<!-- Counter_default_error -->
<g id="node14" class="node">
<title>Counter_default_error</title>
<g id="a_node14"><a xlink:href="Counter.html#default_error" xlink:title="default_error">
<ellipse fill="#f070d1" stroke="black" cx="359" cy="-230.95" rx="71.49" ry="18"/>
<text text-anchor="middle" x="359" y="-227.25" font-family="Times,serif" font-size="14.00">default_error</text>
</a>
</g>
</g>
<!-- Counter_counter&#45;&gt;Counter_default_error -->
<g id="edge26" class="edge">
<title>Counter_counter&#45;&gt;Counter_default_error</title>
<path fill="none" stroke="black" d="M215.73,-325.16C244.14,-306.68 292.98,-274.9 325.63,-253.66"/>
<polygon fill="black" stroke="black" points="327.91,-256.35 334.38,-247.97 324.09,-250.49 327.91,-256.35"/>
</g>
<!-- Counter_counter&#45;&gt;Counter_Msg -->
<g id="edge27" class="edge">
<title>Counter_counter&#45;&gt;Counter_Msg</title>
<path fill="none" stroke="black" d="M222.39,-327.07C232.06,-323 242.92,-318.61 253,-314.95 334.39,-285.38 360.31,-293.08 439,-256.95 443.13,-255.05 447.35,-252.8 451.43,-250.44"/>
<polygon fill="black" stroke="black" points="453.32,-253.39 460.03,-245.19 449.67,-247.42 453.32,-253.39"/>
</g>
<!-- Counter_owner -->
<g id="node23" class="node">
<title>Counter_owner</title>
<g id="a_node23"><a xlink:href="Counter.html#owner" xlink:title="owner">
<ellipse fill="#f070d1" stroke="black" cx="165" cy="-131.95" rx="39.79" ry="18"/>
<text text-anchor="middle" x="165" y="-128.25" font-family="Times,serif" font-size="14.00">owner</text>
</a>
</g>
</g>
<!-- Counter_decrement&#45;&gt;Counter_owner -->
<g id="edge28" class="edge">
<title>Counter_decrement&#45;&gt;Counter_owner</title>
<path fill="none" stroke="black" d="M91.1,-213.49C105.46,-197.84 127.22,-174.12 143.42,-156.47"/>
<polygon fill="black" stroke="black" points="146.24,-158.57 150.42,-148.84 141.08,-153.84 146.24,-158.57"/>
</g>
<!-- Counter_count -->
<g id="node24" class="node">
<title>Counter_count</title>
<g id="a_node24"><a xlink:href="Counter.html#count" xlink:title="count">
<ellipse fill="#f070d1" stroke="black" cx="259" cy="-131.95" rx="36.29" ry="18"/>
<text text-anchor="middle" x="259" y="-128.25" font-family="Times,serif" font-size="14.00">count</text>
</a>
</g>
</g>
<!-- Counter_decrement&#45;&gt;Counter_count -->
<g id="edge29" class="edge">
<title>Counter_decrement&#45;&gt;Counter_count</title>
<path fill="none" stroke="black" d="M104.19,-215.01C137,-197.61 191.11,-168.94 225.89,-150.5"/>
<polygon fill="black" stroke="black" points="227.95,-153.37 235.15,-145.59 224.68,-147.18 227.95,-153.37"/>
</g>
<!-- Counter_decrement&#45;&gt;Counter_build_state -->
<g id="edge30" class="edge">
<title>Counter_decrement&#45;&gt;Counter_build_state</title>
<path fill="none" stroke="black" d="M109.54,-215.9C120.65,-211.76 133.2,-207.63 145,-204.95 269.21,-176.76 645.99,-148.49 802.59,-137.61"/>
<polygon fill="black" stroke="black" points="802.85,-141.1 812.58,-136.92 802.36,-134.12 802.85,-141.1"/>
</g>
<!-- Counter_increment&#45;&gt;Counter_owner -->
<g id="edge31" class="edge">
<title>Counter_increment&#45;&gt;Counter_owner</title>
<path fill="none" stroke="black" d="M203.81,-213.05C196.6,-198.17 185.98,-176.25 177.67,-159.11"/>
<polygon fill="black" stroke="black" points="180.6,-157.12 173.09,-149.65 174.3,-160.18 180.6,-157.12"/>
</g>
<!-- Counter_increment&#45;&gt;Counter_count -->
<g id="edge32" class="edge">
<title>Counter_increment&#45;&gt;Counter_count</title>
<path fill="none" stroke="black" d="M220.19,-213.05C227.4,-198.17 238.02,-176.25 246.33,-159.11"/>
<polygon fill="black" stroke="black" points="249.7,-160.18 250.91,-149.65 243.4,-157.12 249.7,-160.18"/>
</g>
<!-- Counter_increment&#45;&gt;Counter_build_state -->
<g id="edge33" class="edge">
<title>Counter_increment&#45;&gt;Counter_build_state</title>
<path fill="none" stroke="black" d="M244.57,-216.03C255.36,-211.9 267.54,-207.74 279,-204.95 464.16,-159.84 689.05,-142.39 801.23,-136.14"/>
<polygon fill="black" stroke="black" points="801.6,-139.62 811.4,-135.58 801.22,-132.63 801.6,-139.62"/>
</g>
<!-- Counter_default_error&#45;&gt;Counter_Error -->
<g id="edge34" class="edge">
<title>Counter_default_error&#45;&gt;Counter_Error</title>
<path fill="none" stroke="black" d="M390.53,-214.58C426.9,-196.85 486.49,-167.81 523.91,-149.57"/>
<polygon fill="black" stroke="black" points="525.46,-152.7 532.92,-145.18 522.39,-146.41 525.46,-152.7"/>
</g>
<!-- Counter_Msg_sind -->
<g id="node16" class="node">
<title>Counter_Msg_sind</title>
<g id="a_node16"><a xlink:href="Counter.html#Msg_sind" xlink:title="Msg_sind">
<ellipse fill="#f070d1" stroke="black" cx="340" cy="-340.95" rx="54.68" ry="18"/>
<ellipse fill="none" stroke="black" cx="340" cy="-340.95" rx="58.68" ry="22"/>
<ellipse fill="none" stroke="black" cx="340" cy="-340.95" rx="62.69" ry="26"/>
<text text-anchor="middle" x="340" y="-337.25" font-family="Times,serif" font-size="14.00">Msg_sind</text>
</a>
</g>
</g>
<!-- Counter_Msg_sind&#45;&gt;Counter_Dec -->
<g id="edge35" class="edge">
<title>Counter_Msg_sind&#45;&gt;Counter_Dec</title>
<path fill="none" stroke="black" d="M386.82,-323.54C395.19,-320.64 403.85,-317.69 412,-314.95 491.28,-288.34 515.61,-293.15 591,-256.95 594.84,-255.1 598.76,-252.92 602.54,-250.63"/>
<polygon fill="black" stroke="black" points="604.5,-253.53 611.03,-245.19 600.72,-247.64 604.5,-253.53"/>
</g>
<!-- Counter_Msg_sind&#45;&gt;Counter_Inc -->
<g id="edge36" class="edge">
<title>Counter_Msg_sind&#45;&gt;Counter_Inc</title>
<path fill="none" stroke="black" d="M383.73,-322.19C420.63,-306.61 474.42,-282.51 519,-256.95 522.3,-255.06 525.68,-252.95 528.98,-250.79"/>
<polygon fill="black" stroke="black" points="531.15,-253.55 537.45,-245.04 527.21,-247.76 531.15,-253.55"/>
</g>
<!-- Counter_Msg_sind&#45;&gt;Counter_Msg -->
<g id="edge37" class="edge">
<title>Counter_Msg_sind&#45;&gt;Counter_Msg</title>
<path fill="none" stroke="black" d="M368.8,-317.57C393.7,-298.23 429.35,-270.52 453.3,-251.92"/>
<polygon fill="black" stroke="black" points="455.49,-254.64 461.24,-245.75 451.2,-249.12 455.49,-254.64"/>
</g>
<!-- Counter_Msg_rec -->
<g id="node17" class="node">
<title>Counter_Msg_rec</title>
<g id="a_node17"><a xlink:href="Counter.html#Msg_rec" xlink:title="Msg_rec">
<ellipse fill="#f070d1" stroke="black" cx="823" cy="-449.95" rx="50.08" ry="18"/>
<ellipse fill="none" stroke="black" cx="823" cy="-449.95" rx="54.09" ry="22"/>
<ellipse fill="none" stroke="black" cx="823" cy="-449.95" rx="58.09" ry="26"/>
<text text-anchor="middle" x="823" y="-446.25" font-family="Times,serif" font-size="14.00">Msg_rec</text>
</a>
</g>
</g>
<!-- Counter_Msg_rect -->
<g id="node19" class="node">
<title>Counter_Msg_rect</title>
<g id="a_node19"><a xlink:href="Counter.html#Msg_rect" xlink:title="Msg_rect">
<ellipse fill="#f070d1" stroke="black" cx="823" cy="-340.95" rx="53.89" ry="18"/>
<text text-anchor="middle" x="823" y="-337.25" font-family="Times,serif" font-size="14.00">Msg_rect</text>
</a>
</g>
</g>
<!-- Counter_Msg_rec&#45;&gt;Counter_Msg_rect -->
<g id="edge38" class="edge">
<title>Counter_Msg_rec&#45;&gt;Counter_Msg_rect</title>
<path fill="none" stroke="black" d="M823,-423.86C823,-407.55 823,-386.26 823,-369.48"/>
<polygon fill="black" stroke="black" points="826.5,-369.2 823,-359.2 819.5,-369.2 826.5,-369.2"/>
</g>
<!-- Counter_Msg_ind -->
<g id="node18" class="node">
<title>Counter_Msg_ind</title>
<g id="a_node18"><a xlink:href="Counter.html#Msg_ind" xlink:title="Msg_ind">
<ellipse fill="#7fffd4" stroke="black" cx="479" cy="-340.95" rx="50.08" ry="18"/>
<ellipse fill="none" stroke="black" cx="479" cy="-340.95" rx="54.09" ry="22"/>
<ellipse fill="none" stroke="black" cx="479" cy="-340.95" rx="58.09" ry="26"/>
<text text-anchor="middle" x="479" y="-337.25" font-family="Times,serif" font-size="14.00">Msg_ind</text>
</a>
</g>
</g>
<!-- Counter_Msg_ind&#45;&gt;Counter_Dec -->
<g id="edge39" class="edge">
<title>Counter_Msg_ind&#45;&gt;Counter_Dec</title>
<path fill="none" stroke="black" d="M508.99,-318.35C536.34,-298.66 576.35,-269.86 602.53,-251.01"/>
<polygon fill="black" stroke="black" points="604.77,-253.71 610.84,-245.02 600.68,-248.02 604.77,-253.71"/>
</g>
<!-- Counter_Msg_ind&#45;&gt;Counter_Inc -->
<g id="edge40" class="edge">
<title>Counter_Msg_ind&#45;&gt;Counter_Inc</title>
<path fill="none" stroke="black" d="M495.87,-315.98C508.49,-298.04 525.69,-273.61 538.28,-255.71"/>
<polygon fill="black" stroke="black" points="541.16,-257.7 544.05,-247.51 535.43,-253.67 541.16,-257.7"/>
</g>
<!-- Counter_Msg_ind&#45;&gt;Counter_Msg -->
<g id="edge41" class="edge">
<title>Counter_Msg_ind&#45;&gt;Counter_Msg</title>
<path fill="none" stroke="black" d="M479,-314.9C479,-298.34 479,-276.62 479,-259.56"/>
<polygon fill="black" stroke="black" points="482.5,-259.12 479,-249.12 475.5,-259.12 482.5,-259.12"/>
</g>
<!-- Counter_Msg_rect&#45;&gt;Counter_Dec -->
<g id="edge42" class="edge">
<title>Counter_Msg_rect&#45;&gt;Counter_Dec</title>
<path fill="none" stroke="black" d="M794.09,-325.59C762.44,-309.63 710.4,-282.7 667,-256.95 663.51,-254.88 659.89,-252.63 656.33,-250.36"/>
<polygon fill="black" stroke="black" points="658.01,-247.28 647.72,-244.76 654.2,-253.15 658.01,-247.28"/>
</g>
<!-- Counter_Msg_rect&#45;&gt;Counter_Inc -->
<g id="edge43" class="edge">
<title>Counter_Msg_rect&#45;&gt;Counter_Inc</title>
<path fill="none" stroke="black" d="M790.09,-326.55C780.43,-322.71 769.82,-318.58 760,-314.95 685.52,-287.41 661.84,-292.83 591,-256.95 587.44,-255.14 583.82,-253.03 580.32,-250.8"/>
<polygon fill="black" stroke="black" points="582.22,-247.86 571.97,-245.17 578.31,-253.67 582.22,-247.86"/>
</g>
<!-- Counter_Msg_rect&#45;&gt;Counter_Msg -->
<g id="edge44" class="edge">
<title>Counter_Msg_rect&#45;&gt;Counter_Msg</title>
<path fill="none" stroke="black" d="M791.27,-326.34C781.36,-322.37 770.32,-318.22 760,-314.95 654.98,-281.66 620.58,-299.59 519,-256.95 514.81,-255.19 510.56,-253.02 506.46,-250.7"/>
<polygon fill="black" stroke="black" points="508.21,-247.67 497.85,-245.47 504.59,-253.65 508.21,-247.67"/>
</g>
<!-- Counter_owner&#45;&gt;Counter_State -->
<g id="edge45" class="edge">
<title>Counter_owner&#45;&gt;Counter_State</title>
<path fill="none" stroke="black" d="M193.95,-119.63C200.46,-117.44 207.4,-115.39 214,-113.95 471.92,-57.66 790.18,-45.99 907.12,-43.58"/>
<polygon fill="black" stroke="black" points="907.22,-47.08 917.15,-43.38 907.09,-40.08 907.22,-47.08"/>
</g>
<!-- Counter_count&#45;&gt;Counter_State -->
<g id="edge46" class="edge">
<title>Counter_count&#45;&gt;Counter_State</title>
<path fill="none" stroke="black" d="M293.89,-126.52C409.39,-111.88 779.23,-64.98 908.16,-48.63"/>
<polygon fill="black" stroke="black" points="908.97,-52.06 918.45,-47.33 908.09,-45.12 908.97,-52.06"/>
</g>
<!-- Counter_State_sind -->
<g id="node25" class="node">
<title>Counter_State_sind</title>
<g id="a_node25"><a xlink:href="Counter.html#State_sind" xlink:title="State_sind">
<ellipse fill="#f070d1" stroke="black" cx="1376" cy="-230.95" rx="59.61" ry="18"/>
<ellipse fill="none" stroke="black" cx="1376" cy="-230.95" rx="63.6" ry="22"/>
<ellipse fill="none" stroke="black" cx="1376" cy="-230.95" rx="67.59" ry="26"/>
<text text-anchor="middle" x="1376" y="-227.25" font-family="Times,serif" font-size="14.00">State_sind</text>
</a>
</g>
</g>
<!-- Counter_State_sind&#45;&gt;Counter_build_state -->
<g id="edge47" class="edge">
<title>Counter_State_sind&#45;&gt;Counter_build_state</title>
<path fill="none" stroke="black" d="M1327.02,-212.86C1317.78,-209.97 1308.15,-207.19 1299,-204.95 1172.71,-173.98 1022.14,-151.99 937.76,-140.98"/>
<polygon fill="black" stroke="black" points="938.17,-137.51 927.81,-139.7 937.27,-144.45 938.17,-137.51"/>
</g>
<!-- Counter_State_sind&#45;&gt;Counter_State -->
<g id="edge48" class="edge">
<title>Counter_State_sind&#45;&gt;Counter_State</title>
<path fill="none" stroke="black" d="M1332.72,-210.82C1248.82,-173.72 1065.53,-92.7 988.36,-58.58"/>
<polygon fill="black" stroke="black" points="989.62,-55.31 979.06,-54.47 986.79,-61.71 989.62,-55.31"/>
</g>
<!-- Counter_State_rec -->
<g id="node26" class="node">
<title>Counter_State_rec</title>
<g id="a_node26"><a xlink:href="Counter.html#State_rec" xlink:title="State_rec">
<ellipse fill="#f070d1" stroke="black" cx="1232" cy="-340.95" rx="54.68" ry="18"/>
<ellipse fill="none" stroke="black" cx="1232" cy="-340.95" rx="58.68" ry="22"/>
<ellipse fill="none" stroke="black" cx="1232" cy="-340.95" rx="62.69" ry="26"/>
<text text-anchor="middle" x="1232" y="-337.25" font-family="Times,serif" font-size="14.00">State_rec</text>
</a>
</g>
</g>
<!-- Counter_State_rect -->
<g id="node28" class="node">
<title>Counter_State_rect</title>
<g id="a_node28"><a xlink:href="Counter.html#State_rect" xlink:title="State_rect">
<ellipse fill="#f070d1" stroke="black" cx="1232" cy="-230.95" rx="58.49" ry="18"/>
<text text-anchor="middle" x="1232" y="-227.25" font-family="Times,serif" font-size="14.00">State_rect</text>
</a>
</g>
</g>
<!-- Counter_State_rec&#45;&gt;Counter_State_rect -->
<g id="edge49" class="edge">
<title>Counter_State_rec&#45;&gt;Counter_State_rect</title>
<path fill="none" stroke="black" d="M1232,-314.9C1232,-298.34 1232,-276.62 1232,-259.56"/>
<polygon fill="black" stroke="black" points="1235.5,-259.12 1232,-249.12 1228.5,-259.12 1235.5,-259.12"/>
</g>
<!-- Counter_State_ind -->
<g id="node27" class="node">
<title>Counter_State_ind</title>
<g id="a_node27"><a xlink:href="Counter.html#State_ind" xlink:title="State_ind">
<ellipse fill="#7fffd4" stroke="black" cx="889" cy="-230.95" rx="54.68" ry="18"/>
<ellipse fill="none" stroke="black" cx="889" cy="-230.95" rx="58.68" ry="22"/>
<ellipse fill="none" stroke="black" cx="889" cy="-230.95" rx="62.69" ry="26"/>
<text text-anchor="middle" x="889" y="-227.25" font-family="Times,serif" font-size="14.00">State_ind</text>
</a>
</g>
</g>
<!-- Counter_State_ind&#45;&gt;Counter_build_state -->
<g id="edge50" class="edge">
<title>Counter_State_ind&#45;&gt;Counter_build_state</title>
<path fill="none" stroke="black" d="M884.62,-204.97C882.22,-191.28 879.25,-174.3 876.79,-160.26"/>
<polygon fill="black" stroke="black" points="880.2,-159.45 875.02,-150.2 873.3,-160.66 880.2,-159.45"/>
</g>
<!-- Counter_State_ind&#45;&gt;Counter_State -->
<g id="edge51" class="edge">
<title>Counter_State_ind&#45;&gt;Counter_State</title>
<path fill="none" stroke="black" d="M909.76,-206.14C921.64,-191.08 935.61,-170.62 943,-149.95 952.29,-123.98 954.18,-92.33 954.13,-70.21"/>
<polygon fill="black" stroke="black" points="957.63,-70.13 953.97,-60.19 950.63,-70.24 957.63,-70.13"/>
</g>
<!-- Counter_State_rect&#45;&gt;Counter_build_state -->
<g id="edge52" class="edge">
<title>Counter_State_rect&#45;&gt;Counter_build_state</title>
<path fill="none" stroke="black" d="M1197.83,-216.33C1187.38,-212.4 1175.8,-208.28 1165,-204.95 1084.79,-180.22 990.21,-158.24 930.66,-145.26"/>
<polygon fill="black" stroke="black" points="931.2,-141.79 920.69,-143.1 929.72,-148.63 931.2,-141.79"/>
</g>
<!-- Counter_State_rect&#45;&gt;Counter_State -->
<g id="edge53" class="edge">
<title>Counter_State_rect&#45;&gt;Counter_State</title>
<path fill="none" stroke="black" d="M1208.69,-214.33C1157.97,-180.33 1037.69,-99.71 982.1,-62.45"/>
<polygon fill="black" stroke="black" points="984,-59.52 973.75,-56.86 980.11,-65.33 984,-59.52"/>
</g>
</g>
</svg>
