<?xml version="1.0" encoding="UTF-8" standalone="no"?>
<!DOCTYPE svg PUBLIC "-//W3C//DTD SVG 1.1//EN"
 "http://www.w3.org/Graphics/SVG/1.1/DTD/svg11.dtd">
<!-- Generated by graphviz version 2.43.0 (0)
 -->
<!-- Title: BuildUtils Pages: 1 -->
<svg width="3030pt" height="1519pt"
 viewBox="0.00 0.00 3030.00 1519.00" xmlns="http://www.w3.org/2000/svg" xmlns:xlink="http://www.w3.org/1999/xlink">
<g id="graph0" class="graph" transform="scale(1 1) rotate(0) translate(4 1515)">
<title>BuildUtils</title>
<polygon fill="white" stroke="transparent" points="-4,4 -4,-1515 3026,-1515 3026,4 -4,4"/>
<g id="clust1" class="cluster">
<title>cluster_BuildUtils</title>
<polygon fill="#ffffc3" stroke="black" points="8,-24.22 8,-1486.78 3014,-1486.78 3014,-24.22 8,-24.22"/>
<text text-anchor="middle" x="52.5" y="-1471.58" font-family="Times,serif" font-size="14.00">BuildUtils</text>
</g>
<!-- BuildUtils_step_reachable_through_exists -->
<g id="node1" class="node">
<title>BuildUtils_step_reachable_through_exists</title>
<g id="a_node1"><a xlink:href="BuildUtils.html#step_reachable_through_exists" xlink:title="step_reachable_through_exists">
<ellipse fill="#7fffd4" stroke="black" cx="1702" cy="-829.22" rx="153.28" ry="18"/>
<ellipse fill="none" stroke="black" cx="1702" cy="-829.22" rx="157.28" ry="22"/>
<ellipse fill="none" stroke="black" cx="1702" cy="-829.22" rx="161.27" ry="26"/>
<text text-anchor="middle" x="1702" y="-825.52" font-family="Times,serif" font-size="14.00">step_reachable_through_exists</text>
</a>
</g>
</g>
<!-- BuildUtils_reachable_through_trans -->
<g id="node28" class="node">
<title>BuildUtils_reachable_through_trans</title>
<g id="a_node28"><a xlink:href="BuildUtils.html#reachable_through_trans" xlink:title="reachable_through_trans">
<ellipse fill="#7fffd4" stroke="black" cx="1376" cy="-587.22" rx="126.18" ry="18"/>
<text text-anchor="middle" x="1376" y="-583.52" font-family="Times,serif" font-size="14.00">reachable_through_trans</text>
</a>
</g>
</g>
<!-- BuildUtils_step_reachable_through_exists&#45;&gt;BuildUtils_reachable_through_trans -->
<g id="edge1" class="edge">
<title>BuildUtils_step_reachable_through_exists&#45;&gt;BuildUtils_reachable_through_trans</title>
<path fill="none" stroke="black" d="M1668.64,-803.67C1605.25,-757 1468.25,-656.14 1406.85,-610.94"/>
<polygon fill="black" stroke="black" points="1408.83,-608.05 1398.71,-604.94 1404.68,-613.69 1408.83,-608.05"/>
</g>
<!-- BuildUtils_deploy_contract -->
<g id="node2" class="node">
<title>BuildUtils_deploy_contract</title>
<g id="a_node2"><a xlink:href="BuildUtils.html#deploy_contract" xlink:title="deploy_contract">
<ellipse fill="#7fffd4" stroke="black" cx="2396" cy="-829.22" rx="84.49" ry="18"/>
<ellipse fill="none" stroke="black" cx="2396" cy="-829.22" rx="88.49" ry="22"/>
<ellipse fill="none" stroke="black" cx="2396" cy="-829.22" rx="92.49" ry="26"/>
<text text-anchor="middle" x="2396" y="-825.52" font-family="Times,serif" font-size="14.00">deploy_contract</text>
</a>
</g>
</g>
<!-- BuildUtils_wc_init_to_init -->
<g id="node10" class="node">
<title>BuildUtils_wc_init_to_init</title>
<g id="a_node10"><a xlink:href="BuildUtils.html#wc_init_to_init" xlink:title="wc_init_to_init">
<ellipse fill="#7fffd4" stroke="black" cx="2830" cy="-587.22" rx="77.19" ry="18"/>
<text text-anchor="middle" x="2830" y="-583.52" font-family="Times,serif" font-size="14.00">wc_init_to_init</text>
</a>
</g>
</g>
<!-- BuildUtils_deploy_contract&#45;&gt;BuildUtils_wc_init_to_init -->
<g id="edge2" class="edge">
<title>BuildUtils_deploy_contract&#45;&gt;BuildUtils_wc_init_to_init</title>
<path fill="none" stroke="black" d="M2436.83,-805.65C2520.74,-759.24 2711.49,-653.76 2792.5,-608.96"/>
<polygon fill="black" stroke="black" points="2794.3,-611.96 2801.36,-604.06 2790.92,-605.84 2794.3,-611.96"/>
</g>
<!-- BuildUtils_reachable_through_reachable -->
<g id="node26" class="node">
<title>BuildUtils_reachable_through_reachable</title>
<g id="a_node26"><a xlink:href="BuildUtils.html#reachable_through_reachable" xlink:title="reachable_through_reachable">
<ellipse fill="#7fffd4" stroke="black" cx="2145" cy="-587.22" rx="147.57" ry="18"/>
<text text-anchor="middle" x="2145" y="-583.52" font-family="Times,serif" font-size="14.00">reachable_through_reachable</text>
</a>
</g>
</g>
<!-- BuildUtils_deploy_contract&#45;&gt;BuildUtils_reachable_through_reachable -->
<g id="edge3" class="edge">
<title>BuildUtils_deploy_contract&#45;&gt;BuildUtils_reachable_through_reachable</title>
<path fill="none" stroke="black" d="M2370.55,-803.89C2322.38,-757.83 2218.42,-658.42 2170.33,-612.45"/>
<polygon fill="black" stroke="black" points="2172.49,-609.67 2162.84,-605.29 2167.65,-614.73 2172.49,-609.67"/>
</g>
<!-- BuildUtils_reachable_through_step -->
<g id="node27" class="node">
<title>BuildUtils_reachable_through_step</title>
<g id="a_node27"><a xlink:href="BuildUtils.html#reachable_through_step" xlink:title="reachable_through_step">
<ellipse fill="#7fffd4" stroke="black" cx="448" cy="-587.22" rx="122.38" ry="18"/>
<text text-anchor="middle" x="448" y="-583.52" font-family="Times,serif" font-size="14.00">reachable_through_step</text>
</a>
</g>
</g>
<!-- BuildUtils_deploy_contract&#45;&gt;BuildUtils_reachable_through_step -->
<g id="edge4" class="edge">
<title>BuildUtils_deploy_contract&#45;&gt;BuildUtils_reachable_through_step</title>
<path fill="none" stroke="black" d="M2312.61,-817.95C1998.8,-779.29 889.5,-642.62 548.49,-600.6"/>
<polygon fill="black" stroke="black" points="548.73,-597.11 538.38,-599.36 547.88,-604.06 548.73,-597.11"/>
</g>
<!-- BuildUtils_reachable_trans -->
<g id="node36" class="node">
<title>BuildUtils_reachable_trans</title>
<g id="a_node36"><a xlink:href="BuildUtils.html#reachable_trans" xlink:title="reachable_trans">
<ellipse fill="#7fffd4" stroke="black" cx="2396" cy="-587.22" rx="85.29" ry="18"/>
<text text-anchor="middle" x="2396" y="-583.52" font-family="Times,serif" font-size="14.00">reachable_trans</text>
</a>
</g>
</g>
<!-- BuildUtils_deploy_contract&#45;&gt;BuildUtils_reachable_trans -->
<g id="edge5" class="edge">
<title>BuildUtils_deploy_contract&#45;&gt;BuildUtils_reachable_trans</title>
<path fill="none" stroke="black" d="M2396,-802.99C2396,-757.55 2396,-662.33 2396,-615.46"/>
<polygon fill="black" stroke="black" points="2399.5,-615.44 2396,-605.44 2392.5,-615.44 2399.5,-615.44"/>
</g>
<!-- BuildUtils_reachable_empty_state -->
<g id="node37" class="node">
<title>BuildUtils_reachable_empty_state</title>
<g id="a_node37"><a xlink:href="BuildUtils.html#reachable_empty_state" xlink:title="reachable_empty_state">
<ellipse fill="#7fffd4" stroke="black" cx="2617" cy="-587.22" rx="117.78" ry="18"/>
<text text-anchor="middle" x="2617" y="-583.52" font-family="Times,serif" font-size="14.00">reachable_empty_state</text>
</a>
</g>
</g>
<!-- BuildUtils_deploy_contract&#45;&gt;BuildUtils_reachable_empty_state -->
<g id="edge6" class="edge">
<title>BuildUtils_deploy_contract&#45;&gt;BuildUtils_reachable_empty_state</title>
<path fill="none" stroke="black" d="M2418.41,-803.89C2460.73,-757.93 2551.98,-658.83 2594.43,-612.73"/>
<polygon fill="black" stroke="black" points="2597.09,-615.01 2601.29,-605.29 2591.94,-610.27 2597.09,-615.01"/>
</g>
<!-- BuildUtils_permute_queue -->
<g id="node3" class="node">
<title>BuildUtils_permute_queue</title>
<g id="a_node3"><a xlink:href="BuildUtils.html#permute_queue" xlink:title="permute_queue">
<ellipse fill="#7fffd4" stroke="black" cx="239" cy="-829.22" rx="83.37" ry="18"/>
<ellipse fill="none" stroke="black" cx="239" cy="-829.22" rx="87.38" ry="22"/>
<ellipse fill="none" stroke="black" cx="239" cy="-829.22" rx="91.39" ry="26"/>
<text text-anchor="middle" x="239" y="-825.52" font-family="Times,serif" font-size="14.00">permute_queue</text>
</a>
</g>
</g>
<!-- BuildUtils_permute_queue&#45;&gt;BuildUtils_reachable_through_step -->
<g id="edge7" class="edge">
<title>BuildUtils_permute_queue&#45;&gt;BuildUtils_reachable_through_step</title>
<path fill="none" stroke="black" d="M260.19,-803.89C300.13,-758.02 386.16,-659.24 426.41,-613.02"/>
<polygon fill="black" stroke="black" points="429.21,-615.13 433.14,-605.29 423.94,-610.53 429.21,-615.13"/>
</g>
<!-- BuildUtils_discard_invalid_action -->
<g id="node4" class="node">
<title>BuildUtils_discard_invalid_action</title>
<g id="a_node4"><a xlink:href="BuildUtils.html#discard_invalid_action" xlink:title="discard_invalid_action">
<ellipse fill="#7fffd4" stroke="black" cx="687" cy="-829.22" rx="113.17" ry="18"/>
<ellipse fill="none" stroke="black" cx="687" cy="-829.22" rx="117.18" ry="22"/>
<ellipse fill="none" stroke="black" cx="687" cy="-829.22" rx="121.18" ry="26"/>
<text text-anchor="middle" x="687" y="-825.52" font-family="Times,serif" font-size="14.00">discard_invalid_action</text>
</a>
</g>
</g>
<!-- BuildUtils_discard_invalid_action&#45;&gt;BuildUtils_reachable_through_step -->
<g id="edge8" class="edge">
<title>BuildUtils_discard_invalid_action&#45;&gt;BuildUtils_reachable_through_step</title>
<path fill="none" stroke="black" d="M662.32,-803.44C616.23,-757.16 517.6,-658.12 472.02,-612.34"/>
<polygon fill="black" stroke="black" points="474.45,-609.82 464.91,-605.21 469.49,-614.76 474.45,-609.82"/>
</g>
<!-- BuildUtils_evaluate_transfer -->
<g id="node5" class="node">
<title>BuildUtils_evaluate_transfer</title>
<g id="a_node5"><a xlink:href="BuildUtils.html#evaluate_transfer" xlink:title="evaluate_transfer">
<ellipse fill="#7fffd4" stroke="black" cx="448" cy="-829.22" rx="92.1" ry="18"/>
<ellipse fill="none" stroke="black" cx="448" cy="-829.22" rx="96.09" ry="22"/>
<ellipse fill="none" stroke="black" cx="448" cy="-829.22" rx="100.08" ry="26"/>
<text text-anchor="middle" x="448" y="-825.52" font-family="Times,serif" font-size="14.00">evaluate_transfer</text>
</a>
</g>
</g>
<!-- BuildUtils_evaluate_transfer&#45;&gt;BuildUtils_reachable_through_step -->
<g id="edge9" class="edge">
<title>BuildUtils_evaluate_transfer&#45;&gt;BuildUtils_reachable_through_step</title>
<path fill="none" stroke="black" d="M448,-802.99C448,-757.55 448,-662.33 448,-615.46"/>
<polygon fill="black" stroke="black" points="451.5,-615.44 448,-605.44 444.5,-615.44 451.5,-615.44"/>
</g>
<!-- BuildUtils_evaluate_action -->
<g id="node6" class="node">
<title>BuildUtils_evaluate_action</title>
<g id="a_node6"><a xlink:href="BuildUtils.html#evaluate_action" xlink:title="evaluate_action">
<ellipse fill="#7fffd4" stroke="black" cx="917" cy="-829.22" rx="83.37" ry="18"/>
<ellipse fill="none" stroke="black" cx="917" cy="-829.22" rx="87.38" ry="22"/>
<ellipse fill="none" stroke="black" cx="917" cy="-829.22" rx="91.39" ry="26"/>
<text text-anchor="middle" x="917" y="-825.52" font-family="Times,serif" font-size="14.00">evaluate_action</text>
</a>
</g>
</g>
<!-- BuildUtils_wc_receive_to_receive -->
<g id="node11" class="node">
<title>BuildUtils_wc_receive_to_receive</title>
<g id="a_node11"><a xlink:href="BuildUtils.html#wc_receive_to_receive" xlink:title="wc_receive_to_receive">
<ellipse fill="#7fffd4" stroke="black" cx="917" cy="-587.22" rx="113.18" ry="18"/>
<text text-anchor="middle" x="917" y="-583.52" font-family="Times,serif" font-size="14.00">wc_receive_to_receive</text>
</a>
</g>
</g>
<!-- BuildUtils_evaluate_action&#45;&gt;BuildUtils_wc_receive_to_receive -->
<g id="edge10" class="edge">
<title>BuildUtils_evaluate_action&#45;&gt;BuildUtils_wc_receive_to_receive</title>
<path fill="none" stroke="black" d="M917,-802.99C917,-757.55 917,-662.33 917,-615.46"/>
<polygon fill="black" stroke="black" points="920.5,-615.44 917,-605.44 913.5,-615.44 920.5,-615.44"/>
</g>
<!-- BuildUtils_evaluate_action&#45;&gt;BuildUtils_reachable_through_step -->
<g id="edge11" class="edge">
<title>BuildUtils_evaluate_action&#45;&gt;BuildUtils_reachable_through_step</title>
<path fill="none" stroke="black" d="M873.72,-806.08C783.7,-760.01 577.37,-654.43 489.19,-609.3"/>
<polygon fill="black" stroke="black" points="490.78,-606.18 480.28,-604.74 487.59,-612.42 490.78,-606.18"/>
</g>
<!-- BuildUtils_forward_time -->
<g id="node7" class="node">
<title>BuildUtils_forward_time</title>
<g id="a_node7"><a xlink:href="BuildUtils.html#forward_time" xlink:title="forward_time">
<ellipse fill="#7fffd4" stroke="black" cx="1118" cy="-1314.22" rx="72.61" ry="18"/>
<ellipse fill="none" stroke="black" cx="1118" cy="-1314.22" rx="76.6" ry="22"/>
<ellipse fill="none" stroke="black" cx="1118" cy="-1314.22" rx="80.59" ry="26"/>
<text text-anchor="middle" x="1118" y="-1310.52" font-family="Times,serif" font-size="14.00">forward_time</text>
</a>
</g>
</g>
<!-- BuildUtils_forward_time_exact -->
<g id="node8" class="node">
<title>BuildUtils_forward_time_exact</title>
<g id="a_node8"><a xlink:href="BuildUtils.html#forward_time_exact" xlink:title="forward_time_exact">
<ellipse fill="#7fffd4" stroke="black" cx="767" cy="-1072.22" rx="102.08" ry="18"/>
<text text-anchor="middle" x="767" y="-1068.52" font-family="Times,serif" font-size="14.00">forward_time_exact</text>
</a>
</g>
</g>
<!-- BuildUtils_forward_time&#45;&gt;BuildUtils_forward_time_exact -->
<g id="edge12" class="edge">
<title>BuildUtils_forward_time&#45;&gt;BuildUtils_forward_time_exact</title>
<path fill="none" stroke="black" d="M1084.66,-1290.43C1017.52,-1244.52 866.72,-1141.41 799.92,-1095.73"/>
<polygon fill="black" stroke="black" points="801.68,-1092.69 791.45,-1089.94 797.72,-1098.47 801.68,-1092.69"/>
</g>
<!-- BuildUtils_add_block -->
<g id="node9" class="node">
<title>BuildUtils_add_block</title>
<g id="a_node9"><a xlink:href="BuildUtils.html#add_block" xlink:title="add_block">
<ellipse fill="#7fffd4" stroke="black" cx="73" cy="-829.22" rx="56.59" ry="18"/>
<text text-anchor="middle" x="73" y="-825.52" font-family="Times,serif" font-size="14.00">add_block</text>
</a>
</g>
</g>
<!-- BuildUtils_forward_time_exact&#45;&gt;BuildUtils_add_block -->
<g id="edge13" class="edge">
<title>BuildUtils_forward_time_exact&#45;&gt;BuildUtils_add_block</title>
<path fill="none" stroke="black" d="M721.13,-1055.99C617.18,-1021.34 355.87,-933.57 139,-855.22 131.95,-852.68 124.5,-849.92 117.24,-847.2"/>
<polygon fill="black" stroke="black" points="118.11,-843.79 107.52,-843.53 115.64,-850.33 118.11,-843.79"/>
</g>
<!-- BuildUtils_add_block&#45;&gt;BuildUtils_reachable_through_step -->
<g id="edge14" class="edge">
<title>BuildUtils_add_block&#45;&gt;BuildUtils_reachable_through_step</title>
<path fill="none" stroke="black" d="M97.03,-812.85C161.42,-771.64 338.03,-658.6 413.29,-610.44"/>
<polygon fill="black" stroke="black" points="415.42,-613.23 421.95,-604.89 411.65,-607.34 415.42,-613.23"/>
</g>
<!-- BuildUtils_finalized_heigh_chain_height -->
<g id="node34" class="node">
<title>BuildUtils_finalized_heigh_chain_height</title>
<g id="a_node34"><a xlink:href="BuildUtils.html#finalized_heigh_chain_height" xlink:title="finalized_heigh_chain_height">
<ellipse fill="#7fffd4" stroke="black" cx="160" cy="-587.22" rx="143.77" ry="18"/>
<text text-anchor="middle" x="160" y="-583.52" font-family="Times,serif" font-size="14.00">finalized_heigh_chain_height</text>
</a>
</g>
</g>
<!-- BuildUtils_add_block&#45;&gt;BuildUtils_finalized_heigh_chain_height -->
<g id="edge15" class="edge">
<title>BuildUtils_add_block&#45;&gt;BuildUtils_finalized_heigh_chain_height</title>
<path fill="none" stroke="black" d="M79.26,-810.96C94.24,-769.62 132.28,-664.69 150.28,-615.04"/>
<polygon fill="black" stroke="black" points="153.68,-615.92 153.8,-605.33 147.1,-613.54 153.68,-615.92"/>
</g>
<!-- BuildUtils_empty_queue -->
<g id="node12" class="node">
<title>BuildUtils_empty_queue</title>
<g id="a_node12"><a xlink:href="BuildUtils.html#empty_queue" xlink:title="empty_queue">
<ellipse fill="#7fffd4" stroke="black" cx="1962" cy="-829.22" rx="72.61" ry="18"/>
<ellipse fill="none" stroke="black" cx="1962" cy="-829.22" rx="76.6" ry="22"/>
<ellipse fill="none" stroke="black" cx="1962" cy="-829.22" rx="80.59" ry="26"/>
<text text-anchor="middle" x="1962" y="-825.52" font-family="Times,serif" font-size="14.00">empty_queue</text>
</a>
</g>
</g>
<!-- BuildUtils_emptyable -->
<g id="node15" class="node">
<title>BuildUtils_emptyable</title>
<g id="a_node15"><a xlink:href="BuildUtils.html#emptyable" xlink:title="emptyable">
<ellipse fill="#f070d1" stroke="black" cx="1172" cy="-587.22" rx="59.59" ry="18"/>
<text text-anchor="middle" x="1172" y="-583.52" font-family="Times,serif" font-size="14.00">emptyable</text>
</a>
</g>
</g>
<!-- BuildUtils_empty_queue&#45;&gt;BuildUtils_emptyable -->
<g id="edge16" class="edge">
<title>BuildUtils_empty_queue&#45;&gt;BuildUtils_emptyable</title>
<path fill="none" stroke="black" d="M1904.55,-810.77C1756.14,-765.69 1361.85,-645.9 1222.03,-603.42"/>
<polygon fill="black" stroke="black" points="1223,-600.06 1212.41,-600.5 1220.96,-606.76 1223,-600.06"/>
</g>
<!-- BuildUtils_action_evaluation_decidable -->
<g id="node17" class="node">
<title>BuildUtils_action_evaluation_decidable</title>
<g id="a_node17"><a xlink:href="BuildUtils.html#action_evaluation_decidable" xlink:title="action_evaluation_decidable">
<ellipse fill="#7fffd4" stroke="black" cx="1660" cy="-587.22" rx="140.28" ry="18"/>
<text text-anchor="middle" x="1660" y="-583.52" font-family="Times,serif" font-size="14.00">action_evaluation_decidable</text>
</a>
</g>
</g>
<!-- BuildUtils_empty_queue&#45;&gt;BuildUtils_action_evaluation_decidable -->
<g id="edge17" class="edge">
<title>BuildUtils_empty_queue&#45;&gt;BuildUtils_action_evaluation_decidable</title>
<path fill="none" stroke="black" d="M1932.49,-804.78C1874.63,-758.8 1746.92,-657.3 1689.26,-611.48"/>
<polygon fill="black" stroke="black" points="1691.28,-608.61 1681.28,-605.13 1686.93,-614.09 1691.28,-608.61"/>
</g>
<!-- BuildUtils_empty_queue&#45;&gt;BuildUtils_reachable_through_reachable -->
<g id="edge18" class="edge">
<title>BuildUtils_empty_queue&#45;&gt;BuildUtils_reachable_through_reachable</title>
<path fill="none" stroke="black" d="M1980.55,-803.89C2015.46,-758.12 2090.54,-659.65 2125.87,-613.31"/>
<polygon fill="black" stroke="black" points="2128.71,-615.36 2131.99,-605.29 2123.14,-611.12 2128.71,-615.36"/>
</g>
<!-- BuildUtils_empty_queue&#45;&gt;BuildUtils_reachable_through_step -->
<g id="edge19" class="edge">
<title>BuildUtils_empty_queue&#45;&gt;BuildUtils_reachable_through_step</title>
<path fill="none" stroke="black" d="M1904.16,-811.05C1893.52,-808.2 1882.47,-805.46 1872,-803.22 1383.58,-698.92 790.36,-626.49 553.28,-599.69"/>
<polygon fill="black" stroke="black" points="553.61,-596.21 543.28,-598.57 552.83,-603.17 553.61,-596.21"/>
</g>
<!-- BuildUtils_empty_queue&#45;&gt;BuildUtils_reachable_through_trans -->
<g id="edge20" class="edge">
<title>BuildUtils_empty_queue&#45;&gt;BuildUtils_reachable_through_trans</title>
<path fill="none" stroke="black" d="M1913.55,-808.38C1803.48,-763.3 1535.62,-653.6 1425.02,-608.3"/>
<polygon fill="black" stroke="black" points="1426.02,-604.93 1415.44,-604.38 1423.37,-611.41 1426.02,-604.93"/>
</g>
<!-- BuildUtils_reachable_step -->
<g id="node35" class="node">
<title>BuildUtils_reachable_step</title>
<g id="a_node35"><a xlink:href="BuildUtils.html#reachable_step" xlink:title="reachable_step">
<ellipse fill="#7fffd4" stroke="black" cx="1899" cy="-587.22" rx="80.69" ry="18"/>
<text text-anchor="middle" x="1899" y="-583.52" font-family="Times,serif" font-size="14.00">reachable_step</text>
</a>
</g>
</g>
<!-- BuildUtils_empty_queue&#45;&gt;BuildUtils_reachable_step -->
<g id="edge21" class="edge">
<title>BuildUtils_empty_queue&#45;&gt;BuildUtils_reachable_step</title>
<path fill="none" stroke="black" d="M1955.38,-802.99C1943.42,-757.46 1918.35,-661.93 1906.07,-615.17"/>
<polygon fill="black" stroke="black" points="1909.44,-614.22 1903.52,-605.44 1902.67,-616 1909.44,-614.22"/>
</g>
<!-- BuildUtils_emptyable_cons -->
<g id="node13" class="node">
<title>BuildUtils_emptyable_cons</title>
<g id="a_node13"><a xlink:href="BuildUtils.html#emptyable_cons" xlink:title="emptyable_cons">
<ellipse fill="#7fffd4" stroke="black" cx="1429" cy="-829.22" rx="85.27" ry="18"/>
<ellipse fill="none" stroke="black" cx="1429" cy="-829.22" rx="89.28" ry="22"/>
<ellipse fill="none" stroke="black" cx="1429" cy="-829.22" rx="93.29" ry="26"/>
<text text-anchor="middle" x="1429" y="-825.52" font-family="Times,serif" font-size="14.00">emptyable_cons</text>
</a>
</g>
</g>
<!-- BuildUtils_emptyable_cons&#45;&gt;BuildUtils_emptyable -->
<g id="edge22" class="edge">
<title>BuildUtils_emptyable_cons&#45;&gt;BuildUtils_emptyable</title>
<path fill="none" stroke="black" d="M1402.94,-803.89C1353.38,-757.61 1246.13,-657.45 1197.22,-611.78"/>
<polygon fill="black" stroke="black" points="1199.31,-608.94 1189.62,-604.67 1194.54,-614.06 1199.31,-608.94"/>
</g>
<!-- BuildUtils_empty_queue_is_emptyable -->
<g id="node14" class="node">
<title>BuildUtils_empty_queue_is_emptyable</title>
<g id="a_node14"><a xlink:href="BuildUtils.html#empty_queue_is_emptyable" xlink:title="empty_queue_is_emptyable">
<ellipse fill="#7fffd4" stroke="black" cx="1172" cy="-829.22" rx="137.59" ry="18"/>
<ellipse fill="none" stroke="black" cx="1172" cy="-829.22" rx="141.58" ry="22"/>
<ellipse fill="none" stroke="black" cx="1172" cy="-829.22" rx="145.58" ry="26"/>
<text text-anchor="middle" x="1172" y="-825.52" font-family="Times,serif" font-size="14.00">empty_queue_is_emptyable</text>
</a>
</g>
</g>
<!-- BuildUtils_empty_queue_is_emptyable&#45;&gt;BuildUtils_emptyable -->
<g id="edge23" class="edge">
<title>BuildUtils_empty_queue_is_emptyable&#45;&gt;BuildUtils_emptyable</title>
<path fill="none" stroke="black" d="M1172,-802.99C1172,-757.55 1172,-662.33 1172,-615.46"/>
<polygon fill="black" stroke="black" points="1175.5,-615.44 1172,-605.44 1168.5,-615.44 1175.5,-615.44"/>
</g>
<!-- BuildUtils_produces_no_new_acts -->
<g id="node16" class="node">
<title>BuildUtils_produces_no_new_acts</title>
<g id="a_node16"><a xlink:href="BuildUtils.html#produces_no_new_acts" xlink:title="produces_no_new_acts">
<ellipse fill="#f070d1" stroke="black" cx="1045" cy="-345.22" rx="115.88" ry="18"/>
<text text-anchor="middle" x="1045" y="-341.52" font-family="Times,serif" font-size="14.00">produces_no_new_acts</text>
</a>
</g>
</g>
<!-- BuildUtils_emptyable&#45;&gt;BuildUtils_produces_no_new_acts -->
<g id="edge24" class="edge">
<title>BuildUtils_emptyable&#45;&gt;BuildUtils_produces_no_new_acts</title>
<path fill="none" stroke="black" d="M1163.07,-569.35C1141.26,-528.14 1085.16,-422.12 1058.92,-372.53"/>
<polygon fill="black" stroke="black" points="1061.86,-370.61 1054.09,-363.4 1055.67,-373.88 1061.86,-370.61"/>
</g>
<!-- BuildUtils_deployable_address_decidable -->
<g id="node18" class="node">
<title>BuildUtils_deployable_address_decidable</title>
<g id="a_node18"><a xlink:href="BuildUtils.html#deployable_address_decidable" xlink:title="deployable_address_decidable">
<ellipse fill="#ffb57f" stroke="black" cx="1350" cy="-345.22" rx="150.57" ry="18"/>
<text text-anchor="middle" x="1350" y="-341.52" font-family="Times,serif" font-size="14.00">deployable_address_decidable</text>
</a>
</g>
</g>
<!-- BuildUtils_action_evaluation_decidable&#45;&gt;BuildUtils_deployable_address_decidable -->
<g id="edge25" class="edge">
<title>BuildUtils_action_evaluation_decidable&#45;&gt;BuildUtils_deployable_address_decidable</title>
<path fill="none" stroke="black" d="M1638.2,-569.35C1583.84,-527.26 1442.18,-417.59 1380,-369.45"/>
<polygon fill="black" stroke="black" points="1381.82,-366.44 1371.77,-363.08 1377.54,-371.97 1381.82,-366.44"/>
</g>
<!-- BuildUtils_receiver_can_receive_transfer -->
<g id="node19" class="node">
<title>BuildUtils_receiver_can_receive_transfer</title>
<g id="a_node19"><a xlink:href="BuildUtils.html#receiver_can_receive_transfer" xlink:title="receiver_can_receive_transfer">
<ellipse fill="#f070d1" stroke="black" cx="862" cy="-1314.22" rx="149.47" ry="18"/>
<ellipse fill="none" stroke="black" cx="862" cy="-1314.22" rx="153.47" ry="22"/>
<ellipse fill="none" stroke="black" cx="862" cy="-1314.22" rx="157.47" ry="26"/>
<text text-anchor="middle" x="862" y="-1310.52" font-family="Times,serif" font-size="14.00">receiver_can_receive_transfer</text>
</a>
</g>
</g>
<!-- BuildUtils_deployment_amount_nonnegative -->
<g id="node20" class="node">
<title>BuildUtils_deployment_amount_nonnegative</title>
<g id="a_node20"><a xlink:href="BuildUtils.html#deployment_amount_nonnegative" xlink:title="deployment_amount_nonnegative">
<ellipse fill="#7fffd4" stroke="black" cx="512" cy="-1314.22" rx="166.28" ry="18"/>
<ellipse fill="none" stroke="black" cx="512" cy="-1314.22" rx="170.27" ry="22"/>
<ellipse fill="none" stroke="black" cx="512" cy="-1314.22" rx="174.27" ry="26"/>
<text text-anchor="middle" x="512" y="-1310.52" font-family="Times,serif" font-size="14.00">deployment_amount_nonnegative</text>
</a>
</g>
</g>
<!-- BuildUtils_reachable_through_finalized_height -->
<g id="node21" class="node">
<title>BuildUtils_reachable_through_finalized_height</title>
<g id="a_node21"><a xlink:href="BuildUtils.html#reachable_through_finalized_height" xlink:title="reachable_through_finalized_height">
<ellipse fill="#7fffd4" stroke="black" cx="728" cy="-345.22" rx="174.68" ry="18"/>
<ellipse fill="none" stroke="black" cx="728" cy="-345.22" rx="178.67" ry="22"/>
<ellipse fill="none" stroke="black" cx="728" cy="-345.22" rx="182.67" ry="26"/>
<text text-anchor="middle" x="728" y="-341.52" font-family="Times,serif" font-size="14.00">reachable_through_finalized_height</text>
</a>
</g>
</g>
<!-- BuildUtils_reachable_through -->
<g id="node31" class="node">
<title>BuildUtils_reachable_through</title>
<g id="a_node31"><a xlink:href="BuildUtils.html#reachable_through" xlink:title="reachable_through">
<ellipse fill="#f070d1" stroke="black" cx="1520" cy="-103.22" rx="97.48" ry="18"/>
<text text-anchor="middle" x="1520" y="-99.52" font-family="Times,serif" font-size="14.00">reachable_through</text>
</a>
</g>
</g>
<!-- BuildUtils_reachable_through_finalized_height&#45;&gt;BuildUtils_reachable_through -->
<g id="edge26" class="edge">
<title>BuildUtils_reachable_through_finalized_height&#45;&gt;BuildUtils_reachable_through</title>
<path fill="none" stroke="black" d="M803.22,-321.43C960.28,-273.84 1320.15,-164.79 1461.48,-121.96"/>
<polygon fill="black" stroke="black" points="1462.72,-125.24 1471.28,-118.99 1460.69,-118.54 1462.72,-125.24"/>
</g>
<!-- BuildUtils_reachable_through_current_slot -->
<g id="node22" class="node">
<title>BuildUtils_reachable_through_current_slot</title>
<g id="a_node22"><a xlink:href="BuildUtils.html#reachable_through_current_slot" xlink:title="reachable_through_current_slot">
<ellipse fill="#7fffd4" stroke="black" cx="2840" cy="-345.22" rx="157.88" ry="18"/>
<ellipse fill="none" stroke="black" cx="2840" cy="-345.22" rx="161.87" ry="22"/>
<ellipse fill="none" stroke="black" cx="2840" cy="-345.22" rx="165.87" ry="26"/>
<text text-anchor="middle" x="2840" y="-341.52" font-family="Times,serif" font-size="14.00">reachable_through_current_slot</text>
</a>
</g>
</g>
<!-- BuildUtils_reachable_through_current_slot&#45;&gt;BuildUtils_reachable_through -->
<g id="edge27" class="edge">
<title>BuildUtils_reachable_through_current_slot&#45;&gt;BuildUtils_reachable_through</title>
<path fill="none" stroke="black" d="M2734.76,-325.09C2477.61,-278.33 1821.94,-159.12 1597.07,-118.24"/>
<polygon fill="black" stroke="black" points="1597.47,-114.75 1587.01,-116.41 1596.22,-121.64 1597.47,-114.75"/>
</g>
<!-- BuildUtils_reachable_through_chain_height -->
<g id="node23" class="node">
<title>BuildUtils_reachable_through_chain_height</title>
<g id="a_node23"><a xlink:href="BuildUtils.html#reachable_through_chain_height" xlink:title="reachable_through_chain_height">
<ellipse fill="#7fffd4" stroke="black" cx="2487" cy="-345.22" rx="161.36" ry="18"/>
<ellipse fill="none" stroke="black" cx="2487" cy="-345.22" rx="165.37" ry="22"/>
<ellipse fill="none" stroke="black" cx="2487" cy="-345.22" rx="169.37" ry="26"/>
<text text-anchor="middle" x="2487" y="-341.52" font-family="Times,serif" font-size="14.00">reachable_through_chain_height</text>
</a>
</g>
</g>
<!-- BuildUtils_reachable_through_chain_height&#45;&gt;BuildUtils_reachable_through -->
<g id="edge28" class="edge">
<title>BuildUtils_reachable_through_chain_height&#45;&gt;BuildUtils_reachable_through</title>
<path fill="none" stroke="black" d="M2400.76,-322.82C2209.91,-275.45 1755.32,-162.63 1585.49,-120.48"/>
<polygon fill="black" stroke="black" points="1586.23,-117.06 1575.68,-118.04 1584.55,-123.85 1586.23,-117.06"/>
</g>
<!-- BuildUtils_reachable_through_contract_state -->
<g id="node24" class="node">
<title>BuildUtils_reachable_through_contract_state</title>
<g id="a_node24"><a xlink:href="BuildUtils.html#reachable_through_contract_state" xlink:title="reachable_through_contract_state">
<ellipse fill="#7fffd4" stroke="black" cx="2123" cy="-345.22" rx="168.18" ry="18"/>
<ellipse fill="none" stroke="black" cx="2123" cy="-345.22" rx="172.17" ry="22"/>
<ellipse fill="none" stroke="black" cx="2123" cy="-345.22" rx="176.17" ry="26"/>
<text text-anchor="middle" x="2123" y="-341.52" font-family="Times,serif" font-size="14.00">reachable_through_contract_state</text>
</a>
</g>
</g>
<!-- BuildUtils_reachable_through_contract_state&#45;&gt;BuildUtils_reachable_through -->
<g id="edge29" class="edge">
<title>BuildUtils_reachable_through_contract_state&#45;&gt;BuildUtils_reachable_through</title>
<path fill="none" stroke="black" d="M2063.81,-320.67C1944.7,-273.26 1678.13,-167.16 1568.5,-123.53"/>
<polygon fill="black" stroke="black" points="1569.6,-120.2 1559.01,-119.75 1567.01,-126.7 1569.6,-120.2"/>
</g>
<!-- BuildUtils_reachable_through_contract_deployed -->
<g id="node25" class="node">
<title>BuildUtils_reachable_through_contract_deployed</title>
<g id="a_node25"><a xlink:href="BuildUtils.html#reachable_through_contract_deployed" xlink:title="reachable_through_contract_deployed">
<ellipse fill="#7fffd4" stroke="black" cx="1734" cy="-345.22" rx="186.57" ry="18"/>
<ellipse fill="none" stroke="black" cx="1734" cy="-345.22" rx="190.57" ry="22"/>
<ellipse fill="none" stroke="black" cx="1734" cy="-345.22" rx="194.57" ry="26"/>
<text text-anchor="middle" x="1734" y="-341.52" font-family="Times,serif" font-size="14.00">reachable_through_contract_deployed</text>
</a>
</g>
</g>
<!-- BuildUtils_reachable_through_contract_deployed&#45;&gt;BuildUtils_reachable_through -->
<g id="edge30" class="edge">
<title>BuildUtils_reachable_through_contract_deployed&#45;&gt;BuildUtils_reachable_through</title>
<path fill="none" stroke="black" d="M1711.5,-318.99C1670.2,-272.67 1582.77,-174.63 1541.91,-128.8"/>
<polygon fill="black" stroke="black" points="1544.34,-126.27 1535.07,-121.13 1539.12,-130.92 1544.34,-126.27"/>
</g>
<!-- BuildUtils_reachable_through_reachable&#45;&gt;BuildUtils_reachable_through -->
<g id="edge31" class="edge">
<title>BuildUtils_reachable_through_reachable&#45;&gt;BuildUtils_reachable_through</title>
<path fill="none" stroke="black" d="M2072.6,-571.51C1924.69,-539.86 1596.17,-460.85 1530,-371.22 1502.44,-333.9 1511.85,-191.86 1517.28,-131.56"/>
<polygon fill="black" stroke="black" points="1520.79,-131.58 1518.23,-121.3 1513.82,-130.93 1520.79,-131.58"/>
</g>
<!-- BuildUtils_reachable_through_trans_ -->
<g id="node29" class="node">
<title>BuildUtils_reachable_through_trans_</title>
<g id="a_node29"><a xlink:href="BuildUtils.html#reachable_through_trans'" xlink:title="reachable_through_trans&#39;">
<ellipse fill="#7fffd4" stroke="black" cx="398" cy="-345.22" rx="128.88" ry="18"/>
<text text-anchor="middle" x="398" y="-341.52" font-family="Times,serif" font-size="14.00">reachable_through_trans&#39;</text>
</a>
</g>
</g>
<!-- BuildUtils_reachable_through_step&#45;&gt;BuildUtils_reachable_through_trans_ -->
<g id="edge32" class="edge">
<title>BuildUtils_reachable_through_step&#45;&gt;BuildUtils_reachable_through_trans_</title>
<path fill="none" stroke="black" d="M444.4,-568.96C435.81,-527.71 414.02,-423.13 403.65,-373.35"/>
<polygon fill="black" stroke="black" points="407.03,-372.4 401.56,-363.33 400.18,-373.83 407.03,-372.4"/>
</g>
<!-- BuildUtils_reachable_through_refl -->
<g id="node30" class="node">
<title>BuildUtils_reachable_through_refl</title>
<g id="a_node30"><a xlink:href="BuildUtils.html#reachable_through_refl" xlink:title="reachable_through_refl">
<ellipse fill="#7fffd4" stroke="black" cx="134" cy="-345.22" rx="117.78" ry="18"/>
<text text-anchor="middle" x="134" y="-341.52" font-family="Times,serif" font-size="14.00">reachable_through_refl</text>
</a>
</g>
</g>
<!-- BuildUtils_reachable_through_step&#45;&gt;BuildUtils_reachable_through_refl -->
<g id="edge33" class="edge">
<title>BuildUtils_reachable_through_step&#45;&gt;BuildUtils_reachable_through_refl</title>
<path fill="none" stroke="black" d="M425.92,-569.35C370.74,-527.18 226.79,-417.14 164.01,-369.16"/>
<polygon fill="black" stroke="black" points="166.13,-366.37 156.06,-363.08 161.88,-371.94 166.13,-366.37"/>
</g>
<!-- BuildUtils_reachable_through_trans&#45;&gt;BuildUtils_reachable_through -->
<g id="edge34" class="edge">
<title>BuildUtils_reachable_through_trans&#45;&gt;BuildUtils_reachable_through</title>
<path fill="none" stroke="black" d="M1348.36,-569.6C1284.33,-528.86 1135.35,-420.05 1190,-319.22 1247.81,-212.57 1383.98,-150.48 1462.14,-122.42"/>
<polygon fill="black" stroke="black" points="1463.57,-125.62 1471.84,-119 1461.24,-119.02 1463.57,-125.62"/>
</g>
<!-- BuildUtils_reachable_through_trans_&#45;&gt;BuildUtils_reachable_through -->
<g id="edge35" class="edge">
<title>BuildUtils_reachable_through_trans_&#45;&gt;BuildUtils_reachable_through</title>
<path fill="none" stroke="black" d="M465.24,-329.84C663.65,-287.4 1245.43,-162.96 1448.82,-119.45"/>
<polygon fill="black" stroke="black" points="1449.75,-122.83 1458.79,-117.32 1448.28,-115.99 1449.75,-122.83"/>
</g>
<!-- BuildUtils_reachable_through_refl&#45;&gt;BuildUtils_reachable_through -->
<g id="edge36" class="edge">
<title>BuildUtils_reachable_through_refl&#45;&gt;BuildUtils_reachable_through</title>
<path fill="none" stroke="black" d="M201.62,-330.46C220.49,-326.71 241.03,-322.72 260,-319.22 704.28,-237.26 1238.79,-149.69 1439.04,-117.26"/>
<polygon fill="black" stroke="black" points="1439.87,-120.68 1449.18,-115.62 1438.75,-113.77 1439.87,-120.68"/>
</g>
<!-- BuildUtils_contract_states_addr_format -->
<g id="node32" class="node">
<title>BuildUtils_contract_states_addr_format</title>
<g id="a_node32"><a xlink:href="BuildUtils.html#contract_states_addr_format" xlink:title="contract_states_addr_format">
<ellipse fill="#7fffd4" stroke="black" cx="168" cy="-1314.22" rx="143.77" ry="18"/>
<ellipse fill="none" stroke="black" cx="168" cy="-1314.22" rx="147.77" ry="22"/>
<ellipse fill="none" stroke="black" cx="168" cy="-1314.22" rx="151.77" ry="26"/>
<text text-anchor="middle" x="168" y="-1310.52" font-family="Times,serif" font-size="14.00">contract_states_addr_format</text>
</a>
</g>
</g>
<!-- BuildUtils_contract_states_deployed -->
<g id="node33" class="node">
<title>BuildUtils_contract_states_deployed</title>
<g id="a_node33"><a xlink:href="BuildUtils.html#contract_states_deployed" xlink:title="contract_states_deployed">
<ellipse fill="#7fffd4" stroke="black" cx="168" cy="-1072.22" rx="128.08" ry="18"/>
<text text-anchor="middle" x="168" y="-1068.52" font-family="Times,serif" font-size="14.00">contract_states_deployed</text>
</a>
</g>
</g>
<!-- BuildUtils_contract_states_addr_format&#45;&gt;BuildUtils_contract_states_deployed -->
<g id="edge37" class="edge">
<title>BuildUtils_contract_states_addr_format&#45;&gt;BuildUtils_contract_states_deployed</title>
<path fill="none" stroke="black" d="M168,-1287.99C168,-1242.55 168,-1147.33 168,-1100.46"/>
<polygon fill="black" stroke="black" points="171.5,-1100.44 168,-1090.44 164.5,-1100.44 171.5,-1100.44"/>
</g>
</g>
</svg>
