<?xml version="1.0" encoding="UTF-8" standalone="no"?>
<!DOCTYPE svg PUBLIC "-//W3C//DTD SVG 1.1//EN"
 "http://www.w3.org/Graphics/SVG/1.1/DTD/svg11.dtd">
<!-- Generated by graphviz version 2.43.0 (0)
 -->
<!-- Title: PCUICFacts Pages: 1 -->
<svg width="2578pt" height="1293pt"
 viewBox="0.00 0.00 2578.00 1293.00" xmlns="http://www.w3.org/2000/svg" xmlns:xlink="http://www.w3.org/1999/xlink">
<g id="graph0" class="graph" transform="scale(1 1) rotate(0) translate(4 1289)">
<title>PCUICFacts</title>
<polygon fill="white" stroke="transparent" points="-4,4 -4,-1289 2574,-1289 2574,4 -4,4"/>
<g id="clust1" class="cluster">
<title>cluster_PCUICFacts</title>
<polygon fill="#ffffc3" stroke="black" points="8,-20.6 8,-1264.4 2562,-1264.4 2562,-20.6 8,-20.6"/>
<text text-anchor="middle" x="59.5" y="-1249.2" font-family="Times,serif" font-size="14.00">PCUICFacts</text>
</g>
<!-- PCUICFacts_valid_env_ty_expr_env_ok -->
<g id="node1" class="node">
<title>PCUICFacts_valid_env_ty_expr_env_ok</title>
<g id="a_node1"><a xlink:href="PCUICFacts.html#valid_env_ty_expr_env_ok" xlink:title="valid_env_ty_expr_env_ok">
<ellipse fill="#7fffd4" stroke="black" cx="623" cy="-478.6" rx="129.19" ry="18"/>
<ellipse fill="none" stroke="black" cx="623" cy="-478.6" rx="133.18" ry="22"/>
<ellipse fill="none" stroke="black" cx="623" cy="-478.6" rx="137.18" ry="26"/>
<text text-anchor="middle" x="623" y="-474.9" font-family="Times,serif" font-size="14.00">valid_env_ty_expr_env_ok</text>
</a>
</g>
</g>
<!-- PCUICFacts_valid_ty_env_ty_env_ok -->
<g id="node2" class="node">
<title>PCUICFacts_valid_ty_env_ty_env_ok</title>
<g id="a_node2"><a xlink:href="PCUICFacts.html#valid_ty_env_ty_env_ok" xlink:title="valid_ty_env_ty_env_ok">
<ellipse fill="#7fffd4" stroke="black" cx="623" cy="-272.6" rx="117.78" ry="18"/>
<text text-anchor="middle" x="623" y="-268.9" font-family="Times,serif" font-size="14.00">valid_ty_env_ty_env_ok</text>
</a>
</g>
</g>
<!-- PCUICFacts_valid_env_ty_expr_env_ok&#45;&gt;PCUICFacts_valid_ty_env_ty_env_ok -->
<g id="edge1" class="edge">
<title>PCUICFacts_valid_env_ty_expr_env_ok&#45;&gt;PCUICFacts_valid_ty_env_ty_env_ok</title>
<path fill="none" stroke="black" d="M623,-452.59C623,-414.09 623,-340.62 623,-300.83"/>
<polygon fill="black" stroke="black" points="626.5,-300.79 623,-290.79 619.5,-300.79 626.5,-300.79"/>
</g>
<!-- PCUICFacts_expr_elim_case -->
<g id="node35" class="node">
<title>PCUICFacts_expr_elim_case</title>
<g id="a_node35"><a xlink:href="PCUICFacts.html#expr_elim_case" xlink:title="expr_elim_case">
<ellipse fill="#f070d1" stroke="black" cx="397" cy="-272.6" rx="81.49" ry="18"/>
<text text-anchor="middle" x="397" y="-268.9" font-family="Times,serif" font-size="14.00">expr_elim_case</text>
</a>
</g>
</g>
<!-- PCUICFacts_valid_env_ty_expr_env_ok&#45;&gt;PCUICFacts_expr_elim_case -->
<g id="edge2" class="edge">
<title>PCUICFacts_valid_env_ty_expr_env_ok&#45;&gt;PCUICFacts_expr_elim_case</title>
<path fill="none" stroke="black" d="M595.74,-452.99C551.86,-413.39 466.15,-336.02 423.05,-297.12"/>
<polygon fill="black" stroke="black" points="425.29,-294.42 415.52,-290.32 420.6,-299.62 425.29,-294.42"/>
</g>
<!-- PCUICFacts_lookup_i_nth_error -->
<g id="node10" class="node">
<title>PCUICFacts_lookup_i_nth_error</title>
<g id="a_node10"><a xlink:href="PCUICFacts.html#lookup_i_nth_error" xlink:title="lookup_i_nth_error">
<ellipse fill="#7fffd4" stroke="black" cx="623" cy="-87.6" rx="96.68" ry="18"/>
<text text-anchor="middle" x="623" y="-83.9" font-family="Times,serif" font-size="14.00">lookup_i_nth_error</text>
</a>
</g>
</g>
<!-- PCUICFacts_valid_ty_env_ty_env_ok&#45;&gt;PCUICFacts_lookup_i_nth_error -->
<g id="edge3" class="edge">
<title>PCUICFacts_valid_ty_env_ty_env_ok&#45;&gt;PCUICFacts_lookup_i_nth_error</title>
<path fill="none" stroke="black" d="M623,-254.39C623,-222.56 623,-154.29 623,-116.03"/>
<polygon fill="black" stroke="black" points="626.5,-115.64 623,-105.64 619.5,-115.64 626.5,-115.64"/>
</g>
<!-- PCUICFacts_find_some_fst -->
<g id="node3" class="node">
<title>PCUICFacts_find_some_fst</title>
<g id="a_node3"><a xlink:href="PCUICFacts.html#find_some_fst" xlink:title="find_some_fst">
<ellipse fill="#7fffd4" stroke="black" cx="2473" cy="-1117.6" rx="73.39" ry="18"/>
<ellipse fill="none" stroke="black" cx="2473" cy="-1117.6" rx="77.39" ry="22"/>
<ellipse fill="none" stroke="black" cx="2473" cy="-1117.6" rx="81.39" ry="26"/>
<text text-anchor="middle" x="2473" y="-1113.9" font-family="Times,serif" font-size="14.00">find_some_fst</text>
</a>
</g>
</g>
<!-- PCUICFacts_find_some_fst_map_snd -->
<g id="node4" class="node">
<title>PCUICFacts_find_some_fst_map_snd</title>
<g id="a_node4"><a xlink:href="PCUICFacts.html#find_some_fst_map_snd" xlink:title="find_some_fst_map_snd">
<ellipse fill="#f070d1" stroke="black" cx="2247" cy="-1117.6" rx="118.88" ry="18"/>
<ellipse fill="none" stroke="black" cx="2247" cy="-1117.6" rx="122.88" ry="22"/>
<ellipse fill="none" stroke="black" cx="2247" cy="-1117.6" rx="126.88" ry="26"/>
<text text-anchor="middle" x="2247" y="-1113.9" font-family="Times,serif" font-size="14.00">find_some_fst_map_snd</text>
</a>
</g>
</g>
<!-- PCUICFacts_find_none_fst -->
<g id="node5" class="node">
<title>PCUICFacts_find_none_fst</title>
<g id="a_node5"><a xlink:href="PCUICFacts.html#find_none_fst" xlink:title="find_none_fst">
<ellipse fill="#7fffd4" stroke="black" cx="2023" cy="-1117.6" rx="71.49" ry="18"/>
<ellipse fill="none" stroke="black" cx="2023" cy="-1117.6" rx="75.49" ry="22"/>
<ellipse fill="none" stroke="black" cx="2023" cy="-1117.6" rx="79.49" ry="26"/>
<text text-anchor="middle" x="2023" y="-1113.9" font-family="Times,serif" font-size="14.00">find_none_fst</text>
</a>
</g>
</g>
<!-- PCUICFacts_find_forallb -->
<g id="node6" class="node">
<title>PCUICFacts_find_forallb</title>
<g id="a_node6"><a xlink:href="PCUICFacts.html#find_forallb" xlink:title="find_forallb">
<ellipse fill="#7fffd4" stroke="black" cx="1854" cy="-1117.6" rx="63.08" ry="18"/>
<ellipse fill="none" stroke="black" cx="1854" cy="-1117.6" rx="67.09" ry="22"/>
<ellipse fill="none" stroke="black" cx="1854" cy="-1117.6" rx="71.09" ry="26"/>
<text text-anchor="middle" x="1854" y="-1113.9" font-family="Times,serif" font-size="14.00">find_forallb</text>
</a>
</g>
</g>
<!-- PCUICFacts_find_forallb_map -->
<g id="node7" class="node">
<title>PCUICFacts_find_forallb_map</title>
<g id="a_node7"><a xlink:href="PCUICFacts.html#find_forallb_map" xlink:title="find_forallb_map">
<ellipse fill="#7fffd4" stroke="black" cx="2186" cy="-890.6" rx="87.18" ry="18"/>
<text text-anchor="middle" x="2186" y="-886.9" font-family="Times,serif" font-size="14.00">find_forallb_map</text>
</a>
</g>
</g>
<!-- PCUICFacts_find_forallb&#45;&gt;PCUICFacts_find_forallb_map -->
<g id="edge4" class="edge">
<title>PCUICFacts_find_forallb&#45;&gt;PCUICFacts_find_forallb_map</title>
<path fill="none" stroke="black" d="M1886.74,-1094.41C1950.33,-1051.32 2089.86,-956.76 2153.36,-913.72"/>
<polygon fill="black" stroke="black" points="2155.49,-916.51 2161.81,-908 2151.56,-910.71 2155.49,-916.51"/>
</g>
<!-- PCUICFacts_find_map -->
<g id="node8" class="node">
<title>PCUICFacts_find_map</title>
<g id="a_node8"><a xlink:href="PCUICFacts.html#find_map" xlink:title="find_map">
<ellipse fill="#7fffd4" stroke="black" cx="1704" cy="-1117.6" rx="52.77" ry="18"/>
<ellipse fill="none" stroke="black" cx="1704" cy="-1117.6" rx="56.78" ry="22"/>
<ellipse fill="none" stroke="black" cx="1704" cy="-1117.6" rx="60.79" ry="26"/>
<text text-anchor="middle" x="1704" y="-1113.9" font-family="Times,serif" font-size="14.00">find_map</text>
</a>
</g>
</g>
<!-- PCUICFacts_find_map_eq -->
<g id="node9" class="node">
<title>PCUICFacts_find_map_eq</title>
<g id="a_node9"><a xlink:href="PCUICFacts.html#find_map_eq" xlink:title="find_map_eq">
<ellipse fill="#7fffd4" stroke="black" cx="2013" cy="-890.6" rx="68.49" ry="18"/>
<text text-anchor="middle" x="2013" y="-886.9" font-family="Times,serif" font-size="14.00">find_map_eq</text>
</a>
</g>
</g>
<!-- PCUICFacts_find_map&#45;&gt;PCUICFacts_find_map_eq -->
<g id="edge5" class="edge">
<title>PCUICFacts_find_map&#45;&gt;PCUICFacts_find_map_eq</title>
<path fill="none" stroke="black" d="M1733.91,-1094.82C1792.81,-1051.94 1923.24,-956.96 1982.56,-913.77"/>
<polygon fill="black" stroke="black" points="1984.76,-916.5 1990.78,-907.78 1980.64,-910.84 1984.76,-916.5"/>
</g>
<!-- PCUICFacts_lookup_ind_nth_error -->
<g id="node11" class="node">
<title>PCUICFacts_lookup_ind_nth_error</title>
<g id="a_node11"><a xlink:href="PCUICFacts.html#lookup_ind_nth_error" xlink:title="lookup_ind_nth_error">
<ellipse fill="#7fffd4" stroke="black" cx="1509" cy="-1117.6" rx="108.58" ry="18"/>
<ellipse fill="none" stroke="black" cx="1509" cy="-1117.6" rx="112.58" ry="22"/>
<ellipse fill="none" stroke="black" cx="1509" cy="-1117.6" rx="116.58" ry="26"/>
<text text-anchor="middle" x="1509" y="-1113.9" font-family="Times,serif" font-size="14.00">lookup_ind_nth_error</text>
</a>
</g>
</g>
<!-- PCUICFacts_lookup_ind_nth_error_shift -->
<g id="node12" class="node">
<title>PCUICFacts_lookup_ind_nth_error_shift</title>
<g id="a_node12"><a xlink:href="PCUICFacts.html#lookup_ind_nth_error_shift" xlink:title="lookup_ind_nth_error_shift">
<ellipse fill="#7fffd4" stroke="black" cx="1499" cy="-890.6" rx="133.78" ry="18"/>
<text text-anchor="middle" x="1499" y="-886.9" font-family="Times,serif" font-size="14.00">lookup_ind_nth_error_shift</text>
</a>
</g>
</g>
<!-- PCUICFacts_lookup_ind_nth_error&#45;&gt;PCUICFacts_lookup_ind_nth_error_shift -->
<g id="edge6" class="edge">
<title>PCUICFacts_lookup_ind_nth_error&#45;&gt;PCUICFacts_lookup_ind_nth_error_shift</title>
<path fill="none" stroke="black" d="M1507.87,-1091.23C1505.98,-1048.64 1502.18,-963.12 1500.22,-919.13"/>
<polygon fill="black" stroke="black" points="1503.71,-918.72 1499.77,-908.89 1496.72,-919.03 1503.71,-918.72"/>
</g>
<!-- PCUICFacts_lookup_ind_nth_error_False -->
<g id="node13" class="node">
<title>PCUICFacts_lookup_ind_nth_error_False</title>
<g id="a_node13"><a xlink:href="PCUICFacts.html#lookup_ind_nth_error_False" xlink:title="lookup_ind_nth_error_False">
<ellipse fill="#7fffd4" stroke="black" cx="1789" cy="-890.6" rx="137.58" ry="18"/>
<text text-anchor="middle" x="1789" y="-886.9" font-family="Times,serif" font-size="14.00">lookup_ind_nth_error_False</text>
</a>
</g>
</g>
<!-- PCUICFacts_lookup_ind_nth_error&#45;&gt;PCUICFacts_lookup_ind_nth_error_False -->
<g id="edge7" class="edge">
<title>PCUICFacts_lookup_ind_nth_error&#45;&gt;PCUICFacts_lookup_ind_nth_error_False</title>
<path fill="none" stroke="black" d="M1539.23,-1092.31C1593.46,-1048.73 1706.57,-957.84 1759.94,-914.95"/>
<polygon fill="black" stroke="black" points="1762.37,-917.49 1767.97,-908.5 1757.99,-912.03 1762.37,-917.49"/>
</g>
<!-- PCUICFacts_map_funprod_id -->
<g id="node14" class="node">
<title>PCUICFacts_map_funprod_id</title>
<g id="a_node14"><a xlink:href="PCUICFacts.html#map_funprod_id" xlink:title="map_funprod_id">
<ellipse fill="#7fffd4" stroke="black" cx="1281" cy="-1117.6" rx="85.27" ry="18"/>
<ellipse fill="none" stroke="black" cx="1281" cy="-1117.6" rx="89.28" ry="22"/>
<ellipse fill="none" stroke="black" cx="1281" cy="-1117.6" rx="93.29" ry="26"/>
<text text-anchor="middle" x="1281" y="-1113.9" font-family="Times,serif" font-size="14.00">map_funprod_id</text>
</a>
</g>
</g>
<!-- PCUICFacts_expr_eval_econstr -->
<g id="node15" class="node">
<title>PCUICFacts_expr_eval_econstr</title>
<g id="a_node15"><a xlink:href="PCUICFacts.html#expr_eval_econstr" xlink:title="expr_eval_econstr">
<ellipse fill="#7fffd4" stroke="black" cx="1068" cy="-1117.6" rx="94.46" ry="18"/>
<ellipse fill="none" stroke="black" cx="1068" cy="-1117.6" rx="98.47" ry="22"/>
<ellipse fill="none" stroke="black" cx="1068" cy="-1117.6" rx="102.48" ry="26"/>
<text text-anchor="middle" x="1068" y="-1113.9" font-family="Times,serif" font-size="14.00">expr_eval_econstr</text>
</a>
</g>
</g>
<!-- PCUICFacts_subst_env_i_empty -->
<g id="node16" class="node">
<title>PCUICFacts_subst_env_i_empty</title>
<g id="a_node16"><a xlink:href="PCUICFacts.html#subst_env_i_empty" xlink:title="subst_env_i_empty">
<ellipse fill="#7fffd4" stroke="black" cx="842" cy="-1117.6" rx="98.27" ry="18"/>
<ellipse fill="none" stroke="black" cx="842" cy="-1117.6" rx="102.28" ry="22"/>
<ellipse fill="none" stroke="black" cx="842" cy="-1117.6" rx="106.28" ry="26"/>
<text text-anchor="middle" x="842" y="-1113.9" font-family="Times,serif" font-size="14.00">subst_env_i_empty</text>
</a>
</g>
</g>
<!-- PCUICFacts_subst_env_i_ty_empty -->
<g id="node17" class="node">
<title>PCUICFacts_subst_env_i_ty_empty</title>
<g id="a_node17"><a xlink:href="PCUICFacts.html#subst_env_i_ty_empty" xlink:title="subst_env_i_ty_empty">
<ellipse fill="#7fffd4" stroke="black" cx="1235" cy="-890.6" rx="111.58" ry="18"/>
<text text-anchor="middle" x="1235" y="-886.9" font-family="Times,serif" font-size="14.00">subst_env_i_ty_empty</text>
</a>
</g>
</g>
<!-- PCUICFacts_subst_env_i_empty&#45;&gt;PCUICFacts_subst_env_i_ty_empty -->
<g id="edge8" class="edge">
<title>PCUICFacts_subst_env_i_empty&#45;&gt;PCUICFacts_subst_env_i_ty_empty</title>
<path fill="none" stroke="black" d="M882.58,-1093.37C958.93,-1049.65 1122.96,-955.75 1197.16,-913.26"/>
<polygon fill="black" stroke="black" points="1199.24,-916.11 1206.18,-908.1 1195.76,-910.03 1199.24,-916.11"/>
</g>
<!-- PCUICFacts_of_value_closed -->
<g id="node18" class="node">
<title>PCUICFacts_of_value_closed</title>
<g id="a_node18"><a xlink:href="PCUICFacts.html#of_value_closed" xlink:title="of_value_closed">
<ellipse fill="#7fffd4" stroke="black" cx="627" cy="-1117.6" rx="82.58" ry="18"/>
<ellipse fill="none" stroke="black" cx="627" cy="-1117.6" rx="86.58" ry="22"/>
<ellipse fill="none" stroke="black" cx="627" cy="-1117.6" rx="90.59" ry="26"/>
<text text-anchor="middle" x="627" y="-1113.9" font-family="Times,serif" font-size="14.00">of_value_closed</text>
</a>
</g>
</g>
<!-- PCUICFacts_subst_env_iclosed_n -->
<g id="node22" class="node">
<title>PCUICFacts_subst_env_iclosed_n</title>
<g id="a_node22"><a xlink:href="PCUICFacts.html#subst_env_iclosed_n" xlink:title="subst_env_iclosed_n">
<ellipse fill="#7fffd4" stroke="black" cx="282" cy="-890.6" rx="103.98" ry="18"/>
<text text-anchor="middle" x="282" y="-886.9" font-family="Times,serif" font-size="14.00">subst_env_iclosed_n</text>
</a>
</g>
</g>
<!-- PCUICFacts_of_value_closed&#45;&gt;PCUICFacts_subst_env_iclosed_n -->
<g id="edge9" class="edge">
<title>PCUICFacts_of_value_closed&#45;&gt;PCUICFacts_subst_env_iclosed_n</title>
<path fill="none" stroke="black" d="M591.7,-1093.58C525.11,-1050.15 381.75,-956.65 316.09,-913.84"/>
<polygon fill="black" stroke="black" points="317.65,-910.67 307.36,-908.14 313.83,-916.54 317.65,-910.67"/>
</g>
<!-- PCUICFacts_iclosed_ty_env_ok -->
<g id="node25" class="node">
<title>PCUICFacts_iclosed_ty_env_ok</title>
<g id="a_node25"><a xlink:href="PCUICFacts.html#iclosed_ty_env_ok" xlink:title="iclosed_ty_env_ok">
<ellipse fill="#7fffd4" stroke="black" cx="759" cy="-890.6" rx="92.88" ry="18"/>
<text text-anchor="middle" x="759" y="-886.9" font-family="Times,serif" font-size="14.00">iclosed_ty_env_ok</text>
</a>
</g>
</g>
<!-- PCUICFacts_of_value_closed&#45;&gt;PCUICFacts_iclosed_ty_env_ok -->
<g id="edge10" class="edge">
<title>PCUICFacts_of_value_closed&#45;&gt;PCUICFacts_iclosed_ty_env_ok</title>
<path fill="none" stroke="black" d="M641.63,-1091.66C666.83,-1048.7 718.19,-961.17 743.79,-917.53"/>
<polygon fill="black" stroke="black" points="746.94,-919.07 748.98,-908.67 740.91,-915.53 746.94,-919.07"/>
</g>
<!-- PCUICFacts_vars_to_apps_iclosed_n -->
<g id="node33" class="node">
<title>PCUICFacts_vars_to_apps_iclosed_n</title>
<g id="a_node33"><a xlink:href="PCUICFacts.html#vars_to_apps_iclosed_n" xlink:title="vars_to_apps_iclosed_n">
<ellipse fill="#7fffd4" stroke="black" cx="988" cy="-890.6" rx="117.78" ry="18"/>
<text text-anchor="middle" x="988" y="-886.9" font-family="Times,serif" font-size="14.00">vars_to_apps_iclosed_n</text>
</a>
</g>
</g>
<!-- PCUICFacts_of_value_closed&#45;&gt;PCUICFacts_vars_to_apps_iclosed_n -->
<g id="edge11" class="edge">
<title>PCUICFacts_of_value_closed&#45;&gt;PCUICFacts_vars_to_apps_iclosed_n</title>
<path fill="none" stroke="black" d="M663.6,-1093.79C733.25,-1050.38 884.02,-956.41 952.67,-913.62"/>
<polygon fill="black" stroke="black" points="954.77,-916.44 961.4,-908.18 951.06,-910.5 954.77,-916.44"/>
</g>
<!-- PCUICFacts_subst_env_iclosed_0_inv -->
<g id="node19" class="node">
<title>PCUICFacts_subst_env_iclosed_0_inv</title>
<g id="a_node19"><a xlink:href="PCUICFacts.html#subst_env_iclosed_0_inv" xlink:title="subst_env_iclosed_0_inv">
<ellipse fill="#7fffd4" stroke="black" cx="388" cy="-1117.6" rx="122.37" ry="18"/>
<ellipse fill="none" stroke="black" cx="388" cy="-1117.6" rx="126.37" ry="22"/>
<ellipse fill="none" stroke="black" cx="388" cy="-1117.6" rx="130.38" ry="26"/>
<text text-anchor="middle" x="388" y="-1113.9" font-family="Times,serif" font-size="14.00">subst_env_iclosed_0_inv</text>
</a>
</g>
</g>
<!-- PCUICFacts_subst_env_iclosed_n_inv -->
<g id="node21" class="node">
<title>PCUICFacts_subst_env_iclosed_n_inv</title>
<g id="a_node21"><a xlink:href="PCUICFacts.html#subst_env_iclosed_n_inv" xlink:title="subst_env_iclosed_n_inv">
<ellipse fill="#7fffd4" stroke="black" cx="526" cy="-890.6" rx="122.38" ry="18"/>
<text text-anchor="middle" x="526" y="-886.9" font-family="Times,serif" font-size="14.00">subst_env_iclosed_n_inv</text>
</a>
</g>
</g>
<!-- PCUICFacts_subst_env_iclosed_0_inv&#45;&gt;PCUICFacts_subst_env_iclosed_n_inv -->
<g id="edge12" class="edge">
<title>PCUICFacts_subst_env_iclosed_0_inv&#45;&gt;PCUICFacts_subst_env_iclosed_n_inv</title>
<path fill="none" stroke="black" d="M403.3,-1091.66C429.7,-1048.61 483.56,-960.8 510.26,-917.26"/>
<polygon fill="black" stroke="black" points="513.28,-919.03 515.53,-908.67 507.32,-915.37 513.28,-919.03"/>
</g>
<!-- PCUICFacts_subst_env_iclosed_0 -->
<g id="node20" class="node">
<title>PCUICFacts_subst_env_iclosed_0</title>
<g id="a_node20"><a xlink:href="PCUICFacts.html#subst_env_iclosed_0" xlink:title="subst_env_iclosed_0">
<ellipse fill="#7fffd4" stroke="black" cx="128" cy="-1117.6" rx="103.98" ry="18"/>
<ellipse fill="none" stroke="black" cx="128" cy="-1117.6" rx="107.98" ry="22"/>
<ellipse fill="none" stroke="black" cx="128" cy="-1117.6" rx="111.98" ry="26"/>
<text text-anchor="middle" x="128" y="-1113.9" font-family="Times,serif" font-size="14.00">subst_env_iclosed_0</text>
</a>
</g>
</g>
<!-- PCUICFacts_subst_env_iclosed_0&#45;&gt;PCUICFacts_subst_env_iclosed_n -->
<g id="edge13" class="edge">
<title>PCUICFacts_subst_env_iclosed_0&#45;&gt;PCUICFacts_subst_env_iclosed_n</title>
<path fill="none" stroke="black" d="M145.07,-1091.66C174.59,-1048.52 234.89,-960.43 264.62,-916.99"/>
<polygon fill="black" stroke="black" points="267.56,-918.9 270.32,-908.67 261.78,-914.95 267.56,-918.9"/>
</g>
<!-- PCUICFacts_subst_env_i_ty_closed_inv -->
<g id="node23" class="node">
<title>PCUICFacts_subst_env_i_ty_closed_inv</title>
<g id="a_node23"><a xlink:href="PCUICFacts.html#subst_env_i_ty_closed_inv" xlink:title="subst_env_i_ty_closed_inv">
<ellipse fill="#7fffd4" stroke="black" cx="544" cy="-684.6" rx="129.98" ry="18"/>
<text text-anchor="middle" x="544" y="-680.9" font-family="Times,serif" font-size="14.00">subst_env_i_ty_closed_inv</text>
</a>
</g>
</g>
<!-- PCUICFacts_subst_env_iclosed_n_inv&#45;&gt;PCUICFacts_subst_env_i_ty_closed_inv -->
<g id="edge14" class="edge">
<title>PCUICFacts_subst_env_iclosed_n_inv&#45;&gt;PCUICFacts_subst_env_i_ty_closed_inv</title>
<path fill="none" stroke="black" d="M527.5,-872.56C530.63,-837.16 537.84,-755.42 541.61,-712.7"/>
<polygon fill="black" stroke="black" points="545.1,-713.01 542.49,-702.74 538.12,-712.39 545.1,-713.01"/>
</g>
<!-- PCUICFacts_subst_env_i_ty_closed -->
<g id="node24" class="node">
<title>PCUICFacts_subst_env_i_ty_closed</title>
<g id="a_node24"><a xlink:href="PCUICFacts.html#subst_env_i_ty_closed" xlink:title="subst_env_i_ty_closed">
<ellipse fill="#7fffd4" stroke="black" cx="284" cy="-684.6" rx="111.58" ry="18"/>
<text text-anchor="middle" x="284" y="-680.9" font-family="Times,serif" font-size="14.00">subst_env_i_ty_closed</text>
</a>
</g>
</g>
<!-- PCUICFacts_subst_env_iclosed_n&#45;&gt;PCUICFacts_subst_env_i_ty_closed -->
<g id="edge15" class="edge">
<title>PCUICFacts_subst_env_iclosed_n&#45;&gt;PCUICFacts_subst_env_i_ty_closed</title>
<path fill="none" stroke="black" d="M282.17,-872.56C282.51,-837.23 283.31,-755.76 283.73,-712.98"/>
<polygon fill="black" stroke="black" points="287.23,-712.77 283.83,-702.74 280.23,-712.7 287.23,-712.77"/>
</g>
<!-- PCUICFacts_iclosed_m_n -->
<g id="node27" class="node">
<title>PCUICFacts_iclosed_m_n</title>
<g id="a_node27"><a xlink:href="PCUICFacts.html#iclosed_m_n" xlink:title="iclosed_m_n">
<ellipse fill="#7fffd4" stroke="black" cx="88" cy="-684.6" rx="66.09" ry="18"/>
<text text-anchor="middle" x="88" y="-680.9" font-family="Times,serif" font-size="14.00">iclosed_m_n</text>
</a>
</g>
</g>
<!-- PCUICFacts_subst_env_iclosed_n&#45;&gt;PCUICFacts_iclosed_m_n -->
<g id="edge16" class="edge">
<title>PCUICFacts_subst_env_iclosed_n&#45;&gt;PCUICFacts_iclosed_m_n</title>
<path fill="none" stroke="black" d="M265.79,-872.56C231.24,-836.23 150.28,-751.09 110.65,-709.42"/>
<polygon fill="black" stroke="black" points="113.18,-707 103.75,-702.17 108.11,-711.82 113.18,-707"/>
</g>
<!-- PCUICFacts_iclosed_ty_0 -->
<g id="node29" class="node">
<title>PCUICFacts_iclosed_ty_0</title>
<g id="a_node29"><a xlink:href="PCUICFacts.html#iclosed_ty_0" xlink:title="iclosed_ty_0">
<ellipse fill="#7fffd4" stroke="black" cx="251" cy="-478.6" rx="66.89" ry="18"/>
<text text-anchor="middle" x="251" y="-474.9" font-family="Times,serif" font-size="14.00">iclosed_ty_0</text>
</a>
</g>
</g>
<!-- PCUICFacts_subst_env_i_ty_closed&#45;&gt;PCUICFacts_iclosed_ty_0 -->
<g id="edge17" class="edge">
<title>PCUICFacts_subst_env_i_ty_closed&#45;&gt;PCUICFacts_iclosed_ty_0</title>
<path fill="none" stroke="black" d="M281.24,-666.56C275.52,-631.16 262.29,-549.42 255.38,-506.7"/>
<polygon fill="black" stroke="black" points="258.82,-506.05 253.77,-496.74 251.91,-507.17 258.82,-506.05"/>
</g>
<!-- PCUICFacts_All_lookup_i -->
<g id="node32" class="node">
<title>PCUICFacts_All_lookup_i</title>
<g id="a_node32"><a xlink:href="PCUICFacts.html#All_lookup_i" xlink:title="All_lookup_i">
<ellipse fill="#f070d1" stroke="black" cx="402" cy="-478.6" rx="65.79" ry="18"/>
<text text-anchor="middle" x="402" y="-474.9" font-family="Times,serif" font-size="14.00">All_lookup_i</text>
</a>
</g>
</g>
<!-- PCUICFacts_subst_env_i_ty_closed&#45;&gt;PCUICFacts_All_lookup_i -->
<g id="edge18" class="edge">
<title>PCUICFacts_subst_env_i_ty_closed&#45;&gt;PCUICFacts_All_lookup_i</title>
<path fill="none" stroke="black" d="M293.86,-666.56C314.56,-630.77 362.66,-547.61 387.13,-505.31"/>
<polygon fill="black" stroke="black" points="390.28,-506.86 392.25,-496.45 384.22,-503.36 390.28,-506.86"/>
</g>
<!-- PCUICFacts_iclosed_n_0 -->
<g id="node26" class="node">
<title>PCUICFacts_iclosed_n_0</title>
<g id="a_node26"><a xlink:href="PCUICFacts.html#iclosed_n_0" xlink:title="iclosed_n_0">
<ellipse fill="#7fffd4" stroke="black" cx="88" cy="-890.6" rx="63.87" ry="18"/>
<ellipse fill="none" stroke="black" cx="88" cy="-890.6" rx="67.88" ry="22"/>
<ellipse fill="none" stroke="black" cx="88" cy="-890.6" rx="71.89" ry="26"/>
<text text-anchor="middle" x="88" y="-886.9" font-family="Times,serif" font-size="14.00">iclosed_n_0</text>
</a>
</g>
</g>
<!-- PCUICFacts_iclosed_n_0&#45;&gt;PCUICFacts_iclosed_m_n -->
<g id="edge19" class="edge">
<title>PCUICFacts_iclosed_n_0&#45;&gt;PCUICFacts_iclosed_m_n</title>
<path fill="none" stroke="black" d="M88,-864.59C88,-826.09 88,-752.62 88,-712.83"/>
<polygon fill="black" stroke="black" points="91.5,-712.79 88,-702.79 84.5,-712.79 91.5,-712.79"/>
</g>
<!-- PCUICFacts_iclosed_n_geq -->
<g id="node28" class="node">
<title>PCUICFacts_iclosed_n_geq</title>
<g id="a_node28"><a xlink:href="PCUICFacts.html#iclosed_n_geq" xlink:title="iclosed_n_geq">
<ellipse fill="#7fffd4" stroke="black" cx="91" cy="-478.6" rx="74.99" ry="18"/>
<text text-anchor="middle" x="91" y="-474.9" font-family="Times,serif" font-size="14.00">iclosed_n_geq</text>
</a>
</g>
</g>
<!-- PCUICFacts_iclosed_m_n&#45;&gt;PCUICFacts_iclosed_n_geq -->
<g id="edge20" class="edge">
<title>PCUICFacts_iclosed_m_n&#45;&gt;PCUICFacts_iclosed_n_geq</title>
<path fill="none" stroke="black" d="M88.25,-666.56C88.77,-631.23 89.97,-549.76 90.6,-506.98"/>
<polygon fill="black" stroke="black" points="94.1,-506.79 90.75,-496.74 87.1,-506.69 94.1,-506.79"/>
</g>
<!-- PCUICFacts_iclosed_ty_geq -->
<g id="node31" class="node">
<title>PCUICFacts_iclosed_ty_geq</title>
<g id="a_node31"><a xlink:href="PCUICFacts.html#iclosed_ty_geq" xlink:title="iclosed_ty_geq">
<ellipse fill="#7fffd4" stroke="black" cx="147" cy="-87.6" rx="77.99" ry="18"/>
<text text-anchor="middle" x="147" y="-83.9" font-family="Times,serif" font-size="14.00">iclosed_ty_geq</text>
</a>
</g>
</g>
<!-- PCUICFacts_iclosed_n_geq&#45;&gt;PCUICFacts_iclosed_ty_geq -->
<g id="edge21" class="edge">
<title>PCUICFacts_iclosed_n_geq&#45;&gt;PCUICFacts_iclosed_ty_geq</title>
<path fill="none" stroke="black" d="M91.81,-460.45C93.74,-422.94 99.35,-330.88 111,-254.6 118.55,-205.15 131.9,-148.34 140.05,-115.64"/>
<polygon fill="black" stroke="black" points="143.45,-116.47 142.5,-105.92 136.67,-114.76 143.45,-116.47"/>
</g>
<!-- PCUICFacts_iclosed_n_geq&#45;&gt;PCUICFacts_expr_elim_case -->
<g id="edge22" class="edge">
<title>PCUICFacts_iclosed_n_geq&#45;&gt;PCUICFacts_expr_elim_case</title>
<path fill="none" stroke="black" d="M115.27,-461.42C169.83,-425.05 302.26,-336.76 364.13,-295.51"/>
<polygon fill="black" stroke="black" points="366.35,-298.24 372.73,-289.78 362.47,-292.42 366.35,-298.24"/>
</g>
<!-- PCUICFacts_iclosed_ty_m_n -->
<g id="node30" class="node">
<title>PCUICFacts_iclosed_ty_m_n</title>
<g id="a_node30"><a xlink:href="PCUICFacts.html#iclosed_ty_m_n" xlink:title="iclosed_ty_m_n">
<ellipse fill="#7fffd4" stroke="black" cx="200" cy="-272.6" rx="79.89" ry="18"/>
<text text-anchor="middle" x="200" y="-268.9" font-family="Times,serif" font-size="14.00">iclosed_ty_m_n</text>
</a>
</g>
</g>
<!-- PCUICFacts_iclosed_ty_0&#45;&gt;PCUICFacts_iclosed_ty_m_n -->
<g id="edge23" class="edge">
<title>PCUICFacts_iclosed_ty_0&#45;&gt;PCUICFacts_iclosed_ty_m_n</title>
<path fill="none" stroke="black" d="M246.74,-460.56C237.89,-425.16 217.45,-343.42 206.78,-300.7"/>
<polygon fill="black" stroke="black" points="210.11,-299.59 204.28,-290.74 203.31,-301.29 210.11,-299.59"/>
</g>
<!-- PCUICFacts_iclosed_ty_m_n&#45;&gt;PCUICFacts_iclosed_ty_geq -->
<g id="edge24" class="edge">
<title>PCUICFacts_iclosed_ty_m_n&#45;&gt;PCUICFacts_iclosed_ty_geq</title>
<path fill="none" stroke="black" d="M195.01,-254.39C185.76,-222.42 165.85,-153.7 154.8,-115.54"/>
<polygon fill="black" stroke="black" points="158.08,-114.27 151.93,-105.64 151.35,-116.22 158.08,-114.27"/>
</g>
<!-- PCUICFacts_vars_to_apps_unfold -->
<g id="node34" class="node">
<title>PCUICFacts_vars_to_apps_unfold</title>
<g id="a_node34"><a xlink:href="PCUICFacts.html#vars_to_apps_unfold" xlink:title="vars_to_apps_unfold">
<ellipse fill="#7fffd4" stroke="black" cx="988" cy="-684.6" rx="104.78" ry="18"/>
<text text-anchor="middle" x="988" y="-680.9" font-family="Times,serif" font-size="14.00">vars_to_apps_unfold</text>
</a>
</g>
</g>
<!-- PCUICFacts_vars_to_apps_iclosed_n&#45;&gt;PCUICFacts_vars_to_apps_unfold -->
<g id="edge25" class="edge">
<title>PCUICFacts_vars_to_apps_iclosed_n&#45;&gt;PCUICFacts_vars_to_apps_unfold</title>
<path fill="none" stroke="black" d="M988,-872.56C988,-837.23 988,-755.76 988,-712.98"/>
<polygon fill="black" stroke="black" points="991.5,-712.74 988,-702.74 984.5,-712.74 991.5,-712.74"/>
</g>
</g>
</svg>
