<?xml version="1.0" encoding="UTF-8" standalone="no"?>
<!DOCTYPE svg PUBLIC "-//W3C//DTD SVG 1.1//EN"
 "http://www.w3.org/Graphics/SVG/1.1/DTD/svg11.dtd">
<!-- Generated by graphviz version 2.43.0 (0)
 -->
<!-- Title: Crowdfunding Pages: 1 -->
<svg width="678pt" height="343pt"
 viewBox="0.00 0.00 678.00 343.00" xmlns="http://www.w3.org/2000/svg" xmlns:xlink="http://www.w3.org/1999/xlink">
<g id="graph0" class="graph" transform="scale(1 1) rotate(0) translate(4 339)">
<title>Crowdfunding</title>
<polygon fill="white" stroke="transparent" points="-4,4 -4,-339 674,-339 674,4 -4,4"/>
<g id="clust1" class="cluster">
<title>cluster_Crowdfunding</title>
<polygon fill="#ffffc3" stroke="black" points="8,-10.43 8,-324.57 662,-324.57 662,-10.43 8,-10.43"/>
<text text-anchor="middle" x="67" y="-309.37" font-family="Times,serif" font-size="14.00">Crowdfunding</text>
</g>
<g id="clust2" class="cluster">
<title>cluster_Crowdfunding_CrowdfundingContract</title>
<polygon fill="#ffffa3" stroke="black" points="16,-20.86 16,-284.16 654,-284.16 654,-20.86 16,-20.86"/>
<text text-anchor="middle" x="106" y="-268.96" font-family="Times,serif" font-size="14.00">CrowdfundingContract</text>
</g>
<g id="clust3" class="cluster">
<title>cluster_Crowdfunding_CrowdfundingContract_Init</title>
<polygon fill="#ffff83" stroke="black" points="336,-125.14 336,-243.75 646,-243.75 646,-125.14 336,-125.14"/>
<text text-anchor="middle" x="356.5" y="-228.55" font-family="Times,serif" font-size="14.00">Init</text>
</g>
<g id="clust4" class="cluster">
<title>cluster_Crowdfunding_CrowdfundingContract_Receive</title>
<polygon fill="#ffff83" stroke="black" points="24,-31.28 24,-243.75 328,-243.75 328,-31.28 24,-31.28"/>
<text text-anchor="middle" x="60" y="-228.55" font-family="Times,serif" font-size="14.00">Receive</text>
</g>
<!-- Crowdfunding_CrowdfundingContract_Receive_receive -->
<g id="node1" class="node">
<title>Crowdfunding_CrowdfundingContract_Receive_receive</title>
<g id="a_node1"><a xlink:href="Crowdfunding.html#CrowdfundingContract.Receive.receive" xlink:title="receive">
<ellipse fill="#f070d1" stroke="black" cx="268" cy="-169.43" rx="44.36" ry="18"/>
<ellipse fill="none" stroke="black" cx="268" cy="-169.43" rx="48.38" ry="22"/>
<ellipse fill="none" stroke="black" cx="268" cy="-169.43" rx="52.39" ry="26"/>
<text text-anchor="middle" x="268" y="-165.73" font-family="Times,serif" font-size="14.00">receive</text>
</a>
</g>
</g>
<!-- Crowdfunding_CrowdfundingContract_Receive_crowdfunding -->
<g id="node2" class="node">
<title>Crowdfunding_CrowdfundingContract_Receive_crowdfunding</title>
<g id="a_node2"><a xlink:href="Crowdfunding.html#CrowdfundingContract.Receive.crowdfunding" xlink:title="crowdfunding">
<ellipse fill="#f070d1" stroke="black" cx="115" cy="-169.43" rx="74.96" ry="18"/>
<ellipse fill="none" stroke="black" cx="115" cy="-169.43" rx="78.98" ry="22"/>
<ellipse fill="none" stroke="black" cx="115" cy="-169.43" rx="82.99" ry="26"/>
<text text-anchor="middle" x="115" y="-165.73" font-family="Times,serif" font-size="14.00">crowdfunding</text>
</a>
</g>
</g>
<!-- Crowdfunding_CrowdfundingContract_Receive_SChain -->
<g id="node3" class="node">
<title>Crowdfunding_CrowdfundingContract_Receive_SChain</title>
<g id="a_node3"><a xlink:href="Crowdfunding.html#CrowdfundingContract.Receive.SChain" xlink:title="SChain">
<ellipse fill="#f070d1" stroke="black" cx="95" cy="-65.43" rx="44.39" ry="18"/>
<text text-anchor="middle" x="95" y="-61.73" font-family="Times,serif" font-size="14.00">SChain</text>
</a>
</g>
</g>
<!-- Crowdfunding_CrowdfundingContract_Receive_crowdfunding&#45;&gt;Crowdfunding_CrowdfundingContract_Receive_SChain -->
<g id="edge1" class="edge">
<title>Crowdfunding_CrowdfundingContract_Receive_crowdfunding&#45;&gt;Crowdfunding_CrowdfundingContract_Receive_SChain</title>
<path fill="none" stroke="black" d="M110.06,-143.21C107.11,-128.16 103.36,-109.05 100.34,-93.65"/>
<polygon fill="black" stroke="black" points="103.74,-92.83 98.38,-83.69 96.87,-94.17 103.74,-92.83"/>
</g>
<!-- Crowdfunding_CrowdfundingContract_Receive_SCtx -->
<g id="node4" class="node">
<title>Crowdfunding_CrowdfundingContract_Receive_SCtx</title>
<g id="a_node4"><a xlink:href="Crowdfunding.html#CrowdfundingContract.Receive.SCtx" xlink:title="SCtx">
<ellipse fill="#f070d1" stroke="black" cx="190" cy="-65.43" rx="33.29" ry="18"/>
<text text-anchor="middle" x="190" y="-61.73" font-family="Times,serif" font-size="14.00">SCtx</text>
</a>
</g>
</g>
<!-- Crowdfunding_CrowdfundingContract_Receive_crowdfunding&#45;&gt;Crowdfunding_CrowdfundingContract_Receive_SCtx -->
<g id="edge2" class="edge">
<title>Crowdfunding_CrowdfundingContract_Receive_crowdfunding&#45;&gt;Crowdfunding_CrowdfundingContract_Receive_SCtx</title>
<path fill="none" stroke="black" d="M132.96,-144C144.81,-127.88 160.27,-106.86 172.1,-90.77"/>
<polygon fill="black" stroke="black" points="175.15,-92.53 178.26,-82.4 169.51,-88.38 175.15,-92.53"/>
</g>
<!-- Crowdfunding_CrowdfundingContract_Init_init -->
<g id="node5" class="node">
<title>Crowdfunding_CrowdfundingContract_Init_init</title>
<g id="a_node5"><a xlink:href="Crowdfunding.html#CrowdfundingContract.Init.init" xlink:title="init">
<ellipse fill="#f070d1" stroke="black" cx="603" cy="-169.43" rx="27" ry="18"/>
<ellipse fill="none" stroke="black" cx="603" cy="-169.43" rx="31" ry="22"/>
<ellipse fill="none" stroke="black" cx="603" cy="-169.43" rx="35" ry="26"/>
<text text-anchor="middle" x="603" y="-165.73" font-family="Times,serif" font-size="14.00">init</text>
</a>
</g>
</g>
<!-- Crowdfunding_CrowdfundingContract_Init_crowdfunding_init -->
<g id="node6" class="node">
<title>Crowdfunding_CrowdfundingContract_Init_crowdfunding_init</title>
<g id="a_node6"><a xlink:href="Crowdfunding.html#CrowdfundingContract.Init.crowdfunding_init" xlink:title="crowdfunding_init">
<ellipse fill="#f070d1" stroke="black" cx="447" cy="-169.43" rx="94.79" ry="18"/>
<ellipse fill="none" stroke="black" cx="447" cy="-169.43" rx="98.79" ry="22"/>
<ellipse fill="none" stroke="black" cx="447" cy="-169.43" rx="102.78" ry="26"/>
<text text-anchor="middle" x="447" y="-165.73" font-family="Times,serif" font-size="14.00">crowdfunding_init</text>
</a>
</g>
</g>
</g>
</svg>
