<?xml version="1.0" encoding="UTF-8" standalone="no"?>
<!DOCTYPE svg PUBLIC "-//W3C//DTD SVG 1.1//EN"
 "http://www.w3.org/Graphics/SVG/1.1/DTD/svg11.dtd">
<!-- Generated by graphviz version 2.43.0 (0)
 -->
<!-- Title: ChainedList Pages: 1 -->
<svg width="854pt" height="431pt"
 viewBox="0.00 0.00 854.00 431.00" xmlns="http://www.w3.org/2000/svg" xmlns:xlink="http://www.w3.org/1999/xlink">
<g id="graph0" class="graph" transform="scale(1 1) rotate(0) translate(4 427)">
<title>ChainedList</title>
<polygon fill="white" stroke="transparent" points="-4,4 -4,-427 850,-427 850,4 -4,4"/>
<g id="clust1" class="cluster">
<title>cluster_ChainedList</title>
<polygon fill="#ffffc3" stroke="black" points="8,-9.53 8,-413.47 838,-413.47 838,-9.53 8,-9.53"/>
<text text-anchor="middle" x="59" y="-398.27" font-family="Times,serif" font-size="14.00">ChainedList</text>
</g>
<!-- ChainedList_prefix_of_app -->
<g id="node1" class="node">
<title>ChainedList_prefix_of_app</title>
<g id="a_node1"><a xlink:href="ChainedList.html#prefix_of_app" xlink:title="prefix_of_app">
<ellipse fill="#7fffd4" stroke="black" cx="525" cy="-345.53" rx="72.27" ry="18"/>
<ellipse fill="none" stroke="black" cx="525" cy="-345.53" rx="76.28" ry="22"/>
<ellipse fill="none" stroke="black" cx="525" cy="-345.53" rx="80.29" ry="26"/>
<text text-anchor="middle" x="525" y="-341.83" font-family="Times,serif" font-size="14.00">prefix_of_app</text>
</a>
</g>
</g>
<!-- ChainedList_clist_app_assoc -->
<g id="node2" class="node">
<title>ChainedList_clist_app_assoc</title>
<g id="a_node2"><a xlink:href="ChainedList.html#clist_app_assoc" xlink:title="clist_app_assoc">
<ellipse fill="#7fffd4" stroke="black" cx="301" cy="-240.53" rx="81.49" ry="18"/>
<text text-anchor="middle" x="301" y="-236.83" font-family="Times,serif" font-size="14.00">clist_app_assoc</text>
</a>
</g>
</g>
<!-- ChainedList_prefix_of_app&#45;&gt;ChainedList_clist_app_assoc -->
<g id="edge1" class="edge">
<title>ChainedList_prefix_of_app&#45;&gt;ChainedList_clist_app_assoc</title>
<path fill="none" stroke="black" d="M480.21,-323.94C440.66,-305.75 383.37,-279.41 344.29,-261.44"/>
<polygon fill="black" stroke="black" points="345.31,-258.05 334.76,-257.06 342.39,-264.41 345.31,-258.05"/>
</g>
<!-- ChainedList_clist_prefix -->
<g id="node5" class="node">
<title>ChainedList_clist_prefix</title>
<g id="a_node5"><a xlink:href="ChainedList.html#clist_prefix" xlink:title="clist_prefix">
<ellipse fill="#f070d1" stroke="black" cx="768" cy="-240.53" rx="61.99" ry="18"/>
<text text-anchor="middle" x="768" y="-236.83" font-family="Times,serif" font-size="14.00">clist_prefix</text>
</a>
</g>
</g>
<!-- ChainedList_prefix_of_app&#45;&gt;ChainedList_clist_prefix -->
<g id="edge2" class="edge">
<title>ChainedList_prefix_of_app&#45;&gt;ChainedList_clist_prefix</title>
<path fill="none" stroke="black" d="M572.43,-324.43C616.73,-305.65 682.28,-277.87 725.06,-259.73"/>
<polygon fill="black" stroke="black" points="726.52,-262.92 734.36,-255.79 723.79,-256.47 726.52,-262.92"/>
</g>
<!-- ChainedList_clist_app -->
<g id="node6" class="node">
<title>ChainedList_clist_app</title>
<g id="a_node6"><a xlink:href="ChainedList.html#clist_app" xlink:title="clist_app">
<ellipse fill="#f070d1" stroke="black" cx="666" cy="-135.53" rx="51.99" ry="18"/>
<text text-anchor="middle" x="666" y="-131.83" font-family="Times,serif" font-size="14.00">clist_app</text>
</a>
</g>
</g>
<!-- ChainedList_clist_app_assoc&#45;&gt;ChainedList_clist_app -->
<g id="edge3" class="edge">
<title>ChainedList_clist_app_assoc&#45;&gt;ChainedList_clist_app</title>
<path fill="none" stroke="black" d="M349.04,-225.92C362.59,-222.15 377.35,-218.12 391,-214.53 485.77,-189.64 511.86,-191.97 605,-161.53 611.72,-159.33 618.76,-156.74 625.56,-154.07"/>
<polygon fill="black" stroke="black" points="627.33,-157.13 635.29,-150.14 624.71,-150.64 627.33,-157.13"/>
</g>
<!-- ChainedList_ChainedList_ind -->
<g id="node9" class="node">
<title>ChainedList_ChainedList_ind</title>
<g id="a_node9"><a xlink:href="ChainedList.html#ChainedList_ind" xlink:title="ChainedList_ind">
<ellipse fill="#7fffd4" stroke="black" cx="511" cy="-135.53" rx="85.29" ry="18"/>
<text text-anchor="middle" x="511" y="-131.83" font-family="Times,serif" font-size="14.00">ChainedList_ind</text>
</a>
</g>
</g>
<!-- ChainedList_clist_app_assoc&#45;&gt;ChainedList_ChainedList_ind -->
<g id="edge4" class="edge">
<title>ChainedList_clist_app_assoc&#45;&gt;ChainedList_ChainedList_ind</title>
<path fill="none" stroke="black" d="M332.89,-223.89C369.51,-205.93 429.68,-176.42 469.81,-156.73"/>
<polygon fill="black" stroke="black" points="471.37,-159.87 478.81,-152.32 468.29,-153.58 471.37,-159.87"/>
</g>
<!-- ChainedList_app_clnil_l -->
<g id="node3" class="node">
<title>ChainedList_app_clnil_l</title>
<g id="a_node3"><a xlink:href="ChainedList.html#app_clnil_l" xlink:title="app_clnil_l">
<ellipse fill="#7fffd4" stroke="black" cx="467" cy="-240.53" rx="59.27" ry="18"/>
<ellipse fill="none" stroke="black" cx="467" cy="-240.53" rx="63.28" ry="22"/>
<ellipse fill="none" stroke="black" cx="467" cy="-240.53" rx="67.29" ry="26"/>
<text text-anchor="middle" x="467" y="-236.83" font-family="Times,serif" font-size="14.00">app_clnil_l</text>
</a>
</g>
</g>
<!-- ChainedList_app_clnil_l&#45;&gt;ChainedList_clist_app -->
<g id="edge5" class="edge">
<title>ChainedList_app_clnil_l&#45;&gt;ChainedList_clist_app</title>
<path fill="none" stroke="black" d="M506.32,-219.18C542.08,-200.67 594.47,-173.55 629.38,-155.49"/>
<polygon fill="black" stroke="black" points="631.02,-158.58 638.29,-150.87 627.8,-152.36 631.02,-158.58"/>
</g>
<!-- ChainedList_app_clnil_l&#45;&gt;ChainedList_ChainedList_ind -->
<g id="edge6" class="edge">
<title>ChainedList_app_clnil_l&#45;&gt;ChainedList_ChainedList_ind</title>
<path fill="none" stroke="black" d="M477.65,-214.6C484.35,-198.92 492.98,-178.72 499.78,-162.79"/>
<polygon fill="black" stroke="black" points="503.04,-164.08 503.75,-153.51 496.6,-161.33 503.04,-164.08"/>
</g>
<!-- ChainedList_clist_suffix -->
<g id="node4" class="node">
<title>ChainedList_clist_suffix</title>
<g id="a_node4"><a xlink:href="ChainedList.html#clist_suffix" xlink:title="clist_suffix">
<ellipse fill="#f070d1" stroke="black" cx="620" cy="-240.53" rx="59.61" ry="18"/>
<ellipse fill="none" stroke="black" cx="620" cy="-240.53" rx="63.6" ry="22"/>
<ellipse fill="none" stroke="black" cx="620" cy="-240.53" rx="67.59" ry="26"/>
<text text-anchor="middle" x="620" y="-236.83" font-family="Times,serif" font-size="14.00">clist_suffix</text>
</a>
</g>
</g>
<!-- ChainedList_clist_suffix&#45;&gt;ChainedList_clist_app -->
<g id="edge7" class="edge">
<title>ChainedList_clist_suffix&#45;&gt;ChainedList_clist_app</title>
<path fill="none" stroke="black" d="M631.02,-214.86C638.02,-199.19 647.07,-178.92 654.21,-162.92"/>
<polygon fill="black" stroke="black" points="657.5,-164.15 658.38,-153.6 651.11,-161.3 657.5,-164.15"/>
</g>
<!-- ChainedList_clist_prefix&#45;&gt;ChainedList_clist_app -->
<g id="edge8" class="edge">
<title>ChainedList_clist_prefix&#45;&gt;ChainedList_clist_app</title>
<path fill="none" stroke="black" d="M751.61,-222.98C734.71,-205.91 708.2,-179.15 689.16,-159.92"/>
<polygon fill="black" stroke="black" points="691.53,-157.34 682.01,-152.7 686.56,-162.27 691.53,-157.34"/>
</g>
<!-- ChainedList_snoc -->
<g id="node11" class="node">
<title>ChainedList_snoc</title>
<g id="a_node11"><a xlink:href="ChainedList.html#snoc" xlink:title="snoc">
<ellipse fill="#7faaff" stroke="black" cx="511" cy="-40.53" rx="31.7" ry="18"/>
<text text-anchor="middle" x="511" y="-36.83" font-family="Times,serif" font-size="14.00">snoc</text>
</a>
</g>
</g>
<!-- ChainedList_clist_app&#45;&gt;ChainedList_snoc -->
<g id="edge9" class="edge">
<title>ChainedList_clist_app&#45;&gt;ChainedList_snoc</title>
<path fill="none" stroke="black" d="M641.1,-119.59C613.92,-103.28 570.39,-77.17 541.26,-59.69"/>
<polygon fill="black" stroke="black" points="542.72,-56.49 532.35,-54.34 539.12,-62.49 542.72,-56.49"/>
</g>
<!-- ChainedList_ChainedList -->
<g id="node13" class="node">
<title>ChainedList_ChainedList</title>
<g id="a_node13"><a xlink:href="ChainedList.html#ChainedList" xlink:title="ChainedList">
<ellipse fill="#e2cdfa" stroke="black" cx="395" cy="-40.53" rx="66.09" ry="18"/>
<text text-anchor="middle" x="395" y="-36.83" font-family="Times,serif" font-size="14.00">ChainedList</text>
</a>
</g>
</g>
<!-- ChainedList_clist_app&#45;&gt;ChainedList_ChainedList -->
<g id="edge10" class="edge">
<title>ChainedList_clist_app&#45;&gt;ChainedList_ChainedList</title>
<path fill="none" stroke="black" d="M634.52,-121.1C625.08,-117.22 614.67,-113.07 605,-109.53 551.92,-90.09 490.29,-70.48 447.58,-57.35"/>
<polygon fill="black" stroke="black" points="448.54,-53.98 437.96,-54.4 446.49,-60.67 448.54,-53.98"/>
</g>
<!-- ChainedList_ChainedList_sind -->
<g id="node7" class="node">
<title>ChainedList_ChainedList_sind</title>
<g id="a_node7"><a xlink:href="ChainedList.html#ChainedList_sind" xlink:title="ChainedList_sind">
<ellipse fill="#f070d1" stroke="black" cx="114" cy="-135.53" rx="90.2" ry="18"/>
<ellipse fill="none" stroke="black" cx="114" cy="-135.53" rx="94.19" ry="22"/>
<ellipse fill="none" stroke="black" cx="114" cy="-135.53" rx="98.18" ry="26"/>
<text text-anchor="middle" x="114" y="-131.83" font-family="Times,serif" font-size="14.00">ChainedList_sind</text>
</a>
</g>
</g>
<!-- ChainedList_ChainedList_sind&#45;&gt;ChainedList_snoc -->
<g id="edge11" class="edge">
<title>ChainedList_ChainedList_sind&#45;&gt;ChainedList_snoc</title>
<path fill="none" stroke="black" d="M185.31,-117.58C197.21,-114.84 209.45,-112.06 221,-109.53 331.34,-85.35 362,-91.65 470,-58.53 472.45,-57.78 474.95,-56.94 477.46,-56.04"/>
<polygon fill="black" stroke="black" points="478.92,-59.23 487,-52.38 476.41,-52.69 478.92,-59.23"/>
</g>
<!-- ChainedList_clnil -->
<g id="node12" class="node">
<title>ChainedList_clnil</title>
<g id="a_node12"><a xlink:href="ChainedList.html#clnil" xlink:title="clnil">
<ellipse fill="#7faaff" stroke="black" cx="280" cy="-40.53" rx="30.59" ry="18"/>
<text text-anchor="middle" x="280" y="-36.83" font-family="Times,serif" font-size="14.00">clnil</text>
</a>
</g>
</g>
<!-- ChainedList_ChainedList_sind&#45;&gt;ChainedList_clnil -->
<g id="edge12" class="edge">
<title>ChainedList_ChainedList_sind&#45;&gt;ChainedList_clnil</title>
<path fill="none" stroke="black" d="M154.61,-111.78C183.97,-95.33 223.01,-73.46 249.68,-58.52"/>
<polygon fill="black" stroke="black" points="251.55,-61.48 258.57,-53.54 248.13,-55.38 251.55,-61.48"/>
</g>
<!-- ChainedList_ChainedList_sind&#45;&gt;ChainedList_ChainedList -->
<g id="edge13" class="edge">
<title>ChainedList_ChainedList_sind&#45;&gt;ChainedList_ChainedList</title>
<path fill="none" stroke="black" d="M173.59,-114.81C224.54,-97.95 297.01,-73.96 344.98,-58.09"/>
<polygon fill="black" stroke="black" points="346.14,-61.39 354.53,-54.93 343.94,-54.74 346.14,-61.39"/>
</g>
<!-- ChainedList_ChainedList_rec -->
<g id="node8" class="node">
<title>ChainedList_ChainedList_rec</title>
<g id="a_node8"><a xlink:href="ChainedList.html#ChainedList_rec" xlink:title="ChainedList_rec">
<ellipse fill="#f070d1" stroke="black" cx="109" cy="-240.53" rx="85.27" ry="18"/>
<ellipse fill="none" stroke="black" cx="109" cy="-240.53" rx="89.28" ry="22"/>
<ellipse fill="none" stroke="black" cx="109" cy="-240.53" rx="93.29" ry="26"/>
<text text-anchor="middle" x="109" y="-236.83" font-family="Times,serif" font-size="14.00">ChainedList_rec</text>
</a>
</g>
</g>
<!-- ChainedList_ChainedList_rect -->
<g id="node10" class="node">
<title>ChainedList_ChainedList_rect</title>
<g id="a_node10"><a xlink:href="ChainedList.html#ChainedList_rect" xlink:title="ChainedList_rect">
<ellipse fill="#f070d1" stroke="black" cx="319" cy="-135.53" rx="89.08" ry="18"/>
<text text-anchor="middle" x="319" y="-131.83" font-family="Times,serif" font-size="14.00">ChainedList_rect</text>
</a>
</g>
</g>
<!-- ChainedList_ChainedList_rec&#45;&gt;ChainedList_ChainedList_rect -->
<g id="edge14" class="edge">
<title>ChainedList_ChainedList_rec&#45;&gt;ChainedList_ChainedList_rect</title>
<path fill="none" stroke="black" d="M153.54,-217.69C190.12,-199.75 241.55,-174.52 277.33,-156.97"/>
<polygon fill="black" stroke="black" points="279.09,-160.01 286.53,-152.46 276.01,-153.72 279.09,-160.01"/>
</g>
<!-- ChainedList_ChainedList_ind&#45;&gt;ChainedList_snoc -->
<g id="edge15" class="edge">
<title>ChainedList_ChainedList_ind&#45;&gt;ChainedList_snoc</title>
<path fill="none" stroke="black" d="M511,-117.47C511,-103.93 511,-84.71 511,-69"/>
<polygon fill="black" stroke="black" points="514.5,-68.8 511,-58.8 507.5,-68.8 514.5,-68.8"/>
</g>
<!-- ChainedList_ChainedList_ind&#45;&gt;ChainedList_clnil -->
<g id="edge16" class="edge">
<title>ChainedList_ChainedList_ind&#45;&gt;ChainedList_clnil</title>
<path fill="none" stroke="black" d="M472.12,-119.37C433.45,-104.21 372.48,-80.12 320,-58.53 317.82,-57.64 315.58,-56.71 313.32,-55.76"/>
<polygon fill="black" stroke="black" points="314.65,-52.52 304.08,-51.87 311.93,-58.98 314.65,-52.52"/>
</g>
<!-- ChainedList_ChainedList_ind&#45;&gt;ChainedList_ChainedList -->
<g id="edge17" class="edge">
<title>ChainedList_ChainedList_ind&#45;&gt;ChainedList_ChainedList</title>
<path fill="none" stroke="black" d="M490.26,-117.91C471.51,-102.87 443.74,-80.61 423.01,-63.99"/>
<polygon fill="black" stroke="black" points="425.16,-61.23 415.17,-57.7 420.78,-66.69 425.16,-61.23"/>
</g>
<!-- ChainedList_ChainedList_rect&#45;&gt;ChainedList_snoc -->
<g id="edge18" class="edge">
<title>ChainedList_ChainedList_rect&#45;&gt;ChainedList_snoc</title>
<path fill="none" stroke="black" d="M351.57,-118.76C386.87,-101.66 442.89,-74.52 478.26,-57.39"/>
<polygon fill="black" stroke="black" points="480.18,-60.35 487.66,-52.84 477.13,-54.05 480.18,-60.35"/>
</g>
<!-- ChainedList_ChainedList_rect&#45;&gt;ChainedList_clnil -->
<g id="edge19" class="edge">
<title>ChainedList_ChainedList_rect&#45;&gt;ChainedList_clnil</title>
<path fill="none" stroke="black" d="M311.85,-117.47C305.98,-103.49 297.59,-83.47 290.89,-67.5"/>
<polygon fill="black" stroke="black" points="294.07,-66.04 286.98,-58.17 287.62,-68.74 294.07,-66.04"/>
</g>
<!-- ChainedList_ChainedList_rect&#45;&gt;ChainedList_ChainedList -->
<g id="edge20" class="edge">
<title>ChainedList_ChainedList_rect&#45;&gt;ChainedList_ChainedList</title>
<path fill="none" stroke="black" d="M332.94,-117.47C344.69,-103.1 361.65,-82.34 374.88,-66.16"/>
<polygon fill="black" stroke="black" points="377.79,-68.13 381.4,-58.17 372.37,-63.7 377.79,-68.13"/>
</g>
</g>
</svg>
