<?xml version="1.0" encoding="UTF-8" standalone="no"?>
<!DOCTYPE svg PUBLIC "-//W3C//DTD SVG 1.1//EN"
 "http://www.w3.org/Graphics/SVG/1.1/DTD/svg11.dtd">
<!-- Generated by graphviz version 2.43.0 (0)
 -->
<!-- Title: PCUICCorrectness Pages: 1 -->
<svg width="510pt" height="259pt"
 viewBox="0.00 0.00 510.00 259.00" xmlns="http://www.w3.org/2000/svg" xmlns:xlink="http://www.w3.org/1999/xlink">
<g id="graph0" class="graph" transform="scale(1 1) rotate(0) translate(4 255)">
<title>PCUICCorrectness</title>
<polygon fill="white" stroke="transparent" points="-4,4 -4,-255 506,-255 506,4 -4,4"/>
<g id="clust1" class="cluster">
<title>cluster_PCUICCorrectness</title>
<polygon fill="#ffffc3" stroke="black" points="8.03,-8 8.03,-243 493.97,-243 493.97,-8 8.03,-8"/>
<text text-anchor="middle" x="83.53" y="-227.8" font-family="Times,serif" font-size="14.00">PCUICCorrectness</text>
</g>
<!-- PCUICCorrectness_adequacy_terminating -->
<g id="node1" class="node">
<title>PCUICCorrectness_adequacy_terminating</title>
<g id="a_node1"><a xlink:href="PCUICCorrectness.html#adequacy_terminating" xlink:title="adequacy_terminating">
<ellipse fill="#7fffd4" stroke="black" cx="242.55" cy="-186" rx="114.29" ry="18"/>
<ellipse fill="none" stroke="black" cx="242.55" cy="-186" rx="118.28" ry="22"/>
<ellipse fill="none" stroke="black" cx="242.55" cy="-186" rx="122.28" ry="26"/>
<text text-anchor="middle" x="242.55" y="-182.3" font-family="Times,serif" font-size="14.00">adequacy_terminating</text>
</a>
</g>
</g>
<!-- PCUICCorrectness_terminates_expr -->
<g id="node2" class="node">
<title>PCUICCorrectness_terminates_expr</title>
<g id="a_node2"><a xlink:href="PCUICCorrectness.html#terminates_expr" xlink:title="terminates_expr">
<ellipse fill="#f070d1" stroke="black" cx="103.55" cy="-106" rx="87.18" ry="18"/>
<text text-anchor="middle" x="103.55" y="-102.3" font-family="Times,serif" font-size="14.00">terminates_expr</text>
</a>
</g>
</g>
<!-- PCUICCorrectness_adequacy_terminating&#45;&gt;PCUICCorrectness_terminates_expr -->
<g id="edge1" class="edge">
<title>PCUICCorrectness_adequacy_terminating&#45;&gt;PCUICCorrectness_terminates_expr</title>
<path fill="none" stroke="black" d="M200.47,-161.39C181.6,-150.8 159.52,-138.41 141.21,-128.13"/>
<polygon fill="black" stroke="black" points="142.72,-124.97 132.28,-123.12 139.29,-131.07 142.72,-124.97"/>
</g>
<!-- PCUICCorrectness_expr_to_term_sound_closed -->
<g id="node3" class="node">
<title>PCUICCorrectness_expr_to_term_sound_closed</title>
<g id="a_node3"><a xlink:href="PCUICCorrectness.html#expr_to_term_sound_closed" xlink:title="expr_to_term_sound_closed">
<ellipse fill="#f070d1" stroke="black" cx="347.55" cy="-106" rx="137.58" ry="18"/>
<text text-anchor="middle" x="347.55" y="-102.3" font-family="Times,serif" font-size="14.00">expr_to_term_sound_closed</text>
</a>
</g>
</g>
<!-- PCUICCorrectness_adequacy_terminating&#45;&gt;PCUICCorrectness_expr_to_term_sound_closed -->
<g id="edge2" class="edge">
<title>PCUICCorrectness_adequacy_terminating&#45;&gt;PCUICCorrectness_expr_to_term_sound_closed</title>
<path fill="none" stroke="black" d="M275.2,-160.75C288.43,-150.92 303.64,-139.62 316.69,-129.93"/>
<polygon fill="black" stroke="black" points="318.97,-132.59 324.91,-123.82 314.79,-126.97 318.97,-132.59"/>
</g>
<!-- PCUICCorrectness_expr_to_term_sound -->
<g id="node4" class="node">
<title>PCUICCorrectness_expr_to_term_sound</title>
<g id="a_node4"><a xlink:href="PCUICCorrectness.html#expr_to_term_sound" xlink:title="expr_to_term_sound">
<ellipse fill="#f070d1" stroke="black" cx="347.55" cy="-34" rx="104.78" ry="18"/>
<text text-anchor="middle" x="347.55" y="-30.3" font-family="Times,serif" font-size="14.00">expr_to_term_sound</text>
</a>
</g>
</g>
<!-- PCUICCorrectness_expr_to_term_sound_closed&#45;&gt;PCUICCorrectness_expr_to_term_sound -->
<g id="edge3" class="edge">
<title>PCUICCorrectness_expr_to_term_sound_closed&#45;&gt;PCUICCorrectness_expr_to_term_sound</title>
<path fill="none" stroke="black" d="M347.55,-87.7C347.55,-79.98 347.55,-70.71 347.55,-62.11"/>
<polygon fill="black" stroke="black" points="351.05,-62.1 347.55,-52.1 344.05,-62.1 351.05,-62.1"/>
</g>
</g>
</svg>
