<?xml version="1.0" encoding="UTF-8" standalone="no"?>
<!DOCTYPE svg PUBLIC "-//W3C//DTD SVG 1.1//EN"
 "http://www.w3.org/Graphics/SVG/1.1/DTD/svg11.dtd">
<!-- Generated by graphviz version 2.43.0 (0)
 -->
<!-- Title: OptionMonad Pages: 1 -->
<svg width="366pt" height="187pt"
 viewBox="0.00 0.00 366.00 187.00" xmlns="http://www.w3.org/2000/svg" xmlns:xlink="http://www.w3.org/1999/xlink">
<g id="graph0" class="graph" transform="scale(1 1) rotate(0) translate(4 183)">
<title>OptionMonad</title>
<polygon fill="white" stroke="transparent" points="-4,4 -4,-183 362,-183 362,4 -4,4"/>
<g id="clust1" class="cluster">
<title>cluster_OptionMonad</title>
<polygon fill="#ffffc3" stroke="black" points="8.95,-8 8.95,-171 349.05,-171 349.05,-8 8.95,-8"/>
<text text-anchor="middle" x="65.45" y="-155.8" font-family="Times,serif" font-size="14.00">OptionMonad</text>
</g>
<!-- OptionMonad_MonadLaws_Monad_option -->
<g id="node1" class="node">
<title>OptionMonad_MonadLaws_Monad_option</title>
<g id="a_node1"><a xlink:href="OptionMonad.html#MonadLaws_Monad_option" xlink:title="MonadLaws_Monad_option">
<ellipse fill="#7fffd4" stroke="black" cx="178.81" cy="-114" rx="135.69" ry="18"/>
<ellipse fill="none" stroke="black" cx="178.81" cy="-114" rx="139.68" ry="22"/>
<ellipse fill="none" stroke="black" cx="178.81" cy="-114" rx="143.68" ry="26"/>
<text text-anchor="middle" x="178.81" y="-110.3" font-family="Times,serif" font-size="14.00">MonadLaws_Monad_option</text>
</a>
</g>
</g>
<!-- OptionMonad_Monad_option -->
<g id="node2" class="node">
<title>OptionMonad_Monad_option</title>
<g id="a_node2"><a xlink:href="OptionMonad.html#Monad_option" xlink:title="Monad_option">
<ellipse fill="#f070d1" stroke="black" cx="178.81" cy="-34" rx="76.09" ry="18"/>
<text text-anchor="middle" x="178.81" y="-30.3" font-family="Times,serif" font-size="14.00">Monad_option</text>
</a>
</g>
</g>
<!-- OptionMonad_MonadLaws_Monad_option&#45;&gt;OptionMonad_Monad_option -->
<g id="edge1" class="edge">
<title>OptionMonad_MonadLaws_Monad_option&#45;&gt;OptionMonad_Monad_option</title>
<path fill="none" stroke="black" d="M178.81,-87.89C178.81,-79.84 178.81,-70.88 178.81,-62.66"/>
<polygon fill="black" stroke="black" points="182.31,-62.41 178.81,-52.41 175.31,-62.41 182.31,-62.41"/>
</g>
</g>
</svg>
