<?xml version="1.0" encoding="UTF-8" standalone="no"?>
<!DOCTYPE svg PUBLIC "-//W3C//DTD SVG 1.1//EN"
 "http://www.w3.org/Graphics/SVG/1.1/DTD/svg11.dtd">
<!-- Generated by graphviz version 2.43.0 (0)
 -->
<!-- Title: EIP20TokenPrinters Pages: 1 -->
<svg width="554pt" height="281pt"
 viewBox="0.00 0.00 554.00 281.00" xmlns="http://www.w3.org/2000/svg" xmlns:xlink="http://www.w3.org/1999/xlink">
<g id="graph0" class="graph" transform="scale(1 1) rotate(0) translate(4 277)">
<title>EIP20TokenPrinters</title>
<polygon fill="white" stroke="transparent" points="-4,4 -4,-277 550,-277 550,4 -4,4"/>
<g id="clust1" class="cluster">
<title>cluster_EIP20TokenPrinters</title>
<polygon fill="#ffffc3" stroke="black" points="8,-8.18 8,-264.82 538,-264.82 538,-8.18 8,-8.18"/>
<text text-anchor="middle" x="88.5" y="-249.62" font-family="Times,serif" font-size="14.00">EIP20TokenPrinters</text>
</g>
<!-- EIP20TokenPrinters_showSerializedMsg -->
<g id="node1" class="node">
<title>EIP20TokenPrinters_showSerializedMsg</title>
<g id="a_node1"><a xlink:href="EIP20TokenPrinters.html#showSerializedMsg" xlink:title="showSerializedMsg">
<ellipse fill="#f070d1" stroke="black" cx="367" cy="-206.18" rx="100.96" ry="18"/>
<ellipse fill="none" stroke="black" cx="367" cy="-206.18" rx="104.97" ry="22"/>
<ellipse fill="none" stroke="black" cx="367" cy="-206.18" rx="108.98" ry="26"/>
<text text-anchor="middle" x="367" y="-202.48" font-family="Times,serif" font-size="14.00">showSerializedMsg</text>
</a>
</g>
</g>
<!-- EIP20TokenPrinters_showTokenSetup -->
<g id="node3" class="node">
<title>EIP20TokenPrinters_showTokenSetup</title>
<g id="a_node3"><a xlink:href="EIP20TokenPrinters.html#showTokenSetup" xlink:title="showTokenSetup">
<ellipse fill="#f070d1" stroke="black" cx="313" cy="-116.18" rx="89.08" ry="18"/>
<text text-anchor="middle" x="313" y="-112.48" font-family="Times,serif" font-size="14.00">showTokenSetup</text>
</a>
</g>
</g>
<!-- EIP20TokenPrinters_showSerializedMsg&#45;&gt;EIP20TokenPrinters_showTokenSetup -->
<g id="edge1" class="edge">
<title>EIP20TokenPrinters_showSerializedMsg&#45;&gt;EIP20TokenPrinters_showTokenSetup</title>
<path fill="none" stroke="black" d="M351.67,-180.2C344.46,-168.46 335.89,-154.47 328.64,-142.67"/>
<polygon fill="black" stroke="black" points="331.62,-140.83 323.41,-134.14 325.65,-144.49 331.62,-140.83"/>
</g>
<!-- EIP20TokenPrinters_showMsg -->
<g id="node4" class="node">
<title>EIP20TokenPrinters_showMsg</title>
<g id="a_node4"><a xlink:href="EIP20TokenPrinters.html#showMsg" xlink:title="showMsg">
<ellipse fill="#f070d1" stroke="black" cx="475" cy="-116.18" rx="54.69" ry="18"/>
<text text-anchor="middle" x="475" y="-112.48" font-family="Times,serif" font-size="14.00">showMsg</text>
</a>
</g>
</g>
<!-- EIP20TokenPrinters_showSerializedMsg&#45;&gt;EIP20TokenPrinters_showMsg -->
<g id="edge2" class="edge">
<title>EIP20TokenPrinters_showSerializedMsg&#45;&gt;EIP20TokenPrinters_showMsg</title>
<path fill="none" stroke="black" d="M396.51,-181.13C412.47,-168.13 432.04,-152.18 447.65,-139.47"/>
<polygon fill="black" stroke="black" points="449.87,-142.17 455.41,-133.14 445.45,-136.74 449.87,-142.17"/>
</g>
<!-- EIP20TokenPrinters_showTokenState -->
<g id="node2" class="node">
<title>EIP20TokenPrinters_showTokenState</title>
<g id="a_node2"><a xlink:href="EIP20TokenPrinters.html#showTokenState" xlink:title="showTokenState">
<ellipse fill="#f070d1" stroke="black" cx="111" cy="-116.18" rx="87.18" ry="18"/>
<ellipse fill="none" stroke="black" cx="111" cy="-116.18" rx="91.18" ry="22"/>
<ellipse fill="none" stroke="black" cx="111" cy="-116.18" rx="95.18" ry="26"/>
<text text-anchor="middle" x="111" y="-112.48" font-family="Times,serif" font-size="14.00">showTokenState</text>
</a>
</g>
</g>
<!-- EIP20TokenPrinters_showTokenValue -->
<g id="node5" class="node">
<title>EIP20TokenPrinters_showTokenValue</title>
<g id="a_node5"><a xlink:href="EIP20TokenPrinters.html#showTokenValue" xlink:title="showTokenValue">
<ellipse fill="#f070d1" stroke="black" cx="313" cy="-35.18" rx="87.18" ry="18"/>
<text text-anchor="middle" x="313" y="-31.48" font-family="Times,serif" font-size="14.00">showTokenValue</text>
</a>
</g>
</g>
<!-- EIP20TokenPrinters_showTokenState&#45;&gt;EIP20TokenPrinters_showTokenValue -->
<g id="edge3" class="edge">
<title>EIP20TokenPrinters_showTokenState&#45;&gt;EIP20TokenPrinters_showTokenValue</title>
<path fill="none" stroke="black" d="M163.81,-94.53C195.03,-82.32 234.28,-66.97 264.68,-55.08"/>
<polygon fill="black" stroke="black" points="266.18,-58.25 274.22,-51.35 263.63,-51.73 266.18,-58.25"/>
</g>
<!-- EIP20TokenPrinters_showTokenSetup&#45;&gt;EIP20TokenPrinters_showTokenValue -->
<g id="edge4" class="edge">
<title>EIP20TokenPrinters_showTokenSetup&#45;&gt;EIP20TokenPrinters_showTokenValue</title>
<path fill="none" stroke="black" d="M313,-98.04C313,-87.89 313,-74.81 313,-63.3"/>
<polygon fill="black" stroke="black" points="316.5,-63.29 313,-53.29 309.5,-63.29 316.5,-63.29"/>
</g>
<!-- EIP20TokenPrinters_showMsg&#45;&gt;EIP20TokenPrinters_showTokenValue -->
<g id="edge5" class="edge">
<title>EIP20TokenPrinters_showMsg&#45;&gt;EIP20TokenPrinters_showTokenValue</title>
<path fill="none" stroke="black" d="M445.66,-100.87C420.27,-88.49 383.25,-70.44 354.76,-56.54"/>
<polygon fill="black" stroke="black" points="355.98,-53.24 345.46,-52.01 352.91,-59.54 355.98,-53.24"/>
</g>
</g>
</svg>
