<?xml version="1.0" encoding="UTF-8" standalone="no"?>
<!DOCTYPE svg PUBLIC "-//W3C//DTD SVG 1.1//EN"
 "http://www.w3.org/Graphics/SVG/1.1/DTD/svg11.dtd">
<!-- Generated by graphviz version 2.43.0 (0)
 -->
<!-- Title: Wf Pages: 1 -->
<svg width="1339pt" height="674pt"
 viewBox="0.00 0.00 1339.00 673.50" xmlns="http://www.w3.org/2000/svg" xmlns:xlink="http://www.w3.org/1999/xlink">
<g id="graph0" class="graph" transform="scale(1 1) rotate(0) translate(4 669.5)">
<title>Wf</title>
<polygon fill="white" stroke="transparent" points="-4,4 -4,-669.5 1335,-669.5 1335,4 -4,4"/>
<g id="clust1" class="cluster">
<title>cluster_Wf</title>
<polygon fill="#ffffc3" stroke="black" points="8,-10.67 8,-654.83 1323,-654.83 1323,-10.67 8,-10.67"/>
<text text-anchor="middle" x="26" y="-639.63" font-family="Times,serif" font-size="14.00">Wf</text>
</g>
<!-- Wf_env_ok -->
<g id="node1" class="node">
<title>Wf_env_ok</title>
<g id="a_node1"><a xlink:href="Wf.html#env_ok" xlink:title="env_ok">
<ellipse fill="#f070d1" stroke="black" cx="629" cy="-461.67" rx="42.45" ry="18"/>
<ellipse fill="none" stroke="black" cx="629" cy="-461.67" rx="46.47" ry="22"/>
<ellipse fill="none" stroke="black" cx="629" cy="-461.67" rx="50.49" ry="26"/>
<text text-anchor="middle" x="629" y="-457.97" font-family="Times,serif" font-size="14.00">env_ok</text>
</a>
</g>
</g>
<!-- Wf_val_ok -->
<g id="node11" class="node">
<title>Wf_val_ok</title>
<g id="a_node11"><a xlink:href="Wf.html#val_ok" xlink:title="val_ok">
<ellipse fill="#e2cdfa" stroke="black" cx="629" cy="-343.67" rx="39.79" ry="18"/>
<text text-anchor="middle" x="629" y="-339.97" font-family="Times,serif" font-size="14.00">val_ok</text>
</a>
</g>
</g>
<!-- Wf_env_ok&#45;&gt;Wf_val_ok -->
<g id="edge1" class="edge">
<title>Wf_env_ok&#45;&gt;Wf_val_ok</title>
<path fill="none" stroke="black" d="M629,-435.5C629,-416.81 629,-391.33 629,-372.12"/>
<polygon fill="black" stroke="black" points="632.5,-371.9 629,-361.9 625.5,-371.9 632.5,-371.9"/>
</g>
<!-- Wf_val_ok_sind -->
<g id="node2" class="node">
<title>Wf_val_ok_sind</title>
<g id="a_node2"><a xlink:href="Wf.html#val_ok_sind" xlink:title="val_ok_sind">
<ellipse fill="#f070d1" stroke="black" cx="810" cy="-461.67" rx="63.87" ry="18"/>
<ellipse fill="none" stroke="black" cx="810" cy="-461.67" rx="67.88" ry="22"/>
<ellipse fill="none" stroke="black" cx="810" cy="-461.67" rx="71.89" ry="26"/>
<text text-anchor="middle" x="810" y="-457.97" font-family="Times,serif" font-size="14.00">val_ok_sind</text>
</a>
</g>
</g>
<!-- Wf_vokTy -->
<g id="node6" class="node">
<title>Wf_vokTy</title>
<g id="a_node6"><a xlink:href="Wf.html#vokTy" xlink:title="vokTy">
<ellipse fill="#7faaff" stroke="black" cx="1277" cy="-343.67" rx="38.19" ry="18"/>
<text text-anchor="middle" x="1277" y="-339.97" font-family="Times,serif" font-size="14.00">vokTy</text>
</a>
</g>
</g>
<!-- Wf_val_ok_sind&#45;&gt;Wf_vokTy -->
<g id="edge2" class="edge">
<title>Wf_val_ok_sind&#45;&gt;Wf_vokTy</title>
<path fill="none" stroke="black" d="M862.06,-443.7C871.63,-440.84 881.58,-438.03 891,-435.67 1039.88,-398.32 1085.32,-420.94 1230,-369.67 1234.99,-367.9 1240.1,-365.67 1245.03,-363.28"/>
<polygon fill="black" stroke="black" points="1246.91,-366.24 1254.19,-358.55 1243.7,-360.02 1246.91,-366.24"/>
</g>
<!-- Wf_vokContr -->
<g id="node7" class="node">
<title>Wf_vokContr</title>
<g id="a_node7"><a xlink:href="Wf.html#vokContr" xlink:title="vokContr">
<ellipse fill="#7faaff" stroke="black" cx="740" cy="-343.67" rx="53.09" ry="18"/>
<text text-anchor="middle" x="740" y="-339.97" font-family="Times,serif" font-size="14.00">vokContr</text>
</a>
</g>
</g>
<!-- Wf_val_ok_sind&#45;&gt;Wf_vokContr -->
<g id="edge3" class="edge">
<title>Wf_val_ok_sind&#45;&gt;Wf_vokContr</title>
<path fill="none" stroke="black" d="M795.15,-436.07C783.44,-416.66 767.17,-389.69 755.33,-370.08"/>
<polygon fill="black" stroke="black" points="758.24,-368.13 750.08,-361.37 752.25,-371.74 758.24,-368.13"/>
</g>
<!-- Wf_vokTyClos -->
<g id="node8" class="node">
<title>Wf_vokTyClos</title>
<g id="a_node8"><a xlink:href="Wf.html#vokTyClos" xlink:title="vokTyClos">
<ellipse fill="#7faaff" stroke="black" cx="869" cy="-343.67" rx="57.69" ry="18"/>
<text text-anchor="middle" x="869" y="-339.97" font-family="Times,serif" font-size="14.00">vokTyClos</text>
</a>
</g>
</g>
<!-- Wf_val_ok_sind&#45;&gt;Wf_vokTyClos -->
<g id="edge4" class="edge">
<title>Wf_val_ok_sind&#45;&gt;Wf_vokTyClos</title>
<path fill="none" stroke="black" d="M822.66,-435.78C832.43,-416.56 845.92,-390.04 855.83,-370.57"/>
<polygon fill="black" stroke="black" points="858.96,-372.14 860.37,-361.64 852.72,-368.96 858.96,-372.14"/>
</g>
<!-- Wf_vokClosFix -->
<g id="node9" class="node">
<title>Wf_vokClosFix</title>
<g id="a_node9"><a xlink:href="Wf.html#vokClosFix" xlink:title="vokClosFix">
<ellipse fill="#7faaff" stroke="black" cx="1007" cy="-343.67" rx="61.99" ry="18"/>
<text text-anchor="middle" x="1007" y="-339.97" font-family="Times,serif" font-size="14.00">vokClosFix</text>
</a>
</g>
</g>
<!-- Wf_val_ok_sind&#45;&gt;Wf_vokClosFix -->
<g id="edge5" class="edge">
<title>Wf_val_ok_sind&#45;&gt;Wf_vokClosFix</title>
<path fill="none" stroke="black" d="M846.59,-439.12C882.34,-418.07 936.39,-386.25 971.69,-365.46"/>
<polygon fill="black" stroke="black" points="973.84,-368.26 980.68,-360.17 970.29,-362.22 973.84,-368.26"/>
</g>
<!-- Wf_vokClosLam -->
<g id="node10" class="node">
<title>Wf_vokClosLam</title>
<g id="a_node10"><a xlink:href="Wf.html#vokClosLam" xlink:title="vokClosLam">
<ellipse fill="#7faaff" stroke="black" cx="1154" cy="-343.67" rx="66.89" ry="18"/>
<text text-anchor="middle" x="1154" y="-339.97" font-family="Times,serif" font-size="14.00">vokClosLam</text>
</a>
</g>
</g>
<!-- Wf_val_ok_sind&#45;&gt;Wf_vokClosLam -->
<g id="edge6" class="edge">
<title>Wf_val_ok_sind&#45;&gt;Wf_vokClosLam</title>
<path fill="none" stroke="black" d="M861.13,-443.43C926.64,-421.34 1039.46,-383.29 1104.29,-361.43"/>
<polygon fill="black" stroke="black" points="1105.52,-364.71 1113.88,-358.2 1103.28,-358.08 1105.52,-364.71"/>
</g>
<!-- Wf_val_ok_sind&#45;&gt;Wf_val_ok -->
<g id="edge7" class="edge">
<title>Wf_val_ok_sind&#45;&gt;Wf_val_ok</title>
<path fill="none" stroke="black" d="M775.53,-438.58C742.06,-417.13 691.73,-384.87 659.63,-364.3"/>
<polygon fill="black" stroke="black" points="661.4,-361.27 651.09,-358.83 657.62,-367.17 661.4,-361.27"/>
</g>
<!-- Wf_val_ok_rec -->
<g id="node3" class="node">
<title>Wf_val_ok_rec</title>
<g id="a_node3"><a xlink:href="Wf.html#val_ok_rec" xlink:title="val_ok_rec">
<ellipse fill="#f070d1" stroke="black" cx="1113" cy="-578.67" rx="58.49" ry="18"/>
<ellipse fill="none" stroke="black" cx="1113" cy="-578.67" rx="62.49" ry="22"/>
<ellipse fill="none" stroke="black" cx="1113" cy="-578.67" rx="66.49" ry="26"/>
<text text-anchor="middle" x="1113" y="-574.97" font-family="Times,serif" font-size="14.00">val_ok_rec</text>
</a>
</g>
</g>
<!-- Wf_val_ok_rect -->
<g id="node5" class="node">
<title>Wf_val_ok_rect</title>
<g id="a_node5"><a xlink:href="Wf.html#val_ok_rect" xlink:title="val_ok_rect">
<ellipse fill="#f070d1" stroke="black" cx="1113" cy="-461.67" rx="62.29" ry="18"/>
<text text-anchor="middle" x="1113" y="-457.97" font-family="Times,serif" font-size="14.00">val_ok_rect</text>
</a>
</g>
</g>
<!-- Wf_val_ok_rec&#45;&gt;Wf_val_ok_rect -->
<g id="edge8" class="edge">
<title>Wf_val_ok_rec&#45;&gt;Wf_val_ok_rect</title>
<path fill="none" stroke="black" d="M1113,-552.43C1113,-534 1113,-509.02 1113,-490.09"/>
<polygon fill="black" stroke="black" points="1116.5,-490.01 1113,-480.01 1109.5,-490.01 1116.5,-490.01"/>
</g>
<!-- Wf_val_ok_ind -->
<g id="node4" class="node">
<title>Wf_val_ok_ind</title>
<g id="a_node4"><a xlink:href="Wf.html#val_ok_ind" xlink:title="val_ok_ind">
<ellipse fill="#7fffd4" stroke="black" cx="966" cy="-461.67" rx="58.49" ry="18"/>
<ellipse fill="none" stroke="black" cx="966" cy="-461.67" rx="62.49" ry="22"/>
<ellipse fill="none" stroke="black" cx="966" cy="-461.67" rx="66.49" ry="26"/>
<text text-anchor="middle" x="966" y="-457.97" font-family="Times,serif" font-size="14.00">val_ok_ind</text>
</a>
</g>
</g>
<!-- Wf_val_ok_ind&#45;&gt;Wf_vokTy -->
<g id="edge9" class="edge">
<title>Wf_val_ok_ind&#45;&gt;Wf_vokTy</title>
<path fill="none" stroke="black" d="M1015.23,-444.17C1085.9,-420.4 1209.86,-378.43 1230,-369.67 1234.75,-367.6 1239.68,-365.24 1244.47,-362.81"/>
<polygon fill="black" stroke="black" points="1246.2,-365.86 1253.45,-358.13 1242.96,-359.65 1246.2,-365.86"/>
</g>
<!-- Wf_val_ok_ind&#45;&gt;Wf_vokContr -->
<g id="edge10" class="edge">
<title>Wf_val_ok_ind&#45;&gt;Wf_vokContr</title>
<path fill="none" stroke="black" d="M926.89,-440.6C884.73,-418.95 818.12,-384.76 776.85,-363.58"/>
<polygon fill="black" stroke="black" points="778.44,-360.46 767.94,-359.01 775.24,-366.69 778.44,-360.46"/>
</g>
<!-- Wf_val_ok_ind&#45;&gt;Wf_vokTyClos -->
<g id="edge11" class="edge">
<title>Wf_val_ok_ind&#45;&gt;Wf_vokTyClos</title>
<path fill="none" stroke="black" d="M945.9,-436.63C929.32,-416.8 905.9,-388.79 889.27,-368.91"/>
<polygon fill="black" stroke="black" points="891.92,-366.62 882.82,-361.19 886.55,-371.11 891.92,-366.62"/>
</g>
<!-- Wf_val_ok_ind&#45;&gt;Wf_vokClosFix -->
<g id="edge12" class="edge">
<title>Wf_val_ok_ind&#45;&gt;Wf_vokClosFix</title>
<path fill="none" stroke="black" d="M974.8,-435.78C981.53,-416.74 990.79,-390.52 997.66,-371.1"/>
<polygon fill="black" stroke="black" points="1000.97,-372.23 1001,-361.64 994.37,-369.9 1000.97,-372.23"/>
</g>
<!-- Wf_val_ok_ind&#45;&gt;Wf_vokClosLam -->
<g id="edge13" class="edge">
<title>Wf_val_ok_ind&#45;&gt;Wf_vokClosLam</title>
<path fill="none" stroke="black" d="M1000.48,-439.39C1034.44,-418.44 1086.01,-386.62 1119.85,-365.74"/>
<polygon fill="black" stroke="black" points="1121.8,-368.65 1128.48,-360.42 1118.13,-362.69 1121.8,-368.65"/>
</g>
<!-- Wf_val_ok_ind&#45;&gt;Wf_val_ok -->
<g id="edge14" class="edge">
<title>Wf_val_ok_ind&#45;&gt;Wf_val_ok</title>
<path fill="none" stroke="black" d="M916.83,-444.11C908.23,-441.27 899.36,-438.36 891,-435.67 796.65,-405.33 769.81,-406.99 678,-369.67 672.86,-367.58 667.52,-365.15 662.35,-362.64"/>
<polygon fill="black" stroke="black" points="663.8,-359.45 653.29,-358.1 660.66,-365.71 663.8,-359.45"/>
</g>
<!-- Wf_val_ok_rect&#45;&gt;Wf_vokTy -->
<g id="edge15" class="edge">
<title>Wf_val_ok_rect&#45;&gt;Wf_vokTy</title>
<path fill="none" stroke="black" d="M1135.46,-444.78C1164.73,-424.08 1215.95,-387.85 1248.09,-365.12"/>
<polygon fill="black" stroke="black" points="1250.47,-367.72 1256.62,-359.09 1246.43,-362 1250.47,-367.72"/>
</g>
<!-- Wf_val_ok_rect&#45;&gt;Wf_vokContr -->
<g id="edge16" class="edge">
<title>Wf_val_ok_rect&#45;&gt;Wf_vokContr</title>
<path fill="none" stroke="black" d="M1075.41,-447.1C1064.37,-443.26 1052.24,-439.17 1041,-435.67 935.78,-402.91 906.38,-405 802,-369.67 795.12,-367.34 787.9,-364.66 780.92,-361.93"/>
<polygon fill="black" stroke="black" points="782.18,-358.67 771.6,-358.22 779.59,-365.17 782.18,-358.67"/>
</g>
<!-- Wf_val_ok_rect&#45;&gt;Wf_vokTyClos -->
<g id="edge17" class="edge">
<title>Wf_val_ok_rect&#45;&gt;Wf_vokTyClos</title>
<path fill="none" stroke="black" d="M1082.1,-445.98C1037.98,-425 956.92,-386.47 908.5,-363.45"/>
<polygon fill="black" stroke="black" points="909.8,-360.19 899.27,-359.06 906.8,-366.51 909.8,-360.19"/>
</g>
<!-- Wf_val_ok_rect&#45;&gt;Wf_vokClosFix -->
<g id="edge18" class="edge">
<title>Wf_val_ok_rect&#45;&gt;Wf_vokClosFix</title>
<path fill="none" stroke="black" d="M1097.81,-444.05C1079.79,-424.32 1049.59,-391.27 1029,-368.75"/>
<polygon fill="black" stroke="black" points="1031.49,-366.28 1022.16,-361.26 1026.32,-371 1031.49,-366.28"/>
</g>
<!-- Wf_val_ok_rect&#45;&gt;Wf_vokClosLam -->
<g id="edge19" class="edge">
<title>Wf_val_ok_rect&#45;&gt;Wf_vokClosLam</title>
<path fill="none" stroke="black" d="M1119.05,-443.55C1125.77,-424.53 1136.71,-393.58 1144.56,-371.37"/>
<polygon fill="black" stroke="black" points="1147.89,-372.45 1147.93,-361.86 1141.29,-370.12 1147.89,-372.45"/>
</g>
<!-- Wf_val_ok_rect&#45;&gt;Wf_val_ok -->
<g id="edge20" class="edge">
<title>Wf_val_ok_rect&#45;&gt;Wf_val_ok</title>
<path fill="none" stroke="black" d="M1076.71,-446.84C1065.38,-442.86 1052.77,-438.76 1041,-435.67 882.41,-393.99 833.35,-422.16 678,-369.67 672.57,-367.84 667,-365.49 661.64,-362.97"/>
<polygon fill="black" stroke="black" points="662.83,-359.65 652.32,-358.32 659.71,-365.91 662.83,-359.65"/>
</g>
<!-- Wf_ty_val -->
<g id="node21" class="node">
<title>Wf_ty_val</title>
<g id="a_node21"><a xlink:href="Wf.html#ty_val" xlink:title="ty_val">
<ellipse fill="#e2cdfa" stroke="black" cx="740" cy="-237.67" rx="38.19" ry="18"/>
<text text-anchor="middle" x="740" y="-233.97" font-family="Times,serif" font-size="14.00">ty_val</text>
</a>
</g>
</g>
<!-- Wf_vokTy&#45;&gt;Wf_ty_val -->
<g id="edge21" class="edge">
<title>Wf_vokTy&#45;&gt;Wf_ty_val</title>
<path fill="none" stroke="black" d="M1254.73,-328.89C1247.12,-324.72 1238.41,-320.5 1230,-317.67 1208.97,-310.6 904.41,-263.74 786.31,-245.72"/>
<polygon fill="black" stroke="black" points="786.56,-242.21 776.14,-244.16 785.5,-249.13 786.56,-242.21"/>
</g>
<!-- Wf_ty_expr_env_ok -->
<g id="node22" class="node">
<title>Wf_ty_expr_env_ok</title>
<g id="a_node22"><a xlink:href="Wf.html#ty_expr_env_ok" xlink:title="ty_expr_env_ok">
<ellipse fill="#f070d1" stroke="black" cx="942" cy="-237.67" rx="81.49" ry="18"/>
<text text-anchor="middle" x="942" y="-233.97" font-family="Times,serif" font-size="14.00">ty_expr_env_ok</text>
</a>
</g>
</g>
<!-- Wf_vokTy&#45;&gt;Wf_ty_expr_env_ok -->
<g id="edge22" class="edge">
<title>Wf_vokTy&#45;&gt;Wf_ty_expr_env_ok</title>
<path fill="none" stroke="black" d="M1254.06,-329.16C1246.55,-325.1 1238.07,-320.88 1230,-317.67 1156.67,-288.53 1068.74,-266.11 1009.49,-252.73"/>
<polygon fill="black" stroke="black" points="1010.02,-249.26 999.5,-250.5 1008.49,-256.09 1010.02,-249.26"/>
</g>
<!-- Wf_vokContr&#45;&gt;Wf_ty_val -->
<g id="edge23" class="edge">
<title>Wf_vokContr&#45;&gt;Wf_ty_val</title>
<path fill="none" stroke="black" d="M740,-325.5C740,-309.31 740,-284.8 740,-265.94"/>
<polygon fill="black" stroke="black" points="743.5,-265.87 740,-255.87 736.5,-265.87 743.5,-265.87"/>
</g>
<!-- Wf_vokContr&#45;&gt;Wf_ty_expr_env_ok -->
<g id="edge24" class="edge">
<title>Wf_vokContr&#45;&gt;Wf_ty_expr_env_ok</title>
<path fill="none" stroke="black" d="M768.09,-328.21C803.01,-310.23 862.85,-279.42 902.41,-259.05"/>
<polygon fill="black" stroke="black" points="904.22,-262.06 911.51,-254.37 901.02,-255.83 904.22,-262.06"/>
</g>
<!-- Wf_vokTyClos&#45;&gt;Wf_ty_val -->
<g id="edge25" class="edge">
<title>Wf_vokTyClos&#45;&gt;Wf_ty_val</title>
<path fill="none" stroke="black" d="M849.13,-326.65C826.9,-308.73 790.81,-279.64 766.27,-259.85"/>
<polygon fill="black" stroke="black" points="768.41,-257.08 758.43,-253.53 764.02,-262.53 768.41,-257.08"/>
</g>
<!-- Wf_vokTyClos&#45;&gt;Wf_ty_expr_env_ok -->
<g id="edge26" class="edge">
<title>Wf_vokTyClos&#45;&gt;Wf_ty_expr_env_ok</title>
<path fill="none" stroke="black" d="M880.73,-325.96C892.47,-309.23 910.69,-283.27 924.22,-264.01"/>
<polygon fill="black" stroke="black" points="927.18,-265.88 930.06,-255.68 921.45,-261.86 927.18,-265.88"/>
</g>
<!-- Wf_vokClosFix&#45;&gt;Wf_ty_val -->
<g id="edge27" class="edge">
<title>Wf_vokClosFix&#45;&gt;Wf_ty_val</title>
<path fill="none" stroke="black" d="M971.54,-328.86C921.3,-309.29 829.77,-273.64 778.12,-253.52"/>
<polygon fill="black" stroke="black" points="779.24,-250.2 768.65,-249.83 776.7,-256.72 779.24,-250.2"/>
</g>
<!-- Wf_vokClosFix&#45;&gt;Wf_ty_expr_env_ok -->
<g id="edge28" class="edge">
<title>Wf_vokClosFix&#45;&gt;Wf_ty_expr_env_ok</title>
<path fill="none" stroke="black" d="M996.27,-325.5C985.81,-308.76 969.78,-283.12 957.85,-264.04"/>
<polygon fill="black" stroke="black" points="960.8,-262.15 952.53,-255.52 954.87,-265.86 960.8,-262.15"/>
</g>
<!-- Wf_vokClosLam&#45;&gt;Wf_ty_val -->
<g id="edge29" class="edge">
<title>Wf_vokClosLam&#45;&gt;Wf_ty_val</title>
<path fill="none" stroke="black" d="M1114.76,-329.03C1103,-325.14 1090.04,-321.05 1078,-317.67 973.91,-288.45 849.72,-261.38 784.72,-247.81"/>
<polygon fill="black" stroke="black" points="785.31,-244.35 774.8,-245.74 783.88,-251.21 785.31,-244.35"/>
</g>
<!-- Wf_vokClosLam&#45;&gt;Wf_ty_expr_env_ok -->
<g id="edge30" class="edge">
<title>Wf_vokClosLam&#45;&gt;Wf_ty_expr_env_ok</title>
<path fill="none" stroke="black" d="M1123.17,-327.55C1086.2,-309.41 1024.1,-278.94 983.08,-258.82"/>
<polygon fill="black" stroke="black" points="984.42,-255.58 973.9,-254.32 981.34,-261.87 984.42,-255.58"/>
</g>
<!-- Wf_val_ok&#45;&gt;Wf_ty_val -->
<g id="edge31" class="edge">
<title>Wf_val_ok&#45;&gt;Wf_ty_val</title>
<path fill="none" stroke="black" d="M645.86,-326.87C664.55,-309.36 694.84,-280.98 716,-261.15"/>
<polygon fill="black" stroke="black" points="718.44,-263.66 723.35,-254.27 713.66,-258.56 718.44,-263.66"/>
</g>
<!-- Wf_val_ok&#45;&gt;Wf_ty_expr_env_ok -->
<g id="edge32" class="edge">
<title>Wf_val_ok&#45;&gt;Wf_ty_expr_env_ok</title>
<path fill="none" stroke="black" d="M653.02,-329.32C660.85,-325.27 669.67,-321.01 678,-317.67 745.2,-290.73 825.2,-268.03 879.39,-253.98"/>
<polygon fill="black" stroke="black" points="880.39,-257.34 889.2,-251.46 878.64,-250.56 880.39,-257.34"/>
</g>
<!-- Wf_ty_val_sind -->
<g id="node12" class="node">
<title>Wf_ty_val_sind</title>
<g id="a_node12"><a xlink:href="Wf.html#ty_val_sind" xlink:title="ty_val_sind">
<ellipse fill="#f070d1" stroke="black" cx="502" cy="-343.67" rx="61.96" ry="18"/>
<ellipse fill="none" stroke="black" cx="502" cy="-343.67" rx="65.98" ry="22"/>
<ellipse fill="none" stroke="black" cx="502" cy="-343.67" rx="69.99" ry="26"/>
<text text-anchor="middle" x="502" y="-339.97" font-family="Times,serif" font-size="14.00">ty_val_sind</text>
</a>
</g>
</g>
<!-- Wf_vtyArr -->
<g id="node16" class="node">
<title>Wf_vtyArr</title>
<g id="a_node16"><a xlink:href="Wf.html#vtyArr" xlink:title="vtyArr">
<ellipse fill="#7faaff" stroke="black" cx="551" cy="-237.67" rx="40.09" ry="18"/>
<text text-anchor="middle" x="551" y="-233.97" font-family="Times,serif" font-size="14.00">vtyArr</text>
</a>
</g>
</g>
<!-- Wf_ty_val_sind&#45;&gt;Wf_vtyArr -->
<g id="edge33" class="edge">
<title>Wf_ty_val_sind&#45;&gt;Wf_vtyArr</title>
<path fill="none" stroke="black" d="M513.61,-318.02C521.16,-302.01 530.99,-281.15 538.67,-264.84"/>
<polygon fill="black" stroke="black" points="542.04,-265.89 543.14,-255.35 535.71,-262.91 542.04,-265.89"/>
</g>
<!-- Wf_vtyApp -->
<g id="node17" class="node">
<title>Wf_vtyApp</title>
<g id="a_node17"><a xlink:href="Wf.html#vtyApp" xlink:title="vtyApp">
<ellipse fill="#7faaff" stroke="black" cx="129" cy="-237.67" rx="43.59" ry="18"/>
<text text-anchor="middle" x="129" y="-233.97" font-family="Times,serif" font-size="14.00">vtyApp</text>
</a>
</g>
</g>
<!-- Wf_ty_val_sind&#45;&gt;Wf_vtyApp -->
<g id="edge34" class="edge">
<title>Wf_ty_val_sind&#45;&gt;Wf_vtyApp</title>
<path fill="none" stroke="black" d="M450.7,-325.99C441.51,-323.13 431.99,-320.25 423,-317.67 316.68,-287.2 288.26,-286.35 182,-255.67 178.65,-254.7 175.19,-253.67 171.72,-252.61"/>
<polygon fill="black" stroke="black" points="172.58,-249.21 161.99,-249.58 170.49,-255.89 172.58,-249.21"/>
</g>
<!-- Wf_vtyForall -->
<g id="node18" class="node">
<title>Wf_vtyForall</title>
<g id="a_node18"><a xlink:href="Wf.html#vtyForall" xlink:title="vtyForall">
<ellipse fill="#7faaff" stroke="black" cx="243" cy="-237.67" rx="51.99" ry="18"/>
<text text-anchor="middle" x="243" y="-233.97" font-family="Times,serif" font-size="14.00">vtyForall</text>
</a>
</g>
</g>
<!-- Wf_ty_val_sind&#45;&gt;Wf_vtyForall -->
<g id="edge35" class="edge">
<title>Wf_ty_val_sind&#45;&gt;Wf_vtyForall</title>
<path fill="none" stroke="black" d="M455.7,-324.08C407.34,-304.66 332.13,-274.46 285.32,-255.66"/>
<polygon fill="black" stroke="black" points="286.36,-252.31 275.78,-251.83 283.75,-258.81 286.36,-252.31"/>
</g>
<!-- Wf_vtyRel -->
<g id="node19" class="node">
<title>Wf_vtyRel</title>
<g id="a_node19"><a xlink:href="Wf.html#vtyRel" xlink:title="vtyRel">
<ellipse fill="#7faaff" stroke="black" cx="353" cy="-237.67" rx="40.09" ry="18"/>
<text text-anchor="middle" x="353" y="-233.97" font-family="Times,serif" font-size="14.00">vtyRel</text>
</a>
</g>
</g>
<!-- Wf_ty_val_sind&#45;&gt;Wf_vtyRel -->
<g id="edge36" class="edge">
<title>Wf_ty_val_sind&#45;&gt;Wf_vtyRel</title>
<path fill="none" stroke="black" d="M470.04,-320.36C444.03,-302.21 407.62,-276.79 382.35,-259.15"/>
<polygon fill="black" stroke="black" points="384.11,-256.12 373.91,-253.26 380.1,-261.86 384.11,-256.12"/>
</g>
<!-- Wf_vtyInd -->
<g id="node20" class="node">
<title>Wf_vtyInd</title>
<g id="a_node20"><a xlink:href="Wf.html#vtyInd" xlink:title="vtyInd">
<ellipse fill="#7faaff" stroke="black" cx="452" cy="-237.67" rx="40.09" ry="18"/>
<text text-anchor="middle" x="452" y="-233.97" font-family="Times,serif" font-size="14.00">vtyInd</text>
</a>
</g>
</g>
<!-- Wf_ty_val_sind&#45;&gt;Wf_vtyInd -->
<g id="edge37" class="edge">
<title>Wf_ty_val_sind&#45;&gt;Wf_vtyInd</title>
<path fill="none" stroke="black" d="M490.15,-318.02C482.38,-301.85 472.23,-280.75 464.36,-264.38"/>
<polygon fill="black" stroke="black" points="467.51,-262.85 460.02,-255.35 461.2,-265.88 467.51,-262.85"/>
</g>
<!-- Wf_ty_val_sind&#45;&gt;Wf_ty_val -->
<g id="edge38" class="edge">
<title>Wf_ty_val_sind&#45;&gt;Wf_ty_val</title>
<path fill="none" stroke="black" d="M545.93,-323.47C591.29,-303.65 661.24,-273.09 703.61,-254.57"/>
<polygon fill="black" stroke="black" points="705.22,-257.69 712.98,-250.48 702.42,-251.27 705.22,-257.69"/>
</g>
<!-- Wf_ty_val_rec -->
<g id="node13" class="node">
<title>Wf_ty_val_rec</title>
<g id="a_node13"><a xlink:href="Wf.html#ty_val_rec" xlink:title="ty_val_rec">
<ellipse fill="#f070d1" stroke="black" cx="353" cy="-461.67" rx="57.37" ry="18"/>
<ellipse fill="none" stroke="black" cx="353" cy="-461.67" rx="61.38" ry="22"/>
<ellipse fill="none" stroke="black" cx="353" cy="-461.67" rx="65.39" ry="26"/>
<text text-anchor="middle" x="353" y="-457.97" font-family="Times,serif" font-size="14.00">ty_val_rec</text>
</a>
</g>
</g>
<!-- Wf_ty_val_rect -->
<g id="node15" class="node">
<title>Wf_ty_val_rect</title>
<g id="a_node15"><a xlink:href="Wf.html#ty_val_rect" xlink:title="ty_val_rect">
<ellipse fill="#f070d1" stroke="black" cx="353" cy="-343.67" rx="61.19" ry="18"/>
<text text-anchor="middle" x="353" y="-339.97" font-family="Times,serif" font-size="14.00">ty_val_rect</text>
</a>
</g>
</g>
<!-- Wf_ty_val_rec&#45;&gt;Wf_ty_val_rect -->
<g id="edge39" class="edge">
<title>Wf_ty_val_rec&#45;&gt;Wf_ty_val_rect</title>
<path fill="none" stroke="black" d="M353,-435.5C353,-416.81 353,-391.33 353,-372.12"/>
<polygon fill="black" stroke="black" points="356.5,-371.9 353,-361.9 349.5,-371.9 356.5,-371.9"/>
</g>
<!-- Wf_ty_val_ind -->
<g id="node14" class="node">
<title>Wf_ty_val_ind</title>
<g id="a_node14"><a xlink:href="Wf.html#ty_val_ind" xlink:title="ty_val_ind">
<ellipse fill="#7fffd4" stroke="black" cx="209" cy="-343.67" rx="57.37" ry="18"/>
<ellipse fill="none" stroke="black" cx="209" cy="-343.67" rx="61.38" ry="22"/>
<ellipse fill="none" stroke="black" cx="209" cy="-343.67" rx="65.39" ry="26"/>
<text text-anchor="middle" x="209" y="-339.97" font-family="Times,serif" font-size="14.00">ty_val_ind</text>
</a>
</g>
</g>
<!-- Wf_ty_val_ind&#45;&gt;Wf_vtyArr -->
<g id="edge40" class="edge">
<title>Wf_ty_val_ind&#45;&gt;Wf_vtyArr</title>
<path fill="none" stroke="black" d="M257.05,-326.06C265.67,-323.19 274.58,-320.29 283,-317.67 379.19,-287.76 404.84,-285.67 501,-255.67 504.11,-254.7 507.31,-253.67 510.53,-252.62"/>
<polygon fill="black" stroke="black" points="511.75,-255.91 520.14,-249.43 509.55,-249.26 511.75,-255.91"/>
</g>
<!-- Wf_ty_val_ind&#45;&gt;Wf_vtyApp -->
<g id="edge41" class="edge">
<title>Wf_ty_val_ind&#45;&gt;Wf_vtyApp</title>
<path fill="none" stroke="black" d="M190.45,-318.55C177.71,-301.99 160.86,-280.08 148.02,-263.4"/>
<polygon fill="black" stroke="black" points="150.59,-261 141.72,-255.21 145.04,-265.27 150.59,-261"/>
</g>
<!-- Wf_ty_val_ind&#45;&gt;Wf_vtyForall -->
<g id="edge42" class="edge">
<title>Wf_ty_val_ind&#45;&gt;Wf_vtyForall</title>
<path fill="none" stroke="black" d="M217.14,-317.76C222.3,-301.98 228.97,-281.6 234.24,-265.47"/>
<polygon fill="black" stroke="black" points="237.69,-266.17 237.47,-255.58 231.04,-264 237.69,-266.17"/>
</g>
<!-- Wf_ty_val_ind&#45;&gt;Wf_vtyRel -->
<g id="edge43" class="edge">
<title>Wf_ty_val_ind&#45;&gt;Wf_vtyRel</title>
<path fill="none" stroke="black" d="M239.54,-320.61C264.65,-302.48 299.96,-276.97 324.5,-259.25"/>
<polygon fill="black" stroke="black" points="326.64,-262.03 332.69,-253.34 322.54,-256.35 326.64,-262.03"/>
</g>
<!-- Wf_ty_val_ind&#45;&gt;Wf_vtyInd -->
<g id="edge44" class="edge">
<title>Wf_ty_val_ind&#45;&gt;Wf_vtyInd</title>
<path fill="none" stroke="black" d="M252.44,-324.08C298.51,-304.36 370.55,-273.53 414.31,-254.8"/>
<polygon fill="black" stroke="black" points="415.91,-257.92 423.73,-250.77 413.16,-251.49 415.91,-257.92"/>
</g>
<!-- Wf_ty_val_ind&#45;&gt;Wf_ty_val -->
<g id="edge45" class="edge">
<title>Wf_ty_val_ind&#45;&gt;Wf_ty_val</title>
<path fill="none" stroke="black" d="M256.05,-325.56C264.93,-322.68 274.19,-319.9 283,-317.67 430.63,-280.21 609.6,-254.98 693,-244.35"/>
<polygon fill="black" stroke="black" points="693.68,-247.79 703.16,-243.07 692.8,-240.85 693.68,-247.79"/>
</g>
<!-- Wf_ty_val_rect&#45;&gt;Wf_vtyArr -->
<g id="edge46" class="edge">
<title>Wf_ty_val_rect&#45;&gt;Wf_vtyArr</title>
<path fill="none" stroke="black" d="M381.79,-327.55C417.58,-308.75 478.6,-276.7 516.76,-256.65"/>
<polygon fill="black" stroke="black" points="518.71,-259.58 525.94,-251.83 515.46,-253.39 518.71,-259.58"/>
</g>
<!-- Wf_ty_val_rect&#45;&gt;Wf_vtyApp -->
<g id="edge47" class="edge">
<title>Wf_ty_val_rect&#45;&gt;Wf_vtyApp</title>
<path fill="none" stroke="black" d="M321.38,-327.99C280.48,-309 209.37,-275.98 166,-255.85"/>
<polygon fill="black" stroke="black" points="167.47,-252.67 156.93,-251.64 164.52,-259.02 167.47,-252.67"/>
</g>
<!-- Wf_ty_val_rect&#45;&gt;Wf_vtyForall -->
<g id="edge48" class="edge">
<title>Wf_ty_val_rect&#45;&gt;Wf_vtyForall</title>
<path fill="none" stroke="black" d="M335.33,-325.96C317.02,-308.65 288.26,-281.46 267.7,-262.03"/>
<polygon fill="black" stroke="black" points="269.94,-259.32 260.27,-254.99 265.13,-264.41 269.94,-259.32"/>
</g>
<!-- Wf_ty_val_rect&#45;&gt;Wf_vtyRel -->
<g id="edge49" class="edge">
<title>Wf_ty_val_rect&#45;&gt;Wf_vtyRel</title>
<path fill="none" stroke="black" d="M353,-325.5C353,-309.31 353,-284.8 353,-265.94"/>
<polygon fill="black" stroke="black" points="356.5,-265.87 353,-255.87 349.5,-265.87 356.5,-265.87"/>
</g>
<!-- Wf_ty_val_rect&#45;&gt;Wf_vtyInd -->
<g id="edge50" class="edge">
<title>Wf_ty_val_rect&#45;&gt;Wf_vtyInd</title>
<path fill="none" stroke="black" d="M368.91,-325.96C385.41,-308.62 411.34,-281.38 429.85,-261.94"/>
<polygon fill="black" stroke="black" points="432.42,-264.31 436.78,-254.65 427.35,-259.48 432.42,-264.31"/>
</g>
<!-- Wf_ty_val_rect&#45;&gt;Wf_ty_val -->
<g id="edge51" class="edge">
<title>Wf_ty_val_rect&#45;&gt;Wf_ty_val</title>
<path fill="none" stroke="black" d="M389.1,-329.01C399.93,-325.12 411.88,-321.03 423,-317.67 519.23,-288.57 634.17,-261.9 695.78,-248.24"/>
<polygon fill="black" stroke="black" points="696.91,-251.57 705.92,-246 695.4,-244.74 696.91,-251.57"/>
</g>
<!-- Wf_ty_env_ok -->
<g id="node23" class="node">
<title>Wf_ty_env_ok</title>
<g id="a_node23"><a xlink:href="Wf.html#ty_env_ok" xlink:title="ty_env_ok">
<ellipse fill="#f070d1" stroke="black" cx="942" cy="-141.67" rx="55.79" ry="18"/>
<text text-anchor="middle" x="942" y="-137.97" font-family="Times,serif" font-size="14.00">ty_env_ok</text>
</a>
</g>
</g>
<!-- Wf_ty_expr_env_ok&#45;&gt;Wf_ty_env_ok -->
<g id="edge52" class="edge">
<title>Wf_ty_expr_env_ok&#45;&gt;Wf_ty_env_ok</title>
<path fill="none" stroke="black" d="M942,-219.43C942,-205.65 942,-186.07 942,-170.13"/>
<polygon fill="black" stroke="black" points="945.5,-169.8 942,-159.8 938.5,-169.8 945.5,-169.8"/>
</g>
<!-- Wf_is_type -->
<g id="node27" class="node">
<title>Wf_is_type</title>
<g id="a_node27"><a xlink:href="Wf.html#is_type" xlink:title="is_type">
<ellipse fill="#f070d1" stroke="black" cx="942" cy="-45.67" rx="43.59" ry="18"/>
<text text-anchor="middle" x="942" y="-41.97" font-family="Times,serif" font-size="14.00">is_type</text>
</a>
</g>
</g>
<!-- Wf_ty_env_ok&#45;&gt;Wf_is_type -->
<g id="edge53" class="edge">
<title>Wf_ty_env_ok&#45;&gt;Wf_is_type</title>
<path fill="none" stroke="black" d="M942,-123.43C942,-109.65 942,-90.07 942,-74.13"/>
<polygon fill="black" stroke="black" points="945.5,-73.8 942,-63.8 938.5,-73.8 945.5,-73.8"/>
</g>
<!-- Wf_genv_ok -->
<g id="node24" class="node">
<title>Wf_genv_ok</title>
<g id="a_node24"><a xlink:href="Wf.html#genv_ok" xlink:title="genv_ok">
<ellipse fill="#f070d1" stroke="black" cx="91" cy="-578.67" rx="48.18" ry="18"/>
<ellipse fill="none" stroke="black" cx="91" cy="-578.67" rx="52.18" ry="22"/>
<ellipse fill="none" stroke="black" cx="91" cy="-578.67" rx="56.19" ry="26"/>
<text text-anchor="middle" x="91" y="-574.97" font-family="Times,serif" font-size="14.00">genv_ok</text>
</a>
</g>
</g>
<!-- Wf_global_dec_ok -->
<g id="node25" class="node">
<title>Wf_global_dec_ok</title>
<g id="a_node25"><a xlink:href="Wf.html#global_dec_ok" xlink:title="global_dec_ok">
<ellipse fill="#f070d1" stroke="black" cx="91" cy="-461.67" rx="74.99" ry="18"/>
<text text-anchor="middle" x="91" y="-457.97" font-family="Times,serif" font-size="14.00">global_dec_ok</text>
</a>
</g>
</g>
<!-- Wf_genv_ok&#45;&gt;Wf_global_dec_ok -->
<g id="edge54" class="edge">
<title>Wf_genv_ok&#45;&gt;Wf_global_dec_ok</title>
<path fill="none" stroke="black" d="M91,-552.43C91,-534 91,-509.02 91,-490.09"/>
<polygon fill="black" stroke="black" points="94.5,-490.01 91,-480.01 87.5,-490.01 94.5,-490.01"/>
</g>
<!-- Wf_constr_ok -->
<g id="node26" class="node">
<title>Wf_constr_ok</title>
<g id="a_node26"><a xlink:href="Wf.html#constr_ok" xlink:title="constr_ok">
<ellipse fill="#f070d1" stroke="black" cx="71" cy="-343.67" rx="55.49" ry="18"/>
<text text-anchor="middle" x="71" y="-339.97" font-family="Times,serif" font-size="14.00">constr_ok</text>
</a>
</g>
</g>
<!-- Wf_global_dec_ok&#45;&gt;Wf_constr_ok -->
<g id="edge55" class="edge">
<title>Wf_global_dec_ok&#45;&gt;Wf_constr_ok</title>
<path fill="none" stroke="black" d="M88.05,-443.55C84.8,-424.71 79.53,-394.14 75.71,-371.97"/>
<polygon fill="black" stroke="black" points="79.11,-371.12 73.96,-361.86 72.21,-372.31 79.11,-371.12"/>
</g>
</g>
</svg>
