<?xml version="1.0" encoding="UTF-8" standalone="no"?>
<!DOCTYPE svg PUBLIC "-//W3C//DTD SVG 1.1//EN"
 "http://www.w3.org/Graphics/SVG/1.1/DTD/svg11.dtd">
<!-- Generated by graphviz version 2.43.0 (0)
 -->
<!-- Title: CertifyingTranslate Pages: 1 -->
<svg width="1015pt" height="512pt"
 viewBox="0.00 0.00 1015.00 511.50" xmlns="http://www.w3.org/2000/svg" xmlns:xlink="http://www.w3.org/1999/xlink">
<g id="graph0" class="graph" transform="scale(1 1) rotate(0) translate(4 507.5)">
<title>CertifyingTranslate</title>
<polygon fill="white" stroke="transparent" points="-4,4 -4,-507.5 1011,-507.5 1011,4 -4,4"/>
<g id="clust1" class="cluster">
<title>cluster_CertifyingTranslate</title>
<polygon fill="#ffffc3" stroke="black" points="8,-16.05 8,-487.45 999,-487.45 999,-16.05 8,-16.05"/>
<text text-anchor="middle" x="86" y="-472.25" font-family="Times,serif" font-size="14.00">CertifyingTranslate</text>
</g>
<!-- CertifyingTranslate_my_negb_correct -->
<g id="node1" class="node">
<title>CertifyingTranslate_my_negb_correct</title>
<g id="a_node1"><a xlink:href="CertifyingTranslate.html#my_negb_correct" xlink:title="my_negb_correct">
<ellipse fill="#7fffd4" stroke="black" cx="893" cy="-373.05" rx="89.87" ry="18"/>
<ellipse fill="none" stroke="black" cx="893" cy="-373.05" rx="93.88" ry="22"/>
<ellipse fill="none" stroke="black" cx="893" cy="-373.05" rx="97.88" ry="26"/>
<text text-anchor="middle" x="893" y="-369.35" font-family="Times,serif" font-size="14.00">my_negb_correct</text>
</a>
</g>
</g>
<!-- CertifyingTranslate_my_negb_syn -->
<g id="node3" class="node">
<title>CertifyingTranslate_my_negb_syn</title>
<g id="a_node3"><a xlink:href="CertifyingTranslate.html#my_negb_syn" xlink:title="my_negb_syn">
<ellipse fill="#f070d1" stroke="black" cx="786" cy="-213.05" rx="72.59" ry="18"/>
<text text-anchor="middle" x="786" y="-209.35" font-family="Times,serif" font-size="14.00">my_negb_syn</text>
</a>
</g>
</g>
<!-- CertifyingTranslate_my_negb_correct&#45;&gt;CertifyingTranslate_my_negb_syn -->
<g id="edge1" class="edge">
<title>CertifyingTranslate_my_negb_correct&#45;&gt;CertifyingTranslate_my_negb_syn</title>
<path fill="none" stroke="black" d="M876.28,-347.36C856.47,-318.1 823.6,-269.57 803.47,-239.84"/>
<polygon fill="black" stroke="black" points="806.16,-237.57 797.65,-231.26 800.36,-241.5 806.16,-237.57"/>
</g>
<!-- CertifyingTranslate_of_bool -->
<g id="node4" class="node">
<title>CertifyingTranslate_of_bool</title>
<g id="a_node4"><a xlink:href="CertifyingTranslate.html#of_bool" xlink:title="of_bool">
<ellipse fill="#f070d1" stroke="black" cx="920" cy="-213.05" rx="43.59" ry="18"/>
<text text-anchor="middle" x="920" y="-209.35" font-family="Times,serif" font-size="14.00">of_bool</text>
</a>
</g>
</g>
<!-- CertifyingTranslate_my_negb_correct&#45;&gt;CertifyingTranslate_of_bool -->
<g id="edge2" class="edge">
<title>CertifyingTranslate_my_negb_correct&#45;&gt;CertifyingTranslate_of_bool</title>
<path fill="none" stroke="black" d="M897.28,-347.01C902.2,-318.18 910.27,-270.99 915.35,-241.27"/>
<polygon fill="black" stroke="black" points="918.84,-241.62 917.07,-231.17 911.94,-240.44 918.84,-241.62"/>
</g>
<!-- CertifyingTranslate_my_negb -->
<g id="node2" class="node">
<title>CertifyingTranslate_my_negb</title>
<g id="a_node2"><a xlink:href="CertifyingTranslate.html#my_negb" xlink:title="my_negb">
<ellipse fill="#f070d1" stroke="black" cx="717" cy="-373.05" rx="51.99" ry="18"/>
<ellipse fill="none" stroke="black" cx="717" cy="-373.05" rx="55.99" ry="22"/>
<ellipse fill="none" stroke="black" cx="717" cy="-373.05" rx="59.99" ry="26"/>
<text text-anchor="middle" x="717" y="-369.35" font-family="Times,serif" font-size="14.00">my_negb</text>
</a>
</g>
</g>
<!-- CertifyingTranslate_x -->
<g id="node7" class="node">
<title>CertifyingTranslate_x</title>
<g id="a_node7"><a xlink:href="CertifyingTranslate.html#x" xlink:title="x">
<ellipse fill="#f070d1" stroke="black" cx="786" cy="-68.05" rx="27" ry="18"/>
<text text-anchor="middle" x="786" y="-64.35" font-family="Times,serif" font-size="14.00">x</text>
</a>
</g>
</g>
<!-- CertifyingTranslate_my_negb_syn&#45;&gt;CertifyingTranslate_x -->
<g id="edge3" class="edge">
<title>CertifyingTranslate_my_negb_syn&#45;&gt;CertifyingTranslate_x</title>
<path fill="none" stroke="black" d="M786,-194.8C786,-170.43 786,-125.65 786,-96.63"/>
<polygon fill="black" stroke="black" points="789.5,-96.36 786,-86.36 782.5,-96.36 789.5,-96.36"/>
</g>
<!-- CertifyingTranslate_z -->
<g id="node5" class="node">
<title>CertifyingTranslate_z</title>
<g id="a_node5"><a xlink:href="CertifyingTranslate.html#z" xlink:title="z">
<ellipse fill="#f070d1" stroke="black" cx="604" cy="-373.05" rx="27" ry="18"/>
<ellipse fill="none" stroke="black" cx="604" cy="-373.05" rx="31" ry="22"/>
<ellipse fill="none" stroke="black" cx="604" cy="-373.05" rx="35" ry="26"/>
<text text-anchor="middle" x="604" y="-369.35" font-family="Times,serif" font-size="14.00">z</text>
</a>
</g>
</g>
<!-- CertifyingTranslate_y -->
<g id="node6" class="node">
<title>CertifyingTranslate_y</title>
<g id="a_node6"><a xlink:href="CertifyingTranslate.html#y" xlink:title="y">
<ellipse fill="#f070d1" stroke="black" cx="516" cy="-373.05" rx="27" ry="18"/>
<ellipse fill="none" stroke="black" cx="516" cy="-373.05" rx="31" ry="22"/>
<ellipse fill="none" stroke="black" cx="516" cy="-373.05" rx="35" ry="26"/>
<text text-anchor="middle" x="516" y="-369.35" font-family="Times,serif" font-size="14.00">y</text>
</a>
</g>
</g>
<!-- CertifyingTranslate_global_to_tc -->
<g id="node8" class="node">
<title>CertifyingTranslate_global_to_tc</title>
<g id="a_node8"><a xlink:href="CertifyingTranslate.html#global_to_tc" xlink:title="global_to_tc">
<ellipse fill="#f070d1" stroke="black" cx="389" cy="-373.05" rx="65.77" ry="18"/>
<ellipse fill="none" stroke="black" cx="389" cy="-373.05" rx="69.78" ry="22"/>
<ellipse fill="none" stroke="black" cx="389" cy="-373.05" rx="73.79" ry="26"/>
<text text-anchor="middle" x="389" y="-369.35" font-family="Times,serif" font-size="14.00">global_to_tc</text>
</a>
</g>
</g>
<!-- CertifyingTranslate_type_to_tc -->
<g id="node9" class="node">
<title>CertifyingTranslate_type_to_tc</title>
<g id="a_node9"><a xlink:href="CertifyingTranslate.html#type_to_tc" xlink:title="type_to_tc">
<ellipse fill="#f070d1" stroke="black" cx="232" cy="-373.05" rx="57.71" ry="18"/>
<ellipse fill="none" stroke="black" cx="232" cy="-373.05" rx="61.7" ry="22"/>
<ellipse fill="none" stroke="black" cx="232" cy="-373.05" rx="65.69" ry="26"/>
<text text-anchor="middle" x="232" y="-369.35" font-family="Times,serif" font-size="14.00">type_to_tc</text>
</a>
</g>
</g>
<!-- CertifyingTranslate_expr_to_tc -->
<g id="node10" class="node">
<title>CertifyingTranslate_expr_to_tc</title>
<g id="a_node10"><a xlink:href="CertifyingTranslate.html#expr_to_tc" xlink:title="expr_to_tc">
<ellipse fill="#f070d1" stroke="black" cx="82" cy="-373.05" rx="58.49" ry="18"/>
<ellipse fill="none" stroke="black" cx="82" cy="-373.05" rx="62.49" ry="22"/>
<ellipse fill="none" stroke="black" cx="82" cy="-373.05" rx="66.49" ry="26"/>
<text text-anchor="middle" x="82" y="-369.35" font-family="Times,serif" font-size="14.00">expr_to_tc</text>
</a>
</g>
</g>
</g>
</svg>
