<?xml version="1.0" encoding="UTF-8" standalone="no"?>
<!DOCTYPE svg PUBLIC "-//W3C//DTD SVG 1.1//EN"
 "http://www.w3.org/Graphics/SVG/1.1/DTD/svg11.dtd">
<!-- Generated by graphviz version 2.43.0 (0)
 -->
<!-- Title: LocalBlockchainTests Pages: 1 -->
<svg width="2318pt" height="1163pt"
 viewBox="0.00 0.00 2318.00 1163.00" xmlns="http://www.w3.org/2000/svg" xmlns:xlink="http://www.w3.org/1999/xlink">
<g id="graph0" class="graph" transform="scale(1 1) rotate(0) translate(4 1159)">
<title>LocalBlockchainTests</title>
<polygon fill="white" stroke="transparent" points="-4,4 -4,-1159 2314,-1159 2314,4 -4,4"/>
<g id="clust1" class="cluster">
<title>cluster_LocalBlockchainTests</title>
<polygon fill="#ffffc3" stroke="black" points="12.49,-8 12.49,-1147 2297.51,-1147 2297.51,-8 12.49,-8"/>
<text text-anchor="middle" x="96.99" y="-1131.8" font-family="Times,serif" font-size="14.00">LocalBlockchainTests</text>
</g>
<!-- LocalBlockchainTests_congress_txs_after_local_chain_bf_block -->
<g id="node1" class="node">
<title>LocalBlockchainTests_congress_txs_after_local_chain_bf_block</title>
<g id="a_node1"><a xlink:href="LocalBlockchainTests.html#congress_txs_after_local_chain_bf_block" xlink:title="congress_txs_after_local_chain_bf_block">
<ellipse fill="#7fffd4" stroke="black" cx="1968.09" cy="-1090" rx="194.97" ry="18"/>
<ellipse fill="none" stroke="black" cx="1968.09" cy="-1090" rx="198.97" ry="22"/>
<ellipse fill="none" stroke="black" cx="1968.09" cy="-1090" rx="202.97" ry="26"/>
<text text-anchor="middle" x="1968.09" y="-1086.3" font-family="Times,serif" font-size="14.00">congress_txs_after_local_chain_bf_block</text>
</a>
</g>
</g>
<!-- LocalBlockchainTests_BuilderBF -->
<g id="node2" class="node">
<title>LocalBlockchainTests_BuilderBF</title>
<g id="a_node2"><a xlink:href="LocalBlockchainTests.html#BuilderBF" xlink:title="BuilderBF">
<ellipse fill="#f070d1" stroke="black" cx="2194.09" cy="-1002" rx="57.69" ry="18"/>
<text text-anchor="middle" x="2194.09" y="-998.3" font-family="Times,serif" font-size="14.00">BuilderBF</text>
</a>
</g>
</g>
<!-- LocalBlockchainTests_congress_txs_after_local_chain_bf_block&#45;&gt;LocalBlockchainTests_BuilderBF -->
<g id="edge1" class="edge">
<title>LocalBlockchainTests_congress_txs_after_local_chain_bf_block&#45;&gt;LocalBlockchainTests_BuilderBF</title>
<path fill="none" stroke="black" d="M2030.75,-1065.16C2068.32,-1050.86 2115.22,-1033.01 2149.12,-1020.11"/>
<polygon fill="black" stroke="black" points="2150.65,-1023.27 2158.76,-1016.45 2148.16,-1016.73 2150.65,-1023.27"/>
</g>
<!-- LocalBlockchainTests_congress_txs_after_local_chain_block -->
<g id="node3" class="node">
<title>LocalBlockchainTests_congress_txs_after_local_chain_block</title>
<g id="a_node3"><a xlink:href="LocalBlockchainTests.html#congress_txs_after_local_chain_block" xlink:title="congress_txs_after_local_chain_block">
<ellipse fill="#7fffd4" stroke="black" cx="1327.09" cy="-1090" rx="181.17" ry="18"/>
<ellipse fill="none" stroke="black" cx="1327.09" cy="-1090" rx="185.17" ry="22"/>
<ellipse fill="none" stroke="black" cx="1327.09" cy="-1090" rx="189.17" ry="26"/>
<text text-anchor="middle" x="1327.09" y="-1086.3" font-family="Times,serif" font-size="14.00">congress_txs_after_local_chain_block</text>
</a>
</g>
</g>
<!-- LocalBlockchainTests_BuilderDF -->
<g id="node4" class="node">
<title>LocalBlockchainTests_BuilderDF</title>
<g id="a_node4"><a xlink:href="LocalBlockchainTests.html#BuilderDF" xlink:title="BuilderDF">
<ellipse fill="#f070d1" stroke="black" cx="1985.09" cy="-1002" rx="58.49" ry="18"/>
<text text-anchor="middle" x="1985.09" y="-998.3" font-family="Times,serif" font-size="14.00">BuilderDF</text>
</a>
</g>
</g>
<!-- LocalBlockchainTests_congress_txs_after_local_chain_block&#45;&gt;LocalBlockchainTests_BuilderDF -->
<g id="edge2" class="edge">
<title>LocalBlockchainTests_congress_txs_after_local_chain_block&#45;&gt;LocalBlockchainTests_BuilderDF</title>
<path fill="none" stroke="black" d="M1484.8,-1075.58C1593.49,-1065.28 1741.03,-1049.22 1870.09,-1028 1889.92,-1024.74 1911.48,-1020.3 1930.52,-1016.06"/>
<polygon fill="black" stroke="black" points="1931.53,-1019.42 1940.51,-1013.8 1929.99,-1012.59 1931.53,-1019.42"/>
</g>
<!-- LocalBlockchainTests_Unnamed_thm16 -->
<g id="node5" class="node">
<title>LocalBlockchainTests_Unnamed_thm16</title>
<g id="a_node5"><a xlink:href="LocalBlockchainTests.html#Unnamed_thm16" xlink:title="Unnamed_thm16">
<ellipse fill="#7fffd4" stroke="black" cx="514.09" cy="-1090" rx="90.2" ry="18"/>
<ellipse fill="none" stroke="black" cx="514.09" cy="-1090" rx="94.19" ry="22"/>
<ellipse fill="none" stroke="black" cx="514.09" cy="-1090" rx="98.18" ry="26"/>
<text text-anchor="middle" x="514.09" y="-1086.3" font-family="Times,serif" font-size="14.00">Unnamed_thm16</text>
</a>
</g>
</g>
<!-- LocalBlockchainTests_chain8 -->
<g id="node10" class="node">
<title>LocalBlockchainTests_chain8</title>
<g id="a_node10"><a xlink:href="LocalBlockchainTests.html#chain8" xlink:title="chain8">
<ellipse fill="#f070d1" stroke="black" cx="358.09" cy="-1002" rx="41.69" ry="18"/>
<text text-anchor="middle" x="358.09" y="-998.3" font-family="Times,serif" font-size="14.00">chain8</text>
</a>
</g>
</g>
<!-- LocalBlockchainTests_Unnamed_thm16&#45;&gt;LocalBlockchainTests_chain8 -->
<g id="edge3" class="edge">
<title>LocalBlockchainTests_Unnamed_thm16&#45;&gt;LocalBlockchainTests_chain8</title>
<path fill="none" stroke="black" d="M472.7,-1066.18C447.52,-1052.3 415.75,-1034.79 392.06,-1021.72"/>
<polygon fill="black" stroke="black" points="393.53,-1018.54 383.08,-1016.77 390.15,-1024.67 393.53,-1018.54"/>
</g>
<!-- LocalBlockchainTests_Unnamed_thm15 -->
<g id="node6" class="node">
<title>LocalBlockchainTests_Unnamed_thm15</title>
<g id="a_node6"><a xlink:href="LocalBlockchainTests.html#Unnamed_thm15" xlink:title="Unnamed_thm15">
<ellipse fill="#7fffd4" stroke="black" cx="178.09" cy="-1090" rx="90.2" ry="18"/>
<ellipse fill="none" stroke="black" cx="178.09" cy="-1090" rx="94.19" ry="22"/>
<ellipse fill="none" stroke="black" cx="178.09" cy="-1090" rx="98.18" ry="26"/>
<text text-anchor="middle" x="178.09" y="-1086.3" font-family="Times,serif" font-size="14.00">Unnamed_thm15</text>
</a>
</g>
</g>
<!-- LocalBlockchainTests_Unnamed_thm15&#45;&gt;LocalBlockchainTests_chain8 -->
<g id="edge4" class="edge">
<title>LocalBlockchainTests_Unnamed_thm15&#45;&gt;LocalBlockchainTests_chain8</title>
<path fill="none" stroke="black" d="M224.45,-1066.85C254.86,-1052.32 294.05,-1033.6 322.12,-1020.19"/>
<polygon fill="black" stroke="black" points="323.67,-1023.33 331.18,-1015.86 320.65,-1017.01 323.67,-1023.33"/>
</g>
<!-- LocalBlockchainTests_Unnamed_thm14 -->
<g id="node7" class="node">
<title>LocalBlockchainTests_Unnamed_thm14</title>
<g id="a_node7"><a xlink:href="LocalBlockchainTests.html#Unnamed_thm14" xlink:title="Unnamed_thm14">
<ellipse fill="#7fffd4" stroke="black" cx="940.09" cy="-1002" rx="90.2" ry="18"/>
<ellipse fill="none" stroke="black" cx="940.09" cy="-1002" rx="94.19" ry="22"/>
<ellipse fill="none" stroke="black" cx="940.09" cy="-1002" rx="98.18" ry="26"/>
<text text-anchor="middle" x="940.09" y="-998.3" font-family="Times,serif" font-size="14.00">Unnamed_thm14</text>
</a>
</g>
</g>
<!-- LocalBlockchainTests_chain7 -->
<g id="node13" class="node">
<title>LocalBlockchainTests_chain7</title>
<g id="a_node13"><a xlink:href="LocalBlockchainTests.html#chain7" xlink:title="chain7">
<ellipse fill="#f070d1" stroke="black" cx="453.09" cy="-914" rx="41.69" ry="18"/>
<text text-anchor="middle" x="453.09" y="-910.3" font-family="Times,serif" font-size="14.00">chain7</text>
</a>
</g>
</g>
<!-- LocalBlockchainTests_Unnamed_thm14&#45;&gt;LocalBlockchainTests_chain7 -->
<g id="edge5" class="edge">
<title>LocalBlockchainTests_Unnamed_thm14&#45;&gt;LocalBlockchainTests_chain7</title>
<path fill="none" stroke="black" d="M859.2,-987.17C788.03,-974.95 681.64,-956.55 589.09,-940 559.68,-934.74 526.71,-928.68 500.61,-923.85"/>
<polygon fill="black" stroke="black" points="501.07,-920.38 490.6,-922 499.79,-927.26 501.07,-920.38"/>
</g>
<!-- LocalBlockchainTests_Unnamed_thm13 -->
<g id="node8" class="node">
<title>LocalBlockchainTests_Unnamed_thm13</title>
<g id="a_node8"><a xlink:href="LocalBlockchainTests.html#Unnamed_thm13" xlink:title="Unnamed_thm13">
<ellipse fill="#7fffd4" stroke="black" cx="604.09" cy="-1002" rx="90.2" ry="18"/>
<ellipse fill="none" stroke="black" cx="604.09" cy="-1002" rx="94.19" ry="22"/>
<ellipse fill="none" stroke="black" cx="604.09" cy="-1002" rx="98.18" ry="26"/>
<text text-anchor="middle" x="604.09" y="-998.3" font-family="Times,serif" font-size="14.00">Unnamed_thm13</text>
</a>
</g>
</g>
<!-- LocalBlockchainTests_Unnamed_thm13&#45;&gt;LocalBlockchainTests_chain7 -->
<g id="edge6" class="edge">
<title>LocalBlockchainTests_Unnamed_thm13&#45;&gt;LocalBlockchainTests_chain7</title>
<path fill="none" stroke="black" d="M564.02,-978.18C539.76,-964.36 509.18,-946.94 486.27,-933.9"/>
<polygon fill="black" stroke="black" points="487.7,-930.68 477.28,-928.77 484.24,-936.76 487.7,-930.68"/>
</g>
<!-- LocalBlockchainTests_Unnamed_thm12 -->
<g id="node9" class="node">
<title>LocalBlockchainTests_Unnamed_thm12</title>
<g id="a_node9"><a xlink:href="LocalBlockchainTests.html#Unnamed_thm12" xlink:title="Unnamed_thm12">
<ellipse fill="#7fffd4" stroke="black" cx="850.09" cy="-1090" rx="90.2" ry="18"/>
<ellipse fill="none" stroke="black" cx="850.09" cy="-1090" rx="94.19" ry="22"/>
<ellipse fill="none" stroke="black" cx="850.09" cy="-1090" rx="98.18" ry="26"/>
<text text-anchor="middle" x="850.09" y="-1086.3" font-family="Times,serif" font-size="14.00">Unnamed_thm12</text>
</a>
</g>
</g>
<!-- LocalBlockchainTests_Unnamed_thm12&#45;&gt;LocalBlockchainTests_chain8 -->
<g id="edge7" class="edge">
<title>LocalBlockchainTests_Unnamed_thm12&#45;&gt;LocalBlockchainTests_chain8</title>
<path fill="none" stroke="black" d="M769.1,-1075.17C697.53,-1062.9 590.34,-1044.44 497.09,-1028 466.69,-1022.64 432.57,-1016.5 405.74,-1011.65"/>
<polygon fill="black" stroke="black" points="406.3,-1008.2 395.84,-1009.86 405.05,-1015.09 406.3,-1008.2"/>
</g>
<!-- LocalBlockchainTests_congress_state -->
<g id="node24" class="node">
<title>LocalBlockchainTests_congress_state</title>
<g id="a_node24"><a xlink:href="LocalBlockchainTests.html#congress_state" xlink:title="congress_state">
<ellipse fill="#f070d1" stroke="black" cx="1404.09" cy="-826" rx="79.89" ry="18"/>
<text text-anchor="middle" x="1404.09" y="-822.3" font-family="Times,serif" font-size="14.00">congress_state</text>
</a>
</g>
</g>
<!-- LocalBlockchainTests_Unnamed_thm12&#45;&gt;LocalBlockchainTests_congress_state -->
<g id="edge8" class="edge">
<title>LocalBlockchainTests_Unnamed_thm12&#45;&gt;LocalBlockchainTests_congress_state</title>
<path fill="none" stroke="black" d="M941.8,-1080.53C996.22,-1075.57 1066.58,-1069.26 1129.09,-1064 1332.12,-1046.91 1389.21,-1080.43 1586.09,-1028 1674.47,-1004.47 1723.17,-1017.27 1772.09,-940 1784.46,-920.47 1787.04,-905.63 1772.09,-888 1737.05,-846.67 1590.6,-833.31 1493.35,-829.01"/>
<polygon fill="black" stroke="black" points="1493.35,-825.51 1483.22,-828.59 1493.06,-832.5 1493.35,-825.51"/>
</g>
<!-- LocalBlockchainTests_finish_proposal -->
<g id="node11" class="node">
<title>LocalBlockchainTests_finish_proposal</title>
<g id="a_node11"><a xlink:href="LocalBlockchainTests.html#finish_proposal" xlink:title="finish_proposal">
<ellipse fill="#f070d1" stroke="black" cx="358.09" cy="-746" rx="80.69" ry="18"/>
<text text-anchor="middle" x="358.09" y="-742.3" font-family="Times,serif" font-size="14.00">finish_proposal</text>
</a>
</g>
</g>
<!-- LocalBlockchainTests_chain8&#45;&gt;LocalBlockchainTests_finish_proposal -->
<g id="edge9" class="edge">
<title>LocalBlockchainTests_chain8&#45;&gt;LocalBlockchainTests_finish_proposal</title>
<path fill="none" stroke="black" d="M358.09,-983.94C358.09,-940.84 358.09,-827.29 358.09,-774.59"/>
<polygon fill="black" stroke="black" points="361.59,-774.32 358.09,-764.32 354.59,-774.32 361.59,-774.32"/>
</g>
<!-- LocalBlockchainTests_chain8&#45;&gt;LocalBlockchainTests_chain7 -->
<g id="edge10" class="edge">
<title>LocalBlockchainTests_chain8&#45;&gt;LocalBlockchainTests_chain7</title>
<path fill="none" stroke="black" d="M375.52,-985.23C390.25,-971.89 411.53,-952.62 428.08,-937.64"/>
<polygon fill="black" stroke="black" points="430.71,-939.98 435.78,-930.67 426.02,-934.79 430.71,-939.98"/>
</g>
<!-- LocalBlockchainTests_congress_ifc -->
<g id="node25" class="node">
<title>LocalBlockchainTests_congress_ifc</title>
<g id="a_node25"><a xlink:href="LocalBlockchainTests.html#congress_ifc" xlink:title="congress_ifc">
<ellipse fill="#f070d1" stroke="black" cx="643.09" cy="-594" rx="67.69" ry="18"/>
<text text-anchor="middle" x="643.09" y="-590.3" font-family="Times,serif" font-size="14.00">congress_ifc</text>
</a>
</g>
</g>
<!-- LocalBlockchainTests_finish_proposal&#45;&gt;LocalBlockchainTests_congress_ifc -->
<g id="edge11" class="edge">
<title>LocalBlockchainTests_finish_proposal&#45;&gt;LocalBlockchainTests_congress_ifc</title>
<path fill="none" stroke="black" d="M388.05,-729.23C440.18,-701.8 547.44,-645.34 604.85,-615.13"/>
<polygon fill="black" stroke="black" points="606.74,-618.09 613.96,-610.33 603.48,-611.89 606.74,-618.09"/>
</g>
<!-- LocalBlockchainTests_Unnamed_thm11 -->
<g id="node12" class="node">
<title>LocalBlockchainTests_Unnamed_thm11</title>
<g id="a_node12"><a xlink:href="LocalBlockchainTests.html#Unnamed_thm11" xlink:title="Unnamed_thm11">
<ellipse fill="#7fffd4" stroke="black" cx="1479.09" cy="-1002" rx="90.2" ry="18"/>
<ellipse fill="none" stroke="black" cx="1479.09" cy="-1002" rx="94.19" ry="22"/>
<ellipse fill="none" stroke="black" cx="1479.09" cy="-1002" rx="98.18" ry="26"/>
<text text-anchor="middle" x="1479.09" y="-998.3" font-family="Times,serif" font-size="14.00">Unnamed_thm11</text>
</a>
</g>
</g>
<!-- LocalBlockchainTests_Unnamed_thm11&#45;&gt;LocalBlockchainTests_chain7 -->
<g id="edge12" class="edge">
<title>LocalBlockchainTests_Unnamed_thm11&#45;&gt;LocalBlockchainTests_chain7</title>
<path fill="none" stroke="black" d="M1383.56,-995.83C1186.47,-984.93 740.55,-959.05 589.09,-940 559.13,-936.23 525.77,-930.13 499.59,-924.9"/>
<polygon fill="black" stroke="black" points="500.07,-921.42 489.57,-922.87 498.68,-928.28 500.07,-921.42"/>
</g>
<!-- LocalBlockchainTests_Unnamed_thm11&#45;&gt;LocalBlockchainTests_congress_state -->
<g id="edge13" class="edge">
<title>LocalBlockchainTests_Unnamed_thm11&#45;&gt;LocalBlockchainTests_congress_state</title>
<path fill="none" stroke="black" d="M1573.67,-994.42C1676.42,-983.71 1818.74,-956.33 1761.09,-888 1727.45,-848.12 1587.4,-834.31 1493.04,-829.53"/>
<polygon fill="black" stroke="black" points="1493.07,-826.03 1482.92,-829.04 1492.74,-833.02 1493.07,-826.03"/>
</g>
<!-- LocalBlockchainTests_vote_proposal -->
<g id="node14" class="node">
<title>LocalBlockchainTests_vote_proposal</title>
<g id="a_node14"><a xlink:href="LocalBlockchainTests.html#vote_proposal" xlink:title="vote_proposal">
<ellipse fill="#f070d1" stroke="black" cx="639.09" cy="-746" rx="75.29" ry="18"/>
<text text-anchor="middle" x="639.09" y="-742.3" font-family="Times,serif" font-size="14.00">vote_proposal</text>
</a>
</g>
</g>
<!-- LocalBlockchainTests_chain7&#45;&gt;LocalBlockchainTests_vote_proposal -->
<g id="edge14" class="edge">
<title>LocalBlockchainTests_chain7&#45;&gt;LocalBlockchainTests_vote_proposal</title>
<path fill="none" stroke="black" d="M470.59,-897.38C503.35,-868.15 574.1,-805.01 612.68,-770.57"/>
<polygon fill="black" stroke="black" points="615.27,-772.95 620.4,-763.68 610.61,-767.73 615.27,-772.95"/>
</g>
<!-- LocalBlockchainTests_chain6 -->
<g id="node16" class="node">
<title>LocalBlockchainTests_chain6</title>
<g id="a_node16"><a xlink:href="LocalBlockchainTests.html#chain6" xlink:title="chain6">
<ellipse fill="#f070d1" stroke="black" cx="1093.09" cy="-826" rx="41.69" ry="18"/>
<text text-anchor="middle" x="1093.09" y="-822.3" font-family="Times,serif" font-size="14.00">chain6</text>
</a>
</g>
</g>
<!-- LocalBlockchainTests_chain7&#45;&gt;LocalBlockchainTests_chain6 -->
<g id="edge15" class="edge">
<title>LocalBlockchainTests_chain7&#45;&gt;LocalBlockchainTests_chain6</title>
<path fill="none" stroke="black" d="M489.9,-905.37C517.18,-899.92 555.34,-892.75 589.09,-888 751.83,-865.12 794.36,-874.88 957.09,-852 986.89,-847.81 1020.12,-841.73 1046.27,-836.61"/>
<polygon fill="black" stroke="black" points="1047.16,-840.01 1056.29,-834.63 1045.8,-833.14 1047.16,-840.01"/>
</g>
<!-- LocalBlockchainTests_vote_proposal&#45;&gt;LocalBlockchainTests_congress_ifc -->
<g id="edge16" class="edge">
<title>LocalBlockchainTests_vote_proposal&#45;&gt;LocalBlockchainTests_congress_ifc</title>
<path fill="none" stroke="black" d="M639.55,-727.79C640.24,-701.91 641.55,-652.73 642.37,-622.03"/>
<polygon fill="black" stroke="black" points="645.87,-622.1 642.64,-612.01 638.87,-621.91 645.87,-622.1"/>
</g>
<!-- LocalBlockchainTests_Unnamed_thm10 -->
<g id="node15" class="node">
<title>LocalBlockchainTests_Unnamed_thm10</title>
<g id="a_node15"><a xlink:href="LocalBlockchainTests.html#Unnamed_thm10" xlink:title="Unnamed_thm10">
<ellipse fill="#7fffd4" stroke="black" cx="1017.09" cy="-914" rx="90.2" ry="18"/>
<ellipse fill="none" stroke="black" cx="1017.09" cy="-914" rx="94.19" ry="22"/>
<ellipse fill="none" stroke="black" cx="1017.09" cy="-914" rx="98.18" ry="26"/>
<text text-anchor="middle" x="1017.09" y="-910.3" font-family="Times,serif" font-size="14.00">Unnamed_thm10</text>
</a>
</g>
</g>
<!-- LocalBlockchainTests_Unnamed_thm10&#45;&gt;LocalBlockchainTests_chain6 -->
<g id="edge17" class="edge">
<title>LocalBlockchainTests_Unnamed_thm10&#45;&gt;LocalBlockchainTests_chain6</title>
<path fill="none" stroke="black" d="M1038.67,-888.59C1049.15,-876.72 1061.7,-862.52 1072.1,-850.75"/>
<polygon fill="black" stroke="black" points="1074.91,-852.86 1078.91,-843.05 1069.67,-848.22 1074.91,-852.86"/>
</g>
<!-- LocalBlockchainTests_Unnamed_thm10&#45;&gt;LocalBlockchainTests_congress_state -->
<g id="edge18" class="edge">
<title>LocalBlockchainTests_Unnamed_thm10&#45;&gt;LocalBlockchainTests_congress_state</title>
<path fill="none" stroke="black" d="M1090.8,-896.62C1162.7,-880.64 1270.99,-856.58 1339.58,-841.34"/>
<polygon fill="black" stroke="black" points="1340.4,-844.74 1349.4,-839.15 1338.88,-837.91 1340.4,-844.74"/>
</g>
<!-- LocalBlockchainTests_create_proposal_call -->
<g id="node17" class="node">
<title>LocalBlockchainTests_create_proposal_call</title>
<g id="a_node17"><a xlink:href="LocalBlockchainTests.html#create_proposal_call" xlink:title="create_proposal_call">
<ellipse fill="#f070d1" stroke="black" cx="1210.09" cy="-674" rx="104.78" ry="18"/>
<text text-anchor="middle" x="1210.09" y="-670.3" font-family="Times,serif" font-size="14.00">create_proposal_call</text>
</a>
</g>
</g>
<!-- LocalBlockchainTests_chain6&#45;&gt;LocalBlockchainTests_create_proposal_call -->
<g id="edge19" class="edge">
<title>LocalBlockchainTests_chain6&#45;&gt;LocalBlockchainTests_create_proposal_call</title>
<path fill="none" stroke="black" d="M1105.84,-808.66C1126.19,-782.57 1166.2,-731.28 1190.3,-700.38"/>
<polygon fill="black" stroke="black" points="1193.26,-702.28 1196.65,-692.24 1187.74,-697.97 1193.26,-702.28"/>
</g>
<!-- LocalBlockchainTests_chain5 -->
<g id="node20" class="node">
<title>LocalBlockchainTests_chain5</title>
<g id="a_node20"><a xlink:href="LocalBlockchainTests.html#chain5" xlink:title="chain5">
<ellipse fill="#f070d1" stroke="black" cx="856.09" cy="-746" rx="41.69" ry="18"/>
<text text-anchor="middle" x="856.09" y="-742.3" font-family="Times,serif" font-size="14.00">chain5</text>
</a>
</g>
</g>
<!-- LocalBlockchainTests_chain6&#45;&gt;LocalBlockchainTests_chain5 -->
<g id="edge20" class="edge">
<title>LocalBlockchainTests_chain6&#45;&gt;LocalBlockchainTests_chain5</title>
<path fill="none" stroke="black" d="M1061.13,-814.48C1018.9,-800.58 944.43,-776.07 897.81,-760.73"/>
<polygon fill="black" stroke="black" points="898.9,-757.4 888.31,-757.6 896.71,-764.05 898.9,-757.4"/>
</g>
<!-- LocalBlockchainTests_create_proposal_call&#45;&gt;LocalBlockchainTests_congress_ifc -->
<g id="edge21" class="edge">
<title>LocalBlockchainTests_create_proposal_call&#45;&gt;LocalBlockchainTests_congress_ifc</title>
<path fill="none" stroke="black" d="M1130.16,-662.26C1051.31,-651.64 927.37,-634.87 820.09,-620 784.16,-615.02 744.13,-609.37 711.24,-604.71"/>
<polygon fill="black" stroke="black" points="711.67,-601.24 701.28,-603.3 710.69,-608.17 711.67,-601.24"/>
</g>
<!-- LocalBlockchainTests_person_3 -->
<g id="node42" class="node">
<title>LocalBlockchainTests_person_3</title>
<g id="a_node42"><a xlink:href="LocalBlockchainTests.html#person_3" xlink:title="person_3">
<ellipse fill="#f070d1" stroke="black" cx="1210.09" cy="-594" rx="52.79" ry="18"/>
<text text-anchor="middle" x="1210.09" y="-590.3" font-family="Times,serif" font-size="14.00">person_3</text>
</a>
</g>
</g>
<!-- LocalBlockchainTests_create_proposal_call&#45;&gt;LocalBlockchainTests_person_3 -->
<g id="edge22" class="edge">
<title>LocalBlockchainTests_create_proposal_call&#45;&gt;LocalBlockchainTests_person_3</title>
<path fill="none" stroke="black" d="M1210.09,-655.69C1210.09,-645.89 1210.09,-633.42 1210.09,-622.33"/>
<polygon fill="black" stroke="black" points="1213.59,-622.26 1210.09,-612.26 1206.59,-622.26 1213.59,-622.26"/>
</g>
<!-- LocalBlockchainTests_Unnamed_thm9 -->
<g id="node18" class="node">
<title>LocalBlockchainTests_Unnamed_thm9</title>
<g id="a_node18"><a xlink:href="LocalBlockchainTests.html#Unnamed_thm9" xlink:title="Unnamed_thm9">
<ellipse fill="#7fffd4" stroke="black" cx="856.09" cy="-826" rx="84.49" ry="18"/>
<ellipse fill="none" stroke="black" cx="856.09" cy="-826" rx="88.49" ry="22"/>
<ellipse fill="none" stroke="black" cx="856.09" cy="-826" rx="92.49" ry="26"/>
<text text-anchor="middle" x="856.09" y="-822.3" font-family="Times,serif" font-size="14.00">Unnamed_thm9</text>
</a>
</g>
</g>
<!-- LocalBlockchainTests_Unnamed_thm9&#45;&gt;LocalBlockchainTests_chain5 -->
<g id="edge23" class="edge">
<title>LocalBlockchainTests_Unnamed_thm9&#45;&gt;LocalBlockchainTests_chain5</title>
<path fill="none" stroke="black" d="M856.09,-799.89C856.09,-791.84 856.09,-782.88 856.09,-774.66"/>
<polygon fill="black" stroke="black" points="859.59,-774.41 856.09,-764.41 852.59,-774.41 859.59,-774.41"/>
</g>
<!-- LocalBlockchainTests_Unnamed_thm8 -->
<g id="node19" class="node">
<title>LocalBlockchainTests_Unnamed_thm8</title>
<g id="a_node19"><a xlink:href="LocalBlockchainTests.html#Unnamed_thm8" xlink:title="Unnamed_thm8">
<ellipse fill="#7fffd4" stroke="black" cx="690.09" cy="-914" rx="84.49" ry="18"/>
<ellipse fill="none" stroke="black" cx="690.09" cy="-914" rx="88.49" ry="22"/>
<ellipse fill="none" stroke="black" cx="690.09" cy="-914" rx="92.49" ry="26"/>
<text text-anchor="middle" x="690.09" y="-910.3" font-family="Times,serif" font-size="14.00">Unnamed_thm8</text>
</a>
</g>
</g>
<!-- LocalBlockchainTests_Unnamed_thm8&#45;&gt;LocalBlockchainTests_chain5 -->
<g id="edge24" class="edge">
<title>LocalBlockchainTests_Unnamed_thm8&#45;&gt;LocalBlockchainTests_chain5</title>
<path fill="none" stroke="black" d="M699.65,-887.84C710.13,-862.97 729,-825.1 755.09,-800 772.14,-783.6 795.27,-770.97 815.09,-762.15"/>
<polygon fill="black" stroke="black" points="816.69,-765.28 824.52,-758.13 813.95,-758.84 816.69,-765.28"/>
</g>
<!-- LocalBlockchainTests_Unnamed_thm8&#45;&gt;LocalBlockchainTests_congress_state -->
<g id="edge25" class="edge">
<title>LocalBlockchainTests_Unnamed_thm8&#45;&gt;LocalBlockchainTests_congress_state</title>
<path fill="none" stroke="black" d="M774.1,-902.88C913.14,-886.13 1189.21,-852.88 1324.97,-836.53"/>
<polygon fill="black" stroke="black" points="1325.78,-839.96 1335.29,-835.29 1324.94,-833.01 1325.78,-839.96"/>
</g>
<!-- LocalBlockchainTests_add_person -->
<g id="node21" class="node">
<title>LocalBlockchainTests_add_person</title>
<g id="a_node21"><a xlink:href="LocalBlockchainTests.html#add_person" xlink:title="add_person">
<ellipse fill="#f070d1" stroke="black" cx="815.09" cy="-674" rx="63.89" ry="18"/>
<text text-anchor="middle" x="815.09" y="-670.3" font-family="Times,serif" font-size="14.00">add_person</text>
</a>
</g>
</g>
<!-- LocalBlockchainTests_chain5&#45;&gt;LocalBlockchainTests_add_person -->
<g id="edge26" class="edge">
<title>LocalBlockchainTests_chain5&#45;&gt;LocalBlockchainTests_add_person</title>
<path fill="none" stroke="black" d="M846.38,-728.41C841.55,-720.16 835.6,-710.01 830.19,-700.78"/>
<polygon fill="black" stroke="black" points="833.1,-698.82 825.02,-691.96 827.06,-702.35 833.1,-698.82"/>
</g>
<!-- LocalBlockchainTests_person_2 -->
<g id="node43" class="node">
<title>LocalBlockchainTests_person_2</title>
<g id="a_node43"><a xlink:href="LocalBlockchainTests.html#person_2" xlink:title="person_2">
<ellipse fill="#f070d1" stroke="black" cx="1098.09" cy="-106" rx="52.79" ry="18"/>
<text text-anchor="middle" x="1098.09" y="-102.3" font-family="Times,serif" font-size="14.00">person_2</text>
</a>
</g>
</g>
<!-- LocalBlockchainTests_chain5&#45;&gt;LocalBlockchainTests_person_2 -->
<g id="edge27" class="edge">
<title>LocalBlockchainTests_chain5&#45;&gt;LocalBlockchainTests_person_2</title>
<path fill="none" stroke="black" d="M881.87,-731.71C917.93,-711.92 983.35,-671.44 1022.09,-620 1079.65,-543.59 1099.09,-514.66 1099.09,-419 1099.09,-419 1099.09,-419 1099.09,-249 1099.09,-209 1098.69,-162.65 1098.4,-134.08"/>
<polygon fill="black" stroke="black" points="1101.9,-134.01 1098.29,-124.05 1094.9,-134.09 1101.9,-134.01"/>
</g>
<!-- LocalBlockchainTests_add_person&#45;&gt;LocalBlockchainTests_congress_ifc -->
<g id="edge28" class="edge">
<title>LocalBlockchainTests_add_person&#45;&gt;LocalBlockchainTests_congress_ifc</title>
<path fill="none" stroke="black" d="M782.74,-658.33C755.17,-645.83 715.35,-627.77 685.28,-614.13"/>
<polygon fill="black" stroke="black" points="686.44,-610.81 675.88,-609.87 683.55,-617.19 686.44,-610.81"/>
</g>
<!-- LocalBlockchainTests_Unnamed_thm7 -->
<g id="node22" class="node">
<title>LocalBlockchainTests_Unnamed_thm7</title>
<g id="a_node22"><a xlink:href="LocalBlockchainTests.html#Unnamed_thm7" xlink:title="Unnamed_thm7">
<ellipse fill="#7fffd4" stroke="black" cx="1660.09" cy="-914" rx="84.49" ry="18"/>
<ellipse fill="none" stroke="black" cx="1660.09" cy="-914" rx="88.49" ry="22"/>
<ellipse fill="none" stroke="black" cx="1660.09" cy="-914" rx="92.49" ry="26"/>
<text text-anchor="middle" x="1660.09" y="-910.3" font-family="Times,serif" font-size="14.00">Unnamed_thm7</text>
</a>
</g>
</g>
<!-- LocalBlockchainTests_Unnamed_thm7&#45;&gt;LocalBlockchainTests_congress_state -->
<g id="edge29" class="edge">
<title>LocalBlockchainTests_Unnamed_thm7&#45;&gt;LocalBlockchainTests_congress_state</title>
<path fill="none" stroke="black" d="M1602.32,-893.59C1558.54,-878.89 1498.89,-858.84 1456.48,-844.6"/>
<polygon fill="black" stroke="black" points="1457.5,-841.25 1446.91,-841.38 1455.27,-847.88 1457.5,-841.25"/>
</g>
<!-- LocalBlockchainTests_Unnamed_thm6 -->
<g id="node23" class="node">
<title>LocalBlockchainTests_Unnamed_thm6</title>
<g id="a_node23"><a xlink:href="LocalBlockchainTests.html#Unnamed_thm6" xlink:title="Unnamed_thm6">
<ellipse fill="#7fffd4" stroke="black" cx="1343.09" cy="-914" rx="84.49" ry="18"/>
<ellipse fill="none" stroke="black" cx="1343.09" cy="-914" rx="88.49" ry="22"/>
<ellipse fill="none" stroke="black" cx="1343.09" cy="-914" rx="92.49" ry="26"/>
<text text-anchor="middle" x="1343.09" y="-910.3" font-family="Times,serif" font-size="14.00">Unnamed_thm6</text>
</a>
</g>
</g>
<!-- LocalBlockchainTests_Unnamed_thm6&#45;&gt;LocalBlockchainTests_congress_state -->
<g id="edge30" class="edge">
<title>LocalBlockchainTests_Unnamed_thm6&#45;&gt;LocalBlockchainTests_congress_state</title>
<path fill="none" stroke="black" d="M1360.74,-888.13C1368.76,-876.82 1378.23,-863.47 1386.27,-852.13"/>
<polygon fill="black" stroke="black" points="1389.16,-854.1 1392.09,-843.92 1383.45,-850.05 1389.16,-854.1"/>
</g>
<!-- LocalBlockchainTests_congress_1 -->
<g id="node29" class="node">
<title>LocalBlockchainTests_congress_1</title>
<g id="a_node29"><a xlink:href="LocalBlockchainTests.html#congress_1" xlink:title="congress_1">
<ellipse fill="#f070d1" stroke="black" cx="656.09" cy="-506" rx="62.29" ry="18"/>
<text text-anchor="middle" x="656.09" y="-502.3" font-family="Times,serif" font-size="14.00">congress_1</text>
</a>
</g>
</g>
<!-- LocalBlockchainTests_congress_state&#45;&gt;LocalBlockchainTests_congress_1 -->
<g id="edge31" class="edge">
<title>LocalBlockchainTests_congress_state&#45;&gt;LocalBlockchainTests_congress_1</title>
<path fill="none" stroke="black" d="M1401.37,-807.81C1392.71,-759.7 1360.98,-623.57 1272.09,-568 1187.59,-515.17 924.11,-543.3 825.09,-532 789.86,-527.98 750.68,-522.26 718.91,-517.31"/>
<polygon fill="black" stroke="black" points="719.3,-513.83 708.88,-515.73 718.21,-520.74 719.3,-513.83"/>
</g>
<!-- LocalBlockchainTests_congress_ifc&#45;&gt;LocalBlockchainTests_congress_1 -->
<g id="edge32" class="edge">
<title>LocalBlockchainTests_congress_ifc&#45;&gt;LocalBlockchainTests_congress_1</title>
<path fill="none" stroke="black" d="M645.66,-576.01C647.47,-564.07 649.92,-547.85 651.99,-534.14"/>
<polygon fill="black" stroke="black" points="655.45,-534.66 653.49,-524.25 648.53,-533.61 655.45,-534.66"/>
</g>
<!-- LocalBlockchainTests_Unnamed_thm5 -->
<g id="node26" class="node">
<title>LocalBlockchainTests_Unnamed_thm5</title>
<g id="a_node26"><a xlink:href="LocalBlockchainTests.html#Unnamed_thm5" xlink:title="Unnamed_thm5">
<ellipse fill="#7fffd4" stroke="black" cx="921.09" cy="-594" rx="84.49" ry="18"/>
<ellipse fill="none" stroke="black" cx="921.09" cy="-594" rx="88.49" ry="22"/>
<ellipse fill="none" stroke="black" cx="921.09" cy="-594" rx="92.49" ry="26"/>
<text text-anchor="middle" x="921.09" y="-590.3" font-family="Times,serif" font-size="14.00">Unnamed_thm5</text>
</a>
</g>
</g>
<!-- LocalBlockchainTests_Unnamed_thm5&#45;&gt;LocalBlockchainTests_congress_1 -->
<g id="edge33" class="edge">
<title>LocalBlockchainTests_Unnamed_thm5&#45;&gt;LocalBlockchainTests_congress_1</title>
<path fill="none" stroke="black" d="M862.28,-573.91C815.22,-558.64 749.96,-537.46 705.56,-523.05"/>
<polygon fill="black" stroke="black" points="706.45,-519.66 695.86,-519.9 704.29,-526.32 706.45,-519.66"/>
</g>
<!-- LocalBlockchainTests_Unnamed_thm4 -->
<g id="node27" class="node">
<title>LocalBlockchainTests_Unnamed_thm4</title>
<g id="a_node27"><a xlink:href="LocalBlockchainTests.html#Unnamed_thm4" xlink:title="Unnamed_thm4">
<ellipse fill="#7fffd4" stroke="black" cx="386.09" cy="-506" rx="84.49" ry="18"/>
<ellipse fill="none" stroke="black" cx="386.09" cy="-506" rx="88.49" ry="22"/>
<ellipse fill="none" stroke="black" cx="386.09" cy="-506" rx="92.49" ry="26"/>
<text text-anchor="middle" x="386.09" y="-502.3" font-family="Times,serif" font-size="14.00">Unnamed_thm4</text>
</a>
</g>
</g>
<!-- LocalBlockchainTests_chain4 -->
<g id="node30" class="node">
<title>LocalBlockchainTests_chain4</title>
<g id="a_node30"><a xlink:href="LocalBlockchainTests.html#chain4" xlink:title="chain4">
<ellipse fill="#f070d1" stroke="black" cx="723.09" cy="-418" rx="41.69" ry="18"/>
<text text-anchor="middle" x="723.09" y="-414.3" font-family="Times,serif" font-size="14.00">chain4</text>
</a>
</g>
</g>
<!-- LocalBlockchainTests_Unnamed_thm4&#45;&gt;LocalBlockchainTests_chain4 -->
<g id="edge34" class="edge">
<title>LocalBlockchainTests_Unnamed_thm4&#45;&gt;LocalBlockchainTests_chain4</title>
<path fill="none" stroke="black" d="M453.08,-487.91C519.89,-470.85 620.67,-445.14 678.34,-430.42"/>
<polygon fill="black" stroke="black" points="679.42,-433.76 688.25,-427.89 677.69,-426.97 679.42,-433.76"/>
</g>
<!-- LocalBlockchainTests_Unnamed_thm3 -->
<g id="node28" class="node">
<title>LocalBlockchainTests_Unnamed_thm3</title>
<g id="a_node28"><a xlink:href="LocalBlockchainTests.html#Unnamed_thm3" xlink:title="Unnamed_thm3">
<ellipse fill="#7fffd4" stroke="black" cx="926.09" cy="-506" rx="84.49" ry="18"/>
<ellipse fill="none" stroke="black" cx="926.09" cy="-506" rx="88.49" ry="22"/>
<ellipse fill="none" stroke="black" cx="926.09" cy="-506" rx="92.49" ry="26"/>
<text text-anchor="middle" x="926.09" y="-502.3" font-family="Times,serif" font-size="14.00">Unnamed_thm3</text>
</a>
</g>
</g>
<!-- LocalBlockchainTests_Unnamed_thm3&#45;&gt;LocalBlockchainTests_chain4 -->
<g id="edge35" class="edge">
<title>LocalBlockchainTests_Unnamed_thm3&#45;&gt;LocalBlockchainTests_chain4</title>
<path fill="none" stroke="black" d="M876.43,-483.96C841.01,-468.96 794.07,-449.07 761.5,-435.27"/>
<polygon fill="black" stroke="black" points="762.46,-431.87 751.88,-431.2 759.73,-438.32 762.46,-431.87"/>
</g>
<!-- LocalBlockchainTests_congress_1&#45;&gt;LocalBlockchainTests_chain4 -->
<g id="edge36" class="edge">
<title>LocalBlockchainTests_congress_1&#45;&gt;LocalBlockchainTests_chain4</title>
<path fill="none" stroke="black" d="M669.33,-488.01C679.28,-475.24 693.04,-457.58 704.15,-443.31"/>
<polygon fill="black" stroke="black" points="706.95,-445.41 710.34,-435.37 701.43,-441.11 706.95,-445.41"/>
</g>
<!-- LocalBlockchainTests_deploy_congress -->
<g id="node31" class="node">
<title>LocalBlockchainTests_deploy_congress</title>
<g id="a_node31"><a xlink:href="LocalBlockchainTests.html#deploy_congress" xlink:title="deploy_congress">
<ellipse fill="#f070d1" stroke="black" cx="934.09" cy="-330" rx="87.18" ry="18"/>
<text text-anchor="middle" x="934.09" y="-326.3" font-family="Times,serif" font-size="14.00">deploy_congress</text>
</a>
</g>
</g>
<!-- LocalBlockchainTests_chain4&#45;&gt;LocalBlockchainTests_deploy_congress -->
<g id="edge37" class="edge">
<title>LocalBlockchainTests_chain4&#45;&gt;LocalBlockchainTests_deploy_congress</title>
<path fill="none" stroke="black" d="M752.43,-405.04C787.31,-390.83 845.97,-366.92 887.17,-350.12"/>
<polygon fill="black" stroke="black" points="888.52,-353.35 896.46,-346.34 885.88,-346.87 888.52,-353.35"/>
</g>
<!-- LocalBlockchainTests_chain3 -->
<g id="node36" class="node">
<title>LocalBlockchainTests_chain3</title>
<g id="a_node36"><a xlink:href="LocalBlockchainTests.html#chain3" xlink:title="chain3">
<ellipse fill="#f070d1" stroke="black" cx="406.09" cy="-330" rx="41.69" ry="18"/>
<text text-anchor="middle" x="406.09" y="-326.3" font-family="Times,serif" font-size="14.00">chain3</text>
</a>
</g>
</g>
<!-- LocalBlockchainTests_chain4&#45;&gt;LocalBlockchainTests_chain3 -->
<g id="edge38" class="edge">
<title>LocalBlockchainTests_chain4&#45;&gt;LocalBlockchainTests_chain3</title>
<path fill="none" stroke="black" d="M688.87,-407.71C631.12,-392.05 514.39,-360.38 450.45,-343.03"/>
<polygon fill="black" stroke="black" points="451.22,-339.62 440.66,-340.38 449.39,-346.37 451.22,-339.62"/>
</g>
<!-- LocalBlockchainTests_setup -->
<g id="node32" class="node">
<title>LocalBlockchainTests_setup</title>
<g id="a_node32"><a xlink:href="LocalBlockchainTests.html#setup" xlink:title="setup">
<ellipse fill="#f070d1" stroke="black" cx="878.09" cy="-250" rx="36.29" ry="18"/>
<text text-anchor="middle" x="878.09" y="-246.3" font-family="Times,serif" font-size="14.00">setup</text>
</a>
</g>
</g>
<!-- LocalBlockchainTests_deploy_congress&#45;&gt;LocalBlockchainTests_setup -->
<g id="edge39" class="edge">
<title>LocalBlockchainTests_deploy_congress&#45;&gt;LocalBlockchainTests_setup</title>
<path fill="none" stroke="black" d="M921.94,-312.08C914.23,-301.33 904.12,-287.25 895.56,-275.32"/>
<polygon fill="black" stroke="black" points="898.32,-273.17 889.65,-267.09 892.64,-277.26 898.32,-273.17"/>
</g>
<!-- LocalBlockchainTests_Base -->
<g id="node47" class="node">
<title>LocalBlockchainTests_Base</title>
<g id="a_node47"><a xlink:href="LocalBlockchainTests.html#Base" xlink:title="Base">
<ellipse fill="#f070d1" stroke="black" cx="856.09" cy="-34" rx="33.29" ry="18"/>
<text text-anchor="middle" x="856.09" y="-30.3" font-family="Times,serif" font-size="14.00">Base</text>
</a>
</g>
</g>
<!-- LocalBlockchainTests_deploy_congress&#45;&gt;LocalBlockchainTests_Base -->
<g id="edge40" class="edge">
<title>LocalBlockchainTests_deploy_congress&#45;&gt;LocalBlockchainTests_Base</title>
<path fill="none" stroke="black" d="M936.33,-311.78C939.77,-280.74 944.46,-213.61 929.09,-160 918.12,-121.7 892.74,-82.9 875.01,-58.91"/>
<polygon fill="black" stroke="black" points="877.68,-56.64 868.86,-50.77 872.09,-60.86 877.68,-56.64"/>
</g>
<!-- LocalBlockchainTests_setup_rules -->
<g id="node33" class="node">
<title>LocalBlockchainTests_setup_rules</title>
<g id="a_node33"><a xlink:href="LocalBlockchainTests.html#setup_rules" xlink:title="setup_rules">
<ellipse fill="#f070d1" stroke="black" cx="856.09" cy="-178" rx="64.19" ry="18"/>
<text text-anchor="middle" x="856.09" y="-174.3" font-family="Times,serif" font-size="14.00">setup_rules</text>
</a>
</g>
</g>
<!-- LocalBlockchainTests_setup&#45;&gt;LocalBlockchainTests_setup_rules -->
<g id="edge41" class="edge">
<title>LocalBlockchainTests_setup&#45;&gt;LocalBlockchainTests_setup_rules</title>
<path fill="none" stroke="black" d="M872.77,-232.05C870.32,-224.26 867.35,-214.82 864.6,-206.08"/>
<polygon fill="black" stroke="black" points="867.86,-204.77 861.52,-196.28 861.18,-206.86 867.86,-204.77"/>
</g>
<!-- LocalBlockchainTests_Unnamed_thm2 -->
<g id="node34" class="node">
<title>LocalBlockchainTests_Unnamed_thm2</title>
<g id="a_node34"><a xlink:href="LocalBlockchainTests.html#Unnamed_thm2" xlink:title="Unnamed_thm2">
<ellipse fill="#7fffd4" stroke="black" cx="486.09" cy="-418" rx="84.49" ry="18"/>
<ellipse fill="none" stroke="black" cx="486.09" cy="-418" rx="88.49" ry="22"/>
<ellipse fill="none" stroke="black" cx="486.09" cy="-418" rx="92.49" ry="26"/>
<text text-anchor="middle" x="486.09" y="-414.3" font-family="Times,serif" font-size="14.00">Unnamed_thm2</text>
</a>
</g>
</g>
<!-- LocalBlockchainTests_Unnamed_thm2&#45;&gt;LocalBlockchainTests_chain3 -->
<g id="edge42" class="edge">
<title>LocalBlockchainTests_Unnamed_thm2&#45;&gt;LocalBlockchainTests_chain3</title>
<path fill="none" stroke="black" d="M463.38,-392.59C452.24,-380.61 438.89,-366.25 427.87,-354.41"/>
<polygon fill="black" stroke="black" points="430.39,-351.98 421.02,-347.05 425.27,-356.75 430.39,-351.98"/>
</g>
<!-- LocalBlockchainTests_Unnamed_thm1 -->
<g id="node35" class="node">
<title>LocalBlockchainTests_Unnamed_thm1</title>
<g id="a_node35"><a xlink:href="LocalBlockchainTests.html#Unnamed_thm1" xlink:title="Unnamed_thm1">
<ellipse fill="#7fffd4" stroke="black" cx="169.09" cy="-418" rx="84.49" ry="18"/>
<ellipse fill="none" stroke="black" cx="169.09" cy="-418" rx="88.49" ry="22"/>
<ellipse fill="none" stroke="black" cx="169.09" cy="-418" rx="92.49" ry="26"/>
<text text-anchor="middle" x="169.09" y="-414.3" font-family="Times,serif" font-size="14.00">Unnamed_thm1</text>
</a>
</g>
</g>
<!-- LocalBlockchainTests_Unnamed_thm1&#45;&gt;LocalBlockchainTests_chain3 -->
<g id="edge43" class="edge">
<title>LocalBlockchainTests_Unnamed_thm1&#45;&gt;LocalBlockchainTests_chain3</title>
<path fill="none" stroke="black" d="M224.06,-397.05C267.43,-381.32 326.91,-359.73 365.9,-345.58"/>
<polygon fill="black" stroke="black" points="367.15,-348.86 375.35,-342.15 364.76,-342.28 367.15,-348.86"/>
</g>
<!-- LocalBlockchainTests_chain2 -->
<g id="node39" class="node">
<title>LocalBlockchainTests_chain2</title>
<g id="a_node39"><a xlink:href="LocalBlockchainTests.html#chain2" xlink:title="chain2">
<ellipse fill="#f070d1" stroke="black" cx="406.09" cy="-250" rx="41.69" ry="18"/>
<text text-anchor="middle" x="406.09" y="-246.3" font-family="Times,serif" font-size="14.00">chain2</text>
</a>
</g>
</g>
<!-- LocalBlockchainTests_chain3&#45;&gt;LocalBlockchainTests_chain2 -->
<g id="edge44" class="edge">
<title>LocalBlockchainTests_chain3&#45;&gt;LocalBlockchainTests_chain2</title>
<path fill="none" stroke="black" d="M406.09,-311.69C406.09,-301.89 406.09,-289.42 406.09,-278.33"/>
<polygon fill="black" stroke="black" points="409.59,-278.26 406.09,-268.26 402.59,-278.26 409.59,-278.26"/>
</g>
<!-- LocalBlockchainTests_person_1 -->
<g id="node44" class="node">
<title>LocalBlockchainTests_person_1</title>
<g id="a_node44"><a xlink:href="LocalBlockchainTests.html#person_1" xlink:title="person_1">
<ellipse fill="#f070d1" stroke="black" cx="634.09" cy="-250" rx="52.79" ry="18"/>
<text text-anchor="middle" x="634.09" y="-246.3" font-family="Times,serif" font-size="14.00">person_1</text>
</a>
</g>
</g>
<!-- LocalBlockchainTests_chain3&#45;&gt;LocalBlockchainTests_person_1 -->
<g id="edge45" class="edge">
<title>LocalBlockchainTests_chain3&#45;&gt;LocalBlockchainTests_person_1</title>
<path fill="none" stroke="black" d="M437.8,-318.15C476.93,-304.77 543.76,-281.9 588.42,-266.62"/>
<polygon fill="black" stroke="black" points="589.83,-269.84 598.15,-263.29 587.56,-263.22 589.83,-269.84"/>
</g>
<!-- LocalBlockchainTests_Unnamed_thm0 -->
<g id="node37" class="node">
<title>LocalBlockchainTests_Unnamed_thm0</title>
<g id="a_node37"><a xlink:href="LocalBlockchainTests.html#Unnamed_thm0" xlink:title="Unnamed_thm0">
<ellipse fill="#7fffd4" stroke="black" cx="169.09" cy="-330" rx="84.49" ry="18"/>
<ellipse fill="none" stroke="black" cx="169.09" cy="-330" rx="88.49" ry="22"/>
<ellipse fill="none" stroke="black" cx="169.09" cy="-330" rx="92.49" ry="26"/>
<text text-anchor="middle" x="169.09" y="-326.3" font-family="Times,serif" font-size="14.00">Unnamed_thm0</text>
</a>
</g>
</g>
<!-- LocalBlockchainTests_Unnamed_thm0&#45;&gt;LocalBlockchainTests_chain2 -->
<g id="edge46" class="edge">
<title>LocalBlockchainTests_Unnamed_thm0&#45;&gt;LocalBlockchainTests_chain2</title>
<path fill="none" stroke="black" d="M227.68,-309.72C270.08,-295.76 326.38,-277.24 364.3,-264.76"/>
<polygon fill="black" stroke="black" points="365.6,-268.01 374,-261.56 363.41,-261.36 365.6,-268.01"/>
</g>
<!-- LocalBlockchainTests_Unnamed_thm -->
<g id="node38" class="node">
<title>LocalBlockchainTests_Unnamed_thm</title>
<g id="a_node38"><a xlink:href="LocalBlockchainTests.html#Unnamed_thm" xlink:title="Unnamed_thm">
<ellipse fill="#7fffd4" stroke="black" cx="634.09" cy="-330" rx="78.77" ry="18"/>
<ellipse fill="none" stroke="black" cx="634.09" cy="-330" rx="82.78" ry="22"/>
<ellipse fill="none" stroke="black" cx="634.09" cy="-330" rx="86.79" ry="26"/>
<text text-anchor="middle" x="634.09" y="-326.3" font-family="Times,serif" font-size="14.00">Unnamed_thm</text>
</a>
</g>
</g>
<!-- LocalBlockchainTests_Unnamed_thm&#45;&gt;LocalBlockchainTests_chain2 -->
<g id="edge47" class="edge">
<title>LocalBlockchainTests_Unnamed_thm&#45;&gt;LocalBlockchainTests_chain2</title>
<path fill="none" stroke="black" d="M578.61,-310.02C538.25,-296.21 484.46,-277.81 447.74,-265.25"/>
<polygon fill="black" stroke="black" points="448.45,-261.79 437.86,-261.87 446.19,-268.42 448.45,-261.79"/>
</g>
<!-- LocalBlockchainTests_Unnamed_thm&#45;&gt;LocalBlockchainTests_person_1 -->
<g id="edge48" class="edge">
<title>LocalBlockchainTests_Unnamed_thm&#45;&gt;LocalBlockchainTests_person_1</title>
<path fill="none" stroke="black" d="M634.09,-303.89C634.09,-295.84 634.09,-286.88 634.09,-278.66"/>
<polygon fill="black" stroke="black" points="637.59,-278.41 634.09,-268.41 630.59,-278.41 637.59,-278.41"/>
</g>
<!-- LocalBlockchainTests_add_block -->
<g id="node40" class="node">
<title>LocalBlockchainTests_add_block</title>
<g id="a_node40"><a xlink:href="LocalBlockchainTests.html#add_block" xlink:title="add_block">
<ellipse fill="#f070d1" stroke="black" cx="404.09" cy="-178" rx="56.59" ry="18"/>
<text text-anchor="middle" x="404.09" y="-174.3" font-family="Times,serif" font-size="14.00">add_block</text>
</a>
</g>
</g>
<!-- LocalBlockchainTests_chain2&#45;&gt;LocalBlockchainTests_add_block -->
<g id="edge49" class="edge">
<title>LocalBlockchainTests_chain2&#45;&gt;LocalBlockchainTests_add_block</title>
<path fill="none" stroke="black" d="M405.6,-231.7C405.38,-223.98 405.11,-214.71 404.87,-206.11"/>
<polygon fill="black" stroke="black" points="408.37,-206 404.58,-196.1 401.37,-206.2 408.37,-206"/>
</g>
<!-- LocalBlockchainTests_chain1 -->
<g id="node41" class="node">
<title>LocalBlockchainTests_chain1</title>
<g id="a_node41"><a xlink:href="LocalBlockchainTests.html#chain1" xlink:title="chain1">
<ellipse fill="#f070d1" stroke="black" cx="586.09" cy="-178" rx="41.69" ry="18"/>
<text text-anchor="middle" x="586.09" y="-174.3" font-family="Times,serif" font-size="14.00">chain1</text>
</a>
</g>
</g>
<!-- LocalBlockchainTests_chain2&#45;&gt;LocalBlockchainTests_chain1 -->
<g id="edge50" class="edge">
<title>LocalBlockchainTests_chain2&#45;&gt;LocalBlockchainTests_chain1</title>
<path fill="none" stroke="black" d="M436.22,-237.28C466.55,-225.49 513.49,-207.23 546.75,-194.3"/>
<polygon fill="black" stroke="black" points="548.12,-197.52 556.17,-190.64 545.58,-191 548.12,-197.52"/>
</g>
<!-- LocalBlockchainTests_creator -->
<g id="node45" class="node">
<title>LocalBlockchainTests_creator</title>
<g id="a_node45"><a xlink:href="LocalBlockchainTests.html#creator" xlink:title="creator">
<ellipse fill="#f070d1" stroke="black" cx="376.09" cy="-106" rx="44.39" ry="18"/>
<text text-anchor="middle" x="376.09" y="-102.3" font-family="Times,serif" font-size="14.00">creator</text>
</a>
</g>
</g>
<!-- LocalBlockchainTests_add_block&#45;&gt;LocalBlockchainTests_creator -->
<g id="edge51" class="edge">
<title>LocalBlockchainTests_add_block&#45;&gt;LocalBlockchainTests_creator</title>
<path fill="none" stroke="black" d="M397.32,-160.05C394.16,-152.18 390.34,-142.62 386.81,-133.79"/>
<polygon fill="black" stroke="black" points="389.97,-132.26 383,-124.28 383.47,-134.86 389.97,-132.26"/>
</g>
<!-- LocalBlockchainTests_ChainBuilder -->
<g id="node46" class="node">
<title>LocalBlockchainTests_ChainBuilder</title>
<g id="a_node46"><a xlink:href="LocalBlockchainTests.html#ChainBuilder" xlink:title="ChainBuilder">
<ellipse fill="#f070d1" stroke="black" cx="586.09" cy="-106" rx="71.49" ry="18"/>
<text text-anchor="middle" x="586.09" y="-102.3" font-family="Times,serif" font-size="14.00">ChainBuilder</text>
</a>
</g>
</g>
<!-- LocalBlockchainTests_add_block&#45;&gt;LocalBlockchainTests_ChainBuilder -->
<g id="edge52" class="edge">
<title>LocalBlockchainTests_add_block&#45;&gt;LocalBlockchainTests_ChainBuilder</title>
<path fill="none" stroke="black" d="M438.75,-163.67C467.26,-152.7 507.93,-137.06 539.32,-124.99"/>
<polygon fill="black" stroke="black" points="540.67,-128.22 548.74,-121.37 538.15,-121.69 540.67,-128.22"/>
</g>
<!-- LocalBlockchainTests_chain1&#45;&gt;LocalBlockchainTests_ChainBuilder -->
<g id="edge53" class="edge">
<title>LocalBlockchainTests_chain1&#45;&gt;LocalBlockchainTests_ChainBuilder</title>
<path fill="none" stroke="black" d="M586.09,-159.7C586.09,-151.98 586.09,-142.71 586.09,-134.11"/>
<polygon fill="black" stroke="black" points="589.59,-134.1 586.09,-124.1 582.59,-134.1 589.59,-134.1"/>
</g>
<!-- LocalBlockchainTests_person_3&#45;&gt;LocalBlockchainTests_Base -->
<g id="edge54" class="edge">
<title>LocalBlockchainTests_person_3&#45;&gt;LocalBlockchainTests_Base</title>
<path fill="none" stroke="black" d="M1210.09,-575.71C1210.09,-544.44 1210.09,-476.4 1210.09,-419 1210.09,-419 1210.09,-419 1210.09,-177 1210.09,-131.63 1197.13,-114.21 1160.09,-88 1118.77,-58.76 972.83,-43.81 899.22,-37.99"/>
<polygon fill="black" stroke="black" points="899.15,-34.47 888.91,-37.19 898.61,-41.45 899.15,-34.47"/>
</g>
<!-- LocalBlockchainTests_person_2&#45;&gt;LocalBlockchainTests_Base -->
<g id="edge55" class="edge">
<title>LocalBlockchainTests_person_2&#45;&gt;LocalBlockchainTests_Base</title>
<path fill="none" stroke="black" d="M1059.21,-93.75C1013.87,-80.64 939.41,-59.1 894.34,-46.06"/>
<polygon fill="black" stroke="black" points="895.23,-42.68 884.65,-43.26 893.28,-49.4 895.23,-42.68"/>
</g>
<!-- LocalBlockchainTests_person_1&#45;&gt;LocalBlockchainTests_Base -->
<g id="edge56" class="edge">
<title>LocalBlockchainTests_person_1&#45;&gt;LocalBlockchainTests_Base</title>
<path fill="none" stroke="black" d="M650.78,-232.92C690.05,-195.06 788.38,-100.27 833.19,-57.08"/>
<polygon fill="black" stroke="black" points="835.64,-59.58 840.41,-50.12 830.78,-54.54 835.64,-59.58"/>
</g>
<!-- LocalBlockchainTests_creator&#45;&gt;LocalBlockchainTests_Base -->
<g id="edge57" class="edge">
<title>LocalBlockchainTests_creator&#45;&gt;LocalBlockchainTests_Base</title>
<path fill="none" stroke="black" d="M417.02,-99.03C507.39,-85.85 723.21,-54.38 814.34,-41.09"/>
<polygon fill="black" stroke="black" points="814.92,-44.54 824.31,-39.64 813.91,-37.62 814.92,-44.54"/>
</g>
<!-- LocalBlockchainTests_ChainBuilder&#45;&gt;LocalBlockchainTests_Base -->
<g id="edge58" class="edge">
<title>LocalBlockchainTests_ChainBuilder&#45;&gt;LocalBlockchainTests_Base</title>
<path fill="none" stroke="black" d="M634.05,-92.57C686.26,-79.03 768.73,-57.65 817.11,-45.11"/>
<polygon fill="black" stroke="black" points="818.09,-48.47 826.89,-42.57 816.33,-41.69 818.09,-48.47"/>
</g>
</g>
</svg>
