<?xml version="1.0" encoding="UTF-8" standalone="no"?>
<!DOCTYPE svg PUBLIC "-//W3C//DTD SVG 1.1//EN"
 "http://www.w3.org/Graphics/SVG/1.1/DTD/svg11.dtd">
<!-- Generated by graphviz version 2.43.0 (0)
 -->
<!-- Title: Notations Pages: 1 -->
<svg width="1114pt" height="561pt"
 viewBox="0.00 0.00 1114.00 561.00" xmlns="http://www.w3.org/2000/svg" xmlns:xlink="http://www.w3.org/1999/xlink">
<g id="graph0" class="graph" transform="scale(1 1) rotate(0) translate(4 557)">
<title>Notations</title>
<polygon fill="white" stroke="transparent" points="-4,4 -4,-557 1110,-557 1110,4 -4,4"/>
<g id="clust1" class="cluster">
<title>cluster_Notations</title>
<polygon fill="#ffffc3" stroke="black" points="8,-16.57 8,-536.43 1098,-536.43 1098,-16.57 8,-16.57"/>
<text text-anchor="middle" x="51" y="-521.23" font-family="Times,serif" font-size="14.00">Notations</text>
</g>
<!-- Notations_ci_to_types -->
<g id="node1" class="node">
<title>Notations_ci_to_types</title>
<g id="a_node1"><a xlink:href="Notations.html#ci_to_types" xlink:title="ci_to_types">
<ellipse fill="#f070d1" stroke="black" cx="1020" cy="-236.57" rx="61.96" ry="18"/>
<ellipse fill="none" stroke="black" cx="1020" cy="-236.57" rx="65.98" ry="22"/>
<ellipse fill="none" stroke="black" cx="1020" cy="-236.57" rx="69.99" ry="26"/>
<text text-anchor="middle" x="1020" y="-232.87" font-family="Times,serif" font-size="14.00">ci_to_types</text>
</a>
</g>
</g>
<!-- Notations_case_info -->
<g id="node7" class="node">
<title>Notations_case_info</title>
<g id="a_node7"><a xlink:href="Notations.html#case_info" xlink:title="case_info">
<ellipse fill="#e2cdfa" stroke="black" cx="828" cy="-70.57" rx="53.09" ry="18"/>
<text text-anchor="middle" x="828" y="-66.87" font-family="Times,serif" font-size="14.00">case_info</text>
</a>
</g>
</g>
<!-- Notations_ci_to_types&#45;&gt;Notations_case_info -->
<g id="edge1" class="edge">
<title>Notations_ci_to_types&#45;&gt;Notations_case_info</title>
<path fill="none" stroke="black" d="M992.9,-212.42C956.09,-180.98 890.73,-125.15 854.33,-94.06"/>
<polygon fill="black" stroke="black" points="856.47,-91.28 846.59,-87.45 851.92,-96.6 856.47,-91.28"/>
</g>
<!-- Notations_case_info_sind -->
<g id="node2" class="node">
<title>Notations_case_info_sind</title>
<g id="a_node2"><a xlink:href="Notations.html#case_info_sind" xlink:title="case_info_sind">
<ellipse fill="#f070d1" stroke="black" cx="669" cy="-236.57" rx="77.2" ry="18"/>
<ellipse fill="none" stroke="black" cx="669" cy="-236.57" rx="81.19" ry="22"/>
<ellipse fill="none" stroke="black" cx="669" cy="-236.57" rx="85.19" ry="26"/>
<text text-anchor="middle" x="669" y="-232.87" font-family="Times,serif" font-size="14.00">case_info_sind</text>
</a>
</g>
</g>
<!-- Notations_ciParamInd -->
<g id="node6" class="node">
<title>Notations_ciParamInd</title>
<g id="a_node6"><a xlink:href="Notations.html#ciParamInd" xlink:title="ciParamInd">
<ellipse fill="#7faaff" stroke="black" cx="669" cy="-70.57" rx="63.89" ry="18"/>
<text text-anchor="middle" x="669" y="-66.87" font-family="Times,serif" font-size="14.00">ciParamInd</text>
</a>
</g>
</g>
<!-- Notations_case_info_sind&#45;&gt;Notations_ciParamInd -->
<g id="edge2" class="edge">
<title>Notations_case_info_sind&#45;&gt;Notations_ciParamInd</title>
<path fill="none" stroke="black" d="M669,-210.3C669,-180.08 669,-129.7 669,-98.68"/>
<polygon fill="black" stroke="black" points="672.5,-98.58 669,-88.58 665.5,-98.58 672.5,-98.58"/>
</g>
<!-- Notations_case_info_sind&#45;&gt;Notations_case_info -->
<g id="edge3" class="edge">
<title>Notations_case_info_sind&#45;&gt;Notations_case_info</title>
<path fill="none" stroke="black" d="M692.46,-211.37C722.72,-180.16 775.02,-126.21 805.04,-95.25"/>
<polygon fill="black" stroke="black" points="807.72,-97.52 812.16,-87.9 802.69,-92.65 807.72,-97.52"/>
</g>
<!-- Notations_case_info_rec -->
<g id="node3" class="node">
<title>Notations_case_info_rec</title>
<g id="a_node3"><a xlink:href="Notations.html#case_info_rec" xlink:title="case_info_rec">
<ellipse fill="#f070d1" stroke="black" cx="1010" cy="-418.57" rx="72.27" ry="18"/>
<ellipse fill="none" stroke="black" cx="1010" cy="-418.57" rx="76.28" ry="22"/>
<ellipse fill="none" stroke="black" cx="1010" cy="-418.57" rx="80.29" ry="26"/>
<text text-anchor="middle" x="1010" y="-414.87" font-family="Times,serif" font-size="14.00">case_info_rec</text>
</a>
</g>
</g>
<!-- Notations_case_info_rect -->
<g id="node5" class="node">
<title>Notations_case_info_rect</title>
<g id="a_node5"><a xlink:href="Notations.html#case_info_rect" xlink:title="case_info_rect">
<ellipse fill="#f070d1" stroke="black" cx="490" cy="-236.57" rx="76.09" ry="18"/>
<text text-anchor="middle" x="490" y="-232.87" font-family="Times,serif" font-size="14.00">case_info_rect</text>
</a>
</g>
</g>
<!-- Notations_case_info_rec&#45;&gt;Notations_case_info_rect -->
<g id="edge4" class="edge">
<title>Notations_case_info_rec&#45;&gt;Notations_case_info_rect</title>
<path fill="none" stroke="black" d="M956.31,-398.98C855.58,-364.12 639.56,-289.34 540.96,-255.21"/>
<polygon fill="black" stroke="black" points="541.82,-251.8 531.23,-251.84 539.53,-258.42 541.82,-251.8"/>
</g>
<!-- Notations_case_info_ind -->
<g id="node4" class="node">
<title>Notations_case_info_ind</title>
<g id="a_node4"><a xlink:href="Notations.html#case_info_ind" xlink:title="case_info_ind">
<ellipse fill="#7fffd4" stroke="black" cx="852" cy="-236.57" rx="72.27" ry="18"/>
<ellipse fill="none" stroke="black" cx="852" cy="-236.57" rx="76.28" ry="22"/>
<ellipse fill="none" stroke="black" cx="852" cy="-236.57" rx="80.29" ry="26"/>
<text text-anchor="middle" x="852" y="-232.87" font-family="Times,serif" font-size="14.00">case_info_ind</text>
</a>
</g>
</g>
<!-- Notations_case_info_ind&#45;&gt;Notations_ciParamInd -->
<g id="edge5" class="edge">
<title>Notations_case_info_ind&#45;&gt;Notations_ciParamInd</title>
<path fill="none" stroke="black" d="M825.39,-211.72C790.52,-180.47 729.73,-126 695.11,-94.97"/>
<polygon fill="black" stroke="black" points="697.1,-92.05 687.31,-87.98 692.42,-97.26 697.1,-92.05"/>
</g>
<!-- Notations_case_info_ind&#45;&gt;Notations_case_info -->
<g id="edge6" class="edge">
<title>Notations_case_info_ind&#45;&gt;Notations_case_info</title>
<path fill="none" stroke="black" d="M848.3,-210.3C843.88,-180.08 836.51,-129.7 831.97,-98.68"/>
<polygon fill="black" stroke="black" points="835.4,-97.97 830.49,-88.58 828.47,-98.99 835.4,-97.97"/>
</g>
<!-- Notations_case_info_rect&#45;&gt;Notations_ciParamInd -->
<g id="edge7" class="edge">
<title>Notations_case_info_rect&#45;&gt;Notations_ciParamInd</title>
<path fill="none" stroke="black" d="M508.15,-218.94C540.13,-189.64 606.59,-128.75 643.28,-95.13"/>
<polygon fill="black" stroke="black" points="646.06,-97.33 651.07,-88 641.33,-92.17 646.06,-97.33"/>
</g>
<!-- Notations_case_info_rect&#45;&gt;Notations_case_info -->
<g id="edge8" class="edge">
<title>Notations_case_info_rect&#45;&gt;Notations_case_info</title>
<path fill="none" stroke="black" d="M521.8,-220.14C584.14,-189.89 722.19,-122.91 789.54,-90.23"/>
<polygon fill="black" stroke="black" points="791.48,-93.18 798.95,-85.67 788.42,-86.88 791.48,-93.18"/>
</g>
<!-- Notations_to_ind -->
<g id="node8" class="node">
<title>Notations_to_ind</title>
<g id="a_node8"><a xlink:href="Notations.html#to_ind" xlink:title="to_ind">
<ellipse fill="#f070d1" stroke="black" cx="865" cy="-418.57" rx="38.99" ry="18"/>
<ellipse fill="none" stroke="black" cx="865" cy="-418.57" rx="42.99" ry="22"/>
<ellipse fill="none" stroke="black" cx="865" cy="-418.57" rx="46.99" ry="26"/>
<text text-anchor="middle" x="865" y="-414.87" font-family="Times,serif" font-size="14.00">to_ind</text>
</a>
</g>
</g>
<!-- Notations_rec_constrs -->
<g id="node9" class="node">
<title>Notations_rec_constrs</title>
<g id="a_node9"><a xlink:href="Notations.html#rec_constrs" xlink:title="rec_constrs">
<ellipse fill="#f070d1" stroke="black" cx="728" cy="-418.57" rx="63.87" ry="18"/>
<ellipse fill="none" stroke="black" cx="728" cy="-418.57" rx="67.88" ry="22"/>
<ellipse fill="none" stroke="black" cx="728" cy="-418.57" rx="71.89" ry="26"/>
<text text-anchor="middle" x="728" y="-414.87" font-family="Times,serif" font-size="14.00">rec_constrs</text>
</a>
</g>
</g>
<!-- Notations_rec_constr -->
<g id="node10" class="node">
<title>Notations_rec_constr</title>
<g id="a_node10"><a xlink:href="Notations.html#rec_constr" xlink:title="rec_constr">
<ellipse fill="#f070d1" stroke="black" cx="337" cy="-236.57" rx="59.29" ry="18"/>
<text text-anchor="middle" x="337" y="-232.87" font-family="Times,serif" font-size="14.00">rec_constr</text>
</a>
</g>
</g>
<!-- Notations_rec_constrs&#45;&gt;Notations_rec_constr -->
<g id="edge9" class="edge">
<title>Notations_rec_constrs&#45;&gt;Notations_rec_constr</title>
<path fill="none" stroke="black" d="M684.66,-397.62C608.55,-362.58 451.9,-290.46 377.69,-256.3"/>
<polygon fill="black" stroke="black" points="378.76,-252.94 368.21,-251.94 375.83,-259.3 378.76,-252.94"/>
</g>
<!-- Notations_unnamed_constr -->
<g id="node11" class="node">
<title>Notations_unnamed_constr</title>
<g id="a_node11"><a xlink:href="Notations.html#unnamed_constr" xlink:title="unnamed_constr">
<ellipse fill="#f070d1" stroke="black" cx="543" cy="-418.57" rx="87.18" ry="18"/>
<ellipse fill="none" stroke="black" cx="543" cy="-418.57" rx="91.18" ry="22"/>
<ellipse fill="none" stroke="black" cx="543" cy="-418.57" rx="95.18" ry="26"/>
<text text-anchor="middle" x="543" y="-414.87" font-family="Times,serif" font-size="14.00">unnamed_constr</text>
</a>
</g>
</g>
<!-- Notations_ctor_type_to_list_anon -->
<g id="node12" class="node">
<title>Notations_ctor_type_to_list_anon</title>
<g id="a_node12"><a xlink:href="Notations.html#ctor_type_to_list_anon" xlink:title="ctor_type_to_list_anon">
<ellipse fill="#f070d1" stroke="black" cx="308" cy="-418.57" rx="113.96" ry="18"/>
<ellipse fill="none" stroke="black" cx="308" cy="-418.57" rx="117.97" ry="22"/>
<ellipse fill="none" stroke="black" cx="308" cy="-418.57" rx="121.98" ry="26"/>
<text text-anchor="middle" x="308" y="-414.87" font-family="Times,serif" font-size="14.00">ctor_type_to_list_anon</text>
</a>
</g>
</g>
<!-- Notations_example_arr -->
<g id="node13" class="node">
<title>Notations_example_arr</title>
<g id="a_node13"><a xlink:href="Notations.html#example_arr" xlink:title="example_arr">
<ellipse fill="#f070d1" stroke="black" cx="92" cy="-418.57" rx="68.46" ry="18"/>
<ellipse fill="none" stroke="black" cx="92" cy="-418.57" rx="72.48" ry="22"/>
<ellipse fill="none" stroke="black" cx="92" cy="-418.57" rx="76.49" ry="26"/>
<text text-anchor="middle" x="92" y="-414.87" font-family="Times,serif" font-size="14.00">example_arr</text>
</a>
</g>
</g>
</g>
</svg>
