<?xml version="1.0" encoding="UTF-8" standalone="no"?>
<!DOCTYPE svg PUBLIC "-//W3C//DTD SVG 1.1//EN"
 "http://www.w3.org/Graphics/SVG/1.1/DTD/svg11.dtd">
<!-- Generated by graphviz version 2.43.0 (0)
 -->
<!-- Title: StringExtra Pages: 1 -->
<svg width="2357pt" height="1183pt"
 viewBox="0.00 0.00 2357.00 1182.50" xmlns="http://www.w3.org/2000/svg" xmlns:xlink="http://www.w3.org/1999/xlink">
<g id="graph0" class="graph" transform="scale(1 1) rotate(0) translate(4 1178.5)">
<title>StringExtra</title>
<polygon fill="white" stroke="transparent" points="-4,4 -4,-1178.5 2353,-1178.5 2353,4 -4,4"/>
<g id="clust1" class="cluster">
<title>cluster_StringExtra</title>
<polygon fill="#ffffc3" stroke="black" points="8,-27.72 8,-1146.78 2341,-1146.78 2341,-27.72 8,-27.72"/>
<text text-anchor="middle" x="58.5" y="-1131.58" font-family="Times,serif" font-size="14.00">StringExtra</text>
</g>
<!-- StringExtra_lines -->
<g id="node1" class="node">
<title>StringExtra_lines</title>
<g id="a_node1"><a xlink:href="StringExtra.html#lines" xlink:title="lines">
<ellipse fill="#f070d1" stroke="black" cx="2293" cy="-949.72" rx="32.49" ry="18"/>
<ellipse fill="none" stroke="black" cx="2293" cy="-949.72" rx="36.49" ry="22"/>
<ellipse fill="none" stroke="black" cx="2293" cy="-949.72" rx="40.49" ry="26"/>
<text text-anchor="middle" x="2293" y="-946.02" font-family="Times,serif" font-size="14.00">lines</text>
</a>
</g>
</g>
<!-- StringExtra_str_split -->
<g id="node2" class="node">
<title>StringExtra_str_split</title>
<g id="a_node2"><a xlink:href="StringExtra.html#str_split" xlink:title="str_split">
<ellipse fill="#f070d1" stroke="black" cx="1593" cy="-949.72" rx="48.96" ry="18"/>
<ellipse fill="none" stroke="black" cx="1593" cy="-949.72" rx="52.98" ry="22"/>
<ellipse fill="none" stroke="black" cx="1593" cy="-949.72" rx="56.99" ry="26"/>
<text text-anchor="middle" x="1593" y="-946.02" font-family="Times,serif" font-size="14.00">str_split</text>
</a>
</g>
</g>
<!-- StringExtra_starts_with_cont -->
<g id="node16" class="node">
<title>StringExtra_starts_with_cont</title>
<g id="a_node16"><a xlink:href="StringExtra.html#starts_with_cont" xlink:title="starts_with_cont">
<ellipse fill="#f070d1" stroke="black" cx="871" cy="-644.72" rx="87.18" ry="18"/>
<text text-anchor="middle" x="871" y="-641.02" font-family="Times,serif" font-size="14.00">starts_with_cont</text>
</a>
</g>
</g>
<!-- StringExtra_str_split&#45;&gt;StringExtra_starts_with_cont -->
<g id="edge1" class="edge">
<title>StringExtra_str_split&#45;&gt;StringExtra_starts_with_cont</title>
<path fill="none" stroke="black" d="M1552.11,-931.56C1426.97,-879.04 1049.65,-720.69 917.41,-665.19"/>
<polygon fill="black" stroke="black" points="918.52,-661.86 907.95,-661.22 915.81,-668.32 918.52,-661.86"/>
</g>
<!-- StringExtra_str_rev -->
<g id="node28" class="node">
<title>StringExtra_str_rev</title>
<g id="a_node28"><a xlink:href="StringExtra.html#str_rev" xlink:title="str_rev">
<ellipse fill="#f070d1" stroke="black" cx="1593" cy="-644.72" rx="43.59" ry="18"/>
<text text-anchor="middle" x="1593" y="-641.02" font-family="Times,serif" font-size="14.00">str_rev</text>
</a>
</g>
</g>
<!-- StringExtra_str_split&#45;&gt;StringExtra_str_rev -->
<g id="edge2" class="edge">
<title>StringExtra_str_split&#45;&gt;StringExtra_str_rev</title>
<path fill="none" stroke="black" d="M1593,-923.66C1593,-867.45 1593,-731.64 1593,-673.21"/>
<polygon fill="black" stroke="black" points="1596.5,-672.92 1593,-662.92 1589.5,-672.92 1596.5,-672.92"/>
</g>
<!-- StringExtra_uncapitalize -->
<g id="node3" class="node">
<title>StringExtra_uncapitalize</title>
<g id="a_node3"><a xlink:href="StringExtra.html#uncapitalize" xlink:title="uncapitalize">
<ellipse fill="#f070d1" stroke="black" cx="1743" cy="-949.72" rx="66.89" ry="18"/>
<ellipse fill="none" stroke="black" cx="1743" cy="-949.72" rx="70.89" ry="22"/>
<ellipse fill="none" stroke="black" cx="1743" cy="-949.72" rx="74.89" ry="26"/>
<text text-anchor="middle" x="1743" y="-946.02" font-family="Times,serif" font-size="14.00">uncapitalize</text>
</a>
</g>
</g>
<!-- StringExtra_char_to_lower -->
<g id="node7" class="node">
<title>StringExtra_char_to_lower</title>
<g id="a_node7"><a xlink:href="StringExtra.html#char_to_lower" xlink:title="char_to_lower">
<ellipse fill="#f070d1" stroke="black" cx="1820" cy="-644.72" rx="75.29" ry="18"/>
<text text-anchor="middle" x="1820" y="-641.02" font-family="Times,serif" font-size="14.00">char_to_lower</text>
</a>
</g>
</g>
<!-- StringExtra_uncapitalize&#45;&gt;StringExtra_char_to_lower -->
<g id="edge3" class="edge">
<title>StringExtra_uncapitalize&#45;&gt;StringExtra_char_to_lower</title>
<path fill="none" stroke="black" d="M1749.37,-923.66C1763.68,-867.34 1798.31,-731.08 1813.11,-672.84"/>
<polygon fill="black" stroke="black" points="1816.56,-673.47 1815.63,-662.92 1809.77,-671.75 1816.56,-673.47"/>
</g>
<!-- StringExtra_capitalize -->
<g id="node4" class="node">
<title>StringExtra_capitalize</title>
<g id="a_node4"><a xlink:href="StringExtra.html#capitalize" xlink:title="capitalize">
<ellipse fill="#f070d1" stroke="black" cx="2171" cy="-949.72" rx="55.46" ry="18"/>
<ellipse fill="none" stroke="black" cx="2171" cy="-949.72" rx="59.48" ry="22"/>
<ellipse fill="none" stroke="black" cx="2171" cy="-949.72" rx="63.49" ry="26"/>
<text text-anchor="middle" x="2171" y="-946.02" font-family="Times,serif" font-size="14.00">capitalize</text>
</a>
</g>
</g>
<!-- StringExtra_char_to_upper -->
<g id="node8" class="node">
<title>StringExtra_char_to_upper</title>
<g id="a_node8"><a xlink:href="StringExtra.html#char_to_upper" xlink:title="char_to_upper">
<ellipse fill="#f070d1" stroke="black" cx="2104" cy="-644.72" rx="76.89" ry="18"/>
<text text-anchor="middle" x="2104" y="-641.02" font-family="Times,serif" font-size="14.00">char_to_upper</text>
</a>
</g>
</g>
<!-- StringExtra_capitalize&#45;&gt;StringExtra_char_to_upper -->
<g id="edge4" class="edge">
<title>StringExtra_capitalize&#45;&gt;StringExtra_char_to_upper</title>
<path fill="none" stroke="black" d="M2165.46,-923.66C2153,-867.34 2122.88,-731.08 2110,-672.84"/>
<polygon fill="black" stroke="black" points="2113.38,-671.92 2107.8,-662.92 2106.54,-673.44 2113.38,-671.92"/>
</g>
<!-- StringExtra_to_lower -->
<g id="node5" class="node">
<title>StringExtra_to_lower</title>
<g id="a_node5"><a xlink:href="StringExtra.html#to_lower" xlink:title="to_lower">
<ellipse fill="#f070d1" stroke="black" cx="1894" cy="-949.72" rx="50.08" ry="18"/>
<ellipse fill="none" stroke="black" cx="1894" cy="-949.72" rx="54.09" ry="22"/>
<ellipse fill="none" stroke="black" cx="1894" cy="-949.72" rx="58.09" ry="26"/>
<text text-anchor="middle" x="1894" y="-946.02" font-family="Times,serif" font-size="14.00">to_lower</text>
</a>
</g>
</g>
<!-- StringExtra_to_lower&#45;&gt;StringExtra_char_to_lower -->
<g id="edge5" class="edge">
<title>StringExtra_to_lower&#45;&gt;StringExtra_char_to_lower</title>
<path fill="none" stroke="black" d="M1887.88,-923.66C1874.12,-867.34 1840.85,-731.08 1826.63,-672.84"/>
<polygon fill="black" stroke="black" points="1829.97,-671.8 1824.2,-662.92 1823.17,-673.46 1829.97,-671.8"/>
</g>
<!-- StringExtra_str_map -->
<g id="node11" class="node">
<title>StringExtra_str_map</title>
<g id="a_node11"><a xlink:href="StringExtra.html#str_map" xlink:title="str_map">
<ellipse fill="#f070d1" stroke="black" cx="1961" cy="-644.72" rx="48.19" ry="18"/>
<text text-anchor="middle" x="1961" y="-641.02" font-family="Times,serif" font-size="14.00">str_map</text>
</a>
</g>
</g>
<!-- StringExtra_to_lower&#45;&gt;StringExtra_str_map -->
<g id="edge6" class="edge">
<title>StringExtra_to_lower&#45;&gt;StringExtra_str_map</title>
<path fill="none" stroke="black" d="M1899.54,-923.66C1912,-867.34 1942.12,-731.08 1955,-672.84"/>
<polygon fill="black" stroke="black" points="1958.46,-673.44 1957.2,-662.92 1951.62,-671.92 1958.46,-673.44"/>
</g>
<!-- StringExtra_to_upper -->
<g id="node6" class="node">
<title>StringExtra_to_upper</title>
<g id="a_node6"><a xlink:href="StringExtra.html#to_upper" xlink:title="to_upper">
<ellipse fill="#f070d1" stroke="black" cx="2030" cy="-949.72" rx="51.99" ry="18"/>
<ellipse fill="none" stroke="black" cx="2030" cy="-949.72" rx="55.99" ry="22"/>
<ellipse fill="none" stroke="black" cx="2030" cy="-949.72" rx="59.99" ry="26"/>
<text text-anchor="middle" x="2030" y="-946.02" font-family="Times,serif" font-size="14.00">to_upper</text>
</a>
</g>
</g>
<!-- StringExtra_to_upper&#45;&gt;StringExtra_char_to_upper -->
<g id="edge7" class="edge">
<title>StringExtra_to_upper&#45;&gt;StringExtra_char_to_upper</title>
<path fill="none" stroke="black" d="M2036.12,-923.66C2049.88,-867.34 2083.15,-731.08 2097.37,-672.84"/>
<polygon fill="black" stroke="black" points="2100.83,-673.46 2099.8,-662.92 2094.03,-671.8 2100.83,-673.46"/>
</g>
<!-- StringExtra_to_upper&#45;&gt;StringExtra_str_map -->
<g id="edge8" class="edge">
<title>StringExtra_to_upper&#45;&gt;StringExtra_str_map</title>
<path fill="none" stroke="black" d="M2024.29,-923.66C2011.47,-867.34 1980.44,-731.08 1967.18,-672.84"/>
<polygon fill="black" stroke="black" points="1970.55,-671.89 1964.92,-662.92 1963.72,-673.44 1970.55,-671.89"/>
</g>
<!-- StringExtra_is_letter -->
<g id="node9" class="node">
<title>StringExtra_is_letter</title>
<g id="a_node9"><a xlink:href="StringExtra.html#is_letter" xlink:title="is_letter">
<ellipse fill="#f070d1" stroke="black" cx="1962" cy="-367.72" rx="48.99" ry="18"/>
<text text-anchor="middle" x="1962" y="-364.02" font-family="Times,serif" font-size="14.00">is_letter</text>
</a>
</g>
</g>
<!-- StringExtra_char_to_lower&#45;&gt;StringExtra_is_letter -->
<g id="edge9" class="edge">
<title>StringExtra_char_to_lower&#45;&gt;StringExtra_is_letter</title>
<path fill="none" stroke="black" d="M1828.88,-626.51C1853,-579.81 1919.8,-450.45 1948.55,-394.76"/>
<polygon fill="black" stroke="black" points="1951.82,-396.05 1953.3,-385.56 1945.6,-392.84 1951.82,-396.05"/>
</g>
<!-- StringExtra_char_to_upper&#45;&gt;StringExtra_is_letter -->
<g id="edge10" class="edge">
<title>StringExtra_char_to_upper&#45;&gt;StringExtra_is_letter</title>
<path fill="none" stroke="black" d="M2095.12,-626.51C2071,-579.81 2004.2,-450.45 1975.45,-394.76"/>
<polygon fill="black" stroke="black" points="1978.4,-392.84 1970.7,-385.56 1972.18,-396.05 1978.4,-392.84"/>
</g>
<!-- StringExtra_last_index_of -->
<g id="node10" class="node">
<title>StringExtra_last_index_of</title>
<g id="a_node10"><a xlink:href="StringExtra.html#last_index_of" xlink:title="last_index_of">
<ellipse fill="#f070d1" stroke="black" cx="1439" cy="-949.72" rx="70.7" ry="18"/>
<ellipse fill="none" stroke="black" cx="1439" cy="-949.72" rx="74.7" ry="22"/>
<ellipse fill="none" stroke="black" cx="1439" cy="-949.72" rx="78.69" ry="26"/>
<text text-anchor="middle" x="1439" y="-946.02" font-family="Times,serif" font-size="14.00">last_index_of</text>
</a>
</g>
</g>
<!-- StringExtra_substring_count -->
<g id="node12" class="node">
<title>StringExtra_substring_count</title>
<g id="a_node12"><a xlink:href="StringExtra.html#substring_count" xlink:title="substring_count">
<ellipse fill="#f070d1" stroke="black" cx="1249" cy="-949.72" rx="85.27" ry="18"/>
<ellipse fill="none" stroke="black" cx="1249" cy="-949.72" rx="89.28" ry="22"/>
<ellipse fill="none" stroke="black" cx="1249" cy="-949.72" rx="93.29" ry="26"/>
<text text-anchor="middle" x="1249" y="-946.02" font-family="Times,serif" font-size="14.00">substring_count</text>
</a>
</g>
</g>
<!-- StringExtra_substring_from -->
<g id="node13" class="node">
<title>StringExtra_substring_from</title>
<g id="a_node13"><a xlink:href="StringExtra.html#substring_from" xlink:title="substring_from">
<ellipse fill="#f070d1" stroke="black" cx="1049" cy="-949.72" rx="81.46" ry="18"/>
<ellipse fill="none" stroke="black" cx="1049" cy="-949.72" rx="85.48" ry="22"/>
<ellipse fill="none" stroke="black" cx="1049" cy="-949.72" rx="89.49" ry="26"/>
<text text-anchor="middle" x="1049" y="-946.02" font-family="Times,serif" font-size="14.00">substring_from</text>
</a>
</g>
</g>
<!-- StringExtra_replace -->
<g id="node14" class="node">
<title>StringExtra_replace</title>
<g id="a_node14"><a xlink:href="StringExtra.html#replace" xlink:title="replace">
<ellipse fill="#f070d1" stroke="black" cx="729" cy="-949.72" rx="44.72" ry="18"/>
<ellipse fill="none" stroke="black" cx="729" cy="-949.72" rx="48.7" ry="22"/>
<ellipse fill="none" stroke="black" cx="729" cy="-949.72" rx="52.69" ry="26"/>
<text text-anchor="middle" x="729" y="-946.02" font-family="Times,serif" font-size="14.00">replace</text>
</a>
</g>
</g>
<!-- StringExtra_replace&#45;&gt;StringExtra_starts_with_cont -->
<g id="edge11" class="edge">
<title>StringExtra_replace&#45;&gt;StringExtra_starts_with_cont</title>
<path fill="none" stroke="black" d="M740.5,-924.18C766.84,-867.98 831.36,-730.31 858.57,-672.24"/>
<polygon fill="black" stroke="black" points="861.83,-673.53 862.9,-662.99 855.49,-670.56 861.83,-673.53"/>
</g>
<!-- StringExtra_starts_with -->
<g id="node15" class="node">
<title>StringExtra_starts_with</title>
<g id="a_node15"><a xlink:href="StringExtra.html#starts_with" xlink:title="starts_with">
<ellipse fill="#f070d1" stroke="black" cx="871" cy="-949.72" rx="63.08" ry="18"/>
<ellipse fill="none" stroke="black" cx="871" cy="-949.72" rx="67.09" ry="22"/>
<ellipse fill="none" stroke="black" cx="871" cy="-949.72" rx="71.09" ry="26"/>
<text text-anchor="middle" x="871" y="-946.02" font-family="Times,serif" font-size="14.00">starts_with</text>
</a>
</g>
</g>
<!-- StringExtra_starts_with&#45;&gt;StringExtra_starts_with_cont -->
<g id="edge12" class="edge">
<title>StringExtra_starts_with&#45;&gt;StringExtra_starts_with_cont</title>
<path fill="none" stroke="black" d="M871,-923.66C871,-867.45 871,-731.64 871,-673.21"/>
<polygon fill="black" stroke="black" points="874.5,-672.92 871,-662.92 867.5,-672.92 874.5,-672.92"/>
</g>
<!-- StringExtra_remove_char -->
<g id="node17" class="node">
<title>StringExtra_remove_char</title>
<g id="a_node17"><a xlink:href="StringExtra.html#remove_char" xlink:title="remove_char">
<ellipse fill="#f070d1" stroke="black" cx="580" cy="-949.72" rx="70.37" ry="18"/>
<ellipse fill="none" stroke="black" cx="580" cy="-949.72" rx="74.38" ry="22"/>
<ellipse fill="none" stroke="black" cx="580" cy="-949.72" rx="78.39" ry="26"/>
<text text-anchor="middle" x="580" y="-946.02" font-family="Times,serif" font-size="14.00">remove_char</text>
</a>
</g>
</g>
<!-- StringExtra_replace_char -->
<g id="node18" class="node">
<title>StringExtra_replace_char</title>
<g id="a_node18"><a xlink:href="StringExtra.html#replace_char" xlink:title="replace_char">
<ellipse fill="#f070d1" stroke="black" cx="406" cy="-949.72" rx="69.58" ry="18"/>
<ellipse fill="none" stroke="black" cx="406" cy="-949.72" rx="73.59" ry="22"/>
<ellipse fill="none" stroke="black" cx="406" cy="-949.72" rx="77.59" ry="26"/>
<text text-anchor="middle" x="406" y="-946.02" font-family="Times,serif" font-size="14.00">replace_char</text>
</a>
</g>
</g>
<!-- StringExtra_string_of_Z -->
<g id="node19" class="node">
<title>StringExtra_string_of_Z</title>
<g id="a_node19"><a xlink:href="StringExtra.html#string_of_Z" xlink:title="string_of_Z">
<ellipse fill="#f070d1" stroke="black" cx="240" cy="-949.72" rx="62.3" ry="18"/>
<ellipse fill="none" stroke="black" cx="240" cy="-949.72" rx="66.3" ry="22"/>
<ellipse fill="none" stroke="black" cx="240" cy="-949.72" rx="70.29" ry="26"/>
<text text-anchor="middle" x="240" y="-946.02" font-family="Times,serif" font-size="14.00">string_of_Z</text>
</a>
</g>
</g>
<!-- StringExtra_string_of_positive -->
<g id="node20" class="node">
<title>StringExtra_string_of_positive</title>
<g id="a_node20"><a xlink:href="StringExtra.html#string_of_positive" xlink:title="string_of_positive">
<ellipse fill="#f070d1" stroke="black" cx="369" cy="-644.72" rx="92.88" ry="18"/>
<text text-anchor="middle" x="369" y="-641.02" font-family="Times,serif" font-size="14.00">string_of_positive</text>
</a>
</g>
</g>
<!-- StringExtra_string_of_Z&#45;&gt;StringExtra_string_of_positive -->
<g id="edge13" class="edge">
<title>StringExtra_string_of_Z&#45;&gt;StringExtra_string_of_positive</title>
<path fill="none" stroke="black" d="M250.56,-923.92C274.56,-867.54 333.06,-730.13 357.73,-672.18"/>
<polygon fill="black" stroke="black" points="360.96,-673.53 361.66,-662.95 354.52,-670.78 360.96,-673.53"/>
</g>
<!-- StringExtra_string_of_N -->
<g id="node22" class="node">
<title>StringExtra_string_of_N</title>
<g id="a_node22"><a xlink:href="StringExtra.html#string_of_N" xlink:title="string_of_N">
<ellipse fill="#f070d1" stroke="black" cx="464" cy="-367.72" rx="63.89" ry="18"/>
<text text-anchor="middle" x="464" y="-364.02" font-family="Times,serif" font-size="14.00">string_of_N</text>
</a>
</g>
</g>
<!-- StringExtra_string_of_positive&#45;&gt;StringExtra_string_of_N -->
<g id="edge14" class="edge">
<title>StringExtra_string_of_positive&#45;&gt;StringExtra_string_of_N</title>
<path fill="none" stroke="black" d="M374.94,-626.51C391,-580.02 435.37,-451.6 454.74,-395.51"/>
<polygon fill="black" stroke="black" points="458.1,-396.51 458.06,-385.91 451.49,-394.22 458.1,-396.51"/>
</g>
<!-- StringExtra_string_of_nat -->
<g id="node21" class="node">
<title>StringExtra_string_of_nat</title>
<g id="a_node21"><a xlink:href="StringExtra.html#string_of_nat" xlink:title="string_of_nat">
<ellipse fill="#f070d1" stroke="black" cx="559" cy="-644.72" rx="71.49" ry="18"/>
<ellipse fill="none" stroke="black" cx="559" cy="-644.72" rx="75.49" ry="22"/>
<ellipse fill="none" stroke="black" cx="559" cy="-644.72" rx="79.49" ry="26"/>
<text text-anchor="middle" x="559" y="-641.02" font-family="Times,serif" font-size="14.00">string_of_nat</text>
</a>
</g>
</g>
<!-- StringExtra_string_of_nat&#45;&gt;StringExtra_string_of_N -->
<g id="edge15" class="edge">
<title>StringExtra_string_of_nat&#45;&gt;StringExtra_string_of_N</title>
<path fill="none" stroke="black" d="M550.4,-618.83C532.55,-567.14 491.58,-448.57 473.21,-395.38"/>
<polygon fill="black" stroke="black" points="476.43,-393.97 469.85,-385.66 469.81,-396.25 476.43,-393.97"/>
</g>
<!-- StringExtra_Nlog2up_nat -->
<g id="node23" class="node">
<title>StringExtra_Nlog2up_nat</title>
<g id="a_node23"><a xlink:href="StringExtra.html#Nlog2up_nat" xlink:title="Nlog2up_nat">
<ellipse fill="#f070d1" stroke="black" cx="464" cy="-117.72" rx="69.59" ry="18"/>
<text text-anchor="middle" x="464" y="-114.02" font-family="Times,serif" font-size="14.00">Nlog2up_nat</text>
</a>
</g>
</g>
<!-- StringExtra_string_of_N&#45;&gt;StringExtra_Nlog2up_nat -->
<g id="edge16" class="edge">
<title>StringExtra_string_of_N&#45;&gt;StringExtra_Nlog2up_nat</title>
<path fill="none" stroke="black" d="M464,-349.67C464,-307.37 464,-197.32 464,-145.92"/>
<polygon fill="black" stroke="black" points="467.5,-145.88 464,-135.88 460.5,-145.88 467.5,-145.88"/>
</g>
<!-- StringExtra_hex_of_Z -->
<g id="node24" class="node">
<title>StringExtra_hex_of_Z</title>
<g id="a_node24"><a xlink:href="StringExtra.html#hex_of_Z" xlink:title="hex_of_Z">
<ellipse fill="#f070d1" stroke="black" cx="75" cy="-644.72" rx="51.21" ry="18"/>
<ellipse fill="none" stroke="black" cx="75" cy="-644.72" rx="55.2" ry="22"/>
<ellipse fill="none" stroke="black" cx="75" cy="-644.72" rx="59.19" ry="26"/>
<text text-anchor="middle" x="75" y="-641.02" font-family="Times,serif" font-size="14.00">hex_of_Z</text>
</a>
</g>
</g>
<!-- StringExtra_hex_of_positive -->
<g id="node27" class="node">
<title>StringExtra_hex_of_positive</title>
<g id="a_node27"><a xlink:href="StringExtra.html#hex_of_positive" xlink:title="hex_of_positive">
<ellipse fill="#f070d1" stroke="black" cx="151" cy="-367.72" rx="81.49" ry="18"/>
<text text-anchor="middle" x="151" y="-364.02" font-family="Times,serif" font-size="14.00">hex_of_positive</text>
</a>
</g>
</g>
<!-- StringExtra_hex_of_Z&#45;&gt;StringExtra_hex_of_positive -->
<g id="edge17" class="edge">
<title>StringExtra_hex_of_Z&#45;&gt;StringExtra_hex_of_positive</title>
<path fill="none" stroke="black" d="M81.88,-618.83C96.13,-567.26 128.78,-449.14 143.52,-395.77"/>
<polygon fill="black" stroke="black" points="146.93,-396.57 146.22,-386 140.19,-394.7 146.93,-396.57"/>
</g>
<!-- StringExtra_hex_of_nat -->
<g id="node25" class="node">
<title>StringExtra_hex_of_nat</title>
<g id="a_node25"><a xlink:href="StringExtra.html#hex_of_nat" xlink:title="hex_of_nat">
<ellipse fill="#f070d1" stroke="black" cx="84" cy="-949.72" rx="59.61" ry="18"/>
<ellipse fill="none" stroke="black" cx="84" cy="-949.72" rx="63.6" ry="22"/>
<ellipse fill="none" stroke="black" cx="84" cy="-949.72" rx="67.59" ry="26"/>
<text text-anchor="middle" x="84" y="-946.02" font-family="Times,serif" font-size="14.00">hex_of_nat</text>
</a>
</g>
</g>
<!-- StringExtra_hex_of_N -->
<g id="node26" class="node">
<title>StringExtra_hex_of_N</title>
<g id="a_node26"><a xlink:href="StringExtra.html#hex_of_N" xlink:title="hex_of_N">
<ellipse fill="#f070d1" stroke="black" cx="205" cy="-644.72" rx="52.79" ry="18"/>
<text text-anchor="middle" x="205" y="-641.02" font-family="Times,serif" font-size="14.00">hex_of_N</text>
</a>
</g>
</g>
<!-- StringExtra_hex_of_nat&#45;&gt;StringExtra_hex_of_N -->
<g id="edge18" class="edge">
<title>StringExtra_hex_of_nat&#45;&gt;StringExtra_hex_of_N</title>
<path fill="none" stroke="black" d="M93.9,-923.92C116.42,-867.52 171.32,-730.05 194.45,-672.13"/>
<polygon fill="black" stroke="black" points="197.8,-673.18 198.26,-662.59 191.3,-670.58 197.8,-673.18"/>
</g>
<!-- StringExtra_hex_of_N&#45;&gt;StringExtra_hex_of_positive -->
<g id="edge19" class="edge">
<title>StringExtra_hex_of_N&#45;&gt;StringExtra_hex_of_positive</title>
<path fill="none" stroke="black" d="M201.62,-626.51C192.51,-580.12 167.38,-452.13 156.33,-395.86"/>
<polygon fill="black" stroke="black" points="159.74,-395.05 154.38,-385.91 152.87,-396.4 159.74,-395.05"/>
</g>
</g>
</svg>
