<?xml version="1.0" encoding="UTF-8" standalone="no"?>
<!DOCTYPE svg PUBLIC "-//W3C//DTD SVG 1.1//EN"
 "http://www.w3.org/Graphics/SVG/1.1/DTD/svg11.dtd">
<!-- Generated by graphviz version 2.43.0 (0)
 -->
<!-- Title: CameLIGOExtract Pages: 1 -->
<svg width="2530pt" height="1269pt"
 viewBox="0.00 0.00 2530.00 1269.00" xmlns="http://www.w3.org/2000/svg" xmlns:xlink="http://www.w3.org/1999/xlink">
<g id="graph0" class="graph" transform="scale(1 1) rotate(0) translate(4 1265)">
<title>CameLIGOExtract</title>
<polygon fill="white" stroke="transparent" points="-4,4 -4,-1265 2526,-1265 2526,4 -4,4"/>
<g id="clust1" class="cluster">
<title>cluster_CameLIGOExtract</title>
<polygon fill="#ffffc3" stroke="black" points="8,-20.89 8,-1240.11 2514,-1240.11 2514,-20.89 8,-20.89"/>
<text text-anchor="middle" x="81.5" y="-1224.91" font-family="Times,serif" font-size="14.00">CameLIGOExtract</text>
</g>
<!-- CameLIGOExtract_CameLIGO_prepare_extraction_single -->
<g id="node1" class="node">
<title>CameLIGOExtract_CameLIGO_prepare_extraction_single</title>
<g id="a_node1"><a xlink:href="CameLIGOExtract.html#CameLIGO_prepare_extraction_single" xlink:title="CameLIGO_prepare_extraction_single">
<ellipse fill="#7fffd4" stroke="black" cx="1840" cy="-1090.89" rx="185.77" ry="18"/>
<ellipse fill="none" stroke="black" cx="1840" cy="-1090.89" rx="189.77" ry="22"/>
<ellipse fill="none" stroke="black" cx="1840" cy="-1090.89" rx="193.77" ry="26"/>
<text text-anchor="middle" x="1840" y="-1087.19" font-family="Times,serif" font-size="14.00">CameLIGO_prepare_extraction_single</text>
</a>
</g>
</g>
<!-- CameLIGOExtract_quote_and_preprocess_one_def -->
<g id="node3" class="node">
<title>CameLIGOExtract_quote_and_preprocess_one_def</title>
<g id="a_node3"><a xlink:href="CameLIGOExtract.html#quote_and_preprocess_one_def" xlink:title="quote_and_preprocess_one_def">
<ellipse fill="#7fffd4" stroke="black" cx="2213" cy="-882.89" rx="154.07" ry="18"/>
<text text-anchor="middle" x="2213" y="-879.19" font-family="Times,serif" font-size="14.00">quote_and_preprocess_one_def</text>
</a>
</g>
</g>
<!-- CameLIGOExtract_CameLIGO_prepare_extraction_single&#45;&gt;CameLIGOExtract_quote_and_preprocess_one_def -->
<g id="edge1" class="edge">
<title>CameLIGOExtract_CameLIGO_prepare_extraction_single&#45;&gt;CameLIGOExtract_quote_and_preprocess_one_def</title>
<path fill="none" stroke="black" d="M1884.25,-1065.45C1957.76,-1024.85 2103.84,-944.17 2173.83,-905.52"/>
<polygon fill="black" stroke="black" points="2175.73,-908.47 2182.79,-900.57 2172.34,-902.34 2175.73,-908.47"/>
</g>
<!-- CameLIGOExtract_simple_def_print -->
<g id="node4" class="node">
<title>CameLIGOExtract_simple_def_print</title>
<g id="a_node4"><a xlink:href="CameLIGOExtract.html#simple_def_print" xlink:title="simple_def_print">
<ellipse fill="#f070d1" stroke="black" cx="1920" cy="-882.89" rx="87.99" ry="18"/>
<text text-anchor="middle" x="1920" y="-879.19" font-family="Times,serif" font-size="14.00">simple_def_print</text>
</a>
</g>
</g>
<!-- CameLIGOExtract_CameLIGO_prepare_extraction_single&#45;&gt;CameLIGOExtract_simple_def_print -->
<g id="edge2" class="edge">
<title>CameLIGOExtract_CameLIGO_prepare_extraction_single&#45;&gt;CameLIGOExtract_simple_def_print</title>
<path fill="none" stroke="black" d="M1849.81,-1064.63C1865.04,-1025.41 1894.24,-950.23 1909.74,-910.31"/>
<polygon fill="black" stroke="black" points="1913.01,-911.55 1913.37,-900.96 1906.49,-909.02 1913.01,-911.55"/>
</g>
<!-- CameLIGOExtract_unwrap_string_sum -->
<g id="node9" class="node">
<title>CameLIGOExtract_unwrap_string_sum</title>
<g id="a_node9"><a xlink:href="CameLIGOExtract.html#unwrap_string_sum" xlink:title="unwrap_string_sum">
<ellipse fill="#f070d1" stroke="black" cx="1712" cy="-882.89" rx="102.08" ry="18"/>
<text text-anchor="middle" x="1712" y="-879.19" font-family="Times,serif" font-size="14.00">unwrap_string_sum</text>
</a>
</g>
</g>
<!-- CameLIGOExtract_CameLIGO_prepare_extraction_single&#45;&gt;CameLIGOExtract_unwrap_string_sum -->
<g id="edge3" class="edge">
<title>CameLIGOExtract_CameLIGO_prepare_extraction_single&#45;&gt;CameLIGOExtract_unwrap_string_sum</title>
<path fill="none" stroke="black" d="M1824.3,-1064.63C1799.78,-1025.16 1752.63,-949.27 1727.95,-909.55"/>
<polygon fill="black" stroke="black" points="1730.86,-907.61 1722.61,-900.96 1724.92,-911.3 1730.86,-907.61"/>
</g>
<!-- CameLIGOExtract_CameLIGO_extract_single -->
<g id="node2" class="node">
<title>CameLIGOExtract_CameLIGO_extract_single</title>
<g id="a_node2"><a xlink:href="CameLIGOExtract.html#CameLIGO_extract_single" xlink:title="CameLIGO_extract_single">
<ellipse fill="#7fffd4" stroke="black" cx="2191" cy="-1090.89" rx="130.77" ry="18"/>
<ellipse fill="none" stroke="black" cx="2191" cy="-1090.89" rx="134.77" ry="22"/>
<ellipse fill="none" stroke="black" cx="2191" cy="-1090.89" rx="138.78" ry="26"/>
<text text-anchor="middle" x="2191" y="-1087.19" font-family="Times,serif" font-size="14.00">CameLIGO_extract_single</text>
</a>
</g>
</g>
<!-- CameLIGOExtract_CameLIGO_extract_single&#45;&gt;CameLIGOExtract_quote_and_preprocess_one_def -->
<g id="edge4" class="edge">
<title>CameLIGOExtract_CameLIGO_extract_single&#45;&gt;CameLIGOExtract_quote_and_preprocess_one_def</title>
<path fill="none" stroke="black" d="M2193.7,-1064.63C2197.86,-1025.65 2205.81,-951.18 2210.1,-911.07"/>
<polygon fill="black" stroke="black" points="2213.59,-911.28 2211.18,-900.96 2206.63,-910.53 2213.59,-911.28"/>
</g>
<!-- CameLIGOExtract_CameLIGO_extract_single&#45;&gt;CameLIGOExtract_simple_def_print -->
<g id="edge5" class="edge">
<title>CameLIGOExtract_CameLIGO_extract_single&#45;&gt;CameLIGOExtract_simple_def_print</title>
<path fill="none" stroke="black" d="M2158.85,-1065.45C2105.99,-1025.27 2001.47,-945.81 1950.03,-906.71"/>
<polygon fill="black" stroke="black" points="1952.03,-903.84 1941.95,-900.57 1947.79,-909.41 1952.03,-903.84"/>
</g>
<!-- CameLIGOExtract_CameLIGO_extract_single&#45;&gt;CameLIGOExtract_unwrap_string_sum -->
<g id="edge6" class="edge">
<title>CameLIGOExtract_CameLIGO_extract_single&#45;&gt;CameLIGOExtract_unwrap_string_sum</title>
<path fill="none" stroke="black" d="M2137.45,-1066.85C2042.76,-1026.13 1847.37,-942.11 1758.2,-903.76"/>
<polygon fill="black" stroke="black" points="1759.45,-900.48 1748.89,-899.75 1756.69,-906.92 1759.45,-900.48"/>
</g>
<!-- CameLIGOExtract_WITH_UNIVERSES -->
<g id="node8" class="node">
<title>CameLIGOExtract_WITH_UNIVERSES</title>
<g id="a_node8"><a xlink:href="CameLIGOExtract.html#WITH_UNIVERSES" xlink:title="WITH_UNIVERSES">
<ellipse fill="#f070d1" stroke="black" cx="2406" cy="-673.89" rx="100.18" ry="18"/>
<text text-anchor="middle" x="2406" y="-670.19" font-family="Times,serif" font-size="14.00">WITH_UNIVERSES</text>
</a>
</g>
</g>
<!-- CameLIGOExtract_quote_and_preprocess_one_def&#45;&gt;CameLIGOExtract_WITH_UNIVERSES -->
<g id="edge7" class="edge">
<title>CameLIGOExtract_quote_and_preprocess_one_def&#45;&gt;CameLIGOExtract_WITH_UNIVERSES</title>
<path fill="none" stroke="black" d="M2228.79,-864.95C2262.95,-828.31 2343.78,-741.61 2383.37,-699.16"/>
<polygon fill="black" stroke="black" points="2386,-701.47 2390.26,-691.77 2380.88,-696.7 2386,-701.47"/>
</g>
<!-- CameLIGOExtract_is_empty -->
<g id="node11" class="node">
<title>CameLIGOExtract_is_empty</title>
<g id="a_node11"><a xlink:href="CameLIGOExtract.html#is_empty" xlink:title="is_empty">
<ellipse fill="#f070d1" stroke="black" cx="2236" cy="-673.89" rx="51.99" ry="18"/>
<text text-anchor="middle" x="2236" y="-670.19" font-family="Times,serif" font-size="14.00">is_empty</text>
</a>
</g>
</g>
<!-- CameLIGOExtract_quote_and_preprocess_one_def&#45;&gt;CameLIGOExtract_is_empty -->
<g id="edge8" class="edge">
<title>CameLIGOExtract_quote_and_preprocess_one_def&#45;&gt;CameLIGOExtract_is_empty</title>
<path fill="none" stroke="black" d="M2214.92,-864.59C2218.92,-828.58 2228.17,-745.31 2232.98,-702.06"/>
<polygon fill="black" stroke="black" points="2236.47,-702.31 2234.1,-691.98 2229.52,-701.54 2236.47,-702.31"/>
</g>
<!-- CameLIGOExtract_TT_remap_default -->
<g id="node14" class="node">
<title>CameLIGOExtract_TT_remap_default</title>
<g id="a_node14"><a xlink:href="CameLIGOExtract.html#TT_remap_default" xlink:title="TT_remap_default">
<ellipse fill="#f070d1" stroke="black" cx="1132" cy="-673.89" rx="94.48" ry="18"/>
<text text-anchor="middle" x="1132" y="-670.19" font-family="Times,serif" font-size="14.00">TT_remap_default</text>
</a>
</g>
</g>
<!-- CameLIGOExtract_simple_def_print&#45;&gt;CameLIGOExtract_TT_remap_default -->
<g id="edge9" class="edge">
<title>CameLIGOExtract_simple_def_print&#45;&gt;CameLIGOExtract_TT_remap_default</title>
<path fill="none" stroke="black" d="M1868.3,-868.3C1729.06,-831.73 1346.52,-731.24 1195,-691.44"/>
<polygon fill="black" stroke="black" points="1195.49,-687.95 1184.93,-688.79 1193.71,-694.72 1195.49,-687.95"/>
</g>
<!-- CameLIGOExtract_CameLIGO_ignore_default -->
<g id="node15" class="node">
<title>CameLIGOExtract_CameLIGO_ignore_default</title>
<g id="a_node15"><a xlink:href="CameLIGOExtract.html#CameLIGO_ignore_default" xlink:title="CameLIGO_ignore_default">
<ellipse fill="#f070d1" stroke="black" cx="1640" cy="-673.89" rx="131.88" ry="18"/>
<text text-anchor="middle" x="1640" y="-670.19" font-family="Times,serif" font-size="14.00">CameLIGO_ignore_default</text>
</a>
</g>
</g>
<!-- CameLIGOExtract_simple_def_print&#45;&gt;CameLIGOExtract_CameLIGO_ignore_default -->
<g id="edge10" class="edge">
<title>CameLIGOExtract_simple_def_print&#45;&gt;CameLIGOExtract_CameLIGO_ignore_default</title>
<path fill="none" stroke="black" d="M1897.56,-865.3C1847.82,-828.52 1728.19,-740.08 1671.2,-697.95"/>
<polygon fill="black" stroke="black" points="1673.06,-694.97 1662.94,-691.84 1668.9,-700.6 1673.06,-694.97"/>
</g>
<!-- CameLIGOExtract_annot_extract_template_env_specalize -->
<g id="node16" class="node">
<title>CameLIGOExtract_annot_extract_template_env_specalize</title>
<g id="a_node16"><a xlink:href="CameLIGOExtract.html#annot_extract_template_env_specalize" xlink:title="annot_extract_template_env_specalize">
<ellipse fill="#f070d1" stroke="black" cx="1978" cy="-673.89" rx="188.47" ry="18"/>
<text text-anchor="middle" x="1978" y="-670.19" font-family="Times,serif" font-size="14.00">annot_extract_template_env_specalize</text>
</a>
</g>
</g>
<!-- CameLIGOExtract_simple_def_print&#45;&gt;CameLIGOExtract_annot_extract_template_env_specalize -->
<g id="edge11" class="edge">
<title>CameLIGOExtract_simple_def_print&#45;&gt;CameLIGOExtract_annot_extract_template_env_specalize</title>
<path fill="none" stroke="black" d="M1924.85,-864.59C1934.96,-828.51 1958.37,-744.96 1970.46,-701.79"/>
<polygon fill="black" stroke="black" points="1973.88,-702.56 1973.21,-691.98 1967.14,-700.67 1973.88,-702.56"/>
</g>
<!-- CameLIGOExtract_CameLIGO_extract -->
<g id="node5" class="node">
<title>CameLIGOExtract_CameLIGO_extract</title>
<g id="a_node5"><a xlink:href="CameLIGOExtract.html#CameLIGO_extract" xlink:title="CameLIGO_extract">
<ellipse fill="#7fffd4" stroke="black" cx="1133" cy="-1090.89" rx="98.6" ry="18"/>
<ellipse fill="none" stroke="black" cx="1133" cy="-1090.89" rx="102.59" ry="22"/>
<ellipse fill="none" stroke="black" cx="1133" cy="-1090.89" rx="106.58" ry="26"/>
<text text-anchor="middle" x="1133" y="-1087.19" font-family="Times,serif" font-size="14.00">CameLIGO_extract</text>
</a>
</g>
</g>
<!-- CameLIGOExtract_quote_and_preprocess -->
<g id="node7" class="node">
<title>CameLIGOExtract_quote_and_preprocess</title>
<g id="a_node7"><a xlink:href="CameLIGOExtract.html#quote_and_preprocess" xlink:title="quote_and_preprocess">
<ellipse fill="#7fffd4" stroke="black" cx="1423" cy="-882.89" rx="114.28" ry="18"/>
<text text-anchor="middle" x="1423" y="-879.19" font-family="Times,serif" font-size="14.00">quote_and_preprocess</text>
</a>
</g>
</g>
<!-- CameLIGOExtract_CameLIGO_extract&#45;&gt;CameLIGOExtract_quote_and_preprocess -->
<g id="edge12" class="edge">
<title>CameLIGOExtract_CameLIGO_extract&#45;&gt;CameLIGOExtract_quote_and_preprocess</title>
<path fill="none" stroke="black" d="M1166.55,-1066.05C1222.88,-1026.04 1335.7,-945.9 1390.99,-906.63"/>
<polygon fill="black" stroke="black" points="1393.22,-909.33 1399.35,-900.69 1389.17,-903.63 1393.22,-909.33"/>
</g>
<!-- CameLIGOExtract_printCameLIGODefs -->
<g id="node10" class="node">
<title>CameLIGOExtract_printCameLIGODefs</title>
<g id="a_node10"><a xlink:href="CameLIGOExtract.html#printCameLIGODefs" xlink:title="printCameLIGODefs">
<ellipse fill="#f070d1" stroke="black" cx="1132" cy="-882.89" rx="104.78" ry="18"/>
<text text-anchor="middle" x="1132" y="-879.19" font-family="Times,serif" font-size="14.00">printCameLIGODefs</text>
</a>
</g>
</g>
<!-- CameLIGOExtract_CameLIGO_extract&#45;&gt;CameLIGOExtract_printCameLIGODefs -->
<g id="edge13" class="edge">
<title>CameLIGOExtract_CameLIGO_extract&#45;&gt;CameLIGOExtract_printCameLIGODefs</title>
<path fill="none" stroke="black" d="M1132.88,-1064.63C1132.69,-1025.65 1132.33,-951.18 1132.13,-911.07"/>
<polygon fill="black" stroke="black" points="1135.63,-910.95 1132.08,-900.96 1128.63,-910.98 1135.63,-910.95"/>
</g>
<!-- CameLIGOExtract_CameLIGO_prepare_extraction -->
<g id="node6" class="node">
<title>CameLIGOExtract_CameLIGO_prepare_extraction</title>
<g id="a_node6"><a xlink:href="CameLIGOExtract.html#CameLIGO_prepare_extraction" xlink:title="CameLIGO_prepare_extraction">
<ellipse fill="#7fffd4" stroke="black" cx="1422" cy="-1090.89" rx="153.28" ry="18"/>
<ellipse fill="none" stroke="black" cx="1422" cy="-1090.89" rx="157.28" ry="22"/>
<ellipse fill="none" stroke="black" cx="1422" cy="-1090.89" rx="161.27" ry="26"/>
<text text-anchor="middle" x="1422" y="-1087.19" font-family="Times,serif" font-size="14.00">CameLIGO_prepare_extraction</text>
</a>
</g>
</g>
<!-- CameLIGOExtract_CameLIGO_prepare_extraction&#45;&gt;CameLIGOExtract_quote_and_preprocess -->
<g id="edge14" class="edge">
<title>CameLIGOExtract_CameLIGO_prepare_extraction&#45;&gt;CameLIGOExtract_quote_and_preprocess</title>
<path fill="none" stroke="black" d="M1422.12,-1064.63C1422.31,-1025.65 1422.67,-951.18 1422.87,-911.07"/>
<polygon fill="black" stroke="black" points="1426.37,-910.98 1422.92,-900.96 1419.37,-910.95 1426.37,-910.98"/>
</g>
<!-- CameLIGOExtract_CameLIGO_prepare_extraction&#45;&gt;CameLIGOExtract_unwrap_string_sum -->
<g id="edge15" class="edge">
<title>CameLIGOExtract_CameLIGO_prepare_extraction&#45;&gt;CameLIGOExtract_unwrap_string_sum</title>
<path fill="none" stroke="black" d="M1456.41,-1065.45C1513.09,-1025.18 1625.28,-945.49 1680.2,-906.47"/>
<polygon fill="black" stroke="black" points="1682.38,-909.22 1688.51,-900.57 1678.33,-903.51 1682.38,-909.22"/>
</g>
<!-- CameLIGOExtract_CameLIGO_prepare_extraction&#45;&gt;CameLIGOExtract_printCameLIGODefs -->
<g id="edge16" class="edge">
<title>CameLIGOExtract_CameLIGO_prepare_extraction&#45;&gt;CameLIGOExtract_printCameLIGODefs</title>
<path fill="none" stroke="black" d="M1387.59,-1065.45C1330.91,-1025.18 1218.72,-945.49 1163.8,-906.47"/>
<polygon fill="black" stroke="black" points="1165.67,-903.51 1155.49,-900.57 1161.62,-909.22 1165.67,-903.51"/>
</g>
<!-- CameLIGOExtract_lmd_module_name -->
<g id="node27" class="node">
<title>CameLIGOExtract_lmd_module_name</title>
<g id="a_node27"><a xlink:href="CameLIGOExtract.html#lmd_module_name" xlink:title="lmd_module_name">
<ellipse fill="#f070d1" stroke="black" cx="513" cy="-882.89" rx="96.68" ry="18"/>
<text text-anchor="middle" x="513" y="-879.19" font-family="Times,serif" font-size="14.00">lmd_module_name</text>
</a>
</g>
</g>
<!-- CameLIGOExtract_CameLIGO_prepare_extraction&#45;&gt;CameLIGOExtract_lmd_module_name -->
<g id="edge17" class="edge">
<title>CameLIGOExtract_CameLIGO_prepare_extraction&#45;&gt;CameLIGOExtract_lmd_module_name</title>
<path fill="none" stroke="black" d="M1331.1,-1069.29C1149.1,-1028.04 743.55,-936.13 581.67,-899.45"/>
<polygon fill="black" stroke="black" points="582.35,-896.01 571.82,-897.22 580.8,-902.84 582.35,-896.01"/>
</g>
<!-- CameLIGOExtract_quote_and_preprocess&#45;&gt;CameLIGOExtract_WITH_UNIVERSES -->
<g id="edge18" class="edge">
<title>CameLIGOExtract_quote_and_preprocess&#45;&gt;CameLIGOExtract_WITH_UNIVERSES</title>
<path fill="none" stroke="black" d="M1490.54,-868.3C1637.42,-838.66 1996.83,-765.56 2297,-699.89 2310.07,-697.03 2324.01,-693.89 2337.39,-690.84"/>
<polygon fill="black" stroke="black" points="2338.53,-694.17 2347.5,-688.53 2336.97,-687.35 2338.53,-694.17"/>
</g>
<!-- CameLIGOExtract_quote_and_preprocess&#45;&gt;CameLIGOExtract_is_empty -->
<g id="edge19" class="edge">
<title>CameLIGOExtract_quote_and_preprocess&#45;&gt;CameLIGOExtract_is_empty</title>
<path fill="none" stroke="black" d="M1493.18,-868.6C1627.37,-842.4 1928.84,-779.61 2175,-699.89 2181.73,-697.71 2188.77,-695.12 2195.57,-692.45"/>
<polygon fill="black" stroke="black" points="2197.34,-695.51 2205.31,-688.53 2194.72,-689.02 2197.34,-695.51"/>
</g>
<!-- CameLIGOExtract_lmd_receive -->
<g id="node22" class="node">
<title>CameLIGOExtract_lmd_receive</title>
<g id="a_node22"><a xlink:href="CameLIGOExtract.html#lmd_receive" xlink:title="lmd_receive">
<ellipse fill="#f070d1" stroke="black" cx="1424" cy="-673.89" rx="66.09" ry="18"/>
<text text-anchor="middle" x="1424" y="-670.19" font-family="Times,serif" font-size="14.00">lmd_receive</text>
</a>
</g>
</g>
<!-- CameLIGOExtract_quote_and_preprocess&#45;&gt;CameLIGOExtract_lmd_receive -->
<g id="edge20" class="edge">
<title>CameLIGOExtract_quote_and_preprocess&#45;&gt;CameLIGOExtract_lmd_receive</title>
<path fill="none" stroke="black" d="M1423.08,-864.59C1423.26,-828.58 1423.66,-745.31 1423.87,-702.06"/>
<polygon fill="black" stroke="black" points="1427.37,-702 1423.92,-691.98 1420.37,-701.97 1427.37,-702"/>
</g>
<!-- CameLIGOExtract_lmd_init -->
<g id="node25" class="node">
<title>CameLIGOExtract_lmd_init</title>
<g id="a_node25"><a xlink:href="CameLIGOExtract.html#lmd_init" xlink:title="lmd_init">
<ellipse fill="#f070d1" stroke="black" cx="1292" cy="-673.89" rx="48.19" ry="18"/>
<text text-anchor="middle" x="1292" y="-670.19" font-family="Times,serif" font-size="14.00">lmd_init</text>
</a>
</g>
</g>
<!-- CameLIGOExtract_quote_and_preprocess&#45;&gt;CameLIGOExtract_lmd_init -->
<g id="edge21" class="edge">
<title>CameLIGOExtract_quote_and_preprocess&#45;&gt;CameLIGOExtract_lmd_init</title>
<path fill="none" stroke="black" d="M1412.28,-864.95C1389.28,-828.6 1335.1,-742.98 1308.01,-700.18"/>
<polygon fill="black" stroke="black" points="1310.81,-698.06 1302.5,-691.48 1304.89,-701.8 1310.81,-698.06"/>
</g>
<!-- CameLIGOExtract_wrap_in_delimiters -->
<g id="node12" class="node">
<title>CameLIGOExtract_wrap_in_delimiters</title>
<g id="a_node12"><a xlink:href="CameLIGOExtract.html#wrap_in_delimiters" xlink:title="wrap_in_delimiters">
<ellipse fill="#f070d1" stroke="black" cx="382" cy="-673.89" rx="98.58" ry="18"/>
<text text-anchor="middle" x="382" y="-670.19" font-family="Times,serif" font-size="14.00">wrap_in_delimiters</text>
</a>
</g>
</g>
<!-- CameLIGOExtract_printCameLIGODefs&#45;&gt;CameLIGOExtract_wrap_in_delimiters -->
<g id="edge22" class="edge">
<title>CameLIGOExtract_printCameLIGODefs&#45;&gt;CameLIGOExtract_wrap_in_delimiters</title>
<path fill="none" stroke="black" d="M1079.26,-867.33C944.62,-830.17 588.64,-731.92 444.21,-692.06"/>
<polygon fill="black" stroke="black" points="444.75,-688.57 434.18,-689.29 442.89,-695.32 444.75,-688.57"/>
</g>
<!-- CameLIGOExtract_printCameLIGODefs&#45;&gt;CameLIGOExtract_TT_remap_default -->
<g id="edge23" class="edge">
<title>CameLIGOExtract_printCameLIGODefs&#45;&gt;CameLIGOExtract_TT_remap_default</title>
<path fill="none" stroke="black" d="M1132,-864.59C1132,-828.58 1132,-745.31 1132,-702.06"/>
<polygon fill="black" stroke="black" points="1135.5,-701.98 1132,-691.98 1128.5,-701.98 1135.5,-701.98"/>
</g>
<!-- CameLIGOExtract_printCameLIGODefs&#45;&gt;CameLIGOExtract_CameLIGO_ignore_default -->
<g id="edge24" class="edge">
<title>CameLIGOExtract_printCameLIGODefs&#45;&gt;CameLIGOExtract_CameLIGO_ignore_default</title>
<path fill="none" stroke="black" d="M1171.02,-865.99C1262.4,-828.75 1490.14,-735.95 1590.81,-694.93"/>
<polygon fill="black" stroke="black" points="1592.21,-698.14 1600.15,-691.13 1589.57,-691.66 1592.21,-698.14"/>
</g>
<!-- CameLIGOExtract_printCameLIGODefs&#45;&gt;CameLIGOExtract_annot_extract_template_env_specalize -->
<g id="edge25" class="edge">
<title>CameLIGOExtract_printCameLIGODefs&#45;&gt;CameLIGOExtract_annot_extract_template_env_specalize</title>
<path fill="none" stroke="black" d="M1189.48,-867.82C1338.29,-831.41 1736.08,-734.08 1902.82,-693.28"/>
<polygon fill="black" stroke="black" points="1904.1,-696.57 1912.99,-690.79 1902.44,-689.77 1904.1,-696.57"/>
</g>
<!-- CameLIGOExtract_lmd_entry_point -->
<g id="node21" class="node">
<title>CameLIGOExtract_lmd_entry_point</title>
<g id="a_node21"><a xlink:href="CameLIGOExtract.html#lmd_entry_point" xlink:title="lmd_entry_point">
<ellipse fill="#f070d1" stroke="black" cx="739" cy="-673.89" rx="85.59" ry="18"/>
<text text-anchor="middle" x="739" y="-670.19" font-family="Times,serif" font-size="14.00">lmd_entry_point</text>
</a>
</g>
</g>
<!-- CameLIGOExtract_printCameLIGODefs&#45;&gt;CameLIGOExtract_lmd_entry_point -->
<g id="edge26" class="edge">
<title>CameLIGOExtract_printCameLIGODefs&#45;&gt;CameLIGOExtract_lmd_entry_point</title>
<path fill="none" stroke="black" d="M1101.16,-865.64C1030.39,-828.37 856.42,-736.73 778.21,-695.54"/>
<polygon fill="black" stroke="black" points="779.63,-692.33 769.16,-690.77 776.37,-698.53 779.63,-692.33"/>
</g>
<!-- CameLIGOExtract_lmd_init_prelude -->
<g id="node24" class="node">
<title>CameLIGOExtract_lmd_init_prelude</title>
<g id="a_node24"><a xlink:href="CameLIGOExtract.html#lmd_init_prelude" xlink:title="lmd_init_prelude">
<ellipse fill="#f070d1" stroke="black" cx="931" cy="-673.89" rx="88.28" ry="18"/>
<text text-anchor="middle" x="931" y="-670.19" font-family="Times,serif" font-size="14.00">lmd_init_prelude</text>
</a>
</g>
</g>
<!-- CameLIGOExtract_printCameLIGODefs&#45;&gt;CameLIGOExtract_lmd_init_prelude -->
<g id="edge27" class="edge">
<title>CameLIGOExtract_printCameLIGODefs&#45;&gt;CameLIGOExtract_lmd_init_prelude</title>
<path fill="none" stroke="black" d="M1115.55,-864.95C1079.98,-828.31 995.79,-741.61 954.57,-699.16"/>
<polygon fill="black" stroke="black" points="956.87,-696.51 947.39,-691.77 951.85,-701.38 956.87,-696.51"/>
</g>
<!-- CameLIGOExtract_lmd_prelude -->
<g id="node26" class="node">
<title>CameLIGOExtract_lmd_prelude</title>
<g id="a_node26"><a xlink:href="CameLIGOExtract.html#lmd_prelude" xlink:title="lmd_prelude">
<ellipse fill="#f070d1" stroke="black" cx="567" cy="-673.89" rx="68.49" ry="18"/>
<text text-anchor="middle" x="567" y="-670.19" font-family="Times,serif" font-size="14.00">lmd_prelude</text>
</a>
</g>
</g>
<!-- CameLIGOExtract_printCameLIGODefs&#45;&gt;CameLIGOExtract_lmd_prelude -->
<g id="edge28" class="edge">
<title>CameLIGOExtract_printCameLIGODefs&#45;&gt;CameLIGOExtract_lmd_prelude</title>
<path fill="none" stroke="black" d="M1089.53,-866.33C986.38,-828.53 723.14,-732.09 614.75,-692.38"/>
<polygon fill="black" stroke="black" points="615.65,-688.98 605.06,-688.83 613.24,-695.56 615.65,-688.98"/>
</g>
<!-- CameLIGOExtract_TT_rename_ctors_default -->
<g id="node13" class="node">
<title>CameLIGOExtract_TT_rename_ctors_default</title>
<g id="a_node13"><a xlink:href="CameLIGOExtract.html#TT_rename_ctors_default" xlink:title="TT_rename_ctors_default">
<ellipse fill="#f070d1" stroke="black" cx="827" cy="-1090.89" rx="127.28" ry="18"/>
<ellipse fill="none" stroke="black" cx="827" cy="-1090.89" rx="131.28" ry="22"/>
<ellipse fill="none" stroke="black" cx="827" cy="-1090.89" rx="135.28" ry="26"/>
<text text-anchor="middle" x="827" y="-1087.19" font-family="Times,serif" font-size="14.00">TT_rename_ctors_default</text>
</a>
</g>
</g>
<!-- CameLIGOExtract_annot_extract_env_cameligo -->
<g id="node18" class="node">
<title>CameLIGOExtract_annot_extract_env_cameligo</title>
<g id="a_node18"><a xlink:href="CameLIGOExtract.html#annot_extract_env_cameligo" xlink:title="annot_extract_env_cameligo">
<ellipse fill="#f070d1" stroke="black" cx="1978" cy="-464.89" rx="141.88" ry="18"/>
<text text-anchor="middle" x="1978" y="-461.19" font-family="Times,serif" font-size="14.00">annot_extract_env_cameligo</text>
</a>
</g>
</g>
<!-- CameLIGOExtract_annot_extract_template_env_specalize&#45;&gt;CameLIGOExtract_annot_extract_env_cameligo -->
<g id="edge29" class="edge">
<title>CameLIGOExtract_annot_extract_template_env_specalize&#45;&gt;CameLIGOExtract_annot_extract_env_cameligo</title>
<path fill="none" stroke="black" d="M1978,-655.59C1978,-619.58 1978,-536.31 1978,-493.06"/>
<polygon fill="black" stroke="black" points="1981.5,-492.98 1978,-482.98 1974.5,-492.98 1981.5,-492.98"/>
</g>
<!-- CameLIGOExtract_blah -->
<g id="node17" class="node">
<title>CameLIGOExtract_blah</title>
<g id="a_node17"><a xlink:href="CameLIGOExtract.html#blah" xlink:title="blah">
<ellipse fill="#f070d1" stroke="black" cx="542" cy="-1090.89" rx="30.58" ry="18"/>
<ellipse fill="none" stroke="black" cx="542" cy="-1090.89" rx="34.59" ry="22"/>
<ellipse fill="none" stroke="black" cx="542" cy="-1090.89" rx="38.59" ry="26"/>
<text text-anchor="middle" x="542" y="-1087.19" font-family="Times,serif" font-size="14.00">blah</text>
</a>
</g>
</g>
<!-- CameLIGOExtract_cameligo_args -->
<g id="node19" class="node">
<title>CameLIGOExtract_cameligo_args</title>
<g id="a_node19"><a xlink:href="CameLIGOExtract.html#cameligo_args" xlink:title="cameligo_args">
<ellipse fill="#f070d1" stroke="black" cx="1978" cy="-276.89" rx="77.19" ry="18"/>
<text text-anchor="middle" x="1978" y="-273.19" font-family="Times,serif" font-size="14.00">cameligo_args</text>
</a>
</g>
</g>
<!-- CameLIGOExtract_annot_extract_env_cameligo&#45;&gt;CameLIGOExtract_cameligo_args -->
<g id="edge30" class="edge">
<title>CameLIGOExtract_annot_extract_env_cameligo&#45;&gt;CameLIGOExtract_cameligo_args</title>
<path fill="none" stroke="black" d="M1978,-446.72C1978,-414.33 1978,-343.97 1978,-305.09"/>
<polygon fill="black" stroke="black" points="1981.5,-305.01 1978,-295.01 1974.5,-305.01 1981.5,-305.01"/>
</g>
<!-- CameLIGOExtract_overridden_masks -->
<g id="node20" class="node">
<title>CameLIGOExtract_overridden_masks</title>
<g id="a_node20"><a xlink:href="CameLIGOExtract.html#overridden_masks" xlink:title="overridden_masks">
<ellipse fill="#f070d1" stroke="black" cx="1978" cy="-88.89" rx="94.78" ry="18"/>
<text text-anchor="middle" x="1978" y="-85.19" font-family="Times,serif" font-size="14.00">overridden_masks</text>
</a>
</g>
</g>
<!-- CameLIGOExtract_cameligo_args&#45;&gt;CameLIGOExtract_overridden_masks -->
<g id="edge31" class="edge">
<title>CameLIGOExtract_cameligo_args&#45;&gt;CameLIGOExtract_overridden_masks</title>
<path fill="none" stroke="black" d="M1978,-258.72C1978,-226.33 1978,-155.97 1978,-117.09"/>
<polygon fill="black" stroke="black" points="1981.5,-117.01 1978,-107.01 1974.5,-117.01 1981.5,-117.01"/>
</g>
<!-- CameLIGOExtract_CameLIGOMod -->
<g id="node29" class="node">
<title>CameLIGOExtract_CameLIGOMod</title>
<g id="a_node29"><a xlink:href="CameLIGOExtract.html#CameLIGOMod" xlink:title="CameLIGOMod">
<ellipse fill="#e2cdfa" stroke="black" cx="739" cy="-464.89" rx="81.49" ry="18"/>
<text text-anchor="middle" x="739" y="-461.19" font-family="Times,serif" font-size="14.00">CameLIGOMod</text>
</a>
</g>
</g>
<!-- CameLIGOExtract_lmd_entry_point&#45;&gt;CameLIGOExtract_CameLIGOMod -->
<g id="edge32" class="edge">
<title>CameLIGOExtract_lmd_entry_point&#45;&gt;CameLIGOExtract_CameLIGOMod</title>
<path fill="none" stroke="black" d="M739,-655.59C739,-619.58 739,-536.31 739,-493.06"/>
<polygon fill="black" stroke="black" points="742.5,-492.98 739,-482.98 735.5,-492.98 742.5,-492.98"/>
</g>
<!-- CameLIGOExtract_lmd_receive&#45;&gt;CameLIGOExtract_CameLIGOMod -->
<g id="edge33" class="edge">
<title>CameLIGOExtract_lmd_receive&#45;&gt;CameLIGOExtract_CameLIGOMod</title>
<path fill="none" stroke="black" d="M1384.37,-659.42C1372.98,-655.61 1360.52,-651.52 1349,-647.89 1146.65,-583.99 904.69,-513.56 796.36,-482.34"/>
<polygon fill="black" stroke="black" points="797.19,-478.94 786.61,-479.53 795.25,-485.66 797.19,-478.94"/>
</g>
<!-- CameLIGOExtract_lmd_receive_prelude -->
<g id="node23" class="node">
<title>CameLIGOExtract_lmd_receive_prelude</title>
<g id="a_node23"><a xlink:href="CameLIGOExtract.html#lmd_receive_prelude" xlink:title="lmd_receive_prelude">
<ellipse fill="#f070d1" stroke="black" cx="151" cy="-673.89" rx="106.67" ry="18"/>
<ellipse fill="none" stroke="black" cx="151" cy="-673.89" rx="110.68" ry="22"/>
<ellipse fill="none" stroke="black" cx="151" cy="-673.89" rx="114.68" ry="26"/>
<text text-anchor="middle" x="151" y="-670.19" font-family="Times,serif" font-size="14.00">lmd_receive_prelude</text>
</a>
</g>
</g>
<!-- CameLIGOExtract_lmd_receive_prelude&#45;&gt;CameLIGOExtract_CameLIGOMod -->
<g id="edge34" class="edge">
<title>CameLIGOExtract_lmd_receive_prelude&#45;&gt;CameLIGOExtract_CameLIGOMod</title>
<path fill="none" stroke="black" d="M211.16,-651.71C327.11,-610.89 579.61,-522 687.95,-483.86"/>
<polygon fill="black" stroke="black" points="689.4,-487.06 697.67,-480.44 687.08,-480.46 689.4,-487.06"/>
</g>
<!-- CameLIGOExtract_lmd_init_prelude&#45;&gt;CameLIGOExtract_CameLIGOMod -->
<g id="edge35" class="edge">
<title>CameLIGOExtract_lmd_init_prelude&#45;&gt;CameLIGOExtract_CameLIGOMod</title>
<path fill="none" stroke="black" d="M915.29,-655.95C881.31,-619.31 800.89,-532.61 761.51,-490.16"/>
<polygon fill="black" stroke="black" points="764.03,-487.72 754.66,-482.77 758.89,-492.48 764.03,-487.72"/>
</g>
<!-- CameLIGOExtract_lmd_init&#45;&gt;CameLIGOExtract_CameLIGOMod -->
<g id="edge36" class="edge">
<title>CameLIGOExtract_lmd_init&#45;&gt;CameLIGOExtract_CameLIGOMod</title>
<path fill="none" stroke="black" d="M1262.56,-659.56C1253.75,-655.68 1244.02,-651.52 1235,-647.89 1074.49,-583.31 881.23,-515.09 790.63,-483.65"/>
<polygon fill="black" stroke="black" points="791.73,-480.33 781.14,-480.36 789.44,-486.94 791.73,-480.33"/>
</g>
<!-- CameLIGOExtract_lmd_prelude&#45;&gt;CameLIGOExtract_CameLIGOMod -->
<g id="edge37" class="edge">
<title>CameLIGOExtract_lmd_prelude&#45;&gt;CameLIGOExtract_CameLIGOMod</title>
<path fill="none" stroke="black" d="M581.08,-655.95C611.39,-619.47 682.96,-533.33 718.39,-490.69"/>
<polygon fill="black" stroke="black" points="721.27,-492.7 724.97,-482.77 715.89,-488.22 721.27,-492.7"/>
</g>
<!-- CameLIGOExtract_lmd_module_name&#45;&gt;CameLIGOExtract_CameLIGOMod -->
<g id="edge38" class="edge">
<title>CameLIGOExtract_lmd_module_name&#45;&gt;CameLIGOExtract_CameLIGOMod</title>
<path fill="none" stroke="black" d="M429.74,-873.58C263.09,-853.69 -86.22,-793.69 27,-647.89 104.31,-548.33 486.43,-494.03 656.79,-474.44"/>
<polygon fill="black" stroke="black" points="657.42,-477.89 666.96,-473.28 656.63,-470.93 657.42,-477.89"/>
</g>
<!-- CameLIGOExtract_Build_CameLIGOMod -->
<g id="node28" class="node">
<title>CameLIGOExtract_Build_CameLIGOMod</title>
<g id="a_node28"><a xlink:href="CameLIGOExtract.html#Build_CameLIGOMod" xlink:title="Build_CameLIGOMod">
<ellipse fill="#7faaff" stroke="black" cx="182" cy="-1090.89" rx="110.48" ry="18"/>
<ellipse fill="none" stroke="black" cx="182" cy="-1090.89" rx="114.48" ry="22"/>
<ellipse fill="none" stroke="black" cx="182" cy="-1090.89" rx="118.48" ry="26"/>
<text text-anchor="middle" x="182" y="-1087.19" font-family="Times,serif" font-size="14.00">Build_CameLIGOMod</text>
</a>
</g>
</g>
</g>
</svg>
