<?xml version="1.0" encoding="UTF-8" standalone="no"?>
<!DOCTYPE svg PUBLIC "-//W3C//DTD SVG 1.1//EN"
 "http://www.w3.org/Graphics/SVG/1.1/DTD/svg11.dtd">
<!-- Generated by graphviz version 2.43.0 (0)
 -->
<!-- Title: TranslationUtils Pages: 1 -->
<svg width="2545pt" height="1277pt"
 viewBox="0.00 0.00 2545.00 1276.50" xmlns="http://www.w3.org/2000/svg" xmlns:xlink="http://www.w3.org/1999/xlink">
<g id="graph0" class="graph" transform="scale(1 1) rotate(0) translate(4 1272.5)">
<title>TranslationUtils</title>
<polygon fill="white" stroke="transparent" points="-4,4 -4,-1272.5 2541,-1272.5 2541,4 -4,4"/>
<g id="clust1" class="cluster">
<title>cluster_TranslationUtils</title>
<polygon fill="#ffffc3" stroke="black" points="8,-25.76 8,-1242.74 2529,-1242.74 2529,-25.76 8,-25.76"/>
<text text-anchor="middle" x="74" y="-1227.54" font-family="Times,serif" font-size="14.00">TranslationUtils</text>
</g>
<g id="clust2" class="cluster">
<title>cluster_TranslationUtils_TCString</title>
<polygon fill="#ffffa3" stroke="black" points="914,-51.51 914,-1142.94 2307,-1142.94 2307,-51.51 914,-51.51"/>
<text text-anchor="middle" x="954.5" y="-1127.74" font-family="Times,serif" font-size="14.00">TCString</text>
</g>
<!-- TranslationUtils_TCString_concat -->
<g id="node1" class="node">
<title>TranslationUtils_TCString_concat</title>
<g id="a_node1"><a xlink:href="TranslationUtils.html#TCString.concat" xlink:title="concat">
<ellipse fill="#f070d1" stroke="black" cx="1482" cy="-675.76" rx="40.9" ry="18"/>
<ellipse fill="none" stroke="black" cx="1482" cy="-675.76" rx="44.9" ry="22"/>
<ellipse fill="none" stroke="black" cx="1482" cy="-675.76" rx="48.89" ry="26"/>
<text text-anchor="middle" x="1482" y="-672.06" font-family="Times,serif" font-size="14.00">concat</text>
</a>
</g>
</g>
<!-- TranslationUtils_TCString_append -->
<g id="node13" class="node">
<title>TranslationUtils_TCString_append</title>
<g id="a_node13"><a xlink:href="TranslationUtils.html#TCString.append" xlink:title="append">
<ellipse fill="#f070d1" stroke="black" cx="1651" cy="-392.76" rx="44.69" ry="18"/>
<text text-anchor="middle" x="1651" y="-389.06" font-family="Times,serif" font-size="14.00">append</text>
</a>
</g>
</g>
<!-- TranslationUtils_TCString_concat&#45;&gt;TranslationUtils_TCString_append -->
<g id="edge1" class="edge">
<title>TranslationUtils_TCString_concat&#45;&gt;TranslationUtils_TCString_append</title>
<path fill="none" stroke="black" d="M1496.41,-650.8C1528.03,-598.23 1603.24,-473.16 1635.68,-419.23"/>
<polygon fill="black" stroke="black" points="1638.71,-420.99 1640.86,-410.61 1632.71,-417.38 1638.71,-420.99"/>
</g>
<!-- TranslationUtils_TCString_EmptyString -->
<g id="node22" class="node">
<title>TranslationUtils_TCString_EmptyString</title>
<g id="a_node22"><a xlink:href="TranslationUtils.html#TCString.EmptyString" xlink:title="EmptyString">
<ellipse fill="#7faaff" stroke="black" cx="1204" cy="-134.76" rx="70.69" ry="18"/>
<text text-anchor="middle" x="1204" y="-131.06" font-family="Times,serif" font-size="14.00">EmptyString</text>
</a>
</g>
</g>
<!-- TranslationUtils_TCString_concat&#45;&gt;TranslationUtils_TCString_EmptyString -->
<g id="edge2" class="edge">
<title>TranslationUtils_TCString_concat&#45;&gt;TranslationUtils_TCString_EmptyString</title>
<path fill="none" stroke="black" d="M1434.26,-669.31C1322.97,-653.73 1047.14,-597.92 933,-418.76 920.58,-399.26 923.31,-387.74 933,-366.76 980.78,-263.24 1100.37,-188.98 1163.5,-155.55"/>
<polygon fill="black" stroke="black" points="1165.14,-158.64 1172.39,-150.92 1161.91,-152.44 1165.14,-158.64"/>
</g>
<!-- TranslationUtils_TCString_eqb_compare -->
<g id="node2" class="node">
<title>TranslationUtils_TCString_eqb_compare</title>
<g id="a_node2"><a xlink:href="TranslationUtils.html#TCString.eqb_compare" xlink:title="eqb_compare">
<ellipse fill="#7fffd4" stroke="black" cx="2215" cy="-675.76" rx="72.27" ry="18"/>
<ellipse fill="none" stroke="black" cx="2215" cy="-675.76" rx="76.28" ry="22"/>
<ellipse fill="none" stroke="black" cx="2215" cy="-675.76" rx="80.29" ry="26"/>
<text text-anchor="middle" x="2215" y="-672.06" font-family="Times,serif" font-size="14.00">eqb_compare</text>
</a>
</g>
</g>
<!-- TranslationUtils_TCString_compare -->
<g id="node3" class="node">
<title>TranslationUtils_TCString_compare</title>
<g id="a_node3"><a xlink:href="TranslationUtils.html#TCString.compare" xlink:title="compare">
<ellipse fill="#f070d1" stroke="black" cx="2174" cy="-392.76" rx="50.89" ry="18"/>
<text text-anchor="middle" x="2174" y="-389.06" font-family="Times,serif" font-size="14.00">compare</text>
</a>
</g>
</g>
<!-- TranslationUtils_TCString_eqb_compare&#45;&gt;TranslationUtils_TCString_compare -->
<g id="edge3" class="edge">
<title>TranslationUtils_TCString_eqb_compare&#45;&gt;TranslationUtils_TCString_compare</title>
<path fill="none" stroke="black" d="M2211.29,-649.32C2203.58,-596.51 2185.91,-475.35 2177.98,-421.01"/>
<polygon fill="black" stroke="black" points="2181.43,-420.46 2176.53,-411.07 2174.51,-421.47 2181.43,-420.46"/>
</g>
<!-- TranslationUtils_TCString_eqb -->
<g id="node4" class="node">
<title>TranslationUtils_TCString_eqb</title>
<g id="a_node4"><a xlink:href="TranslationUtils.html#TCString.eqb" xlink:title="eqb">
<ellipse fill="#f070d1" stroke="black" cx="2271" cy="-392.76" rx="27.9" ry="18"/>
<text text-anchor="middle" x="2271" y="-389.06" font-family="Times,serif" font-size="14.00">eqb</text>
</a>
</g>
</g>
<!-- TranslationUtils_TCString_eqb_compare&#45;&gt;TranslationUtils_TCString_eqb -->
<g id="edge4" class="edge">
<title>TranslationUtils_TCString_eqb_compare&#45;&gt;TranslationUtils_TCString_eqb</title>
<path fill="none" stroke="black" d="M2220.07,-649.32C2230.62,-596.38 2254.86,-474.77 2265.65,-420.62"/>
<polygon fill="black" stroke="black" points="2269.1,-421.22 2267.62,-410.73 2262.23,-419.85 2269.1,-421.22"/>
</g>
<!-- TranslationUtils_TCString_t -->
<g id="node23" class="node">
<title>TranslationUtils_TCString_t</title>
<g id="a_node23"><a xlink:href="TranslationUtils.html#TCString.t" xlink:title="t">
<ellipse fill="#e2cdfa" stroke="black" cx="1700" cy="-134.76" rx="27" ry="18"/>
<text text-anchor="middle" x="1700" y="-131.06" font-family="Times,serif" font-size="14.00">t</text>
</a>
</g>
</g>
<!-- TranslationUtils_TCString_compare&#45;&gt;TranslationUtils_TCString_t -->
<g id="edge5" class="edge">
<title>TranslationUtils_TCString_compare&#45;&gt;TranslationUtils_TCString_t</title>
<path fill="none" stroke="black" d="M2147.16,-377.26C2064.67,-332.71 1815.27,-198.01 1729.41,-151.64"/>
<polygon fill="black" stroke="black" points="1730.93,-148.48 1720.46,-146.81 1727.6,-154.64 1730.93,-148.48"/>
</g>
<!-- TranslationUtils_TCString_eqb&#45;&gt;TranslationUtils_TCString_t -->
<g id="edge6" class="edge">
<title>TranslationUtils_TCString_eqb&#45;&gt;TranslationUtils_TCString_t</title>
<path fill="none" stroke="black" d="M2252.98,-378.6C2247.08,-374.56 2240.39,-370.26 2234,-366.76 2052.05,-267.06 1818.31,-178.64 1733.01,-147.58"/>
<polygon fill="black" stroke="black" points="1733.96,-144.2 1723.36,-144.08 1731.57,-150.78 1733.96,-144.2"/>
</g>
<!-- TranslationUtils_TCString_contains -->
<g id="node5" class="node">
<title>TranslationUtils_TCString_contains</title>
<g id="a_node5"><a xlink:href="TranslationUtils.html#TCString.contains" xlink:title="contains">
<ellipse fill="#f070d1" stroke="black" cx="2024" cy="-959.76" rx="50.08" ry="18"/>
<ellipse fill="none" stroke="black" cx="2024" cy="-959.76" rx="54.09" ry="22"/>
<ellipse fill="none" stroke="black" cx="2024" cy="-959.76" rx="58.09" ry="26"/>
<text text-anchor="middle" x="2024" y="-956.06" font-family="Times,serif" font-size="14.00">contains</text>
</a>
</g>
</g>
<!-- TranslationUtils_TCString_length -->
<g id="node6" class="node">
<title>TranslationUtils_TCString_length</title>
<g id="a_node6"><a xlink:href="TranslationUtils.html#TCString.length" xlink:title="length">
<ellipse fill="#f070d1" stroke="black" cx="1977" cy="-675.76" rx="40.09" ry="18"/>
<text text-anchor="middle" x="1977" y="-672.06" font-family="Times,serif" font-size="14.00">length</text>
</a>
</g>
</g>
<!-- TranslationUtils_TCString_contains&#45;&gt;TranslationUtils_TCString_length -->
<g id="edge7" class="edge">
<title>TranslationUtils_TCString_contains&#45;&gt;TranslationUtils_TCString_length</title>
<path fill="none" stroke="black" d="M2019.83,-933.73C2011.03,-880.91 1990.61,-758.41 1981.51,-703.83"/>
<polygon fill="black" stroke="black" points="1984.95,-703.15 1979.85,-693.86 1978.04,-704.3 1984.95,-703.15"/>
</g>
<!-- TranslationUtils_TCString_index -->
<g id="node7" class="node">
<title>TranslationUtils_TCString_index</title>
<g id="a_node7"><a xlink:href="TranslationUtils.html#TCString.index" xlink:title="index">
<ellipse fill="#f070d1" stroke="black" cx="2072" cy="-675.76" rx="36.29" ry="18"/>
<text text-anchor="middle" x="2072" y="-672.06" font-family="Times,serif" font-size="14.00">index</text>
</a>
</g>
</g>
<!-- TranslationUtils_TCString_contains&#45;&gt;TranslationUtils_TCString_index -->
<g id="edge8" class="edge">
<title>TranslationUtils_TCString_contains&#45;&gt;TranslationUtils_TCString_index</title>
<path fill="none" stroke="black" d="M2028.26,-933.73C2037.25,-880.91 2058.1,-758.41 2067.39,-703.83"/>
<polygon fill="black" stroke="black" points="2070.86,-704.31 2069.09,-693.86 2063.96,-703.13 2070.86,-704.31"/>
</g>
<!-- TranslationUtils_TCString_length&#45;&gt;TranslationUtils_TCString_t -->
<g id="edge9" class="edge">
<title>TranslationUtils_TCString_length&#45;&gt;TranslationUtils_TCString_t</title>
<path fill="none" stroke="black" d="M1984.01,-657.94C2002.98,-609.64 2050.69,-467.53 2001,-366.76 1943.78,-250.71 1797.17,-176.75 1732.03,-148.61"/>
<polygon fill="black" stroke="black" points="1733.23,-145.32 1722.66,-144.64 1730.5,-151.77 1733.23,-145.32"/>
</g>
<!-- TranslationUtils_TCString_prefix -->
<g id="node8" class="node">
<title>TranslationUtils_TCString_prefix</title>
<g id="a_node8"><a xlink:href="TranslationUtils.html#TCString.prefix" xlink:title="prefix">
<ellipse fill="#f070d1" stroke="black" cx="2068" cy="-392.76" rx="37.89" ry="18"/>
<text text-anchor="middle" x="2068" y="-389.06" font-family="Times,serif" font-size="14.00">prefix</text>
</a>
</g>
</g>
<!-- TranslationUtils_TCString_index&#45;&gt;TranslationUtils_TCString_prefix -->
<g id="edge10" class="edge">
<title>TranslationUtils_TCString_index&#45;&gt;TranslationUtils_TCString_prefix</title>
<path fill="none" stroke="black" d="M2071.76,-657.6C2071.08,-610.47 2069.21,-478.71 2068.39,-421.2"/>
<polygon fill="black" stroke="black" points="2071.89,-420.99 2068.25,-411.04 2064.89,-421.09 2071.89,-420.99"/>
</g>
<!-- TranslationUtils_TCString_prefix&#45;&gt;TranslationUtils_TCString_t -->
<g id="edge11" class="edge">
<title>TranslationUtils_TCString_prefix&#45;&gt;TranslationUtils_TCString_t</title>
<path fill="none" stroke="black" d="M2047.43,-377.44C1984.72,-333.82 1796.03,-202.56 1726.28,-154.04"/>
<polygon fill="black" stroke="black" points="1728.21,-151.12 1718.01,-148.28 1724.22,-156.87 1728.21,-151.12"/>
</g>
<!-- TranslationUtils_TCString_substring -->
<g id="node9" class="node">
<title>TranslationUtils_TCString_substring</title>
<g id="a_node9"><a xlink:href="TranslationUtils.html#TCString.substring" xlink:title="substring">
<ellipse fill="#f070d1" stroke="black" cx="1525" cy="-392.76" rx="55.46" ry="18"/>
<ellipse fill="none" stroke="black" cx="1525" cy="-392.76" rx="59.48" ry="22"/>
<ellipse fill="none" stroke="black" cx="1525" cy="-392.76" rx="63.49" ry="26"/>
<text text-anchor="middle" x="1525" y="-389.06" font-family="Times,serif" font-size="14.00">substring</text>
</a>
</g>
</g>
<!-- TranslationUtils_TCString_String -->
<g id="node21" class="node">
<title>TranslationUtils_TCString_String</title>
<g id="a_node21"><a xlink:href="TranslationUtils.html#TCString.String" xlink:title="String">
<ellipse fill="#7faaff" stroke="black" cx="1365" cy="-134.76" rx="40.09" ry="18"/>
<text text-anchor="middle" x="1365" y="-131.06" font-family="Times,serif" font-size="14.00">String</text>
</a>
</g>
</g>
<!-- TranslationUtils_TCString_substring&#45;&gt;TranslationUtils_TCString_String -->
<g id="edge12" class="edge">
<title>TranslationUtils_TCString_substring&#45;&gt;TranslationUtils_TCString_String</title>
<path fill="none" stroke="black" d="M1509.66,-367.21C1479.24,-318.54 1411.56,-210.25 1380.78,-161.01"/>
<polygon fill="black" stroke="black" points="1383.58,-158.88 1375.31,-152.25 1377.64,-162.59 1383.58,-158.88"/>
</g>
<!-- TranslationUtils_TCString_substring&#45;&gt;TranslationUtils_TCString_EmptyString -->
<g id="edge13" class="edge">
<title>TranslationUtils_TCString_substring&#45;&gt;TranslationUtils_TCString_EmptyString</title>
<path fill="none" stroke="black" d="M1496.79,-369.26C1436.16,-320.9 1293.94,-207.48 1232.78,-158.71"/>
<polygon fill="black" stroke="black" points="1234.71,-155.77 1224.71,-152.27 1230.34,-161.24 1234.71,-155.77"/>
</g>
<!-- TranslationUtils_TCString_substring&#45;&gt;TranslationUtils_TCString_t -->
<g id="edge14" class="edge">
<title>TranslationUtils_TCString_substring&#45;&gt;TranslationUtils_TCString_t</title>
<path fill="none" stroke="black" d="M1541.78,-367.21C1575.36,-318.08 1650.46,-208.22 1683.67,-159.64"/>
<polygon fill="black" stroke="black" points="1686.61,-161.55 1689.36,-151.31 1680.83,-157.59 1686.61,-161.55"/>
</g>
<!-- TranslationUtils_TCString_rev -->
<g id="node10" class="node">
<title>TranslationUtils_TCString_rev</title>
<g id="a_node10"><a xlink:href="TranslationUtils.html#TCString.rev" xlink:title="rev">
<ellipse fill="#f070d1" stroke="black" cx="1749" cy="-392.76" rx="27" ry="18"/>
<ellipse fill="none" stroke="black" cx="1749" cy="-392.76" rx="31" ry="22"/>
<ellipse fill="none" stroke="black" cx="1749" cy="-392.76" rx="35" ry="26"/>
<text text-anchor="middle" x="1749" y="-389.06" font-family="Times,serif" font-size="14.00">rev</text>
</a>
</g>
</g>
<!-- TranslationUtils_TCString_rev&#45;&gt;TranslationUtils_TCString_String -->
<g id="edge15" class="edge">
<title>TranslationUtils_TCString_rev&#45;&gt;TranslationUtils_TCString_String</title>
<path fill="none" stroke="black" d="M1723.51,-374.76C1655.26,-329.26 1468.6,-204.82 1395.21,-155.9"/>
<polygon fill="black" stroke="black" points="1397.1,-152.95 1386.84,-150.31 1393.22,-158.77 1397.1,-152.95"/>
</g>
<!-- TranslationUtils_TCString_rev&#45;&gt;TranslationUtils_TCString_t -->
<g id="edge16" class="edge">
<title>TranslationUtils_TCString_rev&#45;&gt;TranslationUtils_TCString_t</title>
<path fill="none" stroke="black" d="M1744.21,-366.74C1734.97,-318.45 1714.74,-212.75 1705.19,-162.85"/>
<polygon fill="black" stroke="black" points="1708.58,-161.98 1703.27,-152.82 1701.71,-163.3 1708.58,-161.98"/>
</g>
<!-- TranslationUtils_TCString_of_string -->
<g id="node11" class="node">
<title>TranslationUtils_TCString_of_string</title>
<g id="a_node11"><a xlink:href="TranslationUtils.html#TCString.of_string" xlink:title="of_string">
<ellipse fill="#f070d1" stroke="black" cx="1096" cy="-392.76" rx="51.99" ry="18"/>
<text text-anchor="middle" x="1096" y="-389.06" font-family="Times,serif" font-size="14.00">of_string</text>
</a>
</g>
</g>
<!-- TranslationUtils_TCString_of_string&#45;&gt;TranslationUtils_TCString_String -->
<g id="edge17" class="edge">
<title>TranslationUtils_TCString_of_string&#45;&gt;TranslationUtils_TCString_String</title>
<path fill="none" stroke="black" d="M1113.24,-375.35C1159.77,-331.07 1288,-209.03 1341.29,-158.32"/>
<polygon fill="black" stroke="black" points="1343.76,-160.8 1348.59,-151.37 1338.94,-155.73 1343.76,-160.8"/>
</g>
<!-- TranslationUtils_TCString_of_string&#45;&gt;TranslationUtils_TCString_EmptyString -->
<g id="edge18" class="edge">
<title>TranslationUtils_TCString_of_string&#45;&gt;TranslationUtils_TCString_EmptyString</title>
<path fill="none" stroke="black" d="M1103.25,-374.56C1121.74,-330.75 1170.7,-214.68 1192.85,-162.2"/>
<polygon fill="black" stroke="black" points="1196.12,-163.45 1196.78,-152.88 1189.67,-160.73 1196.12,-163.45"/>
</g>
<!-- TranslationUtils_TCString_of_string&#45;&gt;TranslationUtils_TCString_t -->
<g id="edge19" class="edge">
<title>TranslationUtils_TCString_of_string&#45;&gt;TranslationUtils_TCString_t</title>
<path fill="none" stroke="black" d="M1127.62,-378.35C1231.91,-334.15 1564.22,-193.31 1668.43,-149.14"/>
<polygon fill="black" stroke="black" points="1669.94,-152.3 1677.79,-145.17 1667.21,-145.85 1669.94,-152.3"/>
</g>
<!-- TranslationUtils_TCString_to_string -->
<g id="node12" class="node">
<title>TranslationUtils_TCString_to_string</title>
<g id="a_node12"><a xlink:href="TranslationUtils.html#TCString.to_string" xlink:title="to_string">
<ellipse fill="#f070d1" stroke="black" cx="1854" cy="-392.76" rx="51.99" ry="18"/>
<text text-anchor="middle" x="1854" y="-389.06" font-family="Times,serif" font-size="14.00">to_string</text>
</a>
</g>
</g>
<!-- TranslationUtils_TCString_to_string&#45;&gt;TranslationUtils_TCString_t -->
<g id="edge20" class="edge">
<title>TranslationUtils_TCString_to_string&#45;&gt;TranslationUtils_TCString_t</title>
<path fill="none" stroke="black" d="M1843.9,-374.96C1817.44,-330.98 1746.03,-212.27 1714.88,-160.48"/>
<polygon fill="black" stroke="black" points="1717.7,-158.39 1709.55,-151.63 1711.7,-162 1717.7,-158.39"/>
</g>
<!-- TranslationUtils_TCString_append&#45;&gt;TranslationUtils_TCString_String -->
<g id="edge21" class="edge">
<title>TranslationUtils_TCString_append&#45;&gt;TranslationUtils_TCString_String</title>
<path fill="none" stroke="black" d="M1633.54,-376.13C1584.76,-332.46 1446.89,-209.06 1390.02,-158.15"/>
<polygon fill="black" stroke="black" points="1392.02,-155.24 1382.23,-151.18 1387.35,-160.46 1392.02,-155.24"/>
</g>
<!-- TranslationUtils_TCString_append&#45;&gt;TranslationUtils_TCString_t -->
<g id="edge22" class="edge">
<title>TranslationUtils_TCString_append&#45;&gt;TranslationUtils_TCString_t</title>
<path fill="none" stroke="black" d="M1654.29,-374.56C1662.64,-330.93 1684.71,-215.65 1694.81,-162.85"/>
<polygon fill="black" stroke="black" points="1698.28,-163.36 1696.72,-152.88 1691.41,-162.04 1698.28,-163.36"/>
</g>
<!-- TranslationUtils_TCString_print_parse_inv -->
<g id="node14" class="node">
<title>TranslationUtils_TCString_print_parse_inv</title>
<g id="a_node14"><a xlink:href="TranslationUtils.html#TCString.print_parse_inv" xlink:title="print_parse_inv">
<ellipse fill="#7fffd4" stroke="black" cx="1820" cy="-675.76" rx="82.58" ry="18"/>
<ellipse fill="none" stroke="black" cx="1820" cy="-675.76" rx="86.58" ry="22"/>
<ellipse fill="none" stroke="black" cx="1820" cy="-675.76" rx="90.59" ry="26"/>
<text text-anchor="middle" x="1820" y="-672.06" font-family="Times,serif" font-size="14.00">print_parse_inv</text>
</a>
</g>
</g>
<!-- TranslationUtils_TCString_parse -->
<g id="node15" class="node">
<title>TranslationUtils_TCString_parse</title>
<g id="a_node15"><a xlink:href="TranslationUtils.html#TCString.parse" xlink:title="parse">
<ellipse fill="#f070d1" stroke="black" cx="1296" cy="-392.76" rx="36.29" ry="18"/>
<text text-anchor="middle" x="1296" y="-389.06" font-family="Times,serif" font-size="14.00">parse</text>
</a>
</g>
</g>
<!-- TranslationUtils_TCString_print_parse_inv&#45;&gt;TranslationUtils_TCString_parse -->
<g id="edge23" class="edge">
<title>TranslationUtils_TCString_print_parse_inv&#45;&gt;TranslationUtils_TCString_parse</title>
<path fill="none" stroke="black" d="M1778.39,-652.58C1695.35,-608.3 1503.14,-505.7 1342,-418.76 1337.73,-416.45 1333.23,-414.02 1328.79,-411.61"/>
<polygon fill="black" stroke="black" points="1330.32,-408.46 1319.86,-406.76 1326.98,-414.61 1330.32,-408.46"/>
</g>
<!-- TranslationUtils_TCString_print -->
<g id="node16" class="node">
<title>TranslationUtils_TCString_print</title>
<g id="a_node16"><a xlink:href="TranslationUtils.html#TCString.print" xlink:title="print">
<ellipse fill="#f070d1" stroke="black" cx="1958" cy="-392.76" rx="33.6" ry="18"/>
<text text-anchor="middle" x="1958" y="-389.06" font-family="Times,serif" font-size="14.00">print</text>
</a>
</g>
</g>
<!-- TranslationUtils_TCString_print_parse_inv&#45;&gt;TranslationUtils_TCString_print -->
<g id="edge24" class="edge">
<title>TranslationUtils_TCString_print_parse_inv&#45;&gt;TranslationUtils_TCString_print</title>
<path fill="none" stroke="black" d="M1832.25,-649.82C1858.27,-596.84 1918.83,-473.51 1945.27,-419.67"/>
<polygon fill="black" stroke="black" points="1948.53,-420.98 1949.8,-410.46 1942.25,-417.89 1948.53,-420.98"/>
</g>
<!-- TranslationUtils_TCString_parse&#45;&gt;TranslationUtils_TCString_String -->
<g id="edge25" class="edge">
<title>TranslationUtils_TCString_parse&#45;&gt;TranslationUtils_TCString_String</title>
<path fill="none" stroke="black" d="M1300.63,-374.56C1312.39,-330.93 1343.47,-215.65 1357.7,-162.85"/>
<polygon fill="black" stroke="black" points="1361.16,-163.44 1360.39,-152.88 1354.4,-161.62 1361.16,-163.44"/>
</g>
<!-- TranslationUtils_TCString_parse&#45;&gt;TranslationUtils_TCString_EmptyString -->
<g id="edge26" class="edge">
<title>TranslationUtils_TCString_parse&#45;&gt;TranslationUtils_TCString_EmptyString</title>
<path fill="none" stroke="black" d="M1289.96,-374.96C1274.37,-331.58 1232.66,-215.5 1213.66,-162.64"/>
<polygon fill="black" stroke="black" points="1216.86,-161.18 1210.18,-152.95 1210.27,-163.55 1216.86,-161.18"/>
</g>
<!-- TranslationUtils_TCString_parse&#45;&gt;TranslationUtils_TCString_t -->
<g id="edge27" class="edge">
<title>TranslationUtils_TCString_parse&#45;&gt;TranslationUtils_TCString_t</title>
<path fill="none" stroke="black" d="M1317.44,-378.17C1385.47,-335.06 1596.49,-201.34 1672.43,-153.23"/>
<polygon fill="black" stroke="black" points="1674.42,-156.11 1681,-147.8 1670.68,-150.19 1674.42,-156.11"/>
</g>
<!-- TranslationUtils_TCString_print&#45;&gt;TranslationUtils_TCString_t -->
<g id="edge28" class="edge">
<title>TranslationUtils_TCString_print&#45;&gt;TranslationUtils_TCString_t</title>
<path fill="none" stroke="black" d="M1942.63,-376.51C1898.78,-333 1772.92,-208.11 1721.89,-157.48"/>
<polygon fill="black" stroke="black" points="1724.21,-154.84 1714.64,-150.29 1719.28,-159.81 1724.21,-154.84"/>
</g>
<!-- TranslationUtils_TCString_t_sind -->
<g id="node17" class="node">
<title>TranslationUtils_TCString_t_sind</title>
<g id="a_node17"><a xlink:href="TranslationUtils.html#TCString.t_sind" xlink:title="t_sind">
<ellipse fill="#f070d1" stroke="black" cx="1397" cy="-392.76" rx="38.22" ry="18"/>
<ellipse fill="none" stroke="black" cx="1397" cy="-392.76" rx="42.21" ry="22"/>
<ellipse fill="none" stroke="black" cx="1397" cy="-392.76" rx="46.19" ry="26"/>
<text text-anchor="middle" x="1397" y="-389.06" font-family="Times,serif" font-size="14.00">t_sind</text>
</a>
</g>
</g>
<!-- TranslationUtils_TCString_t_sind&#45;&gt;TranslationUtils_TCString_String -->
<g id="edge29" class="edge">
<title>TranslationUtils_TCString_t_sind&#45;&gt;TranslationUtils_TCString_String</title>
<path fill="none" stroke="black" d="M1393.87,-366.74C1387.84,-318.45 1374.62,-212.75 1368.39,-162.85"/>
<polygon fill="black" stroke="black" points="1371.85,-162.31 1367.13,-152.82 1364.9,-163.17 1371.85,-162.31"/>
</g>
<!-- TranslationUtils_TCString_t_sind&#45;&gt;TranslationUtils_TCString_EmptyString -->
<g id="edge30" class="edge">
<title>TranslationUtils_TCString_t_sind&#45;&gt;TranslationUtils_TCString_EmptyString</title>
<path fill="none" stroke="black" d="M1379.53,-368.59C1343.29,-320.52 1260.21,-210.31 1222.83,-160.73"/>
<polygon fill="black" stroke="black" points="1225.42,-158.36 1216.61,-152.48 1219.83,-162.57 1225.42,-158.36"/>
</g>
<!-- TranslationUtils_TCString_t_sind&#45;&gt;TranslationUtils_TCString_t -->
<g id="edge31" class="edge">
<title>TranslationUtils_TCString_t_sind&#45;&gt;TranslationUtils_TCString_t</title>
<path fill="none" stroke="black" d="M1422.05,-370.59C1479.49,-322.06 1620.02,-203.33 1676.21,-155.85"/>
<polygon fill="black" stroke="black" points="1678.49,-158.51 1683.87,-149.38 1673.97,-153.16 1678.49,-158.51"/>
</g>
<!-- TranslationUtils_TCString_t_rec -->
<g id="node18" class="node">
<title>TranslationUtils_TCString_t_rec</title>
<g id="a_node18"><a xlink:href="TranslationUtils.html#TCString.t_rec" xlink:title="t_rec">
<ellipse fill="#f070d1" stroke="black" cx="1204" cy="-675.76" rx="33.63" ry="18"/>
<ellipse fill="none" stroke="black" cx="1204" cy="-675.76" rx="37.61" ry="22"/>
<ellipse fill="none" stroke="black" cx="1204" cy="-675.76" rx="41.59" ry="26"/>
<text text-anchor="middle" x="1204" y="-672.06" font-family="Times,serif" font-size="14.00">t_rec</text>
</a>
</g>
</g>
<!-- TranslationUtils_TCString_t_rect -->
<g id="node20" class="node">
<title>TranslationUtils_TCString_t_rect</title>
<g id="a_node20"><a xlink:href="TranslationUtils.html#TCString.t_rect" xlink:title="t_rect">
<ellipse fill="#f070d1" stroke="black" cx="1204" cy="-392.76" rx="37.89" ry="18"/>
<text text-anchor="middle" x="1204" y="-389.06" font-family="Times,serif" font-size="14.00">t_rect</text>
</a>
</g>
</g>
<!-- TranslationUtils_TCString_t_rec&#45;&gt;TranslationUtils_TCString_t_rect -->
<g id="edge32" class="edge">
<title>TranslationUtils_TCString_t_rec&#45;&gt;TranslationUtils_TCString_t_rect</title>
<path fill="none" stroke="black" d="M1204,-649.32C1204,-596.62 1204,-475.85 1204,-421.35"/>
<polygon fill="black" stroke="black" points="1207.5,-421.07 1204,-411.07 1200.5,-421.07 1207.5,-421.07"/>
</g>
<!-- TranslationUtils_TCString_t_ind -->
<g id="node19" class="node">
<title>TranslationUtils_TCString_t_ind</title>
<g id="a_node19"><a xlink:href="TranslationUtils.html#TCString.t_ind" xlink:title="t_ind">
<ellipse fill="#7fffd4" stroke="black" cx="984" cy="-392.76" rx="33.63" ry="18"/>
<ellipse fill="none" stroke="black" cx="984" cy="-392.76" rx="37.61" ry="22"/>
<ellipse fill="none" stroke="black" cx="984" cy="-392.76" rx="41.59" ry="26"/>
<text text-anchor="middle" x="984" y="-389.06" font-family="Times,serif" font-size="14.00">t_ind</text>
</a>
</g>
</g>
<!-- TranslationUtils_TCString_t_ind&#45;&gt;TranslationUtils_TCString_String -->
<g id="edge33" class="edge">
<title>TranslationUtils_TCString_t_ind&#45;&gt;TranslationUtils_TCString_String</title>
<path fill="none" stroke="black" d="M1011.71,-373.14C1081.34,-326.36 1263.19,-204.16 1335.11,-155.84"/>
<polygon fill="black" stroke="black" points="1337.36,-158.54 1343.71,-150.06 1333.46,-152.73 1337.36,-158.54"/>
</g>
<!-- TranslationUtils_TCString_t_ind&#45;&gt;TranslationUtils_TCString_EmptyString -->
<g id="edge34" class="edge">
<title>TranslationUtils_TCString_t_ind&#45;&gt;TranslationUtils_TCString_EmptyString</title>
<path fill="none" stroke="black" d="M1003.14,-369.49C1044.14,-321.78 1140.17,-210.03 1182.88,-160.33"/>
<polygon fill="black" stroke="black" points="1185.63,-162.5 1189.5,-152.63 1180.33,-157.94 1185.63,-162.5"/>
</g>
<!-- TranslationUtils_TCString_t_ind&#45;&gt;TranslationUtils_TCString_t -->
<g id="edge35" class="edge">
<title>TranslationUtils_TCString_t_ind&#45;&gt;TranslationUtils_TCString_t</title>
<path fill="none" stroke="black" d="M1015.56,-375.55C1021.93,-372.49 1028.63,-369.41 1035,-366.76 1271.69,-268.06 1567.12,-175.97 1666,-145.96"/>
<polygon fill="black" stroke="black" points="1667.19,-149.26 1675.75,-143.01 1665.16,-142.56 1667.19,-149.26"/>
</g>
<!-- TranslationUtils_TCString_t_rect&#45;&gt;TranslationUtils_TCString_String -->
<g id="edge36" class="edge">
<title>TranslationUtils_TCString_t_rect&#45;&gt;TranslationUtils_TCString_String</title>
<path fill="none" stroke="black" d="M1214.32,-375.35C1241.68,-331.84 1316.27,-213.23 1349.12,-161.01"/>
<polygon fill="black" stroke="black" points="1352.2,-162.68 1354.56,-152.35 1346.27,-158.96 1352.2,-162.68"/>
</g>
<!-- TranslationUtils_TCString_t_rect&#45;&gt;TranslationUtils_TCString_EmptyString -->
<g id="edge37" class="edge">
<title>TranslationUtils_TCString_t_rect&#45;&gt;TranslationUtils_TCString_EmptyString</title>
<path fill="none" stroke="black" d="M1204,-374.56C1204,-331.02 1204,-216.13 1204,-163.19"/>
<polygon fill="black" stroke="black" points="1207.5,-162.88 1204,-152.88 1200.5,-162.88 1207.5,-162.88"/>
</g>
<!-- TranslationUtils_TCString_t_rect&#45;&gt;TranslationUtils_TCString_t -->
<g id="edge38" class="edge">
<title>TranslationUtils_TCString_t_rect&#45;&gt;TranslationUtils_TCString_t</title>
<path fill="none" stroke="black" d="M1228.36,-378.72C1235.63,-374.85 1243.63,-370.61 1251,-366.76 1408.22,-284.5 1597.52,-187.91 1669.88,-151.07"/>
<polygon fill="black" stroke="black" points="1671.58,-154.13 1678.91,-146.48 1668.41,-147.89 1671.58,-154.13"/>
</g>
<!-- TranslationUtils_define_mod_prefix -->
<g id="node24" class="node">
<title>TranslationUtils_define_mod_prefix</title>
<g id="a_node24"><a xlink:href="TranslationUtils.html#define_mod_prefix" xlink:title="define_mod_prefix">
<ellipse fill="#7fffd4" stroke="black" cx="2418" cy="-959.76" rx="94.79" ry="18"/>
<ellipse fill="none" stroke="black" cx="2418" cy="-959.76" rx="98.79" ry="22"/>
<ellipse fill="none" stroke="black" cx="2418" cy="-959.76" rx="102.78" ry="26"/>
<text text-anchor="middle" x="2418" y="-956.06" font-family="Times,serif" font-size="14.00">define_mod_prefix</text>
</a>
</g>
</g>
<!-- TranslationUtils_translateDefs -->
<g id="node25" class="node">
<title>TranslationUtils_translateDefs</title>
<g id="a_node25"><a xlink:href="TranslationUtils.html#translateDefs" xlink:title="translateDefs">
<ellipse fill="#7fffd4" stroke="black" cx="652" cy="-959.76" rx="73.39" ry="18"/>
<ellipse fill="none" stroke="black" cx="652" cy="-959.76" rx="77.39" ry="22"/>
<ellipse fill="none" stroke="black" cx="652" cy="-959.76" rx="81.39" ry="26"/>
<text text-anchor="middle" x="652" y="-956.06" font-family="Times,serif" font-size="14.00">translateDefs</text>
</a>
</g>
</g>
<!-- TranslationUtils_translateDefs_ -->
<g id="node26" class="node">
<title>TranslationUtils_translateDefs_</title>
<g id="a_node26"><a xlink:href="TranslationUtils.html#translateDefs_" xlink:title="translateDefs_">
<ellipse fill="#7fffd4" stroke="black" cx="652" cy="-675.76" rx="77.99" ry="18"/>
<text text-anchor="middle" x="652" y="-672.06" font-family="Times,serif" font-size="14.00">translateDefs_</text>
</a>
</g>
</g>
<!-- TranslationUtils_translateDefs&#45;&gt;TranslationUtils_translateDefs_ -->
<g id="edge39" class="edge">
<title>TranslationUtils_translateDefs&#45;&gt;TranslationUtils_translateDefs_</title>
<path fill="none" stroke="black" d="M652,-933.73C652,-881.02 652,-758.92 652,-704.17"/>
<polygon fill="black" stroke="black" points="655.5,-703.86 652,-693.86 648.5,-703.86 655.5,-703.86"/>
</g>
<!-- TranslationUtils_stdlib_prefixes -->
<g id="node29" class="node">
<title>TranslationUtils_stdlib_prefixes</title>
<g id="a_node29"><a xlink:href="TranslationUtils.html#stdlib_prefixes" xlink:title="stdlib_prefixes">
<ellipse fill="#f070d1" stroke="black" cx="827" cy="-675.76" rx="78.79" ry="18"/>
<text text-anchor="middle" x="827" y="-672.06" font-family="Times,serif" font-size="14.00">stdlib_prefixes</text>
</a>
</g>
</g>
<!-- TranslationUtils_translateDefs&#45;&gt;TranslationUtils_stdlib_prefixes -->
<g id="edge40" class="edge">
<title>TranslationUtils_translateDefs&#45;&gt;TranslationUtils_stdlib_prefixes</title>
<path fill="none" stroke="black" d="M667.53,-933.73C700.58,-880.47 777.6,-756.36 811.04,-702.48"/>
<polygon fill="black" stroke="black" points="814.08,-704.21 816.38,-693.86 808.14,-700.51 814.08,-704.21"/>
</g>
<!-- TranslationUtils_prefixes -->
<g id="node30" class="node">
<title>TranslationUtils_prefixes</title>
<g id="a_node30"><a xlink:href="TranslationUtils.html#prefixes" xlink:title="prefixes">
<ellipse fill="#f070d1" stroke="black" cx="508" cy="-675.76" rx="48.19" ry="18"/>
<text text-anchor="middle" x="508" y="-672.06" font-family="Times,serif" font-size="14.00">prefixes</text>
</a>
</g>
</g>
<!-- TranslationUtils_translateDefs&#45;&gt;TranslationUtils_prefixes -->
<g id="edge41" class="edge">
<title>TranslationUtils_translateDefs&#45;&gt;TranslationUtils_prefixes</title>
<path fill="none" stroke="black" d="M639.22,-933.73C612.01,-880.45 548.61,-756.28 521.11,-702.43"/>
<polygon fill="black" stroke="black" points="524.23,-700.84 516.56,-693.52 517.99,-704.02 524.23,-700.84"/>
</g>
<!-- TranslationUtils_translateDefs_&#45;&gt;TranslationUtils_TCString_of_string -->
<g id="edge42" class="edge">
<title>TranslationUtils_translateDefs_&#45;&gt;TranslationUtils_TCString_of_string</title>
<path fill="none" stroke="black" d="M677.47,-658.64C753.56,-610.48 979.17,-467.69 1063.61,-414.25"/>
<polygon fill="black" stroke="black" points="1065.69,-417.08 1072.27,-408.78 1061.95,-411.17 1065.69,-417.08"/>
</g>
<!-- TranslationUtils_expr_to_tc -->
<g id="node39" class="node">
<title>TranslationUtils_expr_to_tc</title>
<g id="a_node39"><a xlink:href="TranslationUtils.html#expr_to_tc" xlink:title="expr_to_tc">
<ellipse fill="#f070d1" stroke="black" cx="846" cy="-392.76" rx="58.49" ry="18"/>
<text text-anchor="middle" x="846" y="-389.06" font-family="Times,serif" font-size="14.00">expr_to_tc</text>
</a>
</g>
</g>
<!-- TranslationUtils_translateDefs_&#45;&gt;TranslationUtils_expr_to_tc -->
<g id="edge43" class="edge">
<title>TranslationUtils_translateDefs_&#45;&gt;TranslationUtils_expr_to_tc</title>
<path fill="none" stroke="black" d="M663.84,-657.6C696.8,-609.87 789.68,-475.33 828.55,-419.03"/>
<polygon fill="black" stroke="black" points="831.51,-420.9 834.31,-410.69 825.75,-416.93 831.51,-420.9"/>
</g>
<!-- TranslationUtils_translateData -->
<g id="node27" class="node">
<title>TranslationUtils_translateData</title>
<g id="a_node27"><a xlink:href="TranslationUtils.html#translateData" xlink:title="translateData">
<ellipse fill="#7fffd4" stroke="black" cx="324" cy="-959.76" rx="74.96" ry="18"/>
<ellipse fill="none" stroke="black" cx="324" cy="-959.76" rx="78.98" ry="22"/>
<ellipse fill="none" stroke="black" cx="324" cy="-959.76" rx="82.99" ry="26"/>
<text text-anchor="middle" x="324" y="-956.06" font-family="Times,serif" font-size="14.00">translateData</text>
</a>
</g>
</g>
<!-- TranslationUtils_translateData_ -->
<g id="node28" class="node">
<title>TranslationUtils_translateData_</title>
<g id="a_node28"><a xlink:href="TranslationUtils.html#translateData_" xlink:title="translateData_">
<ellipse fill="#7fffd4" stroke="black" cx="151" cy="-675.76" rx="79.09" ry="18"/>
<text text-anchor="middle" x="151" y="-672.06" font-family="Times,serif" font-size="14.00">translateData_</text>
</a>
</g>
</g>
<!-- TranslationUtils_translateData&#45;&gt;TranslationUtils_translateData_ -->
<g id="edge44" class="edge">
<title>TranslationUtils_translateData&#45;&gt;TranslationUtils_translateData_</title>
<path fill="none" stroke="black" d="M308.65,-933.73C275.97,-880.47 199.83,-756.36 166.78,-702.48"/>
<polygon fill="black" stroke="black" points="169.71,-700.56 161.49,-693.86 163.74,-704.22 169.71,-700.56"/>
</g>
<!-- TranslationUtils_translateData&#45;&gt;TranslationUtils_stdlib_prefixes -->
<g id="edge45" class="edge">
<title>TranslationUtils_translateData&#45;&gt;TranslationUtils_stdlib_prefixes</title>
<path fill="none" stroke="black" d="M363.47,-936.63C458.18,-883.53 697.32,-749.46 789.74,-697.65"/>
<polygon fill="black" stroke="black" points="791.72,-700.55 798.73,-692.6 788.3,-694.44 791.72,-700.55"/>
</g>
<!-- TranslationUtils_prefixes_gds -->
<g id="node32" class="node">
<title>TranslationUtils_prefixes_gds</title>
<g id="a_node32"><a xlink:href="TranslationUtils.html#prefixes_gds" xlink:title="prefixes_gds">
<ellipse fill="#f070d1" stroke="black" cx="324" cy="-675.76" rx="68.79" ry="18"/>
<text text-anchor="middle" x="324" y="-672.06" font-family="Times,serif" font-size="14.00">prefixes_gds</text>
</a>
</g>
</g>
<!-- TranslationUtils_translateData&#45;&gt;TranslationUtils_prefixes_gds -->
<g id="edge46" class="edge">
<title>TranslationUtils_translateData&#45;&gt;TranslationUtils_prefixes_gds</title>
<path fill="none" stroke="black" d="M324,-933.73C324,-881.02 324,-758.92 324,-704.17"/>
<polygon fill="black" stroke="black" points="327.5,-703.86 324,-693.86 320.5,-703.86 327.5,-703.86"/>
</g>
<!-- TranslationUtils_global_to_tc -->
<g id="node37" class="node">
<title>TranslationUtils_global_to_tc</title>
<g id="a_node37"><a xlink:href="TranslationUtils.html#global_to_tc" xlink:title="global_to_tc">
<ellipse fill="#f070d1" stroke="black" cx="82" cy="-392.76" rx="65.79" ry="18"/>
<text text-anchor="middle" x="82" y="-389.06" font-family="Times,serif" font-size="14.00">global_to_tc</text>
</a>
</g>
</g>
<!-- TranslationUtils_translateData_&#45;&gt;TranslationUtils_global_to_tc -->
<g id="edge47" class="edge">
<title>TranslationUtils_translateData_&#45;&gt;TranslationUtils_global_to_tc</title>
<path fill="none" stroke="black" d="M146.79,-657.6C135.19,-610.38 102.73,-478.16 88.65,-420.84"/>
<polygon fill="black" stroke="black" points="92.03,-419.92 86.24,-411.04 85.23,-421.59 92.03,-419.92"/>
</g>
<!-- TranslationUtils_stdlib_prefixes&#45;&gt;TranslationUtils_TCString_to_string -->
<g id="edge48" class="edge">
<title>TranslationUtils_stdlib_prefixes&#45;&gt;TranslationUtils_TCString_to_string</title>
<path fill="none" stroke="black" d="M872.14,-660.83C884.4,-657.14 897.69,-653.22 910,-649.76 1300.5,-539.91 1408.25,-547.29 1793,-418.76 1799.71,-416.51 1806.74,-413.9 1813.53,-411.22"/>
<polygon fill="black" stroke="black" points="1815.31,-414.28 1823.27,-407.28 1812.69,-407.79 1815.31,-414.28"/>
</g>
<!-- TranslationUtils_build_prefix_table -->
<g id="node31" class="node">
<title>TranslationUtils_build_prefix_table</title>
<g id="a_node31"><a xlink:href="TranslationUtils.html#build_prefix_table" xlink:title="build_prefix_table">
<ellipse fill="#f070d1" stroke="black" cx="677" cy="-392.76" rx="92.88" ry="18"/>
<text text-anchor="middle" x="677" y="-389.06" font-family="Times,serif" font-size="14.00">build_prefix_table</text>
</a>
</g>
</g>
<!-- TranslationUtils_prefixes&#45;&gt;TranslationUtils_build_prefix_table -->
<g id="edge49" class="edge">
<title>TranslationUtils_prefixes&#45;&gt;TranslationUtils_build_prefix_table</title>
<path fill="none" stroke="black" d="M518.07,-658.02C546.47,-610.79 627.4,-476.22 661.53,-419.48"/>
<polygon fill="black" stroke="black" points="664.62,-421.13 666.77,-410.76 658.62,-417.53 664.62,-421.13"/>
</g>
<!-- TranslationUtils_dec_pair_string -->
<g id="node33" class="node">
<title>TranslationUtils_dec_pair_string</title>
<g id="a_node33"><a xlink:href="TranslationUtils.html#dec_pair_string" xlink:title="dec_pair_string">
<ellipse fill="#f070d1" stroke="black" cx="484" cy="-392.76" rx="81.79" ry="18"/>
<text text-anchor="middle" x="484" y="-389.06" font-family="Times,serif" font-size="14.00">dec_pair_string</text>
</a>
</g>
</g>
<!-- TranslationUtils_prefixes&#45;&gt;TranslationUtils_dec_pair_string -->
<g id="edge50" class="edge">
<title>TranslationUtils_prefixes&#45;&gt;TranslationUtils_dec_pair_string</title>
<path fill="none" stroke="black" d="M506.53,-657.6C502.51,-610.47 491.26,-478.71 486.34,-421.2"/>
<polygon fill="black" stroke="black" points="489.81,-420.71 485.48,-411.04 482.84,-421.31 489.81,-420.71"/>
</g>
<!-- TranslationUtils_build_prefix_table_ty -->
<g id="node36" class="node">
<title>TranslationUtils_build_prefix_table_ty</title>
<g id="a_node36"><a xlink:href="TranslationUtils.html#build_prefix_table_ty" xlink:title="build_prefix_table_ty">
<ellipse fill="#f070d1" stroke="black" cx="677" cy="-134.76" rx="106.68" ry="18"/>
<text text-anchor="middle" x="677" y="-131.06" font-family="Times,serif" font-size="14.00">build_prefix_table_ty</text>
</a>
</g>
</g>
<!-- TranslationUtils_build_prefix_table&#45;&gt;TranslationUtils_build_prefix_table_ty -->
<g id="edge51" class="edge">
<title>TranslationUtils_build_prefix_table&#45;&gt;TranslationUtils_build_prefix_table_ty</title>
<path fill="none" stroke="black" d="M677,-374.56C677,-331.02 677,-216.13 677,-163.19"/>
<polygon fill="black" stroke="black" points="680.5,-162.88 677,-152.88 673.5,-162.88 680.5,-162.88"/>
</g>
<!-- TranslationUtils_prefixes_gds&#45;&gt;TranslationUtils_dec_pair_string -->
<g id="edge52" class="edge">
<title>TranslationUtils_prefixes_gds&#45;&gt;TranslationUtils_dec_pair_string</title>
<path fill="none" stroke="black" d="M333.77,-657.6C360.83,-610.07 436.92,-476.43 469.21,-419.72"/>
<polygon fill="black" stroke="black" points="472.45,-421.11 474.36,-410.69 466.37,-417.64 472.45,-421.11"/>
</g>
<!-- TranslationUtils_build_prefix_table_gd -->
<g id="node35" class="node">
<title>TranslationUtils_build_prefix_table_gd</title>
<g id="a_node35"><a xlink:href="TranslationUtils.html#build_prefix_table_gd" xlink:title="build_prefix_table_gd">
<ellipse fill="#f070d1" stroke="black" cx="275" cy="-392.76" rx="109.38" ry="18"/>
<text text-anchor="middle" x="275" y="-389.06" font-family="Times,serif" font-size="14.00">build_prefix_table_gd</text>
</a>
</g>
</g>
<!-- TranslationUtils_prefixes_gds&#45;&gt;TranslationUtils_build_prefix_table_gd -->
<g id="edge53" class="edge">
<title>TranslationUtils_prefixes_gds&#45;&gt;TranslationUtils_build_prefix_table_gd</title>
<path fill="none" stroke="black" d="M321.01,-657.6C312.79,-610.47 289.81,-478.71 279.78,-421.2"/>
<polygon fill="black" stroke="black" points="283.18,-420.29 278.01,-411.04 276.28,-421.5 283.18,-420.29"/>
</g>
<!-- TranslationUtils_dec_pair_string_obligation_1 -->
<g id="node34" class="node">
<title>TranslationUtils_dec_pair_string_obligation_1</title>
<g id="a_node34"><a xlink:href="TranslationUtils.html#dec_pair_string_obligation_1" xlink:title="dec_pair_string_obligation_1">
<ellipse fill="#f070d1" stroke="black" cx="409" cy="-134.76" rx="142.97" ry="18"/>
<text text-anchor="middle" x="409" y="-131.06" font-family="Times,serif" font-size="14.00">dec_pair_string_obligation_1</text>
</a>
</g>
</g>
<!-- TranslationUtils_dec_pair_string&#45;&gt;TranslationUtils_dec_pair_string_obligation_1 -->
<g id="edge54" class="edge">
<title>TranslationUtils_dec_pair_string&#45;&gt;TranslationUtils_dec_pair_string_obligation_1</title>
<path fill="none" stroke="black" d="M478.96,-374.56C466.15,-330.84 432.26,-215.17 416.84,-162.52"/>
<polygon fill="black" stroke="black" points="420.19,-161.49 414.02,-152.88 413.47,-163.46 420.19,-161.49"/>
</g>
<!-- TranslationUtils_build_prefix_table_gd&#45;&gt;TranslationUtils_build_prefix_table_ty -->
<g id="edge55" class="edge">
<title>TranslationUtils_build_prefix_table_gd&#45;&gt;TranslationUtils_build_prefix_table_ty</title>
<path fill="none" stroke="black" d="M301.07,-375.16C371.09,-330.56 563.34,-208.14 642.37,-157.81"/>
<polygon fill="black" stroke="black" points="644.44,-160.64 650.99,-152.32 640.68,-154.74 644.44,-160.64"/>
</g>
<!-- TranslationUtils_type_to_tc -->
<g id="node38" class="node">
<title>TranslationUtils_type_to_tc</title>
<g id="a_node38"><a xlink:href="TranslationUtils.html#type_to_tc" xlink:title="type_to_tc">
<ellipse fill="#f070d1" stroke="black" cx="144" cy="-959.76" rx="57.71" ry="18"/>
<ellipse fill="none" stroke="black" cx="144" cy="-959.76" rx="61.7" ry="22"/>
<ellipse fill="none" stroke="black" cx="144" cy="-959.76" rx="65.69" ry="26"/>
<text text-anchor="middle" x="144" y="-956.06" font-family="Times,serif" font-size="14.00">type_to_tc</text>
</a>
</g>
</g>
</g>
</svg>
