<?xml version="1.0" encoding="UTF-8" standalone="no"?>
<!DOCTYPE svg PUBLIC "-//W3C//DTD SVG 1.1//EN"
 "http://www.w3.org/Graphics/SVG/1.1/DTD/svg11.dtd">
<!-- Generated by graphviz version 2.43.0 (0)
 -->
<!-- Title: TopLevelFixes Pages: 1 -->
<svg width="798pt" height="403pt"
 viewBox="0.00 0.00 798.00 403.00" xmlns="http://www.w3.org/2000/svg" xmlns:xlink="http://www.w3.org/1999/xlink">
<g id="graph0" class="graph" transform="scale(1 1) rotate(0) translate(4 399)">
<title>TopLevelFixes</title>
<polygon fill="white" stroke="transparent" points="-4,4 -4,-399 794,-399 794,4 -4,4"/>
<g id="clust1" class="cluster">
<title>cluster_TopLevelFixes</title>
<polygon fill="#ffffc3" stroke="black" points="35.11,-8 35.11,-387 754.89,-387 754.89,-8 35.11,-8"/>
<text text-anchor="middle" x="94.61" y="-371.8" font-family="Times,serif" font-size="14.00">TopLevelFixes</text>
</g>
<!-- TopLevelFixes_transform -->
<g id="node1" class="node">
<title>TopLevelFixes_transform</title>
<g id="a_node1"><a xlink:href="TopLevelFixes.html#transform" xlink:title="transform">
<ellipse fill="#f070d1" stroke="black" cx="395.11" cy="-330" rx="57.37" ry="18"/>
<ellipse fill="none" stroke="black" cx="395.11" cy="-330" rx="61.38" ry="22"/>
<ellipse fill="none" stroke="black" cx="395.11" cy="-330" rx="65.39" ry="26"/>
<text text-anchor="middle" x="395.11" y="-326.3" font-family="Times,serif" font-size="14.00">transform</text>
</a>
</g>
</g>
<!-- TopLevelFixes_optimize_env -->
<g id="node2" class="node">
<title>TopLevelFixes_optimize_env</title>
<g id="a_node2"><a xlink:href="TopLevelFixes.html#optimize_env" xlink:title="optimize_env">
<ellipse fill="#f070d1" stroke="black" cx="395.11" cy="-250" rx="71.49" ry="18"/>
<text text-anchor="middle" x="395.11" y="-246.3" font-family="Times,serif" font-size="14.00">optimize_env</text>
</a>
</g>
</g>
<!-- TopLevelFixes_transform&#45;&gt;TopLevelFixes_optimize_env -->
<g id="edge1" class="edge">
<title>TopLevelFixes_transform&#45;&gt;TopLevelFixes_optimize_env</title>
<path fill="none" stroke="black" d="M395.11,-303.89C395.11,-295.84 395.11,-286.88 395.11,-278.66"/>
<polygon fill="black" stroke="black" points="398.61,-278.41 395.11,-268.41 391.61,-278.41 398.61,-278.41"/>
</g>
<!-- TopLevelFixes_optimize_decl -->
<g id="node3" class="node">
<title>TopLevelFixes_optimize_decl</title>
<g id="a_node3"><a xlink:href="TopLevelFixes.html#optimize_decl" xlink:title="optimize_decl">
<ellipse fill="#f070d1" stroke="black" cx="395.11" cy="-178" rx="74.19" ry="18"/>
<text text-anchor="middle" x="395.11" y="-174.3" font-family="Times,serif" font-size="14.00">optimize_decl</text>
</a>
</g>
</g>
<!-- TopLevelFixes_optimize_env&#45;&gt;TopLevelFixes_optimize_decl -->
<g id="edge2" class="edge">
<title>TopLevelFixes_optimize_env&#45;&gt;TopLevelFixes_optimize_decl</title>
<path fill="none" stroke="black" d="M395.11,-231.7C395.11,-223.98 395.11,-214.71 395.11,-206.11"/>
<polygon fill="black" stroke="black" points="398.61,-206.1 395.11,-196.1 391.61,-206.1 398.61,-206.1"/>
</g>
<!-- TopLevelFixes_optimize -->
<g id="node4" class="node">
<title>TopLevelFixes_optimize</title>
<g id="a_node4"><a xlink:href="TopLevelFixes.html#optimize" xlink:title="optimize">
<ellipse fill="#f070d1" stroke="black" cx="395.11" cy="-106" rx="50.89" ry="18"/>
<text text-anchor="middle" x="395.11" y="-102.3" font-family="Times,serif" font-size="14.00">optimize</text>
</a>
</g>
</g>
<!-- TopLevelFixes_optimize_decl&#45;&gt;TopLevelFixes_optimize -->
<g id="edge3" class="edge">
<title>TopLevelFixes_optimize_decl&#45;&gt;TopLevelFixes_optimize</title>
<path fill="none" stroke="black" d="M395.11,-159.7C395.11,-151.98 395.11,-142.71 395.11,-134.11"/>
<polygon fill="black" stroke="black" points="398.61,-134.1 395.11,-124.1 391.61,-134.1 398.61,-134.1"/>
</g>
<!-- TopLevelFixes_optimize_aux -->
<g id="node5" class="node">
<title>TopLevelFixes_optimize_aux</title>
<g id="a_node5"><a xlink:href="TopLevelFixes.html#optimize_aux" xlink:title="optimize_aux">
<ellipse fill="#f070d1" stroke="black" cx="395.11" cy="-34" rx="71.49" ry="18"/>
<text text-anchor="middle" x="395.11" y="-30.3" font-family="Times,serif" font-size="14.00">optimize_aux</text>
</a>
</g>
</g>
<!-- TopLevelFixes_optimize&#45;&gt;TopLevelFixes_optimize_aux -->
<g id="edge4" class="edge">
<title>TopLevelFixes_optimize&#45;&gt;TopLevelFixes_optimize_aux</title>
<path fill="none" stroke="black" d="M395.11,-87.7C395.11,-79.98 395.11,-70.71 395.11,-62.11"/>
<polygon fill="black" stroke="black" points="398.61,-62.1 395.11,-52.1 391.61,-62.1 398.61,-62.1"/>
</g>
</g>
</svg>
