<?xml version="1.0" encoding="UTF-8" standalone="no"?>
<!DOCTYPE svg PUBLIC "-//W3C//DTD SVG 1.1//EN"
 "http://www.w3.org/Graphics/SVG/1.1/DTD/svg11.dtd">
<!-- Generated by graphviz version 2.43.0 (0)
 -->
<!-- Title: Containers Pages: 1 -->
<svg width="2548pt" height="1278pt"
 viewBox="0.00 0.00 2548.00 1278.00" xmlns="http://www.w3.org/2000/svg" xmlns:xlink="http://www.w3.org/1999/xlink">
<g id="graph0" class="graph" transform="scale(1 1) rotate(0) translate(4 1274)">
<title>Containers</title>
<polygon fill="white" stroke="transparent" points="-4,4 -4,-1274 2544,-1274 2544,4 -4,4"/>
<g id="clust1" class="cluster">
<title>cluster_Containers</title>
<polygon fill="#ffffc3" stroke="black" points="8,-33.2 8,-1236.8 2532,-1236.8 2532,-33.2 8,-33.2"/>
<text text-anchor="middle" x="55.5" y="-1221.6" font-family="Times,serif" font-size="14.00">Containers</text>
</g>
<g id="clust2" class="cluster">
<title>cluster_Containers_FMap</title>
<polygon fill="#ffffa3" stroke="black" points="16,-66.41 16,-1108.14 2524,-1108.14 2524,-66.41 16,-66.41"/>
<text text-anchor="middle" x="45" y="-1092.94" font-family="Times,serif" font-size="14.00">FMap</text>
</g>
<!-- Containers_FMap_find_update_eq -->
<g id="node1" class="node">
<title>Containers_FMap_find_update_eq</title>
<g id="a_node1"><a xlink:href="Containers.html#FMap.find_update_eq" xlink:title="find_update_eq">
<ellipse fill="#7fffd4" stroke="black" cx="2190" cy="-506.2" rx="80.68" ry="18"/>
<ellipse fill="none" stroke="black" cx="2190" cy="-506.2" rx="84.68" ry="22"/>
<ellipse fill="none" stroke="black" cx="2190" cy="-506.2" rx="88.69" ry="26"/>
<text text-anchor="middle" x="2190" y="-502.5" font-family="Times,serif" font-size="14.00">find_update_eq</text>
</a>
</g>
</g>
<!-- Containers_FMap_find_remove -->
<g id="node19" class="node">
<title>Containers_FMap_find_remove</title>
<g id="a_node19"><a xlink:href="Containers.html#FMap.find_remove" xlink:title="find_remove">
<ellipse fill="#7fffd4" stroke="black" cx="2076" cy="-174.2" rx="67.69" ry="18"/>
<text text-anchor="middle" x="2076" y="-170.5" font-family="Times,serif" font-size="14.00">find_remove</text>
</a>
</g>
</g>
<!-- Containers_FMap_find_update_eq&#45;&gt;Containers_FMap_find_remove -->
<g id="edge1" class="edge">
<title>Containers_FMap_find_update_eq&#45;&gt;Containers_FMap_find_remove</title>
<path fill="none" stroke="black" d="M2181.34,-480.13C2160.32,-419.29 2106.77,-264.27 2085.2,-201.85"/>
<polygon fill="black" stroke="black" points="2088.48,-200.62 2081.91,-192.31 2081.87,-202.91 2088.48,-200.62"/>
</g>
<!-- Containers_FMap_find_add -->
<g id="node29" class="node">
<title>Containers_FMap_find_add</title>
<g id="a_node29"><a xlink:href="Containers.html#FMap.find_add" xlink:title="find_add">
<ellipse fill="#7fffd4" stroke="black" cx="1506" cy="-174.2" rx="50.09" ry="18"/>
<text text-anchor="middle" x="1506" y="-170.5" font-family="Times,serif" font-size="14.00">find_add</text>
</a>
</g>
</g>
<!-- Containers_FMap_find_update_eq&#45;&gt;Containers_FMap_find_add -->
<g id="edge2" class="edge">
<title>Containers_FMap_find_update_eq&#45;&gt;Containers_FMap_find_add</title>
<path fill="none" stroke="black" d="M2145.38,-483.68C2019.3,-422.85 1661.9,-250.42 1544.15,-193.61"/>
<polygon fill="black" stroke="black" points="1545.32,-190.29 1534.8,-189.1 1542.28,-196.59 1545.32,-190.29"/>
</g>
<!-- Containers_FMap_update -->
<g id="node34" class="node">
<title>Containers_FMap_update</title>
<g id="a_node34"><a xlink:href="Containers.html#FMap.update" xlink:title="update">
<ellipse fill="#f070d1" stroke="black" cx="2357" cy="-174.2" rx="42.79" ry="18"/>
<text text-anchor="middle" x="2357" y="-170.5" font-family="Times,serif" font-size="14.00">update</text>
</a>
</g>
</g>
<!-- Containers_FMap_find_update_eq&#45;&gt;Containers_FMap_update -->
<g id="edge3" class="edge">
<title>Containers_FMap_find_update_eq&#45;&gt;Containers_FMap_update</title>
<path fill="none" stroke="black" d="M2202.55,-480.4C2233.37,-419.5 2312.52,-263.09 2343.9,-201.08"/>
<polygon fill="black" stroke="black" points="2347.12,-202.47 2348.51,-191.97 2340.88,-199.31 2347.12,-202.47"/>
</g>
<!-- Containers_FMap_find_update_ne -->
<g id="node2" class="node">
<title>Containers_FMap_find_update_ne</title>
<g id="a_node2"><a xlink:href="Containers.html#FMap.find_update_ne" xlink:title="find_update_ne">
<ellipse fill="#7fffd4" stroke="black" cx="1995" cy="-506.2" rx="80.68" ry="18"/>
<ellipse fill="none" stroke="black" cx="1995" cy="-506.2" rx="84.68" ry="22"/>
<ellipse fill="none" stroke="black" cx="1995" cy="-506.2" rx="88.69" ry="26"/>
<text text-anchor="middle" x="1995" y="-502.5" font-family="Times,serif" font-size="14.00">find_update_ne</text>
</a>
</g>
</g>
<!-- Containers_FMap_find_remove_ne -->
<g id="node18" class="node">
<title>Containers_FMap_find_remove_ne</title>
<g id="a_node18"><a xlink:href="Containers.html#FMap.find_remove_ne" xlink:title="find_remove_ne">
<ellipse fill="#7fffd4" stroke="black" cx="1907" cy="-174.2" rx="83.39" ry="18"/>
<text text-anchor="middle" x="1907" y="-170.5" font-family="Times,serif" font-size="14.00">find_remove_ne</text>
</a>
</g>
</g>
<!-- Containers_FMap_find_update_ne&#45;&gt;Containers_FMap_find_remove_ne -->
<g id="edge4" class="edge">
<title>Containers_FMap_find_update_ne&#45;&gt;Containers_FMap_find_remove_ne</title>
<path fill="none" stroke="black" d="M1988.31,-480.13C1972.12,-419.41 1930.92,-264.91 1914.21,-202.23"/>
<polygon fill="black" stroke="black" points="1917.52,-201.07 1911.56,-192.31 1910.76,-202.88 1917.52,-201.07"/>
</g>
<!-- Containers_FMap_find_add_ne -->
<g id="node28" class="node">
<title>Containers_FMap_find_add_ne</title>
<g id="a_node28"><a xlink:href="Containers.html#FMap.find_add_ne" xlink:title="find_add_ne">
<ellipse fill="#7fffd4" stroke="black" cx="1372" cy="-174.2" rx="65.79" ry="18"/>
<text text-anchor="middle" x="1372" y="-170.5" font-family="Times,serif" font-size="14.00">find_add_ne</text>
</a>
</g>
</g>
<!-- Containers_FMap_find_update_ne&#45;&gt;Containers_FMap_find_add_ne -->
<g id="edge5" class="edge">
<title>Containers_FMap_find_update_ne&#45;&gt;Containers_FMap_find_add_ne</title>
<path fill="none" stroke="black" d="M1953.16,-483.04C1838.37,-422.24 1519.79,-253.49 1409.87,-195.26"/>
<polygon fill="black" stroke="black" points="1411.28,-192.05 1400.8,-190.46 1408,-198.23 1411.28,-192.05"/>
</g>
<!-- Containers_FMap_find_update_ne&#45;&gt;Containers_FMap_update -->
<g id="edge6" class="edge">
<title>Containers_FMap_find_update_ne&#45;&gt;Containers_FMap_update</title>
<path fill="none" stroke="black" d="M2021.33,-481.2C2088.71,-419.78 2266.72,-257.5 2332.3,-197.72"/>
<polygon fill="black" stroke="black" points="2334.69,-200.28 2339.72,-190.96 2329.97,-195.11 2334.69,-200.28"/>
</g>
<!-- Containers_FMap_map_update_idemp -->
<g id="node3" class="node">
<title>Containers_FMap_map_update_idemp</title>
<g id="a_node3"><a xlink:href="Containers.html#FMap.map_update_idemp" xlink:title="map_update_idemp">
<ellipse fill="#7fffd4" stroke="black" cx="2405" cy="-506.2" rx="100.96" ry="18"/>
<ellipse fill="none" stroke="black" cx="2405" cy="-506.2" rx="104.97" ry="22"/>
<ellipse fill="none" stroke="black" cx="2405" cy="-506.2" rx="108.98" ry="26"/>
<text text-anchor="middle" x="2405" y="-502.5" font-family="Times,serif" font-size="14.00">map_update_idemp</text>
</a>
</g>
</g>
<!-- Containers_FMap_add_add -->
<g id="node21" class="node">
<title>Containers_FMap_add_add</title>
<g id="a_node21"><a xlink:href="Containers.html#FMap.add_add" xlink:title="add_add">
<ellipse fill="#7fffd4" stroke="black" cx="2467" cy="-174.2" rx="49.29" ry="18"/>
<text text-anchor="middle" x="2467" y="-170.5" font-family="Times,serif" font-size="14.00">add_add</text>
</a>
</g>
</g>
<!-- Containers_FMap_map_update_idemp&#45;&gt;Containers_FMap_add_add -->
<g id="edge7" class="edge">
<title>Containers_FMap_map_update_idemp&#45;&gt;Containers_FMap_add_add</title>
<path fill="none" stroke="black" d="M2409.71,-480.13C2421.12,-419.41 2450.15,-264.91 2461.92,-202.23"/>
<polygon fill="black" stroke="black" points="2465.38,-202.79 2463.79,-192.31 2458.5,-201.5 2465.38,-202.79"/>
</g>
<!-- Containers_FMap_add_remove -->
<g id="node22" class="node">
<title>Containers_FMap_add_remove</title>
<g id="a_node22"><a xlink:href="Containers.html#FMap.add_remove" xlink:title="add_remove">
<ellipse fill="#7fffd4" stroke="black" cx="2229" cy="-174.2" rx="66.89" ry="18"/>
<text text-anchor="middle" x="2229" y="-170.5" font-family="Times,serif" font-size="14.00">add_remove</text>
</a>
</g>
</g>
<!-- Containers_FMap_map_update_idemp&#45;&gt;Containers_FMap_add_remove -->
<g id="edge8" class="edge">
<title>Containers_FMap_map_update_idemp&#45;&gt;Containers_FMap_add_remove</title>
<path fill="none" stroke="black" d="M2391.63,-480.13C2359.11,-419.16 2276.16,-263.63 2243,-201.46"/>
<polygon fill="black" stroke="black" points="2245.92,-199.49 2238.13,-192.31 2239.74,-202.78 2245.92,-199.49"/>
</g>
<!-- Containers_FMap_map_update_idemp&#45;&gt;Containers_FMap_update -->
<g id="edge9" class="edge">
<title>Containers_FMap_map_update_idemp&#45;&gt;Containers_FMap_update</title>
<path fill="none" stroke="black" d="M2401.35,-480.13C2392.52,-419.41 2370.05,-264.91 2360.93,-202.23"/>
<polygon fill="black" stroke="black" points="2364.39,-201.71 2359.49,-192.31 2357.46,-202.71 2364.39,-201.71"/>
</g>
<!-- Containers_FMap_NoDup_keys -->
<g id="node4" class="node">
<title>Containers_FMap_NoDup_keys</title>
<g id="a_node4"><a xlink:href="Containers.html#FMap.NoDup_keys" xlink:title="NoDup_keys">
<ellipse fill="#7fffd4" stroke="black" cx="1545" cy="-506.2" rx="68.46" ry="18"/>
<ellipse fill="none" stroke="black" cx="1545" cy="-506.2" rx="72.48" ry="22"/>
<ellipse fill="none" stroke="black" cx="1545" cy="-506.2" rx="76.49" ry="26"/>
<text text-anchor="middle" x="1545" y="-502.5" font-family="Times,serif" font-size="14.00">NoDup_keys</text>
</a>
</g>
</g>
<!-- Containers_FMap_keys -->
<g id="node36" class="node">
<title>Containers_FMap_keys</title>
<g id="a_node36"><a xlink:href="Containers.html#FMap.keys" xlink:title="keys">
<ellipse fill="#f070d1" stroke="black" cx="1774" cy="-174.2" rx="31.7" ry="18"/>
<text text-anchor="middle" x="1774" y="-170.5" font-family="Times,serif" font-size="14.00">keys</text>
</a>
</g>
</g>
<!-- Containers_FMap_NoDup_keys&#45;&gt;Containers_FMap_keys -->
<g id="edge10" class="edge">
<title>Containers_FMap_NoDup_keys&#45;&gt;Containers_FMap_keys</title>
<path fill="none" stroke="black" d="M1562.03,-480.67C1604.51,-419.45 1714.8,-260.51 1757.13,-199.52"/>
<polygon fill="black" stroke="black" points="1760.03,-201.47 1762.86,-191.26 1754.28,-197.48 1760.03,-201.47"/>
</g>
<!-- Containers_FMap_NoDup_elements -->
<g id="node5" class="node">
<title>Containers_FMap_NoDup_elements</title>
<g id="a_node5"><a xlink:href="Containers.html#FMap.NoDup_elements" xlink:title="NoDup_elements">
<ellipse fill="#7fffd4" stroke="black" cx="2418" cy="-871.2" rx="89.87" ry="18"/>
<ellipse fill="none" stroke="black" cx="2418" cy="-871.2" rx="93.88" ry="22"/>
<ellipse fill="none" stroke="black" cx="2418" cy="-871.2" rx="97.88" ry="26"/>
<text text-anchor="middle" x="2418" y="-867.5" font-family="Times,serif" font-size="14.00">NoDup_elements</text>
</a>
</g>
</g>
<!-- Containers_FMap_not_In_elements -->
<g id="node6" class="node">
<title>Containers_FMap_not_In_elements</title>
<g id="a_node6"><a xlink:href="Containers.html#FMap.not_In_elements" xlink:title="not_In_elements">
<ellipse fill="#7fffd4" stroke="black" cx="2208" cy="-871.2" rx="86.39" ry="18"/>
<ellipse fill="none" stroke="black" cx="2208" cy="-871.2" rx="90.39" ry="22"/>
<ellipse fill="none" stroke="black" cx="2208" cy="-871.2" rx="94.38" ry="26"/>
<text text-anchor="middle" x="2208" y="-867.5" font-family="Times,serif" font-size="14.00">not_In_elements</text>
</a>
</g>
</g>
<!-- Containers_FMap_In_elements -->
<g id="node8" class="node">
<title>Containers_FMap_In_elements</title>
<g id="a_node8"><a xlink:href="Containers.html#FMap.In_elements" xlink:title="In_elements">
<ellipse fill="#7fffd4" stroke="black" cx="1208" cy="-506.2" rx="66.89" ry="18"/>
<text text-anchor="middle" x="1208" y="-502.5" font-family="Times,serif" font-size="14.00">In_elements</text>
</a>
</g>
</g>
<!-- Containers_FMap_not_In_elements&#45;&gt;Containers_FMap_In_elements -->
<g id="edge11" class="edge">
<title>Containers_FMap_not_In_elements&#45;&gt;Containers_FMap_In_elements</title>
<path fill="none" stroke="black" d="M2152.45,-850.04C1974.71,-785.52 1421.82,-584.82 1255.68,-524.51"/>
<polygon fill="black" stroke="black" points="1256.82,-521.2 1246.22,-521.08 1254.43,-527.78 1256.82,-521.2"/>
</g>
<!-- Containers_FMap_elements_add_existing -->
<g id="node7" class="node">
<title>Containers_FMap_elements_add_existing</title>
<g id="a_node7"><a xlink:href="Containers.html#FMap.elements_add_existing" xlink:title="elements_add_existing">
<ellipse fill="#7fffd4" stroke="black" cx="1764" cy="-506.2" rx="116.19" ry="18"/>
<ellipse fill="none" stroke="black" cx="1764" cy="-506.2" rx="120.18" ry="22"/>
<ellipse fill="none" stroke="black" cx="1764" cy="-506.2" rx="124.18" ry="26"/>
<text text-anchor="middle" x="1764" y="-502.5" font-family="Times,serif" font-size="14.00">elements_add_existing</text>
</a>
</g>
</g>
<!-- Containers_FMap_elements_add_existing&#45;&gt;Containers_FMap_find_remove -->
<g id="edge12" class="edge">
<title>Containers_FMap_elements_add_existing&#45;&gt;Containers_FMap_find_remove</title>
<path fill="none" stroke="black" d="M1787.45,-480.4C1845.5,-419 1995.35,-260.51 2052.96,-199.57"/>
<polygon fill="black" stroke="black" points="2055.82,-201.64 2060.15,-191.97 2050.73,-196.83 2055.82,-201.64"/>
</g>
<!-- Containers_FMap_elements_add_existing&#45;&gt;Containers_FMap_add_remove -->
<g id="edge13" class="edge">
<title>Containers_FMap_elements_add_existing&#45;&gt;Containers_FMap_add_remove</title>
<path fill="none" stroke="black" d="M1798.19,-480.94C1885.3,-419.12 2114.54,-256.43 2198.03,-197.18"/>
<polygon fill="black" stroke="black" points="2200.2,-199.93 2206.33,-191.29 2196.15,-194.23 2200.2,-199.93"/>
</g>
<!-- Containers_FMap_elements_add -->
<g id="node24" class="node">
<title>Containers_FMap_elements_add</title>
<g id="a_node24"><a xlink:href="Containers.html#FMap.elements_add" xlink:title="elements_add">
<ellipse fill="#7fffd4" stroke="black" cx="1073" cy="-174.2" rx="74.99" ry="18"/>
<text text-anchor="middle" x="1073" y="-170.5" font-family="Times,serif" font-size="14.00">elements_add</text>
</a>
</g>
</g>
<!-- Containers_FMap_elements_add_existing&#45;&gt;Containers_FMap_elements_add -->
<g id="edge14" class="edge">
<title>Containers_FMap_elements_add_existing&#45;&gt;Containers_FMap_elements_add</title>
<path fill="none" stroke="black" d="M1715.68,-482.13C1586.56,-420.46 1235.1,-252.62 1114.37,-194.96"/>
<polygon fill="black" stroke="black" points="1115.61,-191.67 1105.08,-190.52 1112.6,-197.99 1115.61,-191.67"/>
</g>
<!-- Containers_FMap_ind -->
<g id="node13" class="node">
<title>Containers_FMap_ind</title>
<g id="a_node13"><a xlink:href="Containers.html#FMap.ind" xlink:title="ind">
<ellipse fill="#7fffd4" stroke="black" cx="953" cy="-174.2" rx="27" ry="18"/>
<text text-anchor="middle" x="953" y="-170.5" font-family="Times,serif" font-size="14.00">ind</text>
</a>
</g>
</g>
<!-- Containers_FMap_In_elements&#45;&gt;Containers_FMap_ind -->
<g id="edge15" class="edge">
<title>Containers_FMap_In_elements&#45;&gt;Containers_FMap_ind</title>
<path fill="none" stroke="black" d="M1195,-488.38C1152.84,-433.82 1019.76,-261.59 971.07,-198.59"/>
<polygon fill="black" stroke="black" points="973.66,-196.22 964.78,-190.45 968.12,-200.5 973.66,-196.22"/>
</g>
<!-- Containers_FMap_elements_empty -->
<g id="node23" class="node">
<title>Containers_FMap_elements_empty</title>
<g id="a_node23"><a xlink:href="Containers.html#FMap.elements_empty" xlink:title="elements_empty">
<ellipse fill="#7fffd4" stroke="black" cx="821" cy="-174.2" rx="87.18" ry="18"/>
<text text-anchor="middle" x="821" y="-170.5" font-family="Times,serif" font-size="14.00">elements_empty</text>
</a>
</g>
</g>
<!-- Containers_FMap_In_elements&#45;&gt;Containers_FMap_elements_empty -->
<g id="edge16" class="edge">
<title>Containers_FMap_In_elements&#45;&gt;Containers_FMap_elements_empty</title>
<path fill="none" stroke="black" d="M1188.81,-488.84C1125.51,-434.87 923.18,-262.33 848.78,-198.89"/>
<polygon fill="black" stroke="black" points="850.65,-195.88 840.77,-192.06 846.11,-201.21 850.65,-195.88"/>
</g>
<!-- Containers_FMap_In_elements&#45;&gt;Containers_FMap_elements_add -->
<g id="edge17" class="edge">
<title>Containers_FMap_In_elements&#45;&gt;Containers_FMap_elements_add</title>
<path fill="none" stroke="black" d="M1200.93,-487.93C1178.79,-433.8 1110.65,-267.23 1083.92,-201.89"/>
<polygon fill="black" stroke="black" points="1087.02,-200.24 1080,-192.31 1080.55,-202.89 1087.02,-200.24"/>
</g>
<!-- Containers_FMap_find_empty -->
<g id="node25" class="node">
<title>Containers_FMap_find_empty</title>
<g id="a_node25"><a xlink:href="Containers.html#FMap.find_empty" xlink:title="find_empty">
<ellipse fill="#7fffd4" stroke="black" cx="1227" cy="-174.2" rx="61.99" ry="18"/>
<text text-anchor="middle" x="1227" y="-170.5" font-family="Times,serif" font-size="14.00">find_empty</text>
</a>
</g>
</g>
<!-- Containers_FMap_In_elements&#45;&gt;Containers_FMap_find_empty -->
<g id="edge18" class="edge">
<title>Containers_FMap_In_elements&#45;&gt;Containers_FMap_find_empty</title>
<path fill="none" stroke="black" d="M1208.99,-487.93C1212.1,-433.91 1221.66,-267.91 1225.44,-202.3"/>
<polygon fill="black" stroke="black" points="1228.93,-202.49 1226.02,-192.31 1221.95,-202.09 1228.93,-202.49"/>
</g>
<!-- Containers_FMap_In_elements&#45;&gt;Containers_FMap_find_add_ne -->
<g id="edge19" class="edge">
<title>Containers_FMap_In_elements&#45;&gt;Containers_FMap_find_add_ne</title>
<path fill="none" stroke="black" d="M1216.59,-487.93C1243.54,-433.68 1326.61,-266.54 1358.94,-201.49"/>
<polygon fill="black" stroke="black" points="1362.18,-202.82 1363.5,-192.31 1355.91,-199.71 1362.18,-202.82"/>
</g>
<!-- Containers_FMap_In_elements&#45;&gt;Containers_FMap_find_add -->
<g id="edge20" class="edge">
<title>Containers_FMap_In_elements&#45;&gt;Containers_FMap_find_add</title>
<path fill="none" stroke="black" d="M1223.19,-488.38C1272.32,-433.97 1427.1,-262.57 1484.4,-199.13"/>
<polygon fill="black" stroke="black" points="1487.09,-201.36 1491.2,-191.6 1481.9,-196.67 1487.09,-201.36"/>
</g>
<!-- Containers_FMap_length_elements -->
<g id="node9" class="node">
<title>Containers_FMap_length_elements</title>
<g id="a_node9"><a xlink:href="Containers.html#FMap.length_elements" xlink:title="length_elements">
<ellipse fill="#7fffd4" stroke="black" cx="821" cy="-506.2" rx="87.18" ry="18"/>
<ellipse fill="none" stroke="black" cx="821" cy="-506.2" rx="91.18" ry="22"/>
<ellipse fill="none" stroke="black" cx="821" cy="-506.2" rx="95.18" ry="26"/>
<text text-anchor="middle" x="821" y="-502.5" font-family="Times,serif" font-size="14.00">length_elements</text>
</a>
</g>
</g>
<!-- Containers_FMap_size_add_new -->
<g id="node11" class="node">
<title>Containers_FMap_size_add_new</title>
<g id="a_node11"><a xlink:href="Containers.html#FMap.size_add_new" xlink:title="size_add_new">
<ellipse fill="#7fffd4" stroke="black" cx="642" cy="-174.2" rx="73.39" ry="18"/>
<text text-anchor="middle" x="642" y="-170.5" font-family="Times,serif" font-size="14.00">size_add_new</text>
</a>
</g>
</g>
<!-- Containers_FMap_length_elements&#45;&gt;Containers_FMap_size_add_new -->
<g id="edge21" class="edge">
<title>Containers_FMap_length_elements&#45;&gt;Containers_FMap_size_add_new</title>
<path fill="none" stroke="black" d="M807.55,-480.4C774.59,-419.64 690.07,-263.82 656.27,-201.52"/>
<polygon fill="black" stroke="black" points="659.15,-199.47 651.3,-192.35 652.99,-202.81 659.15,-199.47"/>
</g>
<!-- Containers_FMap_size_empty -->
<g id="node12" class="node">
<title>Containers_FMap_size_empty</title>
<g id="a_node12"><a xlink:href="Containers.html#FMap.size_empty" xlink:title="size_empty">
<ellipse fill="#7fffd4" stroke="black" cx="488" cy="-174.2" rx="62.29" ry="18"/>
<text text-anchor="middle" x="488" y="-170.5" font-family="Times,serif" font-size="14.00">size_empty</text>
</a>
</g>
</g>
<!-- Containers_FMap_length_elements&#45;&gt;Containers_FMap_size_empty -->
<g id="edge22" class="edge">
<title>Containers_FMap_length_elements&#45;&gt;Containers_FMap_size_empty</title>
<path fill="none" stroke="black" d="M796.51,-480.94C734.72,-419.7 573.04,-259.48 511.89,-198.88"/>
<polygon fill="black" stroke="black" points="514.18,-196.22 504.61,-191.67 509.25,-201.19 514.18,-196.22"/>
</g>
<!-- Containers_FMap_length_elements&#45;&gt;Containers_FMap_ind -->
<g id="edge23" class="edge">
<title>Containers_FMap_length_elements&#45;&gt;Containers_FMap_ind</title>
<path fill="none" stroke="black" d="M831.03,-480.13C855.42,-419.15 917.66,-263.54 942.52,-201.41"/>
<polygon fill="black" stroke="black" points="945.84,-202.52 946.31,-191.93 939.34,-199.92 945.84,-202.52"/>
</g>
<!-- Containers_FMap_length_elements&#45;&gt;Containers_FMap_elements_empty -->
<g id="edge24" class="edge">
<title>Containers_FMap_length_elements&#45;&gt;Containers_FMap_elements_empty</title>
<path fill="none" stroke="black" d="M821,-480.13C821,-419.54 821,-265.55 821,-202.62"/>
<polygon fill="black" stroke="black" points="824.5,-202.31 821,-192.31 817.5,-202.31 824.5,-202.31"/>
</g>
<!-- Containers_FMap_length_elements&#45;&gt;Containers_FMap_elements_add -->
<g id="edge25" class="edge">
<title>Containers_FMap_length_elements&#45;&gt;Containers_FMap_elements_add</title>
<path fill="none" stroke="black" d="M839.74,-480.67C886.36,-419.61 1007.22,-261.34 1054.06,-200"/>
<polygon fill="black" stroke="black" points="1056.88,-202.08 1060.17,-192.01 1051.32,-197.83 1056.88,-202.08"/>
</g>
<!-- Containers_FMap_size_add_existing -->
<g id="node10" class="node">
<title>Containers_FMap_size_add_existing</title>
<g id="a_node10"><a xlink:href="Containers.html#FMap.size_add_existing" xlink:title="size_add_existing">
<ellipse fill="#7fffd4" stroke="black" cx="1996" cy="-871.2" rx="91.77" ry="18"/>
<ellipse fill="none" stroke="black" cx="1996" cy="-871.2" rx="95.78" ry="22"/>
<ellipse fill="none" stroke="black" cx="1996" cy="-871.2" rx="99.78" ry="26"/>
<text text-anchor="middle" x="1996" y="-867.5" font-family="Times,serif" font-size="14.00">size_add_existing</text>
</a>
</g>
</g>
<!-- Containers_FMap_keys_already -->
<g id="node14" class="node">
<title>Containers_FMap_keys_already</title>
<g id="a_node14"><a xlink:href="Containers.html#FMap.keys_already" xlink:title="keys_already">
<ellipse fill="#7fffd4" stroke="black" cx="1372" cy="-506.2" rx="70.7" ry="18"/>
<ellipse fill="none" stroke="black" cx="1372" cy="-506.2" rx="74.7" ry="22"/>
<ellipse fill="none" stroke="black" cx="1372" cy="-506.2" rx="78.69" ry="26"/>
<text text-anchor="middle" x="1372" y="-502.5" font-family="Times,serif" font-size="14.00">keys_already</text>
</a>
</g>
</g>
<!-- Containers_FMap_add_commute -->
<g id="node17" class="node">
<title>Containers_FMap_add_commute</title>
<g id="a_node17"><a xlink:href="Containers.html#FMap.add_commute" xlink:title="add_commute">
<ellipse fill="#7fffd4" stroke="black" cx="1649" cy="-174.2" rx="75.29" ry="18"/>
<text text-anchor="middle" x="1649" y="-170.5" font-family="Times,serif" font-size="14.00">add_commute</text>
</a>
</g>
</g>
<!-- Containers_FMap_keys_already&#45;&gt;Containers_FMap_add_commute -->
<g id="edge26" class="edge">
<title>Containers_FMap_keys_already&#45;&gt;Containers_FMap_add_commute</title>
<path fill="none" stroke="black" d="M1392.37,-480.94C1443.44,-420.09 1576.54,-261.52 1628.14,-200.05"/>
<polygon fill="black" stroke="black" points="1631.11,-201.96 1634.86,-192.05 1625.75,-197.46 1631.11,-201.96"/>
</g>
<!-- Containers_FMap_keys_already&#45;&gt;Containers_FMap_elements_add -->
<g id="edge27" class="edge">
<title>Containers_FMap_keys_already&#45;&gt;Containers_FMap_elements_add</title>
<path fill="none" stroke="black" d="M1350.26,-481.2C1295.21,-420.45 1150.79,-261.06 1095.23,-199.73"/>
<polygon fill="black" stroke="black" points="1097.6,-197.14 1088.3,-192.08 1092.42,-201.84 1097.6,-197.14"/>
</g>
<!-- Containers_FMap_keys_already&#45;&gt;Containers_FMap_find_empty -->
<g id="edge28" class="edge">
<title>Containers_FMap_keys_already&#45;&gt;Containers_FMap_find_empty</title>
<path fill="none" stroke="black" d="M1361.1,-480.4C1334.41,-419.64 1265.94,-263.82 1238.56,-201.52"/>
<polygon fill="black" stroke="black" points="1241.76,-200.1 1234.54,-192.35 1235.35,-202.92 1241.76,-200.1"/>
</g>
<!-- Containers_FMap_keys_already&#45;&gt;Containers_FMap_find_add_ne -->
<g id="edge29" class="edge">
<title>Containers_FMap_keys_already&#45;&gt;Containers_FMap_find_add_ne</title>
<path fill="none" stroke="black" d="M1372,-480.13C1372,-419.54 1372,-265.55 1372,-202.62"/>
<polygon fill="black" stroke="black" points="1375.5,-202.31 1372,-192.31 1368.5,-202.31 1375.5,-202.31"/>
</g>
<!-- Containers_FMap_keys_already&#45;&gt;Containers_FMap_keys -->
<g id="edge30" class="edge">
<title>Containers_FMap_keys_already&#45;&gt;Containers_FMap_keys</title>
<path fill="none" stroke="black" d="M1400.59,-481.73C1475.57,-420.18 1677.01,-254.82 1748.45,-196.18"/>
<polygon fill="black" stroke="black" points="1750.99,-198.62 1756.5,-189.57 1746.55,-193.21 1750.99,-198.62"/>
</g>
<!-- Containers_FMap_remove_empty -->
<g id="node15" class="node">
<title>Containers_FMap_remove_empty</title>
<g id="a_node15"><a xlink:href="Containers.html#FMap.remove_empty" xlink:title="remove_empty">
<ellipse fill="#7fffd4" stroke="black" cx="1791" cy="-871.2" rx="79.11" ry="18"/>
<ellipse fill="none" stroke="black" cx="1791" cy="-871.2" rx="83.1" ry="22"/>
<ellipse fill="none" stroke="black" cx="1791" cy="-871.2" rx="87.09" ry="26"/>
<text text-anchor="middle" x="1791" y="-867.5" font-family="Times,serif" font-size="14.00">remove_empty</text>
</a>
</g>
</g>
<!-- Containers_FMap_add_id -->
<g id="node16" class="node">
<title>Containers_FMap_add_id</title>
<g id="a_node16"><a xlink:href="Containers.html#FMap.add_id" xlink:title="add_id">
<ellipse fill="#7fffd4" stroke="black" cx="1637" cy="-871.2" rx="40.9" ry="18"/>
<ellipse fill="none" stroke="black" cx="1637" cy="-871.2" rx="44.9" ry="22"/>
<ellipse fill="none" stroke="black" cx="1637" cy="-871.2" rx="48.89" ry="26"/>
<text text-anchor="middle" x="1637" y="-867.5" font-family="Times,serif" font-size="14.00">add_id</text>
</a>
</g>
</g>
<!-- Containers_FMap_remove_add -->
<g id="node20" class="node">
<title>Containers_FMap_remove_add</title>
<g id="a_node20"><a xlink:href="Containers.html#FMap.remove_add" xlink:title="remove_add">
<ellipse fill="#7fffd4" stroke="black" cx="1495" cy="-871.2" rx="66.89" ry="18"/>
<ellipse fill="none" stroke="black" cx="1495" cy="-871.2" rx="70.89" ry="22"/>
<ellipse fill="none" stroke="black" cx="1495" cy="-871.2" rx="74.89" ry="26"/>
<text text-anchor="middle" x="1495" y="-867.5" font-family="Times,serif" font-size="14.00">remove_add</text>
</a>
</g>
</g>
<!-- Containers_FMap_find_partial_alter_ne -->
<g id="node26" class="node">
<title>Containers_FMap_find_partial_alter_ne</title>
<g id="a_node26"><a xlink:href="Containers.html#FMap.find_partial_alter_ne" xlink:title="find_partial_alter_ne">
<ellipse fill="#7fffd4" stroke="black" cx="1289" cy="-871.2" rx="105.1" ry="18"/>
<ellipse fill="none" stroke="black" cx="1289" cy="-871.2" rx="109.09" ry="22"/>
<ellipse fill="none" stroke="black" cx="1289" cy="-871.2" rx="113.08" ry="26"/>
<text text-anchor="middle" x="1289" y="-867.5" font-family="Times,serif" font-size="14.00">find_partial_alter_ne</text>
</a>
</g>
</g>
<!-- Containers_FMap_find_partial_alter -->
<g id="node27" class="node">
<title>Containers_FMap_find_partial_alter</title>
<g id="a_node27"><a xlink:href="Containers.html#FMap.find_partial_alter" xlink:title="find_partial_alter">
<ellipse fill="#7fffd4" stroke="black" cx="1060" cy="-871.2" rx="89.87" ry="18"/>
<ellipse fill="none" stroke="black" cx="1060" cy="-871.2" rx="93.88" ry="22"/>
<ellipse fill="none" stroke="black" cx="1060" cy="-871.2" rx="97.88" ry="26"/>
<text text-anchor="middle" x="1060" y="-867.5" font-family="Times,serif" font-size="14.00">find_partial_alter</text>
</a>
</g>
</g>
<!-- Containers_FMap_elements_of_list -->
<g id="node30" class="node">
<title>Containers_FMap_elements_of_list</title>
<g id="a_node30"><a xlink:href="Containers.html#FMap.elements_of_list" xlink:title="elements_of_list">
<ellipse fill="#7fffd4" stroke="black" cx="851" cy="-871.2" rx="85.27" ry="18"/>
<ellipse fill="none" stroke="black" cx="851" cy="-871.2" rx="89.28" ry="22"/>
<ellipse fill="none" stroke="black" cx="851" cy="-871.2" rx="93.29" ry="26"/>
<text text-anchor="middle" x="851" y="-867.5" font-family="Times,serif" font-size="14.00">elements_of_list</text>
</a>
</g>
</g>
<!-- Containers_FMap_of_list_elements -->
<g id="node31" class="node">
<title>Containers_FMap_of_list_elements</title>
<g id="a_node31"><a xlink:href="Containers.html#FMap.of_list_elements" xlink:title="of_list_elements">
<ellipse fill="#7fffd4" stroke="black" cx="647" cy="-871.2" rx="85.27" ry="18"/>
<ellipse fill="none" stroke="black" cx="647" cy="-871.2" rx="89.28" ry="22"/>
<ellipse fill="none" stroke="black" cx="647" cy="-871.2" rx="93.29" ry="26"/>
<text text-anchor="middle" x="647" y="-867.5" font-family="Times,serif" font-size="14.00">of_list_elements</text>
</a>
</g>
</g>
<!-- Containers_FMap_of_elements_eq -->
<g id="node32" class="node">
<title>Containers_FMap_of_elements_eq</title>
<g id="a_node32"><a xlink:href="Containers.html#FMap.of_elements_eq" xlink:title="of_elements_eq">
<ellipse fill="#7fffd4" stroke="black" cx="446" cy="-871.2" rx="81.8" ry="18"/>
<ellipse fill="none" stroke="black" cx="446" cy="-871.2" rx="85.79" ry="22"/>
<ellipse fill="none" stroke="black" cx="446" cy="-871.2" rx="89.79" ry="26"/>
<text text-anchor="middle" x="446" y="-867.5" font-family="Times,serif" font-size="14.00">of_elements_eq</text>
</a>
</g>
</g>
<!-- Containers_FMap_ext_eq -->
<g id="node33" class="node">
<title>Containers_FMap_ext_eq</title>
<g id="a_node33"><a xlink:href="Containers.html#FMap.ext_eq" xlink:title="ext_eq">
<ellipse fill="#7fffd4" stroke="black" cx="289" cy="-871.2" rx="40.9" ry="18"/>
<ellipse fill="none" stroke="black" cx="289" cy="-871.2" rx="44.9" ry="22"/>
<ellipse fill="none" stroke="black" cx="289" cy="-871.2" rx="48.89" ry="26"/>
<text text-anchor="middle" x="289" y="-867.5" font-family="Times,serif" font-size="14.00">ext_eq</text>
</a>
</g>
</g>
<!-- Containers_FMap_values -->
<g id="node35" class="node">
<title>Containers_FMap_values</title>
<g id="a_node35"><a xlink:href="Containers.html#FMap.values" xlink:title="values">
<ellipse fill="#f070d1" stroke="black" cx="174" cy="-871.2" rx="40.13" ry="18"/>
<ellipse fill="none" stroke="black" cx="174" cy="-871.2" rx="44.11" ry="22"/>
<ellipse fill="none" stroke="black" cx="174" cy="-871.2" rx="48.09" ry="26"/>
<text text-anchor="middle" x="174" y="-867.5" font-family="Times,serif" font-size="14.00">values</text>
</a>
</g>
</g>
<!-- Containers_FMap_mem -->
<g id="node37" class="node">
<title>Containers_FMap_mem</title>
<g id="a_node37"><a xlink:href="Containers.html#FMap.mem" xlink:title="mem">
<ellipse fill="#f070d1" stroke="black" cx="66" cy="-871.2" rx="33.63" ry="18"/>
<ellipse fill="none" stroke="black" cx="66" cy="-871.2" rx="37.61" ry="22"/>
<ellipse fill="none" stroke="black" cx="66" cy="-871.2" rx="41.59" ry="26"/>
<text text-anchor="middle" x="66" y="-867.5" font-family="Times,serif" font-size="14.00">mem</text>
</a>
</g>
</g>
</g>
</svg>
