<?xml version="1.0" encoding="UTF-8" standalone="no"?>
<!DOCTYPE svg PUBLIC "-//W3C//DTD SVG 1.1//EN"
 "http://www.w3.org/Graphics/SVG/1.1/DTD/svg11.dtd">
<!-- Generated by graphviz version 2.43.0 (0)
 -->
<!-- Title: DexterTests Pages: 1 -->
<svg width="1799pt" height="903pt"
 viewBox="0.00 0.00 1799.00 903.50" xmlns="http://www.w3.org/2000/svg" xmlns:xlink="http://www.w3.org/1999/xlink">
<g id="graph0" class="graph" transform="scale(1 1) rotate(0) translate(4 899.5)">
<title>DexterTests</title>
<polygon fill="white" stroke="transparent" points="-4,4 -4,-899.5 1795,-899.5 1795,4 -4,4"/>
<g id="clust1" class="cluster">
<title>cluster_DexterTests</title>
<polygon fill="#ffffc3" stroke="black" points="8,-14.27 8,-881.23 1783,-881.23 1783,-14.27 8,-14.27"/>
<text text-anchor="middle" x="59.5" y="-866.03" font-family="Times,serif" font-size="14.00">DexterTests</text>
</g>
<g id="clust2" class="cluster">
<title>cluster_DexterTests_MG</title>
<polygon fill="#ffffa3" stroke="black" points="1549,-142.71 1549,-718.9 1775,-718.9 1775,-142.71 1549,-142.71"/>
<text text-anchor="middle" x="1570" y="-703.7" font-family="Times,serif" font-size="14.00">MG</text>
</g>
<g id="clust3" class="cluster">
<title>cluster_DexterTests_TestInfo</title>
<polygon fill="#ffffa3" stroke="black" points="986,-285.42 986,-419.21 1541,-419.21 1541,-285.42 986,-285.42"/>
<text text-anchor="middle" x="1023" y="-404.01" font-family="Times,serif" font-size="14.00">TestInfo</text>
</g>
<!-- DexterTests_TestInfo_test_accounts -->
<g id="node1" class="node">
<title>DexterTests_TestInfo_test_accounts</title>
<g id="a_node1"><a xlink:href="DexterTests.html#TestInfo.test_accounts" xlink:title="test_accounts">
<ellipse fill="#f070d1" stroke="black" cx="1459" cy="-332.27" rx="74.19" ry="18"/>
<text text-anchor="middle" x="1459" y="-328.57" font-family="Times,serif" font-size="14.00">test_accounts</text>
</a>
</g>
</g>
<!-- DexterTests_TestInfo_dexter_contract_addr -->
<g id="node2" class="node">
<title>DexterTests_TestInfo_dexter_contract_addr</title>
<g id="a_node2"><a xlink:href="DexterTests.html#TestInfo.dexter_contract_addr" xlink:title="dexter_contract_addr">
<ellipse fill="#f070d1" stroke="black" cx="1104" cy="-332.27" rx="109.68" ry="18"/>
<text text-anchor="middle" x="1104" y="-328.57" font-family="Times,serif" font-size="14.00">dexter_contract_addr</text>
</a>
</g>
</g>
<!-- DexterTests_dexter_caddr -->
<g id="node22" class="node">
<title>DexterTests_dexter_caddr</title>
<g id="a_node22"><a xlink:href="DexterTests.html#dexter_caddr" xlink:title="dexter_caddr">
<ellipse fill="#f070d1" stroke="black" cx="472" cy="-189.27" rx="71.49" ry="18"/>
<text text-anchor="middle" x="472" y="-185.57" font-family="Times,serif" font-size="14.00">dexter_caddr</text>
</a>
</g>
</g>
<!-- DexterTests_TestInfo_dexter_contract_addr&#45;&gt;DexterTests_dexter_caddr -->
<g id="edge1" class="edge">
<title>DexterTests_TestInfo_dexter_contract_addr&#45;&gt;DexterTests_dexter_caddr</title>
<path fill="none" stroke="black" d="M1041.67,-317.37C920.36,-290.3 653.88,-230.85 533.35,-203.96"/>
<polygon fill="black" stroke="black" points="534.06,-200.53 523.54,-201.77 532.54,-207.36 534.06,-200.53"/>
</g>
<!-- DexterTests_TestInfo_token_caddr -->
<g id="node3" class="node">
<title>DexterTests_TestInfo_token_caddr</title>
<g id="a_node3"><a xlink:href="DexterTests.html#TestInfo.token_caddr" xlink:title="token_caddr">
<ellipse fill="#f070d1" stroke="black" cx="1299" cy="-332.27" rx="67.69" ry="18"/>
<text text-anchor="middle" x="1299" y="-328.57" font-family="Times,serif" font-size="14.00">token_caddr</text>
</a>
</g>
</g>
<!-- DexterTests_token_caddr -->
<g id="node23" class="node">
<title>DexterTests_token_caddr</title>
<g id="a_node23"><a xlink:href="DexterTests.html#token_caddr" xlink:title="token_caddr">
<ellipse fill="#f070d1" stroke="black" cx="1073" cy="-60.27" rx="67.69" ry="18"/>
<text text-anchor="middle" x="1073" y="-56.57" font-family="Times,serif" font-size="14.00">token_caddr</text>
</a>
</g>
</g>
<!-- DexterTests_TestInfo_token_caddr&#45;&gt;DexterTests_token_caddr -->
<g id="edge2" class="edge">
<title>DexterTests_TestInfo_token_caddr&#45;&gt;DexterTests_token_caddr</title>
<path fill="none" stroke="black" d="M1296.86,-314.18C1292,-281.59 1277.52,-209.66 1240,-163.27 1208.29,-124.07 1157.21,-96.04 1119.89,-79.4"/>
<polygon fill="black" stroke="black" points="1121.28,-76.19 1110.71,-75.42 1118.49,-82.61 1121.28,-76.19"/>
</g>
<!-- DexterTests_MG_gDexterChain -->
<g id="node4" class="node">
<title>DexterTests_MG_gDexterChain</title>
<g id="a_node4"><a xlink:href="DexterTests.html#MG.gDexterChain" xlink:title="gDexterChain">
<ellipse fill="#f070d1" stroke="black" cx="1633" cy="-631.27" rx="75.29" ry="18"/>
<text text-anchor="middle" x="1633" y="-627.57" font-family="Times,serif" font-size="14.00">gDexterChain</text>
</a>
</g>
</g>
<!-- DexterTests_MG_gDexterAction -->
<g id="node5" class="node">
<title>DexterTests_MG_gDexterAction</title>
<g id="a_node5"><a xlink:href="DexterTests.html#MG.gDexterAction" xlink:title="gDexterAction">
<ellipse fill="#f070d1" stroke="black" cx="1634" cy="-489.27" rx="77.19" ry="18"/>
<text text-anchor="middle" x="1634" y="-485.57" font-family="Times,serif" font-size="14.00">gDexterAction</text>
</a>
</g>
</g>
<!-- DexterTests_MG_gDexterChain&#45;&gt;DexterTests_MG_gDexterAction -->
<g id="edge3" class="edge">
<title>DexterTests_MG_gDexterChain&#45;&gt;DexterTests_MG_gDexterAction</title>
<path fill="none" stroke="black" d="M1633.12,-613.1C1633.29,-589.28 1633.6,-545.93 1633.8,-517.62"/>
<polygon fill="black" stroke="black" points="1637.3,-517.6 1633.88,-507.58 1630.3,-517.55 1637.3,-517.6"/>
</g>
<!-- DexterTests_MG_gDexterAction&#45;&gt;DexterTests_TestInfo_test_accounts -->
<g id="edge4" class="edge">
<title>DexterTests_MG_gDexterAction&#45;&gt;DexterTests_TestInfo_test_accounts</title>
<path fill="none" stroke="black" d="M1615.27,-471.68C1583.96,-443.95 1520.9,-388.09 1485.2,-356.48"/>
<polygon fill="black" stroke="black" points="1487.4,-353.75 1477.59,-349.74 1482.76,-358.99 1487.4,-353.75"/>
</g>
<!-- DexterTests_MG_gDexterAction&#45;&gt;DexterTests_TestInfo_dexter_contract_addr -->
<g id="edge5" class="edge">
<title>DexterTests_MG_gDexterAction&#45;&gt;DexterTests_TestInfo_dexter_contract_addr</title>
<path fill="none" stroke="black" d="M1590.41,-474.32C1578.34,-470.59 1565.19,-466.66 1553,-463.27 1406.98,-422.68 1366.12,-428.17 1222,-381.27 1197.45,-373.28 1170.76,-362.6 1148.98,-353.34"/>
<polygon fill="black" stroke="black" points="1150.22,-350.07 1139.65,-349.34 1147.46,-356.5 1150.22,-350.07"/>
</g>
<!-- DexterTests_MG_gDexterAction&#45;&gt;DexterTests_TestInfo_token_caddr -->
<g id="edge6" class="edge">
<title>DexterTests_MG_gDexterAction&#45;&gt;DexterTests_TestInfo_token_caddr</title>
<path fill="none" stroke="black" d="M1593.3,-473.76C1541.66,-454.82 1450.38,-419.55 1376,-381.27 1360.72,-373.41 1344.48,-363.53 1330.87,-354.78"/>
<polygon fill="black" stroke="black" points="1332.63,-351.75 1322.34,-349.23 1328.81,-357.62 1332.63,-351.75"/>
</g>
<!-- DexterTests_MG_gTokenExchange -->
<g id="node6" class="node">
<title>DexterTests_MG_gTokenExchange</title>
<g id="a_node6"><a xlink:href="DexterTests.html#MG.gTokenExchange" xlink:title="gTokenExchange">
<ellipse fill="#f070d1" stroke="black" cx="1654" cy="-332.27" rx="89.08" ry="18"/>
<text text-anchor="middle" x="1654" y="-328.57" font-family="Times,serif" font-size="14.00">gTokenExchange</text>
</a>
</g>
</g>
<!-- DexterTests_MG_gDexterAction&#45;&gt;DexterTests_MG_gTokenExchange -->
<g id="edge7" class="edge">
<title>DexterTests_MG_gDexterAction&#45;&gt;DexterTests_MG_gTokenExchange</title>
<path fill="none" stroke="black" d="M1636.22,-471.09C1639.67,-444.32 1646.37,-392.43 1650.48,-360.52"/>
<polygon fill="black" stroke="black" points="1653.96,-360.89 1651.77,-350.53 1647.02,-360 1653.96,-360.89"/>
</g>
<!-- DexterTests_MG_gTokensToExchange -->
<g id="node7" class="node">
<title>DexterTests_MG_gTokensToExchange</title>
<g id="a_node7"><a xlink:href="DexterTests.html#MG.gTokensToExchange" xlink:title="gTokensToExchange">
<ellipse fill="#f070d1" stroke="black" cx="1662" cy="-189.27" rx="104.78" ry="18"/>
<text text-anchor="middle" x="1662" y="-185.57" font-family="Times,serif" font-size="14.00">gTokensToExchange</text>
</a>
</g>
</g>
<!-- DexterTests_MG_gTokenExchange&#45;&gt;DexterTests_MG_gTokensToExchange -->
<g id="edge8" class="edge">
<title>DexterTests_MG_gTokenExchange&#45;&gt;DexterTests_MG_gTokensToExchange</title>
<path fill="none" stroke="black" d="M1654.96,-314.26C1656.33,-290.23 1658.83,-246.09 1660.46,-217.47"/>
<polygon fill="black" stroke="black" points="1663.96,-217.52 1661.03,-207.34 1656.97,-217.12 1663.96,-217.52"/>
</g>
<!-- DexterTests_tokens_to_asset_correct -->
<g id="node8" class="node">
<title>DexterTests_tokens_to_asset_correct</title>
<g id="a_node8"><a xlink:href="DexterTests.html#tokens_to_asset_correct" xlink:title="tokens_to_asset_correct">
<ellipse fill="#f070d1" stroke="black" cx="1003" cy="-779.27" rx="121.58" ry="18"/>
<ellipse fill="none" stroke="black" cx="1003" cy="-779.27" rx="125.58" ry="22"/>
<ellipse fill="none" stroke="black" cx="1003" cy="-779.27" rx="129.58" ry="26"/>
<text text-anchor="middle" x="1003" y="-775.57" font-family="Times,serif" font-size="14.00">tokens_to_asset_correct</text>
</a>
</g>
</g>
<!-- DexterTests_tokens_to_asset_correct&#45;&gt;DexterTests_MG_gDexterChain -->
<g id="edge9" class="edge">
<title>DexterTests_tokens_to_asset_correct&#45;&gt;DexterTests_MG_gDexterChain</title>
<path fill="none" stroke="black" d="M1123.54,-769.71C1237.5,-758.65 1411.74,-733.98 1554,-680.27 1571.03,-673.84 1588.49,-663.68 1602.64,-654.36"/>
<polygon fill="black" stroke="black" points="1604.67,-657.21 1610.99,-648.71 1600.75,-651.42 1604.67,-657.21"/>
</g>
<!-- DexterTests_tokens_to_asset_correct_P -->
<g id="node9" class="node">
<title>DexterTests_tokens_to_asset_correct_P</title>
<g id="a_node9"><a xlink:href="DexterTests.html#tokens_to_asset_correct_P" xlink:title="tokens_to_asset_correct_P">
<ellipse fill="#f070d1" stroke="black" cx="1003" cy="-631.27" rx="131.88" ry="18"/>
<text text-anchor="middle" x="1003" y="-627.57" font-family="Times,serif" font-size="14.00">tokens_to_asset_correct_P</text>
</a>
</g>
</g>
<!-- DexterTests_tokens_to_asset_correct&#45;&gt;DexterTests_tokens_to_asset_correct_P -->
<g id="edge10" class="edge">
<title>DexterTests_tokens_to_asset_correct&#45;&gt;DexterTests_tokens_to_asset_correct_P</title>
<path fill="none" stroke="black" d="M1003,-753.17C1003,-727.09 1003,-686.4 1003,-659.54"/>
<polygon fill="black" stroke="black" points="1006.5,-659.3 1003,-649.3 999.5,-659.3 1006.5,-659.3"/>
</g>
<!-- DexterTests_chain -->
<g id="node18" class="node">
<title>DexterTests_chain</title>
<g id="a_node18"><a xlink:href="DexterTests.html#chain" xlink:title="chain">
<ellipse fill="#f070d1" stroke="black" cx="758" cy="-332.27" rx="36" ry="18"/>
<text text-anchor="middle" x="758" y="-328.57" font-family="Times,serif" font-size="14.00">chain</text>
</a>
</g>
</g>
<!-- DexterTests_tokens_to_asset_correct&#45;&gt;DexterTests_chain -->
<g id="edge11" class="edge">
<title>DexterTests_tokens_to_asset_correct&#45;&gt;DexterTests_chain</title>
<path fill="none" stroke="black" d="M951.46,-755.25C920.64,-738.79 883.42,-713.64 862,-680.27 809.07,-597.81 853.89,-556.26 823,-463.27 810.32,-425.09 788.22,-384.05 773.36,-358.52"/>
<polygon fill="black" stroke="black" points="776.34,-356.68 768.24,-349.85 770.31,-360.24 776.34,-356.68"/>
</g>
<!-- DexterTests_tokens_to_asset_correct_P_opt -->
<g id="node10" class="node">
<title>DexterTests_tokens_to_asset_correct_P_opt</title>
<g id="a_node10"><a xlink:href="DexterTests.html#tokens_to_asset_correct_P_opt" xlink:title="tokens_to_asset_correct_P_opt">
<ellipse fill="#f070d1" stroke="black" cx="1003" cy="-489.27" rx="151.37" ry="18"/>
<text text-anchor="middle" x="1003" y="-485.57" font-family="Times,serif" font-size="14.00">tokens_to_asset_correct_P_opt</text>
</a>
</g>
</g>
<!-- DexterTests_tokens_to_asset_correct_P&#45;&gt;DexterTests_tokens_to_asset_correct_P_opt -->
<g id="edge12" class="edge">
<title>DexterTests_tokens_to_asset_correct_P&#45;&gt;DexterTests_tokens_to_asset_correct_P_opt</title>
<path fill="none" stroke="black" d="M1003,-613.1C1003,-589.28 1003,-545.93 1003,-517.62"/>
<polygon fill="black" stroke="black" points="1006.5,-517.58 1003,-507.58 999.5,-517.58 1006.5,-517.58"/>
</g>
<!-- DexterTests_account_tokens -->
<g id="node12" class="node">
<title>DexterTests_account_tokens</title>
<g id="a_node12"><a xlink:href="DexterTests.html#account_tokens" xlink:title="account_tokens">
<ellipse fill="#f070d1" stroke="black" cx="894" cy="-332.27" rx="81.79" ry="18"/>
<text text-anchor="middle" x="894" y="-328.57" font-family="Times,serif" font-size="14.00">account_tokens</text>
</a>
</g>
</g>
<!-- DexterTests_tokens_to_asset_correct_P_opt&#45;&gt;DexterTests_account_tokens -->
<g id="edge13" class="edge">
<title>DexterTests_tokens_to_asset_correct_P_opt&#45;&gt;DexterTests_account_tokens</title>
<path fill="none" stroke="black" d="M990.92,-471.09C971.77,-443.86 934.33,-390.62 912,-358.87"/>
<polygon fill="black" stroke="black" points="914.75,-356.69 906.14,-350.53 909.02,-360.72 914.75,-356.69"/>
</g>
<!-- DexterTests_dexter_state -->
<g id="node16" class="node">
<title>DexterTests_dexter_state</title>
<g id="a_node16"><a xlink:href="DexterTests.html#dexter_state" xlink:title="dexter_state">
<ellipse fill="#f070d1" stroke="black" cx="635" cy="-332.27" rx="68.79" ry="18"/>
<text text-anchor="middle" x="635" y="-328.57" font-family="Times,serif" font-size="14.00">dexter_state</text>
</a>
</g>
</g>
<!-- DexterTests_tokens_to_asset_correct_P_opt&#45;&gt;DexterTests_dexter_state -->
<g id="edge14" class="edge">
<title>DexterTests_tokens_to_asset_correct_P_opt&#45;&gt;DexterTests_dexter_state</title>
<path fill="none" stroke="black" d="M950.38,-472.34C891.27,-453.65 793.12,-420.22 713,-381.27 697.28,-373.63 680.68,-363.7 666.85,-354.86"/>
<polygon fill="black" stroke="black" points="668.5,-351.75 658.2,-349.24 664.68,-357.62 668.5,-351.75"/>
</g>
<!-- DexterTests_dexter_token_pool -->
<g id="node11" class="node">
<title>DexterTests_dexter_token_pool</title>
<g id="a_node11"><a xlink:href="DexterTests.html#dexter_token_pool" xlink:title="dexter_token_pool">
<ellipse fill="#f070d1" stroke="black" cx="429" cy="-489.27" rx="94.79" ry="18"/>
<ellipse fill="none" stroke="black" cx="429" cy="-489.27" rx="98.79" ry="22"/>
<ellipse fill="none" stroke="black" cx="429" cy="-489.27" rx="102.78" ry="26"/>
<text text-anchor="middle" x="429" y="-485.57" font-family="Times,serif" font-size="14.00">dexter_token_pool</text>
</a>
</g>
</g>
<!-- DexterTests_dexter_token_pool&#45;&gt;DexterTests_dexter_state -->
<g id="edge15" class="edge">
<title>DexterTests_dexter_token_pool&#45;&gt;DexterTests_dexter_state</title>
<path fill="none" stroke="black" d="M460.74,-464.39C500.08,-434.79 566.64,-384.7 605.11,-355.76"/>
<polygon fill="black" stroke="black" points="607.45,-358.38 613.34,-349.57 603.24,-352.79 607.45,-358.38"/>
</g>
<!-- DexterTests_token_state -->
<g id="node15" class="node">
<title>DexterTests_token_state</title>
<g id="a_node15"><a xlink:href="DexterTests.html#token_state" xlink:title="token_state">
<ellipse fill="#f070d1" stroke="black" cx="1167" cy="-189.27" rx="64.19" ry="18"/>
<text text-anchor="middle" x="1167" y="-185.57" font-family="Times,serif" font-size="14.00">token_state</text>
</a>
</g>
</g>
<!-- DexterTests_account_tokens&#45;&gt;DexterTests_token_state -->
<g id="edge16" class="edge">
<title>DexterTests_account_tokens&#45;&gt;DexterTests_token_state</title>
<path fill="none" stroke="black" d="M924.52,-315.51C974.5,-289.69 1073.71,-238.45 1128.46,-210.17"/>
<polygon fill="black" stroke="black" points="1130.22,-213.2 1137.5,-205.51 1127.01,-206.99 1130.22,-213.2"/>
</g>
<!-- DexterTests_dexter_liquidity -->
<g id="node13" class="node">
<title>DexterTests_dexter_liquidity</title>
<g id="a_node13"><a xlink:href="DexterTests.html#dexter_liquidity" xlink:title="dexter_liquidity">
<ellipse fill="#f070d1" stroke="black" cx="456" cy="-332.27" rx="83.7" ry="18"/>
<ellipse fill="none" stroke="black" cx="456" cy="-332.27" rx="87.69" ry="22"/>
<ellipse fill="none" stroke="black" cx="456" cy="-332.27" rx="91.69" ry="26"/>
<text text-anchor="middle" x="456" y="-328.57" font-family="Times,serif" font-size="14.00">dexter_liquidity</text>
</a>
</g>
</g>
<!-- DexterTests_dexter_liquidity&#45;&gt;DexterTests_dexter_caddr -->
<g id="edge17" class="edge">
<title>DexterTests_dexter_liquidity&#45;&gt;DexterTests_dexter_caddr</title>
<path fill="none" stroke="black" d="M458.86,-306.06C461.69,-281.11 466.01,-243.03 468.92,-217.42"/>
<polygon fill="black" stroke="black" points="472.42,-217.62 470.07,-207.29 465.46,-216.83 472.42,-217.62"/>
</g>
<!-- DexterTests_person_1_initial_balance -->
<g id="node14" class="node">
<title>DexterTests_person_1_initial_balance</title>
<g id="a_node14"><a xlink:href="DexterTests.html#person_1_initial_balance" xlink:title="person_1_initial_balance">
<ellipse fill="#f070d1" stroke="black" cx="682" cy="-489.27" rx="124.27" ry="18"/>
<ellipse fill="none" stroke="black" cx="682" cy="-489.27" rx="128.27" ry="22"/>
<ellipse fill="none" stroke="black" cx="682" cy="-489.27" rx="132.28" ry="26"/>
<text text-anchor="middle" x="682" y="-485.57" font-family="Times,serif" font-size="14.00">person_1_initial_balance</text>
</a>
</g>
</g>
<!-- DexterTests_person_1_initial_balance&#45;&gt;DexterTests_chain -->
<g id="edge18" class="edge">
<title>DexterTests_person_1_initial_balance&#45;&gt;DexterTests_chain</title>
<path fill="none" stroke="black" d="M694.21,-463.37C708.23,-434.77 731.13,-388.07 745.34,-359.09"/>
<polygon fill="black" stroke="black" points="748.54,-360.51 749.8,-349.99 742.26,-357.43 748.54,-360.51"/>
</g>
<!-- DexterTests_token_state&#45;&gt;DexterTests_token_caddr -->
<g id="edge19" class="edge">
<title>DexterTests_token_state&#45;&gt;DexterTests_token_caddr</title>
<path fill="none" stroke="black" d="M1154.52,-171.41C1138.43,-149.68 1110.33,-111.71 1091.7,-86.53"/>
<polygon fill="black" stroke="black" points="1094.3,-84.16 1085.53,-78.21 1088.67,-88.33 1094.3,-84.16"/>
</g>
<!-- DexterTests_dexter_state&#45;&gt;DexterTests_dexter_caddr -->
<g id="edge20" class="edge">
<title>DexterTests_dexter_state&#45;&gt;DexterTests_dexter_caddr</title>
<path fill="none" stroke="black" d="M615.98,-314.82C587.11,-289.84 532.07,-242.24 499.04,-213.66"/>
<polygon fill="black" stroke="black" points="501,-210.73 491.15,-206.83 496.42,-216.02 501,-210.73"/>
</g>
<!-- DexterTests_add_block_with_acts -->
<g id="node17" class="node">
<title>DexterTests_add_block_with_acts</title>
<g id="a_node17"><a xlink:href="DexterTests.html#add_block_with_acts" xlink:title="add_block_with_acts">
<ellipse fill="#f070d1" stroke="black" cx="474" cy="-779.27" rx="104.77" ry="18"/>
<ellipse fill="none" stroke="black" cx="474" cy="-779.27" rx="108.78" ry="22"/>
<ellipse fill="none" stroke="black" cx="474" cy="-779.27" rx="112.78" ry="26"/>
<text text-anchor="middle" x="474" y="-775.57" font-family="Times,serif" font-size="14.00">add_block_with_acts</text>
</a>
</g>
</g>
<!-- DexterTests_add_as_operator_act -->
<g id="node20" class="node">
<title>DexterTests_add_as_operator_act</title>
<g id="a_node20"><a xlink:href="DexterTests.html#add_as_operator_act" xlink:title="add_as_operator_act">
<ellipse fill="#f070d1" stroke="black" cx="979" cy="-189.27" rx="105.08" ry="18"/>
<text text-anchor="middle" x="979" y="-185.57" font-family="Times,serif" font-size="14.00">add_as_operator_act</text>
</a>
</g>
</g>
<!-- DexterTests_chain&#45;&gt;DexterTests_add_as_operator_act -->
<g id="edge21" class="edge">
<title>DexterTests_chain&#45;&gt;DexterTests_add_as_operator_act</title>
<path fill="none" stroke="black" d="M779.19,-317.75C817.45,-293.34 898.39,-241.7 944.65,-212.18"/>
<polygon fill="black" stroke="black" points="946.6,-215.1 953.15,-206.77 942.83,-209.19 946.6,-215.1"/>
</g>
<!-- DexterTests_dexter_setup -->
<g id="node21" class="node">
<title>DexterTests_dexter_setup</title>
<g id="a_node21"><a xlink:href="DexterTests.html#dexter_setup" xlink:title="dexter_setup">
<ellipse fill="#f070d1" stroke="black" cx="784" cy="-189.27" rx="71.49" ry="18"/>
<text text-anchor="middle" x="784" y="-185.57" font-family="Times,serif" font-size="14.00">dexter_setup</text>
</a>
</g>
</g>
<!-- DexterTests_chain&#45;&gt;DexterTests_dexter_setup -->
<g id="edge22" class="edge">
<title>DexterTests_chain&#45;&gt;DexterTests_dexter_setup</title>
<path fill="none" stroke="black" d="M761.14,-314.26C765.57,-290.23 773.71,-246.09 778.98,-217.47"/>
<polygon fill="black" stroke="black" points="782.48,-217.81 780.85,-207.34 775.6,-216.54 782.48,-217.81"/>
</g>
<!-- DexterTests_chain&#45;&gt;DexterTests_dexter_caddr -->
<g id="edge23" class="edge">
<title>DexterTests_chain&#45;&gt;DexterTests_dexter_caddr</title>
<path fill="none" stroke="black" d="M735.25,-318.29C728.17,-314.34 720.3,-310.05 713,-306.27 644.19,-270.64 562.68,-232.17 514.27,-209.7"/>
<polygon fill="black" stroke="black" points="515.59,-206.46 505.04,-205.43 512.65,-212.81 515.59,-206.46"/>
</g>
<!-- DexterTests_token_setup -->
<g id="node24" class="node">
<title>DexterTests_token_setup</title>
<g id="a_node24"><a xlink:href="DexterTests.html#token_setup" xlink:title="token_setup">
<ellipse fill="#f070d1" stroke="black" cx="628" cy="-189.27" rx="66.89" ry="18"/>
<text text-anchor="middle" x="628" y="-185.57" font-family="Times,serif" font-size="14.00">token_setup</text>
</a>
</g>
</g>
<!-- DexterTests_chain&#45;&gt;DexterTests_token_setup -->
<g id="edge24" class="edge">
<title>DexterTests_chain&#45;&gt;DexterTests_token_setup</title>
<path fill="none" stroke="black" d="M743.59,-315.64C720.99,-291.13 677.04,-243.46 650.32,-214.48"/>
<polygon fill="black" stroke="black" points="652.63,-211.82 643.28,-206.84 647.48,-216.57 652.63,-211.82"/>
</g>
<!-- DexterTests_exchange_tokens_to_money_act -->
<g id="node19" class="node">
<title>DexterTests_exchange_tokens_to_money_act</title>
<g id="a_node19"><a xlink:href="DexterTests.html#exchange_tokens_to_money_act" xlink:title="exchange_tokens_to_money_act">
<ellipse fill="#f070d1" stroke="black" cx="181" cy="-332.27" rx="157.08" ry="18"/>
<ellipse fill="none" stroke="black" cx="181" cy="-332.27" rx="161.08" ry="22"/>
<ellipse fill="none" stroke="black" cx="181" cy="-332.27" rx="165.07" ry="26"/>
<text text-anchor="middle" x="181" y="-328.57" font-family="Times,serif" font-size="14.00">exchange_tokens_to_money_act</text>
</a>
</g>
</g>
<!-- DexterTests_exchange_tokens_to_money_act&#45;&gt;DexterTests_dexter_caddr -->
<g id="edge25" class="edge">
<title>DexterTests_exchange_tokens_to_money_act&#45;&gt;DexterTests_dexter_caddr</title>
<path fill="none" stroke="black" d="M230.36,-307.35C286.96,-279.93 378.69,-235.48 431.35,-209.97"/>
<polygon fill="black" stroke="black" points="432.92,-213.09 440.4,-205.58 429.87,-206.8 432.92,-213.09"/>
</g>
<!-- DexterTests_add_as_operator_act&#45;&gt;DexterTests_token_caddr -->
<g id="edge26" class="edge">
<title>DexterTests_add_as_operator_act&#45;&gt;DexterTests_token_caddr</title>
<path fill="none" stroke="black" d="M991.68,-171.14C1007.82,-149.34 1035.82,-111.5 1054.39,-86.42"/>
<polygon fill="black" stroke="black" points="1057.39,-88.25 1060.52,-78.13 1051.76,-84.08 1057.39,-88.25"/>
</g>
<!-- DexterTests_dexter_setup&#45;&gt;DexterTests_token_caddr -->
<g id="edge27" class="edge">
<title>DexterTests_dexter_setup&#45;&gt;DexterTests_token_caddr</title>
<path fill="none" stroke="black" d="M818,-173.33C870.86,-150.1 972.66,-105.36 1030.36,-80.01"/>
<polygon fill="black" stroke="black" points="1031.83,-83.19 1039.57,-75.96 1029.01,-76.78 1031.83,-83.19"/>
</g>
<!-- DexterTests_token_pool_size -->
<g id="node25" class="node">
<title>DexterTests_token_pool_size</title>
<g id="a_node25"><a xlink:href="DexterTests.html#token_pool_size" xlink:title="token_pool_size">
<ellipse fill="#f070d1" stroke="black" cx="706" cy="-60.27" rx="83.39" ry="18"/>
<text text-anchor="middle" x="706" y="-56.57" font-family="Times,serif" font-size="14.00">token_pool_size</text>
</a>
</g>
</g>
<!-- DexterTests_dexter_setup&#45;&gt;DexterTests_token_pool_size -->
<g id="edge28" class="edge">
<title>DexterTests_dexter_setup&#45;&gt;DexterTests_token_pool_size</title>
<path fill="none" stroke="black" d="M773.64,-171.41C760.36,-149.77 737.18,-112.04 721.72,-86.86"/>
<polygon fill="black" stroke="black" points="724.62,-84.89 716.4,-78.21 718.65,-88.56 724.62,-84.89"/>
</g>
<!-- DexterTests_token_setup&#45;&gt;DexterTests_token_pool_size -->
<g id="edge29" class="edge">
<title>DexterTests_token_setup&#45;&gt;DexterTests_token_pool_size</title>
<path fill="none" stroke="black" d="M638.36,-171.41C651.64,-149.77 674.82,-112.04 690.28,-86.86"/>
<polygon fill="black" stroke="black" points="693.35,-88.56 695.6,-78.21 687.38,-84.89 693.35,-88.56"/>
</g>
</g>
</svg>
