<?xml version="1.0" encoding="UTF-8" standalone="no"?>
<!DOCTYPE svg PUBLIC "-//W3C//DTD SVG 1.1//EN"
 "http://www.w3.org/Graphics/SVG/1.1/DTD/svg11.dtd">
<!-- Generated by graphviz version 2.43.0 (0)
 -->
<!-- Title: BATTestCommon Pages: 1 -->
<svg width="5941pt" height="2975pt"
 viewBox="0.00 0.00 5941.00 2974.50" xmlns="http://www.w3.org/2000/svg" xmlns:xlink="http://www.w3.org/1999/xlink">
<g id="graph0" class="graph" transform="scale(1 1) rotate(0) translate(4 2970.5)">
<title>BATTestCommon</title>
<polygon fill="white" stroke="transparent" points="-4,4 -4,-2970.5 5937,-2970.5 5937,4 -4,4"/>
<g id="clust1" class="cluster">
<title>cluster_BATTestCommon</title>
<polygon fill="#ffffc3" stroke="black" points="8,-70.01 8,-2896.49 5925,-2896.49 5925,-70.01 8,-70.01"/>
<text text-anchor="middle" x="77.5" y="-2881.29" font-family="Times,serif" font-size="14.00">BATTestCommon</text>
</g>
<!-- BATTestCommon_is_finalized -->
<g id="node1" class="node">
<title>BATTestCommon_is_finalized</title>
<g id="a_node1"><a xlink:href="BATTestCommon.html#is_finalized" xlink:title="is_finalized">
<ellipse fill="#f070d1" stroke="black" cx="1214" cy="-998.01" rx="61.96" ry="18"/>
<ellipse fill="none" stroke="black" cx="1214" cy="-998.01" rx="65.98" ry="22"/>
<ellipse fill="none" stroke="black" cx="1214" cy="-998.01" rx="69.99" ry="26"/>
<text text-anchor="middle" x="1214" y="-994.31" font-family="Times,serif" font-size="14.00">is_finalized</text>
</a>
</g>
</g>
<!-- BATTestCommon_contract_base_addr -->
<g id="node36" class="node">
<title>BATTestCommon_contract_base_addr</title>
<g id="a_node36"><a xlink:href="BATTestCommon.html#contract_base_addr" xlink:title="contract_base_addr">
<ellipse fill="#f070d1" stroke="black" cx="634" cy="-298.01" rx="100.98" ry="18"/>
<text text-anchor="middle" x="634" y="-294.31" font-family="Times,serif" font-size="14.00">contract_base_addr</text>
</a>
</g>
</g>
<!-- BATTestCommon_is_finalized&#45;&gt;BATTestCommon_contract_base_addr -->
<g id="edge1" class="edge">
<title>BATTestCommon_is_finalized&#45;&gt;BATTestCommon_contract_base_addr</title>
<path fill="none" stroke="black" d="M1194.04,-972.98C1105.02,-865.86 744.79,-432.34 654.57,-323.76"/>
<polygon fill="black" stroke="black" points="657.16,-321.4 648.07,-315.94 651.77,-325.87 657.16,-321.4"/>
</g>
<!-- BATTestCommon_exchange_rate_non_zero -->
<g id="node2" class="node">
<title>BATTestCommon_exchange_rate_non_zero</title>
<g id="a_node2"><a xlink:href="BATTestCommon.html#exchange_rate_non_zero" xlink:title="exchange_rate_non_zero">
<ellipse fill="#f070d1" stroke="black" cx="5785" cy="-2398.01" rx="124.27" ry="18"/>
<ellipse fill="none" stroke="black" cx="5785" cy="-2398.01" rx="128.27" ry="22"/>
<ellipse fill="none" stroke="black" cx="5785" cy="-2398.01" rx="132.28" ry="26"/>
<text text-anchor="middle" x="5785" y="-2394.31" font-family="Times,serif" font-size="14.00">exchange_rate_non_zero</text>
</a>
</g>
</g>
<!-- BATTestCommon_initial_supply_le_cap -->
<g id="node3" class="node">
<title>BATTestCommon_initial_supply_le_cap</title>
<g id="a_node3"><a xlink:href="BATTestCommon.html#initial_supply_le_cap" xlink:title="initial_supply_le_cap">
<ellipse fill="#f070d1" stroke="black" cx="5521" cy="-2398.01" rx="105.89" ry="18"/>
<ellipse fill="none" stroke="black" cx="5521" cy="-2398.01" rx="109.88" ry="22"/>
<ellipse fill="none" stroke="black" cx="5521" cy="-2398.01" rx="113.88" ry="26"/>
<text text-anchor="middle" x="5521" y="-2394.31" font-family="Times,serif" font-size="14.00">initial_supply_le_cap</text>
</a>
</g>
</g>
<!-- BATTestCommon_funding_period_non_empty -->
<g id="node4" class="node">
<title>BATTestCommon_funding_period_non_empty</title>
<g id="a_node4"><a xlink:href="BATTestCommon.html#funding_period_non_empty" xlink:title="funding_period_non_empty">
<ellipse fill="#f070d1" stroke="black" cx="5245" cy="-2398.01" rx="135.69" ry="18"/>
<ellipse fill="none" stroke="black" cx="5245" cy="-2398.01" rx="139.68" ry="22"/>
<ellipse fill="none" stroke="black" cx="5245" cy="-2398.01" rx="143.68" ry="26"/>
<text text-anchor="middle" x="5245" y="-2394.31" font-family="Times,serif" font-size="14.00">funding_period_non_empty</text>
</a>
</g>
</g>
<!-- BATTestCommon_funding_period_not_over -->
<g id="node5" class="node">
<title>BATTestCommon_funding_period_not_over</title>
<g id="a_node5"><a xlink:href="BATTestCommon.html#funding_period_not_over" xlink:title="funding_period_not_over">
<ellipse fill="#f070d1" stroke="black" cx="4950" cy="-2398.01" rx="124.59" ry="18"/>
<ellipse fill="none" stroke="black" cx="4950" cy="-2398.01" rx="128.58" ry="22"/>
<ellipse fill="none" stroke="black" cx="4950" cy="-2398.01" rx="132.58" ry="26"/>
<text text-anchor="middle" x="4950" y="-2394.31" font-family="Times,serif" font-size="14.00">funding_period_not_over</text>
</a>
</g>
</g>
<!-- BATTestCommon_only_transfers_modulo_exhange_rate -->
<g id="node6" class="node">
<title>BATTestCommon_only_transfers_modulo_exhange_rate</title>
<g id="a_node6"><a xlink:href="BATTestCommon.html#only_transfers_modulo_exhange_rate" xlink:title="only_transfers_modulo_exhange_rate">
<ellipse fill="#f070d1" stroke="black" cx="4609" cy="-2398.01" rx="182.76" ry="18"/>
<ellipse fill="none" stroke="black" cx="4609" cy="-2398.01" rx="186.76" ry="22"/>
<ellipse fill="none" stroke="black" cx="4609" cy="-2398.01" rx="190.77" ry="26"/>
<text text-anchor="middle" x="4609" y="-2394.31" font-family="Times,serif" font-size="14.00">only_transfers_modulo_exhange_rate</text>
</a>
</g>
</g>
<!-- BATTestCommon_exchangeRate_ -->
<g id="node32" class="node">
<title>BATTestCommon_exchangeRate_</title>
<g id="a_node32"><a xlink:href="BATTestCommon.html#exchangeRate_" xlink:title="exchangeRate_">
<ellipse fill="#f070d1" stroke="black" cx="4609" cy="-1698.01" rx="80.69" ry="18"/>
<text text-anchor="middle" x="4609" y="-1694.31" font-family="Times,serif" font-size="14.00">exchangeRate_</text>
</a>
</g>
</g>
<!-- BATTestCommon_only_transfers_modulo_exhange_rate&#45;&gt;BATTestCommon_exchangeRate_ -->
<g id="edge2" class="edge">
<title>BATTestCommon_only_transfers_modulo_exhange_rate&#45;&gt;BATTestCommon_exchangeRate_</title>
<path fill="none" stroke="black" d="M4609,-2371.75C4609,-2263.42 4609,-1838.47 4609,-1726.29"/>
<polygon fill="black" stroke="black" points="4612.5,-1726.14 4609,-1716.14 4605.5,-1726.14 4612.5,-1726.14"/>
</g>
<!-- BATTestCommon_is_fully_refunded -->
<g id="node7" class="node">
<title>BATTestCommon_is_fully_refunded</title>
<g id="a_node7"><a xlink:href="BATTestCommon.html#is_fully_refunded" xlink:title="is_fully_refunded">
<ellipse fill="#f070d1" stroke="black" cx="1029" cy="-998.01" rx="89.87" ry="18"/>
<ellipse fill="none" stroke="black" cx="1029" cy="-998.01" rx="93.88" ry="22"/>
<ellipse fill="none" stroke="black" cx="1029" cy="-998.01" rx="97.88" ry="26"/>
<text text-anchor="middle" x="1029" y="-994.31" font-family="Times,serif" font-size="14.00">is_fully_refunded</text>
</a>
</g>
</g>
<!-- BATTestCommon_is_fully_refunded&#45;&gt;BATTestCommon_contract_base_addr -->
<g id="edge3" class="edge">
<title>BATTestCommon_is_fully_refunded&#45;&gt;BATTestCommon_contract_base_addr</title>
<path fill="none" stroke="black" d="M1014.94,-972.16C953.78,-864.09 711.14,-435.32 648.71,-325"/>
<polygon fill="black" stroke="black" points="651.69,-323.16 643.72,-316.18 645.6,-326.61 651.69,-323.16"/>
</g>
<!-- BATTestCommon_no_transfers_to_batfund -->
<g id="node8" class="node">
<title>BATTestCommon_no_transfers_to_batfund</title>
<g id="a_node8"><a xlink:href="BATTestCommon.html#no_transfers_to_batfund" xlink:title="no_transfers_to_batfund">
<ellipse fill="#f070d1" stroke="black" cx="4270" cy="-2398.01" rx="122.69" ry="18"/>
<ellipse fill="none" stroke="black" cx="4270" cy="-2398.01" rx="126.68" ry="22"/>
<ellipse fill="none" stroke="black" cx="4270" cy="-2398.01" rx="130.68" ry="26"/>
<text text-anchor="middle" x="4270" y="-2394.31" font-family="Times,serif" font-size="14.00">no_transfers_to_batfund</text>
</a>
</g>
</g>
<!-- BATTestCommon_batFund -->
<g id="node34" class="node">
<title>BATTestCommon_batFund</title>
<g id="a_node34"><a xlink:href="BATTestCommon.html#batFund" xlink:title="batFund">
<ellipse fill="#f070d1" stroke="black" cx="3982" cy="-1698.01" rx="50.09" ry="18"/>
<text text-anchor="middle" x="3982" y="-1694.31" font-family="Times,serif" font-size="14.00">batFund</text>
</a>
</g>
</g>
<!-- BATTestCommon_no_transfers_to_batfund&#45;&gt;BATTestCommon_batFund -->
<g id="edge4" class="edge">
<title>BATTestCommon_no_transfers_to_batfund&#45;&gt;BATTestCommon_batFund</title>
<path fill="none" stroke="black" d="M4259.58,-2371.75C4214.74,-2263.08 4038.45,-1835.82 3992.83,-1725.25"/>
<polygon fill="black" stroke="black" points="3995.99,-1723.75 3988.94,-1715.84 3989.52,-1726.42 3995.99,-1723.75"/>
</g>
<!-- BATTestCommon_no_batfund_create_tokens -->
<g id="node9" class="node">
<title>BATTestCommon_no_batfund_create_tokens</title>
<g id="a_node9"><a xlink:href="BATTestCommon.html#no_batfund_create_tokens" xlink:title="no_batfund_create_tokens">
<ellipse fill="#f070d1" stroke="black" cx="3982" cy="-2398.01" rx="131.09" ry="18"/>
<ellipse fill="none" stroke="black" cx="3982" cy="-2398.01" rx="135.08" ry="22"/>
<ellipse fill="none" stroke="black" cx="3982" cy="-2398.01" rx="139.08" ry="26"/>
<text text-anchor="middle" x="3982" y="-2394.31" font-family="Times,serif" font-size="14.00">no_batfund_create_tokens</text>
</a>
</g>
</g>
<!-- BATTestCommon_no_batfund_create_tokens&#45;&gt;BATTestCommon_batFund -->
<g id="edge5" class="edge">
<title>BATTestCommon_no_batfund_create_tokens&#45;&gt;BATTestCommon_batFund</title>
<path fill="none" stroke="black" d="M3982,-2371.75C3982,-2263.42 3982,-1838.47 3982,-1726.29"/>
<polygon fill="black" stroke="black" points="3985.5,-1726.14 3982,-1716.14 3978.5,-1726.14 3985.5,-1726.14"/>
</g>
<!-- BATTestCommon_no_transfers_from_bat_fund -->
<g id="node10" class="node">
<title>BATTestCommon_no_transfers_from_bat_fund</title>
<g id="a_node10"><a xlink:href="BATTestCommon.html#no_transfers_from_bat_fund" xlink:title="no_transfers_from_bat_fund">
<ellipse fill="#f070d1" stroke="black" cx="3677" cy="-2398.01" rx="139.96" ry="18"/>
<ellipse fill="none" stroke="black" cx="3677" cy="-2398.01" rx="143.97" ry="22"/>
<ellipse fill="none" stroke="black" cx="3677" cy="-2398.01" rx="147.98" ry="26"/>
<text text-anchor="middle" x="3677" y="-2394.31" font-family="Times,serif" font-size="14.00">no_transfers_from_bat_fund</text>
</a>
</g>
</g>
<!-- BATTestCommon_no_transfers_from_bat_fund&#45;&gt;BATTestCommon_batFund -->
<g id="edge6" class="edge">
<title>BATTestCommon_no_transfers_from_bat_fund&#45;&gt;BATTestCommon_batFund</title>
<path fill="none" stroke="black" d="M3688.04,-2371.75C3735.52,-2263.08 3922.22,-1835.82 3970.53,-1725.25"/>
<polygon fill="black" stroke="black" points="3973.85,-1726.4 3974.65,-1715.84 3967.43,-1723.6 3973.85,-1726.4"/>
</g>
<!-- BATTestCommon_produces_one_action -->
<g id="node11" class="node">
<title>BATTestCommon_produces_one_action</title>
<g id="a_node11"><a xlink:href="BATTestCommon.html#produces_one_action" xlink:title="produces_one_action">
<ellipse fill="#f070d1" stroke="black" cx="3397" cy="-2398.01" rx="106.67" ry="18"/>
<ellipse fill="none" stroke="black" cx="3397" cy="-2398.01" rx="110.68" ry="22"/>
<ellipse fill="none" stroke="black" cx="3397" cy="-2398.01" rx="114.68" ry="26"/>
<text text-anchor="middle" x="3397" y="-2394.31" font-family="Times,serif" font-size="14.00">produces_one_action</text>
</a>
</g>
</g>
<!-- BATTestCommon_produces_no_actions -->
<g id="node12" class="node">
<title>BATTestCommon_produces_no_actions</title>
<g id="a_node12"><a xlink:href="BATTestCommon.html#produces_no_actions" xlink:title="produces_no_actions">
<ellipse fill="#f070d1" stroke="black" cx="3150" cy="-2398.01" rx="106.67" ry="18"/>
<ellipse fill="none" stroke="black" cx="3150" cy="-2398.01" rx="110.68" ry="22"/>
<ellipse fill="none" stroke="black" cx="3150" cy="-2398.01" rx="114.68" ry="26"/>
<text text-anchor="middle" x="3150" y="-2394.31" font-family="Times,serif" font-size="14.00">produces_no_actions</text>
</a>
</g>
</g>
<!-- BATTestCommon_amount_is_positive -->
<g id="node13" class="node">
<title>BATTestCommon_amount_is_positive</title>
<g id="a_node13"><a xlink:href="BATTestCommon.html#amount_is_positive" xlink:title="amount_is_positive">
<ellipse fill="#f070d1" stroke="black" cx="2911" cy="-2398.01" rx="98.6" ry="18"/>
<ellipse fill="none" stroke="black" cx="2911" cy="-2398.01" rx="102.59" ry="22"/>
<ellipse fill="none" stroke="black" cx="2911" cy="-2398.01" rx="106.58" ry="26"/>
<text text-anchor="middle" x="2911" y="-2394.31" font-family="Times,serif" font-size="14.00">amount_is_positive</text>
</a>
</g>
</g>
<!-- BATTestCommon_amount_is_zero -->
<g id="node14" class="node">
<title>BATTestCommon_amount_is_zero</title>
<g id="a_node14"><a xlink:href="BATTestCommon.html#amount_is_zero" xlink:title="amount_is_zero">
<ellipse fill="#f070d1" stroke="black" cx="2696" cy="-2398.01" rx="82.58" ry="18"/>
<ellipse fill="none" stroke="black" cx="2696" cy="-2398.01" rx="86.58" ry="22"/>
<ellipse fill="none" stroke="black" cx="2696" cy="-2398.01" rx="90.59" ry="26"/>
<text text-anchor="middle" x="2696" y="-2394.31" font-family="Times,serif" font-size="14.00">amount_is_zero</text>
</a>
</g>
</g>
<!-- BATTestCommon_msg_is_refund -->
<g id="node15" class="node">
<title>BATTestCommon_msg_is_refund</title>
<g id="a_node15"><a xlink:href="BATTestCommon.html#msg_is_refund" xlink:title="msg_is_refund">
<ellipse fill="#f070d1" stroke="black" cx="2502" cy="-2398.01" rx="77.2" ry="18"/>
<ellipse fill="none" stroke="black" cx="2502" cy="-2398.01" rx="81.19" ry="22"/>
<ellipse fill="none" stroke="black" cx="2502" cy="-2398.01" rx="85.19" ry="26"/>
<text text-anchor="middle" x="2502" y="-2394.31" font-family="Times,serif" font-size="14.00">msg_is_refund</text>
</a>
</g>
</g>
<!-- BATTestCommon_msg_is_finalize -->
<g id="node16" class="node">
<title>BATTestCommon_msg_is_finalize</title>
<g id="a_node16"><a xlink:href="BATTestCommon.html#msg_is_finalize" xlink:title="msg_is_finalize">
<ellipse fill="#f070d1" stroke="black" cx="2311" cy="-2398.01" rx="79.89" ry="18"/>
<ellipse fill="none" stroke="black" cx="2311" cy="-2398.01" rx="83.89" ry="22"/>
<ellipse fill="none" stroke="black" cx="2311" cy="-2398.01" rx="87.89" ry="26"/>
<text text-anchor="middle" x="2311" y="-2394.31" font-family="Times,serif" font-size="14.00">msg_is_finalize</text>
</a>
</g>
</g>
<!-- BATTestCommon_msg_is_create_tokens -->
<g id="node17" class="node">
<title>BATTestCommon_msg_is_create_tokens</title>
<g id="a_node17"><a xlink:href="BATTestCommon.html#msg_is_create_tokens" xlink:title="msg_is_create_tokens">
<ellipse fill="#f070d1" stroke="black" cx="2086" cy="-2398.01" rx="111.27" ry="18"/>
<ellipse fill="none" stroke="black" cx="2086" cy="-2398.01" rx="115.28" ry="22"/>
<ellipse fill="none" stroke="black" cx="2086" cy="-2398.01" rx="119.28" ry="26"/>
<text text-anchor="middle" x="2086" y="-2394.31" font-family="Times,serif" font-size="14.00">msg_is_create_tokens</text>
</a>
</g>
</g>
<!-- BATTestCommon_msg_is_approve -->
<g id="node18" class="node">
<title>BATTestCommon_msg_is_approve</title>
<g id="a_node18"><a xlink:href="BATTestCommon.html#msg_is_approve" xlink:title="msg_is_approve">
<ellipse fill="#f070d1" stroke="black" cx="1856" cy="-2398.01" rx="84.49" ry="18"/>
<ellipse fill="none" stroke="black" cx="1856" cy="-2398.01" rx="88.49" ry="22"/>
<ellipse fill="none" stroke="black" cx="1856" cy="-2398.01" rx="92.49" ry="26"/>
<text text-anchor="middle" x="1856" y="-2394.31" font-family="Times,serif" font-size="14.00">msg_is_approve</text>
</a>
</g>
</g>
<!-- BATTestCommon_msg_is_transfer_from -->
<g id="node19" class="node">
<title>BATTestCommon_msg_is_transfer_from</title>
<g id="a_node19"><a xlink:href="BATTestCommon.html#msg_is_transfer_from" xlink:title="msg_is_transfer_from">
<ellipse fill="#f070d1" stroke="black" cx="1627" cy="-2398.01" rx="110.48" ry="18"/>
<ellipse fill="none" stroke="black" cx="1627" cy="-2398.01" rx="114.48" ry="22"/>
<ellipse fill="none" stroke="black" cx="1627" cy="-2398.01" rx="118.48" ry="26"/>
<text text-anchor="middle" x="1627" y="-2394.31" font-family="Times,serif" font-size="14.00">msg_is_transfer_from</text>
</a>
</g>
</g>
<!-- BATTestCommon_msg_is_transfer -->
<g id="node20" class="node">
<title>BATTestCommon_msg_is_transfer</title>
<g id="a_node20"><a xlink:href="BATTestCommon.html#msg_is_transfer" xlink:title="msg_is_transfer">
<ellipse fill="#f070d1" stroke="black" cx="1398" cy="-2398.01" rx="84.49" ry="18"/>
<ellipse fill="none" stroke="black" cx="1398" cy="-2398.01" rx="88.49" ry="22"/>
<ellipse fill="none" stroke="black" cx="1398" cy="-2398.01" rx="92.49" ry="26"/>
<text text-anchor="middle" x="1398" y="-2394.31" font-family="Times,serif" font-size="14.00">msg_is_transfer</text>
</a>
</g>
</g>
<!-- BATTestCommon_msg_is_eip_msg -->
<g id="node21" class="node">
<title>BATTestCommon_msg_is_eip_msg</title>
<g id="a_node21"><a xlink:href="BATTestCommon.html#msg_is_eip_msg" xlink:title="msg_is_eip_msg">
<ellipse fill="#f070d1" stroke="black" cx="1194" cy="-2398.01" rx="85.27" ry="18"/>
<ellipse fill="none" stroke="black" cx="1194" cy="-2398.01" rx="89.28" ry="22"/>
<ellipse fill="none" stroke="black" cx="1194" cy="-2398.01" rx="93.29" ry="26"/>
<text text-anchor="middle" x="1194" y="-2394.31" font-family="Times,serif" font-size="14.00">msg_is_eip_msg</text>
</a>
</g>
</g>
<!-- BATTestCommon_get_balance -->
<g id="node22" class="node">
<title>BATTestCommon_get_balance</title>
<g id="a_node22"><a xlink:href="BATTestCommon.html#get_balance" xlink:title="get_balance">
<ellipse fill="#f070d1" stroke="black" cx="1009" cy="-2398.01" rx="65.77" ry="18"/>
<ellipse fill="none" stroke="black" cx="1009" cy="-2398.01" rx="69.78" ry="22"/>
<ellipse fill="none" stroke="black" cx="1009" cy="-2398.01" rx="73.79" ry="26"/>
<text text-anchor="middle" x="1009" y="-2394.31" font-family="Times,serif" font-size="14.00">get_balance</text>
</a>
</g>
</g>
<!-- BATTestCommon_fmap_filter_eqb -->
<g id="node23" class="node">
<title>BATTestCommon_fmap_filter_eqb</title>
<g id="a_node23"><a xlink:href="BATTestCommon.html#fmap_filter_eqb" xlink:title="fmap_filter_eqb">
<ellipse fill="#f070d1" stroke="black" cx="827" cy="-2398.01" rx="82.58" ry="18"/>
<ellipse fill="none" stroke="black" cx="827" cy="-2398.01" rx="86.58" ry="22"/>
<ellipse fill="none" stroke="black" cx="827" cy="-2398.01" rx="90.59" ry="26"/>
<text text-anchor="middle" x="827" y="-2394.31" font-family="Times,serif" font-size="14.00">fmap_filter_eqb</text>
</a>
</g>
</g>
<!-- BATTestCommon_fmap_eqb -->
<g id="node24" class="node">
<title>BATTestCommon_fmap_eqb</title>
<g id="a_node24"><a xlink:href="BATTestCommon.html#fmap_eqb" xlink:title="fmap_eqb">
<ellipse fill="#f070d1" stroke="black" cx="827" cy="-1698.01" rx="55.79" ry="18"/>
<text text-anchor="middle" x="827" y="-1694.31" font-family="Times,serif" font-size="14.00">fmap_eqb</text>
</a>
</g>
</g>
<!-- BATTestCommon_fmap_filter_eqb&#45;&gt;BATTestCommon_fmap_eqb -->
<g id="edge7" class="edge">
<title>BATTestCommon_fmap_filter_eqb&#45;&gt;BATTestCommon_fmap_eqb</title>
<path fill="none" stroke="black" d="M827,-2371.75C827,-2263.42 827,-1838.47 827,-1726.29"/>
<polygon fill="black" stroke="black" points="830.5,-1726.14 827,-1716.14 823.5,-1726.14 830.5,-1726.14"/>
</g>
<!-- BATTestCommon_fmap_subseteqb -->
<g id="node25" class="node">
<title>BATTestCommon_fmap_subseteqb</title>
<g id="a_node25"><a xlink:href="BATTestCommon.html#fmap_subseteqb" xlink:title="fmap_subseteqb">
<ellipse fill="#f070d1" stroke="black" cx="827" cy="-998.01" rx="86.38" ry="18"/>
<text text-anchor="middle" x="827" y="-994.31" font-family="Times,serif" font-size="14.00">fmap_subseteqb</text>
</a>
</g>
</g>
<!-- BATTestCommon_fmap_eqb&#45;&gt;BATTestCommon_fmap_subseteqb -->
<g id="edge8" class="edge">
<title>BATTestCommon_fmap_eqb&#45;&gt;BATTestCommon_fmap_subseteqb</title>
<path fill="none" stroke="black" d="M827,-1679.75C827,-1586.4 827,-1141.75 827,-1026.39"/>
<polygon fill="black" stroke="black" points="830.5,-1026.28 827,-1016.28 823.5,-1026.28 830.5,-1026.28"/>
</g>
<!-- BATTestCommon_get_chain_tokens -->
<g id="node26" class="node">
<title>BATTestCommon_get_chain_tokens</title>
<g id="a_node26"><a xlink:href="BATTestCommon.html#get_chain_tokens" xlink:title="get_chain_tokens">
<ellipse fill="#f070d1" stroke="black" cx="620" cy="-2398.01" rx="90.2" ry="18"/>
<ellipse fill="none" stroke="black" cx="620" cy="-2398.01" rx="94.19" ry="22"/>
<ellipse fill="none" stroke="black" cx="620" cy="-2398.01" rx="98.18" ry="26"/>
<text text-anchor="middle" x="620" y="-2394.31" font-family="Times,serif" font-size="14.00">get_chain_tokens</text>
</a>
</g>
</g>
<!-- BATTestCommon_get_last_funding_state -->
<g id="node27" class="node">
<title>BATTestCommon_get_last_funding_state</title>
<g id="a_node27"><a xlink:href="BATTestCommon.html#get_last_funding_state" xlink:title="get_last_funding_state">
<ellipse fill="#f070d1" stroke="black" cx="620" cy="-1698.01" rx="115.08" ry="18"/>
<text text-anchor="middle" x="620" y="-1694.31" font-family="Times,serif" font-size="14.00">get_last_funding_state</text>
</a>
</g>
</g>
<!-- BATTestCommon_get_chain_tokens&#45;&gt;BATTestCommon_get_last_funding_state -->
<g id="edge9" class="edge">
<title>BATTestCommon_get_chain_tokens&#45;&gt;BATTestCommon_get_last_funding_state</title>
<path fill="none" stroke="black" d="M620,-2371.75C620,-2263.42 620,-1838.47 620,-1726.29"/>
<polygon fill="black" stroke="black" points="623.5,-1726.14 620,-1716.14 616.5,-1726.14 623.5,-1726.14"/>
</g>
<!-- BATTestCommon_action_is_refund -->
<g id="node28" class="node">
<title>BATTestCommon_action_is_refund</title>
<g id="a_node28"><a xlink:href="BATTestCommon.html#action_is_refund" xlink:title="action_is_refund">
<ellipse fill="#f070d1" stroke="black" cx="441" cy="-998.01" rx="86.38" ry="18"/>
<text text-anchor="middle" x="441" y="-994.31" font-family="Times,serif" font-size="14.00">action_is_refund</text>
</a>
</g>
</g>
<!-- BATTestCommon_get_last_funding_state&#45;&gt;BATTestCommon_action_is_refund -->
<g id="edge10" class="edge">
<title>BATTestCommon_get_last_funding_state&#45;&gt;BATTestCommon_action_is_refund</title>
<path fill="none" stroke="black" d="M615.58,-1679.75C591.61,-1586.31 477.38,-1140.85 447.93,-1026.05"/>
<polygon fill="black" stroke="black" points="451.3,-1025.1 445.43,-1016.28 444.52,-1026.84 451.3,-1025.1"/>
</g>
<!-- BATTestCommon_action_is_finalize -->
<g id="node29" class="node">
<title>BATTestCommon_action_is_finalize</title>
<g id="a_node29"><a xlink:href="BATTestCommon.html#action_is_finalize" xlink:title="action_is_finalize">
<ellipse fill="#f070d1" stroke="black" cx="634" cy="-998.01" rx="89.08" ry="18"/>
<text text-anchor="middle" x="634" y="-994.31" font-family="Times,serif" font-size="14.00">action_is_finalize</text>
</a>
</g>
</g>
<!-- BATTestCommon_get_last_funding_state&#45;&gt;BATTestCommon_action_is_finalize -->
<g id="edge11" class="edge">
<title>BATTestCommon_get_last_funding_state&#45;&gt;BATTestCommon_action_is_finalize</title>
<path fill="none" stroke="black" d="M620.35,-1679.75C622.22,-1586.4 631.14,-1141.75 633.45,-1026.39"/>
<polygon fill="black" stroke="black" points="636.95,-1026.35 633.65,-1016.28 629.95,-1026.21 636.95,-1026.35"/>
</g>
<!-- BATTestCommon_action_is_refund&#45;&gt;BATTestCommon_contract_base_addr -->
<g id="edge12" class="edge">
<title>BATTestCommon_action_is_refund&#45;&gt;BATTestCommon_contract_base_addr</title>
<path fill="none" stroke="black" d="M445.77,-979.75C471.61,-886.31 594.78,-440.85 626.52,-326.05"/>
<polygon fill="black" stroke="black" points="629.93,-326.85 629.22,-316.28 623.18,-324.99 629.93,-326.85"/>
</g>
<!-- BATTestCommon_action_is_finalize&#45;&gt;BATTestCommon_contract_base_addr -->
<g id="edge13" class="edge">
<title>BATTestCommon_action_is_finalize&#45;&gt;BATTestCommon_contract_base_addr</title>
<path fill="none" stroke="black" d="M634,-979.75C634,-886.4 634,-441.75 634,-326.39"/>
<polygon fill="black" stroke="black" points="637.5,-326.28 634,-316.28 630.5,-326.28 637.5,-326.28"/>
</g>
<!-- BATTestCommon_get_chain_height -->
<g id="node30" class="node">
<title>BATTestCommon_get_chain_height</title>
<g id="a_node30"><a xlink:href="BATTestCommon.html#get_chain_height" xlink:title="get_chain_height">
<ellipse fill="#f070d1" stroke="black" cx="407" cy="-2398.01" rx="89.08" ry="18"/>
<ellipse fill="none" stroke="black" cx="407" cy="-2398.01" rx="93.08" ry="22"/>
<ellipse fill="none" stroke="black" cx="407" cy="-2398.01" rx="97.08" ry="26"/>
<text text-anchor="middle" x="407" y="-2394.31" font-family="Times,serif" font-size="14.00">get_chain_height</text>
</a>
</g>
</g>
<!-- BATTestCommon_get_chain_finalized -->
<g id="node31" class="node">
<title>BATTestCommon_get_chain_finalized</title>
<g id="a_node31"><a xlink:href="BATTestCommon.html#get_chain_finalized" xlink:title="get_chain_finalized">
<ellipse fill="#f070d1" stroke="black" cx="230" cy="-998.01" rx="98.6" ry="18"/>
<ellipse fill="none" stroke="black" cx="230" cy="-998.01" rx="102.59" ry="22"/>
<ellipse fill="none" stroke="black" cx="230" cy="-998.01" rx="106.58" ry="26"/>
<text text-anchor="middle" x="230" y="-994.31" font-family="Times,serif" font-size="14.00">get_chain_finalized</text>
</a>
</g>
</g>
<!-- BATTestCommon_get_chain_finalized&#45;&gt;BATTestCommon_contract_base_addr -->
<g id="edge14" class="edge">
<title>BATTestCommon_get_chain_finalized&#45;&gt;BATTestCommon_contract_base_addr</title>
<path fill="none" stroke="black" d="M244.38,-972.16C306.93,-864.09 555.1,-435.32 618.96,-325"/>
<polygon fill="black" stroke="black" points="622.08,-326.59 624.06,-316.18 616.02,-323.08 622.08,-326.59"/>
</g>
<!-- BATTestCommon_initSupply_ -->
<g id="node33" class="node">
<title>BATTestCommon_initSupply_</title>
<g id="a_node33"><a xlink:href="BATTestCommon.html#initSupply_" xlink:title="initSupply_">
<ellipse fill="#f070d1" stroke="black" cx="221" cy="-2398.01" rx="63.08" ry="18"/>
<ellipse fill="none" stroke="black" cx="221" cy="-2398.01" rx="67.09" ry="22"/>
<ellipse fill="none" stroke="black" cx="221" cy="-2398.01" rx="71.09" ry="26"/>
<text text-anchor="middle" x="221" y="-2394.31" font-family="Times,serif" font-size="14.00">initSupply_</text>
</a>
</g>
</g>
<!-- BATTestCommon_ethFund -->
<g id="node35" class="node">
<title>BATTestCommon_ethFund</title>
<g id="a_node35"><a xlink:href="BATTestCommon.html#ethFund" xlink:title="ethFund">
<ellipse fill="#f070d1" stroke="black" cx="74" cy="-2398.01" rx="50.08" ry="18"/>
<ellipse fill="none" stroke="black" cx="74" cy="-2398.01" rx="54.09" ry="22"/>
<ellipse fill="none" stroke="black" cx="74" cy="-2398.01" rx="58.09" ry="26"/>
<text text-anchor="middle" x="74" y="-2394.31" font-family="Times,serif" font-size="14.00">ethFund</text>
</a>
</g>
</g>
</g>
</svg>
