<?xml version="1.0" encoding="UTF-8" standalone="no"?>
<!DOCTYPE svg PUBLIC "-//W3C//DTD SVG 1.1//EN"
 "http://www.w3.org/Graphics/SVG/1.1/DTD/svg11.dtd">
<!-- Generated by graphviz version 2.43.0 (0)
 -->
<!-- Title: EscrowCorrect Pages: 1 -->
<svg width="1024pt" height="516pt"
 viewBox="0.00 0.00 1024.00 516.00" xmlns="http://www.w3.org/2000/svg" xmlns:xlink="http://www.w3.org/1999/xlink">
<g id="graph0" class="graph" transform="scale(1 1) rotate(0) translate(4 512)">
<title>EscrowCorrect</title>
<polygon fill="white" stroke="transparent" points="-4,4 -4,-512 1020,-512 1020,4 -4,4"/>
<g id="clust1" class="cluster">
<title>cluster_EscrowCorrect</title>
<polygon fill="#ffffc3" stroke="black" points="8,-12.58 8,-495.42 1008,-495.42 1008,-12.58 8,-12.58"/>
<text text-anchor="middle" x="69.5" y="-480.22" font-family="Times,serif" font-size="14.00">EscrowCorrect</text>
</g>
<!-- EscrowCorrect_escrow_correct -->
<g id="node1" class="node">
<title>EscrowCorrect_escrow_correct</title>
<g id="a_node1"><a xlink:href="EscrowCorrect.html#escrow_correct" xlink:title="escrow_correct">
<ellipse fill="#7fffd4" stroke="black" cx="617" cy="-405.58" rx="81.46" ry="18"/>
<ellipse fill="none" stroke="black" cx="617" cy="-405.58" rx="85.48" ry="22"/>
<ellipse fill="none" stroke="black" cx="617" cy="-405.58" rx="89.49" ry="26"/>
<text text-anchor="middle" x="617" y="-401.88" font-family="Times,serif" font-size="14.00">escrow_correct</text>
</a>
</g>
</g>
<!-- EscrowCorrect_is_escrow_finished -->
<g id="node2" class="node">
<title>EscrowCorrect_is_escrow_finished</title>
<g id="a_node2"><a xlink:href="EscrowCorrect.html#is_escrow_finished" xlink:title="is_escrow_finished">
<ellipse fill="#f070d1" stroke="black" cx="271" cy="-279.58" rx="96.68" ry="18"/>
<text text-anchor="middle" x="271" y="-275.88" font-family="Times,serif" font-size="14.00">is_escrow_finished</text>
</a>
</g>
</g>
<!-- EscrowCorrect_escrow_correct&#45;&gt;EscrowCorrect_is_escrow_finished -->
<g id="edge1" class="edge">
<title>EscrowCorrect_escrow_correct&#45;&gt;EscrowCorrect_is_escrow_finished</title>
<path fill="none" stroke="black" d="M562.18,-384.93C496.56,-361.42 387.51,-322.34 323.12,-299.26"/>
<polygon fill="black" stroke="black" points="324.16,-295.92 313.57,-295.84 321.8,-302.51 324.16,-295.92"/>
</g>
<!-- EscrowCorrect_net_balance_effect -->
<g id="node3" class="node">
<title>EscrowCorrect_net_balance_effect</title>
<g id="a_node3"><a xlink:href="EscrowCorrect.html#net_balance_effect" xlink:title="net_balance_effect">
<ellipse fill="#f070d1" stroke="black" cx="732" cy="-279.58" rx="96.38" ry="18"/>
<text text-anchor="middle" x="732" y="-275.88" font-family="Times,serif" font-size="14.00">net_balance_effect</text>
</a>
</g>
</g>
<!-- EscrowCorrect_escrow_correct&#45;&gt;EscrowCorrect_net_balance_effect -->
<g id="edge2" class="edge">
<title>EscrowCorrect_escrow_correct&#45;&gt;EscrowCorrect_net_balance_effect</title>
<path fill="none" stroke="black" d="M639.45,-380.38C659.59,-358.66 689.01,-326.93 709.25,-305.11"/>
<polygon fill="black" stroke="black" points="712.02,-307.27 716.25,-297.56 706.89,-302.51 712.02,-307.27"/>
</g>
<!-- EscrowCorrect_escrow_correct_strong -->
<g id="node4" class="node">
<title>EscrowCorrect_escrow_correct_strong</title>
<g id="a_node4"><a xlink:href="EscrowCorrect.html#escrow_correct_strong" xlink:title="escrow_correct_strong">
<ellipse fill="#7fffd4" stroke="black" cx="502" cy="-279.58" rx="115.88" ry="18"/>
<text text-anchor="middle" x="502" y="-275.88" font-family="Times,serif" font-size="14.00">escrow_correct_strong</text>
</a>
</g>
</g>
<!-- EscrowCorrect_escrow_correct&#45;&gt;EscrowCorrect_escrow_correct_strong -->
<g id="edge3" class="edge">
<title>EscrowCorrect_escrow_correct&#45;&gt;EscrowCorrect_escrow_correct_strong</title>
<path fill="none" stroke="black" d="M594.55,-380.38C574.41,-358.66 544.99,-326.93 524.75,-305.11"/>
<polygon fill="black" stroke="black" points="527.11,-302.51 517.75,-297.56 521.98,-307.27 527.11,-302.51"/>
</g>
<!-- EscrowCorrect_txs_from_cons -->
<g id="node9" class="node">
<title>EscrowCorrect_txs_from_cons</title>
<g id="a_node9"><a xlink:href="EscrowCorrect.html#txs_from_cons" xlink:title="txs_from_cons">
<ellipse fill="#7fffd4" stroke="black" cx="923" cy="-279.58" rx="76.89" ry="18"/>
<text text-anchor="middle" x="923" y="-275.88" font-family="Times,serif" font-size="14.00">txs_from_cons</text>
</a>
</g>
</g>
<!-- EscrowCorrect_escrow_correct&#45;&gt;EscrowCorrect_txs_from_cons -->
<g id="edge4" class="edge">
<title>EscrowCorrect_escrow_correct&#45;&gt;EscrowCorrect_txs_from_cons</title>
<path fill="none" stroke="black" d="M667.53,-384.11C725.78,-360.5 820.7,-322.04 876.98,-299.23"/>
<polygon fill="black" stroke="black" points="878.39,-302.44 886.34,-295.44 875.76,-295.95 878.39,-302.44"/>
</g>
<!-- EscrowCorrect_txs_from -->
<g id="node10" class="node">
<title>EscrowCorrect_txs_from</title>
<g id="a_node10"><a xlink:href="EscrowCorrect.html#txs_from" xlink:title="txs_from">
<ellipse fill="#f070d1" stroke="black" cx="949" cy="-166.58" rx="51.19" ry="18"/>
<text text-anchor="middle" x="949" y="-162.88" font-family="Times,serif" font-size="14.00">txs_from</text>
</a>
</g>
</g>
<!-- EscrowCorrect_net_balance_effect&#45;&gt;EscrowCorrect_txs_from -->
<g id="edge5" class="edge">
<title>EscrowCorrect_net_balance_effect&#45;&gt;EscrowCorrect_txs_from</title>
<path fill="none" stroke="black" d="M763.55,-262.44C803,-242.26 870.42,-207.78 912.18,-186.41"/>
<polygon fill="black" stroke="black" points="913.89,-189.47 921.2,-181.8 910.7,-183.24 913.89,-189.47"/>
</g>
<!-- EscrowCorrect_txs_to -->
<g id="node12" class="node">
<title>EscrowCorrect_txs_to</title>
<g id="a_node12"><a xlink:href="EscrowCorrect.html#txs_to" xlink:title="txs_to">
<ellipse fill="#f070d1" stroke="black" cx="796" cy="-53.58" rx="38.19" ry="18"/>
<text text-anchor="middle" x="796" y="-49.88" font-family="Times,serif" font-size="14.00">txs_to</text>
</a>
</g>
</g>
<!-- EscrowCorrect_net_balance_effect&#45;&gt;EscrowCorrect_txs_to -->
<g id="edge6" class="edge">
<title>EscrowCorrect_net_balance_effect&#45;&gt;EscrowCorrect_txs_to</title>
<path fill="none" stroke="black" d="M772.97,-263.12C805.56,-248.39 848.91,-222.74 869,-184.58 889.4,-145.85 850.99,-101.57 822.57,-75.96"/>
<polygon fill="black" stroke="black" points="824.72,-73.19 814.88,-69.26 820.12,-78.47 824.72,-73.19"/>
</g>
<!-- EscrowCorrect_money_to -->
<g id="node5" class="node">
<title>EscrowCorrect_money_to</title>
<g id="a_node5"><a xlink:href="EscrowCorrect.html#money_to" xlink:title="money_to">
<ellipse fill="#f070d1" stroke="black" cx="464" cy="-166.58" rx="55.49" ry="18"/>
<text text-anchor="middle" x="464" y="-162.88" font-family="Times,serif" font-size="14.00">money_to</text>
</a>
</g>
</g>
<!-- EscrowCorrect_escrow_correct_strong&#45;&gt;EscrowCorrect_money_to -->
<g id="edge7" class="edge">
<title>EscrowCorrect_escrow_correct_strong&#45;&gt;EscrowCorrect_money_to</title>
<path fill="none" stroke="black" d="M496.06,-261.24C489.93,-243.32 480.27,-215.11 473.16,-194.33"/>
<polygon fill="black" stroke="black" points="476.45,-193.13 469.9,-184.8 469.82,-195.4 476.45,-193.13"/>
</g>
<!-- EscrowCorrect_transfer_acts_to_cons -->
<g id="node6" class="node">
<title>EscrowCorrect_transfer_acts_to_cons</title>
<g id="a_node6"><a xlink:href="EscrowCorrect.html#transfer_acts_to_cons" xlink:title="transfer_acts_to_cons">
<ellipse fill="#7fffd4" stroke="black" cx="126" cy="-166.58" rx="110.48" ry="18"/>
<text text-anchor="middle" x="126" y="-162.88" font-family="Times,serif" font-size="14.00">transfer_acts_to_cons</text>
</a>
</g>
</g>
<!-- EscrowCorrect_escrow_correct_strong&#45;&gt;EscrowCorrect_transfer_acts_to_cons -->
<g id="edge8" class="edge">
<title>EscrowCorrect_escrow_correct_strong&#45;&gt;EscrowCorrect_transfer_acts_to_cons</title>
<path fill="none" stroke="black" d="M450.51,-263.38C381.74,-243.08 260.1,-207.17 186.87,-185.55"/>
<polygon fill="black" stroke="black" points="187.45,-182.07 176.87,-182.6 185.47,-188.79 187.45,-182.07"/>
</g>
<!-- EscrowCorrect_buyer_confirmed -->
<g id="node8" class="node">
<title>EscrowCorrect_buyer_confirmed</title>
<g id="a_node8"><a xlink:href="EscrowCorrect.html#buyer_confirmed" xlink:title="buyer_confirmed">
<ellipse fill="#f070d1" stroke="black" cx="626" cy="-166.58" rx="88.28" ry="18"/>
<text text-anchor="middle" x="626" y="-162.88" font-family="Times,serif" font-size="14.00">buyer_confirmed</text>
</a>
</g>
</g>
<!-- EscrowCorrect_escrow_correct_strong&#45;&gt;EscrowCorrect_buyer_confirmed -->
<g id="edge9" class="edge">
<title>EscrowCorrect_escrow_correct_strong&#45;&gt;EscrowCorrect_buyer_confirmed</title>
<path fill="none" stroke="black" d="M520.83,-261.72C541.89,-242.87 576.15,-212.21 599.81,-191.02"/>
<polygon fill="black" stroke="black" points="602.28,-193.51 607.4,-184.24 597.61,-188.3 602.28,-193.51"/>
</g>
<!-- EscrowCorrect_txs_to_cons -->
<g id="node11" class="node">
<title>EscrowCorrect_txs_to_cons</title>
<g id="a_node11"><a xlink:href="EscrowCorrect.html#txs_to_cons" xlink:title="txs_to_cons">
<ellipse fill="#7fffd4" stroke="black" cx="796" cy="-166.58" rx="63.89" ry="18"/>
<text text-anchor="middle" x="796" y="-162.88" font-family="Times,serif" font-size="14.00">txs_to_cons</text>
</a>
</g>
</g>
<!-- EscrowCorrect_escrow_correct_strong&#45;&gt;EscrowCorrect_txs_to_cons -->
<g id="edge10" class="edge">
<title>EscrowCorrect_escrow_correct_strong&#45;&gt;EscrowCorrect_txs_to_cons</title>
<path fill="none" stroke="black" d="M543.81,-262.8C598.36,-242.2 693.49,-206.28 750.02,-184.94"/>
<polygon fill="black" stroke="black" points="751.31,-188.2 759.43,-181.39 748.84,-181.65 751.31,-188.2"/>
</g>
<!-- EscrowCorrect_no_self_calls -->
<g id="node13" class="node">
<title>EscrowCorrect_no_self_calls</title>
<g id="a_node13"><a xlink:href="EscrowCorrect.html#no_self_calls" xlink:title="no_self_calls">
<ellipse fill="#7fffd4" stroke="black" cx="323" cy="-166.58" rx="68.49" ry="18"/>
<text text-anchor="middle" x="323" y="-162.88" font-family="Times,serif" font-size="14.00">no_self_calls</text>
</a>
</g>
</g>
<!-- EscrowCorrect_escrow_correct_strong&#45;&gt;EscrowCorrect_no_self_calls -->
<g id="edge11" class="edge">
<title>EscrowCorrect_escrow_correct_strong&#45;&gt;EscrowCorrect_no_self_calls</title>
<path fill="none" stroke="black" d="M475.2,-261.96C443.78,-242.48 391.63,-210.14 357.28,-188.84"/>
<polygon fill="black" stroke="black" points="358.87,-185.71 348.53,-183.41 355.18,-191.66 358.87,-185.71"/>
</g>
<!-- EscrowCorrect_transfer_acts_to -->
<g id="node7" class="node">
<title>EscrowCorrect_transfer_acts_to</title>
<g id="a_node7"><a xlink:href="EscrowCorrect.html#transfer_acts_to" xlink:title="transfer_acts_to">
<ellipse fill="#f070d1" stroke="black" cx="295" cy="-53.58" rx="85.29" ry="18"/>
<text text-anchor="middle" x="295" y="-49.88" font-family="Times,serif" font-size="14.00">transfer_acts_to</text>
</a>
</g>
</g>
<!-- EscrowCorrect_money_to&#45;&gt;EscrowCorrect_transfer_acts_to -->
<g id="edge12" class="edge">
<title>EscrowCorrect_money_to&#45;&gt;EscrowCorrect_transfer_acts_to</title>
<path fill="none" stroke="black" d="M440.5,-150.15C411.36,-131.01 361.5,-98.26 328.39,-76.52"/>
<polygon fill="black" stroke="black" points="330.23,-73.53 319.95,-70.97 326.38,-79.38 330.23,-73.53"/>
</g>
<!-- EscrowCorrect_money_to&#45;&gt;EscrowCorrect_txs_to -->
<g id="edge13" class="edge">
<title>EscrowCorrect_money_to&#45;&gt;EscrowCorrect_txs_to</title>
<path fill="none" stroke="black" d="M501.12,-153.17C563.92,-132.18 690.62,-89.81 755.58,-68.09"/>
<polygon fill="black" stroke="black" points="757.09,-71.28 765.46,-64.79 754.87,-64.64 757.09,-71.28"/>
</g>
<!-- EscrowCorrect_transfer_acts_to_cons&#45;&gt;EscrowCorrect_transfer_acts_to -->
<g id="edge14" class="edge">
<title>EscrowCorrect_transfer_acts_to_cons&#45;&gt;EscrowCorrect_transfer_acts_to</title>
<path fill="none" stroke="black" d="M151.3,-148.96C180.59,-129.73 228.95,-97.96 261.38,-76.66"/>
<polygon fill="black" stroke="black" points="263.64,-79.37 270.08,-70.95 259.8,-73.52 263.64,-79.37"/>
</g>
<!-- EscrowCorrect_txs_from_cons&#45;&gt;EscrowCorrect_txs_from -->
<g id="edge15" class="edge">
<title>EscrowCorrect_txs_from_cons&#45;&gt;EscrowCorrect_txs_from</title>
<path fill="none" stroke="black" d="M927.06,-261.24C931.24,-243.4 937.81,-215.37 942.67,-194.61"/>
<polygon fill="black" stroke="black" points="946.09,-195.34 944.97,-184.8 939.28,-193.74 946.09,-195.34"/>
</g>
<!-- EscrowCorrect_txs_to_cons&#45;&gt;EscrowCorrect_txs_to -->
<g id="edge16" class="edge">
<title>EscrowCorrect_txs_to_cons&#45;&gt;EscrowCorrect_txs_to</title>
<path fill="none" stroke="black" d="M796,-148.24C796,-130.48 796,-102.62 796,-81.9"/>
<polygon fill="black" stroke="black" points="799.5,-81.8 796,-71.8 792.5,-81.8 799.5,-81.8"/>
</g>
</g>
</svg>
