<?xml version="1.0" encoding="UTF-8" standalone="no"?>
<!DOCTYPE svg PUBLIC "-//W3C//DTD SVG 1.1//EN"
 "http://www.w3.org/Graphics/SVG/1.1/DTD/svg11.dtd">
<!-- Generated by graphviz version 2.43.0 (0)
 -->
<!-- Title: Utils Pages: 1 -->
<svg width="1585pt" height="797pt"
 viewBox="0.00 0.00 1585.00 796.50" xmlns="http://www.w3.org/2000/svg" xmlns:xlink="http://www.w3.org/1999/xlink">
<g id="graph0" class="graph" transform="scale(1 1) rotate(0) translate(4 792.5)">
<title>Utils</title>
<polygon fill="white" stroke="transparent" points="-4,4 -4,-792.5 1581,-792.5 1581,4 -4,4"/>
<g id="clust1" class="cluster">
<title>cluster_Utils</title>
<polygon fill="#ffffc3" stroke="black" points="8,-16.01 8,-772.49 1569,-772.49 1569,-16.01 8,-16.01"/>
<text text-anchor="middle" x="33.5" y="-757.29" font-family="Times,serif" font-size="14.00">Utils</text>
</g>
<g id="clust2" class="cluster">
<title>cluster_Utils_TCString</title>
<polygon fill="#ffffa3" stroke="black" points="154,-32.02 154,-710.45 1561,-710.45 1561,-32.02 154,-32.02"/>
<text text-anchor="middle" x="194.5" y="-695.25" font-family="Times,serif" font-size="14.00">TCString</text>
</g>
<!-- Utils_TCString_concat -->
<g id="node1" class="node">
<title>Utils_TCString_concat</title>
<g id="a_node1"><a xlink:href="Utils.html#TCString.concat" xlink:title="concat">
<ellipse fill="#f070d1" stroke="black" cx="753" cy="-420.01" rx="40.9" ry="18"/>
<ellipse fill="none" stroke="black" cx="753" cy="-420.01" rx="44.9" ry="22"/>
<ellipse fill="none" stroke="black" cx="753" cy="-420.01" rx="48.89" ry="26"/>
<text text-anchor="middle" x="753" y="-416.31" font-family="Times,serif" font-size="14.00">concat</text>
</a>
</g>
</g>
<!-- Utils_TCString_append -->
<g id="node13" class="node">
<title>Utils_TCString_append</title>
<g id="a_node13"><a xlink:href="Utils.html#TCString.append" xlink:title="append">
<ellipse fill="#f070d1" stroke="black" cx="889" cy="-244.01" rx="44.69" ry="18"/>
<text text-anchor="middle" x="889" y="-240.31" font-family="Times,serif" font-size="14.00">append</text>
</a>
</g>
</g>
<!-- Utils_TCString_concat&#45;&gt;Utils_TCString_append -->
<g id="edge1" class="edge">
<title>Utils_TCString_concat&#45;&gt;Utils_TCString_append</title>
<path fill="none" stroke="black" d="M771.34,-395.54C797.14,-362.53 843.91,-302.7 870.04,-269.27"/>
<polygon fill="black" stroke="black" points="872.81,-271.4 876.22,-261.37 867.3,-267.09 872.81,-271.4"/>
</g>
<!-- Utils_TCString_EmptyString -->
<g id="node22" class="node">
<title>Utils_TCString_EmptyString</title>
<g id="a_node22"><a xlink:href="Utils.html#TCString.EmptyString" xlink:title="EmptyString">
<ellipse fill="#7faaff" stroke="black" cx="490" cy="-84.01" rx="70.69" ry="18"/>
<text text-anchor="middle" x="490" y="-80.31" font-family="Times,serif" font-size="14.00">EmptyString</text>
</a>
</g>
</g>
<!-- Utils_TCString_concat&#45;&gt;Utils_TCString_EmptyString -->
<g id="edge2" class="edge">
<title>Utils_TCString_concat&#45;&gt;Utils_TCString_EmptyString</title>
<path fill="none" stroke="black" d="M708.52,-409.14C575.65,-379.47 189.86,-291.75 173,-270.01 98.89,-174.46 308.85,-118.91 422.45,-96.56"/>
<polygon fill="black" stroke="black" points="423.31,-99.96 432.46,-94.63 421.98,-93.09 423.31,-99.96"/>
</g>
<!-- Utils_TCString_eqb_compare -->
<g id="node2" class="node">
<title>Utils_TCString_eqb_compare</title>
<g id="a_node2"><a xlink:href="Utils.html#TCString.eqb_compare" xlink:title="eqb_compare">
<ellipse fill="#7fffd4" stroke="black" cx="1199" cy="-420.01" rx="72.27" ry="18"/>
<ellipse fill="none" stroke="black" cx="1199" cy="-420.01" rx="76.28" ry="22"/>
<ellipse fill="none" stroke="black" cx="1199" cy="-420.01" rx="80.29" ry="26"/>
<text text-anchor="middle" x="1199" y="-416.31" font-family="Times,serif" font-size="14.00">eqb_compare</text>
</a>
</g>
</g>
<!-- Utils_TCString_compare -->
<g id="node3" class="node">
<title>Utils_TCString_compare</title>
<g id="a_node3"><a xlink:href="Utils.html#TCString.compare" xlink:title="compare">
<ellipse fill="#f070d1" stroke="black" cx="1176" cy="-244.01" rx="50.89" ry="18"/>
<text text-anchor="middle" x="1176" y="-240.31" font-family="Times,serif" font-size="14.00">compare</text>
</a>
</g>
</g>
<!-- Utils_TCString_eqb_compare&#45;&gt;Utils_TCString_compare -->
<g id="edge3" class="edge">
<title>Utils_TCString_eqb_compare&#45;&gt;Utils_TCString_compare</title>
<path fill="none" stroke="black" d="M1195.66,-393.71C1191.38,-361.39 1184.02,-305.67 1179.62,-272.38"/>
<polygon fill="black" stroke="black" points="1183.08,-271.88 1178.3,-262.42 1176.14,-272.8 1183.08,-271.88"/>
</g>
<!-- Utils_TCString_eqb -->
<g id="node4" class="node">
<title>Utils_TCString_eqb</title>
<g id="a_node4"><a xlink:href="Utils.html#TCString.eqb" xlink:title="eqb">
<ellipse fill="#f070d1" stroke="black" cx="1273" cy="-244.01" rx="27.9" ry="18"/>
<text text-anchor="middle" x="1273" y="-240.31" font-family="Times,serif" font-size="14.00">eqb</text>
</a>
</g>
</g>
<!-- Utils_TCString_eqb_compare&#45;&gt;Utils_TCString_eqb -->
<g id="edge4" class="edge">
<title>Utils_TCString_eqb_compare&#45;&gt;Utils_TCString_eqb</title>
<path fill="none" stroke="black" d="M1209.6,-394.08C1223.51,-361.38 1247.8,-304.26 1261.93,-271.03"/>
<polygon fill="black" stroke="black" points="1265.28,-272.11 1265.97,-261.54 1258.84,-269.37 1265.28,-272.11"/>
</g>
<!-- Utils_TCString_t -->
<g id="node23" class="node">
<title>Utils_TCString_t</title>
<g id="a_node23"><a xlink:href="Utils.html#TCString.t" xlink:title="t">
<ellipse fill="#e2cdfa" stroke="black" cx="938" cy="-84.01" rx="27" ry="18"/>
<text text-anchor="middle" x="938" y="-80.31" font-family="Times,serif" font-size="14.00">t</text>
</a>
</g>
</g>
<!-- Utils_TCString_compare&#45;&gt;Utils_TCString_t -->
<g id="edge5" class="edge">
<title>Utils_TCString_compare&#45;&gt;Utils_TCString_t</title>
<path fill="none" stroke="black" d="M1153.18,-227.86C1109.02,-198.55 1012.09,-134.19 964.89,-102.86"/>
<polygon fill="black" stroke="black" points="966.68,-99.85 956.41,-97.23 962.81,-105.68 966.68,-99.85"/>
</g>
<!-- Utils_TCString_eqb&#45;&gt;Utils_TCString_t -->
<g id="edge6" class="edge">
<title>Utils_TCString_eqb&#45;&gt;Utils_TCString_t</title>
<path fill="none" stroke="black" d="M1254.96,-229.9C1249.05,-225.86 1242.37,-221.55 1236,-218.01 1143.02,-166.37 1026.16,-118.94 970.44,-97.32"/>
<polygon fill="black" stroke="black" points="971.67,-94.05 961.08,-93.71 969.15,-100.58 971.67,-94.05"/>
</g>
<!-- Utils_TCString_contains -->
<g id="node5" class="node">
<title>Utils_TCString_contains</title>
<g id="a_node5"><a xlink:href="Utils.html#TCString.contains" xlink:title="contains">
<ellipse fill="#f070d1" stroke="black" cx="1433" cy="-596.01" rx="50.08" ry="18"/>
<ellipse fill="none" stroke="black" cx="1433" cy="-596.01" rx="54.09" ry="22"/>
<ellipse fill="none" stroke="black" cx="1433" cy="-596.01" rx="58.09" ry="26"/>
<text text-anchor="middle" x="1433" y="-592.31" font-family="Times,serif" font-size="14.00">contains</text>
</a>
</g>
</g>
<!-- Utils_TCString_length -->
<g id="node6" class="node">
<title>Utils_TCString_length</title>
<g id="a_node6"><a xlink:href="Utils.html#TCString.length" xlink:title="length">
<ellipse fill="#f070d1" stroke="black" cx="1497" cy="-420.01" rx="40.09" ry="18"/>
<text text-anchor="middle" x="1497" y="-416.31" font-family="Times,serif" font-size="14.00">length</text>
</a>
</g>
</g>
<!-- Utils_TCString_contains&#45;&gt;Utils_TCString_length -->
<g id="edge7" class="edge">
<title>Utils_TCString_contains&#45;&gt;Utils_TCString_length</title>
<path fill="none" stroke="black" d="M1442.17,-570.08C1454.14,-537.55 1474.99,-480.86 1487.24,-447.55"/>
<polygon fill="black" stroke="black" points="1490.58,-448.61 1490.74,-438.02 1484.01,-446.2 1490.58,-448.61"/>
</g>
<!-- Utils_TCString_index -->
<g id="node7" class="node">
<title>Utils_TCString_index</title>
<g id="a_node7"><a xlink:href="Utils.html#TCString.index" xlink:title="index">
<ellipse fill="#f070d1" stroke="black" cx="1372" cy="-420.01" rx="36.29" ry="18"/>
<text text-anchor="middle" x="1372" y="-416.31" font-family="Times,serif" font-size="14.00">index</text>
</a>
</g>
</g>
<!-- Utils_TCString_contains&#45;&gt;Utils_TCString_index -->
<g id="edge8" class="edge">
<title>Utils_TCString_contains&#45;&gt;Utils_TCString_index</title>
<path fill="none" stroke="black" d="M1424.26,-570.08C1412.86,-537.55 1392.98,-480.86 1381.3,-447.55"/>
<polygon fill="black" stroke="black" points="1384.57,-446.3 1377.96,-438.02 1377.97,-448.61 1384.57,-446.3"/>
</g>
<!-- Utils_TCString_length&#45;&gt;Utils_TCString_t -->
<g id="edge9" class="edge">
<title>Utils_TCString_length&#45;&gt;Utils_TCString_t</title>
<path fill="none" stroke="black" d="M1508.76,-402.64C1533.87,-365.54 1586.92,-273.89 1542,-218.01 1469.93,-128.34 1095.32,-95.6 975.15,-87.31"/>
<polygon fill="black" stroke="black" points="975.19,-83.81 964.98,-86.63 974.72,-90.79 975.19,-83.81"/>
</g>
<!-- Utils_TCString_prefix -->
<g id="node8" class="node">
<title>Utils_TCString_prefix</title>
<g id="a_node8"><a xlink:href="Utils.html#TCString.prefix" xlink:title="prefix">
<ellipse fill="#f070d1" stroke="black" cx="1357" cy="-244.01" rx="37.89" ry="18"/>
<text text-anchor="middle" x="1357" y="-240.31" font-family="Times,serif" font-size="14.00">prefix</text>
</a>
</g>
</g>
<!-- Utils_TCString_index&#45;&gt;Utils_TCString_prefix -->
<g id="edge10" class="edge">
<title>Utils_TCString_index&#45;&gt;Utils_TCString_prefix</title>
<path fill="none" stroke="black" d="M1370.53,-402.01C1367.94,-371.86 1362.5,-308.8 1359.36,-272.44"/>
<polygon fill="black" stroke="black" points="1362.82,-271.74 1358.47,-262.08 1355.84,-272.34 1362.82,-271.74"/>
</g>
<!-- Utils_TCString_prefix&#45;&gt;Utils_TCString_t -->
<g id="edge11" class="edge">
<title>Utils_TCString_prefix&#45;&gt;Utils_TCString_t</title>
<path fill="none" stroke="black" d="M1333.42,-229.61C1326.03,-225.64 1317.78,-221.45 1310,-218.01 1188.82,-164.46 1038.71,-116 972.33,-95.44"/>
<polygon fill="black" stroke="black" points="973,-91.98 962.41,-92.38 970.94,-98.67 973,-91.98"/>
</g>
<!-- Utils_TCString_substring -->
<g id="node9" class="node">
<title>Utils_TCString_substring</title>
<g id="a_node9"><a xlink:href="Utils.html#TCString.substring" xlink:title="substring">
<ellipse fill="#f070d1" stroke="black" cx="367" cy="-244.01" rx="55.46" ry="18"/>
<ellipse fill="none" stroke="black" cx="367" cy="-244.01" rx="59.48" ry="22"/>
<ellipse fill="none" stroke="black" cx="367" cy="-244.01" rx="63.49" ry="26"/>
<text text-anchor="middle" x="367" y="-240.31" font-family="Times,serif" font-size="14.00">substring</text>
</a>
</g>
</g>
<!-- Utils_TCString_String -->
<g id="node21" class="node">
<title>Utils_TCString_String</title>
<g id="a_node21"><a xlink:href="Utils.html#TCString.String" xlink:title="String">
<ellipse fill="#7faaff" stroke="black" cx="654" cy="-84.01" rx="40.09" ry="18"/>
<text text-anchor="middle" x="654" y="-80.31" font-family="Times,serif" font-size="14.00">String</text>
</a>
</g>
</g>
<!-- Utils_TCString_substring&#45;&gt;Utils_TCString_String -->
<g id="edge12" class="edge">
<title>Utils_TCString_substring&#45;&gt;Utils_TCString_String</title>
<path fill="none" stroke="black" d="M403.93,-222.68C460.18,-191.71 566.46,-133.2 620.55,-103.42"/>
<polygon fill="black" stroke="black" points="622.32,-106.44 629.4,-98.56 618.95,-100.31 622.32,-106.44"/>
</g>
<!-- Utils_TCString_substring&#45;&gt;Utils_TCString_EmptyString -->
<g id="edge13" class="edge">
<title>Utils_TCString_substring&#45;&gt;Utils_TCString_EmptyString</title>
<path fill="none" stroke="black" d="M385.68,-219.01C408.56,-189.63 447.13,-140.08 470.41,-110.18"/>
<polygon fill="black" stroke="black" points="473.45,-111.97 476.83,-101.93 467.92,-107.67 473.45,-111.97"/>
</g>
<!-- Utils_TCString_substring&#45;&gt;Utils_TCString_t -->
<g id="edge14" class="edge">
<title>Utils_TCString_substring&#45;&gt;Utils_TCString_t</title>
<path fill="none" stroke="black" d="M413.7,-226.23C422.09,-223.38 430.78,-220.53 439,-218.01 611.63,-165.11 821.46,-113.13 903.13,-93.36"/>
<polygon fill="black" stroke="black" points="903.99,-96.76 912.89,-91.01 902.35,-89.95 903.99,-96.76"/>
</g>
<!-- Utils_TCString_rev -->
<g id="node10" class="node">
<title>Utils_TCString_rev</title>
<g id="a_node10"><a xlink:href="Utils.html#TCString.rev" xlink:title="rev">
<ellipse fill="#f070d1" stroke="black" cx="987" cy="-244.01" rx="27" ry="18"/>
<ellipse fill="none" stroke="black" cx="987" cy="-244.01" rx="31" ry="22"/>
<ellipse fill="none" stroke="black" cx="987" cy="-244.01" rx="35" ry="26"/>
<text text-anchor="middle" x="987" y="-240.31" font-family="Times,serif" font-size="14.00">rev</text>
</a>
</g>
</g>
<!-- Utils_TCString_rev&#45;&gt;Utils_TCString_String -->
<g id="edge15" class="edge">
<title>Utils_TCString_rev&#45;&gt;Utils_TCString_String</title>
<path fill="none" stroke="black" d="M959.74,-227.04C954.24,-223.96 948.47,-220.82 943,-218.01 854.45,-172.59 747.39,-125.22 691.73,-101.14"/>
<polygon fill="black" stroke="black" points="692.85,-97.81 682.28,-97.07 690.07,-104.24 692.85,-97.81"/>
</g>
<!-- Utils_TCString_rev&#45;&gt;Utils_TCString_t -->
<g id="edge16" class="edge">
<title>Utils_TCString_rev&#45;&gt;Utils_TCString_t</title>
<path fill="none" stroke="black" d="M979.34,-218.32C970.34,-189.29 955.45,-141.28 946.21,-111.49"/>
<polygon fill="black" stroke="black" points="949.5,-110.28 943.2,-101.77 942.82,-112.36 949.5,-110.28"/>
</g>
<!-- Utils_TCString_of_string -->
<g id="node11" class="node">
<title>Utils_TCString_of_string</title>
<g id="a_node11"><a xlink:href="Utils.html#TCString.of_string" xlink:title="of_string">
<ellipse fill="#f070d1" stroke="black" cx="234" cy="-244.01" rx="51.99" ry="18"/>
<text text-anchor="middle" x="234" y="-240.31" font-family="Times,serif" font-size="14.00">of_string</text>
</a>
</g>
</g>
<!-- Utils_TCString_of_string&#45;&gt;Utils_TCString_String -->
<g id="edge17" class="edge">
<title>Utils_TCString_of_string&#45;&gt;Utils_TCString_String</title>
<path fill="none" stroke="black" d="M265.89,-229.7C275.25,-225.86 285.51,-221.71 295,-218.01 410.15,-173.1 547.43,-123.26 613.94,-99.35"/>
<polygon fill="black" stroke="black" points="615.38,-102.55 623.61,-95.87 613.01,-95.96 615.38,-102.55"/>
</g>
<!-- Utils_TCString_of_string&#45;&gt;Utils_TCString_EmptyString -->
<g id="edge18" class="edge">
<title>Utils_TCString_of_string&#45;&gt;Utils_TCString_EmptyString</title>
<path fill="none" stroke="black" d="M258.55,-227.86C304.45,-199.53 403.36,-138.48 455.78,-106.13"/>
<polygon fill="black" stroke="black" points="457.72,-109.05 464.39,-100.81 454.04,-103.09 457.72,-109.05"/>
</g>
<!-- Utils_TCString_of_string&#45;&gt;Utils_TCString_t -->
<g id="edge19" class="edge">
<title>Utils_TCString_of_string&#45;&gt;Utils_TCString_t</title>
<path fill="none" stroke="black" d="M264.32,-229.29C273.99,-225.27 284.82,-221.12 295,-218.01 521.16,-148.93 803,-104.47 901.78,-90.09"/>
<polygon fill="black" stroke="black" points="902.44,-93.53 911.84,-88.64 901.44,-86.61 902.44,-93.53"/>
</g>
<!-- Utils_TCString_to_string -->
<g id="node12" class="node">
<title>Utils_TCString_to_string</title>
<g id="a_node12"><a xlink:href="Utils.html#TCString.to_string" xlink:title="to_string">
<ellipse fill="#f070d1" stroke="black" cx="1473" cy="-244.01" rx="51.99" ry="18"/>
<ellipse fill="none" stroke="black" cx="1473" cy="-244.01" rx="55.99" ry="22"/>
<ellipse fill="none" stroke="black" cx="1473" cy="-244.01" rx="59.99" ry="26"/>
<text text-anchor="middle" x="1473" y="-240.31" font-family="Times,serif" font-size="14.00">to_string</text>
</a>
</g>
</g>
<!-- Utils_TCString_to_string&#45;&gt;Utils_TCString_t -->
<g id="edge20" class="edge">
<title>Utils_TCString_to_string&#45;&gt;Utils_TCString_t</title>
<path fill="none" stroke="black" d="M1428.62,-226.41C1420.46,-223.51 1412,-220.6 1404,-218.01 1244.07,-166.29 1049.96,-114.29 972.41,-93.95"/>
<polygon fill="black" stroke="black" points="973.25,-90.55 962.69,-91.41 971.47,-97.32 973.25,-90.55"/>
</g>
<!-- Utils_TCString_append&#45;&gt;Utils_TCString_String -->
<g id="edge21" class="edge">
<title>Utils_TCString_append&#45;&gt;Utils_TCString_String</title>
<path fill="none" stroke="black" d="M866.89,-228.15C824.51,-199.65 731.81,-137.32 683.93,-105.14"/>
<polygon fill="black" stroke="black" points="685.79,-102.17 675.54,-99.49 681.88,-107.98 685.79,-102.17"/>
</g>
<!-- Utils_TCString_append&#45;&gt;Utils_TCString_t -->
<g id="edge22" class="edge">
<title>Utils_TCString_append&#45;&gt;Utils_TCString_t</title>
<path fill="none" stroke="black" d="M894.24,-226.1C902.75,-198.66 919.64,-144.22 929.76,-111.57"/>
<polygon fill="black" stroke="black" points="933.17,-112.39 932.79,-101.8 926.49,-110.31 933.17,-112.39"/>
</g>
<!-- Utils_TCString_print_parse_inv -->
<g id="node14" class="node">
<title>Utils_TCString_print_parse_inv</title>
<g id="a_node14"><a xlink:href="Utils.html#TCString.print_parse_inv" xlink:title="print_parse_inv">
<ellipse fill="#7fffd4" stroke="black" cx="977" cy="-420.01" rx="82.58" ry="18"/>
<ellipse fill="none" stroke="black" cx="977" cy="-420.01" rx="86.58" ry="22"/>
<ellipse fill="none" stroke="black" cx="977" cy="-420.01" rx="90.59" ry="26"/>
<text text-anchor="middle" x="977" y="-416.31" font-family="Times,serif" font-size="14.00">print_parse_inv</text>
</a>
</g>
</g>
<!-- Utils_TCString_parse -->
<g id="node15" class="node">
<title>Utils_TCString_parse</title>
<g id="a_node15"><a xlink:href="Utils.html#TCString.parse" xlink:title="parse">
<ellipse fill="#f070d1" stroke="black" cx="790" cy="-244.01" rx="36.29" ry="18"/>
<text text-anchor="middle" x="790" y="-240.31" font-family="Times,serif" font-size="14.00">parse</text>
</a>
</g>
</g>
<!-- Utils_TCString_print_parse_inv&#45;&gt;Utils_TCString_parse -->
<g id="edge23" class="edge">
<title>Utils_TCString_print_parse_inv&#45;&gt;Utils_TCString_parse</title>
<path fill="none" stroke="black" d="M951,-394.82C914.61,-360.96 849.02,-299.93 813.84,-267.19"/>
<polygon fill="black" stroke="black" points="816.11,-264.52 806.4,-260.27 811.34,-269.64 816.11,-264.52"/>
</g>
<!-- Utils_TCString_print -->
<g id="node16" class="node">
<title>Utils_TCString_print</title>
<g id="a_node16"><a xlink:href="Utils.html#TCString.print" xlink:title="print">
<ellipse fill="#f070d1" stroke="black" cx="1074" cy="-244.01" rx="33.6" ry="18"/>
<text text-anchor="middle" x="1074" y="-240.31" font-family="Times,serif" font-size="14.00">print</text>
</a>
</g>
</g>
<!-- Utils_TCString_print_parse_inv&#45;&gt;Utils_TCString_print -->
<g id="edge24" class="edge">
<title>Utils_TCString_print_parse_inv&#45;&gt;Utils_TCString_print</title>
<path fill="none" stroke="black" d="M990.9,-394.08C1009.21,-361.24 1041.24,-303.77 1059.73,-270.6"/>
<polygon fill="black" stroke="black" points="1062.97,-271.98 1064.79,-261.54 1056.86,-268.57 1062.97,-271.98"/>
</g>
<!-- Utils_TCString_parse&#45;&gt;Utils_TCString_String -->
<g id="edge25" class="edge">
<title>Utils_TCString_parse&#45;&gt;Utils_TCString_String</title>
<path fill="none" stroke="black" d="M776.46,-227.28C752.55,-199.51 702.73,-141.62 674.55,-108.89"/>
<polygon fill="black" stroke="black" points="677.06,-106.44 667.89,-101.14 671.76,-111.01 677.06,-106.44"/>
</g>
<!-- Utils_TCString_parse&#45;&gt;Utils_TCString_EmptyString -->
<g id="edge26" class="edge">
<title>Utils_TCString_parse&#45;&gt;Utils_TCString_EmptyString</title>
<path fill="none" stroke="black" d="M766.16,-229.96C759.05,-226.09 751.22,-221.86 744,-218.01 668.08,-177.51 578.88,-131.06 528.95,-105.17"/>
<polygon fill="black" stroke="black" points="530.29,-101.92 519.8,-100.42 527.06,-108.13 530.29,-101.92"/>
</g>
<!-- Utils_TCString_parse&#45;&gt;Utils_TCString_t -->
<g id="edge27" class="edge">
<title>Utils_TCString_parse&#45;&gt;Utils_TCString_t</title>
<path fill="none" stroke="black" d="M804.73,-227.28C831.15,-199.08 886.67,-139.81 917.04,-107.38"/>
<polygon fill="black" stroke="black" points="919.91,-109.44 924.19,-99.75 914.8,-104.66 919.91,-109.44"/>
</g>
<!-- Utils_TCString_print&#45;&gt;Utils_TCString_t -->
<g id="edge28" class="edge">
<title>Utils_TCString_print&#45;&gt;Utils_TCString_t</title>
<path fill="none" stroke="black" d="M1060.46,-227.28C1036.31,-199.22 985.69,-140.41 957.69,-107.88"/>
<polygon fill="black" stroke="black" points="960.26,-105.5 951.08,-100.21 954.95,-110.07 960.26,-105.5"/>
</g>
<!-- Utils_TCString_t_sind -->
<g id="node17" class="node">
<title>Utils_TCString_t_sind</title>
<g id="a_node17"><a xlink:href="Utils.html#TCString.t_sind" xlink:title="t_sind">
<ellipse fill="#f070d1" stroke="black" cx="689" cy="-244.01" rx="38.22" ry="18"/>
<ellipse fill="none" stroke="black" cx="689" cy="-244.01" rx="42.21" ry="22"/>
<ellipse fill="none" stroke="black" cx="689" cy="-244.01" rx="46.19" ry="26"/>
<text text-anchor="middle" x="689" y="-240.31" font-family="Times,serif" font-size="14.00">t_sind</text>
</a>
</g>
</g>
<!-- Utils_TCString_t_sind&#45;&gt;Utils_TCString_String -->
<g id="edge29" class="edge">
<title>Utils_TCString_t_sind&#45;&gt;Utils_TCString_String</title>
<path fill="none" stroke="black" d="M683.45,-217.97C677.07,-189.15 666.61,-141.95 660.03,-112.23"/>
<polygon fill="black" stroke="black" points="663.37,-111.14 657.79,-102.14 656.54,-112.66 663.37,-111.14"/>
</g>
<!-- Utils_TCString_t_sind&#45;&gt;Utils_TCString_EmptyString -->
<g id="edge30" class="edge">
<title>Utils_TCString_t_sind&#45;&gt;Utils_TCString_EmptyString</title>
<path fill="none" stroke="black" d="M662.98,-222.35C625.76,-192.8 557.55,-138.64 518.83,-107.9"/>
<polygon fill="black" stroke="black" points="520.59,-104.83 510.58,-101.35 516.24,-110.31 520.59,-104.83"/>
</g>
<!-- Utils_TCString_t_sind&#45;&gt;Utils_TCString_t -->
<g id="edge31" class="edge">
<title>Utils_TCString_t_sind&#45;&gt;Utils_TCString_t</title>
<path fill="none" stroke="black" d="M719.04,-223.95C767.76,-193.03 863.33,-132.39 910.42,-102.51"/>
<polygon fill="black" stroke="black" points="912.33,-105.44 918.9,-97.13 908.58,-99.53 912.33,-105.44"/>
</g>
<!-- Utils_TCString_t_rec -->
<g id="node18" class="node">
<title>Utils_TCString_t_rec</title>
<g id="a_node18"><a xlink:href="Utils.html#TCString.t_rec" xlink:title="t_rec">
<ellipse fill="#f070d1" stroke="black" cx="587" cy="-420.01" rx="33.63" ry="18"/>
<ellipse fill="none" stroke="black" cx="587" cy="-420.01" rx="37.61" ry="22"/>
<ellipse fill="none" stroke="black" cx="587" cy="-420.01" rx="41.59" ry="26"/>
<text text-anchor="middle" x="587" y="-416.31" font-family="Times,serif" font-size="14.00">t_rec</text>
</a>
</g>
</g>
<!-- Utils_TCString_t_rect -->
<g id="node20" class="node">
<title>Utils_TCString_t_rect</title>
<g id="a_node20"><a xlink:href="Utils.html#TCString.t_rect" xlink:title="t_rect">
<ellipse fill="#f070d1" stroke="black" cx="587" cy="-244.01" rx="37.89" ry="18"/>
<text text-anchor="middle" x="587" y="-240.31" font-family="Times,serif" font-size="14.00">t_rect</text>
</a>
</g>
</g>
<!-- Utils_TCString_t_rec&#45;&gt;Utils_TCString_t_rect -->
<g id="edge32" class="edge">
<title>Utils_TCString_t_rec&#45;&gt;Utils_TCString_t_rect</title>
<path fill="none" stroke="black" d="M587,-393.71C587,-361.53 587,-306.15 587,-272.82"/>
<polygon fill="black" stroke="black" points="590.5,-272.42 587,-262.42 583.5,-272.42 590.5,-272.42"/>
</g>
<!-- Utils_TCString_t_ind -->
<g id="node19" class="node">
<title>Utils_TCString_t_ind</title>
<g id="a_node19"><a xlink:href="Utils.html#TCString.t_ind" xlink:title="t_ind">
<ellipse fill="#7fffd4" stroke="black" cx="490" cy="-244.01" rx="33.63" ry="18"/>
<ellipse fill="none" stroke="black" cx="490" cy="-244.01" rx="37.61" ry="22"/>
<ellipse fill="none" stroke="black" cx="490" cy="-244.01" rx="41.59" ry="26"/>
<text text-anchor="middle" x="490" y="-240.31" font-family="Times,serif" font-size="14.00">t_ind</text>
</a>
</g>
</g>
<!-- Utils_TCString_t_ind&#45;&gt;Utils_TCString_String -->
<g id="edge33" class="edge">
<title>Utils_TCString_t_ind&#45;&gt;Utils_TCString_String</title>
<path fill="none" stroke="black" d="M512.12,-221.7C542.91,-192.04 598.46,-138.51 630.15,-107.99"/>
<polygon fill="black" stroke="black" points="632.89,-110.21 637.66,-100.75 628.03,-105.17 632.89,-110.21"/>
</g>
<!-- Utils_TCString_t_ind&#45;&gt;Utils_TCString_EmptyString -->
<g id="edge34" class="edge">
<title>Utils_TCString_t_ind&#45;&gt;Utils_TCString_EmptyString</title>
<path fill="none" stroke="black" d="M490,-217.97C490,-189.15 490,-141.95 490,-112.23"/>
<polygon fill="black" stroke="black" points="493.5,-112.14 490,-102.14 486.5,-112.14 493.5,-112.14"/>
</g>
<!-- Utils_TCString_t_ind&#45;&gt;Utils_TCString_t -->
<g id="edge35" class="edge">
<title>Utils_TCString_t_ind&#45;&gt;Utils_TCString_t</title>
<path fill="none" stroke="black" d="M521.16,-226.59C527.33,-223.57 533.81,-220.58 540,-218.01 671.22,-163.6 833.45,-114.91 903.32,-94.8"/>
<polygon fill="black" stroke="black" points="904.68,-98.05 913.33,-91.93 902.75,-91.32 904.68,-98.05"/>
</g>
<!-- Utils_TCString_t_rect&#45;&gt;Utils_TCString_String -->
<g id="edge36" class="edge">
<title>Utils_TCString_t_rect&#45;&gt;Utils_TCString_String</title>
<path fill="none" stroke="black" d="M594.17,-226.1C605.86,-198.54 629.09,-143.75 642.92,-111.15"/>
<polygon fill="black" stroke="black" points="646.2,-112.37 646.88,-101.8 639.76,-109.64 646.2,-112.37"/>
</g>
<!-- Utils_TCString_t_rect&#45;&gt;Utils_TCString_EmptyString -->
<g id="edge37" class="edge">
<title>Utils_TCString_t_rect&#45;&gt;Utils_TCString_EmptyString</title>
<path fill="none" stroke="black" d="M576.8,-226.4C559.82,-198.74 525.63,-143.04 505.6,-110.42"/>
<polygon fill="black" stroke="black" points="508.57,-108.56 500.35,-101.87 502.6,-112.23 508.57,-108.56"/>
</g>
<!-- Utils_TCString_t_rect&#45;&gt;Utils_TCString_t -->
<g id="edge38" class="edge">
<title>Utils_TCString_t_rect&#45;&gt;Utils_TCString_t</title>
<path fill="none" stroke="black" d="M610.73,-229.94C618.12,-225.98 626.35,-221.71 634,-218.01 731.84,-170.67 850.59,-120.87 906.28,-97.95"/>
<polygon fill="black" stroke="black" points="907.69,-101.15 915.61,-94.11 905.03,-94.68 907.69,-101.15"/>
</g>
<!-- Utils_mkNames -->
<g id="node24" class="node">
<title>Utils_mkNames</title>
<g id="a_node24"><a xlink:href="Utils.html#mkNames" xlink:title="mkNames">
<ellipse fill="#7fffd4" stroke="black" cx="81" cy="-420.01" rx="57.37" ry="18"/>
<ellipse fill="none" stroke="black" cx="81" cy="-420.01" rx="61.38" ry="22"/>
<ellipse fill="none" stroke="black" cx="81" cy="-420.01" rx="65.39" ry="26"/>
<text text-anchor="middle" x="81" y="-416.31" font-family="Times,serif" font-size="14.00">mkNames</text>
</a>
</g>
</g>
<!-- Utils_mkNames&#45;&gt;Utils_TCString_of_string -->
<g id="edge39" class="edge">
<title>Utils_mkNames&#45;&gt;Utils_TCString_of_string</title>
<path fill="none" stroke="black" d="M101.95,-395.18C130.93,-362.23 182.96,-303.06 212.31,-269.67"/>
<polygon fill="black" stroke="black" points="215.29,-271.59 219.26,-261.77 210.03,-266.97 215.29,-271.59"/>
</g>
</g>
</svg>
