<?xml version="1.0" encoding="UTF-8" standalone="no"?>
<!DOCTYPE svg PUBLIC "-//W3C//DTD SVG 1.1//EN"
 "http://www.w3.org/Graphics/SVG/1.1/DTD/svg11.dtd">
<!-- Generated by graphviz version 2.43.0 (0)
 -->
<!-- Title: BATFixed Pages: 1 -->
<svg width="654pt" height="331pt"
 viewBox="0.00 0.00 654.00 331.00" xmlns="http://www.w3.org/2000/svg" xmlns:xlink="http://www.w3.org/1999/xlink">
<g id="graph0" class="graph" transform="scale(1 1) rotate(0) translate(4 327)">
<title>BATFixed</title>
<polygon fill="white" stroke="transparent" points="-4,4 -4,-327 650,-327 650,4 -4,4"/>
<g id="clust1" class="cluster">
<title>cluster_BATFixed</title>
<polygon fill="#ffffc3" stroke="black" points="10.38,-8 10.38,-315 635.62,-315 635.62,-8 10.38,-8"/>
<text text-anchor="middle" x="52.88" y="-299.8" font-family="Times,serif" font-size="14.00">BATFixed</text>
</g>
<!-- BATFixed_contract -->
<g id="node1" class="node">
<title>BATFixed_contract</title>
<g id="a_node1"><a xlink:href="BATFixed.html#contract" xlink:title="contract">
<ellipse fill="#f070d1" stroke="black" cx="339.4" cy="-258" rx="49.31" ry="18"/>
<ellipse fill="none" stroke="black" cx="339.4" cy="-258" rx="53.3" ry="22"/>
<ellipse fill="none" stroke="black" cx="339.4" cy="-258" rx="57.29" ry="26"/>
<text text-anchor="middle" x="339.4" y="-254.3" font-family="Times,serif" font-size="14.00">contract</text>
</a>
</g>
</g>
<!-- BATFixed_receive -->
<g id="node2" class="node">
<title>BATFixed_receive</title>
<g id="a_node2"><a xlink:href="BATFixed.html#receive" xlink:title="receive">
<ellipse fill="#f070d1" stroke="black" cx="282.4" cy="-178" rx="44.39" ry="18"/>
<text text-anchor="middle" x="282.4" y="-174.3" font-family="Times,serif" font-size="14.00">receive</text>
</a>
</g>
</g>
<!-- BATFixed_contract&#45;&gt;BATFixed_receive -->
<g id="edge1" class="edge">
<title>BATFixed_contract&#45;&gt;BATFixed_receive</title>
<path fill="none" stroke="black" d="M321.99,-233.17C315.17,-223.84 307.35,-213.14 300.47,-203.73"/>
<polygon fill="black" stroke="black" points="303.19,-201.53 294.47,-195.52 297.54,-205.66 303.19,-201.53"/>
</g>
<!-- BATFixed_init -->
<g id="node7" class="node">
<title>BATFixed_init</title>
<g id="a_node7"><a xlink:href="BATFixed.html#init" xlink:title="init">
<ellipse fill="#f070d1" stroke="black" cx="398.4" cy="-178" rx="27" ry="18"/>
<text text-anchor="middle" x="398.4" y="-174.3" font-family="Times,serif" font-size="14.00">init</text>
</a>
</g>
</g>
<!-- BATFixed_contract&#45;&gt;BATFixed_init -->
<g id="edge2" class="edge">
<title>BATFixed_contract&#45;&gt;BATFixed_init</title>
<path fill="none" stroke="black" d="M357.42,-233.17C364.76,-223.47 373.22,-212.28 380.54,-202.61"/>
<polygon fill="black" stroke="black" points="383.39,-204.65 386.63,-194.56 377.8,-200.43 383.39,-204.65"/>
</g>
<!-- BATFixed_receive_bat -->
<g id="node3" class="node">
<title>BATFixed_receive_bat</title>
<g id="a_node3"><a xlink:href="BATFixed.html#receive_bat" xlink:title="receive_bat">
<ellipse fill="#f070d1" stroke="black" cx="282.4" cy="-106" rx="63.89" ry="18"/>
<text text-anchor="middle" x="282.4" y="-102.3" font-family="Times,serif" font-size="14.00">receive_bat</text>
</a>
</g>
</g>
<!-- BATFixed_receive&#45;&gt;BATFixed_receive_bat -->
<g id="edge3" class="edge">
<title>BATFixed_receive&#45;&gt;BATFixed_receive_bat</title>
<path fill="none" stroke="black" d="M282.4,-159.7C282.4,-151.98 282.4,-142.71 282.4,-134.11"/>
<polygon fill="black" stroke="black" points="285.9,-134.1 282.4,-124.1 278.9,-134.1 285.9,-134.1"/>
</g>
<!-- BATFixed_try_finalize -->
<g id="node4" class="node">
<title>BATFixed_try_finalize</title>
<g id="a_node4"><a xlink:href="BATFixed.html#try_finalize" xlink:title="try_finalize">
<ellipse fill="#f070d1" stroke="black" cx="101.4" cy="-34" rx="61.99" ry="18"/>
<text text-anchor="middle" x="101.4" y="-30.3" font-family="Times,serif" font-size="14.00">try_finalize</text>
</a>
</g>
</g>
<!-- BATFixed_receive_bat&#45;&gt;BATFixed_try_finalize -->
<g id="edge4" class="edge">
<title>BATFixed_receive_bat&#45;&gt;BATFixed_try_finalize</title>
<path fill="none" stroke="black" d="M246.2,-91C217.53,-79.91 177.32,-64.36 146.55,-52.46"/>
<polygon fill="black" stroke="black" points="147.5,-49.08 136.91,-48.73 144.98,-55.61 147.5,-49.08"/>
</g>
<!-- BATFixed_try_refund -->
<g id="node5" class="node">
<title>BATFixed_try_refund</title>
<g id="a_node5"><a xlink:href="BATFixed.html#try_refund" xlink:title="try_refund">
<ellipse fill="#f070d1" stroke="black" cx="282.4" cy="-34" rx="59.59" ry="18"/>
<text text-anchor="middle" x="282.4" y="-30.3" font-family="Times,serif" font-size="14.00">try_refund</text>
</a>
</g>
</g>
<!-- BATFixed_receive_bat&#45;&gt;BATFixed_try_refund -->
<g id="edge5" class="edge">
<title>BATFixed_receive_bat&#45;&gt;BATFixed_try_refund</title>
<path fill="none" stroke="black" d="M282.4,-87.7C282.4,-79.98 282.4,-70.71 282.4,-62.11"/>
<polygon fill="black" stroke="black" points="285.9,-62.1 282.4,-52.1 278.9,-62.1 285.9,-62.1"/>
</g>
<!-- BATFixed_try_create_tokens -->
<g id="node6" class="node">
<title>BATFixed_try_create_tokens</title>
<g id="a_node6"><a xlink:href="BATFixed.html#try_create_tokens" xlink:title="try_create_tokens">
<ellipse fill="#f070d1" stroke="black" cx="504.4" cy="-34" rx="92.88" ry="18"/>
<text text-anchor="middle" x="504.4" y="-30.3" font-family="Times,serif" font-size="14.00">try_create_tokens</text>
</a>
</g>
</g>
<!-- BATFixed_receive_bat&#45;&gt;BATFixed_try_create_tokens -->
<g id="edge6" class="edge">
<title>BATFixed_receive_bat&#45;&gt;BATFixed_try_create_tokens</title>
<path fill="none" stroke="black" d="M323.37,-92.08C358.49,-81.01 409.4,-64.96 448.29,-52.69"/>
<polygon fill="black" stroke="black" points="449.42,-56.01 457.9,-49.66 447.31,-49.33 449.42,-56.01"/>
</g>
</g>
</svg>
