<?xml version="1.0" encoding="UTF-8" standalone="no"?>
<!DOCTYPE svg PUBLIC "-//W3C//DTD SVG 1.1//EN"
 "http://www.w3.org/Graphics/SVG/1.1/DTD/svg11.dtd">
<!-- Generated by graphviz version 2.43.0 (0)
 -->
<!-- Title: ContractMonads Pages: 1 -->
<svg width="5099pt" height="2554pt"
 viewBox="0.00 0.00 5099.00 2553.50" xmlns="http://www.w3.org/2000/svg" xmlns:xlink="http://www.w3.org/1999/xlink">
<g id="graph0" class="graph" transform="scale(1 1) rotate(0) translate(4 2549.5)">
<title>ContractMonads</title>
<polygon fill="white" stroke="transparent" points="-4,4 -4,-2549.5 5095,-2549.5 5095,4 -4,4"/>
<g id="clust1" class="cluster">
<title>cluster_ContractMonads</title>
<polygon fill="#ffffc3" stroke="black" points="8,-76.27 8,-2469.23 5083,-2469.23 5083,-76.27 8,-76.27"/>
<text text-anchor="middle" x="75.5" y="-2454.03" font-family="Times,serif" font-size="14.00">ContractMonads</text>
</g>
<!-- ContractMonads_build_contract -->
<g id="node1" class="node">
<title>ContractMonads_build_contract</title>
<g id="a_node1"><a xlink:href="ContractMonads.html#build_contract" xlink:title="build_contract">
<ellipse fill="#f070d1" stroke="black" cx="3572" cy="-1926.27" rx="77.2" ry="18"/>
<ellipse fill="none" stroke="black" cx="3572" cy="-1926.27" rx="81.19" ry="22"/>
<ellipse fill="none" stroke="black" cx="3572" cy="-1926.27" rx="85.19" ry="26"/>
<text text-anchor="middle" x="3572" y="-1922.57" font-family="Times,serif" font-size="14.00">build_contract</text>
</a>
</g>
</g>
<!-- ContractMonads_run_contract_receiver -->
<g id="node20" class="node">
<title>ContractMonads_run_contract_receiver</title>
<g id="a_node20"><a xlink:href="ContractMonads.html#run_contract_receiver" xlink:title="run_contract_receiver">
<ellipse fill="#f070d1" stroke="black" cx="3687" cy="-1087.27" rx="112.38" ry="18"/>
<text text-anchor="middle" x="3687" y="-1083.57" font-family="Times,serif" font-size="14.00">run_contract_receiver</text>
</a>
</g>
</g>
<!-- ContractMonads_build_contract&#45;&gt;ContractMonads_run_contract_receiver -->
<g id="edge1" class="edge">
<title>ContractMonads_build_contract&#45;&gt;ContractMonads_run_contract_receiver</title>
<path fill="none" stroke="black" d="M3575.44,-1900.22C3592.27,-1777.72 3665.81,-1242.48 3683.27,-1115.4"/>
<polygon fill="black" stroke="black" points="3686.76,-1115.74 3684.65,-1105.35 3679.82,-1114.78 3686.76,-1115.74"/>
</g>
<!-- ContractMonads_run_contract_initer -->
<g id="node27" class="node">
<title>ContractMonads_run_contract_initer</title>
<g id="a_node27"><a xlink:href="ContractMonads.html#run_contract_initer" xlink:title="run_contract_initer">
<ellipse fill="#f070d1" stroke="black" cx="3457" cy="-1087.27" rx="99.38" ry="18"/>
<text text-anchor="middle" x="3457" y="-1083.57" font-family="Times,serif" font-size="14.00">run_contract_initer</text>
</a>
</g>
</g>
<!-- ContractMonads_build_contract&#45;&gt;ContractMonads_run_contract_initer -->
<g id="edge2" class="edge">
<title>ContractMonads_build_contract&#45;&gt;ContractMonads_run_contract_initer</title>
<path fill="none" stroke="black" d="M3568.56,-1900.22C3551.73,-1777.72 3478.19,-1242.48 3460.73,-1115.4"/>
<polygon fill="black" stroke="black" points="3464.18,-1114.78 3459.35,-1105.35 3457.24,-1115.74 3464.18,-1114.78"/>
</g>
<!-- ContractMonads_accept_call -->
<g id="node2" class="node">
<title>ContractMonads_accept_call</title>
<g id="a_node2"><a xlink:href="ContractMonads.html#accept_call" xlink:title="accept_call">
<ellipse fill="#f070d1" stroke="black" cx="4733" cy="-1087.27" rx="61.96" ry="18"/>
<ellipse fill="none" stroke="black" cx="4733" cy="-1087.27" rx="65.98" ry="22"/>
<ellipse fill="none" stroke="black" cx="4733" cy="-1087.27" rx="69.99" ry="26"/>
<text text-anchor="middle" x="4733" y="-1083.57" font-family="Times,serif" font-size="14.00">accept_call</text>
</a>
</g>
</g>
<!-- ContractMonads_ContractReceiver -->
<g id="node22" class="node">
<title>ContractMonads_ContractReceiver</title>
<g id="a_node22"><a xlink:href="ContractMonads.html#ContractReceiver" xlink:title="ContractReceiver">
<ellipse fill="#f070d1" stroke="black" cx="4322" cy="-324.27" rx="91.78" ry="18"/>
<text text-anchor="middle" x="4322" y="-320.57" font-family="Times,serif" font-size="14.00">ContractReceiver</text>
</a>
</g>
</g>
<!-- ContractMonads_accept_call&#45;&gt;ContractMonads_ContractReceiver -->
<g id="edge3" class="edge">
<title>ContractMonads_accept_call&#45;&gt;ContractMonads_ContractReceiver</title>
<path fill="none" stroke="black" d="M4719.56,-1061.38C4657.53,-946.52 4399.23,-468.26 4336.01,-351.21"/>
<polygon fill="black" stroke="black" points="4338.98,-349.35 4331.15,-342.21 4332.82,-352.67 4338.98,-349.35"/>
</g>
<!-- ContractMonads_reject_call -->
<g id="node3" class="node">
<title>ContractMonads_reject_call</title>
<g id="a_node3"><a xlink:href="ContractMonads.html#reject_call" xlink:title="reject_call">
<ellipse fill="#f070d1" stroke="black" cx="4579" cy="-1087.27" rx="57.71" ry="18"/>
<ellipse fill="none" stroke="black" cx="4579" cy="-1087.27" rx="61.7" ry="22"/>
<ellipse fill="none" stroke="black" cx="4579" cy="-1087.27" rx="65.69" ry="26"/>
<text text-anchor="middle" x="4579" y="-1083.57" font-family="Times,serif" font-size="14.00">reject_call</text>
</a>
</g>
</g>
<!-- ContractMonads_reject_call&#45;&gt;ContractMonads_ContractReceiver -->
<g id="edge4" class="edge">
<title>ContractMonads_reject_call&#45;&gt;ContractMonads_ContractReceiver</title>
<path fill="none" stroke="black" d="M4570.6,-1061.38C4531.93,-946.88 4371.29,-471.22 4331.13,-352.31"/>
<polygon fill="black" stroke="black" points="4334.35,-350.89 4327.83,-342.53 4327.71,-353.13 4334.35,-350.89"/>
</g>
<!-- ContractMonads_queue -->
<g id="node4" class="node">
<title>ContractMonads_queue</title>
<g id="a_node4"><a xlink:href="ContractMonads.html#queue" xlink:title="queue">
<ellipse fill="#f070d1" stroke="black" cx="4448" cy="-1087.27" rx="38.99" ry="18"/>
<ellipse fill="none" stroke="black" cx="4448" cy="-1087.27" rx="42.99" ry="22"/>
<ellipse fill="none" stroke="black" cx="4448" cy="-1087.27" rx="46.99" ry="26"/>
<text text-anchor="middle" x="4448" y="-1083.57" font-family="Times,serif" font-size="14.00">queue</text>
</a>
</g>
</g>
<!-- ContractMonads_queue&#45;&gt;ContractMonads_ContractReceiver -->
<g id="edge5" class="edge">
<title>ContractMonads_queue&#45;&gt;ContractMonads_ContractReceiver</title>
<path fill="none" stroke="black" d="M4443.81,-1060.95C4424.74,-945.78 4346.27,-471.87 4326.53,-352.61"/>
<polygon fill="black" stroke="black" points="4329.94,-351.79 4324.85,-342.5 4323.03,-352.93 4329.94,-351.79"/>
</g>
<!-- ContractMonads_my_state -->
<g id="node5" class="node">
<title>ContractMonads_my_state</title>
<g id="a_node5"><a xlink:href="ContractMonads.html#my_state" xlink:title="my_state">
<ellipse fill="#f070d1" stroke="black" cx="4322" cy="-1087.27" rx="52.77" ry="18"/>
<ellipse fill="none" stroke="black" cx="4322" cy="-1087.27" rx="56.78" ry="22"/>
<ellipse fill="none" stroke="black" cx="4322" cy="-1087.27" rx="60.79" ry="26"/>
<text text-anchor="middle" x="4322" y="-1083.57" font-family="Times,serif" font-size="14.00">my_state</text>
</a>
</g>
</g>
<!-- ContractMonads_my_state&#45;&gt;ContractMonads_ContractReceiver -->
<g id="edge6" class="edge">
<title>ContractMonads_my_state&#45;&gt;ContractMonads_ContractReceiver</title>
<path fill="none" stroke="black" d="M4322,-1060.95C4322,-945.78 4322,-471.87 4322,-352.61"/>
<polygon fill="black" stroke="black" points="4325.5,-352.5 4322,-342.5 4318.5,-352.5 4325.5,-352.5"/>
</g>
<!-- ContractMonads_call_msg -->
<g id="node6" class="node">
<title>ContractMonads_call_msg</title>
<g id="a_node6"><a xlink:href="ContractMonads.html#call_msg" xlink:title="call_msg">
<ellipse fill="#f070d1" stroke="black" cx="4185" cy="-1087.27" rx="50.86" ry="18"/>
<ellipse fill="none" stroke="black" cx="4185" cy="-1087.27" rx="54.88" ry="22"/>
<ellipse fill="none" stroke="black" cx="4185" cy="-1087.27" rx="58.89" ry="26"/>
<text text-anchor="middle" x="4185" y="-1083.57" font-family="Times,serif" font-size="14.00">call_msg</text>
</a>
</g>
</g>
<!-- ContractMonads_call_msg&#45;&gt;ContractMonads_ContractReceiver -->
<g id="edge7" class="edge">
<title>ContractMonads_call_msg&#45;&gt;ContractMonads_ContractReceiver</title>
<path fill="none" stroke="black" d="M4189.56,-1060.95C4210.29,-945.78 4295.61,-471.87 4317.08,-352.61"/>
<polygon fill="black" stroke="black" points="4320.57,-352.96 4318.9,-342.5 4313.68,-351.72 4320.57,-352.96"/>
</g>
<!-- ContractMonads_accept_deployment -->
<g id="node7" class="node">
<title>ContractMonads_accept_deployment</title>
<g id="a_node7"><a xlink:href="ContractMonads.html#accept_deployment" xlink:title="accept_deployment">
<ellipse fill="#f070d1" stroke="black" cx="2055" cy="-1926.27" rx="100.18" ry="18"/>
<ellipse fill="none" stroke="black" cx="2055" cy="-1926.27" rx="104.18" ry="22"/>
<ellipse fill="none" stroke="black" cx="2055" cy="-1926.27" rx="108.18" ry="26"/>
<text text-anchor="middle" x="2055" y="-1922.57" font-family="Times,serif" font-size="14.00">accept_deployment</text>
</a>
</g>
</g>
<!-- ContractMonads_contract_initer_monad -->
<g id="node26" class="node">
<title>ContractMonads_contract_initer_monad</title>
<g id="a_node26"><a xlink:href="ContractMonads.html#contract_initer_monad" xlink:title="contract_initer_monad">
<ellipse fill="#f070d1" stroke="black" cx="2175" cy="-1087.27" rx="114.28" ry="18"/>
<text text-anchor="middle" x="2175" y="-1083.57" font-family="Times,serif" font-size="14.00">contract_initer_monad</text>
</a>
</g>
</g>
<!-- ContractMonads_accept_deployment&#45;&gt;ContractMonads_contract_initer_monad -->
<g id="edge8" class="edge">
<title>ContractMonads_accept_deployment&#45;&gt;ContractMonads_contract_initer_monad</title>
<path fill="none" stroke="black" d="M2058.59,-1900.22C2076.15,-1777.72 2152.89,-1242.48 2171.11,-1115.4"/>
<polygon fill="black" stroke="black" points="2174.6,-1115.75 2172.55,-1105.35 2167.67,-1114.75 2174.6,-1115.75"/>
</g>
<!-- ContractMonads_reject_deployment -->
<g id="node8" class="node">
<title>ContractMonads_reject_deployment</title>
<g id="a_node8"><a xlink:href="ContractMonads.html#reject_deployment" xlink:title="reject_deployment">
<ellipse fill="#f070d1" stroke="black" cx="2920" cy="-1087.27" rx="96.7" ry="18"/>
<ellipse fill="none" stroke="black" cx="2920" cy="-1087.27" rx="100.69" ry="22"/>
<ellipse fill="none" stroke="black" cx="2920" cy="-1087.27" rx="104.68" ry="26"/>
<text text-anchor="middle" x="2920" y="-1083.57" font-family="Times,serif" font-size="14.00">reject_deployment</text>
</a>
</g>
</g>
<!-- ContractMonads_ContractIniter -->
<g id="node28" class="node">
<title>ContractMonads_ContractIniter</title>
<g id="a_node28"><a xlink:href="ContractMonads.html#ContractIniter" xlink:title="ContractIniter">
<ellipse fill="#f070d1" stroke="black" cx="2567" cy="-324.27" rx="77.19" ry="18"/>
<text text-anchor="middle" x="2567" y="-320.57" font-family="Times,serif" font-size="14.00">ContractIniter</text>
</a>
</g>
</g>
<!-- ContractMonads_reject_deployment&#45;&gt;ContractMonads_ContractIniter -->
<g id="edge9" class="edge">
<title>ContractMonads_reject_deployment&#45;&gt;ContractMonads_ContractIniter</title>
<path fill="none" stroke="black" d="M2908.46,-1061.38C2855.23,-946.64 2633.78,-469.22 2579.2,-351.56"/>
<polygon fill="black" stroke="black" points="2582.24,-349.81 2574.86,-342.21 2575.89,-352.76 2582.24,-349.81"/>
</g>
<!-- ContractMonads_deployment_setup -->
<g id="node9" class="node">
<title>ContractMonads_deployment_setup</title>
<g id="a_node9"><a xlink:href="ContractMonads.html#deployment_setup" xlink:title="deployment_setup">
<ellipse fill="#f070d1" stroke="black" cx="2694" cy="-1087.27" rx="95.58" ry="18"/>
<ellipse fill="none" stroke="black" cx="2694" cy="-1087.27" rx="99.58" ry="22"/>
<ellipse fill="none" stroke="black" cx="2694" cy="-1087.27" rx="103.58" ry="26"/>
<text text-anchor="middle" x="2694" y="-1083.57" font-family="Times,serif" font-size="14.00">deployment_setup</text>
</a>
</g>
</g>
<!-- ContractMonads_deployment_setup&#45;&gt;ContractMonads_ContractIniter -->
<g id="edge10" class="edge">
<title>ContractMonads_deployment_setup&#45;&gt;ContractMonads_ContractIniter</title>
<path fill="none" stroke="black" d="M2689.77,-1060.95C2670.55,-945.78 2591.47,-471.87 2571.56,-352.61"/>
<polygon fill="black" stroke="black" points="2574.97,-351.78 2569.88,-342.5 2568.07,-352.94 2574.97,-351.78"/>
</g>
<!-- ContractMonads_call_amount -->
<g id="node10" class="node">
<title>ContractMonads_call_amount</title>
<g id="a_node10"><a xlink:href="ContractMonads.html#call_amount" xlink:title="call_amount">
<ellipse fill="#f070d1" stroke="black" cx="918" cy="-1087.27" rx="66.11" ry="18"/>
<ellipse fill="none" stroke="black" cx="918" cy="-1087.27" rx="70.1" ry="22"/>
<ellipse fill="none" stroke="black" cx="918" cy="-1087.27" rx="74.09" ry="26"/>
<text text-anchor="middle" x="918" y="-1083.57" font-family="Times,serif" font-size="14.00">call_amount</text>
</a>
</g>
</g>
<!-- ContractMonads_ContractReader -->
<g id="node32" class="node">
<title>ContractMonads_ContractReader</title>
<g id="a_node32"><a xlink:href="ContractMonads.html#ContractReader" xlink:title="ContractReader">
<ellipse fill="#f070d1" stroke="black" cx="918" cy="-324.27" rx="84.49" ry="18"/>
<text text-anchor="middle" x="918" y="-320.57" font-family="Times,serif" font-size="14.00">ContractReader</text>
</a>
</g>
</g>
<!-- ContractMonads_call_amount&#45;&gt;ContractMonads_ContractReader -->
<g id="edge11" class="edge">
<title>ContractMonads_call_amount&#45;&gt;ContractMonads_ContractReader</title>
<path fill="none" stroke="black" d="M918,-1060.95C918,-945.78 918,-471.87 918,-352.61"/>
<polygon fill="black" stroke="black" points="921.5,-352.5 918,-342.5 914.5,-352.5 921.5,-352.5"/>
</g>
<!-- ContractMonads_my_balance -->
<g id="node11" class="node">
<title>ContractMonads_my_balance</title>
<g id="a_node11"><a xlink:href="ContractMonads.html#my_balance" xlink:title="my_balance">
<ellipse fill="#f070d1" stroke="black" cx="753" cy="-1087.27" rx="64.99" ry="18"/>
<ellipse fill="none" stroke="black" cx="753" cy="-1087.27" rx="68.99" ry="22"/>
<ellipse fill="none" stroke="black" cx="753" cy="-1087.27" rx="72.99" ry="26"/>
<text text-anchor="middle" x="753" y="-1083.57" font-family="Times,serif" font-size="14.00">my_balance</text>
</a>
</g>
</g>
<!-- ContractMonads_my_balance&#45;&gt;ContractMonads_ContractReader -->
<g id="edge12" class="edge">
<title>ContractMonads_my_balance&#45;&gt;ContractMonads_ContractReader</title>
<path fill="none" stroke="black" d="M758.49,-1060.95C783.46,-945.78 886.21,-471.87 912.07,-352.61"/>
<polygon fill="black" stroke="black" points="915.57,-353.01 914.26,-342.5 908.73,-351.53 915.57,-353.01"/>
</g>
<!-- ContractMonads_my_addr -->
<g id="node12" class="node">
<title>ContractMonads_my_addr</title>
<g id="a_node12"><a xlink:href="ContractMonads.html#my_addr" xlink:title="my_addr">
<ellipse fill="#f070d1" stroke="black" cx="603" cy="-1087.27" rx="50.86" ry="18"/>
<ellipse fill="none" stroke="black" cx="603" cy="-1087.27" rx="54.88" ry="22"/>
<ellipse fill="none" stroke="black" cx="603" cy="-1087.27" rx="58.89" ry="26"/>
<text text-anchor="middle" x="603" y="-1083.57" font-family="Times,serif" font-size="14.00">my_addr</text>
</a>
</g>
</g>
<!-- ContractMonads_my_addr&#45;&gt;ContractMonads_ContractReader -->
<g id="edge13" class="edge">
<title>ContractMonads_my_addr&#45;&gt;ContractMonads_ContractReader</title>
<path fill="none" stroke="black" d="M613.3,-1061.38C660.8,-946.64 858.41,-469.22 907.12,-351.56"/>
<polygon fill="black" stroke="black" points="910.4,-352.79 910.99,-342.21 903.93,-350.11 910.4,-352.79"/>
</g>
<!-- ContractMonads_caller_addr -->
<g id="node13" class="node">
<title>ContractMonads_caller_addr</title>
<g id="a_node13"><a xlink:href="ContractMonads.html#caller_addr" xlink:title="caller_addr">
<ellipse fill="#f070d1" stroke="black" cx="456" cy="-1087.27" rx="62.3" ry="18"/>
<ellipse fill="none" stroke="black" cx="456" cy="-1087.27" rx="66.3" ry="22"/>
<ellipse fill="none" stroke="black" cx="456" cy="-1087.27" rx="70.29" ry="26"/>
<text text-anchor="middle" x="456" y="-1083.57" font-family="Times,serif" font-size="14.00">caller_addr</text>
</a>
</g>
</g>
<!-- ContractMonads_caller_addr&#45;&gt;ContractMonads_ContractReader -->
<g id="edge14" class="edge">
<title>ContractMonads_caller_addr&#45;&gt;ContractMonads_ContractReader</title>
<path fill="none" stroke="black" d="M470.85,-1061.81C540.17,-947.62 831.59,-467.6 902.43,-350.91"/>
<polygon fill="black" stroke="black" points="905.5,-352.61 907.69,-342.25 899.51,-348.98 905.5,-352.61"/>
</g>
<!-- ContractMonads_finalized_height -->
<g id="node14" class="node">
<title>ContractMonads_finalized_height</title>
<g id="a_node14"><a xlink:href="ContractMonads.html#finalized_height" xlink:title="finalized_height">
<ellipse fill="#f070d1" stroke="black" cx="276" cy="-1087.27" rx="83.7" ry="18"/>
<ellipse fill="none" stroke="black" cx="276" cy="-1087.27" rx="87.69" ry="22"/>
<ellipse fill="none" stroke="black" cx="276" cy="-1087.27" rx="91.69" ry="26"/>
<text text-anchor="middle" x="276" y="-1083.57" font-family="Times,serif" font-size="14.00">finalized_height</text>
</a>
</g>
</g>
<!-- ContractMonads_finalized_height&#45;&gt;ContractMonads_ContractReader -->
<g id="edge15" class="edge">
<title>ContractMonads_finalized_height&#45;&gt;ContractMonads_ContractReader</title>
<path fill="none" stroke="black" d="M296.63,-1061.81C393.16,-947.39 799.55,-465.67 896.96,-350.21"/>
<polygon fill="black" stroke="black" points="899.9,-352.15 903.68,-342.25 894.55,-347.63 899.9,-352.15"/>
</g>
<!-- ContractMonads_current_slot -->
<g id="node15" class="node">
<title>ContractMonads_current_slot</title>
<g id="a_node15"><a xlink:href="ContractMonads.html#current_slot" xlink:title="current_slot">
<ellipse fill="#f070d1" stroke="black" cx="91" cy="-1087.27" rx="66.89" ry="18"/>
<ellipse fill="none" stroke="black" cx="91" cy="-1087.27" rx="70.89" ry="22"/>
<ellipse fill="none" stroke="black" cx="91" cy="-1087.27" rx="74.89" ry="26"/>
<text text-anchor="middle" x="91" y="-1083.57" font-family="Times,serif" font-size="14.00">current_slot</text>
</a>
</g>
</g>
<!-- ContractMonads_current_slot&#45;&gt;ContractMonads_ContractReader -->
<g id="edge16" class="edge">
<title>ContractMonads_current_slot&#45;&gt;ContractMonads_ContractReader</title>
<path fill="none" stroke="black" d="M116.66,-1062.66C239.77,-949.37 769.1,-462.29 892.3,-348.92"/>
<polygon fill="black" stroke="black" points="894.83,-351.34 899.82,-342 890.09,-346.19 894.83,-351.34"/>
</g>
<!-- ContractMonads_chain_height -->
<g id="node16" class="node">
<title>ContractMonads_chain_height</title>
<g id="a_node16"><a xlink:href="ContractMonads.html#chain_height" xlink:title="chain_height">
<ellipse fill="#f070d1" stroke="black" cx="1590" cy="-1087.27" rx="69.58" ry="18"/>
<ellipse fill="none" stroke="black" cx="1590" cy="-1087.27" rx="73.59" ry="22"/>
<ellipse fill="none" stroke="black" cx="1590" cy="-1087.27" rx="77.59" ry="26"/>
<text text-anchor="middle" x="1590" y="-1083.57" font-family="Times,serif" font-size="14.00">chain_height</text>
</a>
</g>
</g>
<!-- ContractMonads_chain_height&#45;&gt;ContractMonads_ContractReader -->
<g id="edge17" class="edge">
<title>ContractMonads_chain_height&#45;&gt;ContractMonads_ContractReader</title>
<path fill="none" stroke="black" d="M1568.78,-1062.24C1468.34,-948.5 1041.38,-464.99 939.77,-349.92"/>
<polygon fill="black" stroke="black" points="942.27,-347.46 933.02,-342.28 937.02,-352.1 942.27,-347.46"/>
</g>
<!-- ContractMonads_result_to_contract_receiver -->
<g id="node17" class="node">
<title>ContractMonads_result_to_contract_receiver</title>
<g id="a_node17"><a xlink:href="ContractMonads.html#result_to_contract_receiver" xlink:title="result_to_contract_receiver">
<ellipse fill="#f070d1" stroke="black" cx="3963" cy="-1087.27" rx="137.27" ry="18"/>
<ellipse fill="none" stroke="black" cx="3963" cy="-1087.27" rx="141.27" ry="22"/>
<ellipse fill="none" stroke="black" cx="3963" cy="-1087.27" rx="145.28" ry="26"/>
<text text-anchor="middle" x="3963" y="-1083.57" font-family="Times,serif" font-size="14.00">result_to_contract_receiver</text>
</a>
</g>
</g>
<!-- ContractMonads_result_to_contract_receiver&#45;&gt;ContractMonads_ContractReceiver -->
<g id="edge18" class="edge">
<title>ContractMonads_result_to_contract_receiver&#45;&gt;ContractMonads_ContractReceiver</title>
<path fill="none" stroke="black" d="M3974.94,-1060.95C4029.38,-945.55 4253.74,-469.96 4309.44,-351.89"/>
<polygon fill="black" stroke="black" points="4312.77,-353.03 4313.87,-342.5 4306.44,-350.05 4312.77,-353.03"/>
</g>
<!-- ContractMonads_contract_reader_to_receiver -->
<g id="node18" class="node">
<title>ContractMonads_contract_reader_to_receiver</title>
<g id="a_node18"><a xlink:href="ContractMonads.html#contract_reader_to_receiver" xlink:title="contract_reader_to_receiver">
<ellipse fill="#f070d1" stroke="black" cx="3191" cy="-1087.27" rx="140.28" ry="18"/>
<ellipse fill="none" stroke="black" cx="3191" cy="-1087.27" rx="144.28" ry="22"/>
<ellipse fill="none" stroke="black" cx="3191" cy="-1087.27" rx="148.28" ry="26"/>
<text text-anchor="middle" x="3191" y="-1083.57" font-family="Times,serif" font-size="14.00">contract_reader_to_receiver</text>
</a>
</g>
</g>
<!-- ContractMonads_contract_reader_to_receiver&#45;&gt;ContractMonads_ContractReceiver -->
<g id="edge19" class="edge">
<title>ContractMonads_contract_reader_to_receiver&#45;&gt;ContractMonads_ContractReceiver</title>
<path fill="none" stroke="black" d="M3227.03,-1062.03C3397.88,-947.07 4124.89,-457.89 4289,-347.48"/>
<polygon fill="black" stroke="black" points="4291.35,-350.11 4297.69,-341.62 4287.44,-344.3 4291.35,-350.11"/>
</g>
<!-- ContractMonads_contract_reader_to_receiver&#45;&gt;ContractMonads_ContractReader -->
<g id="edge20" class="edge">
<title>ContractMonads_contract_reader_to_receiver&#45;&gt;ContractMonads_ContractReader</title>
<path fill="none" stroke="black" d="M3124.51,-1064.01C2787.8,-951.28 1274.88,-444.75 971.19,-343.08"/>
<polygon fill="black" stroke="black" points="971.91,-339.63 961.31,-339.77 969.68,-346.26 971.91,-339.63"/>
</g>
<!-- ContractMonads_contract_receiver_laws -->
<g id="node19" class="node">
<title>ContractMonads_contract_receiver_laws</title>
<g id="a_node19"><a xlink:href="ContractMonads.html#contract_receiver_laws" xlink:title="contract_receiver_laws">
<ellipse fill="#7fffd4" stroke="black" cx="4948" cy="-1926.27" rx="116.98" ry="18"/>
<ellipse fill="none" stroke="black" cx="4948" cy="-1926.27" rx="120.98" ry="22"/>
<ellipse fill="none" stroke="black" cx="4948" cy="-1926.27" rx="124.98" ry="26"/>
<text text-anchor="middle" x="4948" y="-1922.57" font-family="Times,serif" font-size="14.00">contract_receiver_laws</text>
</a>
</g>
</g>
<!-- ContractMonads_contract_receiver_monad -->
<g id="node21" class="node">
<title>ContractMonads_contract_receiver_monad</title>
<g id="a_node21"><a xlink:href="ContractMonads.html#contract_receiver_monad" xlink:title="contract_receiver_monad">
<ellipse fill="#f070d1" stroke="black" cx="4948" cy="-1087.27" rx="127.28" ry="18"/>
<text text-anchor="middle" x="4948" y="-1083.57" font-family="Times,serif" font-size="14.00">contract_receiver_monad</text>
</a>
</g>
</g>
<!-- ContractMonads_contract_receiver_laws&#45;&gt;ContractMonads_contract_receiver_monad -->
<g id="edge21" class="edge">
<title>ContractMonads_contract_receiver_laws&#45;&gt;ContractMonads_contract_receiver_monad</title>
<path fill="none" stroke="black" d="M4948,-1900.22C4948,-1777.72 4948,-1242.48 4948,-1115.4"/>
<polygon fill="black" stroke="black" points="4951.5,-1115.35 4948,-1105.35 4944.5,-1115.35 4951.5,-1115.35"/>
</g>
<!-- ContractMonads_run_contract_receiver&#45;&gt;ContractMonads_ContractReceiver -->
<g id="edge22" class="edge">
<title>ContractMonads_run_contract_receiver&#45;&gt;ContractMonads_ContractReceiver</title>
<path fill="none" stroke="black" d="M3701.15,-1069.31C3783.72,-970.36 4202.86,-468.05 4301.29,-350.09"/>
<polygon fill="black" stroke="black" points="4304.09,-352.19 4307.81,-342.27 4298.72,-347.71 4304.09,-352.19"/>
</g>
<!-- ContractMonads_contract_receiver_monad&#45;&gt;ContractMonads_ContractReceiver -->
<g id="edge23" class="edge">
<title>ContractMonads_contract_receiver_monad&#45;&gt;ContractMonads_ContractReceiver</title>
<path fill="none" stroke="black" d="M4934.05,-1069.31C4852.66,-970.36 4439.45,-468.05 4342.42,-350.09"/>
<polygon fill="black" stroke="black" points="4345.04,-347.77 4335.99,-342.27 4339.64,-352.22 4345.04,-347.77"/>
</g>
<!-- ContractMonads_result_to_contract_initer -->
<g id="node23" class="node">
<title>ContractMonads_result_to_contract_initer</title>
<g id="a_node23"><a xlink:href="ContractMonads.html#result_to_contract_initer" xlink:title="result_to_contract_initer">
<ellipse fill="#f070d1" stroke="black" cx="2440" cy="-1087.27" rx="124.27" ry="18"/>
<ellipse fill="none" stroke="black" cx="2440" cy="-1087.27" rx="128.27" ry="22"/>
<ellipse fill="none" stroke="black" cx="2440" cy="-1087.27" rx="132.28" ry="26"/>
<text text-anchor="middle" x="2440" y="-1083.57" font-family="Times,serif" font-size="14.00">result_to_contract_initer</text>
</a>
</g>
</g>
<!-- ContractMonads_result_to_contract_initer&#45;&gt;ContractMonads_ContractIniter -->
<g id="edge24" class="edge">
<title>ContractMonads_result_to_contract_initer&#45;&gt;ContractMonads_ContractIniter</title>
<path fill="none" stroke="black" d="M2444.23,-1060.95C2463.45,-945.78 2542.53,-471.87 2562.44,-352.61"/>
<polygon fill="black" stroke="black" points="2565.93,-352.94 2564.12,-342.5 2559.03,-351.78 2565.93,-352.94"/>
</g>
<!-- ContractMonads_contract_reader_to_contract_initer -->
<g id="node24" class="node">
<title>ContractMonads_contract_reader_to_contract_initer</title>
<g id="a_node24"><a xlink:href="ContractMonads.html#contract_reader_to_contract_initer" xlink:title="contract_reader_to_contract_initer">
<ellipse fill="#f070d1" stroke="black" cx="1864" cy="-1087.27" rx="170.87" ry="18"/>
<ellipse fill="none" stroke="black" cx="1864" cy="-1087.27" rx="174.87" ry="22"/>
<ellipse fill="none" stroke="black" cx="1864" cy="-1087.27" rx="178.87" ry="26"/>
<text text-anchor="middle" x="1864" y="-1083.57" font-family="Times,serif" font-size="14.00">contract_reader_to_contract_initer</text>
</a>
</g>
</g>
<!-- ContractMonads_contract_reader_to_contract_initer&#45;&gt;ContractMonads_ContractIniter -->
<g id="edge25" class="edge">
<title>ContractMonads_contract_reader_to_contract_initer&#45;&gt;ContractMonads_ContractIniter</title>
<path fill="none" stroke="black" d="M1886.99,-1061.38C1993.52,-946.06 2438.46,-464.42 2544.32,-349.82"/>
<polygon fill="black" stroke="black" points="2547.14,-351.93 2551.35,-342.21 2541.99,-347.18 2547.14,-351.93"/>
</g>
<!-- ContractMonads_contract_reader_to_contract_initer&#45;&gt;ContractMonads_ContractReader -->
<g id="edge26" class="edge">
<title>ContractMonads_contract_reader_to_contract_initer&#45;&gt;ContractMonads_ContractReader</title>
<path fill="none" stroke="black" d="M1833.33,-1061.6C1689.88,-946.2 1086.25,-460.61 946.82,-348.46"/>
<polygon fill="black" stroke="black" points="948.67,-345.45 938.68,-341.91 944.28,-350.9 948.67,-345.45"/>
</g>
<!-- ContractMonads_contract_initer_laws -->
<g id="node25" class="node">
<title>ContractMonads_contract_initer_laws</title>
<g id="a_node25"><a xlink:href="ContractMonads.html#contract_initer_laws" xlink:title="contract_initer_laws">
<ellipse fill="#7fffd4" stroke="black" cx="2294" cy="-1926.27" rx="104.77" ry="18"/>
<ellipse fill="none" stroke="black" cx="2294" cy="-1926.27" rx="108.78" ry="22"/>
<ellipse fill="none" stroke="black" cx="2294" cy="-1926.27" rx="112.78" ry="26"/>
<text text-anchor="middle" x="2294" y="-1922.57" font-family="Times,serif" font-size="14.00">contract_initer_laws</text>
</a>
</g>
</g>
<!-- ContractMonads_contract_initer_laws&#45;&gt;ContractMonads_contract_initer_monad -->
<g id="edge27" class="edge">
<title>ContractMonads_contract_initer_laws&#45;&gt;ContractMonads_contract_initer_monad</title>
<path fill="none" stroke="black" d="M2290.44,-1900.22C2273.02,-1777.72 2196.92,-1242.48 2178.86,-1115.4"/>
<polygon fill="black" stroke="black" points="2182.3,-1114.76 2177.43,-1105.35 2175.37,-1115.75 2182.3,-1114.76"/>
</g>
<!-- ContractMonads_contract_initer_monad&#45;&gt;ContractMonads_ContractIniter -->
<g id="edge28" class="edge">
<title>ContractMonads_contract_initer_monad&#45;&gt;ContractMonads_ContractIniter</title>
<path fill="none" stroke="black" d="M2183.74,-1069.31C2234.55,-970.66 2491.9,-471.06 2553.66,-351.16"/>
<polygon fill="black" stroke="black" points="2556.77,-352.76 2558.24,-342.27 2550.55,-349.56 2556.77,-352.76"/>
</g>
<!-- ContractMonads_run_contract_initer&#45;&gt;ContractMonads_ContractIniter -->
<g id="edge29" class="edge">
<title>ContractMonads_run_contract_initer&#45;&gt;ContractMonads_ContractIniter</title>
<path fill="none" stroke="black" d="M3437.16,-1069.31C3320.97,-969.96 2729.17,-463.94 2594.36,-348.66"/>
<polygon fill="black" stroke="black" points="2596.38,-345.78 2586.5,-341.94 2591.83,-351.1 2596.38,-345.78"/>
</g>
<!-- ContractMonads_contract_reader_laws -->
<g id="node29" class="node">
<title>ContractMonads_contract_reader_laws</title>
<g id="a_node29"><a xlink:href="ContractMonads.html#contract_reader_laws" xlink:title="contract_reader_laws">
<ellipse fill="#7fffd4" stroke="black" cx="1374" cy="-1926.27" rx="109.69" ry="18"/>
<ellipse fill="none" stroke="black" cx="1374" cy="-1926.27" rx="113.69" ry="22"/>
<ellipse fill="none" stroke="black" cx="1374" cy="-1926.27" rx="117.68" ry="26"/>
<text text-anchor="middle" x="1374" y="-1922.57" font-family="Times,serif" font-size="14.00">contract_reader_laws</text>
</a>
</g>
</g>
<!-- ContractMonads_contract_reader_monad -->
<g id="node30" class="node">
<title>ContractMonads_contract_reader_monad</title>
<g id="a_node30"><a xlink:href="ContractMonads.html#contract_reader_monad" xlink:title="contract_reader_monad">
<ellipse fill="#f070d1" stroke="black" cx="1374" cy="-1087.27" rx="120.48" ry="18"/>
<text text-anchor="middle" x="1374" y="-1083.57" font-family="Times,serif" font-size="14.00">contract_reader_monad</text>
</a>
</g>
</g>
<!-- ContractMonads_contract_reader_laws&#45;&gt;ContractMonads_contract_reader_monad -->
<g id="edge30" class="edge">
<title>ContractMonads_contract_reader_laws&#45;&gt;ContractMonads_contract_reader_monad</title>
<path fill="none" stroke="black" d="M1374,-1900.22C1374,-1777.72 1374,-1242.48 1374,-1115.4"/>
<polygon fill="black" stroke="black" points="1377.5,-1115.35 1374,-1105.35 1370.5,-1115.35 1377.5,-1115.35"/>
</g>
<!-- ContractMonads_contract_reader_monad&#45;&gt;ContractMonads_ContractReader -->
<g id="edge31" class="edge">
<title>ContractMonads_contract_reader_monad&#45;&gt;ContractMonads_ContractReader</title>
<path fill="none" stroke="black" d="M1363.84,-1069.31C1304.73,-970.66 1005.36,-471.06 933.52,-351.16"/>
<polygon fill="black" stroke="black" points="936.33,-349.05 928.19,-342.27 930.33,-352.65 936.33,-349.05"/>
</g>
<!-- ContractMonads_run_contract_reader -->
<g id="node31" class="node">
<title>ContractMonads_run_contract_reader</title>
<g id="a_node31"><a xlink:href="ContractMonads.html#run_contract_reader" xlink:title="run_contract_reader">
<ellipse fill="#f070d1" stroke="black" cx="1123" cy="-1087.27" rx="104.77" ry="18"/>
<ellipse fill="none" stroke="black" cx="1123" cy="-1087.27" rx="108.78" ry="22"/>
<ellipse fill="none" stroke="black" cx="1123" cy="-1087.27" rx="112.78" ry="26"/>
<text text-anchor="middle" x="1123" y="-1083.57" font-family="Times,serif" font-size="14.00">run_contract_reader</text>
</a>
</g>
</g>
<!-- ContractMonads_run_contract_reader&#45;&gt;ContractMonads_ContractReader -->
<g id="edge32" class="edge">
<title>ContractMonads_run_contract_reader&#45;&gt;ContractMonads_ContractReader</title>
<path fill="none" stroke="black" d="M1116.18,-1060.95C1085.12,-945.67 957.23,-470.92 925.27,-352.25"/>
<polygon fill="black" stroke="black" points="928.62,-351.24 922.64,-342.5 921.86,-353.06 928.62,-351.24"/>
</g>
</g>
</svg>
