<?xml version="1.0" encoding="UTF-8" standalone="no"?>
<!DOCTYPE svg PUBLIC "-//W3C//DTD SVG 1.1//EN"
 "http://www.w3.org/Graphics/SVG/1.1/DTD/svg11.dtd">
<!-- Generated by graphviz version 2.43.0 (0)
 -->
<!-- Title: Finite Pages: 1 -->
<svg width="529pt" height="269pt"
 viewBox="0.00 0.00 529.00 268.50" xmlns="http://www.w3.org/2000/svg" xmlns:xlink="http://www.w3.org/1999/xlink">
<g id="graph0" class="graph" transform="scale(1 1) rotate(0) translate(4 264.5)">
<title>Finite</title>
<polygon fill="white" stroke="transparent" points="-4,4 -4,-264.5 525,-264.5 525,4 -4,4"/>
<g id="clust1" class="cluster">
<title>cluster_Finite</title>
<polygon fill="#ffffc3" stroke="black" points="8,-8.3 8,-252.2 513,-252.2 513,-8.3 8,-8.3"/>
<text text-anchor="middle" x="37.5" y="-237" font-family="Times,serif" font-size="14.00">Finite</text>
</g>
<!-- Finite_elements_all -->
<g id="node1" class="node">
<title>Finite_elements_all</title>
<g id="a_node1"><a xlink:href="Finite.html#elements_all" xlink:title="elements_all">
<ellipse fill="#7fffd4" stroke="black" cx="428" cy="-193.3" rx="68.8" ry="18"/>
<ellipse fill="none" stroke="black" cx="428" cy="-193.3" rx="72.79" ry="22"/>
<ellipse fill="none" stroke="black" cx="428" cy="-193.3" rx="76.79" ry="26"/>
<text text-anchor="middle" x="428" y="-189.6" font-family="Times,serif" font-size="14.00">elements_all</text>
</a>
</g>
</g>
<!-- Finite_elements -->
<g id="node3" class="node">
<title>Finite_elements</title>
<g id="a_node3"><a xlink:href="Finite.html#elements" xlink:title="elements">
<ellipse fill="#f070d1" stroke="black" cx="341" cy="-110.3" rx="53.09" ry="18"/>
<text text-anchor="middle" x="341" y="-106.6" font-family="Times,serif" font-size="14.00">elements</text>
</a>
</g>
</g>
<!-- Finite_elements_all&#45;&gt;Finite_elements -->
<g id="edge1" class="edge">
<title>Finite_elements_all&#45;&gt;Finite_elements</title>
<path fill="none" stroke="black" d="M402.37,-168.44C390.88,-157.75 377.39,-145.18 365.98,-134.56"/>
<polygon fill="black" stroke="black" points="368.17,-131.82 358.47,-127.57 363.4,-136.94 368.17,-131.82"/>
</g>
<!-- Finite_elements_set -->
<g id="node2" class="node">
<title>Finite_elements_set</title>
<g id="a_node2"><a xlink:href="Finite.html#elements_set" xlink:title="elements_set">
<ellipse fill="#7fffd4" stroke="black" cx="254" cy="-193.3" rx="71.49" ry="18"/>
<ellipse fill="none" stroke="black" cx="254" cy="-193.3" rx="75.49" ry="22"/>
<ellipse fill="none" stroke="black" cx="254" cy="-193.3" rx="79.49" ry="26"/>
<text text-anchor="middle" x="254" y="-189.6" font-family="Times,serif" font-size="14.00">elements_set</text>
</a>
</g>
</g>
<!-- Finite_elements_set&#45;&gt;Finite_elements -->
<g id="edge2" class="edge">
<title>Finite_elements_set&#45;&gt;Finite_elements</title>
<path fill="none" stroke="black" d="M279.63,-168.44C291.12,-157.75 304.61,-145.18 316.02,-134.56"/>
<polygon fill="black" stroke="black" points="318.6,-136.94 323.53,-127.57 313.83,-131.82 318.6,-136.94"/>
</g>
<!-- Finite_Finite -->
<g id="node5" class="node">
<title>Finite_Finite</title>
<g id="a_node5"><a xlink:href="Finite.html#Finite" xlink:title="Finite">
<ellipse fill="#e2cdfa" stroke="black" cx="341" cy="-35.3" rx="38.19" ry="18"/>
<text text-anchor="middle" x="341" y="-31.6" font-family="Times,serif" font-size="14.00">Finite</text>
</a>
</g>
</g>
<!-- Finite_elements&#45;&gt;Finite_Finite -->
<g id="edge3" class="edge">
<title>Finite_elements&#45;&gt;Finite_Finite</title>
<path fill="none" stroke="black" d="M341,-92C341,-83.55 341,-73.17 341,-63.68"/>
<polygon fill="black" stroke="black" points="344.5,-63.48 341,-53.48 337.5,-63.48 344.5,-63.48"/>
</g>
<!-- Finite_build_finite -->
<g id="node4" class="node">
<title>Finite_build_finite</title>
<g id="a_node4"><a xlink:href="Finite.html#build_finite" xlink:title="build_finite">
<ellipse fill="#7faaff" stroke="black" cx="86" cy="-193.3" rx="62.3" ry="18"/>
<ellipse fill="none" stroke="black" cx="86" cy="-193.3" rx="66.3" ry="22"/>
<ellipse fill="none" stroke="black" cx="86" cy="-193.3" rx="70.29" ry="26"/>
<text text-anchor="middle" x="86" y="-189.6" font-family="Times,serif" font-size="14.00">build_finite</text>
</a>
</g>
</g>
</g>
</svg>
