<?xml version="1.0" encoding="UTF-8" standalone="no"?>
<!DOCTYPE svg PUBLIC "-//W3C//DTD SVG 1.1//EN"
 "http://www.w3.org/Graphics/SVG/1.1/DTD/svg11.dtd">
<!-- Generated by graphviz version 2.43.0 (0)
 -->
<!-- Title: CongressCorrect Pages: 1 -->
<svg width="1218pt" height="613pt"
 viewBox="0.00 0.00 1218.00 613.00" xmlns="http://www.w3.org/2000/svg" xmlns:xlink="http://www.w3.org/1999/xlink">
<g id="graph0" class="graph" transform="scale(1 1) rotate(0) translate(4 609)">
<title>CongressCorrect</title>
<polygon fill="white" stroke="transparent" points="-4,4 -4,-609 1214,-609 1214,4 -4,4"/>
<g id="clust1" class="cluster">
<title>cluster_CongressCorrect</title>
<polygon fill="#ffffc3" stroke="black" points="8,-12.25 8,-592.75 1202,-592.75 1202,-12.25 8,-12.25"/>
<text text-anchor="middle" x="76.5" y="-577.55" font-family="Times,serif" font-size="14.00">CongressCorrect</text>
</g>
<!-- CongressCorrect_congress_correct_after_block -->
<g id="node1" class="node">
<title>CongressCorrect_congress_correct_after_block</title>
<g id="a_node1"><a xlink:href="CongressCorrect.html#congress_correct_after_block" xlink:title="congress_correct_after_block">
<ellipse fill="#7fffd4" stroke="black" cx="703" cy="-505.25" rx="145.67" ry="18"/>
<ellipse fill="none" stroke="black" cx="703" cy="-505.25" rx="149.67" ry="22"/>
<ellipse fill="none" stroke="black" cx="703" cy="-505.25" rx="153.67" ry="26"/>
<text text-anchor="middle" x="703" y="-501.55" font-family="Times,serif" font-size="14.00">congress_correct_after_block</text>
</a>
</g>
</g>
<!-- CongressCorrect_congress_correct -->
<g id="node2" class="node">
<title>CongressCorrect_congress_correct</title>
<g id="a_node2"><a xlink:href="CongressCorrect.html#congress_correct" xlink:title="congress_correct">
<ellipse fill="#7fffd4" stroke="black" cx="703" cy="-383.25" rx="89.88" ry="18"/>
<text text-anchor="middle" x="703" y="-379.55" font-family="Times,serif" font-size="14.00">congress_correct</text>
</a>
</g>
</g>
<!-- CongressCorrect_congress_correct_after_block&#45;&gt;CongressCorrect_congress_correct -->
<g id="edge1" class="edge">
<title>CongressCorrect_congress_correct_after_block&#45;&gt;CongressCorrect_congress_correct</title>
<path fill="none" stroke="black" d="M703,-479.1C703,-459.29 703,-431.73 703,-411.42"/>
<polygon fill="black" stroke="black" points="706.5,-411.26 703,-401.26 699.5,-411.26 706.5,-411.26"/>
</g>
<!-- CongressCorrect_receive_state_well_behaved -->
<g id="node3" class="node">
<title>CongressCorrect_receive_state_well_behaved</title>
<g id="a_node3"><a xlink:href="CongressCorrect.html#receive_state_well_behaved" xlink:title="receive_state_well_behaved">
<ellipse fill="#7fffd4" stroke="black" cx="387" cy="-272.25" rx="139.18" ry="18"/>
<text text-anchor="middle" x="387" y="-268.55" font-family="Times,serif" font-size="14.00">receive_state_well_behaved</text>
</a>
</g>
</g>
<!-- CongressCorrect_congress_correct&#45;&gt;CongressCorrect_receive_state_well_behaved -->
<g id="edge2" class="edge">
<title>CongressCorrect_congress_correct&#45;&gt;CongressCorrect_receive_state_well_behaved</title>
<path fill="none" stroke="black" d="M660.05,-367.44C603.83,-348.05 505.15,-314.01 443.08,-292.6"/>
<polygon fill="black" stroke="black" points="444.04,-289.23 433.45,-289.27 441.76,-295.84 444.04,-289.23"/>
</g>
<!-- CongressCorrect_num_cacts_in_state_deployment -->
<g id="node8" class="node">
<title>CongressCorrect_num_cacts_in_state_deployment</title>
<g id="a_node8"><a xlink:href="CongressCorrect.html#num_cacts_in_state_deployment" xlink:title="num_cacts_in_state_deployment">
<ellipse fill="#7fffd4" stroke="black" cx="703" cy="-272.25" rx="159.47" ry="18"/>
<text text-anchor="middle" x="703" y="-268.55" font-family="Times,serif" font-size="14.00">num_cacts_in_state_deployment</text>
</a>
</g>
</g>
<!-- CongressCorrect_congress_correct&#45;&gt;CongressCorrect_num_cacts_in_state_deployment -->
<g id="edge3" class="edge">
<title>CongressCorrect_congress_correct&#45;&gt;CongressCorrect_num_cacts_in_state_deployment</title>
<path fill="none" stroke="black" d="M703,-365.22C703,-347.97 703,-321 703,-300.72"/>
<polygon fill="black" stroke="black" points="706.5,-300.52 703,-290.52 699.5,-300.52 706.5,-300.52"/>
</g>
<!-- CongressCorrect_num_acts_created_in_proposals -->
<g id="node10" class="node">
<title>CongressCorrect_num_acts_created_in_proposals</title>
<g id="a_node10"><a xlink:href="CongressCorrect.html#num_acts_created_in_proposals" xlink:title="num_acts_created_in_proposals">
<ellipse fill="#f070d1" stroke="black" cx="1037" cy="-272.25" rx="156.77" ry="18"/>
<text text-anchor="middle" x="1037" y="-268.55" font-family="Times,serif" font-size="14.00">num_acts_created_in_proposals</text>
</a>
</g>
</g>
<!-- CongressCorrect_congress_correct&#45;&gt;CongressCorrect_num_acts_created_in_proposals -->
<g id="edge4" class="edge">
<title>CongressCorrect_congress_correct&#45;&gt;CongressCorrect_num_acts_created_in_proposals</title>
<path fill="none" stroke="black" d="M748.04,-367.55C807.41,-348.18 911.98,-314.05 977.71,-292.6"/>
<polygon fill="black" stroke="black" points="979.1,-295.83 987.52,-289.4 976.92,-289.18 979.1,-295.83"/>
</g>
<!-- CongressCorrect_remove_proposal_cacts -->
<g id="node4" class="node">
<title>CongressCorrect_remove_proposal_cacts</title>
<g id="a_node4"><a xlink:href="CongressCorrect.html#remove_proposal_cacts" xlink:title="remove_proposal_cacts">
<ellipse fill="#7fffd4" stroke="black" cx="134" cy="-162.25" rx="118.08" ry="18"/>
<text text-anchor="middle" x="134" y="-158.55" font-family="Times,serif" font-size="14.00">remove_proposal_cacts</text>
</a>
</g>
</g>
<!-- CongressCorrect_receive_state_well_behaved&#45;&gt;CongressCorrect_remove_proposal_cacts -->
<g id="edge5" class="edge">
<title>CongressCorrect_receive_state_well_behaved&#45;&gt;CongressCorrect_remove_proposal_cacts</title>
<path fill="none" stroke="black" d="M348.57,-254.85C303.73,-235.71 229.59,-204.06 181.26,-183.43"/>
<polygon fill="black" stroke="black" points="182.53,-180.16 171.96,-179.46 179.78,-186.6 182.53,-180.16"/>
</g>
<!-- CongressCorrect_do_retract_vote_cacts_preserved -->
<g id="node5" class="node">
<title>CongressCorrect_do_retract_vote_cacts_preserved</title>
<g id="a_node5"><a xlink:href="CongressCorrect.html#do_retract_vote_cacts_preserved" xlink:title="do_retract_vote_cacts_preserved">
<ellipse fill="#7fffd4" stroke="black" cx="433" cy="-162.25" rx="162.47" ry="18"/>
<text text-anchor="middle" x="433" y="-158.55" font-family="Times,serif" font-size="14.00">do_retract_vote_cacts_preserved</text>
</a>
</g>
</g>
<!-- CongressCorrect_receive_state_well_behaved&#45;&gt;CongressCorrect_do_retract_vote_cacts_preserved -->
<g id="edge6" class="edge">
<title>CongressCorrect_receive_state_well_behaved&#45;&gt;CongressCorrect_do_retract_vote_cacts_preserved</title>
<path fill="none" stroke="black" d="M394.39,-253.9C401.73,-236.66 413.1,-209.98 421.6,-190.02"/>
<polygon fill="black" stroke="black" points="424.93,-191.13 425.63,-180.56 418.49,-188.39 424.93,-191.13"/>
</g>
<!-- CongressCorrect_vote_on_proposal_cacts_preserved -->
<g id="node6" class="node">
<title>CongressCorrect_vote_on_proposal_cacts_preserved</title>
<g id="a_node6"><a xlink:href="CongressCorrect.html#vote_on_proposal_cacts_preserved" xlink:title="vote_on_proposal_cacts_preserved">
<ellipse fill="#7fffd4" stroke="black" cx="784" cy="-162.25" rx="170.07" ry="18"/>
<text text-anchor="middle" x="784" y="-158.55" font-family="Times,serif" font-size="14.00">vote_on_proposal_cacts_preserved</text>
</a>
</g>
</g>
<!-- CongressCorrect_receive_state_well_behaved&#45;&gt;CongressCorrect_vote_on_proposal_cacts_preserved -->
<g id="edge7" class="edge">
<title>CongressCorrect_receive_state_well_behaved&#45;&gt;CongressCorrect_vote_on_proposal_cacts_preserved</title>
<path fill="none" stroke="black" d="M443.88,-255.78C515.49,-236.3 638.41,-202.86 715.23,-181.96"/>
<polygon fill="black" stroke="black" points="716.55,-185.23 725.28,-179.23 714.72,-178.47 716.55,-185.23"/>
</g>
<!-- CongressCorrect_add_proposal_cacts -->
<g id="node7" class="node">
<title>CongressCorrect_add_proposal_cacts</title>
<g id="a_node7"><a xlink:href="CongressCorrect.html#add_proposal_cacts" xlink:title="add_proposal_cacts">
<ellipse fill="#7fffd4" stroke="black" cx="1073" cy="-162.25" rx="100.98" ry="18"/>
<text text-anchor="middle" x="1073" y="-158.55" font-family="Times,serif" font-size="14.00">add_proposal_cacts</text>
</a>
</g>
</g>
<!-- CongressCorrect_receive_state_well_behaved&#45;&gt;CongressCorrect_add_proposal_cacts -->
<g id="edge8" class="edge">
<title>CongressCorrect_receive_state_well_behaved&#45;&gt;CongressCorrect_add_proposal_cacts</title>
<path fill="none" stroke="black" d="M471.81,-257.9C604.31,-237.04 858.82,-196.97 990.12,-176.3"/>
<polygon fill="black" stroke="black" points="990.8,-179.74 1000.13,-174.73 989.71,-172.82 990.8,-179.74"/>
</g>
<!-- CongressCorrect_num_cacts_in_state -->
<g id="node9" class="node">
<title>CongressCorrect_num_cacts_in_state</title>
<g id="a_node9"><a xlink:href="CongressCorrect.html#num_cacts_in_state" xlink:title="num_cacts_in_state">
<ellipse fill="#f070d1" stroke="black" cx="784" cy="-52.25" rx="100.98" ry="18"/>
<text text-anchor="middle" x="784" y="-48.55" font-family="Times,serif" font-size="14.00">num_cacts_in_state</text>
</a>
</g>
</g>
<!-- CongressCorrect_remove_proposal_cacts&#45;&gt;CongressCorrect_num_cacts_in_state -->
<g id="edge9" class="edge">
<title>CongressCorrect_remove_proposal_cacts&#45;&gt;CongressCorrect_num_cacts_in_state</title>
<path fill="none" stroke="black" d="M210.8,-148.49C334.43,-127.95 576.5,-87.73 702.85,-66.74"/>
<polygon fill="black" stroke="black" points="703.57,-70.17 712.86,-65.07 702.42,-63.26 703.57,-70.17"/>
</g>
<!-- CongressCorrect_do_retract_vote_cacts_preserved&#45;&gt;CongressCorrect_num_cacts_in_state -->
<g id="edge10" class="edge">
<title>CongressCorrect_do_retract_vote_cacts_preserved&#45;&gt;CongressCorrect_num_cacts_in_state</title>
<path fill="none" stroke="black" d="M485.17,-145.2C549.7,-125.35 659.2,-91.65 726.21,-71.03"/>
<polygon fill="black" stroke="black" points="727.25,-74.38 735.78,-68.09 725.2,-67.68 727.25,-74.38"/>
</g>
<!-- CongressCorrect_vote_on_proposal_cacts_preserved&#45;&gt;CongressCorrect_num_cacts_in_state -->
<g id="edge11" class="edge">
<title>CongressCorrect_vote_on_proposal_cacts_preserved&#45;&gt;CongressCorrect_num_cacts_in_state</title>
<path fill="none" stroke="black" d="M784,-143.9C784,-126.82 784,-100.47 784,-80.57"/>
<polygon fill="black" stroke="black" points="787.5,-80.56 784,-70.56 780.5,-80.56 787.5,-80.56"/>
</g>
<!-- CongressCorrect_add_proposal_cacts&#45;&gt;CongressCorrect_num_cacts_in_state -->
<g id="edge12" class="edge">
<title>CongressCorrect_add_proposal_cacts&#45;&gt;CongressCorrect_num_cacts_in_state</title>
<path fill="none" stroke="black" d="M1031.59,-145.78C979.77,-126.41 891.02,-93.25 835.04,-72.33"/>
<polygon fill="black" stroke="black" points="835.92,-68.92 825.33,-68.7 833.47,-75.48 835.92,-68.92"/>
</g>
<!-- CongressCorrect_num_cacts_in_state_deployment&#45;&gt;CongressCorrect_num_cacts_in_state -->
<g id="edge13" class="edge">
<title>CongressCorrect_num_cacts_in_state_deployment&#45;&gt;CongressCorrect_num_cacts_in_state</title>
<path fill="none" stroke="black" d="M807.07,-258.6C940.94,-241.27 1159.18,-209.02 1183,-180.25 1265.64,-80.47 1039.83,-58.07 894.99,-53.67"/>
<polygon fill="black" stroke="black" points="894.81,-50.16 884.71,-53.38 894.61,-57.16 894.81,-50.16"/>
</g>
<!-- CongressCorrect_rules_valid -->
<g id="node11" class="node">
<title>CongressCorrect_rules_valid</title>
<g id="a_node11"><a xlink:href="CongressCorrect.html#rules_valid" xlink:title="rules_valid">
<ellipse fill="#7fffd4" stroke="black" cx="274" cy="-505.25" rx="61.18" ry="18"/>
<ellipse fill="none" stroke="black" cx="274" cy="-505.25" rx="65.18" ry="22"/>
<ellipse fill="none" stroke="black" cx="274" cy="-505.25" rx="69.19" ry="26"/>
<text text-anchor="middle" x="274" y="-501.55" font-family="Times,serif" font-size="14.00">rules_valid</text>
</a>
</g>
</g>
</g>
</svg>
