<?xml version="1.0" encoding="UTF-8" standalone="no"?>
<!DOCTYPE svg PUBLIC "-//W3C//DTD SVG 1.1//EN"
 "http://www.w3.org/Graphics/SVG/1.1/DTD/svg11.dtd">
<!-- Generated by graphviz version 2.43.0 (0)
 -->
<!-- Title: CrowdfundingCorrect Pages: 1 -->
<svg width="3033pt" height="1520pt"
 viewBox="0.00 0.00 3033.00 1520.50" xmlns="http://www.w3.org/2000/svg" xmlns:xlink="http://www.w3.org/1999/xlink">
<g id="graph0" class="graph" transform="scale(1 1) rotate(0) translate(4 1516.5)">
<title>CrowdfundingCorrect</title>
<polygon fill="white" stroke="transparent" points="-4,4 -4,-1516.5 3029,-1516.5 3029,4 -4,4"/>
<g id="clust1" class="cluster">
<title>cluster_CrowdfundingCorrect</title>
<polygon fill="#ffffc3" stroke="black" points="8,-39.54 8,-1472.96 3017,-1472.96 3017,-39.54 8,-39.54"/>
<text text-anchor="middle" x="94" y="-1457.76" font-family="Times,serif" font-size="14.00">CrowdfundingCorrect</text>
</g>
<g id="clust2" class="cluster">
<title>cluster_CrowdfundingCorrect_CrowdfundingProperties</title>
<polygon fill="#ffffa3" stroke="black" points="16,-79.08 16,-1319.73 3009,-1319.73 3009,-79.08 16,-79.08"/>
<text text-anchor="middle" x="112.5" y="-1304.53" font-family="Times,serif" font-size="14.00">CrowdfundingProperties</text>
</g>
<!-- CrowdfundingCorrect_CrowdfundingProperties_no_claim_after_done -->
<g id="node1" class="node">
<title>CrowdfundingCorrect_CrowdfundingProperties_no_claim_after_done</title>
<g id="a_node1"><a xlink:href="CrowdfundingCorrect.html#CrowdfundingProperties.no_claim_after_done" xlink:title="no_claim_after_done">
<ellipse fill="#7fffd4" stroke="black" cx="2025" cy="-1037.54" rx="104.77" ry="18"/>
<ellipse fill="none" stroke="black" cx="2025" cy="-1037.54" rx="108.78" ry="22"/>
<ellipse fill="none" stroke="black" cx="2025" cy="-1037.54" rx="112.78" ry="26"/>
<text text-anchor="middle" x="2025" y="-1033.84" font-family="Times,serif" font-size="14.00">no_claim_after_done</text>
</a>
</g>
</g>
<!-- CrowdfundingCorrect_CrowdfundingProperties_assertion -->
<g id="node21" class="node">
<title>CrowdfundingCorrect_CrowdfundingProperties_assertion</title>
<g id="a_node21"><a xlink:href="CrowdfundingCorrect.html#CrowdfundingProperties.assertion" xlink:title="assertion">
<ellipse fill="#f070d1" stroke="black" cx="735" cy="-602.54" rx="53.89" ry="18"/>
<text text-anchor="middle" x="735" y="-598.84" font-family="Times,serif" font-size="14.00">assertion</text>
</a>
</g>
</g>
<!-- CrowdfundingCorrect_CrowdfundingProperties_no_claim_after_done&#45;&gt;CrowdfundingCorrect_CrowdfundingProperties_assertion -->
<g id="edge1" class="edge">
<title>CrowdfundingCorrect_CrowdfundingProperties_no_claim_after_done&#45;&gt;CrowdfundingCorrect_CrowdfundingProperties_assertion</title>
<path fill="none" stroke="black" d="M1959.7,-1016.27C1775.75,-958.85 1238.04,-788.87 798,-628.54 791.39,-626.13 784.43,-623.49 777.64,-620.84"/>
<polygon fill="black" stroke="black" points="778.48,-617.41 767.89,-617 775.91,-623.92 778.48,-617.41"/>
</g>
<!-- CrowdfundingCorrect_CrowdfundingProperties_no_claim_if_succeeded -->
<g id="node2" class="node">
<title>CrowdfundingCorrect_CrowdfundingProperties_no_claim_if_succeeded</title>
<g id="a_node2"><a xlink:href="CrowdfundingCorrect.html#CrowdfundingProperties.no_claim_if_succeeded" xlink:title="no_claim_if_succeeded">
<ellipse fill="#7fffd4" stroke="black" cx="1772" cy="-1037.54" rx="114.29" ry="18"/>
<ellipse fill="none" stroke="black" cx="1772" cy="-1037.54" rx="118.28" ry="22"/>
<ellipse fill="none" stroke="black" cx="1772" cy="-1037.54" rx="122.28" ry="26"/>
<text text-anchor="middle" x="1772" y="-1033.84" font-family="Times,serif" font-size="14.00">no_claim_if_succeeded</text>
</a>
</g>
</g>
<!-- CrowdfundingCorrect_CrowdfundingProperties_no_claim_if_succeeded&#45;&gt;CrowdfundingCorrect_CrowdfundingProperties_assertion -->
<g id="edge2" class="edge">
<title>CrowdfundingCorrect_CrowdfundingProperties_no_claim_if_succeeded&#45;&gt;CrowdfundingCorrect_CrowdfundingProperties_assertion</title>
<path fill="none" stroke="black" d="M1718.07,-1014.02C1535.05,-937.6 939.98,-689.13 776.74,-620.97"/>
<polygon fill="black" stroke="black" points="778.09,-617.74 767.51,-617.12 775.39,-624.2 778.09,-617.74"/>
</g>
<!-- CrowdfundingCorrect_CrowdfundingProperties_funded -->
<g id="node28" class="node">
<title>CrowdfundingCorrect_CrowdfundingProperties_funded</title>
<g id="a_node28"><a xlink:href="CrowdfundingCorrect.html#CrowdfundingProperties.funded" xlink:title="funded">
<ellipse fill="#f070d1" stroke="black" cx="620" cy="-602.54" rx="42.79" ry="18"/>
<text text-anchor="middle" x="620" y="-598.84" font-family="Times,serif" font-size="14.00">funded</text>
</a>
</g>
</g>
<!-- CrowdfundingCorrect_CrowdfundingProperties_no_claim_if_succeeded&#45;&gt;CrowdfundingCorrect_CrowdfundingProperties_funded -->
<g id="edge3" class="edge">
<title>CrowdfundingCorrect_CrowdfundingProperties_no_claim_if_succeeded&#45;&gt;CrowdfundingCorrect_CrowdfundingProperties_funded</title>
<path fill="none" stroke="black" d="M1708.26,-1015.23C1538.03,-957.81 1059.37,-793.08 672,-628.54 666.76,-626.32 661.28,-623.84 655.92,-621.35"/>
<polygon fill="black" stroke="black" points="657.04,-618 646.5,-616.87 654.03,-624.32 657.04,-618"/>
</g>
<!-- CrowdfundingCorrect_CrowdfundingProperties_GetFunds_correct -->
<g id="node3" class="node">
<title>CrowdfundingCorrect_CrowdfundingProperties_GetFunds_correct</title>
<g id="a_node3"><a xlink:href="CrowdfundingCorrect.html#CrowdfundingProperties.GetFunds_correct" xlink:title="GetFunds_correct">
<ellipse fill="#7fffd4" stroke="black" cx="1530" cy="-1037.54" rx="93.68" ry="18"/>
<ellipse fill="none" stroke="black" cx="1530" cy="-1037.54" rx="97.68" ry="22"/>
<ellipse fill="none" stroke="black" cx="1530" cy="-1037.54" rx="101.68" ry="26"/>
<text text-anchor="middle" x="1530" y="-1033.84" font-family="Times,serif" font-size="14.00">GetFunds_correct</text>
</a>
</g>
</g>
<!-- CrowdfundingCorrect_CrowdfundingProperties_GetFunds_correct&#45;&gt;CrowdfundingCorrect_CrowdfundingProperties_assertion -->
<g id="edge4" class="edge">
<title>CrowdfundingCorrect_CrowdfundingProperties_GetFunds_correct&#45;&gt;CrowdfundingCorrect_CrowdfundingProperties_assertion</title>
<path fill="none" stroke="black" d="M1488.1,-1013.72C1348.61,-937.75 901.46,-694.21 771.03,-623.17"/>
<polygon fill="black" stroke="black" points="772.65,-620.06 762.2,-618.35 769.3,-626.21 772.65,-620.06"/>
</g>
<!-- CrowdfundingCorrect_CrowdfundingProperties_GetFunds_correct&#45;&gt;CrowdfundingCorrect_CrowdfundingProperties_funded -->
<g id="edge5" class="edge">
<title>CrowdfundingCorrect_CrowdfundingProperties_GetFunds_correct&#45;&gt;CrowdfundingCorrect_CrowdfundingProperties_funded</title>
<path fill="none" stroke="black" d="M1483,-1014.28C1353.59,-952.96 981.15,-776.36 672,-628.54 666.92,-626.11 661.56,-623.54 656.29,-621.01"/>
<polygon fill="black" stroke="black" points="657.51,-617.72 646.98,-616.54 654.48,-624.03 657.51,-617.72"/>
</g>
<!-- CrowdfundingCorrect_CrowdfundingProperties_contract_state_donation_non_neg -->
<g id="node4" class="node">
<title>CrowdfundingCorrect_CrowdfundingProperties_contract_state_donation_non_neg</title>
<g id="a_node4"><a xlink:href="CrowdfundingCorrect.html#CrowdfundingProperties.contract_state_donation_non_neg" xlink:title="contract_state_donation_non_neg">
<ellipse fill="#7fffd4" stroke="black" cx="2828" cy="-1037.54" rx="165.17" ry="18"/>
<ellipse fill="none" stroke="black" cx="2828" cy="-1037.54" rx="169.17" ry="22"/>
<ellipse fill="none" stroke="black" cx="2828" cy="-1037.54" rx="173.17" ry="26"/>
<text text-anchor="middle" x="2828" y="-1033.84" font-family="Times,serif" font-size="14.00">contract_state_donation_non_neg</text>
</a>
</g>
</g>
<!-- CrowdfundingCorrect_CrowdfundingProperties_non_neg_add_0 -->
<g id="node5" class="node">
<title>CrowdfundingCorrect_CrowdfundingProperties_non_neg_add_0</title>
<g id="a_node5"><a xlink:href="CrowdfundingCorrect.html#CrowdfundingProperties.non_neg_add_0" xlink:title="non_neg_add_0">
<ellipse fill="#7fffd4" stroke="black" cx="2695" cy="-602.54" rx="81.49" ry="18"/>
<text text-anchor="middle" x="2695" y="-598.84" font-family="Times,serif" font-size="14.00">non_neg_add_0</text>
</a>
</g>
</g>
<!-- CrowdfundingCorrect_CrowdfundingProperties_contract_state_donation_non_neg&#45;&gt;CrowdfundingCorrect_CrowdfundingProperties_non_neg_add_0 -->
<g id="edge6" class="edge">
<title>CrowdfundingCorrect_CrowdfundingProperties_contract_state_donation_non_neg&#45;&gt;CrowdfundingCorrect_CrowdfundingProperties_non_neg_add_0</title>
<path fill="none" stroke="black" d="M2820.27,-1011.39C2796.93,-935.39 2727.25,-708.52 2703.24,-630.36"/>
<polygon fill="black" stroke="black" points="2706.57,-629.29 2700.29,-620.76 2699.88,-631.35 2706.57,-629.29"/>
</g>
<!-- CrowdfundingCorrect_CrowdfundingProperties_non_neg_add_not_in -->
<g id="node6" class="node">
<title>CrowdfundingCorrect_CrowdfundingProperties_non_neg_add_not_in</title>
<g id="a_node6"><a xlink:href="CrowdfundingCorrect.html#CrowdfundingProperties.non_neg_add_not_in" xlink:title="non_neg_add_not_in">
<ellipse fill="#7fffd4" stroke="black" cx="2898" cy="-602.54" rx="103.18" ry="18"/>
<text text-anchor="middle" x="2898" y="-598.84" font-family="Times,serif" font-size="14.00">non_neg_add_not_in</text>
</a>
</g>
</g>
<!-- CrowdfundingCorrect_CrowdfundingProperties_contract_state_donation_non_neg&#45;&gt;CrowdfundingCorrect_CrowdfundingProperties_non_neg_add_not_in -->
<g id="edge7" class="edge">
<title>CrowdfundingCorrect_CrowdfundingProperties_contract_state_donation_non_neg&#45;&gt;CrowdfundingCorrect_CrowdfundingProperties_non_neg_add_not_in</title>
<path fill="none" stroke="black" d="M2832.07,-1011.39C2844.33,-935.54 2880.88,-709.45 2893.59,-630.84"/>
<polygon fill="black" stroke="black" points="2897.08,-631.19 2895.22,-620.76 2890.17,-630.07 2897.08,-631.19"/>
</g>
<!-- CrowdfundingCorrect_CrowdfundingProperties_non_neg_add_in -->
<g id="node7" class="node">
<title>CrowdfundingCorrect_CrowdfundingProperties_non_neg_add_in</title>
<g id="a_node7"><a xlink:href="CrowdfundingCorrect.html#CrowdfundingProperties.non_neg_add_in" xlink:title="non_neg_add_in">
<ellipse fill="#7fffd4" stroke="black" cx="2296" cy="-602.54" rx="83.69" ry="18"/>
<text text-anchor="middle" x="2296" y="-598.84" font-family="Times,serif" font-size="14.00">non_neg_add_in</text>
</a>
</g>
</g>
<!-- CrowdfundingCorrect_CrowdfundingProperties_contract_state_donation_non_neg&#45;&gt;CrowdfundingCorrect_CrowdfundingProperties_non_neg_add_in -->
<g id="edge8" class="edge">
<title>CrowdfundingCorrect_CrowdfundingProperties_contract_state_donation_non_neg&#45;&gt;CrowdfundingCorrect_CrowdfundingProperties_non_neg_add_in</title>
<path fill="none" stroke="black" d="M2797.49,-1011.71C2702.96,-934.77 2415.87,-701.1 2324.35,-626.62"/>
<polygon fill="black" stroke="black" points="2326.33,-623.71 2316.36,-620.11 2321.91,-629.14 2326.33,-623.71"/>
</g>
<!-- CrowdfundingCorrect_CrowdfundingProperties_donations_non_neg -->
<g id="node8" class="node">
<title>CrowdfundingCorrect_CrowdfundingProperties_donations_non_neg</title>
<g id="a_node8"><a xlink:href="CrowdfundingCorrect.html#CrowdfundingProperties.donations_non_neg" xlink:title="donations_non_neg">
<ellipse fill="#f070d1" stroke="black" cx="2497" cy="-602.54" rx="98.58" ry="18"/>
<text text-anchor="middle" x="2497" y="-598.84" font-family="Times,serif" font-size="14.00">donations_non_neg</text>
</a>
</g>
</g>
<!-- CrowdfundingCorrect_CrowdfundingProperties_contract_state_donation_non_neg&#45;&gt;CrowdfundingCorrect_CrowdfundingProperties_donations_non_neg -->
<g id="edge9" class="edge">
<title>CrowdfundingCorrect_CrowdfundingProperties_contract_state_donation_non_neg&#45;&gt;CrowdfundingCorrect_CrowdfundingProperties_donations_non_neg</title>
<path fill="none" stroke="black" d="M2808.77,-1011.39C2750.32,-934.92 2575.12,-705.74 2516.42,-628.94"/>
<polygon fill="black" stroke="black" points="2519.01,-626.58 2510.16,-620.76 2513.45,-630.83 2519.01,-626.58"/>
</g>
<!-- CrowdfundingCorrect_CrowdfundingProperties_contract_state_donation_non_neg&#45;&gt;CrowdfundingCorrect_CrowdfundingProperties_assertion -->
<g id="edge10" class="edge">
<title>CrowdfundingCorrect_CrowdfundingProperties_contract_state_donation_non_neg&#45;&gt;CrowdfundingCorrect_CrowdfundingProperties_assertion</title>
<path fill="none" stroke="black" d="M2703.41,-1019.47C2382.87,-973.83 1505.21,-838.09 798,-628.54 790.79,-626.41 783.25,-623.78 775.99,-621.03"/>
<polygon fill="black" stroke="black" points="776.92,-617.64 766.34,-617.26 774.38,-624.16 776.92,-617.64"/>
</g>
<!-- CrowdfundingCorrect_CrowdfundingProperties_contract_state_consistent -->
<g id="node9" class="node">
<title>CrowdfundingCorrect_CrowdfundingProperties_contract_state_consistent</title>
<g id="a_node9"><a xlink:href="CrowdfundingCorrect.html#CrowdfundingProperties.contract_state_consistent" xlink:title="contract_state_consistent">
<ellipse fill="#7fffd4" stroke="black" cx="2500" cy="-1037.54" rx="129.19" ry="18"/>
<ellipse fill="none" stroke="black" cx="2500" cy="-1037.54" rx="133.18" ry="22"/>
<ellipse fill="none" stroke="black" cx="2500" cy="-1037.54" rx="137.18" ry="26"/>
<text text-anchor="middle" x="2500" y="-1033.84" font-family="Times,serif" font-size="14.00">contract_state_consistent</text>
</a>
</g>
</g>
<!-- CrowdfundingCorrect_CrowdfundingProperties_consistent_balance -->
<g id="node10" class="node">
<title>CrowdfundingCorrect_CrowdfundingProperties_consistent_balance</title>
<g id="a_node10"><a xlink:href="CrowdfundingCorrect.html#CrowdfundingProperties.consistent_balance" xlink:title="consistent_balance">
<ellipse fill="#f070d1" stroke="black" cx="1899" cy="-602.54" rx="98.58" ry="18"/>
<text text-anchor="middle" x="1899" y="-598.84" font-family="Times,serif" font-size="14.00">consistent_balance</text>
</a>
</g>
</g>
<!-- CrowdfundingCorrect_CrowdfundingProperties_contract_state_consistent&#45;&gt;CrowdfundingCorrect_CrowdfundingProperties_consistent_balance -->
<g id="edge11" class="edge">
<title>CrowdfundingCorrect_CrowdfundingProperties_contract_state_consistent&#45;&gt;CrowdfundingCorrect_CrowdfundingProperties_consistent_balance</title>
<path fill="none" stroke="black" d="M2465.97,-1012.02C2359.44,-935.27 2033.39,-700.36 1930.47,-626.22"/>
<polygon fill="black" stroke="black" points="1932.21,-623.16 1922.05,-620.15 1928.12,-628.84 1932.21,-623.16"/>
</g>
<!-- CrowdfundingCorrect_CrowdfundingProperties_sum_map_sub_in -->
<g id="node13" class="node">
<title>CrowdfundingCorrect_CrowdfundingProperties_sum_map_sub_in</title>
<g id="a_node13"><a xlink:href="CrowdfundingCorrect.html#CrowdfundingProperties.sum_map_sub_in" xlink:title="sum_map_sub_in">
<ellipse fill="#7fffd4" stroke="black" cx="2105" cy="-602.54" rx="89.08" ry="18"/>
<text text-anchor="middle" x="2105" y="-598.84" font-family="Times,serif" font-size="14.00">sum_map_sub_in</text>
</a>
</g>
</g>
<!-- CrowdfundingCorrect_CrowdfundingProperties_contract_state_consistent&#45;&gt;CrowdfundingCorrect_CrowdfundingProperties_sum_map_sub_in -->
<g id="edge12" class="edge">
<title>CrowdfundingCorrect_CrowdfundingProperties_contract_state_consistent&#45;&gt;CrowdfundingCorrect_CrowdfundingProperties_sum_map_sub_in</title>
<path fill="none" stroke="black" d="M2477.34,-1011.71C2407.59,-935.25 2196.62,-703.98 2127.32,-628.01"/>
<polygon fill="black" stroke="black" points="2129.65,-625.37 2120.32,-620.34 2124.48,-630.09 2129.65,-625.37"/>
</g>
<!-- CrowdfundingCorrect_CrowdfundingProperties_sum_map_add_not_in -->
<g id="node14" class="node">
<title>CrowdfundingCorrect_CrowdfundingProperties_sum_map_add_not_in</title>
<g id="a_node14"><a xlink:href="CrowdfundingCorrect.html#CrowdfundingProperties.sum_map_add_not_in" xlink:title="sum_map_add_not_in">
<ellipse fill="#7fffd4" stroke="black" cx="1674" cy="-602.54" rx="108.58" ry="18"/>
<text text-anchor="middle" x="1674" y="-598.84" font-family="Times,serif" font-size="14.00">sum_map_add_not_in</text>
</a>
</g>
</g>
<!-- CrowdfundingCorrect_CrowdfundingProperties_contract_state_consistent&#45;&gt;CrowdfundingCorrect_CrowdfundingProperties_sum_map_add_not_in -->
<g id="edge13" class="edge">
<title>CrowdfundingCorrect_CrowdfundingProperties_contract_state_consistent&#45;&gt;CrowdfundingCorrect_CrowdfundingProperties_sum_map_add_not_in</title>
<path fill="none" stroke="black" d="M2455,-1012.96C2309.38,-936.62 1852.36,-697.04 1714.05,-624.54"/>
<polygon fill="black" stroke="black" points="1715.51,-621.35 1705.03,-619.81 1712.26,-627.55 1715.51,-621.35"/>
</g>
<!-- CrowdfundingCorrect_CrowdfundingProperties_sum_map_add_in -->
<g id="node15" class="node">
<title>CrowdfundingCorrect_CrowdfundingProperties_sum_map_add_in</title>
<g id="a_node15"><a xlink:href="CrowdfundingCorrect.html#CrowdfundingProperties.sum_map_add_in" xlink:title="sum_map_add_in">
<ellipse fill="#7fffd4" stroke="black" cx="1458" cy="-602.54" rx="89.08" ry="18"/>
<text text-anchor="middle" x="1458" y="-598.84" font-family="Times,serif" font-size="14.00">sum_map_add_in</text>
</a>
</g>
</g>
<!-- CrowdfundingCorrect_CrowdfundingProperties_contract_state_consistent&#45;&gt;CrowdfundingCorrect_CrowdfundingProperties_sum_map_add_in -->
<g id="edge14" class="edge">
<title>CrowdfundingCorrect_CrowdfundingProperties_contract_state_consistent&#45;&gt;CrowdfundingCorrect_CrowdfundingProperties_sum_map_add_in</title>
<path fill="none" stroke="black" d="M2444.71,-1013.57C2261.25,-937.33 1674.63,-693.56 1504.6,-622.91"/>
<polygon fill="black" stroke="black" points="1505.75,-619.6 1495.18,-618.99 1503.07,-626.06 1505.75,-619.6"/>
</g>
<!-- CrowdfundingCorrect_CrowdfundingProperties_contract_state_consistent&#45;&gt;CrowdfundingCorrect_CrowdfundingProperties_assertion -->
<g id="edge15" class="edge">
<title>CrowdfundingCorrect_CrowdfundingProperties_contract_state_consistent&#45;&gt;CrowdfundingCorrect_CrowdfundingProperties_assertion</title>
<path fill="none" stroke="black" d="M2405.08,-1018.73C2144.85,-968.86 1399.48,-818.91 798,-628.54 790.9,-626.3 783.47,-623.63 776.3,-620.9"/>
<polygon fill="black" stroke="black" points="777.32,-617.54 766.73,-617.15 774.77,-624.06 777.32,-617.54"/>
</g>
<!-- CrowdfundingCorrect_CrowdfundingProperties_sum_map -->
<g id="node17" class="node">
<title>CrowdfundingCorrect_CrowdfundingProperties_sum_map</title>
<g id="a_node17"><a xlink:href="CrowdfundingCorrect.html#CrowdfundingProperties.sum_map" xlink:title="sum_map">
<ellipse fill="#f070d1" stroke="black" cx="1566" cy="-207.54" rx="54.69" ry="18"/>
<text text-anchor="middle" x="1566" y="-203.84" font-family="Times,serif" font-size="14.00">sum_map</text>
</a>
</g>
</g>
<!-- CrowdfundingCorrect_CrowdfundingProperties_consistent_balance&#45;&gt;CrowdfundingCorrect_CrowdfundingProperties_sum_map -->
<g id="edge16" class="edge">
<title>CrowdfundingCorrect_CrowdfundingProperties_consistent_balance&#45;&gt;CrowdfundingCorrect_CrowdfundingProperties_sum_map</title>
<path fill="none" stroke="black" d="M1884.69,-584.66C1832.07,-522.55 1649.11,-306.63 1586.9,-233.2"/>
<polygon fill="black" stroke="black" points="1589.39,-230.73 1580.26,-225.37 1584.05,-235.26 1589.39,-230.73"/>
</g>
<!-- CrowdfundingCorrect_CrowdfundingProperties_contract_backed -->
<g id="node11" class="node">
<title>CrowdfundingCorrect_CrowdfundingProperties_contract_backed</title>
<g id="a_node11"><a xlink:href="CrowdfundingCorrect.html#CrowdfundingProperties.contract_backed" xlink:title="contract_backed">
<ellipse fill="#7fffd4" stroke="black" cx="2250" cy="-1037.54" rx="86.39" ry="18"/>
<ellipse fill="none" stroke="black" cx="2250" cy="-1037.54" rx="90.39" ry="22"/>
<ellipse fill="none" stroke="black" cx="2250" cy="-1037.54" rx="94.38" ry="26"/>
<text text-anchor="middle" x="2250" y="-1033.84" font-family="Times,serif" font-size="14.00">contract_backed</text>
</a>
</g>
</g>
<!-- CrowdfundingCorrect_CrowdfundingProperties_consistent_balance_deadline -->
<g id="node12" class="node">
<title>CrowdfundingCorrect_CrowdfundingProperties_consistent_balance_deadline</title>
<g id="a_node12"><a xlink:href="CrowdfundingCorrect.html#CrowdfundingProperties.consistent_balance_deadline" xlink:title="consistent_balance_deadline">
<ellipse fill="#f070d1" stroke="black" cx="949" cy="-602.54" rx="142.17" ry="18"/>
<text text-anchor="middle" x="949" y="-598.84" font-family="Times,serif" font-size="14.00">consistent_balance_deadline</text>
</a>
</g>
</g>
<!-- CrowdfundingCorrect_CrowdfundingProperties_contract_backed&#45;&gt;CrowdfundingCorrect_CrowdfundingProperties_consistent_balance_deadline -->
<g id="edge17" class="edge">
<title>CrowdfundingCorrect_CrowdfundingProperties_contract_backed&#45;&gt;CrowdfundingCorrect_CrowdfundingProperties_consistent_balance_deadline</title>
<path fill="none" stroke="black" d="M2191.57,-1017.1C1975.24,-945.1 1221.26,-694.16 1006.49,-622.68"/>
<polygon fill="black" stroke="black" points="1007.57,-619.35 996.97,-619.51 1005.36,-625.99 1007.57,-619.35"/>
</g>
<!-- CrowdfundingCorrect_CrowdfundingProperties_contract_backed&#45;&gt;CrowdfundingCorrect_CrowdfundingProperties_sum_map_add_not_in -->
<g id="edge18" class="edge">
<title>CrowdfundingCorrect_CrowdfundingProperties_contract_backed&#45;&gt;CrowdfundingCorrect_CrowdfundingProperties_sum_map_add_not_in</title>
<path fill="none" stroke="black" d="M2218.62,-1012.96C2117.91,-937.25 1803.62,-700.98 1704.36,-626.36"/>
<polygon fill="black" stroke="black" points="1706.34,-623.47 1696.24,-620.26 1702.13,-629.07 1706.34,-623.47"/>
</g>
<!-- CrowdfundingCorrect_CrowdfundingProperties_contract_backed&#45;&gt;CrowdfundingCorrect_CrowdfundingProperties_sum_map_add_in -->
<g id="edge19" class="edge">
<title>CrowdfundingCorrect_CrowdfundingProperties_contract_backed&#45;&gt;CrowdfundingCorrect_CrowdfundingProperties_sum_map_add_in</title>
<path fill="none" stroke="black" d="M2208.81,-1014.02C2071.45,-938.92 1630.17,-697.67 1496.64,-624.67"/>
<polygon fill="black" stroke="black" points="1498.02,-621.43 1487.57,-619.71 1494.66,-627.58 1498.02,-621.43"/>
</g>
<!-- CrowdfundingCorrect_CrowdfundingProperties_contract_backed&#45;&gt;CrowdfundingCorrect_CrowdfundingProperties_assertion -->
<g id="edge20" class="edge">
<title>CrowdfundingCorrect_CrowdfundingProperties_contract_backed&#45;&gt;CrowdfundingCorrect_CrowdfundingProperties_assertion</title>
<path fill="none" stroke="black" d="M2180.82,-1019.82C1970.71,-968.47 1322.35,-805.72 798,-628.54 791.03,-626.19 783.7,-623.49 776.6,-620.76"/>
<polygon fill="black" stroke="black" points="777.72,-617.44 767.13,-617.04 775.16,-623.95 777.72,-617.44"/>
</g>
<!-- CrowdfundingCorrect_CrowdfundingProperties_consistent_balance_deadline&#45;&gt;CrowdfundingCorrect_CrowdfundingProperties_sum_map -->
<g id="edge21" class="edge">
<title>CrowdfundingCorrect_CrowdfundingProperties_consistent_balance_deadline&#45;&gt;CrowdfundingCorrect_CrowdfundingProperties_sum_map</title>
<path fill="none" stroke="black" d="M975.51,-584.66C1074.79,-521.42 1424.43,-298.72 1533.35,-229.34"/>
<polygon fill="black" stroke="black" points="1535.4,-232.18 1541.95,-223.86 1531.64,-226.28 1535.4,-232.18"/>
</g>
<!-- CrowdfundingCorrect_CrowdfundingProperties_deadline_passed -->
<g id="node30" class="node">
<title>CrowdfundingCorrect_CrowdfundingProperties_deadline_passed</title>
<g id="a_node30"><a xlink:href="CrowdfundingCorrect.html#CrowdfundingProperties.deadline_passed" xlink:title="deadline_passed">
<ellipse fill="#f070d1" stroke="black" cx="571" cy="-207.54" rx="87.18" ry="18"/>
<text text-anchor="middle" x="571" y="-203.84" font-family="Times,serif" font-size="14.00">deadline_passed</text>
</a>
</g>
</g>
<!-- CrowdfundingCorrect_CrowdfundingProperties_consistent_balance_deadline&#45;&gt;CrowdfundingCorrect_CrowdfundingProperties_deadline_passed -->
<g id="edge22" class="edge">
<title>CrowdfundingCorrect_CrowdfundingProperties_consistent_balance_deadline&#45;&gt;CrowdfundingCorrect_CrowdfundingProperties_deadline_passed</title>
<path fill="none" stroke="black" d="M932.76,-584.66C872.9,-522.43 664.5,-305.75 594.29,-232.76"/>
<polygon fill="black" stroke="black" points="596.64,-230.15 587.18,-225.37 591.59,-235 596.64,-230.15"/>
</g>
<!-- CrowdfundingCorrect_CrowdfundingProperties_sum_map_sub_in&#45;&gt;CrowdfundingCorrect_CrowdfundingProperties_sum_map -->
<g id="edge23" class="edge">
<title>CrowdfundingCorrect_CrowdfundingProperties_sum_map_sub_in&#45;&gt;CrowdfundingCorrect_CrowdfundingProperties_sum_map</title>
<path fill="none" stroke="black" d="M2082.18,-584.91C1996.31,-522.29 1692.54,-300.8 1595.81,-230.28"/>
<polygon fill="black" stroke="black" points="1597.78,-227.38 1587.63,-224.32 1593.65,-233.04 1597.78,-227.38"/>
</g>
<!-- CrowdfundingCorrect_CrowdfundingProperties_sum_map_add_not_in&#45;&gt;CrowdfundingCorrect_CrowdfundingProperties_sum_map -->
<g id="edge24" class="edge">
<title>CrowdfundingCorrect_CrowdfundingProperties_sum_map_add_not_in&#45;&gt;CrowdfundingCorrect_CrowdfundingProperties_sum_map</title>
<path fill="none" stroke="black" d="M1669.29,-584.4C1652.31,-522.6 1594.12,-310.88 1573.4,-235.48"/>
<polygon fill="black" stroke="black" points="1576.76,-234.49 1570.73,-225.77 1570.01,-236.34 1576.76,-234.49"/>
</g>
<!-- CrowdfundingCorrect_CrowdfundingProperties_sum_map_add_in&#45;&gt;CrowdfundingCorrect_CrowdfundingProperties_sum_map -->
<g id="edge25" class="edge">
<title>CrowdfundingCorrect_CrowdfundingProperties_sum_map_add_in&#45;&gt;CrowdfundingCorrect_CrowdfundingProperties_sum_map</title>
<path fill="none" stroke="black" d="M1462.71,-584.4C1479.69,-522.6 1537.88,-310.88 1558.6,-235.48"/>
<polygon fill="black" stroke="black" points="1561.99,-236.34 1561.27,-225.77 1555.24,-234.49 1561.99,-236.34"/>
</g>
<!-- CrowdfundingCorrect_CrowdfundingProperties_all_non_neg_sum_map -->
<g id="node16" class="node">
<title>CrowdfundingCorrect_CrowdfundingProperties_all_non_neg_sum_map</title>
<g id="a_node16"><a xlink:href="CrowdfundingCorrect.html#CrowdfundingProperties.all_non_neg_sum_map" xlink:title="all_non_neg_sum_map">
<ellipse fill="#7fffd4" stroke="black" cx="1230" cy="-602.54" rx="113.17" ry="18"/>
<ellipse fill="none" stroke="black" cx="1230" cy="-602.54" rx="117.18" ry="22"/>
<ellipse fill="none" stroke="black" cx="1230" cy="-602.54" rx="121.18" ry="26"/>
<text text-anchor="middle" x="1230" y="-598.84" font-family="Times,serif" font-size="14.00">all_non_neg_sum_map</text>
</a>
</g>
</g>
<!-- CrowdfundingCorrect_CrowdfundingProperties_all_non_neg_sum_map&#45;&gt;CrowdfundingCorrect_CrowdfundingProperties_sum_map -->
<g id="edge26" class="edge">
<title>CrowdfundingCorrect_CrowdfundingProperties_all_non_neg_sum_map&#45;&gt;CrowdfundingCorrect_CrowdfundingProperties_sum_map</title>
<path fill="none" stroke="black" d="M1251.27,-576.66C1311.85,-505.81 1484.77,-303.55 1545.01,-233.1"/>
<polygon fill="black" stroke="black" points="1547.94,-235.05 1551.78,-225.18 1542.62,-230.51 1547.94,-235.05"/>
</g>
<!-- CrowdfundingCorrect_CrowdfundingProperties_existing_donation_correct -->
<g id="node18" class="node">
<title>CrowdfundingCorrect_CrowdfundingProperties_existing_donation_correct</title>
<g id="a_node18"><a xlink:href="CrowdfundingCorrect.html#CrowdfundingProperties.existing_donation_correct" xlink:title="existing_donation_correct">
<ellipse fill="#7fffd4" stroke="black" cx="1014" cy="-1037.54" rx="129.98" ry="18"/>
<ellipse fill="none" stroke="black" cx="1014" cy="-1037.54" rx="133.98" ry="22"/>
<ellipse fill="none" stroke="black" cx="1014" cy="-1037.54" rx="137.98" ry="26"/>
<text text-anchor="middle" x="1014" y="-1033.84" font-family="Times,serif" font-size="14.00">existing_donation_correct</text>
</a>
</g>
</g>
<!-- CrowdfundingCorrect_CrowdfundingProperties_existing_donation_correct&#45;&gt;CrowdfundingCorrect_CrowdfundingProperties_assertion -->
<g id="edge27" class="edge">
<title>CrowdfundingCorrect_CrowdfundingProperties_existing_donation_correct&#45;&gt;CrowdfundingCorrect_CrowdfundingProperties_assertion</title>
<path fill="none" stroke="black" d="M998,-1011.71C948.93,-935.55 800.92,-705.85 751.37,-628.94"/>
<polygon fill="black" stroke="black" points="754.18,-626.85 745.82,-620.34 748.3,-630.64 754.18,-626.85"/>
</g>
<!-- CrowdfundingCorrect_CrowdfundingProperties_not_ltb -->
<g id="node26" class="node">
<title>CrowdfundingCorrect_CrowdfundingProperties_not_ltb</title>
<g id="a_node26"><a xlink:href="CrowdfundingCorrect.html#CrowdfundingProperties.not_ltb" xlink:title="not_ltb">
<ellipse fill="#7fffd4" stroke="black" cx="496" cy="-602.54" rx="42.79" ry="18"/>
<text text-anchor="middle" x="496" y="-598.84" font-family="Times,serif" font-size="14.00">not_ltb</text>
</a>
</g>
</g>
<!-- CrowdfundingCorrect_CrowdfundingProperties_existing_donation_correct&#45;&gt;CrowdfundingCorrect_CrowdfundingProperties_not_ltb -->
<g id="edge28" class="edge">
<title>CrowdfundingCorrect_CrowdfundingProperties_existing_donation_correct&#45;&gt;CrowdfundingCorrect_CrowdfundingProperties_not_ltb</title>
<path fill="none" stroke="black" d="M984.67,-1012.02C892.61,-935.07 610.35,-699.13 522.43,-625.64"/>
<polygon fill="black" stroke="black" points="524.46,-622.77 514.54,-619.04 519.97,-628.14 524.46,-622.77"/>
</g>
<!-- CrowdfundingCorrect_CrowdfundingProperties_existing_donation_correct&#45;&gt;CrowdfundingCorrect_CrowdfundingProperties_deadline_passed -->
<g id="edge29" class="edge">
<title>CrowdfundingCorrect_CrowdfundingProperties_existing_donation_correct&#45;&gt;CrowdfundingCorrect_CrowdfundingProperties_deadline_passed</title>
<path fill="none" stroke="black" d="M951.29,-1014.22C827.12,-966.18 552.62,-839.87 444,-628.54 407.1,-556.75 518.34,-315.97 557.73,-235.21"/>
<polygon fill="black" stroke="black" points="561.11,-236.27 562.37,-225.75 554.82,-233.18 561.11,-236.27"/>
</g>
<!-- CrowdfundingCorrect_CrowdfundingProperties_new_donation_correct -->
<g id="node19" class="node">
<title>CrowdfundingCorrect_CrowdfundingProperties_new_donation_correct</title>
<g id="a_node19"><a xlink:href="CrowdfundingCorrect.html#CrowdfundingProperties.new_donation_correct" xlink:title="new_donation_correct">
<ellipse fill="#7fffd4" stroke="black" cx="1290" cy="-1037.54" rx="112.38" ry="18"/>
<ellipse fill="none" stroke="black" cx="1290" cy="-1037.54" rx="116.38" ry="22"/>
<ellipse fill="none" stroke="black" cx="1290" cy="-1037.54" rx="120.38" ry="26"/>
<text text-anchor="middle" x="1290" y="-1033.84" font-family="Times,serif" font-size="14.00">new_donation_correct</text>
</a>
</g>
</g>
<!-- CrowdfundingCorrect_CrowdfundingProperties_new_donation_correct&#45;&gt;CrowdfundingCorrect_CrowdfundingProperties_assertion -->
<g id="edge30" class="edge">
<title>CrowdfundingCorrect_CrowdfundingProperties_new_donation_correct&#45;&gt;CrowdfundingCorrect_CrowdfundingProperties_assertion</title>
<path fill="none" stroke="black" d="M1258.97,-1012.33C1160.7,-935.66 857.24,-698.91 763.13,-625.49"/>
<polygon fill="black" stroke="black" points="765.23,-622.69 755.19,-619.29 760.92,-628.21 765.23,-622.69"/>
</g>
<!-- CrowdfundingCorrect_CrowdfundingProperties_new_donation_correct&#45;&gt;CrowdfundingCorrect_CrowdfundingProperties_not_ltb -->
<g id="edge31" class="edge">
<title>CrowdfundingCorrect_CrowdfundingProperties_new_donation_correct&#45;&gt;CrowdfundingCorrect_CrowdfundingProperties_not_ltb</title>
<path fill="none" stroke="black" d="M1247.03,-1013.11C1105.76,-936.07 657.45,-691.59 530.06,-622.12"/>
<polygon fill="black" stroke="black" points="531.56,-618.95 521.11,-617.24 528.21,-625.1 531.56,-618.95"/>
</g>
<!-- CrowdfundingCorrect_CrowdfundingProperties_new_donation_correct&#45;&gt;CrowdfundingCorrect_CrowdfundingProperties_deadline_passed -->
<g id="edge32" class="edge">
<title>CrowdfundingCorrect_CrowdfundingProperties_new_donation_correct&#45;&gt;CrowdfundingCorrect_CrowdfundingProperties_deadline_passed</title>
<path fill="none" stroke="black" d="M1207.32,-1018.56C1049.5,-979.28 708.5,-869.32 568,-628.54 529.05,-561.79 556.66,-317.6 567.31,-235.6"/>
<polygon fill="black" stroke="black" points="570.8,-235.94 568.63,-225.57 563.86,-235.03 570.8,-235.94"/>
</g>
<!-- CrowdfundingCorrect_CrowdfundingProperties_get_money_back_guarantee -->
<g id="node20" class="node">
<title>CrowdfundingCorrect_CrowdfundingProperties_get_money_back_guarantee</title>
<g id="a_node20"><a xlink:href="CrowdfundingCorrect.html#CrowdfundingProperties.get_money_back_guarantee" xlink:title="get_money_back_guarantee">
<ellipse fill="#7fffd4" stroke="black" cx="712" cy="-1037.54" rx="138.38" ry="18"/>
<ellipse fill="none" stroke="black" cx="712" cy="-1037.54" rx="142.38" ry="22"/>
<ellipse fill="none" stroke="black" cx="712" cy="-1037.54" rx="146.38" ry="26"/>
<text text-anchor="middle" x="712" y="-1033.84" font-family="Times,serif" font-size="14.00">get_money_back_guarantee</text>
</a>
</g>
</g>
<!-- CrowdfundingCorrect_CrowdfundingProperties_get_money_back_guarantee&#45;&gt;CrowdfundingCorrect_CrowdfundingProperties_assertion -->
<g id="edge33" class="edge">
<title>CrowdfundingCorrect_CrowdfundingProperties_get_money_back_guarantee&#45;&gt;CrowdfundingCorrect_CrowdfundingProperties_assertion</title>
<path fill="none" stroke="black" d="M713.34,-1011.39C717.36,-935.54 729.37,-709.45 733.55,-630.84"/>
<polygon fill="black" stroke="black" points="737.05,-630.93 734.09,-620.76 730.06,-630.56 737.05,-630.93"/>
</g>
<!-- CrowdfundingCorrect_CrowdfundingProperties_Znot_leb -->
<g id="node25" class="node">
<title>CrowdfundingCorrect_CrowdfundingProperties_Znot_leb</title>
<g id="a_node25"><a xlink:href="CrowdfundingCorrect.html#CrowdfundingProperties.Znot_leb" xlink:title="Znot_leb">
<ellipse fill="#7fffd4" stroke="black" cx="324" cy="-602.54" rx="50.89" ry="18"/>
<text text-anchor="middle" x="324" y="-598.84" font-family="Times,serif" font-size="14.00">Znot_leb</text>
</a>
</g>
</g>
<!-- CrowdfundingCorrect_CrowdfundingProperties_get_money_back_guarantee&#45;&gt;CrowdfundingCorrect_CrowdfundingProperties_Znot_leb -->
<g id="edge34" class="edge">
<title>CrowdfundingCorrect_CrowdfundingProperties_get_money_back_guarantee&#45;&gt;CrowdfundingCorrect_CrowdfundingProperties_Znot_leb</title>
<path fill="none" stroke="black" d="M689.75,-1011.71C621.07,-935.07 413.06,-702.93 345.46,-627.5"/>
<polygon fill="black" stroke="black" points="347.93,-625 338.65,-619.89 342.72,-629.67 347.93,-625"/>
</g>
<!-- CrowdfundingCorrect_CrowdfundingProperties_goal_reached -->
<g id="node29" class="node">
<title>CrowdfundingCorrect_CrowdfundingProperties_goal_reached</title>
<g id="a_node29"><a xlink:href="CrowdfundingCorrect.html#CrowdfundingProperties.goal_reached" xlink:title="goal_reached">
<ellipse fill="#f070d1" stroke="black" cx="394" cy="-207.54" rx="71.49" ry="18"/>
<text text-anchor="middle" x="394" y="-203.84" font-family="Times,serif" font-size="14.00">goal_reached</text>
</a>
</g>
</g>
<!-- CrowdfundingCorrect_CrowdfundingProperties_get_money_back_guarantee&#45;&gt;CrowdfundingCorrect_CrowdfundingProperties_goal_reached -->
<g id="edge35" class="edge">
<title>CrowdfundingCorrect_CrowdfundingProperties_get_money_back_guarantee&#45;&gt;CrowdfundingCorrect_CrowdfundingProperties_goal_reached</title>
<path fill="none" stroke="black" d="M685.34,-1011.57C624.04,-952.19 473.81,-795 415,-628.54 365.25,-487.73 381.6,-303.79 390.18,-235.55"/>
<polygon fill="black" stroke="black" points="393.65,-235.98 391.48,-225.61 386.71,-235.08 393.65,-235.98"/>
</g>
<!-- CrowdfundingCorrect_CrowdfundingProperties_get_money_back_guarantee&#45;&gt;CrowdfundingCorrect_CrowdfundingProperties_deadline_passed -->
<g id="edge36" class="edge">
<title>CrowdfundingCorrect_CrowdfundingProperties_get_money_back_guarantee&#45;&gt;CrowdfundingCorrect_CrowdfundingProperties_deadline_passed</title>
<path fill="none" stroke="black" d="M686.48,-1011.92C627.14,-952.68 481,-794.73 429,-628.54 381.82,-477.74 501.62,-298.72 550.93,-233.71"/>
<polygon fill="black" stroke="black" points="553.81,-235.71 557.13,-225.65 548.26,-231.45 553.81,-235.71"/>
</g>
<!-- CrowdfundingCorrect_CrowdfundingProperties_run -->
<g id="node22" class="node">
<title>CrowdfundingCorrect_CrowdfundingProperties_run</title>
<g id="a_node22"><a xlink:href="CrowdfundingCorrect.html#CrowdfundingProperties.run" xlink:title="run">
<ellipse fill="#f070d1" stroke="black" cx="735" cy="-207.54" rx="27" ry="18"/>
<text text-anchor="middle" x="735" y="-203.84" font-family="Times,serif" font-size="14.00">run</text>
</a>
</g>
</g>
<!-- CrowdfundingCorrect_CrowdfundingProperties_assertion&#45;&gt;CrowdfundingCorrect_CrowdfundingProperties_run -->
<g id="edge37" class="edge">
<title>CrowdfundingCorrect_CrowdfundingProperties_assertion&#45;&gt;CrowdfundingCorrect_CrowdfundingProperties_run</title>
<path fill="none" stroke="black" d="M735,-584.4C735,-522.73 735,-311.75 735,-235.94"/>
<polygon fill="black" stroke="black" points="738.5,-235.77 735,-225.77 731.5,-235.77 738.5,-235.77"/>
</g>
<!-- CrowdfundingCorrect_CrowdfundingProperties_receive_blockchain_state -->
<g id="node23" class="node">
<title>CrowdfundingCorrect_CrowdfundingProperties_receive_blockchain_state</title>
<g id="a_node23"><a xlink:href="CrowdfundingCorrect.html#CrowdfundingProperties.receive_blockchain_state" xlink:title="receive_blockchain_state">
<ellipse fill="#7fffd4" stroke="black" cx="413" cy="-1037.54" rx="126.17" ry="18"/>
<ellipse fill="none" stroke="black" cx="413" cy="-1037.54" rx="130.18" ry="22"/>
<ellipse fill="none" stroke="black" cx="413" cy="-1037.54" rx="134.18" ry="26"/>
<text text-anchor="middle" x="413" y="-1033.84" font-family="Times,serif" font-size="14.00">receive_blockchain_state</text>
</a>
</g>
</g>
<!-- CrowdfundingCorrect_CrowdfundingProperties_Znot_ltb -->
<g id="node24" class="node">
<title>CrowdfundingCorrect_CrowdfundingProperties_Znot_ltb</title>
<g id="a_node24"><a xlink:href="CrowdfundingCorrect.html#CrowdfundingProperties.Znot_ltb" xlink:title="Znot_ltb">
<ellipse fill="#7fffd4" stroke="black" cx="204" cy="-1037.54" rx="49.31" ry="18"/>
<ellipse fill="none" stroke="black" cx="204" cy="-1037.54" rx="53.3" ry="22"/>
<ellipse fill="none" stroke="black" cx="204" cy="-1037.54" rx="57.29" ry="26"/>
<text text-anchor="middle" x="204" y="-1033.84" font-family="Times,serif" font-size="14.00">Znot_ltb</text>
</a>
</g>
</g>
<!-- CrowdfundingCorrect_CrowdfundingProperties_not_leb -->
<g id="node27" class="node">
<title>CrowdfundingCorrect_CrowdfundingProperties_not_leb</title>
<g id="a_node27"><a xlink:href="CrowdfundingCorrect.html#CrowdfundingProperties.not_leb" xlink:title="not_leb">
<ellipse fill="#7fffd4" stroke="black" cx="76" cy="-1037.54" rx="44.36" ry="18"/>
<ellipse fill="none" stroke="black" cx="76" cy="-1037.54" rx="48.38" ry="22"/>
<ellipse fill="none" stroke="black" cx="76" cy="-1037.54" rx="52.39" ry="26"/>
<text text-anchor="middle" x="76" y="-1033.84" font-family="Times,serif" font-size="14.00">not_leb</text>
</a>
</g>
</g>
<!-- CrowdfundingCorrect_CrowdfundingProperties_funded&#45;&gt;CrowdfundingCorrect_CrowdfundingProperties_goal_reached -->
<g id="edge38" class="edge">
<title>CrowdfundingCorrect_CrowdfundingProperties_funded&#45;&gt;CrowdfundingCorrect_CrowdfundingProperties_goal_reached</title>
<path fill="none" stroke="black" d="M610.29,-584.66C574.8,-522.94 451.97,-309.35 408.99,-234.61"/>
<polygon fill="black" stroke="black" points="411.95,-232.73 403.93,-225.81 405.88,-236.22 411.95,-232.73"/>
</g>
<!-- CrowdfundingCorrect_CrowdfundingProperties_funded&#45;&gt;CrowdfundingCorrect_CrowdfundingProperties_deadline_passed -->
<g id="edge39" class="edge">
<title>CrowdfundingCorrect_CrowdfundingProperties_funded&#45;&gt;CrowdfundingCorrect_CrowdfundingProperties_deadline_passed</title>
<path fill="none" stroke="black" d="M617.86,-584.4C610.17,-522.73 583.87,-311.75 574.42,-235.94"/>
<polygon fill="black" stroke="black" points="577.86,-235.26 573.15,-225.77 570.91,-236.13 577.86,-235.26"/>
</g>
</g>
</svg>
