<?xml version="1.0" encoding="UTF-8" standalone="no"?>
<!DOCTYPE svg PUBLIC "-//W3C//DTD SVG 1.1//EN"
 "http://www.w3.org/Graphics/SVG/1.1/DTD/svg11.dtd">
<!-- Generated by graphviz version 2.43.0 (0)
 -->
<!-- Title: Circulation Pages: 1 -->
<svg width="829pt" height="419pt"
 viewBox="0.00 0.00 829.00 418.50" xmlns="http://www.w3.org/2000/svg" xmlns:xlink="http://www.w3.org/1999/xlink">
<g id="graph0" class="graph" transform="scale(1 1) rotate(0) translate(4 414.5)">
<title>Circulation</title>
<polygon fill="white" stroke="transparent" points="-4,4 -4,-414.5 825,-414.5 825,4 -4,4"/>
<g id="clust1" class="cluster">
<title>cluster_Circulation</title>
<polygon fill="#ffffc3" stroke="black" points="8,-8.31 8,-402.19 813,-402.19 813,-8.31 8,-8.31"/>
<text text-anchor="middle" x="55.5" y="-386.99" font-family="Times,serif" font-size="14.00">Circulation</text>
</g>
<!-- Circulation_chain_trace_circulation -->
<g id="node1" class="node">
<title>Circulation_chain_trace_circulation</title>
<g id="a_node1"><a xlink:href="Circulation.html#chain_trace_circulation" xlink:title="chain_trace_circulation">
<ellipse fill="#7fffd4" stroke="black" cx="293" cy="-343.31" rx="117.77" ry="18"/>
<ellipse fill="none" stroke="black" cx="293" cy="-343.31" rx="121.77" ry="22"/>
<ellipse fill="none" stroke="black" cx="293" cy="-343.31" rx="125.78" ry="26"/>
<text text-anchor="middle" x="293" y="-339.61" font-family="Times,serif" font-size="14.00">chain_trace_circulation</text>
</a>
</g>
</g>
<!-- Circulation_step_circulation -->
<g id="node2" class="node">
<title>Circulation_step_circulation</title>
<g id="a_node2"><a xlink:href="Circulation.html#step_circulation" xlink:title="step_circulation">
<ellipse fill="#7fffd4" stroke="black" cx="293" cy="-259.31" rx="84.49" ry="18"/>
<text text-anchor="middle" x="293" y="-255.61" font-family="Times,serif" font-size="14.00">step_circulation</text>
</a>
</g>
</g>
<!-- Circulation_chain_trace_circulation&#45;&gt;Circulation_step_circulation -->
<g id="edge1" class="edge">
<title>Circulation_chain_trace_circulation&#45;&gt;Circulation_step_circulation</title>
<path fill="none" stroke="black" d="M293,-317.27C293,-307.89 293,-297.19 293,-287.62"/>
<polygon fill="black" stroke="black" points="296.5,-287.43 293,-277.43 289.5,-287.43 296.5,-287.43"/>
</g>
<!-- Circulation_circulation_add_new_block -->
<g id="node3" class="node">
<title>Circulation_circulation_add_new_block</title>
<g id="a_node3"><a xlink:href="Circulation.html#circulation_add_new_block" xlink:title="circulation_add_new_block">
<ellipse fill="#7fffd4" stroke="black" cx="150" cy="-110.31" rx="133.78" ry="18"/>
<text text-anchor="middle" x="150" y="-106.61" font-family="Times,serif" font-size="14.00">circulation_add_new_block</text>
</a>
</g>
</g>
<!-- Circulation_step_circulation&#45;&gt;Circulation_circulation_add_new_block -->
<g id="edge2" class="edge">
<title>Circulation_step_circulation&#45;&gt;Circulation_circulation_add_new_block</title>
<path fill="none" stroke="black" d="M249.94,-243.79C228.96,-234.88 204.72,-221.63 188,-203.31 171.23,-184.95 161.31,-158.16 155.83,-138.22"/>
<polygon fill="black" stroke="black" points="159.22,-137.33 153.36,-128.5 152.43,-139.05 159.22,-137.33"/>
</g>
<!-- Circulation_circulation_proper -->
<g id="node4" class="node">
<title>Circulation_circulation_proper</title>
<g id="a_node4"><a xlink:href="Circulation.html#circulation_proper" xlink:title="circulation_proper">
<ellipse fill="#7fffd4" stroke="black" cx="293" cy="-185.31" rx="95.58" ry="18"/>
<text text-anchor="middle" x="293" y="-181.61" font-family="Times,serif" font-size="14.00">circulation_proper</text>
</a>
</g>
</g>
<!-- Circulation_step_circulation&#45;&gt;Circulation_circulation_proper -->
<g id="edge3" class="edge">
<title>Circulation_step_circulation&#45;&gt;Circulation_circulation_proper</title>
<path fill="none" stroke="black" d="M293,-241.25C293,-233.12 293,-223.19 293,-214.02"/>
<polygon fill="black" stroke="black" points="296.5,-213.75 293,-203.75 289.5,-213.75 296.5,-213.75"/>
</g>
<!-- Circulation_eval_action_circulation_unchanged -->
<g id="node5" class="node">
<title>Circulation_eval_action_circulation_unchanged</title>
<g id="a_node5"><a xlink:href="Circulation.html#eval_action_circulation_unchanged" xlink:title="eval_action_circulation_unchanged">
<ellipse fill="#7fffd4" stroke="black" cx="577" cy="-185.31" rx="170.87" ry="18"/>
<text text-anchor="middle" x="577" y="-181.61" font-family="Times,serif" font-size="14.00">eval_action_circulation_unchanged</text>
</a>
</g>
</g>
<!-- Circulation_step_circulation&#45;&gt;Circulation_eval_action_circulation_unchanged -->
<g id="edge4" class="edge">
<title>Circulation_step_circulation&#45;&gt;Circulation_eval_action_circulation_unchanged</title>
<path fill="none" stroke="black" d="M345.09,-245.11C389.9,-233.75 455.01,-217.24 504.84,-204.61"/>
<polygon fill="black" stroke="black" points="505.76,-207.99 514.59,-202.14 504.04,-201.2 505.76,-207.99"/>
</g>
<!-- Circulation_circulation -->
<g id="node8" class="node">
<title>Circulation_circulation</title>
<g id="a_node8"><a xlink:href="Circulation.html#circulation" xlink:title="circulation">
<ellipse fill="#f070d1" stroke="black" cx="303" cy="-35.31" rx="59.59" ry="18"/>
<text text-anchor="middle" x="303" y="-31.61" font-family="Times,serif" font-size="14.00">circulation</text>
</a>
</g>
</g>
<!-- Circulation_circulation_add_new_block&#45;&gt;Circulation_circulation -->
<g id="edge5" class="edge">
<title>Circulation_circulation_add_new_block&#45;&gt;Circulation_circulation</title>
<path fill="none" stroke="black" d="M184.72,-92.75C208.07,-81.61 238.91,-66.89 263.25,-55.28"/>
<polygon fill="black" stroke="black" points="265.04,-58.3 272.56,-50.84 262.03,-51.98 265.04,-58.3"/>
</g>
<!-- Circulation_circulation_proper&#45;&gt;Circulation_circulation -->
<g id="edge6" class="edge">
<title>Circulation_circulation_proper&#45;&gt;Circulation_circulation</title>
<path fill="none" stroke="black" d="M294.17,-167.05C295.88,-141.65 299.1,-93.96 301.15,-63.74"/>
<polygon fill="black" stroke="black" points="304.66,-63.68 301.84,-53.47 297.67,-63.21 304.66,-63.68"/>
</g>
<!-- Circulation_eval_action_from_to_same -->
<g id="node6" class="node">
<title>Circulation_eval_action_from_to_same</title>
<g id="a_node6"><a xlink:href="Circulation.html#eval_action_from_to_same" xlink:title="eval_action_from_to_same">
<ellipse fill="#7fffd4" stroke="black" cx="453" cy="-110.31" rx="131.08" ry="18"/>
<text text-anchor="middle" x="453" y="-106.61" font-family="Times,serif" font-size="14.00">eval_action_from_to_same</text>
</a>
</g>
</g>
<!-- Circulation_eval_action_circulation_unchanged&#45;&gt;Circulation_eval_action_from_to_same -->
<g id="edge7" class="edge">
<title>Circulation_eval_action_circulation_unchanged&#45;&gt;Circulation_eval_action_from_to_same</title>
<path fill="none" stroke="black" d="M548.24,-167.38C530.9,-157.18 508.64,-144.07 490,-133.1"/>
<polygon fill="black" stroke="black" points="491.57,-129.96 481.18,-127.9 488.02,-135.99 491.57,-129.96"/>
</g>
<!-- Circulation_address_reorganize -->
<g id="node7" class="node">
<title>Circulation_address_reorganize</title>
<g id="a_node7"><a xlink:href="Circulation.html#address_reorganize" xlink:title="address_reorganize">
<ellipse fill="#7fffd4" stroke="black" cx="704" cy="-110.31" rx="101.28" ry="18"/>
<text text-anchor="middle" x="704" y="-106.61" font-family="Times,serif" font-size="14.00">address_reorganize</text>
</a>
</g>
</g>
<!-- Circulation_eval_action_circulation_unchanged&#45;&gt;Circulation_address_reorganize -->
<g id="edge8" class="edge">
<title>Circulation_eval_action_circulation_unchanged&#45;&gt;Circulation_address_reorganize</title>
<path fill="none" stroke="black" d="M606.14,-167.57C624.09,-157.25 647.29,-143.91 666.59,-132.81"/>
<polygon fill="black" stroke="black" points="668.51,-135.75 675.44,-127.73 665.02,-129.68 668.51,-135.75"/>
</g>
<!-- Circulation_eval_action_from_to_same&#45;&gt;Circulation_circulation -->
<g id="edge9" class="edge">
<title>Circulation_eval_action_from_to_same&#45;&gt;Circulation_circulation</title>
<path fill="none" stroke="black" d="M418.96,-92.75C396.22,-81.68 366.24,-67.09 342.45,-55.51"/>
<polygon fill="black" stroke="black" points="343.86,-52.31 333.34,-51.08 340.8,-58.6 343.86,-52.31"/>
</g>
</g>
</svg>
