<?xml version="1.0" encoding="UTF-8" standalone="no"?>
<!DOCTYPE svg PUBLIC "-//W3C//DTD SVG 1.1//EN"
 "http://www.w3.org/Graphics/SVG/1.1/DTD/svg11.dtd">
<!-- Generated by graphviz version 2.43.0 (0)
 -->
<!-- Title: Printing Pages: 1 -->
<svg width="1155pt" height="582pt"
 viewBox="0.00 0.00 1155.00 581.50" xmlns="http://www.w3.org/2000/svg" xmlns:xlink="http://www.w3.org/1999/xlink">
<g id="graph0" class="graph" transform="scale(1 1) rotate(0) translate(4 577.5)">
<title>Printing</title>
<polygon fill="white" stroke="transparent" points="-4,4 -4,-577.5 1151,-577.5 1151,4 -4,4"/>
<g id="clust1" class="cluster">
<title>cluster_Printing</title>
<polygon fill="#ffffc3" stroke="black" points="8,-17.18 8,-556.32 1139,-556.32 1139,-17.18 8,-17.18"/>
<text text-anchor="middle" x="45.5" y="-541.12" font-family="Times,serif" font-size="14.00">Printing</text>
</g>
<!-- Printing_no_remaps -->
<g id="node1" class="node">
<title>Printing_no_remaps</title>
<g id="a_node1"><a xlink:href="Printing.html#no_remaps" xlink:title="no_remaps">
<ellipse fill="#f070d1" stroke="black" cx="1062" cy="-434.18" rx="61.18" ry="18"/>
<ellipse fill="none" stroke="black" cx="1062" cy="-434.18" rx="65.18" ry="22"/>
<ellipse fill="none" stroke="black" cx="1062" cy="-434.18" rx="69.19" ry="26"/>
<text text-anchor="middle" x="1062" y="-430.48" font-family="Times,serif" font-size="14.00">no_remaps</text>
</a>
</g>
</g>
<!-- Printing_Build_remaps -->
<g id="node5" class="node">
<title>Printing_Build_remaps</title>
<g id="a_node5"><a xlink:href="Printing.html#Build_remaps" xlink:title="Build_remaps">
<ellipse fill="#7faaff" stroke="black" cx="1023" cy="-245.18" rx="74.19" ry="18"/>
<text text-anchor="middle" x="1023" y="-241.48" font-family="Times,serif" font-size="14.00">Build_remaps</text>
</a>
</g>
</g>
<!-- Printing_no_remaps&#45;&gt;Printing_Build_remaps -->
<g id="edge1" class="edge">
<title>Printing_no_remaps&#45;&gt;Printing_Build_remaps</title>
<path fill="none" stroke="black" d="M1056.74,-407.96C1049.4,-372.76 1036.13,-309.15 1028.61,-273.07"/>
<polygon fill="black" stroke="black" points="1032.03,-272.32 1026.56,-263.25 1025.17,-273.75 1032.03,-272.32"/>
</g>
<!-- Printing_remaps -->
<g id="node6" class="node">
<title>Printing_remaps</title>
<g id="a_node6"><a xlink:href="Printing.html#remaps" xlink:title="remaps">
<ellipse fill="#e2cdfa" stroke="black" cx="852" cy="-245.18" rx="45.49" ry="18"/>
<text text-anchor="middle" x="852" y="-241.48" font-family="Times,serif" font-size="14.00">remaps</text>
</a>
</g>
</g>
<!-- Printing_no_remaps&#45;&gt;Printing_remaps -->
<g id="edge2" class="edge">
<title>Printing_no_remaps&#45;&gt;Printing_remaps</title>
<path fill="none" stroke="black" d="M1035.83,-409.88C995.11,-373.62 917.13,-304.18 877.09,-268.52"/>
<polygon fill="black" stroke="black" points="879.4,-265.9 869.61,-261.86 874.75,-271.13 879.4,-265.9"/>
</g>
<!-- Printing_remap_inline_constant -->
<g id="node2" class="node">
<title>Printing_remap_inline_constant</title>
<g id="a_node2"><a xlink:href="Printing.html#remap_inline_constant" xlink:title="remap_inline_constant">
<ellipse fill="#f070d1" stroke="black" cx="852" cy="-434.18" rx="115.08" ry="18"/>
<ellipse fill="none" stroke="black" cx="852" cy="-434.18" rx="119.08" ry="22"/>
<ellipse fill="none" stroke="black" cx="852" cy="-434.18" rx="123.08" ry="26"/>
<text text-anchor="middle" x="852" y="-430.48" font-family="Times,serif" font-size="14.00">remap_inline_constant</text>
</a>
</g>
</g>
<!-- Printing_remap_inline_constant&#45;&gt;Printing_remaps -->
<g id="edge3" class="edge">
<title>Printing_remap_inline_constant&#45;&gt;Printing_remaps</title>
<path fill="none" stroke="black" d="M852,-407.96C852,-372.91 852,-309.7 852,-273.54"/>
<polygon fill="black" stroke="black" points="855.5,-273.25 852,-263.25 848.5,-273.25 855.5,-273.25"/>
</g>
<!-- Printing_remap_constant -->
<g id="node3" class="node">
<title>Printing_remap_constant</title>
<g id="a_node3"><a xlink:href="Printing.html#remap_constant" xlink:title="remap_constant">
<ellipse fill="#f070d1" stroke="black" cx="618" cy="-434.18" rx="85.27" ry="18"/>
<ellipse fill="none" stroke="black" cx="618" cy="-434.18" rx="89.28" ry="22"/>
<ellipse fill="none" stroke="black" cx="618" cy="-434.18" rx="93.29" ry="26"/>
<text text-anchor="middle" x="618" y="-430.48" font-family="Times,serif" font-size="14.00">remap_constant</text>
</a>
</g>
</g>
<!-- Printing_remap_constant&#45;&gt;Printing_remaps -->
<g id="edge4" class="edge">
<title>Printing_remap_constant&#45;&gt;Printing_remaps</title>
<path fill="none" stroke="black" d="M647.64,-409.5C693.39,-372.94 780.55,-303.28 824.79,-267.93"/>
<polygon fill="black" stroke="black" points="827.16,-270.52 832.78,-261.54 822.79,-265.05 827.16,-270.52"/>
</g>
<!-- Printing_remap_inductive -->
<g id="node4" class="node">
<title>Printing_remap_inductive</title>
<g id="a_node4"><a xlink:href="Printing.html#remap_inductive" xlink:title="remap_inductive">
<ellipse fill="#f070d1" stroke="black" cx="411" cy="-434.18" rx="87.96" ry="18"/>
<ellipse fill="none" stroke="black" cx="411" cy="-434.18" rx="91.97" ry="22"/>
<ellipse fill="none" stroke="black" cx="411" cy="-434.18" rx="95.99" ry="26"/>
<text text-anchor="middle" x="411" y="-430.48" font-family="Times,serif" font-size="14.00">remap_inductive</text>
</a>
</g>
</g>
<!-- Printing_remap_inductive&#45;&gt;Printing_remaps -->
<g id="edge5" class="edge">
<title>Printing_remap_inductive&#45;&gt;Printing_remaps</title>
<path fill="none" stroke="black" d="M462.9,-412.17C537.42,-381.85 678.86,-323.68 798,-271.18 803.39,-268.81 809.06,-266.25 814.61,-263.71"/>
<polygon fill="black" stroke="black" points="816.17,-266.85 823.78,-259.49 813.24,-260.49 816.17,-266.85"/>
</g>
<!-- Printing_remapped_inductive -->
<g id="node11" class="node">
<title>Printing_remapped_inductive</title>
<g id="a_node11"><a xlink:href="Printing.html#remapped_inductive" xlink:title="remapped_inductive">
<ellipse fill="#e2cdfa" stroke="black" cx="708" cy="-73.18" rx="104.78" ry="18"/>
<text text-anchor="middle" x="708" y="-69.48" font-family="Times,serif" font-size="14.00">remapped_inductive</text>
</a>
</g>
</g>
<!-- Printing_Build_remaps&#45;&gt;Printing_remapped_inductive -->
<g id="edge6" class="edge">
<title>Printing_Build_remaps&#45;&gt;Printing_remapped_inductive</title>
<path fill="none" stroke="black" d="M993.93,-228.5C937.17,-197.86 811.55,-130.07 747.39,-95.44"/>
<polygon fill="black" stroke="black" points="748.84,-92.25 738.38,-90.58 745.52,-98.41 748.84,-92.25"/>
</g>
<!-- Printing_remaps&#45;&gt;Printing_remapped_inductive -->
<g id="edge7" class="edge">
<title>Printing_remaps&#45;&gt;Printing_remapped_inductive</title>
<path fill="none" stroke="black" d="M838.19,-227.88C812.91,-198.03 759.02,-134.42 729.11,-99.1"/>
<polygon fill="black" stroke="black" points="731.54,-96.56 722.4,-91.19 726.2,-101.08 731.54,-96.56"/>
</g>
<!-- Printing_re_ind_match -->
<g id="node7" class="node">
<title>Printing_re_ind_match</title>
<g id="a_node7"><a xlink:href="Printing.html#re_ind_match" xlink:title="re_ind_match">
<ellipse fill="#f070d1" stroke="black" cx="708" cy="-245.18" rx="72.61" ry="18"/>
<ellipse fill="none" stroke="black" cx="708" cy="-245.18" rx="76.6" ry="22"/>
<ellipse fill="none" stroke="black" cx="708" cy="-245.18" rx="80.59" ry="26"/>
<text text-anchor="middle" x="708" y="-241.48" font-family="Times,serif" font-size="14.00">re_ind_match</text>
</a>
</g>
</g>
<!-- Printing_re_ind_match&#45;&gt;Printing_remapped_inductive -->
<g id="edge8" class="edge">
<title>Printing_re_ind_match&#45;&gt;Printing_remapped_inductive</title>
<path fill="none" stroke="black" d="M708,-219.1C708,-187.73 708,-134.22 708,-101.74"/>
<polygon fill="black" stroke="black" points="711.5,-101.59 708,-91.59 704.5,-101.59 711.5,-101.59"/>
</g>
<!-- Printing_re_ind_ctors -->
<g id="node8" class="node">
<title>Printing_re_ind_ctors</title>
<g id="a_node8"><a xlink:href="Printing.html#re_ind_ctors" xlink:title="re_ind_ctors">
<ellipse fill="#f070d1" stroke="black" cx="534" cy="-245.18" rx="67.68" ry="18"/>
<ellipse fill="none" stroke="black" cx="534" cy="-245.18" rx="71.68" ry="22"/>
<ellipse fill="none" stroke="black" cx="534" cy="-245.18" rx="75.69" ry="26"/>
<text text-anchor="middle" x="534" y="-241.48" font-family="Times,serif" font-size="14.00">re_ind_ctors</text>
</a>
</g>
</g>
<!-- Printing_re_ind_ctors&#45;&gt;Printing_remapped_inductive -->
<g id="edge9" class="edge">
<title>Printing_re_ind_ctors&#45;&gt;Printing_remapped_inductive</title>
<path fill="none" stroke="black" d="M558.19,-220.55C591.22,-188.28 650.09,-130.76 683.35,-98.27"/>
<polygon fill="black" stroke="black" points="686.12,-100.45 690.83,-90.96 681.23,-95.44 686.12,-100.45"/>
</g>
<!-- Printing_re_ind_name -->
<g id="node9" class="node">
<title>Printing_re_ind_name</title>
<g id="a_node9"><a xlink:href="Printing.html#re_ind_name" xlink:title="re_ind_name">
<ellipse fill="#f070d1" stroke="black" cx="363" cy="-245.18" rx="69.58" ry="18"/>
<ellipse fill="none" stroke="black" cx="363" cy="-245.18" rx="73.59" ry="22"/>
<ellipse fill="none" stroke="black" cx="363" cy="-245.18" rx="77.59" ry="26"/>
<text text-anchor="middle" x="363" y="-241.48" font-family="Times,serif" font-size="14.00">re_ind_name</text>
</a>
</g>
</g>
<!-- Printing_re_ind_name&#45;&gt;Printing_remapped_inductive -->
<g id="edge10" class="edge">
<title>Printing_re_ind_name&#45;&gt;Printing_remapped_inductive</title>
<path fill="none" stroke="black" d="M405.3,-223.34C471.67,-190.63 599.52,-127.64 665.81,-94.97"/>
<polygon fill="black" stroke="black" points="667.71,-97.94 675.13,-90.38 664.62,-91.66 667.71,-97.94"/>
</g>
<!-- Printing_build_remapped_inductive -->
<g id="node10" class="node">
<title>Printing_build_remapped_inductive</title>
<g id="a_node10"><a xlink:href="Printing.html#build_remapped_inductive" xlink:title="build_remapped_inductive">
<ellipse fill="#7faaff" stroke="black" cx="157" cy="-434.18" rx="132.67" ry="18"/>
<ellipse fill="none" stroke="black" cx="157" cy="-434.18" rx="136.67" ry="22"/>
<ellipse fill="none" stroke="black" cx="157" cy="-434.18" rx="140.68" ry="26"/>
<text text-anchor="middle" x="157" y="-430.48" font-family="Times,serif" font-size="14.00">build_remapped_inductive</text>
</a>
</g>
</g>
</g>
</svg>
