<?xml version="1.0" encoding="UTF-8" standalone="no"?>
<!DOCTYPE svg PUBLIC "-//W3C//DTD SVG 1.1//EN"
 "http://www.w3.org/Graphics/SVG/1.1/DTD/svg11.dtd">
<!-- Generated by graphviz version 2.43.0 (0)
 -->
<!-- Title: Euler Pages: 1 -->
<svg width="1287pt" height="648pt"
 viewBox="0.00 0.00 1287.00 647.50" xmlns="http://www.w3.org/2000/svg" xmlns:xlink="http://www.w3.org/1999/xlink">
<g id="graph0" class="graph" transform="scale(1 1) rotate(0) translate(4 643.5)">
<title>Euler</title>
<polygon fill="white" stroke="transparent" points="-4,4 -4,-643.5 1283,-643.5 1283,4 -4,4"/>
<g id="clust1" class="cluster">
<title>cluster_Euler</title>
<polygon fill="#ffffc3" stroke="black" points="8,-15.84 8,-623.66 1271,-623.66 1271,-15.84 8,-15.84"/>
<text text-anchor="middle" x="36" y="-608.46" font-family="Times,serif" font-size="14.00">Euler</text>
</g>
<!-- Euler_fermat -->
<g id="node1" class="node">
<title>Euler_fermat</title>
<g id="a_node1"><a xlink:href="Euler.html#fermat" xlink:title="fermat">
<ellipse fill="#7fffd4" stroke="black" cx="434" cy="-510.84" rx="42.45" ry="18"/>
<ellipse fill="none" stroke="black" cx="434" cy="-510.84" rx="46.47" ry="22"/>
<ellipse fill="none" stroke="black" cx="434" cy="-510.84" rx="50.49" ry="26"/>
<text text-anchor="middle" x="434" y="-507.14" font-family="Times,serif" font-size="14.00">fermat</text>
</a>
</g>
</g>
<!-- Euler_prime_totient -->
<g id="node2" class="node">
<title>Euler_prime_totient</title>
<g id="a_node2"><a xlink:href="Euler.html#prime_totient" xlink:title="prime_totient">
<ellipse fill="#7fffd4" stroke="black" cx="260" cy="-352.84" rx="73.39" ry="18"/>
<text text-anchor="middle" x="260" y="-349.14" font-family="Times,serif" font-size="14.00">prime_totient</text>
</a>
</g>
</g>
<!-- Euler_fermat&#45;&gt;Euler_prime_totient -->
<g id="edge1" class="edge">
<title>Euler_fermat&#45;&gt;Euler_prime_totient</title>
<path fill="none" stroke="black" d="M409.44,-487.82C376.83,-458.58 319.49,-407.17 286.11,-377.25"/>
<polygon fill="black" stroke="black" points="288.36,-374.56 278.57,-370.49 283.68,-379.77 288.36,-374.56"/>
</g>
<!-- Euler_euler -->
<g id="node4" class="node">
<title>Euler_euler</title>
<g id="a_node4"><a xlink:href="Euler.html#euler" xlink:title="euler">
<ellipse fill="#7fffd4" stroke="black" cx="609" cy="-352.84" rx="34.39" ry="18"/>
<text text-anchor="middle" x="609" y="-349.14" font-family="Times,serif" font-size="14.00">euler</text>
</a>
</g>
</g>
<!-- Euler_fermat&#45;&gt;Euler_euler -->
<g id="edge2" class="edge">
<title>Euler_fermat&#45;&gt;Euler_euler</title>
<path fill="none" stroke="black" d="M458.7,-487.82C492.05,-458.09 551.14,-405.42 584.42,-375.75"/>
<polygon fill="black" stroke="black" points="587.16,-377.99 592.3,-368.73 582.51,-372.77 587.16,-377.99"/>
</g>
<!-- Euler_prime_rel_primes -->
<g id="node3" class="node">
<title>Euler_prime_rel_primes</title>
<g id="a_node3"><a xlink:href="Euler.html#prime_rel_primes" xlink:title="prime_rel_primes">
<ellipse fill="#7fffd4" stroke="black" cx="108" cy="-209.84" rx="91.78" ry="18"/>
<text text-anchor="middle" x="108" y="-206.14" font-family="Times,serif" font-size="14.00">prime_rel_primes</text>
</a>
</g>
</g>
<!-- Euler_prime_totient&#45;&gt;Euler_prime_rel_primes -->
<g id="edge3" class="edge">
<title>Euler_prime_totient&#45;&gt;Euler_prime_rel_primes</title>
<path fill="none" stroke="black" d="M241.97,-335.11C215,-310.09 164.06,-262.84 133.35,-234.36"/>
<polygon fill="black" stroke="black" points="135.72,-231.78 126.01,-227.55 130.96,-236.91 135.72,-231.78"/>
</g>
<!-- Euler_totient -->
<g id="node11" class="node">
<title>Euler_totient</title>
<g id="a_node11"><a xlink:href="Euler.html#totient" xlink:title="totient">
<ellipse fill="#f070d1" stroke="black" cx="260" cy="-209.84" rx="42.49" ry="18"/>
<text text-anchor="middle" x="260" y="-206.14" font-family="Times,serif" font-size="14.00">totient</text>
</a>
</g>
</g>
<!-- Euler_prime_totient&#45;&gt;Euler_totient -->
<g id="edge4" class="edge">
<title>Euler_prime_totient&#45;&gt;Euler_totient</title>
<path fill="none" stroke="black" d="M260,-334.83C260,-310.8 260,-266.65 260,-238.04"/>
<polygon fill="black" stroke="black" points="263.5,-237.91 260,-227.91 256.5,-237.91 263.5,-237.91"/>
</g>
<!-- Euler_rel_primes -->
<g id="node12" class="node">
<title>Euler_rel_primes</title>
<g id="a_node12"><a xlink:href="Euler.html#rel_primes" xlink:title="rel_primes">
<ellipse fill="#f070d1" stroke="black" cx="434" cy="-66.84" rx="59.59" ry="18"/>
<text text-anchor="middle" x="434" y="-63.14" font-family="Times,serif" font-size="14.00">rel_primes</text>
</a>
</g>
</g>
<!-- Euler_prime_rel_primes&#45;&gt;Euler_rel_primes -->
<g id="edge5" class="edge">
<title>Euler_prime_rel_primes&#45;&gt;Euler_rel_primes</title>
<path fill="none" stroke="black" d="M144.13,-193.21C204.84,-166.95 326.99,-114.12 391.64,-86.16"/>
<polygon fill="black" stroke="black" points="393.34,-89.24 401.12,-82.06 390.56,-82.82 393.34,-89.24"/>
</g>
<!-- Euler_rel_prime_prod -->
<g id="node5" class="node">
<title>Euler_rel_prime_prod</title>
<g id="a_node5"><a xlink:href="Euler.html#rel_prime_prod" xlink:title="rel_prime_prod">
<ellipse fill="#7fffd4" stroke="black" cx="970" cy="-209.84" rx="81.49" ry="18"/>
<text text-anchor="middle" x="970" y="-206.14" font-family="Times,serif" font-size="14.00">rel_prime_prod</text>
</a>
</g>
</g>
<!-- Euler_euler&#45;&gt;Euler_rel_prime_prod -->
<g id="edge6" class="edge">
<title>Euler_euler&#45;&gt;Euler_rel_prime_prod</title>
<path fill="none" stroke="black" d="M635.84,-341.36C696.64,-317.61 845.55,-259.45 922.4,-229.43"/>
<polygon fill="black" stroke="black" points="923.81,-232.64 931.85,-225.74 921.26,-226.12 923.81,-232.64"/>
</g>
<!-- Euler_prod_perm_proper -->
<g id="node6" class="node">
<title>Euler_prod_perm_proper</title>
<g id="a_node6"><a xlink:href="Euler.html#prod_perm_proper" xlink:title="prod_perm_proper">
<ellipse fill="#7fffd4" stroke="black" cx="1166" cy="-209.84" rx="96.68" ry="18"/>
<text text-anchor="middle" x="1166" y="-206.14" font-family="Times,serif" font-size="14.00">prod_perm_proper</text>
</a>
</g>
</g>
<!-- Euler_euler&#45;&gt;Euler_prod_perm_proper -->
<g id="edge7" class="edge">
<title>Euler_euler&#45;&gt;Euler_prod_perm_proper</title>
<path fill="none" stroke="black" d="M639.34,-344.16C726.78,-322.02 980.72,-257.74 1101.16,-227.25"/>
<polygon fill="black" stroke="black" points="1102.16,-230.61 1110.99,-224.76 1100.44,-223.82 1102.16,-230.61"/>
</g>
<!-- Euler_mul_both_r_mod -->
<g id="node8" class="node">
<title>Euler_mul_both_r_mod</title>
<g id="a_node8"><a xlink:href="Euler.html#mul_both_r_mod" xlink:title="mul_both_r_mod">
<ellipse fill="#7fffd4" stroke="black" cx="407" cy="-209.84" rx="87.18" ry="18"/>
<text text-anchor="middle" x="407" y="-206.14" font-family="Times,serif" font-size="14.00">mul_both_r_mod</text>
</a>
</g>
</g>
<!-- Euler_euler&#45;&gt;Euler_mul_both_r_mod -->
<g id="edge8" class="edge">
<title>Euler_euler&#45;&gt;Euler_mul_both_r_mod</title>
<path fill="none" stroke="black" d="M589.26,-338.06C554.25,-313.62 480.98,-262.48 438.78,-233.02"/>
<polygon fill="black" stroke="black" points="440.73,-230.11 430.53,-227.26 436.72,-235.85 440.73,-230.11"/>
</g>
<!-- Euler_NoDup_rel_primes -->
<g id="node9" class="node">
<title>Euler_NoDup_rel_primes</title>
<g id="a_node9"><a xlink:href="Euler.html#NoDup_rel_primes" xlink:title="NoDup_rel_primes">
<ellipse fill="#7fffd4" stroke="black" cx="609" cy="-209.84" rx="96.68" ry="18"/>
<text text-anchor="middle" x="609" y="-206.14" font-family="Times,serif" font-size="14.00">NoDup_rel_primes</text>
</a>
</g>
</g>
<!-- Euler_euler&#45;&gt;Euler_NoDup_rel_primes -->
<g id="edge9" class="edge">
<title>Euler_euler&#45;&gt;Euler_NoDup_rel_primes</title>
<path fill="none" stroke="black" d="M609,-334.83C609,-310.8 609,-266.65 609,-238.04"/>
<polygon fill="black" stroke="black" points="612.5,-237.91 609,-227.91 605.5,-237.91 612.5,-237.91"/>
</g>
<!-- Euler_In_rel_primes -->
<g id="node10" class="node">
<title>Euler_In_rel_primes</title>
<g id="a_node10"><a xlink:href="Euler.html#In_rel_primes" xlink:title="In_rel_primes">
<ellipse fill="#7fffd4" stroke="black" cx="797" cy="-209.84" rx="73.39" ry="18"/>
<text text-anchor="middle" x="797" y="-206.14" font-family="Times,serif" font-size="14.00">In_rel_primes</text>
</a>
</g>
</g>
<!-- Euler_euler&#45;&gt;Euler_In_rel_primes -->
<g id="edge10" class="edge">
<title>Euler_euler&#45;&gt;Euler_In_rel_primes</title>
<path fill="none" stroke="black" d="M628.06,-337.54C660.78,-313 727.87,-262.69 766.94,-233.38"/>
<polygon fill="black" stroke="black" points="769.4,-235.92 775.3,-227.12 765.2,-230.32 769.4,-235.92"/>
</g>
<!-- Euler_euler&#45;&gt;Euler_totient -->
<g id="edge11" class="edge">
<title>Euler_euler&#45;&gt;Euler_totient</title>
<path fill="none" stroke="black" d="M582.48,-341.13C521.48,-316.48 370.97,-255.67 299.24,-226.69"/>
<polygon fill="black" stroke="black" points="300.24,-223.32 289.65,-222.82 297.61,-229.81 300.24,-223.32"/>
</g>
<!-- Euler_prod -->
<g id="node7" class="node">
<title>Euler_prod</title>
<g id="a_node7"><a xlink:href="Euler.html#prod" xlink:title="prod">
<ellipse fill="#f070d1" stroke="black" cx="1068" cy="-66.84" rx="32.49" ry="18"/>
<text text-anchor="middle" x="1068" y="-63.14" font-family="Times,serif" font-size="14.00">prod</text>
</a>
</g>
</g>
<!-- Euler_rel_prime_prod&#45;&gt;Euler_prod -->
<g id="edge12" class="edge">
<title>Euler_rel_prime_prod&#45;&gt;Euler_prod</title>
<path fill="none" stroke="black" d="M981.82,-191.83C999.08,-167.01 1031.25,-120.71 1051.03,-92.25"/>
<polygon fill="black" stroke="black" points="1053.91,-94.25 1056.74,-84.04 1048.16,-90.25 1053.91,-94.25"/>
</g>
<!-- Euler_prod_perm_proper&#45;&gt;Euler_prod -->
<g id="edge13" class="edge">
<title>Euler_prod_perm_proper&#45;&gt;Euler_prod</title>
<path fill="none" stroke="black" d="M1154.18,-191.83C1136.92,-167.01 1104.75,-120.71 1084.97,-92.25"/>
<polygon fill="black" stroke="black" points="1087.84,-90.25 1079.26,-84.04 1082.09,-94.25 1087.84,-90.25"/>
</g>
<!-- Euler_NoDup_rel_primes&#45;&gt;Euler_rel_primes -->
<g id="edge14" class="edge">
<title>Euler_NoDup_rel_primes&#45;&gt;Euler_rel_primes</title>
<path fill="none" stroke="black" d="M588.24,-192.11C556.81,-166.79 497.09,-118.67 461.89,-90.31"/>
<polygon fill="black" stroke="black" points="463.91,-87.44 453.93,-83.89 459.52,-92.89 463.91,-87.44"/>
</g>
<!-- Euler_In_rel_primes&#45;&gt;Euler_rel_primes -->
<g id="edge15" class="edge">
<title>Euler_In_rel_primes&#45;&gt;Euler_rel_primes</title>
<path fill="none" stroke="black" d="M759.52,-194.28C692.22,-168.14 551.19,-113.36 478.87,-85.27"/>
<polygon fill="black" stroke="black" points="479.72,-81.84 469.13,-81.49 477.19,-88.37 479.72,-81.84"/>
</g>
<!-- Euler_totient&#45;&gt;Euler_rel_primes -->
<g id="edge16" class="edge">
<title>Euler_totient&#45;&gt;Euler_rel_primes</title>
<path fill="none" stroke="black" d="M278.95,-193.48C309.61,-168.64 370.25,-119.5 405.93,-90.58"/>
<polygon fill="black" stroke="black" points="408.44,-93.06 414,-84.04 404.03,-87.62 408.44,-93.06"/>
</g>
</g>
</svg>
