<?xml version="1.0" encoding="UTF-8" standalone="no"?>
<!DOCTYPE svg PUBLIC "-//W3C//DTD SVG 1.1//EN"
 "http://www.w3.org/Graphics/SVG/1.1/DTD/svg11.dtd">
<!-- Generated by graphviz version 2.43.0 (0)
 -->
<!-- Title: RecordSet Pages: 1 -->
<svg width="432pt" height="220pt"
 viewBox="0.00 0.00 432.00 220.00" xmlns="http://www.w3.org/2000/svg" xmlns:xlink="http://www.w3.org/1999/xlink">
<g id="graph0" class="graph" transform="scale(1 1) rotate(0) translate(4 216)">
<title>RecordSet</title>
<polygon fill="white" stroke="transparent" points="-4,4 -4,-216 428,-216 428,4 -4,4"/>
<g id="clust1" class="cluster">
<title>cluster_RecordSet</title>
<polygon fill="#ffffc3" stroke="black" points="8,-9.47 8,-202.53 416,-202.53 416,-9.47 8,-9.47"/>
<text text-anchor="middle" x="53.5" y="-187.33" font-family="Times,serif" font-size="14.00">RecordSet</text>
</g>
<!-- RecordSet_make_setters -->
<g id="node1" class="node">
<title>RecordSet_make_setters</title>
<g id="a_node1"><a xlink:href="RecordSet.html#make_setters" xlink:title="make_setters">
<ellipse fill="#7fffd4" stroke="black" cx="327" cy="-135.47" rx="72.61" ry="18"/>
<ellipse fill="none" stroke="black" cx="327" cy="-135.47" rx="76.6" ry="22"/>
<ellipse fill="none" stroke="black" cx="327" cy="-135.47" rx="80.59" ry="26"/>
<text text-anchor="middle" x="327" y="-131.77" font-family="Times,serif" font-size="14.00">make_setters</text>
</a>
</g>
</g>
<!-- RecordSet_aRelevant -->
<g id="node2" class="node">
<title>RecordSet_aRelevant</title>
<g id="a_node2"><a xlink:href="RecordSet.html#aRelevant" xlink:title="aRelevant">
<ellipse fill="#f070d1" stroke="black" cx="327" cy="-40.47" rx="57.39" ry="18"/>
<text text-anchor="middle" x="327" y="-36.77" font-family="Times,serif" font-size="14.00">aRelevant</text>
</a>
</g>
</g>
<!-- RecordSet_make_setters&#45;&gt;RecordSet_aRelevant -->
<g id="edge1" class="edge">
<title>RecordSet_make_setters&#45;&gt;RecordSet_aRelevant</title>
<path fill="none" stroke="black" d="M327,-109.06C327,-96.54 327,-81.43 327,-68.68"/>
<polygon fill="black" stroke="black" points="330.5,-68.63 327,-58.63 323.5,-68.63 330.5,-68.63"/>
</g>
<!-- RecordSet_setter_from_getter -->
<g id="node3" class="node">
<title>RecordSet_setter_from_getter</title>
<g id="a_node3"><a xlink:href="RecordSet.html#setter_from_getter" xlink:title="setter_from_getter">
<ellipse fill="#f070d1" stroke="black" cx="122" cy="-135.47" rx="98.27" ry="18"/>
<ellipse fill="none" stroke="black" cx="122" cy="-135.47" rx="102.28" ry="22"/>
<ellipse fill="none" stroke="black" cx="122" cy="-135.47" rx="106.28" ry="26"/>
<text text-anchor="middle" x="122" y="-131.77" font-family="Times,serif" font-size="14.00">setter_from_getter</text>
</a>
</g>
</g>
<!-- RecordSet_SetterFromGetter -->
<g id="node4" class="node">
<title>RecordSet_SetterFromGetter</title>
<g id="a_node4"><a xlink:href="RecordSet.html#SetterFromGetter" xlink:title="SetterFromGetter">
<ellipse fill="#f070d1" stroke="black" cx="122" cy="-40.47" rx="94.78" ry="18"/>
<text text-anchor="middle" x="122" y="-36.77" font-family="Times,serif" font-size="14.00">SetterFromGetter</text>
</a>
</g>
</g>
<!-- RecordSet_setter_from_getter&#45;&gt;RecordSet_SetterFromGetter -->
<g id="edge2" class="edge">
<title>RecordSet_setter_from_getter&#45;&gt;RecordSet_SetterFromGetter</title>
<path fill="none" stroke="black" d="M122,-109.06C122,-96.54 122,-81.43 122,-68.68"/>
<polygon fill="black" stroke="black" points="125.5,-68.63 122,-58.63 118.5,-68.63 125.5,-68.63"/>
</g>
</g>
</svg>
