<?xml version="1.0" encoding="UTF-8" standalone="no"?>
<!DOCTYPE svg PUBLIC "-//W3C//DTD SVG 1.1//EN"
 "http://www.w3.org/Graphics/SVG/1.1/DTD/svg11.dtd">
<!-- Generated by graphviz version 2.43.0 (0)
 -->
<!-- Title: LiquidityExtract Pages: 1 -->
<svg width="2591pt" height="1300pt"
 viewBox="0.00 0.00 2591.00 1299.50" xmlns="http://www.w3.org/2000/svg" xmlns:xlink="http://www.w3.org/1999/xlink">
<g id="graph0" class="graph" transform="scale(1 1) rotate(0) translate(4 1295.5)">
<title>LiquidityExtract</title>
<polygon fill="white" stroke="transparent" points="-4,4 -4,-1295.5 2587,-1295.5 2587,4 -4,4"/>
<g id="clust1" class="cluster">
<title>cluster_LiquidityExtract</title>
<polygon fill="#ffffc3" stroke="black" points="8,-26.16 8,-1265.34 2575,-1265.34 2575,-26.16 8,-26.16"/>
<text text-anchor="middle" x="75" y="-1250.14" font-family="Times,serif" font-size="14.00">LiquidityExtract</text>
</g>
<!-- LiquidityExtract_liquidity_extraction_specialize -->
<g id="node1" class="node">
<title>LiquidityExtract_liquidity_extraction_specialize</title>
<g id="a_node1"><a xlink:href="LiquidityExtract.html#liquidity_extraction_specialize" xlink:title="liquidity_extraction_specialize">
<ellipse fill="#7fffd4" stroke="black" cx="2030" cy="-1079.16" rx="150.58" ry="18"/>
<ellipse fill="none" stroke="black" cx="2030" cy="-1079.16" rx="154.58" ry="22"/>
<ellipse fill="none" stroke="black" cx="2030" cy="-1079.16" rx="158.57" ry="26"/>
<text text-anchor="middle" x="2030" y="-1075.46" font-family="Times,serif" font-size="14.00">liquidity_extraction_specialize</text>
</a>
</g>
</g>
<!-- LiquidityExtract_liquidity_extraction_ -->
<g id="node7" class="node">
<title>LiquidityExtract_liquidity_extraction_</title>
<g id="a_node7"><a xlink:href="LiquidityExtract.html#liquidity_extraction_" xlink:title="liquidity_extraction_">
<ellipse fill="#7fffd4" stroke="black" cx="1338" cy="-817.16" rx="105.08" ry="18"/>
<text text-anchor="middle" x="1338" y="-813.46" font-family="Times,serif" font-size="14.00">liquidity_extraction_</text>
</a>
</g>
</g>
<!-- LiquidityExtract_liquidity_extraction_specialize&#45;&gt;LiquidityExtract_liquidity_extraction_ -->
<g id="edge1" class="edge">
<title>LiquidityExtract_liquidity_extraction_specialize&#45;&gt;LiquidityExtract_liquidity_extraction_</title>
<path fill="none" stroke="black" d="M1968.59,-1055.08C1833.81,-1004.44 1514.17,-884.35 1389.27,-837.42"/>
<polygon fill="black" stroke="black" points="1390.15,-834.01 1379.56,-833.77 1387.69,-840.56 1390.15,-834.01"/>
</g>
<!-- LiquidityExtract_printLiquidityDefs_specialize -->
<g id="node15" class="node">
<title>LiquidityExtract_printLiquidityDefs_specialize</title>
<g id="a_node15"><a xlink:href="LiquidityExtract.html#printLiquidityDefs_specialize" xlink:title="printLiquidityDefs_specialize">
<ellipse fill="#7fffd4" stroke="black" cx="2057" cy="-817.16" rx="145.67" ry="18"/>
<text text-anchor="middle" x="2057" y="-813.46" font-family="Times,serif" font-size="14.00">printLiquidityDefs_specialize</text>
</a>
</g>
</g>
<!-- LiquidityExtract_liquidity_extraction_specialize&#45;&gt;LiquidityExtract_printLiquidityDefs_specialize -->
<g id="edge2" class="edge">
<title>LiquidityExtract_liquidity_extraction_specialize&#45;&gt;LiquidityExtract_printLiquidityDefs_specialize</title>
<path fill="none" stroke="black" d="M2032.64,-1052.75C2037.74,-1003.59 2048.93,-895.83 2054.18,-845.31"/>
<polygon fill="black" stroke="black" points="2057.68,-845.47 2055.23,-835.16 2050.72,-844.74 2057.68,-845.47"/>
</g>
<!-- LiquidityExtract_liquidity_extraction -->
<g id="node2" class="node">
<title>LiquidityExtract_liquidity_extraction</title>
<g id="a_node2"><a xlink:href="LiquidityExtract.html#liquidity_extraction" xlink:title="liquidity_extraction">
<ellipse fill="#7fffd4" stroke="black" cx="2345" cy="-1079.16" rx="100.96" ry="18"/>
<ellipse fill="none" stroke="black" cx="2345" cy="-1079.16" rx="104.97" ry="22"/>
<ellipse fill="none" stroke="black" cx="2345" cy="-1079.16" rx="108.98" ry="26"/>
<text text-anchor="middle" x="2345" y="-1075.46" font-family="Times,serif" font-size="14.00">liquidity_extraction</text>
</a>
</g>
</g>
<!-- LiquidityExtract_liquidity_extraction&#45;&gt;LiquidityExtract_liquidity_extraction_ -->
<g id="edge3" class="edge">
<title>LiquidityExtract_liquidity_extraction&#45;&gt;LiquidityExtract_liquidity_extraction_</title>
<path fill="none" stroke="black" d="M2272.98,-1059.56C2085.33,-1011.11 1583.43,-881.53 1403.4,-835.04"/>
<polygon fill="black" stroke="black" points="1404.1,-831.61 1393.54,-832.5 1402.35,-838.39 1404.1,-831.61"/>
</g>
<!-- LiquidityExtract_printLiquidityDefs -->
<g id="node16" class="node">
<title>LiquidityExtract_printLiquidityDefs</title>
<g id="a_node16"><a xlink:href="LiquidityExtract.html#printLiquidityDefs" xlink:title="printLiquidityDefs">
<ellipse fill="#7fffd4" stroke="black" cx="2360" cy="-817.16" rx="96.38" ry="18"/>
<text text-anchor="middle" x="2360" y="-813.46" font-family="Times,serif" font-size="14.00">printLiquidityDefs</text>
</a>
</g>
</g>
<!-- LiquidityExtract_liquidity_extraction&#45;&gt;LiquidityExtract_printLiquidityDefs -->
<g id="edge4" class="edge">
<title>LiquidityExtract_liquidity_extraction&#45;&gt;LiquidityExtract_printLiquidityDefs</title>
<path fill="none" stroke="black" d="M2346.47,-1052.75C2349.3,-1003.59 2355.52,-895.83 2358.43,-845.31"/>
<polygon fill="black" stroke="black" points="2361.94,-845.34 2359.02,-835.16 2354.95,-844.94 2361.94,-845.34"/>
</g>
<!-- LiquidityExtract_liquidity_prepare_extraction -->
<g id="node3" class="node">
<title>LiquidityExtract_liquidity_prepare_extraction</title>
<g id="a_node3"><a xlink:href="LiquidityExtract.html#liquidity_prepare_extraction" xlink:title="liquidity_prepare_extraction">
<ellipse fill="#7fffd4" stroke="black" cx="1689" cy="-1079.16" rx="141.87" ry="18"/>
<ellipse fill="none" stroke="black" cx="1689" cy="-1079.16" rx="145.87" ry="22"/>
<ellipse fill="none" stroke="black" cx="1689" cy="-1079.16" rx="149.88" ry="26"/>
<text text-anchor="middle" x="1689" y="-1075.46" font-family="Times,serif" font-size="14.00">liquidity_prepare_extraction</text>
</a>
</g>
</g>
<!-- LiquidityExtract_quote_and_preprocess -->
<g id="node4" class="node">
<title>LiquidityExtract_quote_and_preprocess</title>
<g id="a_node4"><a xlink:href="LiquidityExtract.html#quote_and_preprocess" xlink:title="quote_and_preprocess">
<ellipse fill="#7fffd4" stroke="black" cx="1689" cy="-817.16" rx="114.28" ry="18"/>
<text text-anchor="middle" x="1689" y="-813.46" font-family="Times,serif" font-size="14.00">quote_and_preprocess</text>
</a>
</g>
</g>
<!-- LiquidityExtract_liquidity_prepare_extraction&#45;&gt;LiquidityExtract_quote_and_preprocess -->
<g id="edge5" class="edge">
<title>LiquidityExtract_liquidity_prepare_extraction&#45;&gt;LiquidityExtract_quote_and_preprocess</title>
<path fill="none" stroke="black" d="M1689,-1052.75C1689,-1003.59 1689,-895.83 1689,-845.31"/>
<polygon fill="black" stroke="black" points="1692.5,-845.16 1689,-835.16 1685.5,-845.16 1692.5,-845.16"/>
</g>
<!-- LiquidityExtract_wrap_in_delimiters -->
<g id="node9" class="node">
<title>LiquidityExtract_wrap_in_delimiters</title>
<g id="a_node9"><a xlink:href="LiquidityExtract.html#wrap_in_delimiters" xlink:title="wrap_in_delimiters">
<ellipse fill="#f070d1" stroke="black" cx="932" cy="-582.16" rx="98.58" ry="18"/>
<text text-anchor="middle" x="932" y="-578.46" font-family="Times,serif" font-size="14.00">wrap_in_delimiters</text>
</a>
</g>
</g>
<!-- LiquidityExtract_liquidity_prepare_extraction&#45;&gt;LiquidityExtract_wrap_in_delimiters -->
<g id="edge6" class="edge">
<title>LiquidityExtract_liquidity_prepare_extraction&#45;&gt;LiquidityExtract_wrap_in_delimiters</title>
<path fill="none" stroke="black" d="M1615.23,-1056.47C1512.04,-1023.08 1323.42,-950.58 1200,-835.16 1186.47,-822.5 1190.79,-813.44 1179,-799.16 1112.32,-718.39 1014.01,-642.22 963.9,-605.7"/>
<polygon fill="black" stroke="black" points="965.86,-602.8 955.7,-599.77 961.75,-608.47 965.86,-602.8"/>
</g>
<!-- LiquidityExtract_liquidity_call_ctx -->
<g id="node12" class="node">
<title>LiquidityExtract_liquidity_call_ctx</title>
<g id="a_node12"><a xlink:href="LiquidityExtract.html#liquidity_call_ctx" xlink:title="liquidity_call_ctx">
<ellipse fill="#f070d1" stroke="black" cx="1137" cy="-582.16" rx="88.28" ry="18"/>
<text text-anchor="middle" x="1137" y="-578.46" font-family="Times,serif" font-size="14.00">liquidity_call_ctx</text>
</a>
</g>
</g>
<!-- LiquidityExtract_liquidity_prepare_extraction&#45;&gt;LiquidityExtract_liquidity_call_ctx -->
<g id="edge7" class="edge">
<title>LiquidityExtract_liquidity_prepare_extraction&#45;&gt;LiquidityExtract_liquidity_call_ctx</title>
<path fill="none" stroke="black" d="M1610.48,-1056.99C1507.62,-1025.35 1328.15,-956.13 1224,-835.16 1194.01,-800.32 1158.18,-667.83 1143.63,-610.2"/>
<polygon fill="black" stroke="black" points="1146.99,-609.2 1141.17,-600.35 1140.2,-610.9 1146.99,-609.2"/>
</g>
<!-- LiquidityExtract_TT_remap_default -->
<g id="node13" class="node">
<title>LiquidityExtract_TT_remap_default</title>
<g id="a_node13"><a xlink:href="LiquidityExtract.html#TT_remap_default" xlink:title="TT_remap_default">
<ellipse fill="#f070d1" stroke="black" cx="1338" cy="-582.16" rx="94.48" ry="18"/>
<text text-anchor="middle" x="1338" y="-578.46" font-family="Times,serif" font-size="14.00">TT_remap_default</text>
</a>
</g>
</g>
<!-- LiquidityExtract_liquidity_prepare_extraction&#45;&gt;LiquidityExtract_TT_remap_default -->
<g id="edge8" class="edge">
<title>LiquidityExtract_liquidity_prepare_extraction&#45;&gt;LiquidityExtract_TT_remap_default</title>
<path fill="none" stroke="black" d="M1671.35,-1053.27C1611.47,-968.82 1416.4,-693.71 1355.99,-608.53"/>
<polygon fill="black" stroke="black" points="1358.74,-606.35 1350.1,-600.22 1353.03,-610.4 1358.74,-606.35"/>
</g>
<!-- LiquidityExtract_liquidity_ignore_default -->
<g id="node14" class="node">
<title>LiquidityExtract_liquidity_ignore_default</title>
<g id="a_node14"><a xlink:href="LiquidityExtract.html#liquidity_ignore_default" xlink:title="liquidity_ignore_default">
<ellipse fill="#f070d1" stroke="black" cx="505" cy="-582.16" rx="120.48" ry="18"/>
<text text-anchor="middle" x="505" y="-578.46" font-family="Times,serif" font-size="14.00">liquidity_ignore_default</text>
</a>
</g>
</g>
<!-- LiquidityExtract_liquidity_prepare_extraction&#45;&gt;LiquidityExtract_liquidity_ignore_default -->
<g id="edge9" class="edge">
<title>LiquidityExtract_liquidity_prepare_extraction&#45;&gt;LiquidityExtract_liquidity_ignore_default</title>
<path fill="none" stroke="black" d="M1605.34,-1057.52C1492.37,-1026.04 1290.11,-956.52 1159,-835.16 1145.57,-822.72 1153.05,-810.89 1139,-799.16 1050.79,-725.45 720.69,-636.76 574.93,-600.19"/>
<polygon fill="black" stroke="black" points="575.73,-596.78 565.18,-597.75 574.03,-603.57 575.73,-596.78"/>
</g>
<!-- LiquidityExtract_liquidity_prepare_extraction&#45;&gt;LiquidityExtract_printLiquidityDefs_specialize -->
<g id="edge10" class="edge">
<title>LiquidityExtract_liquidity_prepare_extraction&#45;&gt;LiquidityExtract_printLiquidityDefs_specialize</title>
<path fill="none" stroke="black" d="M1723.62,-1053.7C1794.66,-1003.51 1955.98,-889.53 2024.86,-840.86"/>
<polygon fill="black" stroke="black" points="2027.03,-843.62 2033.18,-834.99 2022.99,-837.9 2027.03,-843.62"/>
</g>
<!-- LiquidityExtract_lmd_entry_point -->
<g id="node24" class="node">
<title>LiquidityExtract_lmd_entry_point</title>
<g id="a_node24"><a xlink:href="LiquidityExtract.html#lmd_entry_point" xlink:title="lmd_entry_point">
<ellipse fill="#f070d1" stroke="black" cx="729" cy="-582.16" rx="85.59" ry="18"/>
<text text-anchor="middle" x="729" y="-578.46" font-family="Times,serif" font-size="14.00">lmd_entry_point</text>
</a>
</g>
</g>
<!-- LiquidityExtract_liquidity_prepare_extraction&#45;&gt;LiquidityExtract_lmd_entry_point -->
<g id="edge11" class="edge">
<title>LiquidityExtract_liquidity_prepare_extraction&#45;&gt;LiquidityExtract_lmd_entry_point</title>
<path fill="none" stroke="black" d="M1609.42,-1056.97C1500.89,-1024.68 1305.53,-954.02 1179,-835.16 1165.66,-822.62 1172.21,-811.83 1159,-799.16 1048.74,-693.39 876.55,-628.5 787.2,-600.06"/>
<polygon fill="black" stroke="black" points="788.09,-596.68 777.5,-597.02 786,-603.36 788.09,-596.68"/>
</g>
<!-- LiquidityExtract_lmd_init_prelude -->
<g id="node26" class="node">
<title>LiquidityExtract_lmd_init_prelude</title>
<g id="a_node26"><a xlink:href="LiquidityExtract.html#lmd_init_prelude" xlink:title="lmd_init_prelude">
<ellipse fill="#f070d1" stroke="black" cx="124" cy="-582.16" rx="88.28" ry="18"/>
<text text-anchor="middle" x="124" y="-578.46" font-family="Times,serif" font-size="14.00">lmd_init_prelude</text>
</a>
</g>
</g>
<!-- LiquidityExtract_liquidity_prepare_extraction&#45;&gt;LiquidityExtract_lmd_init_prelude -->
<g id="edge12" class="edge">
<title>LiquidityExtract_liquidity_prepare_extraction&#45;&gt;LiquidityExtract_lmd_init_prelude</title>
<path fill="none" stroke="black" d="M1589.16,-1059.7C1463.98,-1031.72 1249.96,-967.2 1119,-835.16 1106.79,-822.85 1117.3,-810.28 1104,-799.16 1068.46,-769.44 415.27,-639.96 195.48,-597.04"/>
<polygon fill="black" stroke="black" points="196.14,-593.6 185.66,-595.12 194.8,-600.47 196.14,-593.6"/>
</g>
<!-- LiquidityExtract_lmd_prelude -->
<g id="node28" class="node">
<title>LiquidityExtract_lmd_prelude</title>
<g id="a_node28"><a xlink:href="LiquidityExtract.html#lmd_prelude" xlink:title="lmd_prelude">
<ellipse fill="#f070d1" stroke="black" cx="299" cy="-582.16" rx="68.49" ry="18"/>
<text text-anchor="middle" x="299" y="-578.46" font-family="Times,serif" font-size="14.00">lmd_prelude</text>
</a>
</g>
</g>
<!-- LiquidityExtract_liquidity_prepare_extraction&#45;&gt;LiquidityExtract_lmd_prelude -->
<g id="edge13" class="edge">
<title>LiquidityExtract_liquidity_prepare_extraction&#45;&gt;LiquidityExtract_lmd_prelude</title>
<path fill="none" stroke="black" d="M1601.19,-1058.09C1483.77,-1027.43 1274.69,-959.02 1139,-835.16 1125.48,-822.82 1133.45,-810.39 1119,-799.16 1088.02,-775.08 539.81,-641.27 357.45,-597.22"/>
<polygon fill="black" stroke="black" points="358.05,-593.76 347.51,-594.82 356.41,-600.57 358.05,-593.76"/>
</g>
<!-- LiquidityExtract_lmd_module_name -->
<g id="node29" class="node">
<title>LiquidityExtract_lmd_module_name</title>
<g id="a_node29"><a xlink:href="LiquidityExtract.html#lmd_module_name" xlink:title="lmd_module_name">
<ellipse fill="#f070d1" stroke="black" cx="998" cy="-817.16" rx="96.68" ry="18"/>
<text text-anchor="middle" x="998" y="-813.46" font-family="Times,serif" font-size="14.00">lmd_module_name</text>
</a>
</g>
</g>
<!-- LiquidityExtract_liquidity_prepare_extraction&#45;&gt;LiquidityExtract_lmd_module_name -->
<g id="edge14" class="edge">
<title>LiquidityExtract_liquidity_prepare_extraction&#45;&gt;LiquidityExtract_lmd_module_name</title>
<path fill="none" stroke="black" d="M1628.28,-1055.31C1493.77,-1004.7 1172.77,-883.92 1048.42,-837.13"/>
<polygon fill="black" stroke="black" points="1049.35,-833.74 1038.76,-833.49 1046.88,-840.29 1049.35,-833.74"/>
</g>
<!-- LiquidityExtract_is_empty -->
<g id="node5" class="node">
<title>LiquidityExtract_is_empty</title>
<g id="a_node5"><a xlink:href="LiquidityExtract.html#is_empty" xlink:title="is_empty">
<ellipse fill="#f070d1" stroke="black" cx="1984" cy="-582.16" rx="51.99" ry="18"/>
<text text-anchor="middle" x="1984" y="-578.46" font-family="Times,serif" font-size="14.00">is_empty</text>
</a>
</g>
</g>
<!-- LiquidityExtract_quote_and_preprocess&#45;&gt;LiquidityExtract_is_empty -->
<g id="edge15" class="edge">
<title>LiquidityExtract_quote_and_preprocess&#45;&gt;LiquidityExtract_is_empty</title>
<path fill="none" stroke="black" d="M1710.22,-799.4C1762.47,-758.13 1897.39,-651.56 1956.06,-605.22"/>
<polygon fill="black" stroke="black" points="1958.47,-607.78 1964.15,-598.84 1954.13,-602.29 1958.47,-607.78"/>
</g>
<!-- LiquidityExtract_WITH_UNIVERSES -->
<g id="node8" class="node">
<title>LiquidityExtract_WITH_UNIVERSES</title>
<g id="a_node8"><a xlink:href="LiquidityExtract.html#WITH_UNIVERSES" xlink:title="WITH_UNIVERSES">
<ellipse fill="#f070d1" stroke="black" cx="1664" cy="-582.16" rx="100.18" ry="18"/>
<text text-anchor="middle" x="1664" y="-578.46" font-family="Times,serif" font-size="14.00">WITH_UNIVERSES</text>
</a>
</g>
</g>
<!-- LiquidityExtract_quote_and_preprocess&#45;&gt;LiquidityExtract_WITH_UNIVERSES -->
<g id="edge16" class="edge">
<title>LiquidityExtract_quote_and_preprocess&#45;&gt;LiquidityExtract_WITH_UNIVERSES</title>
<path fill="none" stroke="black" d="M1687.16,-799.02C1682.86,-758.96 1672.13,-658.91 1666.92,-610.39"/>
<polygon fill="black" stroke="black" points="1670.39,-609.88 1665.84,-600.32 1663.43,-610.63 1670.39,-609.88"/>
</g>
<!-- LiquidityExtract_lmd_receive -->
<g id="node25" class="node">
<title>LiquidityExtract_lmd_receive</title>
<g id="a_node25"><a xlink:href="LiquidityExtract.html#lmd_receive" xlink:title="lmd_receive">
<ellipse fill="#f070d1" stroke="black" cx="1848" cy="-582.16" rx="66.09" ry="18"/>
<text text-anchor="middle" x="1848" y="-578.46" font-family="Times,serif" font-size="14.00">lmd_receive</text>
</a>
</g>
</g>
<!-- LiquidityExtract_quote_and_preprocess&#45;&gt;LiquidityExtract_lmd_receive -->
<g id="edge17" class="edge">
<title>LiquidityExtract_quote_and_preprocess&#45;&gt;LiquidityExtract_lmd_receive</title>
<path fill="none" stroke="black" d="M1700.69,-799.02C1728.38,-758.45 1798.08,-656.3 1830.69,-608.53"/>
<polygon fill="black" stroke="black" points="1833.76,-610.23 1836.51,-600 1827.98,-606.29 1833.76,-610.23"/>
</g>
<!-- LiquidityExtract_lmd_init -->
<g id="node27" class="node">
<title>LiquidityExtract_lmd_init</title>
<g id="a_node27"><a xlink:href="LiquidityExtract.html#lmd_init" xlink:title="lmd_init">
<ellipse fill="#f070d1" stroke="black" cx="1498" cy="-582.16" rx="48.19" ry="18"/>
<text text-anchor="middle" x="1498" y="-578.46" font-family="Times,serif" font-size="14.00">lmd_init</text>
</a>
</g>
</g>
<!-- LiquidityExtract_quote_and_preprocess&#45;&gt;LiquidityExtract_lmd_init -->
<g id="edge18" class="edge">
<title>LiquidityExtract_quote_and_preprocess&#45;&gt;LiquidityExtract_lmd_init</title>
<path fill="none" stroke="black" d="M1674.96,-799.02C1641.47,-758.18 1556.85,-654.95 1518.03,-607.59"/>
<polygon fill="black" stroke="black" points="1520.6,-605.2 1511.55,-599.69 1515.18,-609.64 1520.6,-605.2"/>
</g>
<!-- LiquidityExtract_unwrap_string_sum -->
<g id="node6" class="node">
<title>LiquidityExtract_unwrap_string_sum</title>
<g id="a_node6"><a xlink:href="LiquidityExtract.html#unwrap_string_sum" xlink:title="unwrap_string_sum">
<ellipse fill="#f070d1" stroke="black" cx="1411" cy="-1079.16" rx="102.08" ry="18"/>
<ellipse fill="none" stroke="black" cx="1411" cy="-1079.16" rx="106.08" ry="22"/>
<ellipse fill="none" stroke="black" cx="1411" cy="-1079.16" rx="110.08" ry="26"/>
<text text-anchor="middle" x="1411" y="-1075.46" font-family="Times,serif" font-size="14.00">unwrap_string_sum</text>
</a>
</g>
</g>
<!-- LiquidityExtract_liquidity_extraction_&#45;&gt;LiquidityExtract_WITH_UNIVERSES -->
<g id="edge19" class="edge">
<title>LiquidityExtract_liquidity_extraction_&#45;&gt;LiquidityExtract_WITH_UNIVERSES</title>
<path fill="none" stroke="black" d="M1361.18,-799.59C1418.54,-758.59 1567.15,-652.38 1632.44,-605.71"/>
<polygon fill="black" stroke="black" points="1634.62,-608.46 1640.72,-599.8 1630.55,-602.77 1634.62,-608.46"/>
</g>
<!-- LiquidityExtract_liquidity_extraction_&#45;&gt;LiquidityExtract_wrap_in_delimiters -->
<g id="edge20" class="edge">
<title>LiquidityExtract_liquidity_extraction_&#45;&gt;LiquidityExtract_wrap_in_delimiters</title>
<path fill="none" stroke="black" d="M1309.45,-799.77C1237.67,-758.58 1049.69,-650.7 969.32,-604.57"/>
<polygon fill="black" stroke="black" points="970.93,-601.46 960.52,-599.52 967.45,-607.54 970.93,-601.46"/>
</g>
<!-- LiquidityExtract_liquidity_extraction_&#45;&gt;LiquidityExtract_liquidity_call_ctx -->
<g id="edge21" class="edge">
<title>LiquidityExtract_liquidity_extraction_&#45;&gt;LiquidityExtract_liquidity_call_ctx</title>
<path fill="none" stroke="black" d="M1323.22,-799.02C1288,-758.19 1199,-655.03 1158.12,-607.64"/>
<polygon fill="black" stroke="black" points="1160.71,-605.29 1151.53,-600 1155.41,-609.86 1160.71,-605.29"/>
</g>
<!-- LiquidityExtract_liquidity_extraction_&#45;&gt;LiquidityExtract_TT_remap_default -->
<g id="edge22" class="edge">
<title>LiquidityExtract_liquidity_extraction_&#45;&gt;LiquidityExtract_TT_remap_default</title>
<path fill="none" stroke="black" d="M1338,-799.02C1338,-758.96 1338,-658.91 1338,-610.39"/>
<polygon fill="black" stroke="black" points="1341.5,-610.32 1338,-600.32 1334.5,-610.32 1341.5,-610.32"/>
</g>
<!-- LiquidityExtract_liquidity_extraction_&#45;&gt;LiquidityExtract_liquidity_ignore_default -->
<g id="edge23" class="edge">
<title>LiquidityExtract_liquidity_extraction_&#45;&gt;LiquidityExtract_liquidity_ignore_default</title>
<path fill="none" stroke="black" d="M1285.58,-801.49C1139.45,-760.62 727.88,-645.5 568.84,-601.01"/>
<polygon fill="black" stroke="black" points="569.76,-597.64 559.19,-598.31 567.87,-604.38 569.76,-597.64"/>
</g>
<!-- LiquidityExtract_liquidity_extraction_&#45;&gt;LiquidityExtract_lmd_entry_point -->
<g id="edge24" class="edge">
<title>LiquidityExtract_liquidity_extraction_&#45;&gt;LiquidityExtract_lmd_entry_point</title>
<path fill="none" stroke="black" d="M1297.1,-800.51C1188.8,-759.07 894.92,-646.64 777.97,-601.89"/>
<polygon fill="black" stroke="black" points="779.13,-598.59 768.54,-598.28 776.62,-605.13 779.13,-598.59"/>
</g>
<!-- LiquidityExtract_liquidity_extraction_&#45;&gt;LiquidityExtract_lmd_receive -->
<g id="edge25" class="edge">
<title>LiquidityExtract_liquidity_extraction_&#45;&gt;LiquidityExtract_lmd_receive</title>
<path fill="none" stroke="black" d="M1373.05,-800.14C1464.2,-758.5 1708.34,-646.96 1806.39,-602.17"/>
<polygon fill="black" stroke="black" points="1808.05,-605.26 1815.69,-597.92 1805.14,-598.89 1808.05,-605.26"/>
</g>
<!-- LiquidityExtract_liquidity_extraction_&#45;&gt;LiquidityExtract_lmd_init_prelude -->
<g id="edge26" class="edge">
<title>LiquidityExtract_liquidity_extraction_&#45;&gt;LiquidityExtract_lmd_init_prelude</title>
<path fill="none" stroke="black" d="M1270.57,-803.21C1059.56,-762.72 413.09,-638.64 195.97,-596.97"/>
<polygon fill="black" stroke="black" points="196.44,-593.5 185.96,-595.05 195.12,-600.37 196.44,-593.5"/>
</g>
<!-- LiquidityExtract_liquidity_extraction_&#45;&gt;LiquidityExtract_lmd_init -->
<g id="edge27" class="edge">
<title>LiquidityExtract_liquidity_extraction_&#45;&gt;LiquidityExtract_lmd_init</title>
<path fill="none" stroke="black" d="M1349.77,-799.02C1377.7,-758.35 1448.11,-655.81 1480.82,-608.18"/>
<polygon fill="black" stroke="black" points="1483.87,-609.91 1486.65,-599.69 1478.1,-605.95 1483.87,-609.91"/>
</g>
<!-- LiquidityExtract_liquidity_extraction_&#45;&gt;LiquidityExtract_lmd_prelude -->
<g id="edge28" class="edge">
<title>LiquidityExtract_liquidity_extraction_&#45;&gt;LiquidityExtract_lmd_prelude</title>
<path fill="none" stroke="black" d="M1276.88,-802.45C1092.35,-761.07 542.26,-637.71 359.09,-596.63"/>
<polygon fill="black" stroke="black" points="359.62,-593.16 349.1,-594.39 358.09,-600 359.62,-593.16"/>
</g>
<!-- LiquidityExtract_liquidity_extract_single -->
<g id="node10" class="node">
<title>LiquidityExtract_liquidity_extract_single</title>
<g id="a_node10"><a xlink:href="LiquidityExtract.html#liquidity_extract_single" xlink:title="liquidity_extract_single">
<ellipse fill="#f070d1" stroke="black" cx="1156" cy="-1079.16" rx="118.88" ry="18"/>
<ellipse fill="none" stroke="black" cx="1156" cy="-1079.16" rx="122.88" ry="22"/>
<ellipse fill="none" stroke="black" cx="1156" cy="-1079.16" rx="126.88" ry="26"/>
<text text-anchor="middle" x="1156" y="-1075.46" font-family="Times,serif" font-size="14.00">liquidity_extract_single</text>
</a>
</g>
</g>
<!-- LiquidityExtract_liquidity_extract_args -->
<g id="node11" class="node">
<title>LiquidityExtract_liquidity_extract_args</title>
<g id="a_node11"><a xlink:href="LiquidityExtract.html#liquidity_extract_args" xlink:title="liquidity_extract_args">
<ellipse fill="#f070d1" stroke="black" cx="771" cy="-817.16" rx="111.58" ry="18"/>
<text text-anchor="middle" x="771" y="-813.46" font-family="Times,serif" font-size="14.00">liquidity_extract_args</text>
</a>
</g>
</g>
<!-- LiquidityExtract_liquidity_extract_single&#45;&gt;LiquidityExtract_liquidity_extract_args -->
<g id="edge29" class="edge">
<title>LiquidityExtract_liquidity_extract_single&#45;&gt;LiquidityExtract_liquidity_extract_args</title>
<path fill="none" stroke="black" d="M1120.47,-1054.16C1046.39,-1004.13 876.32,-889.28 804.25,-840.61"/>
<polygon fill="black" stroke="black" points="805.8,-837.44 795.56,-834.74 801.89,-843.24 805.8,-837.44"/>
</g>
<!-- LiquidityExtract_printLiquidityDefs_ -->
<g id="node17" class="node">
<title>LiquidityExtract_printLiquidityDefs_</title>
<g id="a_node17"><a xlink:href="LiquidityExtract.html#printLiquidityDefs_" xlink:title="printLiquidityDefs_">
<ellipse fill="#7fffd4" stroke="black" cx="2360" cy="-582.16" rx="100.98" ry="18"/>
<text text-anchor="middle" x="2360" y="-578.46" font-family="Times,serif" font-size="14.00">printLiquidityDefs_</text>
</a>
</g>
</g>
<!-- LiquidityExtract_printLiquidityDefs_specialize&#45;&gt;LiquidityExtract_printLiquidityDefs_ -->
<g id="edge30" class="edge">
<title>LiquidityExtract_printLiquidityDefs_specialize&#45;&gt;LiquidityExtract_printLiquidityDefs_</title>
<path fill="none" stroke="black" d="M2079.28,-799.02C2132.93,-757.77 2269.32,-652.89 2330.05,-606.19"/>
<polygon fill="black" stroke="black" points="2332.3,-608.87 2338.1,-600 2328.03,-603.32 2332.3,-608.87"/>
</g>
<!-- LiquidityExtract_extract_specialize -->
<g id="node18" class="node">
<title>LiquidityExtract_extract_specialize</title>
<g id="a_node18"><a xlink:href="LiquidityExtract.html#extract_specialize" xlink:title="extract_specialize">
<ellipse fill="#7fffd4" stroke="black" cx="2148" cy="-582.16" rx="93.68" ry="18"/>
<text text-anchor="middle" x="2148" y="-578.46" font-family="Times,serif" font-size="14.00">extract_specialize</text>
</a>
</g>
</g>
<!-- LiquidityExtract_printLiquidityDefs_specialize&#45;&gt;LiquidityExtract_extract_specialize -->
<g id="edge31" class="edge">
<title>LiquidityExtract_printLiquidityDefs_specialize&#45;&gt;LiquidityExtract_extract_specialize</title>
<path fill="none" stroke="black" d="M2063.69,-799.02C2079.4,-758.8 2118.74,-658.07 2137.6,-609.78"/>
<polygon fill="black" stroke="black" points="2140.92,-610.9 2141.3,-600.32 2134.4,-608.36 2140.92,-610.9"/>
</g>
<!-- LiquidityExtract_printLiquidityDefs&#45;&gt;LiquidityExtract_printLiquidityDefs_ -->
<g id="edge32" class="edge">
<title>LiquidityExtract_printLiquidityDefs&#45;&gt;LiquidityExtract_printLiquidityDefs_</title>
<path fill="none" stroke="black" d="M2360,-799.02C2360,-758.96 2360,-658.91 2360,-610.39"/>
<polygon fill="black" stroke="black" points="2363.5,-610.32 2360,-600.32 2356.5,-610.32 2363.5,-610.32"/>
</g>
<!-- LiquidityExtract_extract -->
<g id="node19" class="node">
<title>LiquidityExtract_extract</title>
<g id="a_node19"><a xlink:href="LiquidityExtract.html#extract" xlink:title="extract">
<ellipse fill="#7fffd4" stroke="black" cx="2523" cy="-582.16" rx="44.39" ry="18"/>
<text text-anchor="middle" x="2523" y="-578.46" font-family="Times,serif" font-size="14.00">extract</text>
</a>
</g>
</g>
<!-- LiquidityExtract_printLiquidityDefs&#45;&gt;LiquidityExtract_extract -->
<g id="edge33" class="edge">
<title>LiquidityExtract_printLiquidityDefs&#45;&gt;LiquidityExtract_extract</title>
<path fill="none" stroke="black" d="M2371.99,-799.02C2400.5,-758.26 2472.48,-655.38 2505.7,-607.89"/>
<polygon fill="black" stroke="black" points="2508.57,-609.89 2511.43,-599.69 2502.83,-605.88 2508.57,-609.89"/>
</g>
<!-- LiquidityExtract_extract_liquidity_within_coq -->
<g id="node20" class="node">
<title>LiquidityExtract_extract_liquidity_within_coq</title>
<g id="a_node20"><a xlink:href="LiquidityExtract.html#extract_liquidity_within_coq" xlink:title="extract_liquidity_within_coq">
<ellipse fill="#f070d1" stroke="black" cx="2287" cy="-346.16" rx="141.07" ry="18"/>
<text text-anchor="middle" x="2287" y="-342.46" font-family="Times,serif" font-size="14.00">extract_liquidity_within_coq</text>
</a>
</g>
</g>
<!-- LiquidityExtract_extract_specialize&#45;&gt;LiquidityExtract_extract_liquidity_within_coq -->
<g id="edge34" class="edge">
<title>LiquidityExtract_extract_specialize&#45;&gt;LiquidityExtract_extract_liquidity_within_coq</title>
<path fill="none" stroke="black" d="M2158.22,-563.95C2182.37,-523.3 2243.07,-421.12 2271.66,-372.99"/>
<polygon fill="black" stroke="black" points="2274.67,-374.77 2276.76,-364.39 2268.65,-371.2 2274.67,-374.77"/>
</g>
<!-- LiquidityExtract_extract&#45;&gt;LiquidityExtract_extract_liquidity_within_coq -->
<g id="edge35" class="edge">
<title>LiquidityExtract_extract&#45;&gt;LiquidityExtract_extract_liquidity_within_coq</title>
<path fill="none" stroke="black" d="M2506.78,-565.07C2466.15,-524.79 2359.83,-419.37 2311.52,-371.47"/>
<polygon fill="black" stroke="black" points="2313.85,-368.85 2304.29,-364.3 2308.92,-373.82 2313.85,-368.85"/>
</g>
<!-- LiquidityExtract_overridden_masks -->
<g id="node23" class="node">
<title>LiquidityExtract_overridden_masks</title>
<g id="a_node23"><a xlink:href="LiquidityExtract.html#overridden_masks" xlink:title="overridden_masks">
<ellipse fill="#f070d1" stroke="black" cx="2287" cy="-111.16" rx="94.78" ry="18"/>
<text text-anchor="middle" x="2287" y="-107.46" font-family="Times,serif" font-size="14.00">overridden_masks</text>
</a>
</g>
</g>
<!-- LiquidityExtract_extract_liquidity_within_coq&#45;&gt;LiquidityExtract_overridden_masks -->
<g id="edge36" class="edge">
<title>LiquidityExtract_extract_liquidity_within_coq&#45;&gt;LiquidityExtract_overridden_masks</title>
<path fill="none" stroke="black" d="M2287,-328.02C2287,-287.96 2287,-187.91 2287,-139.39"/>
<polygon fill="black" stroke="black" points="2290.5,-139.32 2287,-129.32 2283.5,-139.32 2290.5,-139.32"/>
</g>
<!-- LiquidityExtract_extract_template_env_specialize -->
<g id="node21" class="node">
<title>LiquidityExtract_extract_template_env_specialize</title>
<g id="a_node21"><a xlink:href="LiquidityExtract.html#extract_template_env_specialize" xlink:title="extract_template_env_specialize">
<ellipse fill="#f070d1" stroke="black" cx="843" cy="-1079.16" rx="160.57" ry="18"/>
<ellipse fill="none" stroke="black" cx="843" cy="-1079.16" rx="164.57" ry="22"/>
<ellipse fill="none" stroke="black" cx="843" cy="-1079.16" rx="168.57" ry="26"/>
<text text-anchor="middle" x="843" y="-1075.46" font-family="Times,serif" font-size="14.00">extract_template_env_specialize</text>
</a>
</g>
</g>
<!-- LiquidityExtract_result_string_err -->
<g id="node22" class="node">
<title>LiquidityExtract_result_string_err</title>
<g id="a_node22"><a xlink:href="LiquidityExtract.html#result_string_err" xlink:title="result_string_err">
<ellipse fill="#f070d1" stroke="black" cx="559" cy="-1079.16" rx="89.08" ry="18"/>
<ellipse fill="none" stroke="black" cx="559" cy="-1079.16" rx="93.08" ry="22"/>
<ellipse fill="none" stroke="black" cx="559" cy="-1079.16" rx="97.08" ry="26"/>
<text text-anchor="middle" x="559" y="-1075.46" font-family="Times,serif" font-size="14.00">result_string_err</text>
</a>
</g>
</g>
<!-- LiquidityExtract_LiquidityMod -->
<g id="node31" class="node">
<title>LiquidityExtract_LiquidityMod</title>
<g id="a_node31"><a xlink:href="LiquidityExtract.html#LiquidityMod" xlink:title="LiquidityMod">
<ellipse fill="#e2cdfa" stroke="black" cx="514" cy="-346.16" rx="72.59" ry="18"/>
<text text-anchor="middle" x="514" y="-342.46" font-family="Times,serif" font-size="14.00">LiquidityMod</text>
</a>
</g>
</g>
<!-- LiquidityExtract_lmd_entry_point&#45;&gt;LiquidityExtract_LiquidityMod -->
<g id="edge37" class="edge">
<title>LiquidityExtract_lmd_entry_point&#45;&gt;LiquidityExtract_LiquidityMod</title>
<path fill="none" stroke="black" d="M713.54,-564.33C675.96,-523.43 579.73,-418.7 536.1,-371.21"/>
<polygon fill="black" stroke="black" points="538.67,-368.83 529.32,-363.83 533.51,-373.56 538.67,-368.83"/>
</g>
<!-- LiquidityExtract_lmd_receive&#45;&gt;LiquidityExtract_LiquidityMod -->
<g id="edge38" class="edge">
<title>LiquidityExtract_lmd_receive&#45;&gt;LiquidityExtract_LiquidityMod</title>
<path fill="none" stroke="black" d="M1799.67,-569.81C1790.81,-567.84 1781.64,-565.88 1773,-564.16 1321.84,-474.21 775.29,-387.57 584.08,-357.92"/>
<polygon fill="black" stroke="black" points="584.58,-354.45 574.16,-356.38 583.51,-361.37 584.58,-354.45"/>
</g>
<!-- LiquidityExtract_lmd_init_prelude&#45;&gt;LiquidityExtract_LiquidityMod -->
<g id="edge39" class="edge">
<title>LiquidityExtract_lmd_init_prelude&#45;&gt;LiquidityExtract_LiquidityMod</title>
<path fill="none" stroke="black" d="M151.11,-564.89C220,-523.56 401.73,-414.52 478.72,-368.32"/>
<polygon fill="black" stroke="black" points="480.81,-371.16 487.58,-363.01 477.2,-365.15 480.81,-371.16"/>
</g>
<!-- LiquidityExtract_lmd_init&#45;&gt;LiquidityExtract_LiquidityMod -->
<g id="edge40" class="edge">
<title>LiquidityExtract_lmd_init&#45;&gt;LiquidityExtract_LiquidityMod</title>
<path fill="none" stroke="black" d="M1462.21,-570.13C1455.2,-568.07 1447.89,-565.99 1441,-564.16 1118.36,-478.36 727.77,-392.86 577.3,-360.6"/>
<polygon fill="black" stroke="black" points="577.83,-357.14 567.32,-358.47 576.36,-363.98 577.83,-357.14"/>
</g>
<!-- LiquidityExtract_lmd_prelude&#45;&gt;LiquidityExtract_LiquidityMod -->
<g id="edge41" class="edge">
<title>LiquidityExtract_lmd_prelude&#45;&gt;LiquidityExtract_LiquidityMod</title>
<path fill="none" stroke="black" d="M314.46,-564.33C352.04,-523.43 448.27,-418.7 491.9,-371.21"/>
<polygon fill="black" stroke="black" points="494.49,-373.56 498.68,-363.83 489.33,-368.83 494.49,-373.56"/>
</g>
<!-- LiquidityExtract_lmd_module_name&#45;&gt;LiquidityExtract_LiquidityMod -->
<g id="edge42" class="edge">
<title>LiquidityExtract_lmd_module_name&#45;&gt;LiquidityExtract_LiquidityMod</title>
<path fill="none" stroke="black" d="M932.38,-803.89C718.87,-763.66 55.99,-636.3 27,-600.16 -92.99,-450.55 276.79,-379.8 440.33,-356.39"/>
<polygon fill="black" stroke="black" points="440.91,-359.84 450.32,-354.98 439.93,-352.91 440.91,-359.84"/>
</g>
<!-- LiquidityExtract_Build_LiquidityMod -->
<g id="node30" class="node">
<title>LiquidityExtract_Build_LiquidityMod</title>
<g id="a_node30"><a xlink:href="LiquidityExtract.html#Build_LiquidityMod" xlink:title="Build_LiquidityMod">
<ellipse fill="#7faaff" stroke="black" cx="335" cy="-1079.16" rx="101.29" ry="18"/>
<ellipse fill="none" stroke="black" cx="335" cy="-1079.16" rx="105.29" ry="22"/>
<ellipse fill="none" stroke="black" cx="335" cy="-1079.16" rx="109.28" ry="26"/>
<text text-anchor="middle" x="335" y="-1075.46" font-family="Times,serif" font-size="14.00">Build_LiquidityMod</text>
</a>
</g>
</g>
<!-- LiquidityExtract_to_constant_decl -->
<g id="node32" class="node">
<title>LiquidityExtract_to_constant_decl</title>
<g id="a_node32"><a xlink:href="LiquidityExtract.html#to_constant_decl" xlink:title="to_constant_decl">
<ellipse fill="#7fffd4" stroke="black" cx="112" cy="-1079.16" rx="87.96" ry="18"/>
<ellipse fill="none" stroke="black" cx="112" cy="-1079.16" rx="91.97" ry="22"/>
<ellipse fill="none" stroke="black" cx="112" cy="-1079.16" rx="95.99" ry="26"/>
<text text-anchor="middle" x="112" y="-1075.46" font-family="Times,serif" font-size="14.00">to_constant_decl</text>
</a>
</g>
</g>
</g>
</svg>
