<?xml version="1.0" encoding="UTF-8" standalone="no"?>
<!DOCTYPE svg PUBLIC "-//W3C//DTD SVG 1.1//EN"
 "http://www.w3.org/Graphics/SVG/1.1/DTD/svg11.dtd">
<!-- Generated by graphviz version 2.43.0 (0)
 -->
<!-- Title: iTokenBuggyPrinters Pages: 1 -->
<svg width="466pt" height="237pt"
 viewBox="0.00 0.00 466.00 237.00" xmlns="http://www.w3.org/2000/svg" xmlns:xlink="http://www.w3.org/1999/xlink">
<g id="graph0" class="graph" transform="scale(1 1) rotate(0) translate(4 233)">
<title>iTokenBuggyPrinters</title>
<polygon fill="white" stroke="transparent" points="-4,4 -4,-233 462,-233 462,4 -4,4"/>
<g id="clust1" class="cluster">
<title>cluster_iTokenBuggyPrinters</title>
<polygon fill="#ffffc3" stroke="black" points="8,-10.23 8,-218.77 450,-218.77 450,-10.23 8,-10.23"/>
<text text-anchor="middle" x="91.5" y="-203.57" font-family="Times,serif" font-size="14.00">iTokenBuggyPrinters</text>
</g>
<!-- iTokenBuggyPrinters_showSerializedMsg -->
<g id="node1" class="node">
<title>iTokenBuggyPrinters_showSerializedMsg</title>
<g id="a_node1"><a xlink:href="iTokenBuggyPrinters.html#showSerializedMsg" xlink:title="showSerializedMsg">
<ellipse fill="#f070d1" stroke="black" cx="333" cy="-146.23" rx="100.96" ry="18"/>
<ellipse fill="none" stroke="black" cx="333" cy="-146.23" rx="104.97" ry="22"/>
<ellipse fill="none" stroke="black" cx="333" cy="-146.23" rx="108.98" ry="26"/>
<text text-anchor="middle" x="333" y="-142.53" font-family="Times,serif" font-size="14.00">showSerializedMsg</text>
</a>
</g>
</g>
<!-- iTokenBuggyPrinters_showTokenSetup -->
<g id="node3" class="node">
<title>iTokenBuggyPrinters_showTokenSetup</title>
<g id="a_node3"><a xlink:href="iTokenBuggyPrinters.html#showTokenSetup" xlink:title="showTokenSetup">
<ellipse fill="#f070d1" stroke="black" cx="198" cy="-43.23" rx="89.08" ry="18"/>
<text text-anchor="middle" x="198" y="-39.53" font-family="Times,serif" font-size="14.00">showTokenSetup</text>
</a>
</g>
</g>
<!-- iTokenBuggyPrinters_showSerializedMsg&#45;&gt;iTokenBuggyPrinters_showTokenSetup -->
<g id="edge1" class="edge">
<title>iTokenBuggyPrinters_showSerializedMsg&#45;&gt;iTokenBuggyPrinters_showTokenSetup</title>
<path fill="none" stroke="black" d="M301.01,-121.3C278.98,-104.82 249.9,-83.06 228.26,-66.87"/>
<polygon fill="black" stroke="black" points="230.17,-63.93 220.07,-60.74 225.98,-69.54 230.17,-63.93"/>
</g>
<!-- iTokenBuggyPrinters_showMsg -->
<g id="node4" class="node">
<title>iTokenBuggyPrinters_showMsg</title>
<g id="a_node4"><a xlink:href="iTokenBuggyPrinters.html#showMsg" xlink:title="showMsg">
<ellipse fill="#f070d1" stroke="black" cx="360" cy="-43.23" rx="54.69" ry="18"/>
<text text-anchor="middle" x="360" y="-39.53" font-family="Times,serif" font-size="14.00">showMsg</text>
</a>
</g>
</g>
<!-- iTokenBuggyPrinters_showSerializedMsg&#45;&gt;iTokenBuggyPrinters_showMsg -->
<g id="edge2" class="edge">
<title>iTokenBuggyPrinters_showSerializedMsg&#45;&gt;iTokenBuggyPrinters_showMsg</title>
<path fill="none" stroke="black" d="M339.67,-120.27C343.66,-105.36 348.72,-86.44 352.79,-71.19"/>
<polygon fill="black" stroke="black" points="356.23,-71.89 355.43,-61.32 349.47,-70.08 356.23,-71.89"/>
</g>
<!-- iTokenBuggyPrinters_showTokenState -->
<g id="node2" class="node">
<title>iTokenBuggyPrinters_showTokenState</title>
<g id="a_node2"><a xlink:href="iTokenBuggyPrinters.html#showTokenState" xlink:title="showTokenState">
<ellipse fill="#f070d1" stroke="black" cx="111" cy="-146.23" rx="87.18" ry="18"/>
<ellipse fill="none" stroke="black" cx="111" cy="-146.23" rx="91.18" ry="22"/>
<ellipse fill="none" stroke="black" cx="111" cy="-146.23" rx="95.18" ry="26"/>
<text text-anchor="middle" x="111" y="-142.53" font-family="Times,serif" font-size="14.00">showTokenState</text>
</a>
</g>
</g>
</g>
</svg>
