<?xml version="1.0" encoding="UTF-8" standalone="no"?>
<!DOCTYPE svg PUBLIC "-//W3C//DTD SVG 1.1//EN"
 "http://www.w3.org/Graphics/SVG/1.1/DTD/svg11.dtd">
<!-- Generated by graphviz version 2.43.0 (0)
 -->
<!-- Title: Monad Pages: 1 -->
<svg width="1268pt" height="638pt"
 viewBox="0.00 0.00 1268.00 638.00" xmlns="http://www.w3.org/2000/svg" xmlns:xlink="http://www.w3.org/1999/xlink">
<g id="graph0" class="graph" transform="scale(1 1) rotate(0) translate(4 634)">
<title>Monad</title>
<polygon fill="white" stroke="transparent" points="-4,4 -4,-634 1264,-634 1264,4 -4,4"/>
<g id="clust1" class="cluster">
<title>cluster_Monad</title>
<polygon fill="#ffffc3" stroke="black" points="8,-14.87 8,-615.13 1252,-615.13 1252,-14.87 8,-14.87"/>
<text text-anchor="middle" x="40.5" y="-599.93" font-family="Times,serif" font-size="14.00">Monad</text>
</g>
<!-- Monad_monad_foldl -->
<g id="node1" class="node">
<title>Monad_monad_foldl</title>
<g id="a_node1"><a xlink:href="Monad.html#monad_foldl" xlink:title="monad_foldl">
<ellipse fill="#f070d1" stroke="black" cx="807" cy="-345.87" rx="66.89" ry="18"/>
<ellipse fill="none" stroke="black" cx="807" cy="-345.87" rx="70.89" ry="22"/>
<ellipse fill="none" stroke="black" cx="807" cy="-345.87" rx="74.89" ry="26"/>
<text text-anchor="middle" x="807" y="-342.17" font-family="Times,serif" font-size="14.00">monad_foldl</text>
</a>
</g>
</g>
<!-- Monad_bind -->
<g id="node13" class="node">
<title>Monad_bind</title>
<g id="a_node13"><a xlink:href="Monad.html#bind" xlink:title="bind">
<ellipse fill="#f070d1" stroke="black" cx="600" cy="-196.87" rx="31.4" ry="18"/>
<text text-anchor="middle" x="600" y="-193.17" font-family="Times,serif" font-size="14.00">bind</text>
</a>
</g>
</g>
<!-- Monad_monad_foldl&#45;&gt;Monad_bind -->
<g id="edge1" class="edge">
<title>Monad_monad_foldl&#45;&gt;Monad_bind</title>
<path fill="none" stroke="black" d="M775.11,-322.22C734.69,-293.52 665.68,-244.51 627.48,-217.38"/>
<polygon fill="black" stroke="black" points="629.1,-214.24 618.92,-211.3 625.04,-219.95 629.1,-214.24"/>
</g>
<!-- Monad_ret -->
<g id="node14" class="node">
<title>Monad_ret</title>
<g id="a_node14"><a xlink:href="Monad.html#ret" xlink:title="ret">
<ellipse fill="#f070d1" stroke="black" cx="676" cy="-196.87" rx="27" ry="18"/>
<text text-anchor="middle" x="676" y="-193.17" font-family="Times,serif" font-size="14.00">ret</text>
</a>
</g>
</g>
<!-- Monad_monad_foldl&#45;&gt;Monad_ret -->
<g id="edge2" class="edge">
<title>Monad_monad_foldl&#45;&gt;Monad_ret</title>
<path fill="none" stroke="black" d="M785.66,-320.92C760.85,-293.08 720.21,-247.48 695.99,-220.3"/>
<polygon fill="black" stroke="black" points="698.6,-217.96 689.33,-212.83 693.37,-222.62 698.6,-217.96"/>
</g>
<!-- Monad_monad_foldr -->
<g id="node2" class="node">
<title>Monad_monad_foldr</title>
<g id="a_node2"><a xlink:href="Monad.html#monad_foldr" xlink:title="monad_foldr">
<ellipse fill="#f070d1" stroke="black" cx="638" cy="-345.87" rx="68.46" ry="18"/>
<ellipse fill="none" stroke="black" cx="638" cy="-345.87" rx="72.48" ry="22"/>
<ellipse fill="none" stroke="black" cx="638" cy="-345.87" rx="76.49" ry="26"/>
<text text-anchor="middle" x="638" y="-342.17" font-family="Times,serif" font-size="14.00">monad_foldr</text>
</a>
</g>
</g>
<!-- Monad_monad_foldr&#45;&gt;Monad_bind -->
<g id="edge3" class="edge">
<title>Monad_monad_foldr&#45;&gt;Monad_bind</title>
<path fill="none" stroke="black" d="M631.55,-319.93C624.75,-293.61 614.06,-252.24 607.04,-225.09"/>
<polygon fill="black" stroke="black" points="610.34,-223.9 604.45,-215.09 603.57,-225.65 610.34,-223.9"/>
</g>
<!-- Monad_monad_foldr&#45;&gt;Monad_ret -->
<g id="edge4" class="edge">
<title>Monad_monad_foldr&#45;&gt;Monad_ret</title>
<path fill="none" stroke="black" d="M644.45,-319.93C651.29,-293.46 662.06,-251.79 669.08,-224.64"/>
<polygon fill="black" stroke="black" points="672.54,-225.23 671.66,-214.67 665.77,-223.48 672.54,-225.23"/>
</g>
<!-- Monad_monad_map_map -->
<g id="node3" class="node">
<title>Monad_monad_map_map</title>
<g id="a_node3"><a xlink:href="Monad.html#monad_map_map" xlink:title="monad_map_map">
<ellipse fill="#7fffd4" stroke="black" cx="289" cy="-508.87" rx="90.98" ry="18"/>
<ellipse fill="none" stroke="black" cx="289" cy="-508.87" rx="94.98" ry="22"/>
<ellipse fill="none" stroke="black" cx="289" cy="-508.87" rx="98.98" ry="26"/>
<text text-anchor="middle" x="289" y="-505.17" font-family="Times,serif" font-size="14.00">monad_map_map</text>
</a>
</g>
</g>
<!-- Monad_monad_map -->
<g id="node4" class="node">
<title>Monad_monad_map</title>
<g id="a_node4"><a xlink:href="Monad.html#monad_map" xlink:title="monad_map">
<ellipse fill="#f070d1" stroke="black" cx="98" cy="-345.87" rx="66.09" ry="18"/>
<text text-anchor="middle" x="98" y="-342.17" font-family="Times,serif" font-size="14.00">monad_map</text>
</a>
</g>
</g>
<!-- Monad_monad_map_map&#45;&gt;Monad_monad_map -->
<g id="edge5" class="edge">
<title>Monad_monad_map_map&#45;&gt;Monad_monad_map</title>
<path fill="none" stroke="black" d="M260.41,-483.76C223.99,-453.07 161.48,-400.38 125.57,-370.1"/>
<polygon fill="black" stroke="black" points="127.37,-367.05 117.47,-363.28 122.86,-372.4 127.37,-367.05"/>
</g>
<!-- Monad_monad_map&#45;&gt;Monad_bind -->
<g id="edge6" class="edge">
<title>Monad_monad_map&#45;&gt;Monad_bind</title>
<path fill="none" stroke="black" d="M137.6,-331.31C148.99,-327.51 161.46,-323.44 173,-319.87 316.15,-275.58 488.06,-228.22 562.55,-207.98"/>
<polygon fill="black" stroke="black" points="563.67,-211.3 572.4,-205.31 561.83,-204.55 563.67,-211.3"/>
</g>
<!-- Monad_monad_map&#45;&gt;Monad_ret -->
<g id="edge7" class="edge">
<title>Monad_monad_map&#45;&gt;Monad_ret</title>
<path fill="none" stroke="black" d="M136.7,-331.14C148.3,-327.25 161.1,-323.18 173,-319.87 377.95,-262.83 438.82,-284.04 640,-214.87 641.91,-214.21 643.86,-213.48 645.8,-212.71"/>
<polygon fill="black" stroke="black" points="647.6,-215.74 655.38,-208.55 644.82,-209.32 647.6,-215.74"/>
</g>
<!-- Monad_lift -->
<g id="node5" class="node">
<title>Monad_lift</title>
<g id="a_node5"><a xlink:href="Monad.html#lift" xlink:title="lift">
<ellipse fill="#f070d1" stroke="black" cx="441" cy="-508.87" rx="27" ry="18"/>
<ellipse fill="none" stroke="black" cx="441" cy="-508.87" rx="31" ry="22"/>
<ellipse fill="none" stroke="black" cx="441" cy="-508.87" rx="35" ry="26"/>
<text text-anchor="middle" x="441" y="-505.17" font-family="Times,serif" font-size="14.00">lift</text>
</a>
</g>
</g>
<!-- Monad_MonadTrans -->
<g id="node7" class="node">
<title>Monad_MonadTrans</title>
<g id="a_node7"><a xlink:href="Monad.html#MonadTrans" xlink:title="MonadTrans">
<ellipse fill="#e2cdfa" stroke="black" cx="475" cy="-345.87" rx="68.79" ry="18"/>
<text text-anchor="middle" x="475" y="-342.17" font-family="Times,serif" font-size="14.00">MonadTrans</text>
</a>
</g>
</g>
<!-- Monad_lift&#45;&gt;Monad_MonadTrans -->
<g id="edge8" class="edge">
<title>Monad_lift&#45;&gt;Monad_MonadTrans</title>
<path fill="none" stroke="black" d="M446.24,-483.06C452.47,-453.55 462.84,-404.46 469.28,-373.97"/>
<polygon fill="black" stroke="black" points="472.73,-374.53 471.38,-364.03 465.89,-373.09 472.73,-374.53"/>
</g>
<!-- Monad_Build_MonadTrans -->
<g id="node6" class="node">
<title>Monad_Build_MonadTrans</title>
<g id="a_node6"><a xlink:href="Monad.html#Build_MonadTrans" xlink:title="Build_MonadTrans">
<ellipse fill="#7faaff" stroke="black" cx="756" cy="-508.87" rx="97.48" ry="18"/>
<ellipse fill="none" stroke="black" cx="756" cy="-508.87" rx="101.48" ry="22"/>
<ellipse fill="none" stroke="black" cx="756" cy="-508.87" rx="105.48" ry="26"/>
<text text-anchor="middle" x="756" y="-505.17" font-family="Times,serif" font-size="14.00">Build_MonadTrans</text>
</a>
</g>
</g>
<!-- Monad_bind_assoc -->
<g id="node8" class="node">
<title>Monad_bind_assoc</title>
<g id="a_node8"><a xlink:href="Monad.html#bind_assoc" xlink:title="bind_assoc">
<ellipse fill="#7fffd4" stroke="black" cx="563" cy="-508.87" rx="61.18" ry="18"/>
<ellipse fill="none" stroke="black" cx="563" cy="-508.87" rx="65.18" ry="22"/>
<ellipse fill="none" stroke="black" cx="563" cy="-508.87" rx="69.19" ry="26"/>
<text text-anchor="middle" x="563" y="-505.17" font-family="Times,serif" font-size="14.00">bind_assoc</text>
</a>
</g>
</g>
<!-- Monad_MonadLaws -->
<g id="node12" class="node">
<title>Monad_MonadLaws</title>
<g id="a_node12"><a xlink:href="Monad.html#MonadLaws" xlink:title="MonadLaws">
<ellipse fill="#e2cdfa" stroke="black" cx="966" cy="-345.87" rx="66.09" ry="18"/>
<text text-anchor="middle" x="966" y="-342.17" font-family="Times,serif" font-size="14.00">MonadLaws</text>
</a>
</g>
</g>
<!-- Monad_bind_assoc&#45;&gt;Monad_MonadLaws -->
<g id="edge9" class="edge">
<title>Monad_bind_assoc&#45;&gt;Monad_MonadLaws</title>
<path fill="none" stroke="black" d="M609.23,-489.4C687.15,-458.27 843.67,-395.74 920.85,-364.9"/>
<polygon fill="black" stroke="black" points="922.32,-368.09 930.31,-361.13 919.72,-361.59 922.32,-368.09"/>
</g>
<!-- Monad_return_of_bind -->
<g id="node9" class="node">
<title>Monad_return_of_bind</title>
<g id="a_node9"><a xlink:href="Monad.html#return_of_bind" xlink:title="return_of_bind">
<ellipse fill="#7fffd4" stroke="black" cx="1157" cy="-508.87" rx="78.77" ry="18"/>
<ellipse fill="none" stroke="black" cx="1157" cy="-508.87" rx="82.78" ry="22"/>
<ellipse fill="none" stroke="black" cx="1157" cy="-508.87" rx="86.79" ry="26"/>
<text text-anchor="middle" x="1157" y="-505.17" font-family="Times,serif" font-size="14.00">return_of_bind</text>
</a>
</g>
</g>
<!-- Monad_return_of_bind&#45;&gt;Monad_MonadLaws -->
<g id="edge10" class="edge">
<title>Monad_return_of_bind&#45;&gt;Monad_MonadLaws</title>
<path fill="none" stroke="black" d="M1128.82,-484.11C1092.25,-453.29 1028.91,-399.89 992.95,-369.59"/>
<polygon fill="black" stroke="black" points="995.19,-366.9 985.29,-363.13 990.68,-372.25 995.19,-366.9"/>
</g>
<!-- Monad_bind_of_return -->
<g id="node10" class="node">
<title>Monad_bind_of_return</title>
<g id="a_node10"><a xlink:href="Monad.html#bind_of_return" xlink:title="bind_of_return">
<ellipse fill="#7fffd4" stroke="black" cx="966" cy="-508.87" rx="78.77" ry="18"/>
<ellipse fill="none" stroke="black" cx="966" cy="-508.87" rx="82.78" ry="22"/>
<ellipse fill="none" stroke="black" cx="966" cy="-508.87" rx="86.79" ry="26"/>
<text text-anchor="middle" x="966" y="-505.17" font-family="Times,serif" font-size="14.00">bind_of_return</text>
</a>
</g>
</g>
<!-- Monad_bind_of_return&#45;&gt;Monad_MonadLaws -->
<g id="edge11" class="edge">
<title>Monad_bind_of_return&#45;&gt;Monad_MonadLaws</title>
<path fill="none" stroke="black" d="M966,-482.71C966,-453.25 966,-404.63 966,-374.24"/>
<polygon fill="black" stroke="black" points="969.5,-373.94 966,-363.94 962.5,-373.94 969.5,-373.94"/>
</g>
<!-- Monad_build_monad_laws -->
<g id="node11" class="node">
<title>Monad_build_monad_laws</title>
<g id="a_node11"><a xlink:href="Monad.html#build_monad_laws" xlink:title="build_monad_laws">
<ellipse fill="#7faaff" stroke="black" cx="285" cy="-345.87" rx="94.79" ry="18"/>
<ellipse fill="none" stroke="black" cx="285" cy="-345.87" rx="98.79" ry="22"/>
<ellipse fill="none" stroke="black" cx="285" cy="-345.87" rx="102.78" ry="26"/>
<text text-anchor="middle" x="285" y="-342.17" font-family="Times,serif" font-size="14.00">build_monad_laws</text>
</a>
</g>
</g>
<!-- Monad_build_monad_laws&#45;&gt;Monad_bind -->
<g id="edge12" class="edge">
<title>Monad_build_monad_laws&#45;&gt;Monad_bind</title>
<path fill="none" stroke="black" d="M332.5,-322.7C397.16,-292.52 511.24,-239.29 567.19,-213.18"/>
<polygon fill="black" stroke="black" points="568.71,-216.33 576.29,-208.93 565.75,-209.99 568.71,-216.33"/>
</g>
<!-- Monad_build_monad_laws&#45;&gt;Monad_ret -->
<g id="edge13" class="edge">
<title>Monad_build_monad_laws&#45;&gt;Monad_ret</title>
<path fill="none" stroke="black" d="M345.31,-324.64C416.46,-300.36 537.97,-257.54 640,-214.87 641.82,-214.11 643.68,-213.31 645.54,-212.48"/>
<polygon fill="black" stroke="black" points="647.17,-215.59 654.82,-208.26 644.27,-209.22 647.17,-215.59"/>
</g>
<!-- Monad_MonadLaws&#45;&gt;Monad_bind -->
<g id="edge14" class="edge">
<title>Monad_MonadLaws&#45;&gt;Monad_bind</title>
<path fill="none" stroke="black" d="M929.71,-330.7C869.4,-307.09 744.79,-258.02 640,-214.87 637.96,-214.03 635.86,-213.16 633.75,-212.27"/>
<polygon fill="black" stroke="black" points="635.08,-209.04 624.5,-208.38 632.36,-215.49 635.08,-209.04"/>
</g>
<!-- Monad_MonadLaws&#45;&gt;Monad_ret -->
<g id="edge15" class="edge">
<title>Monad_MonadLaws&#45;&gt;Monad_ret</title>
<path fill="none" stroke="black" d="M936.06,-329.69C880.38,-301.47 761.53,-241.22 705.89,-213.02"/>
<polygon fill="black" stroke="black" points="707.4,-209.86 696.89,-208.46 704.23,-216.1 707.4,-209.86"/>
</g>
<!-- Monad_Monad -->
<g id="node16" class="node">
<title>Monad_Monad</title>
<g id="a_node16"><a xlink:href="Monad.html#Monad" xlink:title="Monad">
<ellipse fill="#e2cdfa" stroke="black" cx="638" cy="-62.87" rx="42.49" ry="18"/>
<text text-anchor="middle" x="638" y="-59.17" font-family="Times,serif" font-size="14.00">Monad</text>
</a>
</g>
</g>
<!-- Monad_bind&#45;&gt;Monad_Monad -->
<g id="edge16" class="edge">
<title>Monad_bind&#45;&gt;Monad_Monad</title>
<path fill="none" stroke="black" d="M604.89,-178.88C611.33,-156.51 622.73,-116.91 630.33,-90.53"/>
<polygon fill="black" stroke="black" points="633.73,-91.37 633.13,-80.79 627,-89.43 633.73,-91.37"/>
</g>
<!-- Monad_ret&#45;&gt;Monad_Monad -->
<g id="edge17" class="edge">
<title>Monad_ret&#45;&gt;Monad_Monad</title>
<path fill="none" stroke="black" d="M671.19,-179.15C664.77,-156.86 653.33,-117.14 645.71,-90.64"/>
<polygon fill="black" stroke="black" points="649.02,-89.51 642.89,-80.87 642.3,-91.44 649.02,-89.51"/>
</g>
<!-- Monad_build_monad -->
<g id="node15" class="node">
<title>Monad_build_monad</title>
<g id="a_node15"><a xlink:href="Monad.html#build_monad" xlink:title="build_monad">
<ellipse fill="#7faaff" stroke="black" cx="94" cy="-508.87" rx="69.58" ry="18"/>
<ellipse fill="none" stroke="black" cx="94" cy="-508.87" rx="73.59" ry="22"/>
<ellipse fill="none" stroke="black" cx="94" cy="-508.87" rx="77.59" ry="26"/>
<text text-anchor="middle" x="94" y="-505.17" font-family="Times,serif" font-size="14.00">build_monad</text>
</a>
</g>
</g>
</g>
</svg>
