<?xml version="1.0" encoding="UTF-8" standalone="no"?>
<!DOCTYPE svg PUBLIC "-//W3C//DTD SVG 1.1//EN"
 "http://www.w3.org/Graphics/SVG/1.1/DTD/svg11.dtd">
<!-- Generated by graphviz version 2.43.0 (0)
 -->
<!-- Title: CrowdfundingLiquidity Pages: 1 -->
<svg width="1187pt" height="598pt"
 viewBox="0.00 0.00 1187.00 597.50" xmlns="http://www.w3.org/2000/svg" xmlns:xlink="http://www.w3.org/1999/xlink">
<g id="graph0" class="graph" transform="scale(1 1) rotate(0) translate(4 593.5)">
<title>CrowdfundingLiquidity</title>
<polygon fill="white" stroke="transparent" points="-4,4 -4,-593.5 1183,-593.5 1183,4 -4,4"/>
<g id="clust1" class="cluster">
<title>cluster_CrowdfundingLiquidity</title>
<polygon fill="#ffffc3" stroke="black" points="8,-14.6 8,-574.9 1171,-574.9 1171,-14.6 8,-14.6"/>
<text text-anchor="middle" x="99" y="-559.7" font-family="Times,serif" font-size="14.00">CrowdfundingLiquidity</text>
</g>
<!-- CrowdfundingLiquidity_liquidity_crowdfunding -->
<g id="node1" class="node">
<title>CrowdfundingLiquidity_liquidity_crowdfunding</title>
<g id="a_node1"><a xlink:href="CrowdfundingLiquidity.html#liquidity_crowdfunding" xlink:title="liquidity_crowdfunding">
<ellipse fill="#f070d1" stroke="black" cx="1037" cy="-470.6" rx="117.77" ry="18"/>
<ellipse fill="none" stroke="black" cx="1037" cy="-470.6" rx="121.77" ry="22"/>
<ellipse fill="none" stroke="black" cx="1037" cy="-470.6" rx="125.78" ry="26"/>
<text text-anchor="middle" x="1037" y="-466.9" font-family="Times,serif" font-size="14.00">liquidity_crowdfunding</text>
</a>
</g>
</g>
<!-- CrowdfundingLiquidity_CROWDFUNDING_MODULE -->
<g id="node2" class="node">
<title>CrowdfundingLiquidity_CROWDFUNDING_MODULE</title>
<g id="a_node2"><a xlink:href="CrowdfundingLiquidity.html#CROWDFUNDING_MODULE" xlink:title="CROWDFUNDING_MODULE">
<ellipse fill="#f070d1" stroke="black" cx="740" cy="-470.6" rx="144.88" ry="18"/>
<ellipse fill="none" stroke="black" cx="740" cy="-470.6" rx="148.88" ry="22"/>
<ellipse fill="none" stroke="black" cx="740" cy="-470.6" rx="152.87" ry="26"/>
<text text-anchor="middle" x="740" y="-466.9" font-family="Times,serif" font-size="14.00">CROWDFUNDING_MODULE</text>
</a>
</g>
</g>
<!-- CrowdfundingLiquidity_crowdfunding_receive -->
<g id="node3" class="node">
<title>CrowdfundingLiquidity_crowdfunding_receive</title>
<g id="a_node3"><a xlink:href="CrowdfundingLiquidity.html#crowdfunding_receive" xlink:title="crowdfunding_receive">
<ellipse fill="#f070d1" stroke="black" cx="515" cy="-324.6" rx="112.38" ry="18"/>
<text text-anchor="middle" x="515" y="-320.9" font-family="Times,serif" font-size="14.00">crowdfunding_receive</text>
</a>
</g>
</g>
<!-- CrowdfundingLiquidity_CROWDFUNDING_MODULE&#45;&gt;CrowdfundingLiquidity_crowdfunding_receive -->
<g id="edge1" class="edge">
<title>CrowdfundingLiquidity_CROWDFUNDING_MODULE&#45;&gt;CrowdfundingLiquidity_crowdfunding_receive</title>
<path fill="none" stroke="black" d="M702.09,-445.34C659.5,-418.08 590.96,-374.21 549.72,-347.82"/>
<polygon fill="black" stroke="black" points="551.41,-344.75 541.11,-342.31 547.64,-350.65 551.41,-344.75"/>
</g>
<!-- CrowdfundingLiquidity_crowdfunding_init -->
<g id="node4" class="node">
<title>CrowdfundingLiquidity_crowdfunding_init</title>
<g id="a_node4"><a xlink:href="CrowdfundingLiquidity.html#crowdfunding_init" xlink:title="crowdfunding_init">
<ellipse fill="#f070d1" stroke="black" cx="740" cy="-324.6" rx="94.78" ry="18"/>
<text text-anchor="middle" x="740" y="-320.9" font-family="Times,serif" font-size="14.00">crowdfunding_init</text>
</a>
</g>
</g>
<!-- CrowdfundingLiquidity_CROWDFUNDING_MODULE&#45;&gt;CrowdfundingLiquidity_crowdfunding_init -->
<g id="edge2" class="edge">
<title>CrowdfundingLiquidity_CROWDFUNDING_MODULE&#45;&gt;CrowdfundingLiquidity_crowdfunding_init</title>
<path fill="none" stroke="black" d="M740,-444.52C740,-418.88 740,-379.19 740,-352.8"/>
<polygon fill="black" stroke="black" points="743.5,-352.73 740,-342.73 736.5,-352.73 743.5,-352.73"/>
</g>
<!-- CrowdfundingLiquidity_PREFIX -->
<g id="node10" class="node">
<title>CrowdfundingLiquidity_PREFIX</title>
<g id="a_node10"><a xlink:href="CrowdfundingLiquidity.html#PREFIX" xlink:title="PREFIX">
<ellipse fill="#f070d1" stroke="black" cx="900" cy="-324.6" rx="46.59" ry="18"/>
<text text-anchor="middle" x="900" y="-320.9" font-family="Times,serif" font-size="14.00">PREFIX</text>
</a>
</g>
</g>
<!-- CrowdfundingLiquidity_CROWDFUNDING_MODULE&#45;&gt;CrowdfundingLiquidity_PREFIX -->
<g id="edge3" class="edge">
<title>CrowdfundingLiquidity_CROWDFUNDING_MODULE&#45;&gt;CrowdfundingLiquidity_PREFIX</title>
<path fill="none" stroke="black" d="M767.5,-444.85C797.56,-417.8 845.31,-374.82 874.54,-348.52"/>
<polygon fill="black" stroke="black" points="877.16,-350.86 882.26,-341.57 872.48,-345.66 877.16,-350.86"/>
</g>
<!-- CrowdfundingLiquidity_default_error -->
<g id="node5" class="node">
<title>CrowdfundingLiquidity_default_error</title>
<g id="a_node5"><a xlink:href="CrowdfundingLiquidity.html#default_error" xlink:title="default_error">
<ellipse fill="#f070d1" stroke="black" cx="627" cy="-193.6" rx="71.49" ry="18"/>
<text text-anchor="middle" x="627" y="-189.9" font-family="Times,serif" font-size="14.00">default_error</text>
</a>
</g>
</g>
<!-- CrowdfundingLiquidity_crowdfunding_receive&#45;&gt;CrowdfundingLiquidity_default_error -->
<g id="edge4" class="edge">
<title>CrowdfundingLiquidity_crowdfunding_receive&#45;&gt;CrowdfundingLiquidity_default_error</title>
<path fill="none" stroke="black" d="M529.64,-306.74C549.01,-284.43 583.29,-244.94 605.58,-219.28"/>
<polygon fill="black" stroke="black" points="608.44,-221.31 612.35,-211.47 603.16,-216.73 608.44,-221.31"/>
</g>
<!-- CrowdfundingLiquidity_crowdfunding_init&#45;&gt;CrowdfundingLiquidity_default_error -->
<g id="edge5" class="edge">
<title>CrowdfundingLiquidity_crowdfunding_init&#45;&gt;CrowdfundingLiquidity_default_error</title>
<path fill="none" stroke="black" d="M725.23,-306.74C705.69,-284.43 671.1,-244.94 648.62,-219.28"/>
<polygon fill="black" stroke="black" points="651,-216.69 641.78,-211.47 645.73,-221.3 651,-216.69"/>
</g>
<!-- CrowdfundingLiquidity_Error -->
<g id="node6" class="node">
<title>CrowdfundingLiquidity_Error</title>
<g id="a_node6"><a xlink:href="CrowdfundingLiquidity.html#Error" xlink:title="Error">
<ellipse fill="#f070d1" stroke="black" cx="627" cy="-61.6" rx="36.29" ry="18"/>
<text text-anchor="middle" x="627" y="-57.9" font-family="Times,serif" font-size="14.00">Error</text>
</a>
</g>
</g>
<!-- CrowdfundingLiquidity_default_error&#45;&gt;CrowdfundingLiquidity_Error -->
<g id="edge6" class="edge">
<title>CrowdfundingLiquidity_default_error&#45;&gt;CrowdfundingLiquidity_Error</title>
<path fill="none" stroke="black" d="M627,-175.34C627,-153.58 627,-115.92 627,-90.16"/>
<polygon fill="black" stroke="black" points="630.5,-89.93 627,-79.94 623.5,-89.94 630.5,-89.93"/>
</g>
<!-- CrowdfundingLiquidity_printWrapperAndMain -->
<g id="node7" class="node">
<title>CrowdfundingLiquidity_printWrapperAndMain</title>
<g id="a_node7"><a xlink:href="CrowdfundingLiquidity.html#printWrapperAndMain" xlink:title="printWrapperAndMain">
<ellipse fill="#f070d1" stroke="black" cx="446" cy="-470.6" rx="115.08" ry="18"/>
<ellipse fill="none" stroke="black" cx="446" cy="-470.6" rx="119.08" ry="22"/>
<ellipse fill="none" stroke="black" cx="446" cy="-470.6" rx="123.08" ry="26"/>
<text text-anchor="middle" x="446" y="-466.9" font-family="Times,serif" font-size="14.00">printWrapperAndMain</text>
</a>
</g>
</g>
<!-- CrowdfundingLiquidity_TT_rename -->
<g id="node8" class="node">
<title>CrowdfundingLiquidity_TT_rename</title>
<g id="a_node8"><a xlink:href="CrowdfundingLiquidity.html#TT_rename" xlink:title="TT_rename">
<ellipse fill="#f070d1" stroke="black" cx="235" cy="-470.6" rx="62.3" ry="18"/>
<ellipse fill="none" stroke="black" cx="235" cy="-470.6" rx="66.3" ry="22"/>
<ellipse fill="none" stroke="black" cx="235" cy="-470.6" rx="70.29" ry="26"/>
<text text-anchor="middle" x="235" y="-466.9" font-family="Times,serif" font-size="14.00">TT_rename</text>
</a>
</g>
</g>
<!-- CrowdfundingLiquidity_TT_remap -->
<g id="node9" class="node">
<title>CrowdfundingLiquidity_TT_remap</title>
<g id="a_node9"><a xlink:href="CrowdfundingLiquidity.html#TT_remap" xlink:title="TT_remap">
<ellipse fill="#f070d1" stroke="black" cx="81" cy="-470.6" rx="57.37" ry="18"/>
<ellipse fill="none" stroke="black" cx="81" cy="-470.6" rx="61.38" ry="22"/>
<ellipse fill="none" stroke="black" cx="81" cy="-470.6" rx="65.39" ry="26"/>
<text text-anchor="middle" x="81" y="-466.9" font-family="Times,serif" font-size="14.00">TT_remap</text>
</a>
</g>
</g>
</g>
</svg>
