<?xml version="1.0" encoding="UTF-8" standalone="no"?>
<!DOCTYPE svg PUBLIC "-//W3C//DTD SVG 1.1//EN"
 "http://www.w3.org/Graphics/SVG/1.1/DTD/svg11.dtd">
<!-- Generated by graphviz version 2.43.0 (0)
 -->
<!-- Title: iTokenBuggyTests Pages: 1 -->
<svg width="2824pt" height="1416pt"
 viewBox="0.00 0.00 2824.00 1416.00" xmlns="http://www.w3.org/2000/svg" xmlns:xlink="http://www.w3.org/1999/xlink">
<g id="graph0" class="graph" transform="scale(1 1) rotate(0) translate(4 1412)">
<title>iTokenBuggyTests</title>
<polygon fill="white" stroke="transparent" points="-4,4 -4,-1412 2820,-1412 2820,4 -4,4"/>
<g id="clust1" class="cluster">
<title>cluster_iTokenBuggyTests</title>
<polygon fill="#ffffc3" stroke="black" points="8,-18.05 8,-1389.95 2808,-1389.95 2808,-18.05 8,-18.05"/>
<text text-anchor="middle" x="81" y="-1374.75" font-family="Times,serif" font-size="14.00">iTokenBuggyTests</text>
</g>
<g id="clust2" class="cluster">
<title>cluster_iTokenBuggyTests_MG</title>
<polygon fill="#ffffa3" stroke="black" points="936,-198.56 936,-746.87 1595,-746.87 1595,-198.56 936,-198.56"/>
<text text-anchor="middle" x="957" y="-731.67" font-family="Times,serif" font-size="14.00">MG</text>
</g>
<g id="clust3" class="cluster">
<title>cluster_iTokenBuggyTests_NotationInfo</title>
<polygon fill="#ffffa3" stroke="black" points="1195,-764.92 1195,-934.15 1405,-934.15 1405,-764.92 1195,-764.92"/>
<text text-anchor="middle" x="1248.5" y="-918.95" font-family="Times,serif" font-size="14.00">NotationInfo</text>
</g>
<g id="clust4" class="cluster">
<title>cluster_iTokenBuggyTests_TN</title>
<polygon fill="#ffffa3" stroke="black" points="724,-952.21 724,-1320 2224,-1320 2224,-952.21 724,-952.21"/>
<text text-anchor="middle" x="743" y="-1304.8" font-family="Times,serif" font-size="14.00">TN</text>
</g>
<g id="clust5" class="cluster">
<title>cluster_iTokenBuggyTests_TestInfo</title>
<polygon fill="#ffffa3" stroke="black" points="1603,-198.56 1603,-367.79 1895,-367.79 1895,-198.56 1603,-198.56"/>
<text text-anchor="middle" x="1640" y="-352.59" font-family="Times,serif" font-size="14.00">TestInfo</text>
</g>
<!-- iTokenBuggyTests_TestInfo_gAccount -->
<g id="node1" class="node">
<title>iTokenBuggyTests_TestInfo_gAccount</title>
<g id="a_node1"><a xlink:href="iTokenBuggyTests.html#TestInfo.gAccount" xlink:title="gAccount">
<ellipse fill="#f070d1" stroke="black" cx="1665" cy="-257.05" rx="53.89" ry="18"/>
<text text-anchor="middle" x="1665" y="-253.35" font-family="Times,serif" font-size="14.00">gAccount</text>
</a>
</g>
</g>
<!-- iTokenBuggyTests_TestInfo_contract_addr -->
<g id="node2" class="node">
<title>iTokenBuggyTests_TestInfo_contract_addr</title>
<g id="a_node2"><a xlink:href="iTokenBuggyTests.html#TestInfo.contract_addr" xlink:title="contract_addr">
<ellipse fill="#f070d1" stroke="black" cx="1812" cy="-257.05" rx="75.29" ry="18"/>
<text text-anchor="middle" x="1812" y="-253.35" font-family="Times,serif" font-size="14.00">contract_addr</text>
</a>
</g>
</g>
<!-- iTokenBuggyTests_token_caddr -->
<g id="node30" class="node">
<title>iTokenBuggyTests_token_caddr</title>
<g id="a_node30"><a xlink:href="iTokenBuggyTests.html#token_caddr" xlink:title="token_caddr">
<ellipse fill="#f070d1" stroke="black" cx="1812" cy="-77.05" rx="67.69" ry="18"/>
<text text-anchor="middle" x="1812" y="-73.35" font-family="Times,serif" font-size="14.00">token_caddr</text>
</a>
</g>
</g>
<!-- iTokenBuggyTests_TestInfo_contract_addr&#45;&gt;iTokenBuggyTests_token_caddr -->
<g id="edge1" class="edge">
<title>iTokenBuggyTests_TestInfo_contract_addr&#45;&gt;iTokenBuggyTests_token_caddr</title>
<path fill="none" stroke="black" d="M1812,-238.98C1812,-208.02 1812,-142.35 1812,-105.18"/>
<polygon fill="black" stroke="black" points="1815.5,-105.07 1812,-95.07 1808.5,-105.07 1815.5,-105.07"/>
</g>
<!-- iTokenBuggyTests_TN_checkForAllStatesInTrace -->
<g id="node3" class="node">
<title>iTokenBuggyTests_TN_checkForAllStatesInTrace</title>
<g id="a_node3"><a xlink:href="iTokenBuggyTests.html#TN.checkForAllStatesInTrace" xlink:title="checkForAllStatesInTrace">
<ellipse fill="#f070d1" stroke="black" cx="2078" cy="-1191.05" rx="129.98" ry="18"/>
<ellipse fill="none" stroke="black" cx="2078" cy="-1191.05" rx="133.98" ry="22"/>
<ellipse fill="none" stroke="black" cx="2078" cy="-1191.05" rx="137.98" ry="26"/>
<text text-anchor="middle" x="2078" y="-1187.35" font-family="Times,serif" font-size="14.00">checkForAllStatesInTrace</text>
</a>
</g>
</g>
<!-- iTokenBuggyTests_TN_bool_to_option -->
<g id="node4" class="node">
<title>iTokenBuggyTests_TN_bool_to_option</title>
<g id="a_node4"><a xlink:href="iTokenBuggyTests.html#TN.bool_to_option" xlink:title="bool_to_option">
<ellipse fill="#f070d1" stroke="black" cx="1837" cy="-1191.05" rx="77.2" ry="18"/>
<ellipse fill="none" stroke="black" cx="1837" cy="-1191.05" rx="81.19" ry="22"/>
<ellipse fill="none" stroke="black" cx="1837" cy="-1191.05" rx="85.19" ry="26"/>
<text text-anchor="middle" x="1837" y="-1187.35" font-family="Times,serif" font-size="14.00">bool_to_option</text>
</a>
</g>
</g>
<!-- iTokenBuggyTests_TN_forAllChainStatePairs -->
<g id="node5" class="node">
<title>iTokenBuggyTests_TN_forAllChainStatePairs</title>
<g id="a_node5"><a xlink:href="iTokenBuggyTests.html#TN.forAllChainStatePairs" xlink:title="forAllChainStatePairs">
<ellipse fill="#f070d1" stroke="black" cx="1255" cy="-1191.05" rx="111.27" ry="18"/>
<ellipse fill="none" stroke="black" cx="1255" cy="-1191.05" rx="115.28" ry="22"/>
<ellipse fill="none" stroke="black" cx="1255" cy="-1191.05" rx="119.28" ry="26"/>
<text text-anchor="middle" x="1255" y="-1187.35" font-family="Times,serif" font-size="14.00">forAllChainStatePairs</text>
</a>
</g>
</g>
<!-- iTokenBuggyTests_TN_gChain_ -->
<g id="node11" class="node">
<title>iTokenBuggyTests_TN_gChain_</title>
<g id="a_node11"><a xlink:href="iTokenBuggyTests.html#TN.gChain_" xlink:title="gChain_">
<ellipse fill="#f070d1" stroke="black" cx="1168" cy="-1011.05" rx="48.19" ry="18"/>
<text text-anchor="middle" x="1168" y="-1007.35" font-family="Times,serif" font-size="14.00">gChain_</text>
</a>
</g>
</g>
<!-- iTokenBuggyTests_TN_forAllChainStatePairs&#45;&gt;iTokenBuggyTests_TN_gChain_ -->
<g id="edge2" class="edge">
<title>iTokenBuggyTests_TN_forAllChainStatePairs&#45;&gt;iTokenBuggyTests_TN_gChain_</title>
<path fill="none" stroke="black" d="M1242.72,-1164.93C1226.35,-1131.43 1197.51,-1072.43 1180.86,-1038.35"/>
<polygon fill="black" stroke="black" points="1183.84,-1036.49 1176.3,-1029.04 1177.55,-1039.56 1183.84,-1036.49"/>
</g>
<!-- iTokenBuggyTests_NotationInfo_init_cb -->
<g id="node12" class="node">
<title>iTokenBuggyTests_NotationInfo_init_cb</title>
<g id="a_node12"><a xlink:href="iTokenBuggyTests.html#NotationInfo.init_cb" xlink:title="init_cb">
<ellipse fill="#f070d1" stroke="black" cx="1245" cy="-824.05" rx="41.69" ry="18"/>
<text text-anchor="middle" x="1245" y="-820.35" font-family="Times,serif" font-size="14.00">init_cb</text>
</a>
</g>
</g>
<!-- iTokenBuggyTests_TN_forAllChainStatePairs&#45;&gt;iTokenBuggyTests_NotationInfo_init_cb -->
<g id="edge3" class="edge">
<title>iTokenBuggyTests_TN_forAllChainStatePairs&#45;&gt;iTokenBuggyTests_NotationInfo_init_cb</title>
<path fill="none" stroke="black" d="M1254.31,-1164.96C1252.51,-1099.05 1247.64,-921.36 1245.76,-852.68"/>
<polygon fill="black" stroke="black" points="1249.24,-852.16 1245.47,-842.26 1242.25,-852.35 1249.24,-852.16"/>
</g>
<!-- iTokenBuggyTests_TN_forAllBlocks -->
<g id="node6" class="node">
<title>iTokenBuggyTests_TN_forAllBlocks</title>
<g id="a_node6"><a xlink:href="iTokenBuggyTests.html#TN.forAllBlocks" xlink:title="forAllBlocks">
<ellipse fill="#f070d1" stroke="black" cx="1044" cy="-1191.05" rx="66.11" ry="18"/>
<ellipse fill="none" stroke="black" cx="1044" cy="-1191.05" rx="70.1" ry="22"/>
<ellipse fill="none" stroke="black" cx="1044" cy="-1191.05" rx="74.09" ry="26"/>
<text text-anchor="middle" x="1044" y="-1187.35" font-family="Times,serif" font-size="14.00">forAllBlocks</text>
</a>
</g>
</g>
<!-- iTokenBuggyTests_TN_forAllBlocks&#45;&gt;iTokenBuggyTests_TN_gChain_ -->
<g id="edge4" class="edge">
<title>iTokenBuggyTests_TN_forAllBlocks&#45;&gt;iTokenBuggyTests_TN_gChain_</title>
<path fill="none" stroke="black" d="M1060.98,-1165.67C1084.48,-1131.94 1126.71,-1071.32 1150.49,-1037.18"/>
<polygon fill="black" stroke="black" points="1153.55,-1038.91 1156.4,-1028.71 1147.81,-1034.91 1153.55,-1038.91"/>
</g>
<!-- iTokenBuggyTests_TN_forAllBlocks&#45;&gt;iTokenBuggyTests_NotationInfo_init_cb -->
<g id="edge5" class="edge">
<title>iTokenBuggyTests_TN_forAllBlocks&#45;&gt;iTokenBuggyTests_NotationInfo_init_cb</title>
<path fill="none" stroke="black" d="M1081.72,-1168.62C1124.61,-1141.97 1192.86,-1092.21 1225,-1029.05 1254.34,-971.41 1252.1,-892.78 1248.33,-852.03"/>
<polygon fill="black" stroke="black" points="1251.81,-851.64 1247.31,-842.05 1244.85,-852.36 1251.81,-851.64"/>
</g>
<!-- iTokenBuggyTests_TN_forAllChainBuilders -->
<g id="node7" class="node">
<title>iTokenBuggyTests_TN_forAllChainBuilders</title>
<g id="a_node7"><a xlink:href="iTokenBuggyTests.html#TN.forAllChainBuilders" xlink:title="forAllChainBuilders">
<ellipse fill="#f070d1" stroke="black" cx="1502" cy="-1191.05" rx="102.08" ry="18"/>
<ellipse fill="none" stroke="black" cx="1502" cy="-1191.05" rx="106.08" ry="22"/>
<ellipse fill="none" stroke="black" cx="1502" cy="-1191.05" rx="110.08" ry="26"/>
<text text-anchor="middle" x="1502" y="-1187.35" font-family="Times,serif" font-size="14.00">forAllChainBuilders</text>
</a>
</g>
</g>
<!-- iTokenBuggyTests_TN_forAllChainBuilders&#45;&gt;iTokenBuggyTests_TN_gChain_ -->
<g id="edge6" class="edge">
<title>iTokenBuggyTests_TN_forAllChainBuilders&#45;&gt;iTokenBuggyTests_TN_gChain_</title>
<path fill="none" stroke="black" d="M1458.68,-1166.96C1392.03,-1131.44 1265.58,-1064.05 1203.79,-1031.12"/>
<polygon fill="black" stroke="black" points="1205.27,-1027.95 1194.8,-1026.33 1201.98,-1034.13 1205.27,-1027.95"/>
</g>
<!-- iTokenBuggyTests_TN_forAllChainBuilders&#45;&gt;iTokenBuggyTests_NotationInfo_init_cb -->
<g id="edge7" class="edge">
<title>iTokenBuggyTests_TN_forAllChainBuilders&#45;&gt;iTokenBuggyTests_NotationInfo_init_cb</title>
<path fill="none" stroke="black" d="M1484.54,-1165.25C1437.61,-1098.61 1309.18,-916.2 1262.37,-849.72"/>
<polygon fill="black" stroke="black" points="1265.19,-847.65 1256.57,-841.48 1259.47,-851.68 1265.19,-847.65"/>
</g>
<!-- iTokenBuggyTests_TN_forAllInvalidActions -->
<g id="node8" class="node">
<title>iTokenBuggyTests_TN_forAllInvalidActions</title>
<g id="a_node8"><a xlink:href="iTokenBuggyTests.html#TN.forAllInvalidActions" xlink:title="forAllInvalidActions">
<ellipse fill="#f070d1" stroke="black" cx="842" cy="-1191.05" rx="102.08" ry="18"/>
<ellipse fill="none" stroke="black" cx="842" cy="-1191.05" rx="106.08" ry="22"/>
<ellipse fill="none" stroke="black" cx="842" cy="-1191.05" rx="110.08" ry="26"/>
<text text-anchor="middle" x="842" y="-1187.35" font-family="Times,serif" font-size="14.00">forAllInvalidActions</text>
</a>
</g>
</g>
<!-- iTokenBuggyTests_TN_gInvalidActions -->
<g id="node9" class="node">
<title>iTokenBuggyTests_TN_gInvalidActions</title>
<g id="a_node9"><a xlink:href="iTokenBuggyTests.html#TN.gInvalidActions" xlink:title="gInvalidActions">
<ellipse fill="#f070d1" stroke="black" cx="930" cy="-1011.05" rx="82.59" ry="18"/>
<text text-anchor="middle" x="930" y="-1007.35" font-family="Times,serif" font-size="14.00">gInvalidActions</text>
</a>
</g>
</g>
<!-- iTokenBuggyTests_TN_forAllInvalidActions&#45;&gt;iTokenBuggyTests_TN_gInvalidActions -->
<g id="edge8" class="edge">
<title>iTokenBuggyTests_TN_forAllInvalidActions&#45;&gt;iTokenBuggyTests_TN_gInvalidActions</title>
<path fill="none" stroke="black" d="M854.42,-1164.93C870.98,-1131.43 900.15,-1072.43 917,-1038.35"/>
<polygon fill="black" stroke="black" points="920.31,-1039.55 921.6,-1029.04 914.03,-1036.45 920.31,-1039.55"/>
</g>
<!-- iTokenBuggyTests_TN_gInvalidActions&#45;&gt;iTokenBuggyTests_NotationInfo_init_cb -->
<g id="edge9" class="edge">
<title>iTokenBuggyTests_TN_gInvalidActions&#45;&gt;iTokenBuggyTests_NotationInfo_init_cb</title>
<path fill="none" stroke="black" d="M968.84,-995.14C1023.31,-973.18 1124.11,-928.68 1199,-873.05 1208.27,-866.17 1217.32,-857.33 1224.9,-849.13"/>
<polygon fill="black" stroke="black" points="1227.63,-851.32 1231.69,-841.53 1222.41,-846.66 1227.63,-851.32"/>
</g>
<!-- iTokenBuggyTests_TN_gChain -->
<g id="node10" class="node">
<title>iTokenBuggyTests_TN_gChain</title>
<g id="a_node10"><a xlink:href="iTokenBuggyTests.html#TN.gChain" xlink:title="gChain">
<ellipse fill="#f070d1" stroke="black" cx="1682" cy="-1191.05" rx="43.59" ry="18"/>
<ellipse fill="none" stroke="black" cx="1682" cy="-1191.05" rx="47.59" ry="22"/>
<ellipse fill="none" stroke="black" cx="1682" cy="-1191.05" rx="51.59" ry="26"/>
<text text-anchor="middle" x="1682" y="-1187.35" font-family="Times,serif" font-size="14.00">gChain</text>
</a>
</g>
</g>
<!-- iTokenBuggyTests_TN_gChain&#45;&gt;iTokenBuggyTests_NotationInfo_init_cb -->
<g id="edge10" class="edge">
<title>iTokenBuggyTests_TN_gChain&#45;&gt;iTokenBuggyTests_NotationInfo_init_cb</title>
<path fill="none" stroke="black" d="M1654.81,-1168.76C1591.01,-1118.58 1427.21,-988.44 1296,-873.05 1286.91,-865.06 1277.18,-856.03 1268.68,-847.97"/>
<polygon fill="black" stroke="black" points="1270.93,-845.27 1261.28,-840.9 1266.09,-850.34 1270.93,-845.27"/>
</g>
<!-- iTokenBuggyTests_NotationInfo_gAction -->
<g id="node13" class="node">
<title>iTokenBuggyTests_NotationInfo_gAction</title>
<g id="a_node13"><a xlink:href="iTokenBuggyTests.html#NotationInfo.gAction" xlink:title="gAction">
<ellipse fill="#f070d1" stroke="black" cx="1351" cy="-824.05" rx="46.29" ry="18"/>
<text text-anchor="middle" x="1351" y="-820.35" font-family="Times,serif" font-size="14.00">gAction</text>
</a>
</g>
</g>
<!-- iTokenBuggyTests_TN_gChain&#45;&gt;iTokenBuggyTests_NotationInfo_gAction -->
<g id="edge11" class="edge">
<title>iTokenBuggyTests_TN_gChain&#45;&gt;iTokenBuggyTests_NotationInfo_gAction</title>
<path fill="none" stroke="black" d="M1661.29,-1167.22C1602.13,-1101.98 1432.75,-915.2 1372.55,-848.82"/>
<polygon fill="black" stroke="black" points="1375.08,-846.39 1365.77,-841.33 1369.89,-851.09 1375.08,-846.39"/>
</g>
<!-- iTokenBuggyTests_TN_gChain_&#45;&gt;iTokenBuggyTests_NotationInfo_gAction -->
<g id="edge12" class="edge">
<title>iTokenBuggyTests_TN_gChain_&#45;&gt;iTokenBuggyTests_NotationInfo_gAction</title>
<path fill="none" stroke="black" d="M1183.92,-993.96C1216.31,-961.21 1290.01,-886.71 1327.76,-848.54"/>
<polygon fill="black" stroke="black" points="1330.7,-850.55 1335.25,-840.98 1325.73,-845.62 1330.7,-850.55"/>
</g>
<!-- iTokenBuggyTests_token_cb -->
<g id="node29" class="node">
<title>iTokenBuggyTests_token_cb</title>
<g id="a_node29"><a xlink:href="iTokenBuggyTests.html#token_cb" xlink:title="token_cb">
<ellipse fill="#f070d1" stroke="black" cx="754" cy="-636.05" rx="51.99" ry="18"/>
<text text-anchor="middle" x="754" y="-632.35" font-family="Times,serif" font-size="14.00">token_cb</text>
</a>
</g>
</g>
<!-- iTokenBuggyTests_NotationInfo_init_cb&#45;&gt;iTokenBuggyTests_token_cb -->
<g id="edge13" class="edge">
<title>iTokenBuggyTests_NotationInfo_init_cb&#45;&gt;iTokenBuggyTests_token_cb</title>
<path fill="none" stroke="black" d="M1221,-809.12C1214.01,-805.31 1206.3,-801.33 1199,-798.05 1057.87,-734.6 883.53,-677.37 801.24,-651.55"/>
<polygon fill="black" stroke="black" points="802.26,-648.2 791.67,-648.56 800.17,-654.88 802.26,-648.2"/>
</g>
<!-- iTokenBuggyTests_MG_giTokenBuggyAction -->
<g id="node14" class="node">
<title>iTokenBuggyTests_MG_giTokenBuggyAction</title>
<g id="a_node14"><a xlink:href="iTokenBuggyTests.html#MG.giTokenBuggyAction" xlink:title="giTokenBuggyAction">
<ellipse fill="#f070d1" stroke="black" cx="1351" cy="-636.05" rx="105.88" ry="18"/>
<text text-anchor="middle" x="1351" y="-632.35" font-family="Times,serif" font-size="14.00">giTokenBuggyAction</text>
</a>
</g>
</g>
<!-- iTokenBuggyTests_NotationInfo_gAction&#45;&gt;iTokenBuggyTests_MG_giTokenBuggyAction -->
<g id="edge14" class="edge">
<title>iTokenBuggyTests_NotationInfo_gAction&#45;&gt;iTokenBuggyTests_MG_giTokenBuggyAction</title>
<path fill="none" stroke="black" d="M1351,-805.89C1351,-773.5 1351,-703.14 1351,-664.25"/>
<polygon fill="black" stroke="black" points="1354.5,-664.17 1351,-654.17 1347.5,-664.17 1354.5,-664.17"/>
</g>
<!-- iTokenBuggyTests_MG_giTokenBuggyAction&#45;&gt;iTokenBuggyTests_TestInfo_contract_addr -->
<g id="edge15" class="edge">
<title>iTokenBuggyTests_MG_giTokenBuggyAction&#45;&gt;iTokenBuggyTests_TestInfo_contract_addr</title>
<path fill="none" stroke="black" d="M1382.41,-618.7C1430.65,-592.89 1524.89,-539.66 1596,-482.05 1675.46,-417.67 1755.51,-326.02 1791.83,-282.64"/>
<polygon fill="black" stroke="black" points="1794.59,-284.79 1798.3,-274.87 1789.21,-280.31 1794.59,-284.79"/>
</g>
<!-- iTokenBuggyTests_MG_gBurn -->
<g id="node15" class="node">
<title>iTokenBuggyTests_MG_gBurn</title>
<g id="a_node15"><a xlink:href="iTokenBuggyTests.html#MG.gBurn" xlink:title="gBurn">
<ellipse fill="#f070d1" stroke="black" cx="1141" cy="-456.05" rx="39.79" ry="18"/>
<text text-anchor="middle" x="1141" y="-452.35" font-family="Times,serif" font-size="14.00">gBurn</text>
</a>
</g>
</g>
<!-- iTokenBuggyTests_MG_giTokenBuggyAction&#45;&gt;iTokenBuggyTests_MG_gBurn -->
<g id="edge16" class="edge">
<title>iTokenBuggyTests_MG_giTokenBuggyAction&#45;&gt;iTokenBuggyTests_MG_gBurn</title>
<path fill="none" stroke="black" d="M1331.24,-618.31C1293.07,-585.95 1209.19,-514.85 1166.72,-478.85"/>
<polygon fill="black" stroke="black" points="1168.94,-476.15 1159.05,-472.35 1164.42,-481.49 1168.94,-476.15"/>
</g>
<!-- iTokenBuggyTests_MG_gMint -->
<g id="node16" class="node">
<title>iTokenBuggyTests_MG_gMint</title>
<g id="a_node16"><a xlink:href="iTokenBuggyTests.html#MG.gMint" xlink:title="gMint">
<ellipse fill="#f070d1" stroke="black" cx="1420" cy="-456.05" rx="38.19" ry="18"/>
<text text-anchor="middle" x="1420" y="-452.35" font-family="Times,serif" font-size="14.00">gMint</text>
</a>
</g>
</g>
<!-- iTokenBuggyTests_MG_giTokenBuggyAction&#45;&gt;iTokenBuggyTests_MG_gMint -->
<g id="edge17" class="edge">
<title>iTokenBuggyTests_MG_giTokenBuggyAction&#45;&gt;iTokenBuggyTests_MG_gMint</title>
<path fill="none" stroke="black" d="M1357.62,-617.98C1369.7,-586.81 1395.43,-520.45 1409.78,-483.42"/>
<polygon fill="black" stroke="black" points="1413.15,-484.4 1413.5,-473.81 1406.63,-481.87 1413.15,-484.4"/>
</g>
<!-- iTokenBuggyTests_MG_gTransfer_from -->
<g id="node17" class="node">
<title>iTokenBuggyTests_MG_gTransfer_from</title>
<g id="a_node17"><a xlink:href="iTokenBuggyTests.html#MG.gTransfer_from" xlink:title="gTransfer_from">
<ellipse fill="#f070d1" stroke="black" cx="1281" cy="-456.05" rx="82.59" ry="18"/>
<text text-anchor="middle" x="1281" y="-452.35" font-family="Times,serif" font-size="14.00">gTransfer_from</text>
</a>
</g>
</g>
<!-- iTokenBuggyTests_MG_giTokenBuggyAction&#45;&gt;iTokenBuggyTests_MG_gTransfer_from -->
<g id="edge18" class="edge">
<title>iTokenBuggyTests_MG_giTokenBuggyAction&#45;&gt;iTokenBuggyTests_MG_gTransfer_from</title>
<path fill="none" stroke="black" d="M1344.29,-617.98C1332.06,-586.88 1306.06,-520.79 1291.48,-483.7"/>
<polygon fill="black" stroke="black" points="1294.61,-482.09 1287.69,-474.07 1288.09,-484.65 1294.61,-482.09"/>
</g>
<!-- iTokenBuggyTests_MG_gApprove -->
<g id="node18" class="node">
<title>iTokenBuggyTests_MG_gApprove</title>
<g id="a_node18"><a xlink:href="iTokenBuggyTests.html#MG.gApprove" xlink:title="gApprove">
<ellipse fill="#f070d1" stroke="black" cx="1532" cy="-456.05" rx="55.49" ry="18"/>
<text text-anchor="middle" x="1532" y="-452.35" font-family="Times,serif" font-size="14.00">gApprove</text>
</a>
</g>
</g>
<!-- iTokenBuggyTests_MG_giTokenBuggyAction&#45;&gt;iTokenBuggyTests_MG_gApprove -->
<g id="edge19" class="edge">
<title>iTokenBuggyTests_MG_giTokenBuggyAction&#45;&gt;iTokenBuggyTests_MG_gApprove</title>
<path fill="none" stroke="black" d="M1368.36,-617.98C1400.9,-585.98 1471.15,-516.9 1508.13,-480.53"/>
<polygon fill="black" stroke="black" points="1510.81,-482.8 1515.49,-473.29 1505.9,-477.81 1510.81,-482.8"/>
</g>
<!-- iTokenBuggyTests_MG_serializeMsg -->
<g id="node20" class="node">
<title>iTokenBuggyTests_MG_serializeMsg</title>
<g id="a_node20"><a xlink:href="iTokenBuggyTests.html#MG.serializeMsg" xlink:title="serializeMsg">
<ellipse fill="#f070d1" stroke="black" cx="1014" cy="-456.05" rx="69.59" ry="18"/>
<text text-anchor="middle" x="1014" y="-452.35" font-family="Times,serif" font-size="14.00">serializeMsg</text>
</a>
</g>
</g>
<!-- iTokenBuggyTests_MG_giTokenBuggyAction&#45;&gt;iTokenBuggyTests_MG_serializeMsg -->
<g id="edge20" class="edge">
<title>iTokenBuggyTests_MG_giTokenBuggyAction&#45;&gt;iTokenBuggyTests_MG_serializeMsg</title>
<path fill="none" stroke="black" d="M1320.2,-618.78C1258.44,-586.16 1119.61,-512.83 1052.19,-477.22"/>
<polygon fill="black" stroke="black" points="1053.64,-474.03 1043.16,-472.45 1050.37,-480.22 1053.64,-474.03"/>
</g>
<!-- iTokenBuggyTests_MG_gMint&#45;&gt;iTokenBuggyTests_TestInfo_gAccount -->
<g id="edge21" class="edge">
<title>iTokenBuggyTests_MG_gMint&#45;&gt;iTokenBuggyTests_TestInfo_gAccount</title>
<path fill="none" stroke="black" d="M1438.41,-440.24C1481.11,-405.92 1587.04,-320.74 1637.47,-280.19"/>
<polygon fill="black" stroke="black" points="1639.75,-282.84 1645.35,-273.85 1635.37,-277.39 1639.75,-282.84"/>
</g>
<!-- iTokenBuggyTests_MG_sampleFMapOpt -->
<g id="node19" class="node">
<title>iTokenBuggyTests_MG_sampleFMapOpt</title>
<g id="a_node19"><a xlink:href="iTokenBuggyTests.html#MG.sampleFMapOpt" xlink:title="sampleFMapOpt">
<ellipse fill="#f070d1" stroke="black" cx="1281" cy="-257.05" rx="87.99" ry="18"/>
<text text-anchor="middle" x="1281" y="-253.35" font-family="Times,serif" font-size="14.00">sampleFMapOpt</text>
</a>
</g>
</g>
<!-- iTokenBuggyTests_MG_gTransfer_from&#45;&gt;iTokenBuggyTests_MG_sampleFMapOpt -->
<g id="edge22" class="edge">
<title>iTokenBuggyTests_MG_gTransfer_from&#45;&gt;iTokenBuggyTests_MG_sampleFMapOpt</title>
<path fill="none" stroke="black" d="M1281,-437.91C1281,-403.71 1281,-326.74 1281,-285.45"/>
<polygon fill="black" stroke="black" points="1284.5,-285.29 1281,-275.29 1277.5,-285.29 1284.5,-285.29"/>
</g>
<!-- iTokenBuggyTests_sum_balances_unchanged -->
<g id="node21" class="node">
<title>iTokenBuggyTests_sum_balances_unchanged</title>
<g id="a_node21"><a xlink:href="iTokenBuggyTests.html#sum_balances_unchanged" xlink:title="sum_balances_unchanged">
<ellipse fill="#f070d1" stroke="black" cx="2662" cy="-1191.05" rx="129.98" ry="18"/>
<ellipse fill="none" stroke="black" cx="2662" cy="-1191.05" rx="133.98" ry="22"/>
<ellipse fill="none" stroke="black" cx="2662" cy="-1191.05" rx="137.98" ry="26"/>
<text text-anchor="middle" x="2662" y="-1187.35" font-family="Times,serif" font-size="14.00">sum_balances_unchanged</text>
</a>
</g>
</g>
<!-- iTokenBuggyTests_msg_is_not_mint_or_burn -->
<g id="node22" class="node">
<title>iTokenBuggyTests_msg_is_not_mint_or_burn</title>
<g id="a_node22"><a xlink:href="iTokenBuggyTests.html#msg_is_not_mint_or_burn" xlink:title="msg_is_not_mint_or_burn">
<ellipse fill="#f070d1" stroke="black" cx="2370" cy="-1191.05" rx="128.08" ry="18"/>
<ellipse fill="none" stroke="black" cx="2370" cy="-1191.05" rx="132.08" ry="22"/>
<ellipse fill="none" stroke="black" cx="2370" cy="-1191.05" rx="136.08" ry="26"/>
<text text-anchor="middle" x="2370" y="-1187.35" font-family="Times,serif" font-size="14.00">msg_is_not_mint_or_burn</text>
</a>
</g>
</g>
<!-- iTokenBuggyTests_token_supply_preserved -->
<g id="node23" class="node">
<title>iTokenBuggyTests_token_supply_preserved</title>
<g id="a_node23"><a xlink:href="iTokenBuggyTests.html#token_supply_preserved" xlink:title="token_supply_preserved">
<ellipse fill="#ffb57f" stroke="black" cx="2011" cy="-456.05" rx="122.69" ry="18"/>
<ellipse fill="none" stroke="black" cx="2011" cy="-456.05" rx="126.68" ry="22"/>
<ellipse fill="none" stroke="black" cx="2011" cy="-456.05" rx="130.68" ry="26"/>
<text text-anchor="middle" x="2011" y="-452.35" font-family="Times,serif" font-size="14.00">token_supply_preserved</text>
</a>
</g>
</g>
<!-- iTokenBuggyTests_sum_balances_eq_init_supply -->
<g id="node25" class="node">
<title>iTokenBuggyTests_sum_balances_eq_init_supply</title>
<g id="a_node25"><a xlink:href="iTokenBuggyTests.html#sum_balances_eq_init_supply" xlink:title="sum_balances_eq_init_supply">
<ellipse fill="#f070d1" stroke="black" cx="2177" cy="-257.05" rx="145.67" ry="18"/>
<text text-anchor="middle" x="2177" y="-253.35" font-family="Times,serif" font-size="14.00">sum_balances_eq_init_supply</text>
</a>
</g>
</g>
<!-- iTokenBuggyTests_token_supply_preserved&#45;&gt;iTokenBuggyTests_sum_balances_eq_init_supply -->
<g id="edge23" class="edge">
<title>iTokenBuggyTests_token_supply_preserved&#45;&gt;iTokenBuggyTests_sum_balances_eq_init_supply</title>
<path fill="none" stroke="black" d="M2032.02,-430.1C2063.9,-392.27 2124.11,-320.82 2155.98,-283"/>
<polygon fill="black" stroke="black" points="2158.93,-284.92 2162.7,-275.02 2153.58,-280.41 2158.93,-284.92"/>
</g>
<!-- iTokenBuggyTests_get_state -->
<g id="node27" class="node">
<title>iTokenBuggyTests_get_state</title>
<g id="a_node27"><a xlink:href="iTokenBuggyTests.html#get_state" xlink:title="get_state">
<ellipse fill="#f070d1" stroke="black" cx="1959" cy="-257.05" rx="53.89" ry="18"/>
<text text-anchor="middle" x="1959" y="-253.35" font-family="Times,serif" font-size="14.00">get_state</text>
</a>
</g>
</g>
<!-- iTokenBuggyTests_token_supply_preserved&#45;&gt;iTokenBuggyTests_get_state -->
<g id="edge24" class="edge">
<title>iTokenBuggyTests_token_supply_preserved&#45;&gt;iTokenBuggyTests_get_state</title>
<path fill="none" stroke="black" d="M2004.31,-429.7C1994.48,-392.46 1976.22,-323.28 1966.14,-285.1"/>
<polygon fill="black" stroke="black" points="1969.46,-283.98 1963.53,-275.21 1962.7,-285.77 1969.46,-283.98"/>
</g>
<!-- iTokenBuggyTests_genBuggyTokenChainSized -->
<g id="node24" class="node">
<title>iTokenBuggyTests_genBuggyTokenChainSized</title>
<g id="a_node24"><a xlink:href="iTokenBuggyTests.html#genBuggyTokenChainSized" xlink:title="genBuggyTokenChainSized">
<ellipse fill="#f070d1" stroke="black" cx="569" cy="-1191.05" rx="137.27" ry="18"/>
<ellipse fill="none" stroke="black" cx="569" cy="-1191.05" rx="141.27" ry="22"/>
<ellipse fill="none" stroke="black" cx="569" cy="-1191.05" rx="145.28" ry="26"/>
<text text-anchor="middle" x="569" y="-1187.35" font-family="Times,serif" font-size="14.00">genBuggyTokenChainSized</text>
</a>
</g>
</g>
<!-- iTokenBuggyTests_genBuggyTokenChainSized&#45;&gt;iTokenBuggyTests_TN_gChain_ -->
<g id="edge25" class="edge">
<title>iTokenBuggyTests_genBuggyTokenChainSized&#45;&gt;iTokenBuggyTests_TN_gChain_</title>
<path fill="none" stroke="black" d="M641.55,-1168.49C766.2,-1131.45 1017.6,-1056.75 1121.47,-1025.88"/>
<polygon fill="black" stroke="black" points="1122.76,-1029.15 1131.34,-1022.94 1120.76,-1022.44 1122.76,-1029.15"/>
</g>
<!-- iTokenBuggyTests_genBuggyTokenChainSized&#45;&gt;iTokenBuggyTests_token_cb -->
<g id="edge26" class="edge">
<title>iTokenBuggyTests_genBuggyTokenChainSized&#45;&gt;iTokenBuggyTests_token_cb</title>
<path fill="none" stroke="black" d="M577.43,-1164.85C608.12,-1073.1 713.75,-757.35 745.14,-663.54"/>
<polygon fill="black" stroke="black" points="748.49,-664.54 748.35,-653.95 741.86,-662.32 748.49,-664.54"/>
</g>
<!-- iTokenBuggyTests_sum_balances_eq_init_supply_checker -->
<g id="node26" class="node">
<title>iTokenBuggyTests_sum_balances_eq_init_supply_checker</title>
<g id="a_node26"><a xlink:href="iTokenBuggyTests.html#sum_balances_eq_init_supply_checker" xlink:title="sum_balances_eq_init_supply_checker">
<ellipse fill="#f070d1" stroke="black" cx="211" cy="-1191.05" rx="186.57" ry="18"/>
<ellipse fill="none" stroke="black" cx="211" cy="-1191.05" rx="190.57" ry="22"/>
<ellipse fill="none" stroke="black" cx="211" cy="-1191.05" rx="194.57" ry="26"/>
<text text-anchor="middle" x="211" y="-1187.35" font-family="Times,serif" font-size="14.00">sum_balances_eq_init_supply_checker</text>
</a>
</g>
</g>
<!-- iTokenBuggyTests_get_state&#45;&gt;iTokenBuggyTests_token_caddr -->
<g id="edge27" class="edge">
<title>iTokenBuggyTests_get_state&#45;&gt;iTokenBuggyTests_token_caddr</title>
<path fill="none" stroke="black" d="M1945.43,-239.62C1919.47,-208.18 1862.61,-139.33 1832.17,-102.48"/>
<polygon fill="black" stroke="black" points="1834.81,-100.18 1825.75,-94.7 1829.42,-104.64 1834.81,-100.18"/>
</g>
<!-- iTokenBuggyTests_checker_get_state -->
<g id="node28" class="node">
<title>iTokenBuggyTests_checker_get_state</title>
<g id="a_node28"><a xlink:href="iTokenBuggyTests.html#checker_get_state" xlink:title="checker_get_state">
<ellipse fill="#f070d1" stroke="black" cx="826" cy="-257.05" rx="94.46" ry="18"/>
<ellipse fill="none" stroke="black" cx="826" cy="-257.05" rx="98.47" ry="22"/>
<ellipse fill="none" stroke="black" cx="826" cy="-257.05" rx="102.48" ry="26"/>
<text text-anchor="middle" x="826" y="-253.35" font-family="Times,serif" font-size="14.00">checker_get_state</text>
</a>
</g>
</g>
<!-- iTokenBuggyTests_checker_get_state&#45;&gt;iTokenBuggyTests_token_caddr -->
<g id="edge28" class="edge">
<title>iTokenBuggyTests_checker_get_state&#45;&gt;iTokenBuggyTests_token_caddr</title>
<path fill="none" stroke="black" d="M898,-238.46C909.35,-235.86 920.98,-233.31 932,-231.05 1233.73,-169.3 1596.95,-111.27 1744.64,-88.36"/>
<polygon fill="black" stroke="black" points="1745.55,-91.76 1754.9,-86.77 1744.48,-84.84 1745.55,-91.76"/>
</g>
<!-- iTokenBuggyTests_token_setup -->
<g id="node31" class="node">
<title>iTokenBuggyTests_token_setup</title>
<g id="a_node31"><a xlink:href="iTokenBuggyTests.html#token_setup" xlink:title="token_setup">
<ellipse fill="#f070d1" stroke="black" cx="754" cy="-456.05" rx="66.89" ry="18"/>
<text text-anchor="middle" x="754" y="-452.35" font-family="Times,serif" font-size="14.00">token_setup</text>
</a>
</g>
</g>
<!-- iTokenBuggyTests_token_cb&#45;&gt;iTokenBuggyTests_token_setup -->
<g id="edge29" class="edge">
<title>iTokenBuggyTests_token_cb&#45;&gt;iTokenBuggyTests_token_setup</title>
<path fill="none" stroke="black" d="M754,-617.98C754,-587.02 754,-521.35 754,-484.18"/>
<polygon fill="black" stroke="black" points="757.5,-484.07 754,-474.07 750.5,-484.07 757.5,-484.07"/>
</g>
</g>
</svg>
