<?xml version="1.0" encoding="UTF-8" standalone="no"?>
<!DOCTYPE svg PUBLIC "-//W3C//DTD SVG 1.1//EN"
 "http://www.w3.org/Graphics/SVG/1.1/DTD/svg11.dtd">
<!-- Generated by graphviz version 2.43.0 (0)
 -->
<!-- Title: CounterEmbed Pages: 1 -->
<svg width="1440pt" height="724pt"
 viewBox="0.00 0.00 1440.00 724.00" xmlns="http://www.w3.org/2000/svg" xmlns:xlink="http://www.w3.org/1999/xlink">
<g id="graph0" class="graph" transform="scale(1 1) rotate(0) translate(4 720)">
<title>CounterEmbed</title>
<polygon fill="white" stroke="transparent" points="-4,4 -4,-720 1436,-720 1436,4 -4,4"/>
<g id="clust1" class="cluster">
<title>cluster_CounterEmbed</title>
<polygon fill="#ffffc3" stroke="black" points="8,-18.72 8,-697.28 1424,-697.28 1424,-18.72 8,-18.72"/>
<text text-anchor="middle" x="70.5" y="-682.08" font-family="Times,serif" font-size="14.00">CounterEmbed</text>
</g>
<g id="clust2" class="cluster">
<title>cluster_CounterEmbed_Counter</title>
<polygon fill="#ffffa3" stroke="black" points="192,-37.44 192,-624.75 1416,-624.75 1416,-37.44 192,-37.44"/>
<text text-anchor="middle" x="229" y="-609.55" font-family="Times,serif" font-size="14.00">Counter</text>
</g>
<!-- CounterEmbed_Counter_counter -->
<g id="node1" class="node">
<title>CounterEmbed_Counter_counter</title>
<g id="a_node1"><a xlink:href="CounterEmbed.html#Counter.counter" xlink:title="counter">
<ellipse fill="#f070d1" stroke="black" cx="1354" cy="-285.72" rx="46.27" ry="18"/>
<ellipse fill="none" stroke="black" cx="1354" cy="-285.72" rx="50.28" ry="22"/>
<ellipse fill="none" stroke="black" cx="1354" cy="-285.72" rx="54.29" ry="26"/>
<text text-anchor="middle" x="1354" y="-282.02" font-family="Times,serif" font-size="14.00">counter</text>
</a>
</g>
</g>
<!-- CounterEmbed_Counter_msg_coq -->
<g id="node8" class="node">
<title>CounterEmbed_Counter_msg_coq</title>
<g id="a_node8"><a xlink:href="CounterEmbed.html#Counter.msg_coq" xlink:title="msg_coq">
<ellipse fill="#e2cdfa" stroke="black" cx="1152" cy="-98.72" rx="50.89" ry="18"/>
<text text-anchor="middle" x="1152" y="-95.02" font-family="Times,serif" font-size="14.00">msg_coq</text>
</a>
</g>
</g>
<!-- CounterEmbed_Counter_counter&#45;&gt;CounterEmbed_Counter_msg_coq -->
<g id="edge1" class="edge">
<title>CounterEmbed_Counter_counter&#45;&gt;CounterEmbed_Counter_msg_coq</title>
<path fill="none" stroke="black" d="M1329.63,-262.4C1291.13,-227.14 1216.59,-158.88 1177.44,-123.01"/>
<polygon fill="black" stroke="black" points="1179.38,-120.05 1169.64,-115.88 1174.65,-125.21 1179.38,-120.05"/>
</g>
<!-- CounterEmbed_Counter__update_balance -->
<g id="node11" class="node">
<title>CounterEmbed_Counter__update_balance</title>
<g id="a_node11"><a xlink:href="CounterEmbed.html#Counter._update_balance" xlink:title="_update_balance">
<ellipse fill="#f070d1" stroke="black" cx="1321" cy="-98.72" rx="87.18" ry="18"/>
<text text-anchor="middle" x="1321" y="-95.02" font-family="Times,serif" font-size="14.00">_update_balance</text>
</a>
</g>
</g>
<!-- CounterEmbed_Counter_counter&#45;&gt;CounterEmbed_Counter__update_balance -->
<g id="edge2" class="edge">
<title>CounterEmbed_Counter_counter&#45;&gt;CounterEmbed_Counter__update_balance</title>
<path fill="none" stroke="black" d="M1349.55,-259.77C1343.38,-225.18 1332.27,-162.88 1325.88,-127.06"/>
<polygon fill="black" stroke="black" points="1329.26,-126.08 1324.06,-116.85 1322.37,-127.31 1329.26,-126.08"/>
</g>
<!-- CounterEmbed_Counter_msg_coq_sind -->
<g id="node2" class="node">
<title>CounterEmbed_Counter_msg_coq_sind</title>
<g id="a_node2"><a xlink:href="CounterEmbed.html#Counter.msg_coq_sind" xlink:title="msg_coq_sind">
<ellipse fill="#f070d1" stroke="black" cx="1199" cy="-285.72" rx="74.96" ry="18"/>
<ellipse fill="none" stroke="black" cx="1199" cy="-285.72" rx="78.98" ry="22"/>
<ellipse fill="none" stroke="black" cx="1199" cy="-285.72" rx="82.99" ry="26"/>
<text text-anchor="middle" x="1199" y="-282.02" font-family="Times,serif" font-size="14.00">msg_coq_sind</text>
</a>
</g>
</g>
<!-- CounterEmbed_Counter_Dec_coq -->
<g id="node6" class="node">
<title>CounterEmbed_Counter_Dec_coq</title>
<g id="a_node6"><a xlink:href="CounterEmbed.html#Counter.Dec_coq" xlink:title="Dec_coq">
<ellipse fill="#7faaff" stroke="black" cx="919" cy="-98.72" rx="48.99" ry="18"/>
<text text-anchor="middle" x="919" y="-95.02" font-family="Times,serif" font-size="14.00">Dec_coq</text>
</a>
</g>
</g>
<!-- CounterEmbed_Counter_msg_coq_sind&#45;&gt;CounterEmbed_Counter_Dec_coq -->
<g id="edge3" class="edge">
<title>CounterEmbed_Counter_msg_coq_sind&#45;&gt;CounterEmbed_Counter_Dec_coq</title>
<path fill="none" stroke="black" d="M1164.67,-262.03C1109.86,-225.82 1003.41,-155.49 950.47,-120.51"/>
<polygon fill="black" stroke="black" points="952.11,-117.4 941.84,-114.81 948.25,-123.24 952.11,-117.4"/>
</g>
<!-- CounterEmbed_Counter_Inc_coq -->
<g id="node7" class="node">
<title>CounterEmbed_Counter_Inc_coq</title>
<g id="a_node7"><a xlink:href="CounterEmbed.html#Counter.Inc_coq" xlink:title="Inc_coq">
<ellipse fill="#7faaff" stroke="black" cx="1031" cy="-98.72" rx="45.49" ry="18"/>
<text text-anchor="middle" x="1031" y="-95.02" font-family="Times,serif" font-size="14.00">Inc_coq</text>
</a>
</g>
</g>
<!-- CounterEmbed_Counter_msg_coq_sind&#45;&gt;CounterEmbed_Counter_Inc_coq -->
<g id="edge4" class="edge">
<title>CounterEmbed_Counter_msg_coq_sind&#45;&gt;CounterEmbed_Counter_Inc_coq</title>
<path fill="none" stroke="black" d="M1177.04,-260.53C1144.71,-224.93 1084.67,-158.82 1052.57,-123.47"/>
<polygon fill="black" stroke="black" points="1055.1,-121.05 1045.79,-116 1049.92,-125.76 1055.1,-121.05"/>
</g>
<!-- CounterEmbed_Counter_msg_coq_sind&#45;&gt;CounterEmbed_Counter_msg_coq -->
<g id="edge5" class="edge">
<title>CounterEmbed_Counter_msg_coq_sind&#45;&gt;CounterEmbed_Counter_msg_coq</title>
<path fill="none" stroke="black" d="M1192.66,-259.77C1183.84,-225.03 1167.91,-162.34 1158.83,-126.6"/>
<polygon fill="black" stroke="black" points="1162.21,-125.69 1156.35,-116.85 1155.42,-127.41 1162.21,-125.69"/>
</g>
<!-- CounterEmbed_Counter_msg_coq_rec -->
<g id="node3" class="node">
<title>CounterEmbed_Counter_msg_coq_rec</title>
<g id="a_node3"><a xlink:href="CounterEmbed.html#Counter.msg_coq_rec" xlink:title="msg_coq_rec">
<ellipse fill="#f070d1" stroke="black" cx="1174" cy="-491.72" rx="69.58" ry="18"/>
<ellipse fill="none" stroke="black" cx="1174" cy="-491.72" rx="73.59" ry="22"/>
<ellipse fill="none" stroke="black" cx="1174" cy="-491.72" rx="77.59" ry="26"/>
<text text-anchor="middle" x="1174" y="-488.02" font-family="Times,serif" font-size="14.00">msg_coq_rec</text>
</a>
</g>
</g>
<!-- CounterEmbed_Counter_msg_coq_rect -->
<g id="node5" class="node">
<title>CounterEmbed_Counter_msg_coq_rect</title>
<g id="a_node5"><a xlink:href="CounterEmbed.html#Counter.msg_coq_rect" xlink:title="msg_coq_rect">
<ellipse fill="#f070d1" stroke="black" cx="1025" cy="-285.72" rx="73.39" ry="18"/>
<text text-anchor="middle" x="1025" y="-282.02" font-family="Times,serif" font-size="14.00">msg_coq_rect</text>
</a>
</g>
</g>
<!-- CounterEmbed_Counter_msg_coq_rec&#45;&gt;CounterEmbed_Counter_msg_coq_rect -->
<g id="edge6" class="edge">
<title>CounterEmbed_Counter_msg_coq_rec&#45;&gt;CounterEmbed_Counter_msg_coq_rect</title>
<path fill="none" stroke="black" d="M1156.03,-466.11C1127.53,-427.1 1072.27,-351.44 1043.47,-312"/>
<polygon fill="black" stroke="black" points="1046.13,-309.72 1037.41,-303.71 1040.48,-313.85 1046.13,-309.72"/>
</g>
<!-- CounterEmbed_Counter_msg_coq_ind -->
<g id="node4" class="node">
<title>CounterEmbed_Counter_msg_coq_ind</title>
<g id="a_node4"><a xlink:href="CounterEmbed.html#Counter.msg_coq_ind" xlink:title="msg_coq_ind">
<ellipse fill="#7fffd4" stroke="black" cx="856" cy="-285.72" rx="69.58" ry="18"/>
<ellipse fill="none" stroke="black" cx="856" cy="-285.72" rx="73.59" ry="22"/>
<ellipse fill="none" stroke="black" cx="856" cy="-285.72" rx="77.59" ry="26"/>
<text text-anchor="middle" x="856" y="-282.02" font-family="Times,serif" font-size="14.00">msg_coq_ind</text>
</a>
</g>
</g>
<!-- CounterEmbed_Counter_msg_coq_ind&#45;&gt;CounterEmbed_Counter_Dec_coq -->
<g id="edge7" class="edge">
<title>CounterEmbed_Counter_msg_coq_ind&#45;&gt;CounterEmbed_Counter_Dec_coq</title>
<path fill="none" stroke="black" d="M864.5,-259.77C876.36,-224.94 897.79,-162.02 909.94,-126.32"/>
<polygon fill="black" stroke="black" points="913.34,-127.2 913.25,-116.6 906.71,-124.94 913.34,-127.2"/>
</g>
<!-- CounterEmbed_Counter_msg_coq_ind&#45;&gt;CounterEmbed_Counter_Inc_coq -->
<g id="edge8" class="edge">
<title>CounterEmbed_Counter_msg_coq_ind&#45;&gt;CounterEmbed_Counter_Inc_coq</title>
<path fill="none" stroke="black" d="M878.88,-260.53C912.64,-224.84 975.41,-158.48 1008.79,-123.2"/>
<polygon fill="black" stroke="black" points="1011.5,-125.42 1015.83,-115.75 1006.42,-120.61 1011.5,-125.42"/>
</g>
<!-- CounterEmbed_Counter_msg_coq_ind&#45;&gt;CounterEmbed_Counter_msg_coq -->
<g id="edge9" class="edge">
<title>CounterEmbed_Counter_msg_coq_ind&#45;&gt;CounterEmbed_Counter_msg_coq</title>
<path fill="none" stroke="black" d="M891.41,-262.59C949.26,-226.43 1063.21,-155.21 1119.27,-120.17"/>
<polygon fill="black" stroke="black" points="1121.45,-122.94 1128.08,-114.67 1117.74,-117 1121.45,-122.94"/>
</g>
<!-- CounterEmbed_Counter_msg_coq_rect&#45;&gt;CounterEmbed_Counter_Dec_coq -->
<g id="edge10" class="edge">
<title>CounterEmbed_Counter_msg_coq_rect&#45;&gt;CounterEmbed_Counter_Dec_coq</title>
<path fill="none" stroke="black" d="M1015.22,-267.65C996.55,-235.07 955.77,-163.89 933.77,-125.5"/>
<polygon fill="black" stroke="black" points="936.61,-123.42 928.61,-116.48 930.54,-126.9 936.61,-123.42"/>
</g>
<!-- CounterEmbed_Counter_msg_coq_rect&#45;&gt;CounterEmbed_Counter_Inc_coq -->
<g id="edge11" class="edge">
<title>CounterEmbed_Counter_msg_coq_rect&#45;&gt;CounterEmbed_Counter_Inc_coq</title>
<path fill="none" stroke="black" d="M1025.55,-267.65C1026.6,-235.43 1028.87,-165.45 1030.12,-126.77"/>
<polygon fill="black" stroke="black" points="1033.62,-126.86 1030.45,-116.75 1026.63,-126.63 1033.62,-126.86"/>
</g>
<!-- CounterEmbed_Counter_msg_coq_rect&#45;&gt;CounterEmbed_Counter_msg_coq -->
<g id="edge12" class="edge">
<title>CounterEmbed_Counter_msg_coq_rect&#45;&gt;CounterEmbed_Counter_msg_coq</title>
<path fill="none" stroke="black" d="M1036.72,-267.65C1059.18,-234.94 1108.36,-163.29 1134.64,-125.01"/>
<polygon fill="black" stroke="black" points="1137.72,-126.71 1140.49,-116.48 1131.95,-122.75 1137.72,-126.71"/>
</g>
<!-- CounterEmbed_Counter_CounterModule -->
<g id="node9" class="node">
<title>CounterEmbed_Counter_CounterModule</title>
<g id="a_node9"><a xlink:href="CounterEmbed.html#Counter.CounterModule" xlink:title="CounterModule">
<ellipse fill="#f070d1" stroke="black" cx="987" cy="-491.72" rx="83.37" ry="18"/>
<ellipse fill="none" stroke="black" cx="987" cy="-491.72" rx="87.38" ry="22"/>
<ellipse fill="none" stroke="black" cx="987" cy="-491.72" rx="91.39" ry="26"/>
<text text-anchor="middle" x="987" y="-488.02" font-family="Times,serif" font-size="14.00">CounterModule</text>
</a>
</g>
</g>
<!-- CounterEmbed_Counter_counter_syn -->
<g id="node10" class="node">
<title>CounterEmbed_Counter_counter_syn</title>
<g id="a_node10"><a xlink:href="CounterEmbed.html#Counter.counter_syn" xlink:title="counter_syn">
<ellipse fill="#f070d1" stroke="black" cx="469" cy="-285.72" rx="66.89" ry="18"/>
<text text-anchor="middle" x="469" y="-282.02" font-family="Times,serif" font-size="14.00">counter_syn</text>
</a>
</g>
</g>
<!-- CounterEmbed_Counter_CounterModule&#45;&gt;CounterEmbed_Counter_counter_syn -->
<g id="edge13" class="edge">
<title>CounterEmbed_Counter_CounterModule&#45;&gt;CounterEmbed_Counter_counter_syn</title>
<path fill="none" stroke="black" d="M934.96,-470.22C833.51,-430.27 610.84,-342.58 514.69,-304.71"/>
<polygon fill="black" stroke="black" points="515.83,-301.4 505.25,-300.99 513.27,-307.91 515.83,-301.4"/>
</g>
<!-- CounterEmbed_Counter_update_balance_syn -->
<g id="node12" class="node">
<title>CounterEmbed_Counter_update_balance_syn</title>
<g id="a_node12"><a xlink:href="CounterEmbed.html#Counter.update_balance_syn" xlink:title="update_balance_syn">
<ellipse fill="#f070d1" stroke="black" cx="657" cy="-285.72" rx="103.18" ry="18"/>
<text text-anchor="middle" x="657" y="-282.02" font-family="Times,serif" font-size="14.00">update_balance_syn</text>
</a>
</g>
</g>
<!-- CounterEmbed_Counter_CounterModule&#45;&gt;CounterEmbed_Counter_update_balance_syn -->
<g id="edge14" class="edge">
<title>CounterEmbed_Counter_CounterModule&#45;&gt;CounterEmbed_Counter_update_balance_syn</title>
<path fill="none" stroke="black" d="M950.11,-467.91C886.14,-428.37 755.49,-347.61 692.51,-308.67"/>
<polygon fill="black" stroke="black" points="694.07,-305.52 683.72,-303.24 690.39,-311.47 694.07,-305.52"/>
</g>
<!-- CounterEmbed_Counter_msg_syn -->
<g id="node14" class="node">
<title>CounterEmbed_Counter_msg_syn</title>
<g id="a_node14"><a xlink:href="CounterEmbed.html#Counter.msg_syn" xlink:title="msg_syn">
<ellipse fill="#f070d1" stroke="black" cx="251" cy="-285.72" rx="50.89" ry="18"/>
<text text-anchor="middle" x="251" y="-282.02" font-family="Times,serif" font-size="14.00">msg_syn</text>
</a>
</g>
</g>
<!-- CounterEmbed_Counter_CounterModule&#45;&gt;CounterEmbed_Counter_msg_syn -->
<g id="edge15" class="edge">
<title>CounterEmbed_Counter_CounterModule&#45;&gt;CounterEmbed_Counter_msg_syn</title>
<path fill="none" stroke="black" d="M920.75,-473.72C762.16,-432.96 369.5,-331.55 311,-311.72 304.39,-309.48 297.48,-306.86 290.79,-304.18"/>
<polygon fill="black" stroke="black" points="291.8,-300.81 281.22,-300.25 289.14,-307.29 291.8,-300.81"/>
</g>
<!-- CounterEmbed_Counter_addr -->
<g id="node18" class="node">
<title>CounterEmbed_Counter_addr</title>
<g id="a_node18"><a xlink:href="CounterEmbed.html#Counter.addr" xlink:title="addr">
<ellipse fill="#f070d1" stroke="black" cx="352" cy="-285.72" rx="32.49" ry="18"/>
<text text-anchor="middle" x="352" y="-282.02" font-family="Times,serif" font-size="14.00">addr</text>
</a>
</g>
</g>
<!-- CounterEmbed_Counter_CounterModule&#45;&gt;CounterEmbed_Counter_addr -->
<g id="edge16" class="edge">
<title>CounterEmbed_Counter_CounterModule&#45;&gt;CounterEmbed_Counter_addr</title>
<path fill="none" stroke="black" d="M922.07,-473.41C789.02,-437.56 489.8,-354.96 393,-311.72 388.86,-309.87 384.64,-307.68 380.54,-305.38"/>
<polygon fill="black" stroke="black" points="382.27,-302.33 371.88,-300.24 378.7,-308.35 382.27,-302.33"/>
</g>
<!-- CounterEmbed_Counter_Dec -->
<g id="node15" class="node">
<title>CounterEmbed_Counter_Dec</title>
<g id="a_node15"><a xlink:href="CounterEmbed.html#Counter.Dec" xlink:title="Dec">
<ellipse fill="#f070d1" stroke="black" cx="395" cy="-98.72" rx="28.7" ry="18"/>
<text text-anchor="middle" x="395" y="-95.02" font-family="Times,serif" font-size="14.00">Dec</text>
</a>
</g>
</g>
<!-- CounterEmbed_Counter_counter_syn&#45;&gt;CounterEmbed_Counter_Dec -->
<g id="edge17" class="edge">
<title>CounterEmbed_Counter_counter_syn&#45;&gt;CounterEmbed_Counter_Dec</title>
<path fill="none" stroke="black" d="M462.17,-267.65C449.2,-235.21 420.91,-164.49 405.51,-125.99"/>
<polygon fill="black" stroke="black" points="408.67,-124.47 401.71,-116.48 402.17,-127.07 408.67,-124.47"/>
</g>
<!-- CounterEmbed_Counter_Inc -->
<g id="node16" class="node">
<title>CounterEmbed_Counter_Inc</title>
<g id="a_node16"><a xlink:href="CounterEmbed.html#Counter.Inc" xlink:title="Inc">
<ellipse fill="#f070d1" stroke="black" cx="242" cy="-98.72" rx="27" ry="18"/>
<text text-anchor="middle" x="242" y="-95.02" font-family="Times,serif" font-size="14.00">Inc</text>
</a>
</g>
</g>
<!-- CounterEmbed_Counter_counter_syn&#45;&gt;CounterEmbed_Counter_Inc -->
<g id="edge18" class="edge">
<title>CounterEmbed_Counter_counter_syn&#45;&gt;CounterEmbed_Counter_Inc</title>
<path fill="none" stroke="black" d="M448.86,-268.3C407.08,-234.25 311.15,-156.08 266.14,-119.4"/>
<polygon fill="black" stroke="black" points="268.32,-116.65 258.36,-113.05 263.9,-122.08 268.32,-116.65"/>
</g>
<!-- CounterEmbed_Counter_st -->
<g id="node20" class="node">
<title>CounterEmbed_Counter_st</title>
<g id="a_node20"><a xlink:href="CounterEmbed.html#Counter.st" xlink:title="st">
<ellipse fill="#f070d1" stroke="black" cx="613" cy="-98.72" rx="27" ry="18"/>
<text text-anchor="middle" x="613" y="-95.02" font-family="Times,serif" font-size="14.00">st</text>
</a>
</g>
</g>
<!-- CounterEmbed_Counter_counter_syn&#45;&gt;CounterEmbed_Counter_st -->
<g id="edge19" class="edge">
<title>CounterEmbed_Counter_counter_syn&#45;&gt;CounterEmbed_Counter_st</title>
<path fill="none" stroke="black" d="M482.03,-267.98C507.84,-234.82 565.5,-160.74 594.95,-122.91"/>
<polygon fill="black" stroke="black" points="597.74,-125.03 601.12,-114.99 592.21,-120.73 597.74,-125.03"/>
</g>
<!-- CounterEmbed_Counter_n -->
<g id="node22" class="node">
<title>CounterEmbed_Counter_n</title>
<g id="a_node22"><a xlink:href="CounterEmbed.html#Counter.n" xlink:title="n">
<ellipse fill="#f070d1" stroke="black" cx="541" cy="-98.72" rx="27" ry="18"/>
<text text-anchor="middle" x="541" y="-95.02" font-family="Times,serif" font-size="14.00">n</text>
</a>
</g>
</g>
<!-- CounterEmbed_Counter_counter_syn&#45;&gt;CounterEmbed_Counter_n -->
<g id="edge20" class="edge">
<title>CounterEmbed_Counter_counter_syn&#45;&gt;CounterEmbed_Counter_n</title>
<path fill="none" stroke="black" d="M475.64,-267.65C488.3,-235.13 515.93,-164.14 530.89,-125.69"/>
<polygon fill="black" stroke="black" points="534.21,-126.81 534.58,-116.22 527.69,-124.27 534.21,-126.81"/>
</g>
<!-- CounterEmbed_Counter_m -->
<g id="node23" class="node">
<title>CounterEmbed_Counter_m</title>
<g id="a_node23"><a xlink:href="CounterEmbed.html#Counter.m" xlink:title="m">
<ellipse fill="#f070d1" stroke="black" cx="469" cy="-98.72" rx="27" ry="18"/>
<text text-anchor="middle" x="469" y="-95.02" font-family="Times,serif" font-size="14.00">m</text>
</a>
</g>
</g>
<!-- CounterEmbed_Counter_counter_syn&#45;&gt;CounterEmbed_Counter_m -->
<g id="edge21" class="edge">
<title>CounterEmbed_Counter_counter_syn&#45;&gt;CounterEmbed_Counter_m</title>
<path fill="none" stroke="black" d="M469,-267.65C469,-235.43 469,-165.45 469,-126.77"/>
<polygon fill="black" stroke="black" points="472.5,-126.75 469,-116.75 465.5,-126.75 472.5,-126.75"/>
</g>
<!-- CounterEmbed_Counter_msg -->
<g id="node24" class="node">
<title>CounterEmbed_Counter_msg</title>
<g id="a_node24"><a xlink:href="CounterEmbed.html#Counter.msg" xlink:title="msg">
<ellipse fill="#f070d1" stroke="black" cx="318" cy="-98.72" rx="30.59" ry="18"/>
<text text-anchor="middle" x="318" y="-95.02" font-family="Times,serif" font-size="14.00">msg</text>
</a>
</g>
</g>
<!-- CounterEmbed_Counter_counter_syn&#45;&gt;CounterEmbed_Counter_msg -->
<g id="edge22" class="edge">
<title>CounterEmbed_Counter_counter_syn&#45;&gt;CounterEmbed_Counter_msg</title>
<path fill="none" stroke="black" d="M455.33,-267.98C428.34,-234.9 368.11,-161.11 337.16,-123.2"/>
<polygon fill="black" stroke="black" points="339.71,-120.78 330.67,-115.24 334.28,-125.2 339.71,-120.78"/>
</g>
<!-- CounterEmbed_Counter_new_balance -->
<g id="node17" class="node">
<title>CounterEmbed_Counter_new_balance</title>
<g id="a_node17"><a xlink:href="CounterEmbed.html#Counter.new_balance" xlink:title="new_balance">
<ellipse fill="#f070d1" stroke="black" cx="728" cy="-98.72" rx="69.59" ry="18"/>
<text text-anchor="middle" x="728" y="-95.02" font-family="Times,serif" font-size="14.00">new_balance</text>
</a>
</g>
</g>
<!-- CounterEmbed_Counter_update_balance_syn&#45;&gt;CounterEmbed_Counter_new_balance -->
<g id="edge23" class="edge">
<title>CounterEmbed_Counter_update_balance_syn&#45;&gt;CounterEmbed_Counter_new_balance</title>
<path fill="none" stroke="black" d="M663.55,-267.65C675.97,-235.29 703,-164.85 717.81,-126.28"/>
<polygon fill="black" stroke="black" points="721.15,-127.34 721.46,-116.75 714.61,-124.83 721.15,-127.34"/>
</g>
<!-- CounterEmbed_Counter_update_balance_syn&#45;&gt;CounterEmbed_Counter_st -->
<g id="edge24" class="edge">
<title>CounterEmbed_Counter_update_balance_syn&#45;&gt;CounterEmbed_Counter_st</title>
<path fill="none" stroke="black" d="M652.94,-267.65C645.28,-235.43 628.63,-165.45 619.43,-126.77"/>
<polygon fill="black" stroke="black" points="622.77,-125.67 617.05,-116.75 615.96,-127.29 622.77,-125.67"/>
</g>
<!-- CounterEmbed_Counter_Σ_ -->
<g id="node13" class="node">
<title>CounterEmbed_Counter_Σ_</title>
<g id="a_node13"><a xlink:href="CounterEmbed.html#Counter.Σ'" xlink:title="\206\163&#39;">
<ellipse fill="#f070d1" stroke="black" cx="822" cy="-491.72" rx="48.18" ry="18"/>
<ellipse fill="none" stroke="black" cx="822" cy="-491.72" rx="52.18" ry="22"/>
<ellipse fill="none" stroke="black" cx="822" cy="-491.72" rx="56.19" ry="26"/>
<text text-anchor="middle" x="822" y="-488.02" font-family="Times,serif" font-size="14.00">206163&#39;</text>
</a>
</g>
</g>
<!-- CounterEmbed_Counter_Σ_&#45;&gt;CounterEmbed_Counter_msg_syn -->
<g id="edge25" class="edge">
<title>CounterEmbed_Counter_Σ_&#45;&gt;CounterEmbed_Counter_msg_syn</title>
<path fill="none" stroke="black" d="M780.12,-474.37C772.45,-471.44 764.5,-468.45 757,-465.72 560,-393.85 506.99,-386.31 311,-311.72 304.62,-309.29 297.91,-306.62 291.38,-303.95"/>
<polygon fill="black" stroke="black" points="292.57,-300.65 281.99,-300.07 289.9,-307.12 292.57,-300.65"/>
</g>
<!-- CounterEmbed_Counter_msg_syn&#45;&gt;CounterEmbed_Counter_Dec -->
<g id="edge26" class="edge">
<title>CounterEmbed_Counter_msg_syn&#45;&gt;CounterEmbed_Counter_Dec</title>
<path fill="none" stroke="black" d="M264.03,-267.98C289.78,-234.9 347.22,-161.11 376.73,-123.2"/>
<polygon fill="black" stroke="black" points="379.54,-125.28 382.92,-115.24 374.01,-120.98 379.54,-125.28"/>
</g>
<!-- CounterEmbed_Counter_msg_syn&#45;&gt;CounterEmbed_Counter_Inc -->
<g id="edge27" class="edge">
<title>CounterEmbed_Counter_msg_syn&#45;&gt;CounterEmbed_Counter_Inc</title>
<path fill="none" stroke="black" d="M250.17,-267.65C248.6,-235.43 245.2,-165.45 243.32,-126.77"/>
<polygon fill="black" stroke="black" points="246.81,-126.57 242.83,-116.75 239.82,-126.91 246.81,-126.57"/>
</g>
<!-- CounterEmbed_Counter_msg_syn&#45;&gt;CounterEmbed_Counter_msg -->
<g id="edge28" class="edge">
<title>CounterEmbed_Counter_msg_syn&#45;&gt;CounterEmbed_Counter_msg</title>
<path fill="none" stroke="black" d="M257.18,-267.65C268.93,-235.21 294.54,-164.49 308.49,-125.99"/>
<polygon fill="black" stroke="black" points="311.81,-127.08 311.93,-116.48 305.23,-124.69 311.81,-127.08"/>
</g>
<!-- CounterEmbed_Counter_new_st -->
<g id="node19" class="node">
<title>CounterEmbed_Counter_new_st</title>
<g id="a_node19"><a xlink:href="CounterEmbed.html#Counter.new_st" xlink:title="new_st">
<ellipse fill="#f070d1" stroke="black" cx="697" cy="-491.72" rx="42.81" ry="18"/>
<ellipse fill="none" stroke="black" cx="697" cy="-491.72" rx="46.8" ry="22"/>
<ellipse fill="none" stroke="black" cx="697" cy="-491.72" rx="50.79" ry="26"/>
<text text-anchor="middle" x="697" y="-488.02" font-family="Times,serif" font-size="14.00">new_st</text>
</a>
</g>
</g>
<!-- CounterEmbed_Counter_own -->
<g id="node21" class="node">
<title>CounterEmbed_Counter_own</title>
<g id="a_node21"><a xlink:href="CounterEmbed.html#Counter.own" xlink:title="own">
<ellipse fill="#f070d1" stroke="black" cx="590" cy="-491.72" rx="29.82" ry="18"/>
<ellipse fill="none" stroke="black" cx="590" cy="-491.72" rx="33.81" ry="22"/>
<ellipse fill="none" stroke="black" cx="590" cy="-491.72" rx="37.79" ry="26"/>
<text text-anchor="middle" x="590" y="-488.02" font-family="Times,serif" font-size="14.00">own</text>
</a>
</g>
</g>
<!-- CounterEmbed_Counter_owner -->
<g id="node25" class="node">
<title>CounterEmbed_Counter_owner</title>
<g id="a_node25"><a xlink:href="CounterEmbed.html#Counter.owner" xlink:title="owner">
<ellipse fill="#f070d1" stroke="black" cx="486" cy="-491.72" rx="39.77" ry="18"/>
<ellipse fill="none" stroke="black" cx="486" cy="-491.72" rx="43.78" ry="22"/>
<ellipse fill="none" stroke="black" cx="486" cy="-491.72" rx="47.79" ry="26"/>
<text text-anchor="middle" x="486" y="-488.02" font-family="Times,serif" font-size="14.00">owner</text>
</a>
</g>
</g>
<!-- CounterEmbed_Counter_MkState -->
<g id="node26" class="node">
<title>CounterEmbed_Counter_MkState</title>
<g id="a_node26"><a xlink:href="CounterEmbed.html#Counter.MkState" xlink:title="MkState">
<ellipse fill="#f070d1" stroke="black" cx="362" cy="-491.72" rx="50.08" ry="18"/>
<ellipse fill="none" stroke="black" cx="362" cy="-491.72" rx="54.09" ry="22"/>
<ellipse fill="none" stroke="black" cx="362" cy="-491.72" rx="58.09" ry="26"/>
<text text-anchor="middle" x="362" y="-488.02" font-family="Times,serif" font-size="14.00">MkState</text>
</a>
</g>
</g>
<!-- CounterEmbed_Counter_state -->
<g id="node27" class="node">
<title>CounterEmbed_Counter_state</title>
<g id="a_node27"><a xlink:href="CounterEmbed.html#Counter.state" xlink:title="state">
<ellipse fill="#f070d1" stroke="black" cx="244" cy="-491.72" rx="34.4" ry="18"/>
<ellipse fill="none" stroke="black" cx="244" cy="-491.72" rx="38.4" ry="22"/>
<ellipse fill="none" stroke="black" cx="244" cy="-491.72" rx="42.39" ry="26"/>
<text text-anchor="middle" x="244" y="-488.02" font-family="Times,serif" font-size="14.00">state</text>
</a>
</g>
</g>
<!-- CounterEmbed_TT -->
<g id="node28" class="node">
<title>CounterEmbed_TT</title>
<g id="a_node28"><a xlink:href="CounterEmbed.html#TT" xlink:title="TT">
<ellipse fill="#f070d1" stroke="black" cx="149" cy="-491.72" rx="27" ry="18"/>
<ellipse fill="none" stroke="black" cx="149" cy="-491.72" rx="31" ry="22"/>
<ellipse fill="none" stroke="black" cx="149" cy="-491.72" rx="35" ry="26"/>
<text text-anchor="middle" x="149" y="-488.02" font-family="Times,serif" font-size="14.00">TT</text>
</a>
</g>
</g>
<!-- CounterEmbed_TTty -->
<g id="node29" class="node">
<title>CounterEmbed_TTty</title>
<g id="a_node29"><a xlink:href="CounterEmbed.html#TTty" xlink:title="TTty">
<ellipse fill="#f070d1" stroke="black" cx="56" cy="-491.72" rx="32.49" ry="18"/>
<ellipse fill="none" stroke="black" cx="56" cy="-491.72" rx="36.49" ry="22"/>
<ellipse fill="none" stroke="black" cx="56" cy="-491.72" rx="40.49" ry="26"/>
<text text-anchor="middle" x="56" y="-488.02" font-family="Times,serif" font-size="14.00">TTty</text>
</a>
</g>
</g>
</g>
</svg>
