<?xml version="1.0" encoding="UTF-8" standalone="no"?>
<!DOCTYPE svg PUBLIC "-//W3C//DTD SVG 1.1//EN"
 "http://www.w3.org/Graphics/SVG/1.1/DTD/svg11.dtd">
<!-- Generated by graphviz version 2.43.0 (0)
 -->
<!-- Title: CrowdfundingExt Pages: 1 -->
<svg width="1541pt" height="775pt"
 viewBox="0.00 0.00 1541.00 774.50" xmlns="http://www.w3.org/2000/svg" xmlns:xlink="http://www.w3.org/1999/xlink">
<g id="graph0" class="graph" transform="scale(1 1) rotate(0) translate(4 770.5)">
<title>CrowdfundingExt</title>
<polygon fill="white" stroke="transparent" points="-4,4 -4,-770.5 1537,-770.5 1537,4 -4,4"/>
<g id="clust1" class="cluster">
<title>cluster_CrowdfundingExt</title>
<polygon fill="#ffffc3" stroke="black" points="8,-15.33 8,-751.17 1525,-751.17 1525,-15.33 8,-15.33"/>
<text text-anchor="middle" x="79.5" y="-735.97" font-family="Times,serif" font-size="14.00">CrowdfundingExt</text>
</g>
<g id="clust2" class="cluster">
<title>cluster_CrowdfundingExt_CrowdfundingContract</title>
<polygon fill="#ffffa3" stroke="black" points="16,-30.66 16,-576.79 1517,-576.79 1517,-30.66 16,-30.66"/>
<text text-anchor="middle" x="106" y="-561.59" font-family="Times,serif" font-size="14.00">CrowdfundingContract</text>
</g>
<g id="clust3" class="cluster">
<title>cluster_CrowdfundingExt_CrowdfundingContract_Init</title>
<polygon fill="#ffff83" stroke="black" points="1123,-205.04 1123,-517.39 1509,-517.39 1509,-205.04 1123,-205.04"/>
<text text-anchor="middle" x="1143.5" y="-502.19" font-family="Times,serif" font-size="14.00">Init</text>
</g>
<g id="clust4" class="cluster">
<title>cluster_CrowdfundingExt_CrowdfundingContract_Receive</title>
<polygon fill="#ffff83" stroke="black" points="732,-45.99 732,-517.39 1115,-517.39 1115,-45.99 732,-45.99"/>
<text text-anchor="middle" x="768" y="-502.19" font-family="Times,serif" font-size="14.00">Receive</text>
</g>
<g id="clust5" class="cluster">
<title>cluster_CrowdfundingExt_CrowdfundingContract_Validate</title>
<polygon fill="#ffff83" stroke="black" points="24,-45.99 24,-189.71 724,-189.71 724,-45.99 24,-45.99"/>
<text text-anchor="middle" x="61" y="-174.51" font-family="Times,serif" font-size="14.00">Validate</text>
</g>
<!-- CrowdfundingExt_CrowdfundingContract_Validate_validate -->
<g id="node1" class="node">
<title>CrowdfundingExt_CrowdfundingContract_Validate_validate</title>
<g id="a_node1"><a xlink:href="CrowdfundingExt.html#CrowdfundingContract.Validate.validate" xlink:title="validate">
<ellipse fill="#f070d1" stroke="black" cx="668" cy="-95.33" rx="48.19" ry="18"/>
<text text-anchor="middle" x="668" y="-91.63" font-family="Times,serif" font-size="14.00">validate</text>
</a>
</g>
</g>
<!-- CrowdfundingExt_CrowdfundingContract_Validate_validate_syn -->
<g id="node2" class="node">
<title>CrowdfundingExt_CrowdfundingContract_Validate_validate_syn</title>
<g id="a_node2"><a xlink:href="CrowdfundingExt.html#CrowdfundingContract.Validate.validate_syn" xlink:title="validate_syn">
<ellipse fill="#f070d1" stroke="black" cx="100" cy="-95.33" rx="68.49" ry="18"/>
<text text-anchor="middle" x="100" y="-91.63" font-family="Times,serif" font-size="14.00">validate_syn</text>
</a>
</g>
</g>
<!-- CrowdfundingExt_CrowdfundingContract_Validate_maybe_bind_unit -->
<g id="node3" class="node">
<title>CrowdfundingExt_CrowdfundingContract_Validate_maybe_bind_unit</title>
<g id="a_node3"><a xlink:href="CrowdfundingExt.html#CrowdfundingContract.Validate.maybe_bind_unit" xlink:title="maybe_bind_unit">
<ellipse fill="#f070d1" stroke="black" cx="513" cy="-95.33" rx="89.08" ry="18"/>
<text text-anchor="middle" x="513" y="-91.63" font-family="Times,serif" font-size="14.00">maybe_bind_unit</text>
</a>
</g>
</g>
<!-- CrowdfundingExt_CrowdfundingContract_Validate_maybe_bind_unit_syn -->
<g id="node4" class="node">
<title>CrowdfundingExt_CrowdfundingContract_Validate_maybe_bind_unit_syn</title>
<g id="a_node4"><a xlink:href="CrowdfundingExt.html#CrowdfundingContract.Validate.maybe_bind_unit_syn" xlink:title="maybe_bind_unit_syn">
<ellipse fill="#f070d1" stroke="black" cx="296" cy="-95.33" rx="109.68" ry="18"/>
<text text-anchor="middle" x="296" y="-91.63" font-family="Times,serif" font-size="14.00">maybe_bind_unit_syn</text>
</a>
</g>
</g>
<!-- CrowdfundingExt_CrowdfundingContract_Receive_receive_validated -->
<g id="node5" class="node">
<title>CrowdfundingExt_CrowdfundingContract_Receive_receive_validated</title>
<g id="a_node5"><a xlink:href="CrowdfundingExt.html#CrowdfundingContract.Receive.receive_validated" xlink:title="receive_validated">
<ellipse fill="#7fffd4" stroke="black" cx="1007" cy="-408.33" rx="91.77" ry="18"/>
<ellipse fill="none" stroke="black" cx="1007" cy="-408.33" rx="95.78" ry="22"/>
<ellipse fill="none" stroke="black" cx="1007" cy="-408.33" rx="99.78" ry="26"/>
<text text-anchor="middle" x="1007" y="-404.63" font-family="Times,serif" font-size="14.00">receive_validated</text>
</a>
</g>
</g>
<!-- CrowdfundingExt_CrowdfundingContract_Receive_receive -->
<g id="node6" class="node">
<title>CrowdfundingExt_CrowdfundingContract_Receive_receive</title>
<g id="a_node6"><a xlink:href="CrowdfundingExt.html#CrowdfundingContract.Receive.receive" xlink:title="receive">
<ellipse fill="#f070d1" stroke="black" cx="926" cy="-255.33" rx="44.39" ry="18"/>
<text text-anchor="middle" x="926" y="-251.63" font-family="Times,serif" font-size="14.00">receive</text>
</a>
</g>
</g>
<!-- CrowdfundingExt_CrowdfundingContract_Receive_receive_validated&#45;&gt;CrowdfundingExt_CrowdfundingContract_Receive_receive -->
<g id="edge1" class="edge">
<title>CrowdfundingExt_CrowdfundingContract_Receive_receive_validated&#45;&gt;CrowdfundingExt_CrowdfundingContract_Receive_receive</title>
<path fill="none" stroke="black" d="M993.62,-382.4C978.77,-354.7 954.9,-310.2 939.85,-282.16"/>
<polygon fill="black" stroke="black" points="942.93,-280.48 935.11,-273.32 936.76,-283.79 942.93,-280.48"/>
</g>
<!-- CrowdfundingExt_CrowdfundingContract_Receive_receive&#45;&gt;CrowdfundingExt_CrowdfundingContract_Validate_validate -->
<g id="edge2" class="edge">
<title>CrowdfundingExt_CrowdfundingContract_Receive_receive&#45;&gt;CrowdfundingExt_CrowdfundingContract_Validate_validate</title>
<path fill="none" stroke="black" d="M898.9,-241.11C859.97,-221.7 786.45,-183.55 728,-144.33 716.37,-136.53 704.2,-127.06 693.87,-118.6"/>
<polygon fill="black" stroke="black" points="695.97,-115.78 686.04,-112.08 691.49,-121.17 695.97,-115.78"/>
</g>
<!-- CrowdfundingExt_CrowdfundingContract_Receive_receive&#45;&gt;CrowdfundingExt_CrowdfundingContract_Validate_maybe_bind_unit -->
<g id="edge3" class="edge">
<title>CrowdfundingExt_CrowdfundingContract_Receive_receive&#45;&gt;CrowdfundingExt_CrowdfundingContract_Validate_maybe_bind_unit</title>
<path fill="none" stroke="black" d="M899.33,-240.94C890.99,-236.98 881.7,-232.78 873,-229.33 759.19,-184.24 724.48,-190.26 611,-144.33 591.11,-136.28 569.64,-125.96 551.88,-116.95"/>
<polygon fill="black" stroke="black" points="553.45,-113.82 542.95,-112.38 550.26,-120.05 553.45,-113.82"/>
</g>
<!-- CrowdfundingExt_CrowdfundingContract_Receive_lookup_map_ -->
<g id="node8" class="node">
<title>CrowdfundingExt_CrowdfundingContract_Receive_lookup_map_</title>
<g id="a_node8"><a xlink:href="CrowdfundingExt.html#CrowdfundingContract.Receive.lookup_map'" xlink:title="lookup_map&#39;">
<ellipse fill="#f070d1" stroke="black" cx="926" cy="-95.33" rx="68.49" ry="18"/>
<text text-anchor="middle" x="926" y="-91.63" font-family="Times,serif" font-size="14.00">lookup_map&#39;</text>
</a>
</g>
</g>
<!-- CrowdfundingExt_CrowdfundingContract_Receive_receive&#45;&gt;CrowdfundingExt_CrowdfundingContract_Receive_lookup_map_ -->
<g id="edge4" class="edge">
<title>CrowdfundingExt_CrowdfundingContract_Receive_receive&#45;&gt;CrowdfundingExt_CrowdfundingContract_Receive_lookup_map_</title>
<path fill="none" stroke="black" d="M926,-237.12C926,-209.81 926,-156.32 926,-123.71"/>
<polygon fill="black" stroke="black" points="929.5,-123.52 926,-113.52 922.5,-123.52 929.5,-123.52"/>
</g>
<!-- CrowdfundingExt_CrowdfundingContract_Receive_crowdfunding -->
<g id="node7" class="node">
<title>CrowdfundingExt_CrowdfundingContract_Receive_crowdfunding</title>
<g id="a_node7"><a xlink:href="CrowdfundingExt.html#CrowdfundingContract.Receive.crowdfunding" xlink:title="crowdfunding">
<ellipse fill="#f070d1" stroke="black" cx="815" cy="-408.33" rx="74.99" ry="18"/>
<text text-anchor="middle" x="815" y="-404.63" font-family="Times,serif" font-size="14.00">crowdfunding</text>
</a>
</g>
</g>
<!-- CrowdfundingExt_CrowdfundingContract_Receive_actions_ty -->
<g id="node9" class="node">
<title>CrowdfundingExt_CrowdfundingContract_Receive_actions_ty</title>
<g id="a_node9"><a xlink:href="CrowdfundingExt.html#CrowdfundingContract.Receive.actions_ty" xlink:title="actions_ty">
<ellipse fill="#f070d1" stroke="black" cx="806" cy="-255.33" rx="57.69" ry="18"/>
<text text-anchor="middle" x="806" y="-251.63" font-family="Times,serif" font-size="14.00">actions_ty</text>
</a>
</g>
</g>
<!-- CrowdfundingExt_CrowdfundingContract_Receive_crowdfunding&#45;&gt;CrowdfundingExt_CrowdfundingContract_Receive_actions_ty -->
<g id="edge5" class="edge">
<title>CrowdfundingExt_CrowdfundingContract_Receive_crowdfunding&#45;&gt;CrowdfundingExt_CrowdfundingContract_Receive_actions_ty</title>
<path fill="none" stroke="black" d="M813.99,-390.3C812.44,-364.36 809.48,-314.69 807.63,-283.66"/>
<polygon fill="black" stroke="black" points="811.11,-283.3 807.03,-273.53 804.13,-283.72 811.11,-283.3"/>
</g>
<!-- CrowdfundingExt_CrowdfundingContract_Init_init_validated -->
<g id="node10" class="node">
<title>CrowdfundingExt_CrowdfundingContract_Init_init_validated</title>
<g id="a_node10"><a xlink:href="CrowdfundingExt.html#CrowdfundingContract.Init.init_validated" xlink:title="init_validated">
<ellipse fill="#7fffd4" stroke="black" cx="1420" cy="-408.33" rx="73.39" ry="18"/>
<ellipse fill="none" stroke="black" cx="1420" cy="-408.33" rx="77.39" ry="22"/>
<ellipse fill="none" stroke="black" cx="1420" cy="-408.33" rx="81.39" ry="26"/>
<text text-anchor="middle" x="1420" y="-404.63" font-family="Times,serif" font-size="14.00">init_validated</text>
</a>
</g>
</g>
<!-- CrowdfundingExt_CrowdfundingContract_Init_init -->
<g id="node11" class="node">
<title>CrowdfundingExt_CrowdfundingContract_Init_init</title>
<g id="a_node11"><a xlink:href="CrowdfundingExt.html#CrowdfundingContract.Init.init" xlink:title="init">
<ellipse fill="#f070d1" stroke="black" cx="1420" cy="-255.33" rx="27" ry="18"/>
<text text-anchor="middle" x="1420" y="-251.63" font-family="Times,serif" font-size="14.00">init</text>
</a>
</g>
</g>
<!-- CrowdfundingExt_CrowdfundingContract_Init_init_validated&#45;&gt;CrowdfundingExt_CrowdfundingContract_Init_init -->
<g id="edge6" class="edge">
<title>CrowdfundingExt_CrowdfundingContract_Init_init_validated&#45;&gt;CrowdfundingExt_CrowdfundingContract_Init_init</title>
<path fill="none" stroke="black" d="M1420,-382.06C1420,-354.93 1420,-311.97 1420,-283.96"/>
<polygon fill="black" stroke="black" points="1423.5,-283.67 1420,-273.67 1416.5,-283.67 1423.5,-283.67"/>
</g>
<!-- CrowdfundingExt_CrowdfundingContract_Init_crowdfunding_init -->
<g id="node12" class="node">
<title>CrowdfundingExt_CrowdfundingContract_Init_crowdfunding_init</title>
<g id="a_node12"><a xlink:href="CrowdfundingExt.html#CrowdfundingContract.Init.crowdfunding_init" xlink:title="crowdfunding_init">
<ellipse fill="#f070d1" stroke="black" cx="1226" cy="-408.33" rx="94.78" ry="18"/>
<text text-anchor="middle" x="1226" y="-404.63" font-family="Times,serif" font-size="14.00">crowdfunding_init</text>
</a>
</g>
</g>
<!-- CrowdfundingExt_TT -->
<g id="node13" class="node">
<title>CrowdfundingExt_TT</title>
<g id="a_node13"><a xlink:href="CrowdfundingExt.html#TT" xlink:title="TT">
<ellipse fill="#f070d1" stroke="black" cx="1421" cy="-642.33" rx="27" ry="18"/>
<ellipse fill="none" stroke="black" cx="1421" cy="-642.33" rx="31" ry="22"/>
<ellipse fill="none" stroke="black" cx="1421" cy="-642.33" rx="35" ry="26"/>
<text text-anchor="middle" x="1421" y="-638.63" font-family="Times,serif" font-size="14.00">TT</text>
</a>
</g>
</g>
<!-- CrowdfundingExt_TTty -->
<g id="node14" class="node">
<title>CrowdfundingExt_TTty</title>
<g id="a_node14"><a xlink:href="CrowdfundingExt.html#TTty" xlink:title="TTty">
<ellipse fill="#f070d1" stroke="black" cx="1086" cy="-642.33" rx="32.49" ry="18"/>
<ellipse fill="none" stroke="black" cx="1086" cy="-642.33" rx="36.49" ry="22"/>
<ellipse fill="none" stroke="black" cx="1086" cy="-642.33" rx="40.49" ry="26"/>
<text text-anchor="middle" x="1086" y="-638.63" font-family="Times,serif" font-size="14.00">TTty</text>
</a>
</g>
</g>
<!-- CrowdfundingExt_CFModule -->
<g id="node15" class="node">
<title>CrowdfundingExt_CFModule</title>
<g id="a_node15"><a xlink:href="CrowdfundingExt.html#CFModule" xlink:title="CFModule">
<ellipse fill="#f070d1" stroke="black" cx="477" cy="-642.33" rx="58.49" ry="18"/>
<ellipse fill="none" stroke="black" cx="477" cy="-642.33" rx="62.49" ry="22"/>
<ellipse fill="none" stroke="black" cx="477" cy="-642.33" rx="66.49" ry="26"/>
<text text-anchor="middle" x="477" y="-638.63" font-family="Times,serif" font-size="14.00">CFModule</text>
</a>
</g>
</g>
<!-- CrowdfundingExt_CFModule&#45;&gt;CrowdfundingExt_CrowdfundingContract_Validate_validate_syn -->
<g id="edge7" class="edge">
<title>CrowdfundingExt_CFModule&#45;&gt;CrowdfundingExt_CrowdfundingContract_Validate_validate_syn</title>
<path fill="none" stroke="black" d="M460.07,-616.85C397.67,-526.65 180.92,-213.3 117.53,-121.68"/>
<polygon fill="black" stroke="black" points="120.29,-119.51 111.72,-113.28 114.54,-123.49 120.29,-119.51"/>
</g>
<!-- CrowdfundingExt_CFModule&#45;&gt;CrowdfundingExt_CrowdfundingContract_Validate_maybe_bind_unit_syn -->
<g id="edge8" class="edge">
<title>CrowdfundingExt_CFModule&#45;&gt;CrowdfundingExt_CrowdfundingContract_Validate_maybe_bind_unit_syn</title>
<path fill="none" stroke="black" d="M468.75,-616.5C438.79,-526.28 335.83,-216.27 304.88,-123.05"/>
<polygon fill="black" stroke="black" points="308.18,-121.89 301.7,-113.51 301.53,-124.1 308.18,-121.89"/>
</g>
<!-- CrowdfundingExt_CFModule&#45;&gt;CrowdfundingExt_CrowdfundingContract_Receive_crowdfunding -->
<g id="edge9" class="edge">
<title>CrowdfundingExt_CFModule&#45;&gt;CrowdfundingExt_CrowdfundingContract_Receive_crowdfunding</title>
<path fill="none" stroke="black" d="M520.42,-622.35C574.1,-597.73 666.84,-551.35 736,-496.33 758.98,-478.05 781.1,-452.82 796.06,-434.23"/>
<polygon fill="black" stroke="black" points="798.94,-436.22 802.4,-426.21 793.45,-431.88 798.94,-436.22"/>
</g>
<!-- CrowdfundingExt_CFModule&#45;&gt;CrowdfundingExt_CrowdfundingContract_Init_crowdfunding_init -->
<g id="edge10" class="edge">
<title>CrowdfundingExt_CFModule&#45;&gt;CrowdfundingExt_CrowdfundingContract_Init_crowdfunding_init</title>
<path fill="none" stroke="black" d="M542.18,-636.48C661.95,-625.49 922.71,-591.73 1119,-496.33 1151.46,-480.55 1182.79,-453.19 1203.07,-433.36"/>
<polygon fill="black" stroke="black" points="1205.67,-435.71 1210.28,-426.16 1200.73,-430.75 1205.67,-435.71"/>
</g>
</g>
</svg>
