<?xml version="1.0" encoding="UTF-8" standalone="no"?>
<!DOCTYPE svg PUBLIC "-//W3C//DTD SVG 1.1//EN"
 "http://www.w3.org/Graphics/SVG/1.1/DTD/svg11.dtd">
<!-- Generated by graphviz version 2.43.0 (0)
 -->
<!-- Title: CrowdfundingDataExt Pages: 1 -->
<svg width="4765pt" height="2387pt"
 viewBox="0.00 0.00 4765.00 2386.50" xmlns="http://www.w3.org/2000/svg" xmlns:xlink="http://www.w3.org/1999/xlink">
<g id="graph0" class="graph" transform="scale(1 1) rotate(0) translate(4 2382.5)">
<title>CrowdfundingDataExt</title>
<polygon fill="white" stroke="transparent" points="-4,4 -4,-2382.5 4761,-2382.5 4761,4 -4,4"/>
<g id="clust1" class="cluster">
<title>cluster_CrowdfundingDataExt</title>
<polygon fill="#ffffc3" stroke="black" points="8,-63.85 8,-2314.65 4749,-2314.65 4749,-63.85 8,-63.85"/>
<text text-anchor="middle" x="96" y="-2299.45" font-family="Times,serif" font-size="14.00">CrowdfundingDataExt</text>
</g>
<g id="clust2" class="cluster">
<title>cluster_CrowdfundingDataExt_Notations</title>
<polygon fill="#ffffa3" stroke="black" points="4613,-1340.9 4613,-2067.22 4741,-2067.22 4741,-1340.9 4613,-1340.9"/>
<text text-anchor="middle" x="4656" y="-2052.02" font-family="Times,serif" font-size="14.00">Notations</text>
</g>
<!-- CrowdfundingDataExt_Notations_Σ_ -->
<g id="node1" class="node">
<title>CrowdfundingDataExt_Notations_Σ_</title>
<g id="a_node1"><a xlink:href="CrowdfundingDataExt.html#Notations.Σ'" xlink:title="\206\163&#39;">
<ellipse fill="#f070d1" stroke="black" cx="4677" cy="-1611.85" rx="48.18" ry="18"/>
<ellipse fill="none" stroke="black" cx="4677" cy="-1611.85" rx="52.18" ry="22"/>
<ellipse fill="none" stroke="black" cx="4677" cy="-1611.85" rx="56.19" ry="26"/>
<text text-anchor="middle" x="4677" y="-1608.15" font-family="Times,serif" font-size="14.00">206163&#39;</text>
</a>
</g>
</g>
<!-- CrowdfundingDataExt_msg_syn -->
<g id="node35" class="node">
<title>CrowdfundingDataExt_msg_syn</title>
<g id="a_node35"><a xlink:href="CrowdfundingDataExt.html#msg_syn" xlink:title="msg_syn">
<ellipse fill="#f070d1" stroke="black" cx="4617" cy="-909.85" rx="50.89" ry="18"/>
<text text-anchor="middle" x="4617" y="-906.15" font-family="Times,serif" font-size="14.00">msg_syn</text>
</a>
</g>
</g>
<!-- CrowdfundingDataExt_Notations_Σ_&#45;&gt;CrowdfundingDataExt_msg_syn -->
<g id="edge1" class="edge">
<title>CrowdfundingDataExt_Notations_Σ_&#45;&gt;CrowdfundingDataExt_msg_syn</title>
<path fill="none" stroke="black" d="M4674.83,-1585.53C4665.52,-1476.88 4628.99,-1050.72 4619.34,-938.21"/>
<polygon fill="black" stroke="black" points="4622.81,-937.7 4618.47,-928.04 4615.84,-938.3 4622.81,-937.7"/>
</g>
<!-- CrowdfundingDataExt_SCtx -->
<g id="node2" class="node">
<title>CrowdfundingDataExt_SCtx</title>
<g id="a_node2"><a xlink:href="CrowdfundingDataExt.html#SCtx" xlink:title="SCtx">
<ellipse fill="#f070d1" stroke="black" cx="4562" cy="-1611.85" rx="33.27" ry="18"/>
<ellipse fill="none" stroke="black" cx="4562" cy="-1611.85" rx="37.28" ry="22"/>
<ellipse fill="none" stroke="black" cx="4562" cy="-1611.85" rx="41.29" ry="26"/>
<text text-anchor="middle" x="4562" y="-1608.15" font-family="Times,serif" font-size="14.00">SCtx</text>
</a>
</g>
</g>
<!-- CrowdfundingDataExt_cond -->
<g id="node3" class="node">
<title>CrowdfundingDataExt_cond</title>
<g id="a_node3"><a xlink:href="CrowdfundingDataExt.html#cond" xlink:title="cond">
<ellipse fill="#f070d1" stroke="black" cx="4462" cy="-1611.85" rx="32.49" ry="18"/>
<ellipse fill="none" stroke="black" cx="4462" cy="-1611.85" rx="36.49" ry="22"/>
<ellipse fill="none" stroke="black" cx="4462" cy="-1611.85" rx="40.49" ry="26"/>
<text text-anchor="middle" x="4462" y="-1608.15" font-family="Times,serif" font-size="14.00">cond</text>
</a>
</g>
</g>
<!-- CrowdfundingDataExt_newmap -->
<g id="node4" class="node">
<title>CrowdfundingDataExt_newmap</title>
<g id="a_node4"><a xlink:href="CrowdfundingDataExt.html#newmap" xlink:title="newmap">
<ellipse fill="#f070d1" stroke="black" cx="4345" cy="-1611.85" rx="50.08" ry="18"/>
<ellipse fill="none" stroke="black" cx="4345" cy="-1611.85" rx="54.09" ry="22"/>
<ellipse fill="none" stroke="black" cx="4345" cy="-1611.85" rx="58.09" ry="26"/>
<text text-anchor="middle" x="4345" y="-1608.15" font-family="Times,serif" font-size="14.00">newmap</text>
</a>
</g>
</g>
<!-- CrowdfundingDataExt_newstate -->
<g id="node5" class="node">
<title>CrowdfundingDataExt_newstate</title>
<g id="a_node5"><a xlink:href="CrowdfundingDataExt.html#newstate" xlink:title="newstate">
<ellipse fill="#f070d1" stroke="black" cx="4208" cy="-1611.85" rx="53.12" ry="18"/>
<ellipse fill="none" stroke="black" cx="4208" cy="-1611.85" rx="57.1" ry="22"/>
<ellipse fill="none" stroke="black" cx="4208" cy="-1611.85" rx="61.09" ry="26"/>
<text text-anchor="middle" x="4208" y="-1608.15" font-family="Times,serif" font-size="14.00">newstate</text>
</a>
</g>
</g>
<!-- CrowdfundingDataExt_now -->
<g id="node6" class="node">
<title>CrowdfundingDataExt_now</title>
<g id="a_node6"><a xlink:href="CrowdfundingDataExt.html#now" xlink:title="now">
<ellipse fill="#f070d1" stroke="black" cx="4091" cy="-1611.85" rx="29.82" ry="18"/>
<ellipse fill="none" stroke="black" cx="4091" cy="-1611.85" rx="33.81" ry="22"/>
<ellipse fill="none" stroke="black" cx="4091" cy="-1611.85" rx="37.79" ry="26"/>
<text text-anchor="middle" x="4091" y="-1608.15" font-family="Times,serif" font-size="14.00">now</text>
</a>
</g>
</g>
<!-- CrowdfundingDataExt_accs -->
<g id="node7" class="node">
<title>CrowdfundingDataExt_accs</title>
<g id="a_node7"><a xlink:href="CrowdfundingDataExt.html#accs" xlink:title="accs">
<ellipse fill="#f070d1" stroke="black" cx="3997" cy="-1611.85" rx="30.58" ry="18"/>
<ellipse fill="none" stroke="black" cx="3997" cy="-1611.85" rx="34.59" ry="22"/>
<ellipse fill="none" stroke="black" cx="3997" cy="-1611.85" rx="38.59" ry="26"/>
<text text-anchor="middle" x="3997" y="-1608.15" font-family="Times,serif" font-size="14.00">accs</text>
</a>
</g>
</g>
<!-- CrowdfundingDataExt_isdone -->
<g id="node8" class="node">
<title>CrowdfundingDataExt_isdone</title>
<g id="a_node8"><a xlink:href="CrowdfundingDataExt.html#isdone" xlink:title="isdone">
<ellipse fill="#f070d1" stroke="black" cx="3892" cy="-1611.85" rx="40.9" ry="18"/>
<ellipse fill="none" stroke="black" cx="3892" cy="-1611.85" rx="44.9" ry="22"/>
<ellipse fill="none" stroke="black" cx="3892" cy="-1611.85" rx="48.89" ry="26"/>
<text text-anchor="middle" x="3892" y="-1608.15" font-family="Times,serif" font-size="14.00">isdone</text>
</a>
</g>
</g>
<!-- CrowdfundingDataExt_own -->
<g id="node9" class="node">
<title>CrowdfundingDataExt_own</title>
<g id="a_node9"><a xlink:href="CrowdfundingDataExt.html#own" xlink:title="own">
<ellipse fill="#f070d1" stroke="black" cx="3787" cy="-1611.85" rx="29.82" ry="18"/>
<ellipse fill="none" stroke="black" cx="3787" cy="-1611.85" rx="33.81" ry="22"/>
<ellipse fill="none" stroke="black" cx="3787" cy="-1611.85" rx="37.79" ry="26"/>
<text text-anchor="middle" x="3787" y="-1608.15" font-family="Times,serif" font-size="14.00">own</text>
</a>
</g>
</g>
<!-- CrowdfundingDataExt_sender -->
<g id="node10" class="node">
<title>CrowdfundingDataExt_sender</title>
<g id="a_node10"><a xlink:href="CrowdfundingDataExt.html#sender" xlink:title="sender">
<ellipse fill="#f070d1" stroke="black" cx="3681" cy="-1611.85" rx="42.45" ry="18"/>
<ellipse fill="none" stroke="black" cx="3681" cy="-1611.85" rx="46.47" ry="22"/>
<ellipse fill="none" stroke="black" cx="3681" cy="-1611.85" rx="50.49" ry="26"/>
<text text-anchor="middle" x="3681" y="-1608.15" font-family="Times,serif" font-size="14.00">sender</text>
</a>
</g>
</g>
<!-- CrowdfundingDataExt_bal -->
<g id="node11" class="node">
<title>CrowdfundingDataExt_bal</title>
<g id="a_node11"><a xlink:href="CrowdfundingDataExt.html#bal" xlink:title="bal">
<ellipse fill="#f070d1" stroke="black" cx="3578" cy="-1611.85" rx="27" ry="18"/>
<ellipse fill="none" stroke="black" cx="3578" cy="-1611.85" rx="31" ry="22"/>
<ellipse fill="none" stroke="black" cx="3578" cy="-1611.85" rx="35" ry="26"/>
<text text-anchor="middle" x="3578" y="-1608.15" font-family="Times,serif" font-size="14.00">bal</text>
</a>
</g>
</g>
<!-- CrowdfundingDataExt_tx_amount -->
<g id="node12" class="node">
<title>CrowdfundingDataExt_tx_amount</title>
<g id="a_node12"><a xlink:href="CrowdfundingDataExt.html#tx_amount" xlink:title="tx_amount">
<ellipse fill="#f070d1" stroke="black" cx="3457" cy="-1611.85" rx="59.61" ry="18"/>
<ellipse fill="none" stroke="black" cx="3457" cy="-1611.85" rx="63.6" ry="22"/>
<ellipse fill="none" stroke="black" cx="3457" cy="-1611.85" rx="67.59" ry="26"/>
<text text-anchor="middle" x="3457" y="-1608.15" font-family="Times,serif" font-size="14.00">tx_amount</text>
</a>
</g>
</g>
<!-- CrowdfundingDataExt_ctx -->
<g id="node13" class="node">
<title>CrowdfundingDataExt_ctx</title>
<g id="a_node13"><a xlink:href="CrowdfundingDataExt.html#ctx" xlink:title="ctx">
<ellipse fill="#f070d1" stroke="black" cx="3336" cy="-1611.85" rx="27" ry="18"/>
<ellipse fill="none" stroke="black" cx="3336" cy="-1611.85" rx="31" ry="22"/>
<ellipse fill="none" stroke="black" cx="3336" cy="-1611.85" rx="35" ry="26"/>
<text text-anchor="middle" x="3336" y="-1608.15" font-family="Times,serif" font-size="14.00">ctx</text>
</a>
</g>
</g>
<!-- CrowdfundingDataExt_setup -->
<g id="node14" class="node">
<title>CrowdfundingDataExt_setup</title>
<g id="a_node14"><a xlink:href="CrowdfundingDataExt.html#setup" xlink:title="setup">
<ellipse fill="#f070d1" stroke="black" cx="3239" cy="-1611.85" rx="36.31" ry="18"/>
<ellipse fill="none" stroke="black" cx="3239" cy="-1611.85" rx="40.3" ry="22"/>
<ellipse fill="none" stroke="black" cx="3239" cy="-1611.85" rx="44.29" ry="26"/>
<text text-anchor="middle" x="3239" y="-1608.15" font-family="Times,serif" font-size="14.00">setup</text>
</a>
</g>
</g>
<!-- CrowdfundingDataExt_chain -->
<g id="node15" class="node">
<title>CrowdfundingDataExt_chain</title>
<g id="a_node15"><a xlink:href="CrowdfundingDataExt.html#chain" xlink:title="chain">
<ellipse fill="#f070d1" stroke="black" cx="3133" cy="-1611.85" rx="35.95" ry="18"/>
<ellipse fill="none" stroke="black" cx="3133" cy="-1611.85" rx="39.97" ry="22"/>
<ellipse fill="none" stroke="black" cx="3133" cy="-1611.85" rx="44" ry="26"/>
<text text-anchor="middle" x="3133" y="-1608.15" font-family="Times,serif" font-size="14.00">chain</text>
</a>
</g>
</g>
<!-- CrowdfundingDataExt_g -->
<g id="node16" class="node">
<title>CrowdfundingDataExt_g</title>
<g id="a_node16"><a xlink:href="CrowdfundingDataExt.html#g" xlink:title="g">
<ellipse fill="#f070d1" stroke="black" cx="3036" cy="-1611.85" rx="27" ry="18"/>
<ellipse fill="none" stroke="black" cx="3036" cy="-1611.85" rx="31" ry="22"/>
<ellipse fill="none" stroke="black" cx="3036" cy="-1611.85" rx="35" ry="26"/>
<text text-anchor="middle" x="3036" y="-1608.15" font-family="Times,serif" font-size="14.00">g</text>
</a>
</g>
</g>
<!-- CrowdfundingDataExt_dl -->
<g id="node17" class="node">
<title>CrowdfundingDataExt_dl</title>
<g id="a_node17"><a xlink:href="CrowdfundingDataExt.html#dl" xlink:title="dl">
<ellipse fill="#f070d1" stroke="black" cx="2948" cy="-1611.85" rx="27" ry="18"/>
<ellipse fill="none" stroke="black" cx="2948" cy="-1611.85" rx="31" ry="22"/>
<ellipse fill="none" stroke="black" cx="2948" cy="-1611.85" rx="35" ry="26"/>
<text text-anchor="middle" x="2948" y="-1608.15" font-family="Times,serif" font-size="14.00">dl</text>
</a>
</g>
</g>
<!-- CrowdfundingDataExt_v -->
<g id="node18" class="node">
<title>CrowdfundingDataExt_v</title>
<g id="a_node18"><a xlink:href="CrowdfundingDataExt.html#v" xlink:title="v">
<ellipse fill="#f070d1" stroke="black" cx="2860" cy="-1611.85" rx="27" ry="18"/>
<ellipse fill="none" stroke="black" cx="2860" cy="-1611.85" rx="31" ry="22"/>
<ellipse fill="none" stroke="black" cx="2860" cy="-1611.85" rx="35" ry="26"/>
<text text-anchor="middle" x="2860" y="-1608.15" font-family="Times,serif" font-size="14.00">v</text>
</a>
</g>
</g>
<!-- CrowdfundingDataExt_m -->
<g id="node19" class="node">
<title>CrowdfundingDataExt_m</title>
<g id="a_node19"><a xlink:href="CrowdfundingDataExt.html#m" xlink:title="m">
<ellipse fill="#f070d1" stroke="black" cx="2772" cy="-1611.85" rx="27" ry="18"/>
<ellipse fill="none" stroke="black" cx="2772" cy="-1611.85" rx="31" ry="22"/>
<ellipse fill="none" stroke="black" cx="2772" cy="-1611.85" rx="35" ry="26"/>
<text text-anchor="middle" x="2772" y="-1608.15" font-family="Times,serif" font-size="14.00">m</text>
</a>
</g>
</g>
<!-- CrowdfundingDataExt_e -->
<g id="node20" class="node">
<title>CrowdfundingDataExt_e</title>
<g id="a_node20"><a xlink:href="CrowdfundingDataExt.html#e" xlink:title="e">
<ellipse fill="#f070d1" stroke="black" cx="2684" cy="-1611.85" rx="27" ry="18"/>
<ellipse fill="none" stroke="black" cx="2684" cy="-1611.85" rx="31" ry="22"/>
<ellipse fill="none" stroke="black" cx="2684" cy="-1611.85" rx="35" ry="26"/>
<text text-anchor="middle" x="2684" y="-1608.15" font-family="Times,serif" font-size="14.00">e</text>
</a>
</g>
</g>
<!-- CrowdfundingDataExt_s -->
<g id="node21" class="node">
<title>CrowdfundingDataExt_s</title>
<g id="a_node21"><a xlink:href="CrowdfundingDataExt.html#s" xlink:title="s">
<ellipse fill="#f070d1" stroke="black" cx="2596" cy="-1611.85" rx="27" ry="18"/>
<ellipse fill="none" stroke="black" cx="2596" cy="-1611.85" rx="31" ry="22"/>
<ellipse fill="none" stroke="black" cx="2596" cy="-1611.85" rx="35" ry="26"/>
<text text-anchor="middle" x="2596" y="-1608.15" font-family="Times,serif" font-size="14.00">s</text>
</a>
</g>
</g>
<!-- CrowdfundingDataExt_c -->
<g id="node22" class="node">
<title>CrowdfundingDataExt_c</title>
<g id="a_node22"><a xlink:href="CrowdfundingDataExt.html#c" xlink:title="c">
<ellipse fill="#f070d1" stroke="black" cx="2508" cy="-1611.85" rx="27" ry="18"/>
<ellipse fill="none" stroke="black" cx="2508" cy="-1611.85" rx="31" ry="22"/>
<ellipse fill="none" stroke="black" cx="2508" cy="-1611.85" rx="35" ry="26"/>
<text text-anchor="middle" x="2508" y="-1608.15" font-family="Times,serif" font-size="14.00">c</text>
</a>
</g>
</g>
<!-- CrowdfundingDataExt_set_done -->
<g id="node23" class="node">
<title>CrowdfundingDataExt_set_done</title>
<g id="a_node23"><a xlink:href="CrowdfundingDataExt.html#set_done" xlink:title="set_done">
<ellipse fill="#f070d1" stroke="black" cx="2395" cy="-1611.85" rx="51.99" ry="18"/>
<ellipse fill="none" stroke="black" cx="2395" cy="-1611.85" rx="55.99" ry="22"/>
<ellipse fill="none" stroke="black" cx="2395" cy="-1611.85" rx="59.99" ry="26"/>
<text text-anchor="middle" x="2395" y="-1608.15" font-family="Times,serif" font-size="14.00">set_done</text>
</a>
</g>
</g>
<!-- CrowdfundingDataExt_set_done_syn -->
<g id="node24" class="node">
<title>CrowdfundingDataExt_set_done_syn</title>
<g id="a_node24"><a xlink:href="CrowdfundingDataExt.html#set_done_syn" xlink:title="set_done_syn">
<ellipse fill="#f070d1" stroke="black" cx="2237" cy="-1611.85" rx="72.27" ry="18"/>
<ellipse fill="none" stroke="black" cx="2237" cy="-1611.85" rx="76.28" ry="22"/>
<ellipse fill="none" stroke="black" cx="2237" cy="-1611.85" rx="80.29" ry="26"/>
<text text-anchor="middle" x="2237" y="-1608.15" font-family="Times,serif" font-size="14.00">set_done_syn</text>
</a>
</g>
</g>
<!-- CrowdfundingDataExt_full_state_ty -->
<g id="node36" class="node">
<title>CrowdfundingDataExt_full_state_ty</title>
<g id="a_node36"><a xlink:href="CrowdfundingDataExt.html#full_state_ty" xlink:title="full_state_ty">
<ellipse fill="#f070d1" stroke="black" cx="2182" cy="-909.85" rx="67.69" ry="18"/>
<text text-anchor="middle" x="2182" y="-906.15" font-family="Times,serif" font-size="14.00">full_state_ty</text>
</a>
</g>
</g>
<!-- CrowdfundingDataExt_set_done_syn&#45;&gt;CrowdfundingDataExt_full_state_ty -->
<g id="edge2" class="edge">
<title>CrowdfundingDataExt_set_done_syn&#45;&gt;CrowdfundingDataExt_full_state_ty</title>
<path fill="none" stroke="black" d="M2235.01,-1585.53C2226.47,-1476.88 2192.99,-1050.72 2184.15,-938.21"/>
<polygon fill="black" stroke="black" points="2187.62,-937.73 2183.35,-928.04 2180.64,-938.28 2187.62,-937.73"/>
</g>
<!-- CrowdfundingDataExt_update_contribs -->
<g id="node25" class="node">
<title>CrowdfundingDataExt_update_contribs</title>
<g id="a_node25"><a xlink:href="CrowdfundingDataExt.html#update_contribs" xlink:title="update_contribs">
<ellipse fill="#f070d1" stroke="black" cx="2046" cy="-1611.85" rx="85.27" ry="18"/>
<ellipse fill="none" stroke="black" cx="2046" cy="-1611.85" rx="89.28" ry="22"/>
<ellipse fill="none" stroke="black" cx="2046" cy="-1611.85" rx="93.29" ry="26"/>
<text text-anchor="middle" x="2046" y="-1608.15" font-family="Times,serif" font-size="14.00">update_contribs</text>
</a>
</g>
</g>
<!-- CrowdfundingDataExt_update_contribs_syn -->
<g id="node26" class="node">
<title>CrowdfundingDataExt_update_contribs_syn</title>
<g id="a_node26"><a xlink:href="CrowdfundingDataExt.html#update_contribs_syn" xlink:title="update_contribs_syn">
<ellipse fill="#f070d1" stroke="black" cx="1821" cy="-1611.85" rx="105.89" ry="18"/>
<ellipse fill="none" stroke="black" cx="1821" cy="-1611.85" rx="109.88" ry="22"/>
<ellipse fill="none" stroke="black" cx="1821" cy="-1611.85" rx="113.88" ry="26"/>
<text text-anchor="middle" x="1821" y="-1608.15" font-family="Times,serif" font-size="14.00">update_contribs_syn</text>
</a>
</g>
</g>
<!-- CrowdfundingDataExt_update_contribs_syn&#45;&gt;CrowdfundingDataExt_full_state_ty -->
<g id="edge3" class="edge">
<title>CrowdfundingDataExt_update_contribs_syn&#45;&gt;CrowdfundingDataExt_full_state_ty</title>
<path fill="none" stroke="black" d="M1833.85,-1585.94C1889.75,-1477.54 2111.54,-1047.48 2168.57,-936.89"/>
<polygon fill="black" stroke="black" points="2171.8,-938.26 2173.28,-927.77 2165.58,-935.05 2171.8,-938.26"/>
</g>
<!-- CrowdfundingDataExt_msg_coq_sind -->
<g id="node27" class="node">
<title>CrowdfundingDataExt_msg_coq_sind</title>
<g id="a_node27"><a xlink:href="CrowdfundingDataExt.html#msg_coq_sind" xlink:title="msg_coq_sind">
<ellipse fill="#f070d1" stroke="black" cx="1786" cy="-909.85" rx="74.96" ry="18"/>
<ellipse fill="none" stroke="black" cx="1786" cy="-909.85" rx="78.98" ry="22"/>
<ellipse fill="none" stroke="black" cx="1786" cy="-909.85" rx="82.99" ry="26"/>
<text text-anchor="middle" x="1786" y="-906.15" font-family="Times,serif" font-size="14.00">msg_coq_sind</text>
</a>
</g>
</g>
<!-- CrowdfundingDataExt_Claim_coq -->
<g id="node31" class="node">
<title>CrowdfundingDataExt_Claim_coq</title>
<g id="a_node31"><a xlink:href="CrowdfundingDataExt.html#Claim_coq" xlink:title="Claim_coq">
<ellipse fill="#7faaff" stroke="black" cx="1558" cy="-271.85" rx="57.69" ry="18"/>
<text text-anchor="middle" x="1558" y="-268.15" font-family="Times,serif" font-size="14.00">Claim_coq</text>
</a>
</g>
</g>
<!-- CrowdfundingDataExt_msg_coq_sind&#45;&gt;CrowdfundingDataExt_Claim_coq -->
<g id="edge4" class="edge">
<title>CrowdfundingDataExt_msg_coq_sind&#45;&gt;CrowdfundingDataExt_Claim_coq</title>
<path fill="none" stroke="black" d="M1777.06,-883.92C1740.81,-782.79 1604.88,-403.63 1567.54,-299.47"/>
<polygon fill="black" stroke="black" points="1570.82,-298.23 1564.15,-290 1564.23,-300.6 1570.82,-298.23"/>
</g>
<!-- CrowdfundingDataExt_GetFunds_coq -->
<g id="node32" class="node">
<title>CrowdfundingDataExt_GetFunds_coq</title>
<g id="a_node32"><a xlink:href="CrowdfundingDataExt.html#GetFunds_coq" xlink:title="GetFunds_coq">
<ellipse fill="#7faaff" stroke="black" cx="1711" cy="-271.85" rx="76.89" ry="18"/>
<text text-anchor="middle" x="1711" y="-268.15" font-family="Times,serif" font-size="14.00">GetFunds_coq</text>
</a>
</g>
</g>
<!-- CrowdfundingDataExt_msg_coq_sind&#45;&gt;CrowdfundingDataExt_GetFunds_coq -->
<g id="edge5" class="edge">
<title>CrowdfundingDataExt_msg_coq_sind&#45;&gt;CrowdfundingDataExt_GetFunds_coq</title>
<path fill="none" stroke="black" d="M1783.01,-883.53C1771.04,-782 1726.57,-404.89 1714.21,-300.05"/>
<polygon fill="black" stroke="black" points="1717.67,-299.49 1713.02,-289.96 1710.71,-300.31 1717.67,-299.49"/>
</g>
<!-- CrowdfundingDataExt_Donate_coq -->
<g id="node33" class="node">
<title>CrowdfundingDataExt_Donate_coq</title>
<g id="a_node33"><a xlink:href="CrowdfundingDataExt.html#Donate_coq" xlink:title="Donate_coq">
<ellipse fill="#7faaff" stroke="black" cx="1870" cy="-271.85" rx="64.19" ry="18"/>
<text text-anchor="middle" x="1870" y="-268.15" font-family="Times,serif" font-size="14.00">Donate_coq</text>
</a>
</g>
</g>
<!-- CrowdfundingDataExt_msg_coq_sind&#45;&gt;CrowdfundingDataExt_Donate_coq -->
<g id="edge6" class="edge">
<title>CrowdfundingDataExt_msg_coq_sind&#45;&gt;CrowdfundingDataExt_Donate_coq</title>
<path fill="none" stroke="black" d="M1789.34,-883.53C1802.75,-782 1852.56,-404.89 1866.41,-300.05"/>
<polygon fill="black" stroke="black" points="1869.9,-300.34 1867.74,-289.96 1862.96,-299.42 1869.9,-300.34"/>
</g>
<!-- CrowdfundingDataExt_msg_coq -->
<g id="node34" class="node">
<title>CrowdfundingDataExt_msg_coq</title>
<g id="a_node34"><a xlink:href="CrowdfundingDataExt.html#msg_coq" xlink:title="msg_coq">
<ellipse fill="#e2cdfa" stroke="black" cx="2003" cy="-271.85" rx="50.89" ry="18"/>
<text text-anchor="middle" x="2003" y="-268.15" font-family="Times,serif" font-size="14.00">msg_coq</text>
</a>
</g>
</g>
<!-- CrowdfundingDataExt_msg_coq_sind&#45;&gt;CrowdfundingDataExt_msg_coq -->
<g id="edge7" class="edge">
<title>CrowdfundingDataExt_msg_coq_sind&#45;&gt;CrowdfundingDataExt_msg_coq</title>
<path fill="none" stroke="black" d="M1794.51,-883.92C1829.01,-782.79 1958.38,-403.63 1993.92,-299.47"/>
<polygon fill="black" stroke="black" points="1997.23,-300.6 1997.15,-290 1990.61,-298.34 1997.23,-300.6"/>
</g>
<!-- CrowdfundingDataExt_msg_coq_rec -->
<g id="node28" class="node">
<title>CrowdfundingDataExt_msg_coq_rec</title>
<g id="a_node28"><a xlink:href="CrowdfundingDataExt.html#msg_coq_rec" xlink:title="msg_coq_rec">
<ellipse fill="#f070d1" stroke="black" cx="1612" cy="-1611.85" rx="69.58" ry="18"/>
<ellipse fill="none" stroke="black" cx="1612" cy="-1611.85" rx="73.59" ry="22"/>
<ellipse fill="none" stroke="black" cx="1612" cy="-1611.85" rx="77.59" ry="26"/>
<text text-anchor="middle" x="1612" y="-1608.15" font-family="Times,serif" font-size="14.00">msg_coq_rec</text>
</a>
</g>
</g>
<!-- CrowdfundingDataExt_msg_coq_rect -->
<g id="node30" class="node">
<title>CrowdfundingDataExt_msg_coq_rect</title>
<g id="a_node30"><a xlink:href="CrowdfundingDataExt.html#msg_coq_rect" xlink:title="msg_coq_rect">
<ellipse fill="#f070d1" stroke="black" cx="1612" cy="-909.85" rx="73.39" ry="18"/>
<text text-anchor="middle" x="1612" y="-906.15" font-family="Times,serif" font-size="14.00">msg_coq_rect</text>
</a>
</g>
</g>
<!-- CrowdfundingDataExt_msg_coq_rec&#45;&gt;CrowdfundingDataExt_msg_coq_rect -->
<g id="edge8" class="edge">
<title>CrowdfundingDataExt_msg_coq_rec&#45;&gt;CrowdfundingDataExt_msg_coq_rect</title>
<path fill="none" stroke="black" d="M1612,-1585.53C1612,-1476.88 1612,-1050.72 1612,-938.21"/>
<polygon fill="black" stroke="black" points="1615.5,-938.04 1612,-928.04 1608.5,-938.04 1615.5,-938.04"/>
</g>
<!-- CrowdfundingDataExt_msg_coq_ind -->
<g id="node29" class="node">
<title>CrowdfundingDataExt_msg_coq_ind</title>
<g id="a_node29"><a xlink:href="CrowdfundingDataExt.html#msg_coq_ind" xlink:title="msg_coq_ind">
<ellipse fill="#7fffd4" stroke="black" cx="1964" cy="-909.85" rx="69.58" ry="18"/>
<ellipse fill="none" stroke="black" cx="1964" cy="-909.85" rx="73.59" ry="22"/>
<ellipse fill="none" stroke="black" cx="1964" cy="-909.85" rx="77.59" ry="26"/>
<text text-anchor="middle" x="1964" y="-906.15" font-family="Times,serif" font-size="14.00">msg_coq_ind</text>
</a>
</g>
</g>
<!-- CrowdfundingDataExt_msg_coq_ind&#45;&gt;CrowdfundingDataExt_Claim_coq -->
<g id="edge9" class="edge">
<title>CrowdfundingDataExt_msg_coq_ind&#45;&gt;CrowdfundingDataExt_Claim_coq</title>
<path fill="none" stroke="black" d="M1948.33,-884.31C1883.9,-783.37 1639.65,-400.76 1574.21,-298.25"/>
<polygon fill="black" stroke="black" points="1577.12,-296.29 1568.79,-289.75 1571.22,-300.06 1577.12,-296.29"/>
</g>
<!-- CrowdfundingDataExt_msg_coq_ind&#45;&gt;CrowdfundingDataExt_GetFunds_coq -->
<g id="edge10" class="edge">
<title>CrowdfundingDataExt_msg_coq_ind&#45;&gt;CrowdfundingDataExt_GetFunds_coq</title>
<path fill="none" stroke="black" d="M1954.08,-883.92C1913.85,-782.79 1763.02,-403.63 1721.59,-299.47"/>
<polygon fill="black" stroke="black" points="1724.77,-298 1717.82,-290 1718.27,-300.59 1724.77,-298"/>
</g>
<!-- CrowdfundingDataExt_msg_coq_ind&#45;&gt;CrowdfundingDataExt_Donate_coq -->
<g id="edge11" class="edge">
<title>CrowdfundingDataExt_msg_coq_ind&#45;&gt;CrowdfundingDataExt_Donate_coq</title>
<path fill="none" stroke="black" d="M1960.26,-883.53C1945.25,-782 1889.51,-404.89 1874.02,-300.05"/>
<polygon fill="black" stroke="black" points="1877.45,-299.35 1872.53,-289.96 1870.53,-300.37 1877.45,-299.35"/>
</g>
<!-- CrowdfundingDataExt_msg_coq_ind&#45;&gt;CrowdfundingDataExt_msg_coq -->
<g id="edge12" class="edge">
<title>CrowdfundingDataExt_msg_coq_ind&#45;&gt;CrowdfundingDataExt_msg_coq</title>
<path fill="none" stroke="black" d="M1965.55,-883.53C1971.78,-782 1994.9,-404.89 2001.33,-300.05"/>
<polygon fill="black" stroke="black" points="2004.83,-300.16 2001.95,-289.96 1997.85,-299.73 2004.83,-300.16"/>
</g>
<!-- CrowdfundingDataExt_msg_coq_rect&#45;&gt;CrowdfundingDataExt_Claim_coq -->
<g id="edge13" class="edge">
<title>CrowdfundingDataExt_msg_coq_rect&#45;&gt;CrowdfundingDataExt_Claim_coq</title>
<path fill="none" stroke="black" d="M1610.56,-891.84C1603.15,-804.66 1569.46,-407.84 1560.3,-299.98"/>
<polygon fill="black" stroke="black" points="1563.78,-299.58 1559.45,-289.92 1556.81,-300.18 1563.78,-299.58"/>
</g>
<!-- CrowdfundingDataExt_msg_coq_rect&#45;&gt;CrowdfundingDataExt_GetFunds_coq -->
<g id="edge14" class="edge">
<title>CrowdfundingDataExt_msg_coq_rect&#45;&gt;CrowdfundingDataExt_GetFunds_coq</title>
<path fill="none" stroke="black" d="M1614.65,-891.84C1628.22,-804.66 1689.99,-407.84 1706.78,-299.98"/>
<polygon fill="black" stroke="black" points="1710.26,-300.34 1708.34,-289.92 1703.35,-299.26 1710.26,-300.34"/>
</g>
<!-- CrowdfundingDataExt_msg_coq_rect&#45;&gt;CrowdfundingDataExt_Donate_coq -->
<g id="edge15" class="edge">
<title>CrowdfundingDataExt_msg_coq_rect&#45;&gt;CrowdfundingDataExt_Donate_coq</title>
<path fill="none" stroke="black" d="M1618.9,-891.84C1654.34,-804.48 1815.89,-406.24 1859.26,-299.33"/>
<polygon fill="black" stroke="black" points="1862.56,-300.5 1863.08,-289.92 1856.08,-297.87 1862.56,-300.5"/>
</g>
<!-- CrowdfundingDataExt_msg_coq_rect&#45;&gt;CrowdfundingDataExt_msg_coq -->
<g id="edge16" class="edge">
<title>CrowdfundingDataExt_msg_coq_rect&#45;&gt;CrowdfundingDataExt_msg_coq</title>
<path fill="none" stroke="black" d="M1622.46,-891.84C1676.33,-804.21 1922.52,-403.76 1987.33,-298.34"/>
<polygon fill="black" stroke="black" points="1990.44,-299.97 1992.69,-289.62 1984.47,-296.31 1990.44,-299.97"/>
</g>
<!-- CrowdfundingDataExt_Claim -->
<g id="node39" class="node">
<title>CrowdfundingDataExt_Claim</title>
<g id="a_node39"><a xlink:href="CrowdfundingDataExt.html#Claim" xlink:title="Claim">
<ellipse fill="#f070d1" stroke="black" cx="4387" cy="-271.85" rx="37.89" ry="18"/>
<text text-anchor="middle" x="4387" y="-268.15" font-family="Times,serif" font-size="14.00">Claim</text>
</a>
</g>
</g>
<!-- CrowdfundingDataExt_msg_syn&#45;&gt;CrowdfundingDataExt_Claim -->
<g id="edge17" class="edge">
<title>CrowdfundingDataExt_msg_syn&#45;&gt;CrowdfundingDataExt_Claim</title>
<path fill="none" stroke="black" d="M4610.85,-891.84C4579.25,-804.47 4435.21,-406.17 4396.57,-299.31"/>
<polygon fill="black" stroke="black" points="4399.76,-297.83 4393.06,-289.62 4393.17,-300.22 4399.76,-297.83"/>
</g>
<!-- CrowdfundingDataExt_GetFunds -->
<g id="node40" class="node">
<title>CrowdfundingDataExt_GetFunds</title>
<g id="a_node40"><a xlink:href="CrowdfundingDataExt.html#GetFunds" xlink:title="GetFunds">
<ellipse fill="#f070d1" stroke="black" cx="4499" cy="-271.85" rx="55.79" ry="18"/>
<text text-anchor="middle" x="4499" y="-268.15" font-family="Times,serif" font-size="14.00">GetFunds</text>
</a>
</g>
</g>
<!-- CrowdfundingDataExt_msg_syn&#45;&gt;CrowdfundingDataExt_GetFunds -->
<g id="edge18" class="edge">
<title>CrowdfundingDataExt_msg_syn&#45;&gt;CrowdfundingDataExt_GetFunds</title>
<path fill="none" stroke="black" d="M4613.84,-891.84C4597.67,-804.66 4524.05,-407.84 4504.03,-299.98"/>
<polygon fill="black" stroke="black" points="4507.43,-299.11 4502.17,-289.92 4500.55,-300.39 4507.43,-299.11"/>
</g>
<!-- CrowdfundingDataExt_Donate -->
<g id="node41" class="node">
<title>CrowdfundingDataExt_Donate</title>
<g id="a_node41"><a xlink:href="CrowdfundingDataExt.html#Donate" xlink:title="Donate">
<ellipse fill="#f070d1" stroke="black" cx="4617" cy="-271.85" rx="44.39" ry="18"/>
<text text-anchor="middle" x="4617" y="-268.15" font-family="Times,serif" font-size="14.00">Donate</text>
</a>
</g>
</g>
<!-- CrowdfundingDataExt_msg_syn&#45;&gt;CrowdfundingDataExt_Donate -->
<g id="edge19" class="edge">
<title>CrowdfundingDataExt_msg_syn&#45;&gt;CrowdfundingDataExt_Donate</title>
<path fill="none" stroke="black" d="M4617,-891.84C4617,-804.66 4617,-407.84 4617,-299.98"/>
<polygon fill="black" stroke="black" points="4620.5,-299.92 4617,-289.92 4613.5,-299.92 4620.5,-299.92"/>
</g>
<!-- CrowdfundingDataExt_msg -->
<g id="node45" class="node">
<title>CrowdfundingDataExt_msg</title>
<g id="a_node45"><a xlink:href="CrowdfundingDataExt.html#msg" xlink:title="msg">
<ellipse fill="#f070d1" stroke="black" cx="4710" cy="-271.85" rx="30.59" ry="18"/>
<text text-anchor="middle" x="4710" y="-268.15" font-family="Times,serif" font-size="14.00">msg</text>
</a>
</g>
</g>
<!-- CrowdfundingDataExt_msg_syn&#45;&gt;CrowdfundingDataExt_msg -->
<g id="edge20" class="edge">
<title>CrowdfundingDataExt_msg_syn&#45;&gt;CrowdfundingDataExt_msg</title>
<path fill="none" stroke="black" d="M4619.49,-891.84C4632.24,-804.66 4690.26,-407.84 4706.03,-299.98"/>
<polygon fill="black" stroke="black" points="4709.52,-300.32 4707.5,-289.92 4702.59,-299.3 4709.52,-300.32"/>
</g>
<!-- CrowdfundingDataExt_state_ty -->
<g id="node37" class="node">
<title>CrowdfundingDataExt_state_ty</title>
<g id="a_node37"><a xlink:href="CrowdfundingDataExt.html#state_ty" xlink:title="state_ty">
<ellipse fill="#f070d1" stroke="black" cx="2159" cy="-271.85" rx="48.19" ry="18"/>
<text text-anchor="middle" x="2159" y="-268.15" font-family="Times,serif" font-size="14.00">state_ty</text>
</a>
</g>
</g>
<!-- CrowdfundingDataExt_full_state_ty&#45;&gt;CrowdfundingDataExt_state_ty -->
<g id="edge21" class="edge">
<title>CrowdfundingDataExt_full_state_ty&#45;&gt;CrowdfundingDataExt_state_ty</title>
<path fill="none" stroke="black" d="M2181.38,-891.84C2178.23,-804.66 2163.88,-407.84 2159.98,-299.98"/>
<polygon fill="black" stroke="black" points="2163.48,-299.78 2159.62,-289.92 2156.48,-300.04 2163.48,-299.78"/>
</g>
<!-- CrowdfundingDataExt_params_ty -->
<g id="node38" class="node">
<title>CrowdfundingDataExt_params_ty</title>
<g id="a_node38"><a xlink:href="CrowdfundingDataExt.html#params_ty" xlink:title="params_ty">
<ellipse fill="#f070d1" stroke="black" cx="2284" cy="-271.85" rx="59.29" ry="18"/>
<text text-anchor="middle" x="2284" y="-268.15" font-family="Times,serif" font-size="14.00">params_ty</text>
</a>
</g>
</g>
<!-- CrowdfundingDataExt_full_state_ty&#45;&gt;CrowdfundingDataExt_params_ty -->
<g id="edge22" class="edge">
<title>CrowdfundingDataExt_full_state_ty&#45;&gt;CrowdfundingDataExt_params_ty</title>
<path fill="none" stroke="black" d="M2184.73,-891.84C2198.71,-804.66 2262.35,-407.84 2279.65,-299.98"/>
<polygon fill="black" stroke="black" points="2283.14,-300.34 2281.26,-289.92 2276.22,-299.24 2283.14,-300.34"/>
</g>
<!-- CrowdfundingDataExt_Empty -->
<g id="node42" class="node">
<title>CrowdfundingDataExt_Empty</title>
<g id="a_node42"><a xlink:href="CrowdfundingDataExt.html#Empty" xlink:title="Empty">
<ellipse fill="#f070d1" stroke="black" cx="1467" cy="-1611.85" rx="41.68" ry="18"/>
<ellipse fill="none" stroke="black" cx="1467" cy="-1611.85" rx="45.69" ry="22"/>
<ellipse fill="none" stroke="black" cx="1467" cy="-1611.85" rx="49.69" ry="26"/>
<text text-anchor="middle" x="1467" y="-1608.15" font-family="Times,serif" font-size="14.00">Empty</text>
</a>
</g>
</g>
<!-- CrowdfundingDataExt_Transfer -->
<g id="node43" class="node">
<title>CrowdfundingDataExt_Transfer</title>
<g id="a_node43"><a xlink:href="CrowdfundingDataExt.html#Transfer" xlink:title="Transfer">
<ellipse fill="#f070d1" stroke="black" cx="1341" cy="-1611.85" rx="50.08" ry="18"/>
<ellipse fill="none" stroke="black" cx="1341" cy="-1611.85" rx="54.09" ry="22"/>
<ellipse fill="none" stroke="black" cx="1341" cy="-1611.85" rx="58.09" ry="26"/>
<text text-anchor="middle" x="1341" y="-1608.15" font-family="Times,serif" font-size="14.00">Transfer</text>
</a>
</g>
</g>
<!-- CrowdfundingDataExt_Action -->
<g id="node44" class="node">
<title>CrowdfundingDataExt_Action</title>
<g id="a_node44"><a xlink:href="CrowdfundingDataExt.html#Action" xlink:title="Action">
<ellipse fill="#f070d1" stroke="black" cx="1217" cy="-1611.85" rx="40.13" ry="18"/>
<ellipse fill="none" stroke="black" cx="1217" cy="-1611.85" rx="44.11" ry="22"/>
<ellipse fill="none" stroke="black" cx="1217" cy="-1611.85" rx="48.09" ry="26"/>
<text text-anchor="middle" x="1217" y="-1608.15" font-family="Times,serif" font-size="14.00">Action</text>
</a>
</g>
</g>
<!-- CrowdfundingDataExt_Error -->
<g id="node46" class="node">
<title>CrowdfundingDataExt_Error</title>
<g id="a_node46"><a xlink:href="CrowdfundingDataExt.html#Error" xlink:title="Error">
<ellipse fill="#f070d1" stroke="black" cx="1106" cy="-1611.85" rx="36.31" ry="18"/>
<ellipse fill="none" stroke="black" cx="1106" cy="-1611.85" rx="40.3" ry="22"/>
<ellipse fill="none" stroke="black" cx="1106" cy="-1611.85" rx="44.29" ry="26"/>
<text text-anchor="middle" x="1106" y="-1608.15" font-family="Times,serif" font-size="14.00">Error</text>
</a>
</g>
</g>
<!-- CrowdfundingDataExt_Res -->
<g id="node47" class="node">
<title>CrowdfundingDataExt_Res</title>
<g id="a_node47"><a xlink:href="CrowdfundingDataExt.html#Res" xlink:title="Res">
<ellipse fill="#f070d1" stroke="black" cx="1008" cy="-1611.85" rx="27.91" ry="18"/>
<ellipse fill="none" stroke="black" cx="1008" cy="-1611.85" rx="31.9" ry="22"/>
<ellipse fill="none" stroke="black" cx="1008" cy="-1611.85" rx="35.9" ry="26"/>
<text text-anchor="middle" x="1008" y="-1608.15" font-family="Times,serif" font-size="14.00">Res</text>
</a>
</g>
</g>
<!-- CrowdfundingDataExt_done -->
<g id="node48" class="node">
<title>CrowdfundingDataExt_done</title>
<g id="a_node48"><a xlink:href="CrowdfundingDataExt.html#done" xlink:title="done">
<ellipse fill="#f070d1" stroke="black" cx="913" cy="-1611.85" rx="33.27" ry="18"/>
<ellipse fill="none" stroke="black" cx="913" cy="-1611.85" rx="37.28" ry="22"/>
<ellipse fill="none" stroke="black" cx="913" cy="-1611.85" rx="41.29" ry="26"/>
<text text-anchor="middle" x="913" y="-1608.15" font-family="Times,serif" font-size="14.00">done</text>
</a>
</g>
</g>
<!-- CrowdfundingDataExt_goal -->
<g id="node49" class="node">
<title>CrowdfundingDataExt_goal</title>
<g id="a_node49"><a xlink:href="CrowdfundingDataExt.html#goal" xlink:title="goal">
<ellipse fill="#f070d1" stroke="black" cx="815" cy="-1611.85" rx="30.58" ry="18"/>
<ellipse fill="none" stroke="black" cx="815" cy="-1611.85" rx="34.59" ry="22"/>
<ellipse fill="none" stroke="black" cx="815" cy="-1611.85" rx="38.59" ry="26"/>
<text text-anchor="middle" x="815" y="-1608.15" font-family="Times,serif" font-size="14.00">goal</text>
</a>
</g>
</g>
<!-- CrowdfundingDataExt_deadline -->
<g id="node50" class="node">
<title>CrowdfundingDataExt_deadline</title>
<g id="a_node50"><a xlink:href="CrowdfundingDataExt.html#deadline" xlink:title="deadline">
<ellipse fill="#f070d1" stroke="black" cx="700" cy="-1611.85" rx="50.08" ry="18"/>
<ellipse fill="none" stroke="black" cx="700" cy="-1611.85" rx="54.09" ry="22"/>
<ellipse fill="none" stroke="black" cx="700" cy="-1611.85" rx="58.09" ry="26"/>
<text text-anchor="middle" x="700" y="-1608.15" font-family="Times,serif" font-size="14.00">deadline</text>
</a>
</g>
</g>
<!-- CrowdfundingDataExt_owner -->
<g id="node51" class="node">
<title>CrowdfundingDataExt_owner</title>
<g id="a_node51"><a xlink:href="CrowdfundingDataExt.html#owner" xlink:title="owner">
<ellipse fill="#f070d1" stroke="black" cx="576" cy="-1611.85" rx="39.77" ry="18"/>
<ellipse fill="none" stroke="black" cx="576" cy="-1611.85" rx="43.78" ry="22"/>
<ellipse fill="none" stroke="black" cx="576" cy="-1611.85" rx="47.79" ry="26"/>
<text text-anchor="middle" x="576" y="-1608.15" font-family="Times,serif" font-size="14.00">owner</text>
</a>
</g>
</g>
<!-- CrowdfundingDataExt_donations -->
<g id="node52" class="node">
<title>CrowdfundingDataExt_donations</title>
<g id="a_node52"><a xlink:href="CrowdfundingDataExt.html#donations" xlink:title="donations">
<ellipse fill="#f070d1" stroke="black" cx="446" cy="-1611.85" rx="55.8" ry="18"/>
<ellipse fill="none" stroke="black" cx="446" cy="-1611.85" rx="59.8" ry="22"/>
<ellipse fill="none" stroke="black" cx="446" cy="-1611.85" rx="63.79" ry="26"/>
<text text-anchor="middle" x="446" y="-1608.15" font-family="Times,serif" font-size="14.00">donations</text>
</a>
</g>
</g>
<!-- CrowdfundingDataExt_balance -->
<g id="node53" class="node">
<title>CrowdfundingDataExt_balance</title>
<g id="a_node53"><a xlink:href="CrowdfundingDataExt.html#balance" xlink:title="balance">
<ellipse fill="#f070d1" stroke="black" cx="310" cy="-1611.85" rx="46.27" ry="18"/>
<ellipse fill="none" stroke="black" cx="310" cy="-1611.85" rx="50.28" ry="22"/>
<ellipse fill="none" stroke="black" cx="310" cy="-1611.85" rx="54.29" ry="26"/>
<text text-anchor="middle" x="310" y="-1608.15" font-family="Times,serif" font-size="14.00">balance</text>
</a>
</g>
</g>
<!-- CrowdfundingDataExt_mkState -->
<g id="node54" class="node">
<title>CrowdfundingDataExt_mkState</title>
<g id="a_node54"><a xlink:href="CrowdfundingDataExt.html#mkState" xlink:title="mkState">
<ellipse fill="#f070d1" stroke="black" cx="180" cy="-1611.85" rx="50.08" ry="18"/>
<ellipse fill="none" stroke="black" cx="180" cy="-1611.85" rx="54.09" ry="22"/>
<ellipse fill="none" stroke="black" cx="180" cy="-1611.85" rx="58.09" ry="26"/>
<text text-anchor="middle" x="180" y="-1608.15" font-family="Times,serif" font-size="14.00">mkState</text>
</a>
</g>
</g>
<!-- CrowdfundingDataExt_State -->
<g id="node55" class="node">
<title>CrowdfundingDataExt_State</title>
<g id="a_node55"><a xlink:href="CrowdfundingDataExt.html#State" xlink:title="State">
<ellipse fill="#f070d1" stroke="black" cx="60" cy="-1611.85" rx="35.95" ry="18"/>
<ellipse fill="none" stroke="black" cx="60" cy="-1611.85" rx="39.97" ry="22"/>
<ellipse fill="none" stroke="black" cx="60" cy="-1611.85" rx="44" ry="26"/>
<text text-anchor="middle" x="60" y="-1608.15" font-family="Times,serif" font-size="14.00">State</text>
</a>
</g>
</g>
</g>
</svg>
