<?xml version="1.0" encoding="UTF-8" standalone="no"?>
<!DOCTYPE svg PUBLIC "-//W3C//DTD SVG 1.1//EN"
 "http://www.w3.org/Graphics/SVG/1.1/DTD/svg11.dtd">
<!-- Generated by graphviz version 2.43.0 (0)
 -->
<!-- Title: ContractCommon Pages: 1 -->
<svg width="1249pt" height="629pt"
 viewBox="0.00 0.00 1249.00 628.50" xmlns="http://www.w3.org/2000/svg" xmlns:xlink="http://www.w3.org/1999/xlink">
<g id="graph0" class="graph" transform="scale(1 1) rotate(0) translate(4 624.5)">
<title>ContractCommon</title>
<polygon fill="white" stroke="transparent" points="-4,4 -4,-624.5 1245,-624.5 1245,4 -4,4"/>
<g id="clust1" class="cluster">
<title>cluster_ContractCommon</title>
<polygon fill="#ffffc3" stroke="black" points="8,-18.39 8,-602.11 1233,-602.11 1233,-18.39 8,-18.39"/>
<text text-anchor="middle" x="79" y="-586.91" font-family="Times,serif" font-size="14.00">ContractCommon</text>
</g>
<g id="clust2" class="cluster">
<title>cluster_ContractCommon_AddressMap</title>
<polygon fill="#ffffa3" stroke="black" points="135,-183.85 135,-392.98 840,-392.98 840,-183.85 135,-183.85"/>
<text text-anchor="middle" x="188" y="-377.78" font-family="Times,serif" font-size="14.00">AddressMap</text>
</g>
<!-- ContractCommon_AddressMap_update -->
<g id="node1" class="node">
<title>ContractCommon_AddressMap_update</title>
<g id="a_node1"><a xlink:href="ContractCommon.html#AddressMap.update" xlink:title="update">
<ellipse fill="#f070d1" stroke="black" cx="781" cy="-262.39" rx="42.81" ry="18"/>
<ellipse fill="none" stroke="black" cx="781" cy="-262.39" rx="46.8" ry="22"/>
<ellipse fill="none" stroke="black" cx="781" cy="-262.39" rx="50.79" ry="26"/>
<text text-anchor="middle" x="781" y="-258.69" font-family="Times,serif" font-size="14.00">update</text>
</a>
</g>
</g>
<!-- ContractCommon_AddressMap_empty -->
<g id="node2" class="node">
<title>ContractCommon_AddressMap_empty</title>
<g id="a_node2"><a xlink:href="ContractCommon.html#AddressMap.empty" xlink:title="empty">
<ellipse fill="#f070d1" stroke="black" cx="664" cy="-262.39" rx="40.13" ry="18"/>
<ellipse fill="none" stroke="black" cx="664" cy="-262.39" rx="44.11" ry="22"/>
<ellipse fill="none" stroke="black" cx="664" cy="-262.39" rx="48.09" ry="26"/>
<text text-anchor="middle" x="664" y="-258.69" font-family="Times,serif" font-size="14.00">empty</text>
</a>
</g>
</g>
<!-- ContractCommon_AddressMap_of_list -->
<g id="node3" class="node">
<title>ContractCommon_AddressMap_of_list</title>
<g id="a_node3"><a xlink:href="ContractCommon.html#AddressMap.of_list" xlink:title="of_list">
<ellipse fill="#f070d1" stroke="black" cx="551" cy="-262.39" rx="38.22" ry="18"/>
<ellipse fill="none" stroke="black" cx="551" cy="-262.39" rx="42.21" ry="22"/>
<ellipse fill="none" stroke="black" cx="551" cy="-262.39" rx="46.19" ry="26"/>
<text text-anchor="middle" x="551" y="-258.69" font-family="Times,serif" font-size="14.00">of_list</text>
</a>
</g>
</g>
<!-- ContractCommon_AddressMap_keys -->
<g id="node4" class="node">
<title>ContractCommon_AddressMap_keys</title>
<g id="a_node4"><a xlink:href="ContractCommon.html#AddressMap.keys" xlink:title="keys">
<ellipse fill="#f070d1" stroke="black" cx="447" cy="-262.39" rx="31.73" ry="18"/>
<ellipse fill="none" stroke="black" cx="447" cy="-262.39" rx="35.71" ry="22"/>
<ellipse fill="none" stroke="black" cx="447" cy="-262.39" rx="39.69" ry="26"/>
<text text-anchor="middle" x="447" y="-258.69" font-family="Times,serif" font-size="14.00">keys</text>
</a>
</g>
</g>
<!-- ContractCommon_AddressMap_values -->
<g id="node5" class="node">
<title>ContractCommon_AddressMap_values</title>
<g id="a_node5"><a xlink:href="ContractCommon.html#AddressMap.values" xlink:title="values">
<ellipse fill="#f070d1" stroke="black" cx="341" cy="-262.39" rx="40.13" ry="18"/>
<ellipse fill="none" stroke="black" cx="341" cy="-262.39" rx="44.11" ry="22"/>
<ellipse fill="none" stroke="black" cx="341" cy="-262.39" rx="48.09" ry="26"/>
<text text-anchor="middle" x="341" y="-258.69" font-family="Times,serif" font-size="14.00">values</text>
</a>
</g>
</g>
<!-- ContractCommon_AddressMap_add -->
<g id="node6" class="node">
<title>ContractCommon_AddressMap_add</title>
<g id="a_node6"><a xlink:href="ContractCommon.html#AddressMap.add" xlink:title="add">
<ellipse fill="#f070d1" stroke="black" cx="247" cy="-262.39" rx="27.9" ry="18"/>
<text text-anchor="middle" x="247" y="-258.69" font-family="Times,serif" font-size="14.00">add</text>
</a>
</g>
</g>
<!-- ContractCommon_AddressMap_find -->
<g id="node7" class="node">
<title>ContractCommon_AddressMap_find</title>
<g id="a_node7"><a xlink:href="ContractCommon.html#AddressMap.find" xlink:title="find">
<ellipse fill="#f070d1" stroke="black" cx="172" cy="-262.39" rx="28.7" ry="18"/>
<text text-anchor="middle" x="172" y="-258.69" font-family="Times,serif" font-size="14.00">find</text>
</a>
</g>
</g>
<!-- ContractCommon_not_payable -->
<g id="node8" class="node">
<title>ContractCommon_not_payable</title>
<g id="a_node8"><a xlink:href="ContractCommon.html#not_payable" xlink:title="not_payable">
<ellipse fill="#f070d1" stroke="black" cx="1151" cy="-471.39" rx="66.11" ry="18"/>
<ellipse fill="none" stroke="black" cx="1151" cy="-471.39" rx="70.1" ry="22"/>
<ellipse fill="none" stroke="black" cx="1151" cy="-471.39" rx="74.09" ry="26"/>
<text text-anchor="middle" x="1151" y="-467.69" font-family="Times,serif" font-size="14.00">not_payable</text>
</a>
</g>
</g>
<!-- ContractCommon_throwIf -->
<g id="node10" class="node">
<title>ContractCommon_throwIf</title>
<g id="a_node10"><a xlink:href="ContractCommon.html#throwIf" xlink:title="throwIf">
<ellipse fill="#f070d1" stroke="black" cx="1151" cy="-262.39" rx="44.69" ry="18"/>
<text text-anchor="middle" x="1151" y="-258.69" font-family="Times,serif" font-size="14.00">throwIf</text>
</a>
</g>
</g>
<!-- ContractCommon_not_payable&#45;&gt;ContractCommon_throwIf -->
<g id="edge1" class="edge">
<title>ContractCommon_not_payable&#45;&gt;ContractCommon_throwIf</title>
<path fill="none" stroke="black" d="M1151,-445C1151,-405.84 1151,-331.01 1151,-290.71"/>
<polygon fill="black" stroke="black" points="1154.5,-290.55 1151,-280.55 1147.5,-290.55 1154.5,-290.55"/>
</g>
<!-- ContractCommon_without_actions -->
<g id="node9" class="node">
<title>ContractCommon_without_actions</title>
<g id="a_node9"><a xlink:href="ContractCommon.html#without_actions" xlink:title="without_actions">
<ellipse fill="#f070d1" stroke="black" cx="967" cy="-471.39" rx="83.7" ry="18"/>
<ellipse fill="none" stroke="black" cx="967" cy="-471.39" rx="87.69" ry="22"/>
<ellipse fill="none" stroke="black" cx="967" cy="-471.39" rx="91.69" ry="26"/>
<text text-anchor="middle" x="967" y="-467.69" font-family="Times,serif" font-size="14.00">without_actions</text>
</a>
</g>
</g>
<!-- ContractCommon_maybe_sub_add -->
<g id="node11" class="node">
<title>ContractCommon_maybe_sub_add</title>
<g id="a_node11"><a xlink:href="ContractCommon.html#maybe_sub_add" xlink:title="maybe_sub_add">
<ellipse fill="#7fffd4" stroke="black" cx="765" cy="-471.39" rx="83.7" ry="18"/>
<ellipse fill="none" stroke="black" cx="765" cy="-471.39" rx="87.69" ry="22"/>
<ellipse fill="none" stroke="black" cx="765" cy="-471.39" rx="91.69" ry="26"/>
<text text-anchor="middle" x="765" y="-467.69" font-family="Times,serif" font-size="14.00">maybe_sub_add</text>
</a>
</g>
</g>
<!-- ContractCommon_maybe_cases -->
<g id="node12" class="node">
<title>ContractCommon_maybe_cases</title>
<g id="a_node12"><a xlink:href="ContractCommon.html#maybe_cases" xlink:title="maybe_cases">
<ellipse fill="#7fffd4" stroke="black" cx="921" cy="-262.39" rx="71.49" ry="18"/>
<text text-anchor="middle" x="921" y="-258.69" font-family="Times,serif" font-size="14.00">maybe_cases</text>
</a>
</g>
</g>
<!-- ContractCommon_maybe_sub_add&#45;&gt;ContractCommon_maybe_cases -->
<g id="edge2" class="edge">
<title>ContractCommon_maybe_sub_add&#45;&gt;ContractCommon_maybe_cases</title>
<path fill="none" stroke="black" d="M783.51,-445.83C813.43,-406.12 872.13,-328.24 902.22,-288.3"/>
<polygon fill="black" stroke="black" points="905.14,-290.24 908.36,-280.15 899.55,-286.03 905.14,-290.24"/>
</g>
<!-- ContractCommon_maybe -->
<g id="node13" class="node">
<title>ContractCommon_maybe</title>
<g id="a_node13"><a xlink:href="ContractCommon.html#maybe" xlink:title="maybe">
<ellipse fill="#f070d1" stroke="black" cx="921" cy="-78.39" rx="41.69" ry="18"/>
<text text-anchor="middle" x="921" y="-74.69" font-family="Times,serif" font-size="14.00">maybe</text>
</a>
</g>
</g>
<!-- ContractCommon_maybe_cases&#45;&gt;ContractCommon_maybe -->
<g id="edge3" class="edge">
<title>ContractCommon_maybe_cases&#45;&gt;ContractCommon_maybe</title>
<path fill="none" stroke="black" d="M921,-244.26C921,-212.69 921,-145.06 921,-106.95"/>
<polygon fill="black" stroke="black" points="924.5,-106.59 921,-96.59 917.5,-106.59 924.5,-106.59"/>
</g>
<!-- ContractCommon_AddressMap_add_convertible -->
<g id="node14" class="node">
<title>ContractCommon_AddressMap_add_convertible</title>
<g id="a_node14"><a xlink:href="ContractCommon.html#AddressMap_add_convertible" xlink:title="AddressMap_add_convertible">
<ellipse fill="#7fffd4" stroke="black" cx="500" cy="-471.39" rx="146.78" ry="18"/>
<ellipse fill="none" stroke="black" cx="500" cy="-471.39" rx="150.78" ry="22"/>
<ellipse fill="none" stroke="black" cx="500" cy="-471.39" rx="154.77" ry="26"/>
<text text-anchor="middle" x="500" y="-467.69" font-family="Times,serif" font-size="14.00">AddressMap_add_convertible</text>
</a>
</g>
</g>
<!-- ContractCommon_AddressMap_add_convertible&#45;&gt;ContractCommon_AddressMap_add -->
<g id="edge4" class="edge">
<title>ContractCommon_AddressMap_add_convertible&#45;&gt;ContractCommon_AddressMap_add</title>
<path fill="none" stroke="black" d="M455.8,-446.23C409.38,-419.42 336.04,-372.81 284,-319.39 275.16,-310.31 267.16,-298.84 260.87,-288.65"/>
<polygon fill="black" stroke="black" points="263.71,-286.58 255.61,-279.76 257.69,-290.15 263.71,-286.58"/>
</g>
<!-- ContractCommon_AddressMap_find_convertible -->
<g id="node15" class="node">
<title>ContractCommon_AddressMap_find_convertible</title>
<g id="a_node15"><a xlink:href="ContractCommon.html#AddressMap_find_convertible" xlink:title="AddressMap_find_convertible">
<ellipse fill="#7fffd4" stroke="black" cx="172" cy="-471.39" rx="147.57" ry="18"/>
<ellipse fill="none" stroke="black" cx="172" cy="-471.39" rx="151.57" ry="22"/>
<ellipse fill="none" stroke="black" cx="172" cy="-471.39" rx="155.57" ry="26"/>
<text text-anchor="middle" x="172" y="-467.69" font-family="Times,serif" font-size="14.00">AddressMap_find_convertible</text>
</a>
</g>
</g>
<!-- ContractCommon_AddressMap_find_convertible&#45;&gt;ContractCommon_AddressMap_find -->
<g id="edge5" class="edge">
<title>ContractCommon_AddressMap_find_convertible&#45;&gt;ContractCommon_AddressMap_find</title>
<path fill="none" stroke="black" d="M172,-445C172,-405.84 172,-331.01 172,-290.71"/>
<polygon fill="black" stroke="black" points="175.5,-290.55 172,-280.55 168.5,-290.55 175.5,-290.55"/>
</g>
</g>
</svg>
