<?xml version="1.0" encoding="UTF-8" standalone="no"?>
<!DOCTYPE svg PUBLIC "-//W3C//DTD SVG 1.1//EN"
 "http://www.w3.org/Graphics/SVG/1.1/DTD/svg11.dtd">
<!-- Generated by graphviz version 2.43.0 (0)
 -->
<!-- Title: CrowdfundingData Pages: 1 -->
<svg width="3417pt" height="1712pt"
 viewBox="0.00 0.00 3417.41 1711.50" xmlns="http://www.w3.org/2000/svg" xmlns:xlink="http://www.w3.org/1999/xlink">
<g id="graph0" class="graph" transform="scale(1 1) rotate(0) translate(4 1707.5)">
<title>CrowdfundingData</title>
<polygon fill="white" stroke="transparent" points="-4,4 -4,-1707.5 3413.41,-1707.5 3413.41,4 -4,4"/>
<g id="clust1" class="cluster">
<title>cluster_CrowdfundingData</title>
<polygon fill="#ffffc3" stroke="black" points="8,-45.73 8,-1657.77 3399,-1657.77 3399,-45.73 8,-45.73"/>
<text text-anchor="middle" x="84" y="-1642.57" font-family="Times,serif" font-size="14.00">CrowdfundingData</text>
</g>
<g id="clust2" class="cluster">
<title>cluster_CrowdfundingData_Notations</title>
<polygon fill="#ffffa3" stroke="black" points="2884,-503.05 2884,-1480.56 3134,-1480.56 3134,-503.05 2884,-503.05"/>
<text text-anchor="middle" x="2927" y="-1465.36" font-family="Times,serif" font-size="14.00">Notations</text>
</g>
<!-- CrowdfundingData_Notations_Σ_ -->
<g id="node1" class="node">
<title>CrowdfundingData_Notations_Σ_</title>
<g id="a_node1"><a xlink:href="CrowdfundingData.html#Notations.Σ'" xlink:title="\206\163&#39;">
<ellipse fill="#f070d1" stroke="black" cx="3070" cy="-1154.73" rx="48.18" ry="18"/>
<ellipse fill="none" stroke="black" cx="3070" cy="-1154.73" rx="52.18" ry="22"/>
<ellipse fill="none" stroke="black" cx="3070" cy="-1154.73" rx="56.19" ry="26"/>
<text text-anchor="middle" x="3070" y="-1151.03" font-family="Times,serif" font-size="14.00">206163&#39;</text>
</a>
</g>
</g>
<!-- CrowdfundingData_msg_syn -->
<g id="node31" class="node">
<title>CrowdfundingData_msg_syn</title>
<g id="a_node31"><a xlink:href="CrowdfundingData.html#msg_syn" xlink:title="msg_syn">
<ellipse fill="#f070d1" stroke="black" cx="3193" cy="-651.73" rx="50.89" ry="18"/>
<text text-anchor="middle" x="3193" y="-648.03" font-family="Times,serif" font-size="14.00">msg_syn</text>
</a>
</g>
</g>
<!-- CrowdfundingData_Notations_Σ_&#45;&gt;CrowdfundingData_msg_syn -->
<g id="edge1" class="edge">
<title>CrowdfundingData_Notations_Σ_&#45;&gt;CrowdfundingData_msg_syn</title>
<path fill="none" stroke="black" d="M3076.18,-1128.54C3097.06,-1043.5 3164.84,-767.44 3186.37,-679.74"/>
<polygon fill="black" stroke="black" points="3189.77,-680.55 3188.76,-670 3182.98,-678.88 3189.77,-680.55"/>
</g>
<!-- CrowdfundingData_state_syn -->
<g id="node44" class="node">
<title>CrowdfundingData_state_syn</title>
<g id="a_node44"><a xlink:href="CrowdfundingData.html#state_syn" xlink:title="state_syn">
<ellipse fill="#f070d1" stroke="black" cx="3316" cy="-651.73" rx="54.69" ry="18"/>
<text text-anchor="middle" x="3316" y="-648.03" font-family="Times,serif" font-size="14.00">state_syn</text>
</a>
</g>
</g>
<!-- CrowdfundingData_Notations_Σ_&#45;&gt;CrowdfundingData_state_syn -->
<g id="edge2" class="edge">
<title>CrowdfundingData_Notations_Σ_&#45;&gt;CrowdfundingData_state_syn</title>
<path fill="none" stroke="black" d="M3082.03,-1129.23C3123.55,-1044.67 3260.61,-765.54 3303.23,-678.73"/>
<polygon fill="black" stroke="black" points="3306.46,-680.09 3307.73,-669.57 3300.18,-677.01 3306.46,-680.09"/>
</g>
<!-- CrowdfundingData_Notations_mk_res -->
<g id="node2" class="node">
<title>CrowdfundingData_Notations_mk_res</title>
<g id="a_node2"><a xlink:href="CrowdfundingData.html#Notations.mk_res" xlink:title="mk_res">
<ellipse fill="#f070d1" stroke="black" cx="2944" cy="-1154.73" rx="44.36" ry="18"/>
<ellipse fill="none" stroke="black" cx="2944" cy="-1154.73" rx="48.38" ry="22"/>
<ellipse fill="none" stroke="black" cx="2944" cy="-1154.73" rx="52.39" ry="26"/>
<text text-anchor="middle" x="2944" y="-1151.03" font-family="Times,serif" font-size="14.00">mk_res</text>
</a>
</g>
</g>
<!-- CrowdfundingData_Notations_actions_ty -->
<g id="node3" class="node">
<title>CrowdfundingData_Notations_actions_ty</title>
<g id="a_node3"><a xlink:href="CrowdfundingData.html#Notations.actions_ty" xlink:title="actions_ty">
<ellipse fill="#f070d1" stroke="black" cx="2950" cy="-651.73" rx="57.69" ry="18"/>
<text text-anchor="middle" x="2950" y="-648.03" font-family="Times,serif" font-size="14.00">actions_ty</text>
</a>
</g>
</g>
<!-- CrowdfundingData_Notations_mk_res&#45;&gt;CrowdfundingData_Notations_actions_ty -->
<g id="edge3" class="edge">
<title>CrowdfundingData_Notations_mk_res&#45;&gt;CrowdfundingData_Notations_actions_ty</title>
<path fill="none" stroke="black" d="M2944.3,-1128.54C2945.32,-1043.59 2948.62,-768 2949.67,-680.01"/>
<polygon fill="black" stroke="black" points="2953.17,-680.04 2949.79,-670 2946.17,-679.96 2953.17,-680.04"/>
</g>
<!-- CrowdfundingData_State -->
<g id="node61" class="node">
<title>CrowdfundingData_State</title>
<g id="a_node61"><a xlink:href="CrowdfundingData.html#State" xlink:title="State">
<ellipse fill="#f070d1" stroke="black" cx="3355" cy="-194.73" rx="36" ry="18"/>
<text text-anchor="middle" x="3355" y="-191.03" font-family="Times,serif" font-size="14.00">State</text>
</a>
</g>
</g>
<!-- CrowdfundingData_Notations_mk_res&#45;&gt;CrowdfundingData_State -->
<g id="edge4" class="edge">
<title>CrowdfundingData_Notations_mk_res&#45;&gt;CrowdfundingData_State</title>
<path fill="none" stroke="black" d="M2974.41,-1133.35C3058.8,-1074.72 3295.23,-895.77 3380,-677.73 3443.36,-514.75 3386.81,-297.19 3363.74,-222.34"/>
<polygon fill="black" stroke="black" points="3367.06,-221.23 3360.72,-212.74 3360.38,-223.33 3367.06,-221.23"/>
</g>
<!-- CrowdfundingData_SCtx -->
<g id="node4" class="node">
<title>CrowdfundingData_SCtx</title>
<g id="a_node4"><a xlink:href="CrowdfundingData.html#SCtx" xlink:title="SCtx">
<ellipse fill="#f070d1" stroke="black" cx="2833" cy="-1154.73" rx="33.27" ry="18"/>
<ellipse fill="none" stroke="black" cx="2833" cy="-1154.73" rx="37.28" ry="22"/>
<ellipse fill="none" stroke="black" cx="2833" cy="-1154.73" rx="41.29" ry="26"/>
<text text-anchor="middle" x="2833" y="-1151.03" font-family="Times,serif" font-size="14.00">SCtx</text>
</a>
</g>
</g>
<!-- CrowdfundingData_cond -->
<g id="node5" class="node">
<title>CrowdfundingData_cond</title>
<g id="a_node5"><a xlink:href="CrowdfundingData.html#cond" xlink:title="cond">
<ellipse fill="#f070d1" stroke="black" cx="2733" cy="-1154.73" rx="32.49" ry="18"/>
<ellipse fill="none" stroke="black" cx="2733" cy="-1154.73" rx="36.49" ry="22"/>
<ellipse fill="none" stroke="black" cx="2733" cy="-1154.73" rx="40.49" ry="26"/>
<text text-anchor="middle" x="2733" y="-1151.03" font-family="Times,serif" font-size="14.00">cond</text>
</a>
</g>
</g>
<!-- CrowdfundingData_newmap -->
<g id="node6" class="node">
<title>CrowdfundingData_newmap</title>
<g id="a_node6"><a xlink:href="CrowdfundingData.html#newmap" xlink:title="newmap">
<ellipse fill="#f070d1" stroke="black" cx="2616" cy="-1154.73" rx="50.08" ry="18"/>
<ellipse fill="none" stroke="black" cx="2616" cy="-1154.73" rx="54.09" ry="22"/>
<ellipse fill="none" stroke="black" cx="2616" cy="-1154.73" rx="58.09" ry="26"/>
<text text-anchor="middle" x="2616" y="-1151.03" font-family="Times,serif" font-size="14.00">newmap</text>
</a>
</g>
</g>
<!-- CrowdfundingData_newstate -->
<g id="node7" class="node">
<title>CrowdfundingData_newstate</title>
<g id="a_node7"><a xlink:href="CrowdfundingData.html#newstate" xlink:title="newstate">
<ellipse fill="#f070d1" stroke="black" cx="2479" cy="-1154.73" rx="53.12" ry="18"/>
<ellipse fill="none" stroke="black" cx="2479" cy="-1154.73" rx="57.1" ry="22"/>
<ellipse fill="none" stroke="black" cx="2479" cy="-1154.73" rx="61.09" ry="26"/>
<text text-anchor="middle" x="2479" y="-1151.03" font-family="Times,serif" font-size="14.00">newstate</text>
</a>
</g>
</g>
<!-- CrowdfundingData_now -->
<g id="node8" class="node">
<title>CrowdfundingData_now</title>
<g id="a_node8"><a xlink:href="CrowdfundingData.html#now" xlink:title="now">
<ellipse fill="#f070d1" stroke="black" cx="2362" cy="-1154.73" rx="29.82" ry="18"/>
<ellipse fill="none" stroke="black" cx="2362" cy="-1154.73" rx="33.81" ry="22"/>
<ellipse fill="none" stroke="black" cx="2362" cy="-1154.73" rx="37.79" ry="26"/>
<text text-anchor="middle" x="2362" y="-1151.03" font-family="Times,serif" font-size="14.00">now</text>
</a>
</g>
</g>
<!-- CrowdfundingData_accs -->
<g id="node9" class="node">
<title>CrowdfundingData_accs</title>
<g id="a_node9"><a xlink:href="CrowdfundingData.html#accs" xlink:title="accs">
<ellipse fill="#f070d1" stroke="black" cx="2268" cy="-1154.73" rx="30.58" ry="18"/>
<ellipse fill="none" stroke="black" cx="2268" cy="-1154.73" rx="34.59" ry="22"/>
<ellipse fill="none" stroke="black" cx="2268" cy="-1154.73" rx="38.59" ry="26"/>
<text text-anchor="middle" x="2268" y="-1151.03" font-family="Times,serif" font-size="14.00">accs</text>
</a>
</g>
</g>
<!-- CrowdfundingData_isdone -->
<g id="node10" class="node">
<title>CrowdfundingData_isdone</title>
<g id="a_node10"><a xlink:href="CrowdfundingData.html#isdone" xlink:title="isdone">
<ellipse fill="#f070d1" stroke="black" cx="2163" cy="-1154.73" rx="40.9" ry="18"/>
<ellipse fill="none" stroke="black" cx="2163" cy="-1154.73" rx="44.9" ry="22"/>
<ellipse fill="none" stroke="black" cx="2163" cy="-1154.73" rx="48.89" ry="26"/>
<text text-anchor="middle" x="2163" y="-1151.03" font-family="Times,serif" font-size="14.00">isdone</text>
</a>
</g>
</g>
<!-- CrowdfundingData_own -->
<g id="node11" class="node">
<title>CrowdfundingData_own</title>
<g id="a_node11"><a xlink:href="CrowdfundingData.html#own" xlink:title="own">
<ellipse fill="#f070d1" stroke="black" cx="2058" cy="-1154.73" rx="29.82" ry="18"/>
<ellipse fill="none" stroke="black" cx="2058" cy="-1154.73" rx="33.81" ry="22"/>
<ellipse fill="none" stroke="black" cx="2058" cy="-1154.73" rx="37.79" ry="26"/>
<text text-anchor="middle" x="2058" y="-1151.03" font-family="Times,serif" font-size="14.00">own</text>
</a>
</g>
</g>
<!-- CrowdfundingData_sender -->
<g id="node12" class="node">
<title>CrowdfundingData_sender</title>
<g id="a_node12"><a xlink:href="CrowdfundingData.html#sender" xlink:title="sender">
<ellipse fill="#f070d1" stroke="black" cx="1952" cy="-1154.73" rx="42.45" ry="18"/>
<ellipse fill="none" stroke="black" cx="1952" cy="-1154.73" rx="46.47" ry="22"/>
<ellipse fill="none" stroke="black" cx="1952" cy="-1154.73" rx="50.49" ry="26"/>
<text text-anchor="middle" x="1952" y="-1151.03" font-family="Times,serif" font-size="14.00">sender</text>
</a>
</g>
</g>
<!-- CrowdfundingData_bal -->
<g id="node13" class="node">
<title>CrowdfundingData_bal</title>
<g id="a_node13"><a xlink:href="CrowdfundingData.html#bal" xlink:title="bal">
<ellipse fill="#f070d1" stroke="black" cx="1849" cy="-1154.73" rx="27" ry="18"/>
<ellipse fill="none" stroke="black" cx="1849" cy="-1154.73" rx="31" ry="22"/>
<ellipse fill="none" stroke="black" cx="1849" cy="-1154.73" rx="35" ry="26"/>
<text text-anchor="middle" x="1849" y="-1151.03" font-family="Times,serif" font-size="14.00">bal</text>
</a>
</g>
</g>
<!-- CrowdfundingData_tx_amount -->
<g id="node14" class="node">
<title>CrowdfundingData_tx_amount</title>
<g id="a_node14"><a xlink:href="CrowdfundingData.html#tx_amount" xlink:title="tx_amount">
<ellipse fill="#f070d1" stroke="black" cx="1728" cy="-1154.73" rx="59.61" ry="18"/>
<ellipse fill="none" stroke="black" cx="1728" cy="-1154.73" rx="63.6" ry="22"/>
<ellipse fill="none" stroke="black" cx="1728" cy="-1154.73" rx="67.59" ry="26"/>
<text text-anchor="middle" x="1728" y="-1151.03" font-family="Times,serif" font-size="14.00">tx_amount</text>
</a>
</g>
</g>
<!-- CrowdfundingData_chain -->
<g id="node15" class="node">
<title>CrowdfundingData_chain</title>
<g id="a_node15"><a xlink:href="CrowdfundingData.html#chain" xlink:title="chain">
<ellipse fill="#f070d1" stroke="black" cx="1598" cy="-1154.73" rx="35.95" ry="18"/>
<ellipse fill="none" stroke="black" cx="1598" cy="-1154.73" rx="39.97" ry="22"/>
<ellipse fill="none" stroke="black" cx="1598" cy="-1154.73" rx="44" ry="26"/>
<text text-anchor="middle" x="1598" y="-1151.03" font-family="Times,serif" font-size="14.00">chain</text>
</a>
</g>
</g>
<!-- CrowdfundingData_g -->
<g id="node16" class="node">
<title>CrowdfundingData_g</title>
<g id="a_node16"><a xlink:href="CrowdfundingData.html#g" xlink:title="g">
<ellipse fill="#f070d1" stroke="black" cx="1501" cy="-1154.73" rx="27" ry="18"/>
<ellipse fill="none" stroke="black" cx="1501" cy="-1154.73" rx="31" ry="22"/>
<ellipse fill="none" stroke="black" cx="1501" cy="-1154.73" rx="35" ry="26"/>
<text text-anchor="middle" x="1501" y="-1151.03" font-family="Times,serif" font-size="14.00">g</text>
</a>
</g>
</g>
<!-- CrowdfundingData_dl -->
<g id="node17" class="node">
<title>CrowdfundingData_dl</title>
<g id="a_node17"><a xlink:href="CrowdfundingData.html#dl" xlink:title="dl">
<ellipse fill="#f070d1" stroke="black" cx="1413" cy="-1154.73" rx="27" ry="18"/>
<ellipse fill="none" stroke="black" cx="1413" cy="-1154.73" rx="31" ry="22"/>
<ellipse fill="none" stroke="black" cx="1413" cy="-1154.73" rx="35" ry="26"/>
<text text-anchor="middle" x="1413" y="-1151.03" font-family="Times,serif" font-size="14.00">dl</text>
</a>
</g>
</g>
<!-- CrowdfundingData_v -->
<g id="node18" class="node">
<title>CrowdfundingData_v</title>
<g id="a_node18"><a xlink:href="CrowdfundingData.html#v" xlink:title="v">
<ellipse fill="#f070d1" stroke="black" cx="1325" cy="-1154.73" rx="27" ry="18"/>
<ellipse fill="none" stroke="black" cx="1325" cy="-1154.73" rx="31" ry="22"/>
<ellipse fill="none" stroke="black" cx="1325" cy="-1154.73" rx="35" ry="26"/>
<text text-anchor="middle" x="1325" y="-1151.03" font-family="Times,serif" font-size="14.00">v</text>
</a>
</g>
</g>
<!-- CrowdfundingData_m -->
<g id="node19" class="node">
<title>CrowdfundingData_m</title>
<g id="a_node19"><a xlink:href="CrowdfundingData.html#m" xlink:title="m">
<ellipse fill="#f070d1" stroke="black" cx="1237" cy="-1154.73" rx="27" ry="18"/>
<ellipse fill="none" stroke="black" cx="1237" cy="-1154.73" rx="31" ry="22"/>
<ellipse fill="none" stroke="black" cx="1237" cy="-1154.73" rx="35" ry="26"/>
<text text-anchor="middle" x="1237" y="-1151.03" font-family="Times,serif" font-size="14.00">m</text>
</a>
</g>
</g>
<!-- CrowdfundingData_e -->
<g id="node20" class="node">
<title>CrowdfundingData_e</title>
<g id="a_node20"><a xlink:href="CrowdfundingData.html#e" xlink:title="e">
<ellipse fill="#f070d1" stroke="black" cx="1149" cy="-1154.73" rx="27" ry="18"/>
<ellipse fill="none" stroke="black" cx="1149" cy="-1154.73" rx="31" ry="22"/>
<ellipse fill="none" stroke="black" cx="1149" cy="-1154.73" rx="35" ry="26"/>
<text text-anchor="middle" x="1149" y="-1151.03" font-family="Times,serif" font-size="14.00">e</text>
</a>
</g>
</g>
<!-- CrowdfundingData_s -->
<g id="node21" class="node">
<title>CrowdfundingData_s</title>
<g id="a_node21"><a xlink:href="CrowdfundingData.html#s" xlink:title="s">
<ellipse fill="#f070d1" stroke="black" cx="1061" cy="-1154.73" rx="27" ry="18"/>
<ellipse fill="none" stroke="black" cx="1061" cy="-1154.73" rx="31" ry="22"/>
<ellipse fill="none" stroke="black" cx="1061" cy="-1154.73" rx="35" ry="26"/>
<text text-anchor="middle" x="1061" y="-1151.03" font-family="Times,serif" font-size="14.00">s</text>
</a>
</g>
</g>
<!-- CrowdfundingData_c -->
<g id="node22" class="node">
<title>CrowdfundingData_c</title>
<g id="a_node22"><a xlink:href="CrowdfundingData.html#c" xlink:title="c">
<ellipse fill="#f070d1" stroke="black" cx="973" cy="-1154.73" rx="27" ry="18"/>
<ellipse fill="none" stroke="black" cx="973" cy="-1154.73" rx="31" ry="22"/>
<ellipse fill="none" stroke="black" cx="973" cy="-1154.73" rx="35" ry="26"/>
<text text-anchor="middle" x="973" y="-1151.03" font-family="Times,serif" font-size="14.00">c</text>
</a>
</g>
</g>
<!-- CrowdfundingData_Msg_coq_sind -->
<g id="node23" class="node">
<title>CrowdfundingData_Msg_coq_sind</title>
<g id="a_node23"><a xlink:href="CrowdfundingData.html#Msg_coq_sind" xlink:title="Msg_coq_sind">
<ellipse fill="#f070d1" stroke="black" cx="1994" cy="-651.73" rx="75.3" ry="18"/>
<ellipse fill="none" stroke="black" cx="1994" cy="-651.73" rx="79.29" ry="22"/>
<ellipse fill="none" stroke="black" cx="1994" cy="-651.73" rx="83.29" ry="26"/>
<text text-anchor="middle" x="1994" y="-648.03" font-family="Times,serif" font-size="14.00">Msg_coq_sind</text>
</a>
</g>
</g>
<!-- CrowdfundingData_Claim_coq -->
<g id="node27" class="node">
<title>CrowdfundingData_Claim_coq</title>
<g id="a_node27"><a xlink:href="CrowdfundingData.html#Claim_coq" xlink:title="Claim_coq">
<ellipse fill="#7faaff" stroke="black" cx="1584" cy="-194.73" rx="57.69" ry="18"/>
<text text-anchor="middle" x="1584" y="-191.03" font-family="Times,serif" font-size="14.00">Claim_coq</text>
</a>
</g>
</g>
<!-- CrowdfundingData_Msg_coq_sind&#45;&gt;CrowdfundingData_Claim_coq -->
<g id="edge5" class="edge">
<title>CrowdfundingData_Msg_coq_sind&#45;&gt;CrowdfundingData_Claim_coq</title>
<path fill="none" stroke="black" d="M1972.25,-626.59C1901.18,-547.73 1676.38,-298.25 1605.57,-219.67"/>
<polygon fill="black" stroke="black" points="1608.13,-217.28 1598.84,-212.2 1602.93,-221.97 1608.13,-217.28"/>
</g>
<!-- CrowdfundingData_GetFunds_coq -->
<g id="node28" class="node">
<title>CrowdfundingData_GetFunds_coq</title>
<g id="a_node28"><a xlink:href="CrowdfundingData.html#GetFunds_coq" xlink:title="GetFunds_coq">
<ellipse fill="#7faaff" stroke="black" cx="1737" cy="-194.73" rx="76.89" ry="18"/>
<text text-anchor="middle" x="1737" y="-191.03" font-family="Times,serif" font-size="14.00">GetFunds_coq</text>
</a>
</g>
</g>
<!-- CrowdfundingData_Msg_coq_sind&#45;&gt;CrowdfundingData_GetFunds_coq -->
<g id="edge6" class="edge">
<title>CrowdfundingData_Msg_coq_sind&#45;&gt;CrowdfundingData_GetFunds_coq</title>
<path fill="none" stroke="black" d="M1980,-625.95C1935.51,-547.18 1797.61,-303.04 1751.89,-222.1"/>
<polygon fill="black" stroke="black" points="1754.75,-220.05 1746.79,-213.06 1748.66,-223.49 1754.75,-220.05"/>
</g>
<!-- CrowdfundingData_Donate_coq -->
<g id="node29" class="node">
<title>CrowdfundingData_Donate_coq</title>
<g id="a_node29"><a xlink:href="CrowdfundingData.html#Donate_coq" xlink:title="Donate_coq">
<ellipse fill="#7faaff" stroke="black" cx="1896" cy="-194.73" rx="64.19" ry="18"/>
<text text-anchor="middle" x="1896" y="-191.03" font-family="Times,serif" font-size="14.00">Donate_coq</text>
</a>
</g>
</g>
<!-- CrowdfundingData_Msg_coq_sind&#45;&gt;CrowdfundingData_Donate_coq -->
<g id="edge7" class="edge">
<title>CrowdfundingData_Msg_coq_sind&#45;&gt;CrowdfundingData_Donate_coq</title>
<path fill="none" stroke="black" d="M1988.59,-625.62C1971.62,-546.81 1919.49,-304.79 1901.88,-223.04"/>
<polygon fill="black" stroke="black" points="1905.25,-222.06 1899.72,-213.02 1898.41,-223.54 1905.25,-222.06"/>
</g>
<!-- CrowdfundingData_Msg_coq -->
<g id="node30" class="node">
<title>CrowdfundingData_Msg_coq</title>
<g id="a_node30"><a xlink:href="CrowdfundingData.html#Msg_coq" xlink:title="Msg_coq">
<ellipse fill="#e2cdfa" stroke="black" cx="2030" cy="-194.73" rx="51.19" ry="18"/>
<text text-anchor="middle" x="2030" y="-191.03" font-family="Times,serif" font-size="14.00">Msg_coq</text>
</a>
</g>
</g>
<!-- CrowdfundingData_Msg_coq_sind&#45;&gt;CrowdfundingData_Msg_coq -->
<g id="edge8" class="edge">
<title>CrowdfundingData_Msg_coq_sind&#45;&gt;CrowdfundingData_Msg_coq</title>
<path fill="none" stroke="black" d="M1995.99,-625.62C2002.22,-546.81 2021.37,-304.79 2027.84,-223.04"/>
<polygon fill="black" stroke="black" points="2031.33,-223.27 2028.63,-213.02 2024.35,-222.72 2031.33,-223.27"/>
</g>
<!-- CrowdfundingData_Msg_coq_rec -->
<g id="node24" class="node">
<title>CrowdfundingData_Msg_coq_rec</title>
<g id="a_node24"><a xlink:href="CrowdfundingData.html#Msg_coq_rec" xlink:title="Msg_coq_rec">
<ellipse fill="#f070d1" stroke="black" cx="842" cy="-1154.73" rx="70.37" ry="18"/>
<ellipse fill="none" stroke="black" cx="842" cy="-1154.73" rx="74.38" ry="22"/>
<ellipse fill="none" stroke="black" cx="842" cy="-1154.73" rx="78.39" ry="26"/>
<text text-anchor="middle" x="842" y="-1151.03" font-family="Times,serif" font-size="14.00">Msg_coq_rec</text>
</a>
</g>
</g>
<!-- CrowdfundingData_Msg_coq_rect -->
<g id="node26" class="node">
<title>CrowdfundingData_Msg_coq_rect</title>
<g id="a_node26"><a xlink:href="CrowdfundingData.html#Msg_coq_rect" xlink:title="Msg_coq_rect">
<ellipse fill="#f070d1" stroke="black" cx="1819" cy="-651.73" rx="74.19" ry="18"/>
<text text-anchor="middle" x="1819" y="-648.03" font-family="Times,serif" font-size="14.00">Msg_coq_rect</text>
</a>
</g>
</g>
<!-- CrowdfundingData_Msg_coq_rec&#45;&gt;CrowdfundingData_Msg_coq_rect -->
<g id="edge9" class="edge">
<title>CrowdfundingData_Msg_coq_rec&#45;&gt;CrowdfundingData_Msg_coq_rect</title>
<path fill="none" stroke="black" d="M883.36,-1132.52C1043.62,-1050.34 1622.61,-753.44 1779.53,-672.97"/>
<polygon fill="black" stroke="black" points="1781.53,-675.88 1788.83,-668.2 1778.33,-669.65 1781.53,-675.88"/>
</g>
<!-- CrowdfundingData_Msg_coq_ind -->
<g id="node25" class="node">
<title>CrowdfundingData_Msg_coq_ind</title>
<g id="a_node25"><a xlink:href="CrowdfundingData.html#Msg_coq_ind" xlink:title="Msg_coq_ind">
<ellipse fill="#7fffd4" stroke="black" cx="1649" cy="-651.73" rx="70.37" ry="18"/>
<ellipse fill="none" stroke="black" cx="1649" cy="-651.73" rx="74.38" ry="22"/>
<ellipse fill="none" stroke="black" cx="1649" cy="-651.73" rx="78.39" ry="26"/>
<text text-anchor="middle" x="1649" y="-648.03" font-family="Times,serif" font-size="14.00">Msg_coq_ind</text>
</a>
</g>
</g>
<!-- CrowdfundingData_Msg_coq_ind&#45;&gt;CrowdfundingData_Claim_coq -->
<g id="edge10" class="edge">
<title>CrowdfundingData_Msg_coq_ind&#45;&gt;CrowdfundingData_Claim_coq</title>
<path fill="none" stroke="black" d="M1645.41,-625.62C1634.15,-546.81 1599.58,-304.79 1587.9,-223.04"/>
<polygon fill="black" stroke="black" points="1591.35,-222.43 1586.47,-213.02 1584.42,-223.42 1591.35,-222.43"/>
</g>
<!-- CrowdfundingData_Msg_coq_ind&#45;&gt;CrowdfundingData_GetFunds_coq -->
<g id="edge11" class="edge">
<title>CrowdfundingData_Msg_coq_ind&#45;&gt;CrowdfundingData_GetFunds_coq</title>
<path fill="none" stroke="black" d="M1653.86,-625.62C1669.1,-546.81 1715.91,-304.79 1731.72,-223.04"/>
<polygon fill="black" stroke="black" points="1735.19,-223.51 1733.66,-213.02 1728.32,-222.18 1735.19,-223.51"/>
</g>
<!-- CrowdfundingData_Msg_coq_ind&#45;&gt;CrowdfundingData_Donate_coq -->
<g id="edge12" class="edge">
<title>CrowdfundingData_Msg_coq_ind&#45;&gt;CrowdfundingData_Donate_coq</title>
<path fill="none" stroke="black" d="M1662.46,-625.95C1705.31,-547 1838.35,-301.93 1881.98,-221.55"/>
<polygon fill="black" stroke="black" points="1885.15,-223.05 1886.85,-212.59 1879,-219.71 1885.15,-223.05"/>
</g>
<!-- CrowdfundingData_Msg_coq_ind&#45;&gt;CrowdfundingData_Msg_coq -->
<g id="edge13" class="edge">
<title>CrowdfundingData_Msg_coq_ind&#45;&gt;CrowdfundingData_Msg_coq</title>
<path fill="none" stroke="black" d="M1669.22,-626.59C1735.12,-547.89 1943.31,-299.26 2009.55,-220.15"/>
<polygon fill="black" stroke="black" points="2012.48,-222.11 2016.21,-212.2 2007.11,-217.62 2012.48,-222.11"/>
</g>
<!-- CrowdfundingData_Msg_coq_rect&#45;&gt;CrowdfundingData_Claim_coq -->
<g id="edge14" class="edge">
<title>CrowdfundingData_Msg_coq_rect&#45;&gt;CrowdfundingData_Claim_coq</title>
<path fill="none" stroke="black" d="M1810.22,-633.73C1774.55,-564.67 1640.4,-304.94 1597.37,-221.63"/>
<polygon fill="black" stroke="black" points="1600.4,-219.86 1592.7,-212.58 1594.18,-223.07 1600.4,-219.86"/>
</g>
<!-- CrowdfundingData_Msg_coq_rect&#45;&gt;CrowdfundingData_GetFunds_coq -->
<g id="edge15" class="edge">
<title>CrowdfundingData_Msg_coq_rect&#45;&gt;CrowdfundingData_GetFunds_coq</title>
<path fill="none" stroke="black" d="M1815.94,-633.73C1803.56,-565.03 1757.18,-307.68 1741.91,-222.96"/>
<polygon fill="black" stroke="black" points="1745.34,-222.29 1740.12,-213.07 1738.45,-223.53 1745.34,-222.29"/>
</g>
<!-- CrowdfundingData_Msg_coq_rect&#45;&gt;CrowdfundingData_Donate_coq -->
<g id="edge16" class="edge">
<title>CrowdfundingData_Msg_coq_rect&#45;&gt;CrowdfundingData_Donate_coq</title>
<path fill="none" stroke="black" d="M1821.88,-633.73C1833.5,-565.03 1877.05,-307.68 1891.39,-222.96"/>
<polygon fill="black" stroke="black" points="1894.85,-223.51 1893.07,-213.07 1887.95,-222.34 1894.85,-223.51"/>
</g>
<!-- CrowdfundingData_Msg_coq_rect&#45;&gt;CrowdfundingData_Msg_coq -->
<g id="edge17" class="edge">
<title>CrowdfundingData_Msg_coq_rect&#45;&gt;CrowdfundingData_Msg_coq</title>
<path fill="none" stroke="black" d="M1826.89,-633.73C1858.88,-564.74 1979.11,-305.47 2017.87,-221.88"/>
<polygon fill="black" stroke="black" points="2021.15,-223.13 2022.19,-212.58 2014.8,-220.18 2021.15,-223.13"/>
</g>
<!-- CrowdfundingData_Claim -->
<g id="node48" class="node">
<title>CrowdfundingData_Claim</title>
<g id="a_node48"><a xlink:href="CrowdfundingData.html#Claim" xlink:title="Claim">
<ellipse fill="#f070d1" stroke="black" cx="2210" cy="-194.73" rx="37.89" ry="18"/>
<text text-anchor="middle" x="2210" y="-191.03" font-family="Times,serif" font-size="14.00">Claim</text>
</a>
</g>
</g>
<!-- CrowdfundingData_msg_syn&#45;&gt;CrowdfundingData_Claim -->
<g id="edge18" class="edge">
<title>CrowdfundingData_msg_syn&#45;&gt;CrowdfundingData_Claim</title>
<path fill="none" stroke="black" d="M3163.31,-636.99C3019.96,-570.64 2399.92,-283.64 2245.12,-211.99"/>
<polygon fill="black" stroke="black" points="2246.56,-208.8 2236.02,-207.77 2243.62,-215.15 2246.56,-208.8"/>
</g>
<!-- CrowdfundingData_GetFunds -->
<g id="node49" class="node">
<title>CrowdfundingData_GetFunds</title>
<g id="a_node49"><a xlink:href="CrowdfundingData.html#GetFunds" xlink:title="GetFunds">
<ellipse fill="#f070d1" stroke="black" cx="2322" cy="-194.73" rx="55.79" ry="18"/>
<text text-anchor="middle" x="2322" y="-191.03" font-family="Times,serif" font-size="14.00">GetFunds</text>
</a>
</g>
</g>
<!-- CrowdfundingData_msg_syn&#45;&gt;CrowdfundingData_GetFunds -->
<g id="edge19" class="edge">
<title>CrowdfundingData_msg_syn&#45;&gt;CrowdfundingData_GetFunds</title>
<path fill="none" stroke="black" d="M3165.49,-636.36C3038.02,-569.77 2504.78,-291.21 2358.98,-215.05"/>
<polygon fill="black" stroke="black" points="2360.43,-211.86 2349.95,-210.33 2357.19,-218.06 2360.43,-211.86"/>
</g>
<!-- CrowdfundingData_Donate -->
<g id="node50" class="node">
<title>CrowdfundingData_Donate</title>
<g id="a_node50"><a xlink:href="CrowdfundingData.html#Donate" xlink:title="Donate">
<ellipse fill="#f070d1" stroke="black" cx="2440" cy="-194.73" rx="44.39" ry="18"/>
<text text-anchor="middle" x="2440" y="-191.03" font-family="Times,serif" font-size="14.00">Donate</text>
</a>
</g>
</g>
<!-- CrowdfundingData_msg_syn&#45;&gt;CrowdfundingData_Donate -->
<g id="edge20" class="edge">
<title>CrowdfundingData_msg_syn&#45;&gt;CrowdfundingData_Donate</title>
<path fill="none" stroke="black" d="M3168.37,-635.85C3056.85,-568.46 2599.11,-291.87 2472.55,-215.4"/>
<polygon fill="black" stroke="black" points="2474.05,-212.22 2463.69,-210.04 2470.43,-218.21 2474.05,-212.22"/>
</g>
<!-- CrowdfundingData_Msg -->
<g id="node51" class="node">
<title>CrowdfundingData_Msg</title>
<g id="a_node51"><a xlink:href="CrowdfundingData.html#Msg" xlink:title="Msg">
<ellipse fill="#f070d1" stroke="black" cx="2533" cy="-194.73" rx="30.59" ry="18"/>
<text text-anchor="middle" x="2533" y="-191.03" font-family="Times,serif" font-size="14.00">Msg</text>
</a>
</g>
</g>
<!-- CrowdfundingData_msg_syn&#45;&gt;CrowdfundingData_Msg -->
<g id="edge21" class="edge">
<title>CrowdfundingData_msg_syn&#45;&gt;CrowdfundingData_Msg</title>
<path fill="none" stroke="black" d="M3170.66,-635.33C3071.34,-566.86 2669.87,-290.09 2560.58,-214.75"/>
<polygon fill="black" stroke="black" points="2562.29,-211.67 2552.07,-208.88 2558.32,-217.44 2562.29,-211.67"/>
</g>
<!-- CrowdfundingData_goal_coq -->
<g id="node32" class="node">
<title>CrowdfundingData_goal_coq</title>
<g id="a_node32"><a xlink:href="CrowdfundingData.html#goal_coq" xlink:title="goal_coq">
<ellipse fill="#f070d1" stroke="black" cx="809" cy="-651.73" rx="50.86" ry="18"/>
<ellipse fill="none" stroke="black" cx="809" cy="-651.73" rx="54.88" ry="22"/>
<ellipse fill="none" stroke="black" cx="809" cy="-651.73" rx="58.89" ry="26"/>
<text text-anchor="middle" x="809" y="-648.03" font-family="Times,serif" font-size="14.00">goal_coq</text>
</a>
</g>
</g>
<!-- CrowdfundingData_State_coq -->
<g id="node43" class="node">
<title>CrowdfundingData_State_coq</title>
<g id="a_node43"><a xlink:href="CrowdfundingData.html#State_coq" xlink:title="State_coq">
<ellipse fill="#e2cdfa" stroke="black" cx="809" cy="-194.73" rx="55.79" ry="18"/>
<text text-anchor="middle" x="809" y="-191.03" font-family="Times,serif" font-size="14.00">State_coq</text>
</a>
</g>
</g>
<!-- CrowdfundingData_goal_coq&#45;&gt;CrowdfundingData_State_coq -->
<g id="edge22" class="edge">
<title>CrowdfundingData_goal_coq&#45;&gt;CrowdfundingData_State_coq</title>
<path fill="none" stroke="black" d="M809,-625.62C809,-546.81 809,-304.79 809,-223.04"/>
<polygon fill="black" stroke="black" points="812.5,-223.02 809,-213.02 805.5,-223.02 812.5,-223.02"/>
</g>
<!-- CrowdfundingData_done_coq -->
<g id="node33" class="node">
<title>CrowdfundingData_done_coq</title>
<g id="a_node33"><a xlink:href="CrowdfundingData.html#done_coq" xlink:title="done_coq">
<ellipse fill="#f070d1" stroke="black" cx="670" cy="-651.73" rx="53.9" ry="18"/>
<ellipse fill="none" stroke="black" cx="670" cy="-651.73" rx="57.89" ry="22"/>
<ellipse fill="none" stroke="black" cx="670" cy="-651.73" rx="61.89" ry="26"/>
<text text-anchor="middle" x="670" y="-648.03" font-family="Times,serif" font-size="14.00">done_coq</text>
</a>
</g>
</g>
<!-- CrowdfundingData_done_coq&#45;&gt;CrowdfundingData_State_coq -->
<g id="edge23" class="edge">
<title>CrowdfundingData_done_coq&#45;&gt;CrowdfundingData_State_coq</title>
<path fill="none" stroke="black" d="M677.67,-625.62C701.75,-546.81 775.68,-304.79 800.66,-223.04"/>
<polygon fill="black" stroke="black" points="804.14,-223.61 803.72,-213.02 797.45,-221.56 804.14,-223.61"/>
</g>
<!-- CrowdfundingData_deadline_coq -->
<g id="node34" class="node">
<title>CrowdfundingData_deadline_coq</title>
<g id="a_node34"><a xlink:href="CrowdfundingData.html#deadline_coq" xlink:title="deadline_coq">
<ellipse fill="#f070d1" stroke="black" cx="1474" cy="-651.73" rx="70.7" ry="18"/>
<ellipse fill="none" stroke="black" cx="1474" cy="-651.73" rx="74.7" ry="22"/>
<ellipse fill="none" stroke="black" cx="1474" cy="-651.73" rx="78.69" ry="26"/>
<text text-anchor="middle" x="1474" y="-648.03" font-family="Times,serif" font-size="14.00">deadline_coq</text>
</a>
</g>
</g>
<!-- CrowdfundingData_deadline_coq&#45;&gt;CrowdfundingData_State_coq -->
<g id="edge24" class="edge">
<title>CrowdfundingData_deadline_coq&#45;&gt;CrowdfundingData_State_coq</title>
<path fill="none" stroke="black" d="M1440.57,-627.86C1326.2,-549.6 951.53,-293.25 840.36,-217.19"/>
<polygon fill="black" stroke="black" points="842.15,-214.17 831.92,-211.42 838.2,-219.95 842.15,-214.17"/>
</g>
<!-- CrowdfundingData_owner_coq -->
<g id="node35" class="node">
<title>CrowdfundingData_owner_coq</title>
<g id="a_node35"><a xlink:href="CrowdfundingData.html#owner_coq" xlink:title="owner_coq">
<ellipse fill="#f070d1" stroke="black" cx="1309" cy="-651.73" rx="59.61" ry="18"/>
<ellipse fill="none" stroke="black" cx="1309" cy="-651.73" rx="63.6" ry="22"/>
<ellipse fill="none" stroke="black" cx="1309" cy="-651.73" rx="67.59" ry="26"/>
<text text-anchor="middle" x="1309" y="-648.03" font-family="Times,serif" font-size="14.00">owner_coq</text>
</a>
</g>
</g>
<!-- CrowdfundingData_owner_coq&#45;&gt;CrowdfundingData_State_coq -->
<g id="edge25" class="edge">
<title>CrowdfundingData_owner_coq&#45;&gt;CrowdfundingData_State_coq</title>
<path fill="none" stroke="black" d="M1283.52,-627.54C1197.64,-549.4 919.44,-296.24 834.12,-218.59"/>
<polygon fill="black" stroke="black" points="836.45,-215.98 826.7,-211.84 831.74,-221.16 836.45,-215.98"/>
</g>
<!-- CrowdfundingData_donations_coq -->
<g id="node36" class="node">
<title>CrowdfundingData_donations_coq</title>
<g id="a_node36"><a xlink:href="CrowdfundingData.html#donations_coq" xlink:title="donations_coq">
<ellipse fill="#f070d1" stroke="black" cx="1139" cy="-651.73" rx="76.87" ry="18"/>
<ellipse fill="none" stroke="black" cx="1139" cy="-651.73" rx="80.88" ry="22"/>
<ellipse fill="none" stroke="black" cx="1139" cy="-651.73" rx="84.89" ry="26"/>
<text text-anchor="middle" x="1139" y="-648.03" font-family="Times,serif" font-size="14.00">donations_coq</text>
</a>
</g>
</g>
<!-- CrowdfundingData_donations_coq&#45;&gt;CrowdfundingData_State_coq -->
<g id="edge26" class="edge">
<title>CrowdfundingData_donations_coq&#45;&gt;CrowdfundingData_State_coq</title>
<path fill="none" stroke="black" d="M1121.26,-626.27C1064.15,-547.53 885.46,-301.15 827.41,-221.12"/>
<polygon fill="black" stroke="black" points="829.96,-218.67 821.25,-212.63 824.29,-222.78 829.96,-218.67"/>
</g>
<!-- CrowdfundingData_balance_coq -->
<g id="node37" class="node">
<title>CrowdfundingData_balance_coq</title>
<g id="a_node37"><a xlink:href="CrowdfundingData.html#balance_coq" xlink:title="balance_coq">
<ellipse fill="#f070d1" stroke="black" cx="961" cy="-651.73" rx="66.89" ry="18"/>
<ellipse fill="none" stroke="black" cx="961" cy="-651.73" rx="70.89" ry="22"/>
<ellipse fill="none" stroke="black" cx="961" cy="-651.73" rx="74.89" ry="26"/>
<text text-anchor="middle" x="961" y="-648.03" font-family="Times,serif" font-size="14.00">balance_coq</text>
</a>
</g>
</g>
<!-- CrowdfundingData_balance_coq&#45;&gt;CrowdfundingData_State_coq -->
<g id="edge27" class="edge">
<title>CrowdfundingData_balance_coq&#45;&gt;CrowdfundingData_State_coq</title>
<path fill="none" stroke="black" d="M952.61,-625.62C926.23,-546.65 845.1,-303.8 817.96,-222.54"/>
<polygon fill="black" stroke="black" points="821.26,-221.4 814.78,-213.02 814.63,-223.62 821.26,-221.4"/>
</g>
<!-- CrowdfundingData_State_coq_sind -->
<g id="node38" class="node">
<title>CrowdfundingData_State_coq_sind</title>
<g id="a_node38"><a xlink:href="CrowdfundingData.html#State_coq_sind" xlink:title="State_coq_sind">
<ellipse fill="#f070d1" stroke="black" cx="502" cy="-651.73" rx="79.89" ry="18"/>
<ellipse fill="none" stroke="black" cx="502" cy="-651.73" rx="83.89" ry="22"/>
<ellipse fill="none" stroke="black" cx="502" cy="-651.73" rx="87.89" ry="26"/>
<text text-anchor="middle" x="502" y="-648.03" font-family="Times,serif" font-size="14.00">State_coq_sind</text>
</a>
</g>
</g>
<!-- CrowdfundingData_mkState_coq -->
<g id="node42" class="node">
<title>CrowdfundingData_mkState_coq</title>
<g id="a_node42"><a xlink:href="CrowdfundingData.html#mkState_coq" xlink:title="mkState_coq">
<ellipse fill="#7faaff" stroke="black" cx="317" cy="-194.73" rx="70.39" ry="18"/>
<text text-anchor="middle" x="317" y="-191.03" font-family="Times,serif" font-size="14.00">mkState_coq</text>
</a>
</g>
</g>
<!-- CrowdfundingData_State_coq_sind&#45;&gt;CrowdfundingData_mkState_coq -->
<g id="edge28" class="edge">
<title>CrowdfundingData_State_coq_sind&#45;&gt;CrowdfundingData_mkState_coq</title>
<path fill="none" stroke="black" d="M491.79,-625.62C459.68,-546.65 360.94,-303.8 327.9,-222.54"/>
<polygon fill="black" stroke="black" points="331.04,-220.97 324.03,-213.02 324.56,-223.61 331.04,-220.97"/>
</g>
<!-- CrowdfundingData_State_coq_sind&#45;&gt;CrowdfundingData_State_coq -->
<g id="edge29" class="edge">
<title>CrowdfundingData_State_coq_sind&#45;&gt;CrowdfundingData_State_coq</title>
<path fill="none" stroke="black" d="M518.72,-625.95C572.1,-546.84 738.02,-300.93 791.91,-221.07"/>
<polygon fill="black" stroke="black" points="794.93,-222.84 797.63,-212.59 789.13,-218.92 794.93,-222.84"/>
</g>
<!-- CrowdfundingData_State_coq_rec -->
<g id="node39" class="node">
<title>CrowdfundingData_State_coq_rec</title>
<g id="a_node39"><a xlink:href="CrowdfundingData.html#State_coq_rec" xlink:title="State_coq_rec">
<ellipse fill="#f070d1" stroke="black" cx="662" cy="-1154.73" rx="75.3" ry="18"/>
<ellipse fill="none" stroke="black" cx="662" cy="-1154.73" rx="79.29" ry="22"/>
<ellipse fill="none" stroke="black" cx="662" cy="-1154.73" rx="83.29" ry="26"/>
<text text-anchor="middle" x="662" y="-1151.03" font-family="Times,serif" font-size="14.00">State_coq_rec</text>
</a>
</g>
</g>
<!-- CrowdfundingData_State_coq_rect -->
<g id="node41" class="node">
<title>CrowdfundingData_State_coq_rect</title>
<g id="a_node41"><a xlink:href="CrowdfundingData.html#State_coq_rect" xlink:title="State_coq_rect">
<ellipse fill="#f070d1" stroke="black" cx="317" cy="-651.73" rx="79.09" ry="18"/>
<text text-anchor="middle" x="317" y="-648.03" font-family="Times,serif" font-size="14.00">State_coq_rect</text>
</a>
</g>
</g>
<!-- CrowdfundingData_State_coq_rec&#45;&gt;CrowdfundingData_State_coq_rect -->
<g id="edge30" class="edge">
<title>CrowdfundingData_State_coq_rec&#45;&gt;CrowdfundingData_State_coq_rect</title>
<path fill="none" stroke="black" d="M645.13,-1129.23C586.72,-1044.41 393.51,-763.84 334.36,-677.95"/>
<polygon fill="black" stroke="black" points="337.15,-675.83 328.6,-669.57 331.39,-679.8 337.15,-675.83"/>
</g>
<!-- CrowdfundingData_State_coq_ind -->
<g id="node40" class="node">
<title>CrowdfundingData_State_coq_ind</title>
<g id="a_node40"><a xlink:href="CrowdfundingData.html#State_coq_ind" xlink:title="State_coq_ind">
<ellipse fill="#7fffd4" stroke="black" cx="136" cy="-651.73" rx="75.3" ry="18"/>
<ellipse fill="none" stroke="black" cx="136" cy="-651.73" rx="79.29" ry="22"/>
<ellipse fill="none" stroke="black" cx="136" cy="-651.73" rx="83.29" ry="26"/>
<text text-anchor="middle" x="136" y="-648.03" font-family="Times,serif" font-size="14.00">State_coq_ind</text>
</a>
</g>
</g>
<!-- CrowdfundingData_State_coq_ind&#45;&gt;CrowdfundingData_mkState_coq -->
<g id="edge31" class="edge">
<title>CrowdfundingData_State_coq_ind&#45;&gt;CrowdfundingData_mkState_coq</title>
<path fill="none" stroke="black" d="M145.99,-625.62C177.4,-546.65 274.01,-303.8 306.34,-222.54"/>
<polygon fill="black" stroke="black" points="309.68,-223.61 310.12,-213.02 303.17,-221.02 309.68,-223.61"/>
</g>
<!-- CrowdfundingData_State_coq_ind&#45;&gt;CrowdfundingData_State_coq -->
<g id="edge32" class="edge">
<title>CrowdfundingData_State_coq_ind&#45;&gt;CrowdfundingData_State_coq</title>
<path fill="none" stroke="black" d="M169.84,-627.86C285.71,-549.52 665.61,-292.68 777.64,-216.94"/>
<polygon fill="black" stroke="black" points="779.81,-219.69 786.14,-211.19 775.89,-213.89 779.81,-219.69"/>
</g>
<!-- CrowdfundingData_State_coq_rect&#45;&gt;CrowdfundingData_mkState_coq -->
<g id="edge33" class="edge">
<title>CrowdfundingData_State_coq_rect&#45;&gt;CrowdfundingData_mkState_coq</title>
<path fill="none" stroke="black" d="M317,-633.73C317,-565.1 317,-308.2 317,-223.22"/>
<polygon fill="black" stroke="black" points="320.5,-223.07 317,-213.07 313.5,-223.07 320.5,-223.07"/>
</g>
<!-- CrowdfundingData_State_coq_rect&#45;&gt;CrowdfundingData_State_coq -->
<g id="edge34" class="edge">
<title>CrowdfundingData_State_coq_rect&#45;&gt;CrowdfundingData_State_coq</title>
<path fill="none" stroke="black" d="M335.09,-634C410.16,-564.58 697.18,-299.14 783.99,-218.86"/>
<polygon fill="black" stroke="black" points="786.55,-221.26 791.52,-211.9 781.8,-216.12 786.55,-221.26"/>
</g>
<!-- CrowdfundingData_done -->
<g id="node54" class="node">
<title>CrowdfundingData_done</title>
<g id="a_node54"><a xlink:href="CrowdfundingData.html#done" xlink:title="done">
<ellipse fill="#f070d1" stroke="black" cx="3189" cy="-194.73" rx="33.29" ry="18"/>
<text text-anchor="middle" x="3189" y="-191.03" font-family="Times,serif" font-size="14.00">done</text>
</a>
</g>
</g>
<!-- CrowdfundingData_state_syn&#45;&gt;CrowdfundingData_done -->
<g id="edge35" class="edge">
<title>CrowdfundingData_state_syn&#45;&gt;CrowdfundingData_done</title>
<path fill="none" stroke="black" d="M3311.25,-633.73C3292.04,-564.88 3219.92,-306.52 3196.44,-222.39"/>
<polygon fill="black" stroke="black" points="3199.76,-221.27 3193.7,-212.58 3193.02,-223.15 3199.76,-221.27"/>
</g>
<!-- CrowdfundingData_goal -->
<g id="node55" class="node">
<title>CrowdfundingData_goal</title>
<g id="a_node55"><a xlink:href="CrowdfundingData.html#goal" xlink:title="goal">
<ellipse fill="#f070d1" stroke="black" cx="3271" cy="-194.73" rx="30.59" ry="18"/>
<text text-anchor="middle" x="3271" y="-191.03" font-family="Times,serif" font-size="14.00">goal</text>
</a>
</g>
</g>
<!-- CrowdfundingData_state_syn&#45;&gt;CrowdfundingData_goal -->
<g id="edge36" class="edge">
<title>CrowdfundingData_state_syn&#45;&gt;CrowdfundingData_goal</title>
<path fill="none" stroke="black" d="M3314.32,-633.73C3307.53,-565.1 3282.12,-308.2 3273.72,-223.22"/>
<polygon fill="black" stroke="black" points="3277.18,-222.67 3272.71,-213.07 3270.22,-223.36 3277.18,-222.67"/>
</g>
<!-- CrowdfundingData_deadline -->
<g id="node56" class="node">
<title>CrowdfundingData_deadline</title>
<g id="a_node56"><a xlink:href="CrowdfundingData.html#deadline" xlink:title="deadline">
<ellipse fill="#f070d1" stroke="black" cx="2632" cy="-194.73" rx="50.09" ry="18"/>
<text text-anchor="middle" x="2632" y="-191.03" font-family="Times,serif" font-size="14.00">deadline</text>
</a>
</g>
</g>
<!-- CrowdfundingData_state_syn&#45;&gt;CrowdfundingData_deadline -->
<g id="edge37" class="edge">
<title>CrowdfundingData_state_syn&#45;&gt;CrowdfundingData_deadline</title>
<path fill="none" stroke="black" d="M3292.85,-635.33C3190.73,-567.4 2780.43,-294.47 2663.34,-216.58"/>
<polygon fill="black" stroke="black" points="2665.06,-213.52 2654.8,-210.9 2661.18,-219.35 2665.06,-213.52"/>
</g>
<!-- CrowdfundingData_owner -->
<g id="node57" class="node">
<title>CrowdfundingData_owner</title>
<g id="a_node57"><a xlink:href="CrowdfundingData.html#owner" xlink:title="owner">
<ellipse fill="#f070d1" stroke="black" cx="2740" cy="-194.73" rx="39.79" ry="18"/>
<text text-anchor="middle" x="2740" y="-191.03" font-family="Times,serif" font-size="14.00">owner</text>
</a>
</g>
</g>
<!-- CrowdfundingData_state_syn&#45;&gt;CrowdfundingData_owner -->
<g id="edge38" class="edge">
<title>CrowdfundingData_state_syn&#45;&gt;CrowdfundingData_owner</title>
<path fill="none" stroke="black" d="M3295.84,-634.8C3208.87,-566.11 2865.79,-295.09 2766.84,-216.93"/>
<polygon fill="black" stroke="black" points="2768.84,-214.05 2758.82,-210.6 2764.5,-219.55 2768.84,-214.05"/>
</g>
<!-- CrowdfundingData_donations -->
<g id="node58" class="node">
<title>CrowdfundingData_donations</title>
<g id="a_node58"><a xlink:href="CrowdfundingData.html#donations" xlink:title="donations">
<ellipse fill="#f070d1" stroke="black" cx="2854" cy="-194.73" rx="55.79" ry="18"/>
<text text-anchor="middle" x="2854" y="-191.03" font-family="Times,serif" font-size="14.00">donations</text>
</a>
</g>
</g>
<!-- CrowdfundingData_state_syn&#45;&gt;CrowdfundingData_donations -->
<g id="edge39" class="edge">
<title>CrowdfundingData_state_syn&#45;&gt;CrowdfundingData_donations</title>
<path fill="none" stroke="black" d="M3299.56,-634.54C3230.11,-566.14 2960.58,-300.7 2878.11,-219.48"/>
<polygon fill="black" stroke="black" points="2880.31,-216.73 2870.73,-212.21 2875.4,-221.72 2880.31,-216.73"/>
</g>
<!-- CrowdfundingData_balance -->
<g id="node59" class="node">
<title>CrowdfundingData_balance</title>
<g id="a_node59"><a xlink:href="CrowdfundingData.html#balance" xlink:title="balance">
<ellipse fill="#f070d1" stroke="black" cx="2974" cy="-194.73" rx="46.29" ry="18"/>
<text text-anchor="middle" x="2974" y="-191.03" font-family="Times,serif" font-size="14.00">balance</text>
</a>
</g>
</g>
<!-- CrowdfundingData_state_syn&#45;&gt;CrowdfundingData_balance -->
<g id="edge40" class="edge">
<title>CrowdfundingData_state_syn&#45;&gt;CrowdfundingData_balance</title>
<path fill="none" stroke="black" d="M3303.42,-634C3251.56,-565.01 3054.18,-302.4 2992.52,-220.37"/>
<polygon fill="black" stroke="black" points="2995.14,-218.03 2986.33,-212.14 2989.54,-222.23 2995.14,-218.03"/>
</g>
<!-- CrowdfundingData_mkState -->
<g id="node60" class="node">
<title>CrowdfundingData_mkState</title>
<g id="a_node60"><a xlink:href="CrowdfundingData.html#mkState" xlink:title="mkState">
<ellipse fill="#f070d1" stroke="black" cx="3088" cy="-194.73" rx="50.09" ry="18"/>
<text text-anchor="middle" x="3088" y="-191.03" font-family="Times,serif" font-size="14.00">mkState</text>
</a>
</g>
</g>
<!-- CrowdfundingData_state_syn&#45;&gt;CrowdfundingData_mkState -->
<g id="edge41" class="edge">
<title>CrowdfundingData_state_syn&#45;&gt;CrowdfundingData_mkState</title>
<path fill="none" stroke="black" d="M3307.48,-633.73C3272.87,-564.67 3142.72,-304.94 3100.98,-221.63"/>
<polygon fill="black" stroke="black" points="3104.05,-219.95 3096.44,-212.58 3097.79,-223.09 3104.05,-219.95"/>
</g>
<!-- CrowdfundingData_state_syn&#45;&gt;CrowdfundingData_State -->
<g id="edge42" class="edge">
<title>CrowdfundingData_state_syn&#45;&gt;CrowdfundingData_State</title>
<path fill="none" stroke="black" d="M3317.46,-633.73C3323.34,-565.1 3345.36,-308.2 3352.64,-223.22"/>
<polygon fill="black" stroke="black" points="3356.15,-223.33 3353.51,-213.07 3349.17,-222.73 3356.15,-223.33"/>
</g>
<!-- CrowdfundingData_Empty -->
<g id="node45" class="node">
<title>CrowdfundingData_Empty</title>
<g id="a_node45"><a xlink:href="CrowdfundingData.html#Empty" xlink:title="Empty">
<ellipse fill="#f070d1" stroke="black" cx="511" cy="-1154.73" rx="41.68" ry="18"/>
<ellipse fill="none" stroke="black" cx="511" cy="-1154.73" rx="45.69" ry="22"/>
<ellipse fill="none" stroke="black" cx="511" cy="-1154.73" rx="49.69" ry="26"/>
<text text-anchor="middle" x="511" y="-1151.03" font-family="Times,serif" font-size="14.00">Empty</text>
</a>
</g>
</g>
<!-- CrowdfundingData_Transfer -->
<g id="node46" class="node">
<title>CrowdfundingData_Transfer</title>
<g id="a_node46"><a xlink:href="CrowdfundingData.html#Transfer" xlink:title="Transfer">
<ellipse fill="#f070d1" stroke="black" cx="385" cy="-1154.73" rx="50.08" ry="18"/>
<ellipse fill="none" stroke="black" cx="385" cy="-1154.73" rx="54.09" ry="22"/>
<ellipse fill="none" stroke="black" cx="385" cy="-1154.73" rx="58.09" ry="26"/>
<text text-anchor="middle" x="385" y="-1151.03" font-family="Times,serif" font-size="14.00">Transfer</text>
</a>
</g>
</g>
<!-- CrowdfundingData_Action -->
<g id="node47" class="node">
<title>CrowdfundingData_Action</title>
<g id="a_node47"><a xlink:href="CrowdfundingData.html#Action" xlink:title="Action">
<ellipse fill="#f070d1" stroke="black" cx="261" cy="-1154.73" rx="40.13" ry="18"/>
<ellipse fill="none" stroke="black" cx="261" cy="-1154.73" rx="44.11" ry="22"/>
<ellipse fill="none" stroke="black" cx="261" cy="-1154.73" rx="48.09" ry="26"/>
<text text-anchor="middle" x="261" y="-1151.03" font-family="Times,serif" font-size="14.00">Action</text>
</a>
</g>
</g>
<!-- CrowdfundingData_Error -->
<g id="node52" class="node">
<title>CrowdfundingData_Error</title>
<g id="a_node52"><a xlink:href="CrowdfundingData.html#Error" xlink:title="Error">
<ellipse fill="#f070d1" stroke="black" cx="150" cy="-1154.73" rx="36.31" ry="18"/>
<ellipse fill="none" stroke="black" cx="150" cy="-1154.73" rx="40.3" ry="22"/>
<ellipse fill="none" stroke="black" cx="150" cy="-1154.73" rx="44.29" ry="26"/>
<text text-anchor="middle" x="150" y="-1151.03" font-family="Times,serif" font-size="14.00">Error</text>
</a>
</g>
</g>
<!-- CrowdfundingData_Res -->
<g id="node53" class="node">
<title>CrowdfundingData_Res</title>
<g id="a_node53"><a xlink:href="CrowdfundingData.html#Res" xlink:title="Res">
<ellipse fill="#f070d1" stroke="black" cx="52" cy="-1154.73" rx="27.91" ry="18"/>
<ellipse fill="none" stroke="black" cx="52" cy="-1154.73" rx="31.9" ry="22"/>
<ellipse fill="none" stroke="black" cx="52" cy="-1154.73" rx="35.9" ry="26"/>
<text text-anchor="middle" x="52" y="-1151.03" font-family="Times,serif" font-size="14.00">Res</text>
</a>
</g>
</g>
</g>
</svg>
