<?xml version="1.0" encoding="UTF-8" standalone="no"?>
<!DOCTYPE svg PUBLIC "-//W3C//DTD SVG 1.1//EN"
 "http://www.w3.org/Graphics/SVG/1.1/DTD/svg11.dtd">
<!-- Generated by graphviz version 2.43.0 (0)
 -->
<!-- Title: ExecFrameworkIntegration Pages: 1 -->
<svg width="1571pt" height="790pt"
 viewBox="0.00 0.00 1571.00 789.50" xmlns="http://www.w3.org/2000/svg" xmlns:xlink="http://www.w3.org/1999/xlink">
<g id="graph0" class="graph" transform="scale(1 1) rotate(0) translate(4 785.5)">
<title>ExecFrameworkIntegration</title>
<polygon fill="white" stroke="transparent" points="-4,4 -4,-785.5 1567,-785.5 1567,4 -4,4"/>
<g id="clust1" class="cluster">
<title>cluster_ExecFrameworkIntegration</title>
<polygon fill="#ffffc3" stroke="black" points="8,-8.74 8,-772.76 1555,-772.76 1555,-8.74 8,-8.74"/>
<text text-anchor="middle" x="114.5" y="-757.56" font-family="Times,serif" font-size="14.00">ExecFrameworkIntegration</text>
</g>
<!-- ExecFrameworkIntegration_cf_donations_backed_after_block -->
<g id="node1" class="node">
<title>ExecFrameworkIntegration_cf_donations_backed_after_block</title>
<g id="a_node1"><a xlink:href="ExecFrameworkIntegration.html#cf_donations_backed_after_block" xlink:title="cf_donations_backed_after_block">
<ellipse fill="#7fffd4" stroke="black" cx="1345" cy="-710.74" rx="161.36" ry="18"/>
<ellipse fill="none" stroke="black" cx="1345" cy="-710.74" rx="165.37" ry="22"/>
<ellipse fill="none" stroke="black" cx="1345" cy="-710.74" rx="169.37" ry="26"/>
<text text-anchor="middle" x="1345" y="-707.04" font-family="Times,serif" font-size="14.00">cf_donations_backed_after_block</text>
</a>
</g>
</g>
<!-- ExecFrameworkIntegration_cf_backed -->
<g id="node3" class="node">
<title>ExecFrameworkIntegration_cf_backed</title>
<g id="a_node3"><a xlink:href="ExecFrameworkIntegration.html#cf_backed" xlink:title="cf_backed">
<ellipse fill="#7fffd4" stroke="black" cx="1048" cy="-622.74" rx="55.79" ry="18"/>
<text text-anchor="middle" x="1048" y="-619.04" font-family="Times,serif" font-size="14.00">cf_backed</text>
</a>
</g>
</g>
<!-- ExecFrameworkIntegration_cf_donations_backed_after_block&#45;&gt;ExecFrameworkIntegration_cf_backed -->
<g id="edge1" class="edge">
<title>ExecFrameworkIntegration_cf_donations_backed_after_block&#45;&gt;ExecFrameworkIntegration_cf_backed</title>
<path fill="none" stroke="black" d="M1268.13,-687.49C1214.49,-671.95 1144.45,-651.67 1097.93,-638.2"/>
<polygon fill="black" stroke="black" points="1098.67,-634.77 1088.09,-635.35 1096.72,-641.5 1098.67,-634.77"/>
</g>
<!-- ExecFrameworkIntegration_cf_backed_after_block -->
<g id="node2" class="node">
<title>ExecFrameworkIntegration_cf_backed_after_block</title>
<g id="a_node2"><a xlink:href="ExecFrameworkIntegration.html#cf_backed_after_block" xlink:title="cf_backed_after_block">
<ellipse fill="#7fffd4" stroke="black" cx="1038" cy="-710.74" rx="111.59" ry="18"/>
<ellipse fill="none" stroke="black" cx="1038" cy="-710.74" rx="115.59" ry="22"/>
<ellipse fill="none" stroke="black" cx="1038" cy="-710.74" rx="119.58" ry="26"/>
<text text-anchor="middle" x="1038" y="-707.04" font-family="Times,serif" font-size="14.00">cf_backed_after_block</text>
</a>
</g>
</g>
<!-- ExecFrameworkIntegration_cf_backed_after_block&#45;&gt;ExecFrameworkIntegration_cf_backed -->
<g id="edge2" class="edge">
<title>ExecFrameworkIntegration_cf_backed_after_block&#45;&gt;ExecFrameworkIntegration_cf_backed</title>
<path fill="none" stroke="black" d="M1040.95,-684.41C1042.17,-673.85 1043.6,-661.58 1044.85,-650.85"/>
<polygon fill="black" stroke="black" points="1048.34,-651.09 1046.02,-640.75 1041.39,-650.28 1048.34,-651.09"/>
</g>
<!-- ExecFrameworkIntegration_cf_transfer_cases -->
<g id="node4" class="node">
<title>ExecFrameworkIntegration_cf_transfer_cases</title>
<g id="a_node4"><a xlink:href="ExecFrameworkIntegration.html#cf_transfer_cases" xlink:title="cf_transfer_cases">
<ellipse fill="#7fffd4" stroke="black" cx="150" cy="-535.74" rx="90.98" ry="18"/>
<text text-anchor="middle" x="150" y="-532.04" font-family="Times,serif" font-size="14.00">cf_transfer_cases</text>
</a>
</g>
</g>
<!-- ExecFrameworkIntegration_cf_backed&#45;&gt;ExecFrameworkIntegration_cf_transfer_cases -->
<g id="edge3" class="edge">
<title>ExecFrameworkIntegration_cf_backed&#45;&gt;ExecFrameworkIntegration_cf_transfer_cases</title>
<path fill="none" stroke="black" d="M991.99,-620.8C861.24,-617.88 526.03,-606.29 250,-561.74 236.77,-559.61 222.72,-556.58 209.46,-553.37"/>
<polygon fill="black" stroke="black" points="210.05,-549.91 199.5,-550.89 208.36,-556.7 210.05,-549.91"/>
</g>
<!-- ExecFrameworkIntegration_crowfunding_donations_non_negative -->
<g id="node5" class="node">
<title>ExecFrameworkIntegration_crowfunding_donations_non_negative</title>
<g id="a_node5"><a xlink:href="ExecFrameworkIntegration.html#crowfunding_donations_non_negative" xlink:title="crowfunding_donations_non_negative">
<ellipse fill="#7fffd4" stroke="black" cx="1362" cy="-535.74" rx="184.67" ry="18"/>
<text text-anchor="middle" x="1362" y="-532.04" font-family="Times,serif" font-size="14.00">crowfunding_donations_non_negative</text>
</a>
</g>
</g>
<!-- ExecFrameworkIntegration_cf_backed&#45;&gt;ExecFrameworkIntegration_crowfunding_donations_non_negative -->
<g id="edge4" class="edge">
<title>ExecFrameworkIntegration_cf_backed&#45;&gt;ExecFrameworkIntegration_crowfunding_donations_non_negative</title>
<path fill="none" stroke="black" d="M1089.37,-610.54C1141.14,-596.53 1230.55,-572.33 1292.81,-555.47"/>
<polygon fill="black" stroke="black" points="1293.82,-558.83 1302.56,-552.84 1291.99,-552.07 1293.82,-558.83"/>
</g>
<!-- ExecFrameworkIntegration_cf_balance_consistent -->
<g id="node9" class="node">
<title>ExecFrameworkIntegration_cf_balance_consistent</title>
<g id="a_node9"><a xlink:href="ExecFrameworkIntegration.html#cf_balance_consistent" xlink:title="cf_balance_consistent">
<ellipse fill="#7fffd4" stroke="black" cx="1048" cy="-535.74" rx="111.28" ry="18"/>
<text text-anchor="middle" x="1048" y="-532.04" font-family="Times,serif" font-size="14.00">cf_balance_consistent</text>
</a>
</g>
</g>
<!-- ExecFrameworkIntegration_cf_backed&#45;&gt;ExecFrameworkIntegration_cf_balance_consistent -->
<g id="edge5" class="edge">
<title>ExecFrameworkIntegration_cf_backed&#45;&gt;ExecFrameworkIntegration_cf_balance_consistent</title>
<path fill="none" stroke="black" d="M1048,-604.54C1048,-592.91 1048,-577.29 1048,-563.98"/>
<polygon fill="black" stroke="black" points="1051.5,-563.92 1048,-553.92 1044.5,-563.92 1051.5,-563.92"/>
</g>
<!-- ExecFrameworkIntegration_lookup_map_sum_map_leq -->
<g id="node6" class="node">
<title>ExecFrameworkIntegration_lookup_map_sum_map_leq</title>
<g id="a_node6"><a xlink:href="ExecFrameworkIntegration.html#lookup_map_sum_map_leq" xlink:title="lookup_map_sum_map_leq">
<ellipse fill="#7fffd4" stroke="black" cx="150" cy="-447.74" rx="132.68" ry="18"/>
<text text-anchor="middle" x="150" y="-444.04" font-family="Times,serif" font-size="14.00">lookup_map_sum_map_leq</text>
</a>
</g>
</g>
<!-- ExecFrameworkIntegration_cf_transfer_cases&#45;&gt;ExecFrameworkIntegration_lookup_map_sum_map_leq -->
<g id="edge6" class="edge">
<title>ExecFrameworkIntegration_cf_transfer_cases&#45;&gt;ExecFrameworkIntegration_lookup_map_sum_map_leq</title>
<path fill="none" stroke="black" d="M150,-517.34C150,-505.49 150,-489.56 150,-476.04"/>
<polygon fill="black" stroke="black" points="153.5,-475.83 150,-465.83 146.5,-475.83 153.5,-475.83"/>
</g>
<!-- ExecFrameworkIntegration_cf_state -->
<g id="node12" class="node">
<title>ExecFrameworkIntegration_cf_state</title>
<g id="a_node12"><a xlink:href="ExecFrameworkIntegration.html#cf_state" xlink:title="cf_state">
<ellipse fill="#f070d1" stroke="black" cx="1104" cy="-447.74" rx="46.59" ry="18"/>
<text text-anchor="middle" x="1104" y="-444.04" font-family="Times,serif" font-size="14.00">cf_state</text>
</a>
</g>
</g>
<!-- ExecFrameworkIntegration_crowfunding_donations_non_negative&#45;&gt;ExecFrameworkIntegration_cf_state -->
<g id="edge7" class="edge">
<title>ExecFrameworkIntegration_crowfunding_donations_non_negative&#45;&gt;ExecFrameworkIntegration_cf_state</title>
<path fill="none" stroke="black" d="M1312.86,-518.37C1265.19,-502.47 1193.53,-478.59 1147.76,-463.33"/>
<polygon fill="black" stroke="black" points="1148.72,-459.96 1138.13,-460.12 1146.51,-466.6 1148.72,-459.96"/>
</g>
<!-- ExecFrameworkIntegration_cf_contract -->
<g id="node13" class="node">
<title>ExecFrameworkIntegration_cf_contract</title>
<g id="a_node13"><a xlink:href="ExecFrameworkIntegration.html#cf_contract" xlink:title="cf_contract">
<ellipse fill="#f070d1" stroke="black" cx="832" cy="-447.74" rx="61.99" ry="18"/>
<text text-anchor="middle" x="832" y="-444.04" font-family="Times,serif" font-size="14.00">cf_contract</text>
</a>
</g>
</g>
<!-- ExecFrameworkIntegration_crowfunding_donations_non_negative&#45;&gt;ExecFrameworkIntegration_cf_contract -->
<g id="edge8" class="edge">
<title>ExecFrameworkIntegration_crowfunding_donations_non_negative&#45;&gt;ExecFrameworkIntegration_cf_contract</title>
<path fill="none" stroke="black" d="M1271.19,-520.01C1163.84,-502.59 988.03,-474.06 894.74,-458.92"/>
<polygon fill="black" stroke="black" points="895.03,-455.43 884.6,-457.28 893.91,-462.34 895.03,-455.43"/>
</g>
<!-- ExecFrameworkIntegration_cf_not_sending_deploy_or_call -->
<g id="node7" class="node">
<title>ExecFrameworkIntegration_cf_not_sending_deploy_or_call</title>
<g id="a_node7"><a xlink:href="ExecFrameworkIntegration.html#cf_not_sending_deploy_or_call" xlink:title="cf_not_sending_deploy_or_call">
<ellipse fill="#7fffd4" stroke="black" cx="761" cy="-535.74" rx="149.47" ry="18"/>
<ellipse fill="none" stroke="black" cx="761" cy="-535.74" rx="153.47" ry="22"/>
<ellipse fill="none" stroke="black" cx="761" cy="-535.74" rx="157.47" ry="26"/>
<text text-anchor="middle" x="761" y="-532.04" font-family="Times,serif" font-size="14.00">cf_not_sending_deploy_or_call</text>
</a>
</g>
</g>
<!-- ExecFrameworkIntegration_cf_not_sending_deploy_or_call&#45;&gt;ExecFrameworkIntegration_cf_contract -->
<g id="edge9" class="edge">
<title>ExecFrameworkIntegration_cf_not_sending_deploy_or_call&#45;&gt;ExecFrameworkIntegration_cf_contract</title>
<path fill="none" stroke="black" d="M781.54,-509.87C791.03,-498.37 802.27,-484.76 811.72,-473.3"/>
<polygon fill="black" stroke="black" points="814.58,-475.34 818.25,-465.4 809.18,-470.89 814.58,-475.34"/>
</g>
<!-- ExecFrameworkIntegration_undeployed_balance_0 -->
<g id="node8" class="node">
<title>ExecFrameworkIntegration_undeployed_balance_0</title>
<g id="a_node8"><a xlink:href="ExecFrameworkIntegration.html#undeployed_balance_0" xlink:title="undeployed_balance_0">
<ellipse fill="#7fffd4" stroke="black" cx="1425" cy="-203.74" rx="114.29" ry="18"/>
<ellipse fill="none" stroke="black" cx="1425" cy="-203.74" rx="118.28" ry="22"/>
<ellipse fill="none" stroke="black" cx="1425" cy="-203.74" rx="122.28" ry="26"/>
<text text-anchor="middle" x="1425" y="-200.04" font-family="Times,serif" font-size="14.00">undeployed_balance_0</text>
</a>
</g>
</g>
<!-- ExecFrameworkIntegration_CB -->
<g id="node28" class="node">
<title>ExecFrameworkIntegration_CB</title>
<g id="a_node28"><a xlink:href="ExecFrameworkIntegration.html#CB" xlink:title="CB">
<ellipse fill="#f070d1" stroke="black" cx="846" cy="-115.74" rx="27" ry="18"/>
<text text-anchor="middle" x="846" y="-112.04" font-family="Times,serif" font-size="14.00">CB</text>
</a>
</g>
</g>
<!-- ExecFrameworkIntegration_undeployed_balance_0&#45;&gt;ExecFrameworkIntegration_CB -->
<g id="edge10" class="edge">
<title>ExecFrameworkIntegration_undeployed_balance_0&#45;&gt;ExecFrameworkIntegration_CB</title>
<path fill="none" stroke="black" d="M1336.21,-185.83C1320.51,-183.01 1304.29,-180.2 1289,-177.74 1138.37,-153.54 957.97,-130.55 882.25,-121.17"/>
<polygon fill="black" stroke="black" points="882.63,-117.7 872.28,-119.94 881.77,-124.64 882.63,-117.7"/>
</g>
<!-- ExecFrameworkIntegration_cf_balance_consistent&#45;&gt;ExecFrameworkIntegration_cf_state -->
<g id="edge11" class="edge">
<title>ExecFrameworkIntegration_cf_balance_consistent&#45;&gt;ExecFrameworkIntegration_cf_state</title>
<path fill="none" stroke="black" d="M1059.06,-517.75C1067.17,-505.31 1078.31,-488.2 1087.47,-474.13"/>
<polygon fill="black" stroke="black" points="1090.63,-475.7 1093.15,-465.41 1084.76,-471.88 1090.63,-475.7"/>
</g>
<!-- ExecFrameworkIntegration_cf_balance_consistent&#45;&gt;ExecFrameworkIntegration_cf_contract -->
<g id="edge12" class="edge">
<title>ExecFrameworkIntegration_cf_balance_consistent&#45;&gt;ExecFrameworkIntegration_cf_contract</title>
<path fill="none" stroke="black" d="M1008.13,-518.87C970.82,-504.02 915.18,-481.86 876.45,-466.44"/>
<polygon fill="black" stroke="black" points="877.58,-463.12 866.99,-462.68 874.99,-469.63 877.58,-463.12"/>
</g>
<!-- ExecFrameworkIntegration_cf_balance_consistent_deadline -->
<g id="node10" class="node">
<title>ExecFrameworkIntegration_cf_balance_consistent_deadline</title>
<g id="a_node10"><a xlink:href="ExecFrameworkIntegration.html#cf_balance_consistent_deadline" xlink:title="cf_balance_consistent_deadline">
<ellipse fill="#7fffd4" stroke="black" cx="422" cy="-535.74" rx="155.18" ry="18"/>
<ellipse fill="none" stroke="black" cx="422" cy="-535.74" rx="159.18" ry="22"/>
<ellipse fill="none" stroke="black" cx="422" cy="-535.74" rx="163.17" ry="26"/>
<text text-anchor="middle" x="422" y="-532.04" font-family="Times,serif" font-size="14.00">cf_balance_consistent_deadline</text>
</a>
</g>
</g>
<!-- ExecFrameworkIntegration_Current_slot_of_chain_eq -->
<g id="node11" class="node">
<title>ExecFrameworkIntegration_Current_slot_of_chain_eq</title>
<g id="a_node11"><a xlink:href="ExecFrameworkIntegration.html#Current_slot_of_chain_eq" xlink:title="Current_slot_of_chain_eq">
<ellipse fill="#7fffd4" stroke="black" cx="343" cy="-290.74" rx="126.98" ry="18"/>
<text text-anchor="middle" x="343" y="-287.04" font-family="Times,serif" font-size="14.00">Current_slot_of_chain_eq</text>
</a>
</g>
</g>
<!-- ExecFrameworkIntegration_cf_balance_consistent_deadline&#45;&gt;ExecFrameworkIntegration_Current_slot_of_chain_eq -->
<g id="edge13" class="edge">
<title>ExecFrameworkIntegration_cf_balance_consistent_deadline&#45;&gt;ExecFrameworkIntegration_Current_slot_of_chain_eq</title>
<path fill="none" stroke="black" d="M413.84,-509.65C398.86,-463.56 367.08,-365.8 351.7,-318.5"/>
<polygon fill="black" stroke="black" points="355.01,-317.37 348.59,-308.94 348.35,-319.53 355.01,-317.37"/>
</g>
<!-- ExecFrameworkIntegration_cf_balance_consistent_deadline&#45;&gt;ExecFrameworkIntegration_cf_state -->
<g id="edge14" class="edge">
<title>ExecFrameworkIntegration_cf_balance_consistent_deadline&#45;&gt;ExecFrameworkIntegration_cf_state</title>
<path fill="none" stroke="black" d="M538.74,-517.48C557.54,-514.81 576.8,-512.15 595,-509.74 760.41,-487.88 956.53,-465.33 1049.67,-454.82"/>
<polygon fill="black" stroke="black" points="1050.15,-458.28 1059.7,-453.69 1049.37,-451.33 1050.15,-458.28"/>
</g>
<!-- ExecFrameworkIntegration_cf_balance_consistent_deadline&#45;&gt;ExecFrameworkIntegration_cf_contract -->
<g id="edge15" class="edge">
<title>ExecFrameworkIntegration_cf_balance_consistent_deadline&#45;&gt;ExecFrameworkIntegration_cf_contract</title>
<path fill="none" stroke="black" d="M517.87,-514.64C597.1,-498.02 707.04,-474.96 773.64,-460.98"/>
<polygon fill="black" stroke="black" points="774.48,-464.39 783.55,-458.91 773.04,-457.53 774.48,-464.39"/>
</g>
<!-- ExecFrameworkIntegration_of_chain -->
<g id="node26" class="node">
<title>ExecFrameworkIntegration_of_chain</title>
<g id="a_node26"><a xlink:href="ExecFrameworkIntegration.html#of_chain" xlink:title="of_chain">
<ellipse fill="#f070d1" stroke="black" cx="343" cy="-203.74" rx="48.99" ry="18"/>
<text text-anchor="middle" x="343" y="-200.04" font-family="Times,serif" font-size="14.00">of_chain</text>
</a>
</g>
</g>
<!-- ExecFrameworkIntegration_Current_slot_of_chain_eq&#45;&gt;ExecFrameworkIntegration_of_chain -->
<g id="edge16" class="edge">
<title>ExecFrameworkIntegration_Current_slot_of_chain_eq&#45;&gt;ExecFrameworkIntegration_of_chain</title>
<path fill="none" stroke="black" d="M343,-272.54C343,-260.91 343,-245.29 343,-231.98"/>
<polygon fill="black" stroke="black" points="346.5,-231.92 343,-221.92 339.5,-231.92 346.5,-231.92"/>
</g>
<!-- ExecFrameworkIntegration_State_serializable -->
<g id="node20" class="node">
<title>ExecFrameworkIntegration_State_serializable</title>
<g id="a_node20"><a xlink:href="ExecFrameworkIntegration.html#State_serializable" xlink:title="State_serializable">
<ellipse fill="#f070d1" stroke="black" cx="1104" cy="-369.74" rx="92.88" ry="18"/>
<text text-anchor="middle" x="1104" y="-366.04" font-family="Times,serif" font-size="14.00">State_serializable</text>
</a>
</g>
</g>
<!-- ExecFrameworkIntegration_cf_state&#45;&gt;ExecFrameworkIntegration_State_serializable -->
<g id="edge17" class="edge">
<title>ExecFrameworkIntegration_cf_state&#45;&gt;ExecFrameworkIntegration_State_serializable</title>
<path fill="none" stroke="black" d="M1104,-429.5C1104,-420.27 1104,-408.68 1104,-398.24"/>
<polygon fill="black" stroke="black" points="1107.5,-397.92 1104,-387.92 1100.5,-397.92 1107.5,-397.92"/>
</g>
<!-- ExecFrameworkIntegration_cf_state&#45;&gt;ExecFrameworkIntegration_CB -->
<g id="edge18" class="edge">
<title>ExecFrameworkIntegration_cf_state&#45;&gt;ExecFrameworkIntegration_CB</title>
<path fill="none" stroke="black" d="M1136.13,-434.57C1158.26,-424.79 1186.98,-409.15 1206,-387.74 1238.58,-351.07 1306.15,-214.8 1274,-177.74 1223.44,-119.47 978.08,-115.45 883.39,-116.13"/>
<polygon fill="black" stroke="black" points="883.1,-112.63 873.13,-116.23 883.16,-119.63 883.1,-112.63"/>
</g>
<!-- ExecFrameworkIntegration_wrapped_receive -->
<g id="node14" class="node">
<title>ExecFrameworkIntegration_wrapped_receive</title>
<g id="a_node14"><a xlink:href="ExecFrameworkIntegration.html#wrapped_receive" xlink:title="wrapped_receive">
<ellipse fill="#f070d1" stroke="black" cx="904" cy="-369.74" rx="89.08" ry="18"/>
<text text-anchor="middle" x="904" y="-366.04" font-family="Times,serif" font-size="14.00">wrapped_receive</text>
</a>
</g>
</g>
<!-- ExecFrameworkIntegration_cf_contract&#45;&gt;ExecFrameworkIntegration_wrapped_receive -->
<g id="edge19" class="edge">
<title>ExecFrameworkIntegration_cf_contract&#45;&gt;ExecFrameworkIntegration_wrapped_receive</title>
<path fill="none" stroke="black" d="M847.62,-430.25C857.37,-419.97 870.08,-406.54 880.97,-395.05"/>
<polygon fill="black" stroke="black" points="883.82,-397.13 888.16,-387.47 878.74,-392.32 883.82,-397.13"/>
</g>
<!-- ExecFrameworkIntegration_wrapped_init -->
<g id="node16" class="node">
<title>ExecFrameworkIntegration_wrapped_init</title>
<g id="a_node16"><a xlink:href="ExecFrameworkIntegration.html#wrapped_init" xlink:title="wrapped_init">
<ellipse fill="#f070d1" stroke="black" cx="531" cy="-369.74" rx="71.49" ry="18"/>
<text text-anchor="middle" x="531" y="-366.04" font-family="Times,serif" font-size="14.00">wrapped_init</text>
</a>
</g>
</g>
<!-- ExecFrameworkIntegration_cf_contract&#45;&gt;ExecFrameworkIntegration_wrapped_init -->
<g id="edge20" class="edge">
<title>ExecFrameworkIntegration_cf_contract&#45;&gt;ExecFrameworkIntegration_wrapped_init</title>
<path fill="none" stroke="black" d="M786.94,-435.37C734.3,-422.08 647.09,-400.06 589.34,-385.47"/>
<polygon fill="black" stroke="black" points="590.17,-382.07 579.62,-383.02 588.46,-388.86 590.17,-382.07"/>
</g>
<!-- ExecFrameworkIntegration_Msg_serializable -->
<g id="node19" class="node">
<title>ExecFrameworkIntegration_Msg_serializable</title>
<g id="a_node19"><a xlink:href="ExecFrameworkIntegration.html#Msg_serializable" xlink:title="Msg_serializable">
<ellipse fill="#f070d1" stroke="black" cx="709" cy="-369.74" rx="88.28" ry="18"/>
<text text-anchor="middle" x="709" y="-366.04" font-family="Times,serif" font-size="14.00">Msg_serializable</text>
</a>
</g>
</g>
<!-- ExecFrameworkIntegration_cf_contract&#45;&gt;ExecFrameworkIntegration_Msg_serializable -->
<g id="edge21" class="edge">
<title>ExecFrameworkIntegration_cf_contract&#45;&gt;ExecFrameworkIntegration_Msg_serializable</title>
<path fill="none" stroke="black" d="M806.81,-431.18C788.69,-419.98 764.01,-404.74 743.98,-392.36"/>
<polygon fill="black" stroke="black" points="745.78,-389.35 735.43,-387.07 742.1,-395.31 745.78,-389.35"/>
</g>
<!-- ExecFrameworkIntegration_cf_contract&#45;&gt;ExecFrameworkIntegration_State_serializable -->
<g id="edge22" class="edge">
<title>ExecFrameworkIntegration_cf_contract&#45;&gt;ExecFrameworkIntegration_State_serializable</title>
<path fill="none" stroke="black" d="M875.1,-434.7C920.46,-422.03 992.23,-401.97 1043.31,-387.7"/>
<polygon fill="black" stroke="black" points="1044.54,-390.99 1053.23,-384.93 1042.66,-384.25 1044.54,-390.99"/>
</g>
<!-- ExecFrameworkIntegration_receive_wrapper -->
<g id="node15" class="node">
<title>ExecFrameworkIntegration_receive_wrapper</title>
<g id="a_node15"><a xlink:href="ExecFrameworkIntegration.html#receive_wrapper" xlink:title="receive_wrapper">
<ellipse fill="#f070d1" stroke="black" cx="789" cy="-290.74" rx="87.99" ry="18"/>
<text text-anchor="middle" x="789" y="-287.04" font-family="Times,serif" font-size="14.00">receive_wrapper</text>
</a>
</g>
</g>
<!-- ExecFrameworkIntegration_wrapped_receive&#45;&gt;ExecFrameworkIntegration_receive_wrapper -->
<g id="edge23" class="edge">
<title>ExecFrameworkIntegration_wrapped_receive&#45;&gt;ExecFrameworkIntegration_receive_wrapper</title>
<path fill="none" stroke="black" d="M879.61,-352.41C862.84,-341.18 840.37,-326.14 822,-313.84"/>
<polygon fill="black" stroke="black" points="823.61,-310.71 813.35,-308.05 819.72,-316.52 823.61,-310.71"/>
</g>
<!-- ExecFrameworkIntegration_of_contract_call_context -->
<g id="node23" class="node">
<title>ExecFrameworkIntegration_of_contract_call_context</title>
<g id="a_node23"><a xlink:href="ExecFrameworkIntegration.html#of_contract_call_context" xlink:title="of_contract_call_context">
<ellipse fill="#f070d1" stroke="black" cx="627" cy="-203.74" rx="122.38" ry="18"/>
<text text-anchor="middle" x="627" y="-200.04" font-family="Times,serif" font-size="14.00">of_contract_call_context</text>
</a>
</g>
</g>
<!-- ExecFrameworkIntegration_receive_wrapper&#45;&gt;ExecFrameworkIntegration_of_contract_call_context -->
<g id="edge24" class="edge">
<title>ExecFrameworkIntegration_receive_wrapper&#45;&gt;ExecFrameworkIntegration_of_contract_call_context</title>
<path fill="none" stroke="black" d="M758.53,-273.76C732.84,-260.28 695.85,-240.87 667.64,-226.07"/>
<polygon fill="black" stroke="black" points="668.92,-222.79 658.44,-221.24 665.67,-228.99 668.92,-222.79"/>
</g>
<!-- ExecFrameworkIntegration_to_action_body -->
<g id="node25" class="node">
<title>ExecFrameworkIntegration_to_action_body</title>
<g id="a_node25"><a xlink:href="ExecFrameworkIntegration.html#to_action_body" xlink:title="to_action_body">
<ellipse fill="#f070d1" stroke="black" cx="846" cy="-203.74" rx="79.09" ry="18"/>
<text text-anchor="middle" x="846" y="-200.04" font-family="Times,serif" font-size="14.00">to_action_body</text>
</a>
</g>
</g>
<!-- ExecFrameworkIntegration_receive_wrapper&#45;&gt;ExecFrameworkIntegration_to_action_body -->
<g id="edge25" class="edge">
<title>ExecFrameworkIntegration_receive_wrapper&#45;&gt;ExecFrameworkIntegration_to_action_body</title>
<path fill="none" stroke="black" d="M800.53,-272.54C808.7,-260.37 819.79,-243.83 828.97,-230.14"/>
<polygon fill="black" stroke="black" points="832.01,-231.88 834.68,-221.63 826.2,-227.99 832.01,-231.88"/>
</g>
<!-- ExecFrameworkIntegration_receive_wrapper&#45;&gt;ExecFrameworkIntegration_of_chain -->
<g id="edge26" class="edge">
<title>ExecFrameworkIntegration_receive_wrapper&#45;&gt;ExecFrameworkIntegration_of_chain</title>
<path fill="none" stroke="black" d="M715.9,-280.69C620.42,-268.47 458.64,-246.33 401,-229.74 394.27,-227.81 387.3,-225.28 380.61,-222.58"/>
<polygon fill="black" stroke="black" points="381.66,-219.23 371.09,-218.55 378.93,-225.67 381.66,-219.23"/>
</g>
<!-- ExecFrameworkIntegration_init_wrapper -->
<g id="node17" class="node">
<title>ExecFrameworkIntegration_init_wrapper</title>
<g id="a_node17"><a xlink:href="ExecFrameworkIntegration.html#init_wrapper" xlink:title="init_wrapper">
<ellipse fill="#f070d1" stroke="black" cx="557" cy="-290.74" rx="69.59" ry="18"/>
<text text-anchor="middle" x="557" y="-287.04" font-family="Times,serif" font-size="14.00">init_wrapper</text>
</a>
</g>
</g>
<!-- ExecFrameworkIntegration_wrapped_init&#45;&gt;ExecFrameworkIntegration_init_wrapper -->
<g id="edge27" class="edge">
<title>ExecFrameworkIntegration_wrapped_init&#45;&gt;ExecFrameworkIntegration_init_wrapper</title>
<path fill="none" stroke="black" d="M536.77,-351.66C540.07,-341.89 544.28,-329.42 548,-318.39"/>
<polygon fill="black" stroke="black" points="551.36,-319.38 551.25,-308.79 544.73,-317.14 551.36,-319.38"/>
</g>
<!-- ExecFrameworkIntegration_Setup -->
<g id="node18" class="node">
<title>ExecFrameworkIntegration_Setup</title>
<g id="a_node18"><a xlink:href="ExecFrameworkIntegration.html#Setup" xlink:title="Setup">
<ellipse fill="#f070d1" stroke="black" cx="448" cy="-203.74" rx="38.19" ry="18"/>
<text text-anchor="middle" x="448" y="-200.04" font-family="Times,serif" font-size="14.00">Setup</text>
</a>
</g>
</g>
<!-- ExecFrameworkIntegration_init_wrapper&#45;&gt;ExecFrameworkIntegration_Setup -->
<g id="edge28" class="edge">
<title>ExecFrameworkIntegration_init_wrapper&#45;&gt;ExecFrameworkIntegration_Setup</title>
<path fill="none" stroke="black" d="M536.24,-273.56C518.81,-259.96 493.78,-240.45 474.83,-225.67"/>
<polygon fill="black" stroke="black" points="476.9,-222.84 466.86,-219.45 472.59,-228.36 476.9,-222.84"/>
</g>
<!-- ExecFrameworkIntegration_init_wrapper&#45;&gt;ExecFrameworkIntegration_of_contract_call_context -->
<g id="edge29" class="edge">
<title>ExecFrameworkIntegration_init_wrapper&#45;&gt;ExecFrameworkIntegration_of_contract_call_context</title>
<path fill="none" stroke="black" d="M570.83,-272.95C581.02,-260.57 595.05,-243.54 606.54,-229.59"/>
<polygon fill="black" stroke="black" points="609.3,-231.74 612.96,-221.79 603.9,-227.29 609.3,-231.74"/>
</g>
<!-- ExecFrameworkIntegration_addr_map_serialize -->
<g id="node21" class="node">
<title>ExecFrameworkIntegration_addr_map_serialize</title>
<g id="a_node21"><a xlink:href="ExecFrameworkIntegration.html#addr_map_serialize" xlink:title="addr_map_serialize">
<ellipse fill="#f070d1" stroke="black" cx="1104" cy="-290.74" rx="100.18" ry="18"/>
<text text-anchor="middle" x="1104" y="-287.04" font-family="Times,serif" font-size="14.00">addr_map_serialize</text>
</a>
</g>
</g>
<!-- ExecFrameworkIntegration_State_serializable&#45;&gt;ExecFrameworkIntegration_addr_map_serialize -->
<g id="edge30" class="edge">
<title>ExecFrameworkIntegration_State_serializable&#45;&gt;ExecFrameworkIntegration_addr_map_serialize</title>
<path fill="none" stroke="black" d="M1104,-351.66C1104,-342.09 1104,-329.93 1104,-319.07"/>
<polygon fill="black" stroke="black" points="1107.5,-318.79 1104,-308.79 1100.5,-318.79 1107.5,-318.79"/>
</g>
<!-- ExecFrameworkIntegration_addr_map_serialize_obligation_1 -->
<g id="node22" class="node">
<title>ExecFrameworkIntegration_addr_map_serialize_obligation_1</title>
<g id="a_node22"><a xlink:href="ExecFrameworkIntegration.html#addr_map_serialize_obligation_1" xlink:title="addr_map_serialize_obligation_1">
<ellipse fill="#7fffd4" stroke="black" cx="1104" cy="-203.74" rx="161.37" ry="18"/>
<text text-anchor="middle" x="1104" y="-200.04" font-family="Times,serif" font-size="14.00">addr_map_serialize_obligation_1</text>
</a>
</g>
</g>
<!-- ExecFrameworkIntegration_addr_map_serialize&#45;&gt;ExecFrameworkIntegration_addr_map_serialize_obligation_1 -->
<g id="edge31" class="edge">
<title>ExecFrameworkIntegration_addr_map_serialize&#45;&gt;ExecFrameworkIntegration_addr_map_serialize_obligation_1</title>
<path fill="none" stroke="black" d="M1104,-272.54C1104,-260.91 1104,-245.29 1104,-231.98"/>
<polygon fill="black" stroke="black" points="1107.5,-231.92 1104,-221.92 1100.5,-231.92 1107.5,-231.92"/>
</g>
<!-- ExecFrameworkIntegration_of_contract_call_context&#45;&gt;ExecFrameworkIntegration_CB -->
<g id="edge32" class="edge">
<title>ExecFrameworkIntegration_of_contract_call_context&#45;&gt;ExecFrameworkIntegration_CB</title>
<path fill="none" stroke="black" d="M667.68,-186.77C709.81,-170.23 774.79,-144.71 813.58,-129.47"/>
<polygon fill="black" stroke="black" points="815.29,-132.56 823.32,-125.65 812.73,-126.05 815.29,-132.56"/>
</g>
<!-- ExecFrameworkIntegration_to_contract_call_context -->
<g id="node24" class="node">
<title>ExecFrameworkIntegration_to_contract_call_context</title>
<g id="a_node24"><a xlink:href="ExecFrameworkIntegration.html#to_contract_call_context" xlink:title="to_contract_call_context">
<ellipse fill="#f070d1" stroke="black" cx="146" cy="-203.74" rx="122.37" ry="18"/>
<ellipse fill="none" stroke="black" cx="146" cy="-203.74" rx="126.37" ry="22"/>
<ellipse fill="none" stroke="black" cx="146" cy="-203.74" rx="130.38" ry="26"/>
<text text-anchor="middle" x="146" y="-200.04" font-family="Times,serif" font-size="14.00">to_contract_call_context</text>
</a>
</g>
</g>
<!-- ExecFrameworkIntegration_to_contract_call_context&#45;&gt;ExecFrameworkIntegration_CB -->
<g id="edge33" class="edge">
<title>ExecFrameworkIntegration_to_contract_call_context&#45;&gt;ExecFrameworkIntegration_CB</title>
<path fill="none" stroke="black" d="M237.82,-185.3C253.53,-182.58 269.71,-179.95 285,-177.74 481.84,-149.38 719.26,-127.64 809.13,-119.86"/>
<polygon fill="black" stroke="black" points="809.68,-123.32 819.34,-118.98 809.08,-116.35 809.68,-123.32"/>
</g>
<!-- ExecFrameworkIntegration_to_action_body&#45;&gt;ExecFrameworkIntegration_CB -->
<g id="edge34" class="edge">
<title>ExecFrameworkIntegration_to_action_body&#45;&gt;ExecFrameworkIntegration_CB</title>
<path fill="none" stroke="black" d="M846,-185.34C846,-173.49 846,-157.56 846,-144.04"/>
<polygon fill="black" stroke="black" points="849.5,-143.83 846,-133.83 842.5,-143.83 849.5,-143.83"/>
</g>
<!-- ExecFrameworkIntegration_to_chain -->
<g id="node27" class="node">
<title>ExecFrameworkIntegration_to_chain</title>
<g id="a_node27"><a xlink:href="ExecFrameworkIntegration.html#to_chain" xlink:title="to_chain">
<ellipse fill="#f070d1" stroke="black" cx="823" cy="-710.74" rx="49.31" ry="18"/>
<ellipse fill="none" stroke="black" cx="823" cy="-710.74" rx="53.3" ry="22"/>
<ellipse fill="none" stroke="black" cx="823" cy="-710.74" rx="57.29" ry="26"/>
<text text-anchor="middle" x="823" y="-707.04" font-family="Times,serif" font-size="14.00">to_chain</text>
</a>
</g>
</g>
<!-- ExecFrameworkIntegration_CB_obligation_1 -->
<g id="node29" class="node">
<title>ExecFrameworkIntegration_CB_obligation_1</title>
<g id="a_node29"><a xlink:href="ExecFrameworkIntegration.html#CB_obligation_1" xlink:title="CB_obligation_1">
<ellipse fill="#f070d1" stroke="black" cx="846" cy="-36.74" rx="85.29" ry="18"/>
<text text-anchor="middle" x="846" y="-33.04" font-family="Times,serif" font-size="14.00">CB_obligation_1</text>
</a>
</g>
</g>
<!-- ExecFrameworkIntegration_CB&#45;&gt;ExecFrameworkIntegration_CB_obligation_1 -->
<g id="edge35" class="edge">
<title>ExecFrameworkIntegration_CB&#45;&gt;ExecFrameworkIntegration_CB_obligation_1</title>
<path fill="none" stroke="black" d="M846,-97.66C846,-88.09 846,-75.93 846,-65.07"/>
<polygon fill="black" stroke="black" points="849.5,-64.79 846,-54.79 842.5,-64.79 849.5,-64.79"/>
</g>
<!-- ExecFrameworkIntegration_global_to_tc -->
<g id="node30" class="node">
<title>ExecFrameworkIntegration_global_to_tc</title>
<g id="a_node30"><a xlink:href="ExecFrameworkIntegration.html#global_to_tc" xlink:title="global_to_tc">
<ellipse fill="#f070d1" stroke="black" cx="635" cy="-710.74" rx="65.77" ry="18"/>
<ellipse fill="none" stroke="black" cx="635" cy="-710.74" rx="69.78" ry="22"/>
<ellipse fill="none" stroke="black" cx="635" cy="-710.74" rx="73.79" ry="26"/>
<text text-anchor="middle" x="635" y="-707.04" font-family="Times,serif" font-size="14.00">global_to_tc</text>
</a>
</g>
</g>
<!-- ExecFrameworkIntegration_type_to_tc -->
<g id="node31" class="node">
<title>ExecFrameworkIntegration_type_to_tc</title>
<g id="a_node31"><a xlink:href="ExecFrameworkIntegration.html#type_to_tc" xlink:title="type_to_tc">
<ellipse fill="#f070d1" stroke="black" cx="399" cy="-710.74" rx="57.71" ry="18"/>
<ellipse fill="none" stroke="black" cx="399" cy="-710.74" rx="61.7" ry="22"/>
<ellipse fill="none" stroke="black" cx="399" cy="-710.74" rx="65.69" ry="26"/>
<text text-anchor="middle" x="399" y="-707.04" font-family="Times,serif" font-size="14.00">type_to_tc</text>
</a>
</g>
</g>
<!-- ExecFrameworkIntegration_expr_to_tc -->
<g id="node32" class="node">
<title>ExecFrameworkIntegration_expr_to_tc</title>
<g id="a_node32"><a xlink:href="ExecFrameworkIntegration.html#expr_to_tc" xlink:title="expr_to_tc">
<ellipse fill="#f070d1" stroke="black" cx="92" cy="-710.74" rx="58.49" ry="18"/>
<ellipse fill="none" stroke="black" cx="92" cy="-710.74" rx="62.49" ry="22"/>
<ellipse fill="none" stroke="black" cx="92" cy="-710.74" rx="66.49" ry="26"/>
<text text-anchor="middle" x="92" y="-707.04" font-family="Times,serif" font-size="14.00">expr_to_tc</text>
</a>
</g>
</g>
</g>
</svg>
