<?xml version="1.0" encoding="UTF-8" standalone="no"?>
<!DOCTYPE svg PUBLIC "-//W3C//DTD SVG 1.1//EN"
 "http://www.w3.org/Graphics/SVG/1.1/DTD/svg11.dtd">
<!-- Generated by graphviz version 2.43.0 (0)
 -->
<!-- Title: Egcd Pages: 1 -->
<svg width="686pt" height="347pt"
 viewBox="0.00 0.00 686.00 347.00" xmlns="http://www.w3.org/2000/svg" xmlns:xlink="http://www.w3.org/1999/xlink">
<g id="graph0" class="graph" transform="scale(1 1) rotate(0) translate(4 343)">
<title>Egcd</title>
<polygon fill="white" stroke="transparent" points="-4,4 -4,-343 682,-343 682,4 -4,4"/>
<g id="clust1" class="cluster">
<title>cluster_Egcd</title>
<polygon fill="#ffffc3" stroke="black" points="16.84,-8 16.84,-331 661.16,-331 661.16,-8 16.84,-8"/>
<text text-anchor="middle" x="43.34" y="-315.8" font-family="Times,serif" font-size="14.00">Egcd</text>
</g>
<!-- Egcd_egcd_divides -->
<g id="node1" class="node">
<title>Egcd_egcd_divides</title>
<g id="a_node1"><a xlink:href="Egcd.html#egcd_divides" xlink:title="egcd_divides">
<ellipse fill="#7fffd4" stroke="black" cx="479.71" cy="-186" rx="70.37" ry="18"/>
<ellipse fill="none" stroke="black" cx="479.71" cy="-186" rx="74.38" ry="22"/>
<ellipse fill="none" stroke="black" cx="479.71" cy="-186" rx="78.39" ry="26"/>
<text text-anchor="middle" x="479.71" y="-182.3" font-family="Times,serif" font-size="14.00">egcd_divides</text>
</a>
</g>
</g>
<!-- Egcd_egcd -->
<g id="node5" class="node">
<title>Egcd_egcd</title>
<g id="a_node5"><a xlink:href="Egcd.html#egcd" xlink:title="egcd">
<ellipse fill="#f070d1" stroke="black" cx="473.71" cy="-106" rx="32.49" ry="18"/>
<text text-anchor="middle" x="473.71" y="-102.3" font-family="Times,serif" font-size="14.00">egcd</text>
</a>
</g>
</g>
<!-- Egcd_egcd_divides&#45;&gt;Egcd_egcd -->
<g id="edge1" class="edge">
<title>Egcd_egcd_divides&#45;&gt;Egcd_egcd</title>
<path fill="none" stroke="black" d="M477.78,-159.89C477.16,-151.84 476.47,-142.88 475.84,-134.66"/>
<polygon fill="black" stroke="black" points="479.3,-134.11 475.05,-124.41 472.32,-134.65 479.3,-134.11"/>
</g>
<!-- Egcd_mul_fst_egcd -->
<g id="node2" class="node">
<title>Egcd_mul_fst_egcd</title>
<g id="a_node2"><a xlink:href="Egcd.html#mul_fst_egcd" xlink:title="mul_fst_egcd">
<ellipse fill="#7fffd4" stroke="black" cx="199.71" cy="-274" rx="71.49" ry="18"/>
<ellipse fill="none" stroke="black" cx="199.71" cy="-274" rx="75.49" ry="22"/>
<ellipse fill="none" stroke="black" cx="199.71" cy="-274" rx="79.49" ry="26"/>
<text text-anchor="middle" x="199.71" y="-270.3" font-family="Times,serif" font-size="14.00">mul_fst_egcd</text>
</a>
</g>
</g>
<!-- Egcd_egcd_spec -->
<g id="node3" class="node">
<title>Egcd_egcd_spec</title>
<g id="a_node3"><a xlink:href="Egcd.html#egcd_spec" xlink:title="egcd_spec">
<ellipse fill="#7fffd4" stroke="black" cx="155.71" cy="-186" rx="57.69" ry="18"/>
<text text-anchor="middle" x="155.71" y="-182.3" font-family="Times,serif" font-size="14.00">egcd_spec</text>
</a>
</g>
</g>
<!-- Egcd_mul_fst_egcd&#45;&gt;Egcd_egcd_spec -->
<g id="edge2" class="edge">
<title>Egcd_mul_fst_egcd&#45;&gt;Egcd_egcd_spec</title>
<path fill="none" stroke="black" d="M186.98,-248.13C181.37,-237.15 174.77,-224.25 169.08,-213.14"/>
<polygon fill="black" stroke="black" points="172.04,-211.23 164.37,-203.92 165.8,-214.42 172.04,-211.23"/>
</g>
<!-- Egcd_egcd_aux_spec -->
<g id="node4" class="node">
<title>Egcd_egcd_aux_spec</title>
<g id="a_node4"><a xlink:href="Egcd.html#egcd_aux_spec" xlink:title="egcd_aux_spec">
<ellipse fill="#7fffd4" stroke="black" cx="199.71" cy="-106" rx="79.09" ry="18"/>
<text text-anchor="middle" x="199.71" y="-102.3" font-family="Times,serif" font-size="14.00">egcd_aux_spec</text>
</a>
</g>
</g>
<!-- Egcd_egcd_spec&#45;&gt;Egcd_egcd_aux_spec -->
<g id="edge3" class="edge">
<title>Egcd_egcd_spec&#45;&gt;Egcd_egcd_aux_spec</title>
<path fill="none" stroke="black" d="M165.26,-168.08C171.08,-157.75 178.64,-144.35 185.19,-132.73"/>
<polygon fill="black" stroke="black" points="188.31,-134.32 190.18,-123.89 182.22,-130.88 188.31,-134.32"/>
</g>
<!-- Egcd_egcd_spec&#45;&gt;Egcd_egcd -->
<g id="edge4" class="edge">
<title>Egcd_egcd_spec&#45;&gt;Egcd_egcd</title>
<path fill="none" stroke="black" d="M199.59,-174.24C261.92,-158.95 375.13,-131.18 434.68,-116.57"/>
<polygon fill="black" stroke="black" points="435.58,-119.96 444.46,-114.17 433.91,-113.16 435.58,-119.96"/>
</g>
<!-- Egcd_egcd_aux -->
<g id="node6" class="node">
<title>Egcd_egcd_aux</title>
<g id="a_node6"><a xlink:href="Egcd.html#egcd_aux" xlink:title="egcd_aux">
<ellipse fill="#f070d1" stroke="black" cx="336.71" cy="-34" rx="53.89" ry="18"/>
<text text-anchor="middle" x="336.71" y="-30.3" font-family="Times,serif" font-size="14.00">egcd_aux</text>
</a>
</g>
</g>
<!-- Egcd_egcd_aux_spec&#45;&gt;Egcd_egcd_aux -->
<g id="edge5" class="edge">
<title>Egcd_egcd_aux_spec&#45;&gt;Egcd_egcd_aux</title>
<path fill="none" stroke="black" d="M230.45,-89.29C250.89,-78.85 277.84,-65.08 299.48,-54.02"/>
<polygon fill="black" stroke="black" points="301.09,-57.13 308.4,-49.46 297.9,-50.9 301.09,-57.13"/>
</g>
<!-- Egcd_egcd&#45;&gt;Egcd_egcd_aux -->
<g id="edge6" class="edge">
<title>Egcd_egcd&#45;&gt;Egcd_egcd_aux</title>
<path fill="none" stroke="black" d="M450.47,-93.13C429.62,-82.47 398.64,-66.65 374.28,-54.2"/>
<polygon fill="black" stroke="black" points="375.79,-51.04 365.3,-49.61 372.61,-57.27 375.79,-51.04"/>
</g>
</g>
</svg>
