<?xml version="1.0" encoding="UTF-8" standalone="no"?>
<!DOCTYPE svg PUBLIC "-//W3C//DTD SVG 1.1//EN"
 "http://www.w3.org/Graphics/SVG/1.1/DTD/svg11.dtd">
<!-- Generated by graphviz version 2.43.0 (0)
 -->
<!-- Title: DexterPrinters Pages: 1 -->
<svg width="510pt" height="259pt"
 viewBox="0.00 0.00 510.00 259.00" xmlns="http://www.w3.org/2000/svg" xmlns:xlink="http://www.w3.org/1999/xlink">
<g id="graph0" class="graph" transform="scale(1 1) rotate(0) translate(4 255)">
<title>DexterPrinters</title>
<polygon fill="white" stroke="transparent" points="-4,4 -4,-255 506,-255 506,4 -4,4"/>
<g id="clust1" class="cluster">
<title>cluster_DexterPrinters</title>
<polygon fill="#ffffc3" stroke="black" points="8.62,-8 8.62,-243 493.38,-243 493.38,-8 8.62,-8"/>
<text text-anchor="middle" x="70.62" y="-227.8" font-family="Times,serif" font-size="14.00">DexterPrinters</text>
</g>
<!-- DexterPrinters_showSerializedMsg -->
<g id="node1" class="node">
<title>DexterPrinters_showSerializedMsg</title>
<g id="a_node1"><a xlink:href="DexterPrinters.html#showSerializedMsg" xlink:title="showSerializedMsg">
<ellipse fill="#f070d1" stroke="black" cx="367.72" cy="-186" rx="100.96" ry="18"/>
<ellipse fill="none" stroke="black" cx="367.72" cy="-186" rx="104.97" ry="22"/>
<ellipse fill="none" stroke="black" cx="367.72" cy="-186" rx="108.98" ry="26"/>
<text text-anchor="middle" x="367.72" y="-182.3" font-family="Times,serif" font-size="14.00">showSerializedMsg</text>
</a>
</g>
</g>
<!-- DexterPrinters_showDexterSetup -->
<g id="node2" class="node">
<title>DexterPrinters_showDexterSetup</title>
<g id="a_node2"><a xlink:href="DexterPrinters.html#showDexterSetup" xlink:title="showDexterSetup">
<ellipse fill="#f070d1" stroke="black" cx="153.72" cy="-106" rx="93.68" ry="18"/>
<text text-anchor="middle" x="153.72" y="-102.3" font-family="Times,serif" font-size="14.00">showDexterSetup</text>
</a>
</g>
</g>
<!-- DexterPrinters_showSerializedMsg&#45;&gt;DexterPrinters_showDexterSetup -->
<g id="edge1" class="edge">
<title>DexterPrinters_showSerializedMsg&#45;&gt;DexterPrinters_showDexterSetup</title>
<path fill="none" stroke="black" d="M309.81,-163.89C277.05,-151.95 236.46,-137.16 204.88,-125.65"/>
<polygon fill="black" stroke="black" points="205.98,-122.32 195.39,-122.19 203.58,-128.9 205.98,-122.32"/>
</g>
<!-- DexterPrinters_showDexterMsg -->
<g id="node4" class="node">
<title>DexterPrinters_showDexterMsg</title>
<g id="a_node4"><a xlink:href="DexterPrinters.html#showDexterMsg" xlink:title="showDexterMsg">
<ellipse fill="#f070d1" stroke="black" cx="367.72" cy="-106" rx="86.38" ry="18"/>
<text text-anchor="middle" x="367.72" y="-102.3" font-family="Times,serif" font-size="14.00">showDexterMsg</text>
</a>
</g>
</g>
<!-- DexterPrinters_showSerializedMsg&#45;&gt;DexterPrinters_showDexterMsg -->
<g id="edge2" class="edge">
<title>DexterPrinters_showSerializedMsg&#45;&gt;DexterPrinters_showDexterMsg</title>
<path fill="none" stroke="black" d="M367.72,-159.89C367.72,-151.84 367.72,-142.88 367.72,-134.66"/>
<polygon fill="black" stroke="black" points="371.22,-134.41 367.72,-124.41 364.22,-134.41 371.22,-134.41"/>
</g>
<!-- DexterPrinters_showDexterState -->
<g id="node3" class="node">
<title>DexterPrinters_showDexterState</title>
<g id="a_node3"><a xlink:href="DexterPrinters.html#showDexterState" xlink:title="showDexterState">
<ellipse fill="#f070d1" stroke="black" cx="123.72" cy="-186" rx="90.98" ry="18"/>
<ellipse fill="none" stroke="black" cx="123.72" cy="-186" rx="94.98" ry="22"/>
<ellipse fill="none" stroke="black" cx="123.72" cy="-186" rx="98.98" ry="26"/>
<text text-anchor="middle" x="123.72" y="-182.3" font-family="Times,serif" font-size="14.00">showDexterState</text>
</a>
</g>
</g>
<!-- DexterPrinters_showDexterExchangeParam -->
<g id="node5" class="node">
<title>DexterPrinters_showDexterExchangeParam</title>
<g id="a_node5"><a xlink:href="DexterPrinters.html#showDexterExchangeParam" xlink:title="showDexterExchangeParam">
<ellipse fill="#f070d1" stroke="black" cx="331.72" cy="-34" rx="141.88" ry="18"/>
<text text-anchor="middle" x="331.72" y="-30.3" font-family="Times,serif" font-size="14.00">showDexterExchangeParam</text>
</a>
</g>
</g>
<!-- DexterPrinters_showDexterMsg&#45;&gt;DexterPrinters_showDexterExchangeParam -->
<g id="edge3" class="edge">
<title>DexterPrinters_showDexterMsg&#45;&gt;DexterPrinters_showDexterExchangeParam</title>
<path fill="none" stroke="black" d="M359,-88.05C354.86,-80.01 349.82,-70.2 345.2,-61.23"/>
<polygon fill="black" stroke="black" points="348.29,-59.57 340.6,-52.28 342.06,-62.77 348.29,-59.57"/>
</g>
</g>
</svg>
