<?xml version="1.0" encoding="UTF-8" standalone="no"?>
<!DOCTYPE svg PUBLIC "-//W3C//DTD SVG 1.1//EN"
 "http://www.w3.org/Graphics/SVG/1.1/DTD/svg11.dtd">
<!-- Generated by graphviz version 2.43.0 (0)
 -->
<!-- Title: CIS1Utils Pages: 1 -->
<svg width="1619pt" height="814pt"
 viewBox="0.00 0.00 1619.00 813.50" xmlns="http://www.w3.org/2000/svg" xmlns:xlink="http://www.w3.org/1999/xlink">
<g id="graph0" class="graph" transform="scale(1 1) rotate(0) translate(4 809.5)">
<title>CIS1Utils</title>
<polygon fill="white" stroke="transparent" points="-4,4 -4,-809.5 1615,-809.5 1615,4 -4,4"/>
<g id="clust1" class="cluster">
<title>cluster_CIS1Utils</title>
<polygon fill="#ffffc3" stroke="black" points="8,-29.56 8,-775.94 1603,-775.94 1603,-29.56 8,-29.56"/>
<text text-anchor="middle" x="51" y="-760.74" font-family="Times,serif" font-size="14.00">CIS1Utils</text>
</g>
<g id="clust2" class="cluster">
<title>cluster_CIS1Utils_RemoveProperties</title>
<polygon fill="#ffffa3" stroke="black" points="16,-59.12 16,-661.4 1595,-661.4 1595,-59.12 16,-59.12"/>
<text text-anchor="middle" x="90.5" y="-646.2" font-family="Times,serif" font-size="14.00">RemoveProperties</text>
</g>
<!-- CIS1Utils_RemoveProperties_remove_extensional -->
<g id="node1" class="node">
<title>CIS1Utils_RemoveProperties_remove_extensional</title>
<g id="a_node1"><a xlink:href="CIS1Utils.html#RemoveProperties.remove_extensional" xlink:title="remove_extensional">
<ellipse fill="#7fffd4" stroke="black" cx="1476" cy="-450.56" rx="102.87" ry="18"/>
<ellipse fill="none" stroke="black" cx="1476" cy="-450.56" rx="106.88" ry="22"/>
<ellipse fill="none" stroke="black" cx="1476" cy="-450.56" rx="110.88" ry="26"/>
<text text-anchor="middle" x="1476" y="-446.86" font-family="Times,serif" font-size="14.00">remove_extensional</text>
</a>
</g>
</g>
<!-- CIS1Utils_RemoveProperties_neq_not_removed -->
<g id="node7" class="node">
<title>CIS1Utils_RemoveProperties_neq_not_removed</title>
<g id="a_node7"><a xlink:href="CIS1Utils.html#RemoveProperties.neq_not_removed" xlink:title="neq_not_removed">
<ellipse fill="#7fffd4" stroke="black" cx="1418" cy="-155.56" rx="92.08" ry="18"/>
<text text-anchor="middle" x="1418" y="-151.86" font-family="Times,serif" font-size="14.00">neq_not_removed</text>
</a>
</g>
</g>
<!-- CIS1Utils_RemoveProperties_remove_extensional&#45;&gt;CIS1Utils_RemoveProperties_neq_not_removed -->
<g id="edge1" class="edge">
<title>CIS1Utils_RemoveProperties_remove_extensional&#45;&gt;CIS1Utils_RemoveProperties_neq_not_removed</title>
<path fill="none" stroke="black" d="M1471.05,-424.58C1460.25,-369.97 1434.59,-240.36 1423.39,-183.77"/>
<polygon fill="black" stroke="black" points="1426.78,-182.91 1421.41,-173.78 1419.92,-184.27 1426.78,-182.91"/>
</g>
<!-- CIS1Utils_RemoveProperties_In_remove -->
<g id="node8" class="node">
<title>CIS1Utils_RemoveProperties_In_remove</title>
<g id="a_node8"><a xlink:href="CIS1Utils.html#RemoveProperties.In_remove" xlink:title="In_remove">
<ellipse fill="#7fffd4" stroke="black" cx="1191" cy="-155.56" rx="59.29" ry="18"/>
<text text-anchor="middle" x="1191" y="-151.86" font-family="Times,serif" font-size="14.00">In_remove</text>
</a>
</g>
</g>
<!-- CIS1Utils_RemoveProperties_remove_extensional&#45;&gt;CIS1Utils_RemoveProperties_In_remove -->
<g id="edge2" class="edge">
<title>CIS1Utils_RemoveProperties_remove_extensional&#45;&gt;CIS1Utils_RemoveProperties_In_remove</title>
<path fill="none" stroke="black" d="M1452.19,-425.08C1398.27,-369.65 1267.39,-235.09 1214.13,-180.33"/>
<polygon fill="black" stroke="black" points="1216.62,-177.88 1207.14,-173.15 1211.6,-182.76 1216.62,-177.88"/>
</g>
<!-- CIS1Utils_RemoveProperties_NoDup_remove -->
<g id="node2" class="node">
<title>CIS1Utils_RemoveProperties_NoDup_remove</title>
<g id="a_node2"><a xlink:href="CIS1Utils.html#RemoveProperties.NoDup_remove" xlink:title="NoDup_remove">
<ellipse fill="#7fffd4" stroke="black" cx="564" cy="-450.56" rx="81.8" ry="18"/>
<ellipse fill="none" stroke="black" cx="564" cy="-450.56" rx="85.79" ry="22"/>
<ellipse fill="none" stroke="black" cx="564" cy="-450.56" rx="89.79" ry="26"/>
<text text-anchor="middle" x="564" y="-446.86" font-family="Times,serif" font-size="14.00">NoDup_remove</text>
</a>
</g>
</g>
<!-- CIS1Utils_RemoveProperties_not_in_remove -->
<g id="node10" class="node">
<title>CIS1Utils_RemoveProperties_not_in_remove</title>
<g id="a_node10"><a xlink:href="CIS1Utils.html#RemoveProperties.not_in_remove" xlink:title="not_in_remove">
<ellipse fill="#7fffd4" stroke="black" cx="659" cy="-155.56" rx="77.99" ry="18"/>
<text text-anchor="middle" x="659" y="-151.86" font-family="Times,serif" font-size="14.00">not_in_remove</text>
</a>
</g>
</g>
<!-- CIS1Utils_RemoveProperties_NoDup_remove&#45;&gt;CIS1Utils_RemoveProperties_not_in_remove -->
<g id="edge3" class="edge">
<title>CIS1Utils_RemoveProperties_NoDup_remove&#45;&gt;CIS1Utils_RemoveProperties_not_in_remove</title>
<path fill="none" stroke="black" d="M572.1,-424.58C589.84,-369.86 632.01,-239.82 650.29,-183.42"/>
<polygon fill="black" stroke="black" points="653.66,-184.37 653.42,-173.78 647,-182.21 653.66,-184.37"/>
</g>
<!-- CIS1Utils_RemoveProperties_remove_all_not_in_to_remove -->
<g id="node3" class="node">
<title>CIS1Utils_RemoveProperties_remove_all_not_in_to_remove</title>
<g id="a_node3"><a xlink:href="CIS1Utils.html#RemoveProperties.remove_all_not_in_to_remove" xlink:title="remove_all_not_in_to_remove">
<ellipse fill="#7fffd4" stroke="black" cx="1193" cy="-450.56" rx="146.46" ry="18"/>
<ellipse fill="none" stroke="black" cx="1193" cy="-450.56" rx="150.47" ry="22"/>
<ellipse fill="none" stroke="black" cx="1193" cy="-450.56" rx="154.47" ry="26"/>
<text text-anchor="middle" x="1193" y="-446.86" font-family="Times,serif" font-size="14.00">remove_all_not_in_to_remove</text>
</a>
</g>
</g>
<!-- CIS1Utils_RemoveProperties_remove_all -->
<g id="node6" class="node">
<title>CIS1Utils_RemoveProperties_remove_all</title>
<g id="a_node6"><a xlink:href="CIS1Utils.html#RemoveProperties.remove_all" xlink:title="remove_all">
<ellipse fill="#f070d1" stroke="black" cx="938" cy="-155.56" rx="61.19" ry="18"/>
<text text-anchor="middle" x="938" y="-151.86" font-family="Times,serif" font-size="14.00">remove_all</text>
</a>
</g>
</g>
<!-- CIS1Utils_RemoveProperties_remove_all_not_in_to_remove&#45;&gt;CIS1Utils_RemoveProperties_remove_all -->
<g id="edge4" class="edge">
<title>CIS1Utils_RemoveProperties_remove_all_not_in_to_remove&#45;&gt;CIS1Utils_RemoveProperties_remove_all</title>
<path fill="none" stroke="black" d="M1171.26,-424.58C1122.91,-369.03 1007.01,-235.85 959.19,-180.9"/>
<polygon fill="black" stroke="black" points="961.58,-178.32 952.38,-173.08 956.3,-182.92 961.58,-178.32"/>
</g>
<!-- CIS1Utils_RemoveProperties_remove_all_not_in_to_remove&#45;&gt;CIS1Utils_RemoveProperties_neq_not_removed -->
<g id="edge5" class="edge">
<title>CIS1Utils_RemoveProperties_remove_all_not_in_to_remove&#45;&gt;CIS1Utils_RemoveProperties_neq_not_removed</title>
<path fill="none" stroke="black" d="M1212.18,-424.58C1254.65,-369.28 1356.21,-237.03 1398.74,-181.63"/>
<polygon fill="black" stroke="black" points="1401.73,-183.49 1405.05,-173.43 1396.18,-179.23 1401.73,-183.49"/>
</g>
<!-- CIS1Utils_RemoveProperties_In_remove_all -->
<g id="node4" class="node">
<title>CIS1Utils_RemoveProperties_In_remove_all</title>
<g id="a_node4"><a xlink:href="CIS1Utils.html#RemoveProperties.In_remove_all" xlink:title="In_remove_all">
<ellipse fill="#7fffd4" stroke="black" cx="938" cy="-450.56" rx="74.96" ry="18"/>
<ellipse fill="none" stroke="black" cx="938" cy="-450.56" rx="78.98" ry="22"/>
<ellipse fill="none" stroke="black" cx="938" cy="-450.56" rx="82.99" ry="26"/>
<text text-anchor="middle" x="938" y="-446.86" font-family="Times,serif" font-size="14.00">In_remove_all</text>
</a>
</g>
</g>
<!-- CIS1Utils_RemoveProperties_In_remove_all&#45;&gt;CIS1Utils_RemoveProperties_remove_all -->
<g id="edge6" class="edge">
<title>CIS1Utils_RemoveProperties_In_remove_all&#45;&gt;CIS1Utils_RemoveProperties_remove_all</title>
<path fill="none" stroke="black" d="M938,-424.33C938,-369.67 938,-240.71 938,-184.06"/>
<polygon fill="black" stroke="black" points="941.5,-183.74 938,-173.74 934.5,-183.74 941.5,-183.74"/>
</g>
<!-- CIS1Utils_RemoveProperties_In_remove_all&#45;&gt;CIS1Utils_RemoveProperties_In_remove -->
<g id="edge7" class="edge">
<title>CIS1Utils_RemoveProperties_In_remove_all&#45;&gt;CIS1Utils_RemoveProperties_In_remove</title>
<path fill="none" stroke="black" d="M959.14,-425.08C1006.81,-369.88 1122.24,-236.19 1169.89,-181.01"/>
<polygon fill="black" stroke="black" points="1172.78,-183.01 1176.67,-173.15 1167.49,-178.44 1172.78,-183.01"/>
</g>
<!-- CIS1Utils_RemoveProperties_remove_all_In -->
<g id="node5" class="node">
<title>CIS1Utils_RemoveProperties_remove_all_In</title>
<g id="a_node5"><a xlink:href="CIS1Utils.html#RemoveProperties.remove_all_In" xlink:title="remove_all_In">
<ellipse fill="#7fffd4" stroke="black" cx="755" cy="-450.56" rx="74.96" ry="18"/>
<ellipse fill="none" stroke="black" cx="755" cy="-450.56" rx="78.98" ry="22"/>
<ellipse fill="none" stroke="black" cx="755" cy="-450.56" rx="82.99" ry="26"/>
<text text-anchor="middle" x="755" y="-446.86" font-family="Times,serif" font-size="14.00">remove_all_In</text>
</a>
</g>
</g>
<!-- CIS1Utils_RemoveProperties_remove_all_In&#45;&gt;CIS1Utils_RemoveProperties_remove_all -->
<g id="edge8" class="edge">
<title>CIS1Utils_RemoveProperties_remove_all_In&#45;&gt;CIS1Utils_RemoveProperties_remove_all</title>
<path fill="none" stroke="black" d="M770.6,-424.58C805.07,-369.39 887.4,-237.57 922.12,-181.98"/>
<polygon fill="black" stroke="black" points="925.14,-183.76 927.46,-173.43 919.2,-180.06 925.14,-183.76"/>
</g>
<!-- CIS1Utils_RemoveProperties_remove_all_In&#45;&gt;CIS1Utils_RemoveProperties_not_in_remove -->
<g id="edge9" class="edge">
<title>CIS1Utils_RemoveProperties_remove_all_In&#45;&gt;CIS1Utils_RemoveProperties_not_in_remove</title>
<path fill="none" stroke="black" d="M746.82,-424.58C728.89,-369.86 686.28,-239.82 667.8,-183.42"/>
<polygon fill="black" stroke="black" points="671.08,-182.19 664.64,-173.78 664.43,-184.37 671.08,-182.19"/>
</g>
<!-- CIS1Utils_RemoveProperties_remove_remove -->
<g id="node9" class="node">
<title>CIS1Utils_RemoveProperties_remove_remove</title>
<g id="a_node9"><a xlink:href="CIS1Utils.html#RemoveProperties.remove_remove" xlink:title="remove_remove">
<ellipse fill="#7fffd4" stroke="black" cx="364" cy="-450.56" rx="84.49" ry="18"/>
<ellipse fill="none" stroke="black" cx="364" cy="-450.56" rx="88.49" ry="22"/>
<ellipse fill="none" stroke="black" cx="364" cy="-450.56" rx="92.49" ry="26"/>
<text text-anchor="middle" x="364" y="-446.86" font-family="Times,serif" font-size="14.00">remove_remove</text>
</a>
</g>
</g>
<!-- CIS1Utils_RemoveProperties_not_in_remove_same -->
<g id="node11" class="node">
<title>CIS1Utils_RemoveProperties_not_in_remove_same</title>
<g id="a_node11"><a xlink:href="CIS1Utils.html#RemoveProperties.not_in_remove_same" xlink:title="not_in_remove_same">
<ellipse fill="#7fffd4" stroke="black" cx="139" cy="-450.56" rx="106.67" ry="18"/>
<ellipse fill="none" stroke="black" cx="139" cy="-450.56" rx="110.68" ry="22"/>
<ellipse fill="none" stroke="black" cx="139" cy="-450.56" rx="114.68" ry="26"/>
<text text-anchor="middle" x="139" y="-446.86" font-family="Times,serif" font-size="14.00">not_in_remove_same</text>
</a>
</g>
</g>
</g>
</svg>
