<?xml version="1.0" encoding="UTF-8" standalone="no"?>
<!DOCTYPE svg PUBLIC "-//W3C//DTD SVG 1.1//EN"
 "http://www.w3.org/Graphics/SVG/1.1/DTD/svg11.dtd">
<!-- Generated by graphviz version 2.43.0 (0)
 -->
<!-- Title: Misc Pages: 1 -->
<svg width="1887pt" height="948pt"
 viewBox="0.00 0.00 1887.00 947.50" xmlns="http://www.w3.org/2000/svg" xmlns:xlink="http://www.w3.org/1999/xlink">
<g id="graph0" class="graph" transform="scale(1 1) rotate(0) translate(4 943.5)">
<title>Misc</title>
<polygon fill="white" stroke="transparent" points="-4,4 -4,-943.5 1883,-943.5 1883,4 -4,4"/>
<g id="clust1" class="cluster">
<title>cluster_Misc</title>
<polygon fill="#ffffc3" stroke="black" points="8,-41.99 8,-897.51 1871,-897.51 1871,-41.99 8,-41.99"/>
<text text-anchor="middle" x="33" y="-882.31" font-family="Times,serif" font-size="14.00">Misc</text>
</g>
<!-- Misc_map_combine_snd_funprod -->
<g id="node1" class="node">
<title>Misc_map_combine_snd_funprod</title>
<g id="a_node1"><a xlink:href="Misc.html#map_combine_snd_funprod" xlink:title="map_combine_snd_funprod">
<ellipse fill="#7fffd4" stroke="black" cx="1719" cy="-597.99" rx="135.69" ry="18"/>
<ellipse fill="none" stroke="black" cx="1719" cy="-597.99" rx="139.68" ry="22"/>
<ellipse fill="none" stroke="black" cx="1719" cy="-597.99" rx="143.68" ry="26"/>
<text text-anchor="middle" x="1719" y="-594.29" font-family="Times,serif" font-size="14.00">map_combine_snd_funprod</text>
</a>
</g>
</g>
<!-- Misc_fun_prod -->
<g id="node12" class="node">
<title>Misc_fun_prod</title>
<g id="a_node12"><a xlink:href="Misc.html#fun_prod" xlink:title="fun_prod">
<ellipse fill="#f070d1" stroke="black" cx="1719" cy="-177.99" rx="51.99" ry="18"/>
<text text-anchor="middle" x="1719" y="-174.29" font-family="Times,serif" font-size="14.00">fun_prod</text>
</a>
</g>
</g>
<!-- Misc_map_combine_snd_funprod&#45;&gt;Misc_fun_prod -->
<g id="edge1" class="edge">
<title>Misc_map_combine_snd_funprod&#45;&gt;Misc_fun_prod</title>
<path fill="none" stroke="black" d="M1719,-571.78C1719,-498.1 1719,-283.43 1719,-206.68"/>
<polygon fill="black" stroke="black" points="1722.5,-206.39 1719,-196.39 1715.5,-206.39 1722.5,-206.39"/>
</g>
<!-- Misc_map_map_combine_snd -->
<g id="node2" class="node">
<title>Misc_map_map_combine_snd</title>
<g id="a_node2"><a xlink:href="Misc.html#map_map_combine_snd" xlink:title="map_map_combine_snd">
<ellipse fill="#7fffd4" stroke="black" cx="1430" cy="-597.99" rx="119.67" ry="18"/>
<ellipse fill="none" stroke="black" cx="1430" cy="-597.99" rx="123.68" ry="22"/>
<ellipse fill="none" stroke="black" cx="1430" cy="-597.99" rx="127.68" ry="26"/>
<text text-anchor="middle" x="1430" y="-594.29" font-family="Times,serif" font-size="14.00">map_map_combine_snd</text>
</a>
</g>
</g>
<!-- Misc_map_combine_snd -->
<g id="node3" class="node">
<title>Misc_map_combine_snd</title>
<g id="a_node3"><a xlink:href="Misc.html#map_combine_snd" xlink:title="map_combine_snd">
<ellipse fill="#7fffd4" stroke="black" cx="1430" cy="-177.99" rx="94.78" ry="18"/>
<text text-anchor="middle" x="1430" y="-174.29" font-family="Times,serif" font-size="14.00">map_combine_snd</text>
</a>
</g>
</g>
<!-- Misc_map_map_combine_snd&#45;&gt;Misc_map_combine_snd -->
<g id="edge2" class="edge">
<title>Misc_map_map_combine_snd&#45;&gt;Misc_map_combine_snd</title>
<path fill="none" stroke="black" d="M1430,-571.78C1430,-498.1 1430,-283.43 1430,-206.68"/>
<polygon fill="black" stroke="black" points="1433.5,-206.39 1430,-196.39 1426.5,-206.39 1433.5,-206.39"/>
</g>
<!-- Misc_combine_rev -->
<g id="node4" class="node">
<title>Misc_combine_rev</title>
<g id="a_node4"><a xlink:href="Misc.html#combine_rev" xlink:title="combine_rev">
<ellipse fill="#7fffd4" stroke="black" cx="1207" cy="-597.99" rx="69.58" ry="18"/>
<ellipse fill="none" stroke="black" cx="1207" cy="-597.99" rx="73.59" ry="22"/>
<ellipse fill="none" stroke="black" cx="1207" cy="-597.99" rx="77.59" ry="26"/>
<text text-anchor="middle" x="1207" y="-594.29" font-family="Times,serif" font-size="14.00">combine_rev</text>
</a>
</g>
</g>
<!-- Misc_combine_app -->
<g id="node5" class="node">
<title>Misc_combine_app</title>
<g id="a_node5"><a xlink:href="Misc.html#combine_app" xlink:title="combine_app">
<ellipse fill="#7fffd4" stroke="black" cx="1207" cy="-177.99" rx="71.49" ry="18"/>
<text text-anchor="middle" x="1207" y="-174.29" font-family="Times,serif" font-size="14.00">combine_app</text>
</a>
</g>
</g>
<!-- Misc_combine_rev&#45;&gt;Misc_combine_app -->
<g id="edge3" class="edge">
<title>Misc_combine_rev&#45;&gt;Misc_combine_app</title>
<path fill="none" stroke="black" d="M1207,-571.78C1207,-498.1 1207,-283.43 1207,-206.68"/>
<polygon fill="black" stroke="black" points="1210.5,-206.39 1207,-196.39 1203.5,-206.39 1210.5,-206.39"/>
</g>
<!-- Misc_forallb_In -->
<g id="node6" class="node">
<title>Misc_forallb_In</title>
<g id="a_node6"><a xlink:href="Misc.html#forallb_In" xlink:title="forallb_In">
<ellipse fill="#7fffd4" stroke="black" cx="1049" cy="-597.99" rx="54.68" ry="18"/>
<ellipse fill="none" stroke="black" cx="1049" cy="-597.99" rx="58.68" ry="22"/>
<ellipse fill="none" stroke="black" cx="1049" cy="-597.99" rx="62.69" ry="26"/>
<text text-anchor="middle" x="1049" y="-594.29" font-family="Times,serif" font-size="14.00">forallb_In</text>
</a>
</g>
</g>
<!-- Misc_Forall_In -->
<g id="node7" class="node">
<title>Misc_Forall_In</title>
<g id="a_node7"><a xlink:href="Misc.html#Forall_In" xlink:title="Forall_In">
<ellipse fill="#7fffd4" stroke="black" cx="909" cy="-597.99" rx="51.21" ry="18"/>
<ellipse fill="none" stroke="black" cx="909" cy="-597.99" rx="55.2" ry="22"/>
<ellipse fill="none" stroke="black" cx="909" cy="-597.99" rx="59.19" ry="26"/>
<text text-anchor="middle" x="909" y="-594.29" font-family="Times,serif" font-size="14.00">Forall_In</text>
</a>
</g>
</g>
<!-- Misc_forallb_impl_inner -->
<g id="node8" class="node">
<title>Misc_forallb_impl_inner</title>
<g id="a_node8"><a xlink:href="Misc.html#forallb_impl_inner" xlink:title="forallb_impl_inner">
<ellipse fill="#7fffd4" stroke="black" cx="729" cy="-597.99" rx="94.79" ry="18"/>
<ellipse fill="none" stroke="black" cx="729" cy="-597.99" rx="98.79" ry="22"/>
<ellipse fill="none" stroke="black" cx="729" cy="-597.99" rx="102.78" ry="26"/>
<text text-anchor="middle" x="729" y="-594.29" font-family="Times,serif" font-size="14.00">forallb_impl_inner</text>
</a>
</g>
</g>
<!-- Misc_All_impl_inner -->
<g id="node9" class="node">
<title>Misc_All_impl_inner</title>
<g id="a_node9"><a xlink:href="Misc.html#All_impl_inner" xlink:title="All_impl_inner">
<ellipse fill="#f070d1" stroke="black" cx="523" cy="-597.99" rx="76.87" ry="18"/>
<ellipse fill="none" stroke="black" cx="523" cy="-597.99" rx="80.88" ry="22"/>
<ellipse fill="none" stroke="black" cx="523" cy="-597.99" rx="84.89" ry="26"/>
<text text-anchor="middle" x="523" y="-594.29" font-family="Times,serif" font-size="14.00">All_impl_inner</text>
</a>
</g>
</g>
<!-- Misc_Forall_impl_inner -->
<g id="node10" class="node">
<title>Misc_Forall_impl_inner</title>
<g id="a_node10"><a xlink:href="Misc.html#Forall_impl_inner" xlink:title="Forall_impl_inner">
<ellipse fill="#7fffd4" stroke="black" cx="321" cy="-597.99" rx="90.98" ry="18"/>
<ellipse fill="none" stroke="black" cx="321" cy="-597.99" rx="94.98" ry="22"/>
<ellipse fill="none" stroke="black" cx="321" cy="-597.99" rx="98.98" ry="26"/>
<text text-anchor="middle" x="321" y="-594.29" font-family="Times,serif" font-size="14.00">Forall_impl_inner</text>
</a>
</g>
</g>
<!-- Misc_forallb_Forall_iff -->
<g id="node11" class="node">
<title>Misc_forallb_Forall_iff</title>
<g id="a_node11"><a xlink:href="Misc.html#forallb_Forall_iff" xlink:title="forallb_Forall_iff">
<ellipse fill="#7fffd4" stroke="black" cx="110" cy="-597.99" rx="85.6" ry="18"/>
<ellipse fill="none" stroke="black" cx="110" cy="-597.99" rx="89.59" ry="22"/>
<ellipse fill="none" stroke="black" cx="110" cy="-597.99" rx="93.59" ry="26"/>
<text text-anchor="middle" x="110" y="-594.29" font-family="Times,serif" font-size="14.00">forallb_Forall_iff</text>
</a>
</g>
</g>
</g>
</svg>
