<?xml version="1.0" encoding="UTF-8" standalone="no"?>
<!DOCTYPE svg PUBLIC "-//W3C//DTD SVG 1.1//EN"
 "http://www.w3.org/Graphics/SVG/1.1/DTD/svg11.dtd">
<!-- Generated by graphviz version 2.43.0 (0)
 -->
<!-- Title: CounterLIGO Pages: 1 -->
<svg width="1172pt" height="590pt"
 viewBox="0.00 0.00 1172.00 590.00" xmlns="http://www.w3.org/2000/svg" xmlns:xlink="http://www.w3.org/1999/xlink">
<g id="graph0" class="graph" transform="scale(1 1) rotate(0) translate(4 586)">
<title>CounterLIGO</title>
<polygon fill="white" stroke="transparent" points="-4,4 -4,-586 1168,-586 1168,4 -4,4"/>
<g id="clust1" class="cluster">
<title>cluster_CounterLIGO</title>
<polygon fill="#ffffc3" stroke="black" points="8.33,-8 8.33,-574 1155.67,-574 1155.67,-8 8.33,-8"/>
<text text-anchor="middle" x="63.83" y="-558.8" font-family="Times,serif" font-size="14.00">CounterLIGO</text>
</g>
<g id="clust2" class="cluster">
<title>cluster_CounterLIGO_Counter</title>
<polygon fill="#ffffa3" stroke="black" points="16.66,-16 16.66,-483 937.03,-483 937.03,-16 16.66,-16"/>
<text text-anchor="middle" x="53.66" y="-467.8" font-family="Times,serif" font-size="14.00">Counter</text>
</g>
<!-- CounterLIGO_Counter_LIGO_COUNTER_MODULE -->
<g id="node1" class="node">
<title>CounterLIGO_Counter_LIGO_COUNTER_MODULE</title>
<g id="a_node1"><a xlink:href="CounterLIGO.html#Counter.LIGO_COUNTER_MODULE" xlink:title="LIGO_COUNTER_MODULE">
<ellipse fill="#f070d1" stroke="black" cx="724.95" cy="-434" rx="137.28" ry="18"/>
<text text-anchor="middle" x="724.95" y="-430.3" font-family="Times,serif" font-size="14.00">LIGO_COUNTER_MODULE</text>
</a>
</g>
</g>
<!-- CounterLIGO_Counter_counter -->
<g id="node2" class="node">
<title>CounterLIGO_Counter_counter</title>
<g id="a_node2"><a xlink:href="CounterLIGO.html#Counter.counter" xlink:title="counter">
<ellipse fill="#f070d1" stroke="black" cx="663.95" cy="-354" rx="46.29" ry="18"/>
<text text-anchor="middle" x="663.95" y="-350.3" font-family="Times,serif" font-size="14.00">counter</text>
</a>
</g>
</g>
<!-- CounterLIGO_Counter_LIGO_COUNTER_MODULE&#45;&gt;CounterLIGO_Counter_counter -->
<g id="edge1" class="edge">
<title>CounterLIGO_Counter_LIGO_COUNTER_MODULE&#45;&gt;CounterLIGO_Counter_counter</title>
<path fill="none" stroke="black" d="M711.72,-416.08C703.37,-405.4 692.45,-391.44 683.16,-379.56"/>
<polygon fill="black" stroke="black" points="685.66,-377.08 676.75,-371.36 680.15,-381.39 685.66,-377.08"/>
</g>
<!-- CounterLIGO_Counter_init -->
<g id="node13" class="node">
<title>CounterLIGO_Counter_init</title>
<g id="a_node13"><a xlink:href="CounterLIGO.html#Counter.init" xlink:title="init">
<ellipse fill="#f070d1" stroke="black" cx="900.95" cy="-186" rx="27" ry="18"/>
<text text-anchor="middle" x="900.95" y="-182.3" font-family="Times,serif" font-size="14.00">init</text>
</a>
</g>
</g>
<!-- CounterLIGO_Counter_LIGO_COUNTER_MODULE&#45;&gt;CounterLIGO_Counter_init -->
<g id="edge2" class="edge">
<title>CounterLIGO_Counter_LIGO_COUNTER_MODULE&#45;&gt;CounterLIGO_Counter_init</title>
<path fill="none" stroke="black" d="M737.33,-415.7C768.18,-372.58 848.57,-260.22 883.89,-210.86"/>
<polygon fill="black" stroke="black" points="886.77,-212.84 889.74,-202.67 881.08,-208.77 886.77,-212.84"/>
</g>
<!-- CounterLIGO_Counter_counter_inner -->
<g id="node3" class="node">
<title>CounterLIGO_Counter_counter_inner</title>
<g id="a_node3"><a xlink:href="CounterLIGO.html#Counter.counter_inner" xlink:title="counter_inner">
<ellipse fill="#f070d1" stroke="black" cx="574.95" cy="-266" rx="75.29" ry="18"/>
<text text-anchor="middle" x="574.95" y="-262.3" font-family="Times,serif" font-size="14.00">counter_inner</text>
</a>
</g>
</g>
<!-- CounterLIGO_Counter_counter&#45;&gt;CounterLIGO_Counter_counter_inner -->
<g id="edge3" class="edge">
<title>CounterLIGO_Counter_counter&#45;&gt;CounterLIGO_Counter_counter_inner</title>
<path fill="none" stroke="black" d="M647.21,-336.82C633.83,-323.9 614.88,-305.58 599.74,-290.96"/>
<polygon fill="black" stroke="black" points="601.85,-288.12 592.23,-283.69 596.98,-293.16 601.85,-288.12"/>
</g>
<!-- CounterLIGO_Counter_dec_balance -->
<g id="node4" class="node">
<title>CounterLIGO_Counter_dec_balance</title>
<g id="a_node4"><a xlink:href="CounterLIGO.html#Counter.dec_balance" xlink:title="dec_balance">
<ellipse fill="#f070d1" stroke="black" cx="329.95" cy="-186" rx="66.89" ry="18"/>
<text text-anchor="middle" x="329.95" y="-182.3" font-family="Times,serif" font-size="14.00">dec_balance</text>
</a>
</g>
</g>
<!-- CounterLIGO_Counter_counter_inner&#45;&gt;CounterLIGO_Counter_dec_balance -->
<g id="edge4" class="edge">
<title>CounterLIGO_Counter_counter_inner&#45;&gt;CounterLIGO_Counter_dec_balance</title>
<path fill="none" stroke="black" d="M531.72,-251.23C489.7,-237.86 425.88,-217.54 381.3,-203.35"/>
<polygon fill="black" stroke="black" points="382.12,-199.94 371.53,-200.24 380,-206.61 382.12,-199.94"/>
</g>
<!-- CounterLIGO_Counter_inc_balance -->
<g id="node5" class="node">
<title>CounterLIGO_Counter_inc_balance</title>
<g id="a_node5"><a xlink:href="CounterLIGO.html#Counter.inc_balance" xlink:title="inc_balance">
<ellipse fill="#f070d1" stroke="black" cx="484.95" cy="-186" rx="64.19" ry="18"/>
<text text-anchor="middle" x="484.95" y="-182.3" font-family="Times,serif" font-size="14.00">inc_balance</text>
</a>
</g>
</g>
<!-- CounterLIGO_Counter_counter_inner&#45;&gt;CounterLIGO_Counter_inc_balance -->
<g id="edge5" class="edge">
<title>CounterLIGO_Counter_counter_inner&#45;&gt;CounterLIGO_Counter_inc_balance</title>
<path fill="none" stroke="black" d="M555.87,-248.46C542.89,-237.21 525.56,-222.19 511.28,-209.81"/>
<polygon fill="black" stroke="black" points="513.55,-207.15 503.7,-203.25 508.97,-212.44 513.55,-207.15"/>
</g>
<!-- CounterLIGO_Counter_msg -->
<g id="node12" class="node">
<title>CounterLIGO_Counter_msg</title>
<g id="a_node12"><a xlink:href="CounterLIGO.html#Counter.msg" xlink:title="msg">
<ellipse fill="#e2cdfa" stroke="black" cx="209.95" cy="-186" rx="30.59" ry="18"/>
<text text-anchor="middle" x="209.95" y="-182.3" font-family="Times,serif" font-size="14.00">msg</text>
</a>
</g>
</g>
<!-- CounterLIGO_Counter_counter_inner&#45;&gt;CounterLIGO_Counter_msg -->
<g id="edge6" class="edge">
<title>CounterLIGO_Counter_counter_inner&#45;&gt;CounterLIGO_Counter_msg</title>
<path fill="none" stroke="black" d="M515.24,-254.98C436.44,-241.54 302.09,-217.75 253.95,-204 250.62,-203.05 247.19,-201.95 243.79,-200.77"/>
<polygon fill="black" stroke="black" points="244.95,-197.47 234.35,-197.33 242.55,-204.05 244.95,-197.47"/>
</g>
<!-- CounterLIGO_Counter_default_error -->
<g id="node14" class="node">
<title>CounterLIGO_Counter_default_error</title>
<g id="a_node14"><a xlink:href="CounterLIGO.html#Counter.default_error" xlink:title="default_error">
<ellipse fill="#f070d1" stroke="black" cx="779.95" cy="-186" rx="71.49" ry="18"/>
<text text-anchor="middle" x="779.95" y="-182.3" font-family="Times,serif" font-size="14.00">default_error</text>
</a>
</g>
</g>
<!-- CounterLIGO_Counter_counter_inner&#45;&gt;CounterLIGO_Counter_default_error -->
<g id="edge7" class="edge">
<title>CounterLIGO_Counter_counter_inner&#45;&gt;CounterLIGO_Counter_default_error</title>
<path fill="none" stroke="black" d="M613.51,-250.33C647.37,-237.45 696.72,-218.67 732.9,-204.9"/>
<polygon fill="black" stroke="black" points="734.16,-208.17 742.26,-201.34 731.67,-201.63 734.16,-208.17"/>
</g>
<!-- CounterLIGO_Counter_operation -->
<g id="node17" class="node">
<title>CounterLIGO_Counter_operation</title>
<g id="a_node17"><a xlink:href="CounterLIGO.html#Counter.operation" xlink:title="operation">
<ellipse fill="#f070d1" stroke="black" cx="628.95" cy="-186" rx="55.49" ry="18"/>
<text text-anchor="middle" x="628.95" y="-182.3" font-family="Times,serif" font-size="14.00">operation</text>
</a>
</g>
</g>
<!-- CounterLIGO_Counter_counter_inner&#45;&gt;CounterLIGO_Counter_operation -->
<g id="edge8" class="edge">
<title>CounterLIGO_Counter_counter_inner&#45;&gt;CounterLIGO_Counter_operation</title>
<path fill="none" stroke="black" d="M586.67,-248.08C593.94,-237.58 603.41,-223.9 611.54,-212.15"/>
<polygon fill="black" stroke="black" points="614.63,-213.84 617.44,-203.62 608.87,-209.85 614.63,-213.84"/>
</g>
<!-- CounterLIGO_Counter_storage -->
<g id="node16" class="node">
<title>CounterLIGO_Counter_storage</title>
<g id="a_node16"><a xlink:href="CounterLIGO.html#Counter.storage" xlink:title="storage">
<ellipse fill="#f070d1" stroke="black" cx="484.95" cy="-114" rx="46.29" ry="18"/>
<text text-anchor="middle" x="484.95" y="-110.3" font-family="Times,serif" font-size="14.00">storage</text>
</a>
</g>
</g>
<!-- CounterLIGO_Counter_dec_balance&#45;&gt;CounterLIGO_Counter_storage -->
<g id="edge9" class="edge">
<title>CounterLIGO_Counter_dec_balance&#45;&gt;CounterLIGO_Counter_storage</title>
<path fill="none" stroke="black" d="M362.83,-170.15C387.33,-159.09 420.87,-143.94 446.6,-132.32"/>
<polygon fill="black" stroke="black" points="448.37,-135.36 456.04,-128.06 445.49,-128.98 448.37,-135.36"/>
</g>
<!-- CounterLIGO_Counter_inc_balance&#45;&gt;CounterLIGO_Counter_storage -->
<g id="edge10" class="edge">
<title>CounterLIGO_Counter_inc_balance&#45;&gt;CounterLIGO_Counter_storage</title>
<path fill="none" stroke="black" d="M484.95,-167.7C484.95,-159.98 484.95,-150.71 484.95,-142.11"/>
<polygon fill="black" stroke="black" points="488.45,-142.1 484.95,-132.1 481.45,-142.1 488.45,-142.1"/>
</g>
<!-- CounterLIGO_Counter_msg_sind -->
<g id="node6" class="node">
<title>CounterLIGO_Counter_msg_sind</title>
<g id="a_node6"><a xlink:href="CounterLIGO.html#Counter.msg_sind" xlink:title="msg_sind">
<ellipse fill="#f070d1" stroke="black" cx="89.95" cy="-266" rx="53.9" ry="18"/>
<ellipse fill="none" stroke="black" cx="89.95" cy="-266" rx="57.89" ry="22"/>
<ellipse fill="none" stroke="black" cx="89.95" cy="-266" rx="61.89" ry="26"/>
<text text-anchor="middle" x="89.95" y="-262.3" font-family="Times,serif" font-size="14.00">msg_sind</text>
</a>
</g>
</g>
<!-- CounterLIGO_Counter_Dec -->
<g id="node10" class="node">
<title>CounterLIGO_Counter_Dec</title>
<g id="a_node10"><a xlink:href="CounterLIGO.html#Counter.Dec" xlink:title="Dec">
<ellipse fill="#7faaff" stroke="black" cx="129.95" cy="-186" rx="28.7" ry="18"/>
<text text-anchor="middle" x="129.95" y="-182.3" font-family="Times,serif" font-size="14.00">Dec</text>
</a>
</g>
</g>
<!-- CounterLIGO_Counter_msg_sind&#45;&gt;CounterLIGO_Counter_Dec -->
<g id="edge11" class="edge">
<title>CounterLIGO_Counter_msg_sind&#45;&gt;CounterLIGO_Counter_Dec</title>
<path fill="none" stroke="black" d="M102.61,-240.32C107.11,-231.54 112.2,-221.63 116.75,-212.75"/>
<polygon fill="black" stroke="black" points="119.97,-214.13 121.42,-203.64 113.74,-210.94 119.97,-214.13"/>
</g>
<!-- CounterLIGO_Counter_Inc -->
<g id="node11" class="node">
<title>CounterLIGO_Counter_Inc</title>
<g id="a_node11"><a xlink:href="CounterLIGO.html#Counter.Inc" xlink:title="Inc">
<ellipse fill="#7faaff" stroke="black" cx="52.95" cy="-186" rx="27" ry="18"/>
<text text-anchor="middle" x="52.95" y="-182.3" font-family="Times,serif" font-size="14.00">Inc</text>
</a>
</g>
</g>
<!-- CounterLIGO_Counter_msg_sind&#45;&gt;CounterLIGO_Counter_Inc -->
<g id="edge12" class="edge">
<title>CounterLIGO_Counter_msg_sind&#45;&gt;CounterLIGO_Counter_Inc</title>
<path fill="none" stroke="black" d="M78.25,-240.32C74.08,-231.54 69.38,-221.63 65.17,-212.75"/>
<polygon fill="black" stroke="black" points="68.29,-211.17 60.85,-203.64 61.97,-214.17 68.29,-211.17"/>
</g>
<!-- CounterLIGO_Counter_msg_sind&#45;&gt;CounterLIGO_Counter_msg -->
<g id="edge13" class="edge">
<title>CounterLIGO_Counter_msg_sind&#45;&gt;CounterLIGO_Counter_msg</title>
<path fill="none" stroke="black" d="M122.74,-243.69C141.06,-231.78 163.68,-217.08 181.28,-205.64"/>
<polygon fill="black" stroke="black" points="183.51,-208.36 189.99,-199.98 179.69,-202.49 183.51,-208.36"/>
</g>
<!-- CounterLIGO_Counter_msg_rec -->
<g id="node7" class="node">
<title>CounterLIGO_Counter_msg_rec</title>
<g id="a_node7"><a xlink:href="CounterLIGO.html#Counter.msg_rec" xlink:title="msg_rec">
<ellipse fill="#f070d1" stroke="black" cx="366.95" cy="-354" rx="49.31" ry="18"/>
<ellipse fill="none" stroke="black" cx="366.95" cy="-354" rx="53.3" ry="22"/>
<ellipse fill="none" stroke="black" cx="366.95" cy="-354" rx="57.29" ry="26"/>
<text text-anchor="middle" x="366.95" y="-350.3" font-family="Times,serif" font-size="14.00">msg_rec</text>
</a>
</g>
</g>
<!-- CounterLIGO_Counter_msg_rect -->
<g id="node9" class="node">
<title>CounterLIGO_Counter_msg_rect</title>
<g id="a_node9"><a xlink:href="CounterLIGO.html#Counter.msg_rect" xlink:title="msg_rect">
<ellipse fill="#f070d1" stroke="black" cx="366.95" cy="-266" rx="53.09" ry="18"/>
<text text-anchor="middle" x="366.95" y="-262.3" font-family="Times,serif" font-size="14.00">msg_rect</text>
</a>
</g>
</g>
<!-- CounterLIGO_Counter_msg_rec&#45;&gt;CounterLIGO_Counter_msg_rect -->
<g id="edge14" class="edge">
<title>CounterLIGO_Counter_msg_rec&#45;&gt;CounterLIGO_Counter_msg_rect</title>
<path fill="none" stroke="black" d="M366.95,-327.66C366.95,-317.11 366.95,-304.84 366.95,-294.1"/>
<polygon fill="black" stroke="black" points="370.45,-294 366.95,-284 363.45,-294 370.45,-294"/>
</g>
<!-- CounterLIGO_Counter_msg_ind -->
<g id="node8" class="node">
<title>CounterLIGO_Counter_msg_ind</title>
<g id="a_node8"><a xlink:href="CounterLIGO.html#Counter.msg_ind" xlink:title="msg_ind">
<ellipse fill="#7fffd4" stroke="black" cx="231.95" cy="-266" rx="49.31" ry="18"/>
<ellipse fill="none" stroke="black" cx="231.95" cy="-266" rx="53.3" ry="22"/>
<ellipse fill="none" stroke="black" cx="231.95" cy="-266" rx="57.29" ry="26"/>
<text text-anchor="middle" x="231.95" y="-262.3" font-family="Times,serif" font-size="14.00">msg_ind</text>
</a>
</g>
</g>
<!-- CounterLIGO_Counter_msg_ind&#45;&gt;CounterLIGO_Counter_Dec -->
<g id="edge15" class="edge">
<title>CounterLIGO_Counter_msg_ind&#45;&gt;CounterLIGO_Counter_Dec</title>
<path fill="none" stroke="black" d="M203.54,-243.27C188.46,-231.74 170.08,-217.69 155.46,-206.51"/>
<polygon fill="black" stroke="black" points="157.41,-203.59 147.34,-200.3 153.16,-209.15 157.41,-203.59"/>
</g>
<!-- CounterLIGO_Counter_msg_ind&#45;&gt;CounterLIGO_Counter_Inc -->
<g id="edge16" class="edge">
<title>CounterLIGO_Counter_msg_ind&#45;&gt;CounterLIGO_Counter_Inc</title>
<path fill="none" stroke="black" d="M191.34,-247.3C158.9,-233.17 114.11,-213.65 84.37,-200.69"/>
<polygon fill="black" stroke="black" points="85.47,-197.35 74.91,-196.57 82.67,-203.77 85.47,-197.35"/>
</g>
<!-- CounterLIGO_Counter_msg_ind&#45;&gt;CounterLIGO_Counter_msg -->
<g id="edge17" class="edge">
<title>CounterLIGO_Counter_msg_ind&#45;&gt;CounterLIGO_Counter_msg</title>
<path fill="none" stroke="black" d="M224.87,-239.89C222.51,-231.53 219.88,-222.19 217.49,-213.72"/>
<polygon fill="black" stroke="black" points="220.81,-212.61 214.73,-203.93 214.07,-214.51 220.81,-212.61"/>
</g>
<!-- CounterLIGO_Counter_msg_rect&#45;&gt;CounterLIGO_Counter_Dec -->
<g id="edge18" class="edge">
<title>CounterLIGO_Counter_msg_rect&#45;&gt;CounterLIGO_Counter_Dec</title>
<path fill="none" stroke="black" d="M332.73,-252.04C321.69,-248.01 309.36,-243.66 297.95,-240 241.69,-221.92 225.71,-223.6 169.95,-204 167.37,-203.09 164.72,-202.1 162.07,-201.07"/>
<polygon fill="black" stroke="black" points="163.18,-197.74 152.6,-197.22 160.55,-204.23 163.18,-197.74"/>
</g>
<!-- CounterLIGO_Counter_msg_rect&#45;&gt;CounterLIGO_Counter_Inc -->
<g id="edge19" class="edge">
<title>CounterLIGO_Counter_msg_rect&#45;&gt;CounterLIGO_Counter_Inc</title>
<path fill="none" stroke="black" d="M333.99,-251.73C322.69,-247.54 309.9,-243.18 297.95,-240 208.14,-216.08 180.96,-230.76 91.95,-204 89.17,-203.16 86.32,-202.18 83.49,-201.12"/>
<polygon fill="black" stroke="black" points="84.65,-197.81 74.07,-197.29 82.01,-204.3 84.65,-197.81"/>
</g>
<!-- CounterLIGO_Counter_msg_rect&#45;&gt;CounterLIGO_Counter_msg -->
<g id="edge20" class="edge">
<title>CounterLIGO_Counter_msg_rect&#45;&gt;CounterLIGO_Counter_msg</title>
<path fill="none" stroke="black" d="M338.16,-250.69C310.8,-237.1 269.75,-216.71 241.52,-202.68"/>
<polygon fill="black" stroke="black" points="242.98,-199.5 232.47,-198.19 239.87,-205.77 242.98,-199.5"/>
</g>
<!-- CounterLIGO_Counter_Error -->
<g id="node15" class="node">
<title>CounterLIGO_Counter_Error</title>
<g id="a_node15"><a xlink:href="CounterLIGO.html#Counter.Error" xlink:title="Error">
<ellipse fill="#f070d1" stroke="black" cx="834.95" cy="-114" rx="36.29" ry="18"/>
<text text-anchor="middle" x="834.95" y="-110.3" font-family="Times,serif" font-size="14.00">Error</text>
</a>
</g>
</g>
<!-- CounterLIGO_Counter_init&#45;&gt;CounterLIGO_Counter_Error -->
<g id="edge21" class="edge">
<title>CounterLIGO_Counter_init&#45;&gt;CounterLIGO_Counter_Error</title>
<path fill="none" stroke="black" d="M886.96,-170.15C878.19,-160.85 866.7,-148.67 856.76,-138.12"/>
<polygon fill="black" stroke="black" points="859.25,-135.67 849.85,-130.8 854.16,-140.47 859.25,-135.67"/>
</g>
<!-- CounterLIGO_Counter_init&#45;&gt;CounterLIGO_Counter_storage -->
<g id="edge22" class="edge">
<title>CounterLIGO_Counter_init&#45;&gt;CounterLIGO_Counter_storage</title>
<path fill="none" stroke="black" d="M879.61,-174.95C873.38,-172.35 866.49,-169.79 859.95,-168 748.79,-137.63 614.08,-124 540.16,-118.43"/>
<polygon fill="black" stroke="black" points="540.37,-114.93 530.14,-117.69 539.86,-121.91 540.37,-114.93"/>
</g>
<!-- CounterLIGO_Counter_default_error&#45;&gt;CounterLIGO_Counter_Error -->
<g id="edge23" class="edge">
<title>CounterLIGO_Counter_default_error&#45;&gt;CounterLIGO_Counter_Error</title>
<path fill="none" stroke="black" d="M793.27,-168.05C800.05,-159.42 808.43,-148.76 815.89,-139.27"/>
<polygon fill="black" stroke="black" points="818.71,-141.33 822.14,-131.31 813.21,-137.01 818.71,-141.33"/>
</g>
<!-- CounterLIGO_Counter_address -->
<g id="node18" class="node">
<title>CounterLIGO_Counter_address</title>
<g id="a_node18"><a xlink:href="CounterLIGO.html#Counter.address" xlink:title="address">
<ellipse fill="#f070d1" stroke="black" cx="484.95" cy="-42" rx="47.39" ry="18"/>
<text text-anchor="middle" x="484.95" y="-38.3" font-family="Times,serif" font-size="14.00">address</text>
</a>
</g>
</g>
<!-- CounterLIGO_Counter_storage&#45;&gt;CounterLIGO_Counter_address -->
<g id="edge24" class="edge">
<title>CounterLIGO_Counter_storage&#45;&gt;CounterLIGO_Counter_address</title>
<path fill="none" stroke="black" d="M484.95,-95.7C484.95,-87.98 484.95,-78.71 484.95,-70.11"/>
<polygon fill="black" stroke="black" points="488.45,-70.1 484.95,-60.1 481.45,-70.1 488.45,-70.1"/>
</g>
<!-- CounterLIGO_cameLIGO_counter_1 -->
<g id="node19" class="node">
<title>CounterLIGO_cameLIGO_counter_1</title>
<g id="a_node19"><a xlink:href="CounterLIGO.html#cameLIGO_counter_1" xlink:title="cameLIGO_counter_1">
<ellipse fill="#f070d1" stroke="black" cx="1025.95" cy="-517" rx="109.37" ry="18"/>
<ellipse fill="none" stroke="black" cx="1025.95" cy="-517" rx="113.37" ry="22"/>
<ellipse fill="none" stroke="black" cx="1025.95" cy="-517" rx="117.38" ry="26"/>
<text text-anchor="middle" x="1025.95" y="-513.3" font-family="Times,serif" font-size="14.00">cameLIGO_counter_1</text>
</a>
</g>
</g>
<!-- CounterLIGO_cameLIGO_counter_prepared -->
<g id="node20" class="node">
<title>CounterLIGO_cameLIGO_counter_prepared</title>
<g id="a_node20"><a xlink:href="CounterLIGO.html#cameLIGO_counter_prepared" xlink:title="cameLIGO_counter_prepared">
<ellipse fill="#f070d1" stroke="black" cx="724.95" cy="-517" rx="145.67" ry="18"/>
<ellipse fill="none" stroke="black" cx="724.95" cy="-517" rx="149.67" ry="22"/>
<ellipse fill="none" stroke="black" cx="724.95" cy="-517" rx="153.67" ry="26"/>
<text text-anchor="middle" x="724.95" y="-513.3" font-family="Times,serif" font-size="14.00">cameLIGO_counter_prepared</text>
</a>
</g>
</g>
<!-- CounterLIGO_cameLIGO_counter_prepared&#45;&gt;CounterLIGO_Counter_LIGO_COUNTER_MODULE -->
<g id="edge25" class="edge">
<title>CounterLIGO_cameLIGO_counter_prepared&#45;&gt;CounterLIGO_Counter_LIGO_COUNTER_MODULE</title>
<path fill="none" stroke="black" d="M724.95,-490.82C724.95,-481.8 724.95,-471.6 724.95,-462.41"/>
<polygon fill="black" stroke="black" points="728.45,-462.22 724.95,-452.22 721.45,-462.22 728.45,-462.22"/>
</g>
<!-- CounterLIGO_TT_remap_counter -->
<g id="node21" class="node">
<title>CounterLIGO_TT_remap_counter</title>
<g id="a_node21"><a xlink:href="CounterLIGO.html#TT_remap_counter" xlink:title="TT_remap_counter">
<ellipse fill="#f070d1" stroke="black" cx="1045.95" cy="-434" rx="96.68" ry="18"/>
<text text-anchor="middle" x="1045.95" y="-430.3" font-family="Times,serif" font-size="14.00">TT_remap_counter</text>
</a>
</g>
</g>
<!-- CounterLIGO_cameLIGO_counter_prepared&#45;&gt;CounterLIGO_TT_remap_counter -->
<g id="edge26" class="edge">
<title>CounterLIGO_cameLIGO_counter_prepared&#45;&gt;CounterLIGO_TT_remap_counter</title>
<path fill="none" stroke="black" d="M840.14,-499.79C886.05,-493.07 930.53,-486.11 940.95,-483 963.73,-476.2 987.94,-465.4 1007.36,-455.76"/>
<polygon fill="black" stroke="black" points="1009.14,-458.78 1016.49,-451.15 1005.98,-452.54 1009.14,-458.78"/>
</g>
</g>
</svg>
