<?xml version="1.0" encoding="UTF-8" standalone="no"?>
<!DOCTYPE svg PUBLIC "-//W3C//DTD SVG 1.1//EN"
 "http://www.w3.org/Graphics/SVG/1.1/DTD/svg11.dtd">
<!-- Generated by graphviz version 2.43.0 (0)
 -->
<!-- Title: ExchangeBuggyTests Pages: 1 -->
<svg width="2787pt" height="1398pt"
 viewBox="0.00 0.00 2787.00 1397.50" xmlns="http://www.w3.org/2000/svg" xmlns:xlink="http://www.w3.org/1999/xlink">
<g id="graph0" class="graph" transform="scale(1 1) rotate(0) translate(4 1393.5)">
<title>ExchangeBuggyTests</title>
<polygon fill="white" stroke="transparent" points="-4,4 -4,-1393.5 2783,-1393.5 2783,4 -4,4"/>
<g id="clust1" class="cluster">
<title>cluster_ExchangeBuggyTests</title>
<polygon fill="#ffffc3" stroke="black" points="8,-18.87 8,-1370.63 2771,-1370.63 2771,-18.87 8,-18.87"/>
<text text-anchor="middle" x="93" y="-1355.43" font-family="Times,serif" font-size="14.00">ExchangeBuggyTests</text>
</g>
<g id="clust2" class="cluster">
<title>cluster_ExchangeBuggyTests_MG</title>
<polygon fill="#ffffa3" stroke="black" points="2077,-358.58 2077,-1297.5 2763,-1297.5 2763,-358.58 2077,-358.58"/>
<text text-anchor="middle" x="2098" y="-1282.3" font-family="Times,serif" font-size="14.00">MG</text>
</g>
<g id="clust3" class="cluster">
<title>cluster_ExchangeBuggyTests_TestInfo</title>
<polygon fill="#ffffa3" stroke="black" points="1238,-358.58 1238,-535.51 2069,-535.51 2069,-358.58 1238,-358.58"/>
<text text-anchor="middle" x="1275" y="-520.31" font-family="Times,serif" font-size="14.00">TestInfo</text>
</g>
<!-- ExchangeBuggyTests_TestInfo_accounts -->
<g id="node1" class="node">
<title>ExchangeBuggyTests_TestInfo_accounts</title>
<g id="a_node1"><a xlink:href="ExchangeBuggyTests.html#TestInfo.accounts" xlink:title="accounts">
<ellipse fill="#f070d1" stroke="black" cx="1769" cy="-419.87" rx="51.99" ry="18"/>
<text text-anchor="middle" x="1769" y="-416.17" font-family="Times,serif" font-size="14.00">accounts</text>
</a>
</g>
</g>
<!-- ExchangeBuggyTests_TestInfo_exploit_contract_addr -->
<g id="node2" class="node">
<title>ExchangeBuggyTests_TestInfo_exploit_contract_addr</title>
<g id="a_node2"><a xlink:href="ExchangeBuggyTests.html#TestInfo.exploit_contract_addr" xlink:title="exploit_contract_addr">
<ellipse fill="#f070d1" stroke="black" cx="1950" cy="-419.87" rx="111.28" ry="18"/>
<text text-anchor="middle" x="1950" y="-416.17" font-family="Times,serif" font-size="14.00">exploit_contract_addr</text>
</a>
</g>
</g>
<!-- ExchangeBuggyTests_exploit_caddr -->
<g id="node37" class="node">
<title>ExchangeBuggyTests_exploit_caddr</title>
<g id="a_node37"><a xlink:href="ExchangeBuggyTests.html#exploit_caddr" xlink:title="exploit_caddr">
<ellipse fill="#f070d1" stroke="black" cx="1609" cy="-249.87" rx="73.39" ry="18"/>
<text text-anchor="middle" x="1609" y="-246.17" font-family="Times,serif" font-size="14.00">exploit_caddr</text>
</a>
</g>
</g>
<!-- ExchangeBuggyTests_TestInfo_exploit_contract_addr&#45;&gt;ExchangeBuggyTests_exploit_caddr -->
<g id="edge1" class="edge">
<title>ExchangeBuggyTests_TestInfo_exploit_contract_addr&#45;&gt;ExchangeBuggyTests_exploit_caddr</title>
<path fill="none" stroke="black" d="M1916.99,-402.61C1854.26,-371.7 1717.98,-304.56 1649.7,-270.93"/>
<polygon fill="black" stroke="black" points="1651.05,-267.69 1640.53,-266.41 1647.96,-273.97 1651.05,-267.69"/>
</g>
<!-- ExchangeBuggyTests_TestInfo_exchange_contract_addr -->
<g id="node3" class="node">
<title>ExchangeBuggyTests_TestInfo_exchange_contract_addr</title>
<g id="a_node3"><a xlink:href="ExchangeBuggyTests.html#TestInfo.exchange_contract_addr" xlink:title="exchange_contract_addr">
<ellipse fill="#f070d1" stroke="black" cx="1369" cy="-419.87" rx="123.48" ry="18"/>
<text text-anchor="middle" x="1369" y="-416.17" font-family="Times,serif" font-size="14.00">exchange_contract_addr</text>
</a>
</g>
</g>
<!-- ExchangeBuggyTests_exchange_caddr -->
<g id="node38" class="node">
<title>ExchangeBuggyTests_exchange_caddr</title>
<g id="a_node38"><a xlink:href="ExchangeBuggyTests.html#exchange_caddr" xlink:title="exchange_caddr">
<ellipse fill="#f070d1" stroke="black" cx="1432" cy="-249.87" rx="85.29" ry="18"/>
<text text-anchor="middle" x="1432" y="-246.17" font-family="Times,serif" font-size="14.00">exchange_caddr</text>
</a>
</g>
</g>
<!-- ExchangeBuggyTests_TestInfo_exchange_contract_addr&#45;&gt;ExchangeBuggyTests_exchange_caddr -->
<g id="edge2" class="edge">
<title>ExchangeBuggyTests_TestInfo_exchange_contract_addr&#45;&gt;ExchangeBuggyTests_exchange_caddr</title>
<path fill="none" stroke="black" d="M1375.39,-401.84C1386.38,-372.53 1408.94,-312.36 1422.02,-277.49"/>
<polygon fill="black" stroke="black" points="1425.36,-278.54 1425.6,-267.95 1418.81,-276.09 1425.36,-278.54"/>
</g>
<!-- ExchangeBuggyTests_TestInfo_fa2_contract_addr -->
<g id="node4" class="node">
<title>ExchangeBuggyTests_TestInfo_fa2_contract_addr</title>
<g id="a_node4"><a xlink:href="ExchangeBuggyTests.html#TestInfo.fa2_contract_addr" xlink:title="fa2_contract_addr">
<ellipse fill="#f070d1" stroke="black" cx="1605" cy="-419.87" rx="94.48" ry="18"/>
<text text-anchor="middle" x="1605" y="-416.17" font-family="Times,serif" font-size="14.00">fa2_contract_addr</text>
</a>
</g>
</g>
<!-- ExchangeBuggyTests_fa2_caddr -->
<g id="node39" class="node">
<title>ExchangeBuggyTests_fa2_caddr</title>
<g id="a_node39"><a xlink:href="ExchangeBuggyTests.html#fa2_caddr" xlink:title="fa2_caddr">
<ellipse fill="#f070d1" stroke="black" cx="1286" cy="-79.87" rx="55.79" ry="18"/>
<text text-anchor="middle" x="1286" y="-76.17" font-family="Times,serif" font-size="14.00">fa2_caddr</text>
</a>
</g>
</g>
<!-- ExchangeBuggyTests_TestInfo_fa2_contract_addr&#45;&gt;ExchangeBuggyTests_fa2_caddr -->
<g id="edge3" class="edge">
<title>ExchangeBuggyTests_TestInfo_fa2_contract_addr&#45;&gt;ExchangeBuggyTests_fa2_caddr</title>
<path fill="none" stroke="black" d="M1623.82,-402.09C1659.68,-368.05 1730.85,-289.25 1691,-231.87 1613.96,-120.92 1445.03,-91.35 1351.52,-83.56"/>
<polygon fill="black" stroke="black" points="1351.57,-80.05 1341.33,-82.77 1351.03,-87.03 1351.57,-80.05"/>
</g>
<!-- ExchangeBuggyTests_MG_token_reachableFrom_implies_reachable -->
<g id="node5" class="node">
<title>ExchangeBuggyTests_MG_token_reachableFrom_implies_reachable</title>
<g id="a_node5"><a xlink:href="ExchangeBuggyTests.html#MG.token_reachableFrom_implies_reachable" xlink:title="token_reachableFrom_implies_reachable">
<ellipse fill="#f070d1" stroke="black" cx="2548" cy="-1162.87" rx="198.77" ry="18"/>
<ellipse fill="none" stroke="black" cx="2548" cy="-1162.87" rx="202.77" ry="22"/>
<ellipse fill="none" stroke="black" cx="2548" cy="-1162.87" rx="206.76" ry="26"/>
<text text-anchor="middle" x="2548" y="-1159.17" font-family="Times,serif" font-size="14.00">token_reachableFrom_implies_reachable</text>
</a>
</g>
</g>
<!-- ExchangeBuggyTests_MG_gExchangeChain -->
<g id="node7" class="node">
<title>ExchangeBuggyTests_MG_gExchangeChain</title>
<g id="a_node7"><a xlink:href="ExchangeBuggyTests.html#MG.gExchangeChain" xlink:title="gExchangeChain">
<ellipse fill="#f070d1" stroke="black" cx="2204" cy="-955.87" rx="89.08" ry="18"/>
<text text-anchor="middle" x="2204" y="-952.17" font-family="Times,serif" font-size="14.00">gExchangeChain</text>
</a>
</g>
</g>
<!-- ExchangeBuggyTests_MG_token_reachableFrom_implies_reachable&#45;&gt;ExchangeBuggyTests_MG_gExchangeChain -->
<g id="edge4" class="edge">
<title>ExchangeBuggyTests_MG_token_reachableFrom_implies_reachable&#45;&gt;ExchangeBuggyTests_MG_gExchangeChain</title>
<path fill="none" stroke="black" d="M2506.85,-1137.35C2438.89,-1096.85 2304.32,-1016.66 2239.95,-978.3"/>
<polygon fill="black" stroke="black" points="2241.73,-975.28 2231.35,-973.17 2238.14,-981.29 2241.73,-975.28"/>
</g>
<!-- ExchangeBuggyTests_MG_token_reachableFrom -->
<g id="node6" class="node">
<title>ExchangeBuggyTests_MG_token_reachableFrom</title>
<g id="a_node6"><a xlink:href="ExchangeBuggyTests.html#MG.token_reachableFrom" xlink:title="token_reachableFrom">
<ellipse fill="#f070d1" stroke="black" cx="2204" cy="-1162.87" rx="111.27" ry="18"/>
<ellipse fill="none" stroke="black" cx="2204" cy="-1162.87" rx="115.28" ry="22"/>
<ellipse fill="none" stroke="black" cx="2204" cy="-1162.87" rx="119.28" ry="26"/>
<text text-anchor="middle" x="2204" y="-1159.17" font-family="Times,serif" font-size="14.00">token_reachableFrom</text>
</a>
</g>
</g>
<!-- ExchangeBuggyTests_MG_token_reachableFrom&#45;&gt;ExchangeBuggyTests_MG_gExchangeChain -->
<g id="edge5" class="edge">
<title>ExchangeBuggyTests_MG_token_reachableFrom&#45;&gt;ExchangeBuggyTests_MG_gExchangeChain</title>
<path fill="none" stroke="black" d="M2204,-1136.74C2204,-1098.05 2204,-1024.22 2204,-984.23"/>
<polygon fill="black" stroke="black" points="2207.5,-984.14 2204,-974.14 2200.5,-984.14 2207.5,-984.14"/>
</g>
<!-- ExchangeBuggyTests_MG_gExchangeAction -->
<g id="node8" class="node">
<title>ExchangeBuggyTests_MG_gExchangeAction</title>
<g id="a_node8"><a xlink:href="ExchangeBuggyTests.html#MG.gExchangeAction" xlink:title="gExchangeAction">
<ellipse fill="#f070d1" stroke="black" cx="2200" cy="-766.87" rx="90.98" ry="18"/>
<text text-anchor="middle" x="2200" y="-763.17" font-family="Times,serif" font-size="14.00">gExchangeAction</text>
</a>
</g>
</g>
<!-- ExchangeBuggyTests_MG_gExchangeChain&#45;&gt;ExchangeBuggyTests_MG_gExchangeAction -->
<g id="edge6" class="edge">
<title>ExchangeBuggyTests_MG_gExchangeChain&#45;&gt;ExchangeBuggyTests_MG_gExchangeAction</title>
<path fill="none" stroke="black" d="M2203.63,-937.62C2202.93,-905.05 2201.42,-834.32 2200.58,-795.22"/>
<polygon fill="black" stroke="black" points="2204.08,-795.01 2200.37,-785.09 2197.08,-795.16 2204.08,-795.01"/>
</g>
<!-- ExchangeBuggyTests_MG_gExchangeAction&#45;&gt;ExchangeBuggyTests_TestInfo_exchange_contract_addr -->
<g id="edge7" class="edge">
<title>ExchangeBuggyTests_MG_gExchangeAction&#45;&gt;ExchangeBuggyTests_TestInfo_exchange_contract_addr</title>
<path fill="none" stroke="black" d="M2161.97,-750.47C2100.91,-725.19 1977.92,-671.95 1880,-614.87 1856.03,-600.9 1853.74,-591.43 1829,-578.87 1692.26,-509.49 1646.79,-519.35 1502,-468.87 1475.5,-459.63 1446.14,-449.07 1421.77,-440.22"/>
<polygon fill="black" stroke="black" points="1422.94,-436.92 1412.34,-436.79 1420.54,-443.49 1422.94,-436.92"/>
</g>
<!-- ExchangeBuggyTests_MG_gExchangeAction&#45;&gt;ExchangeBuggyTests_TestInfo_fa2_contract_addr -->
<g id="edge8" class="edge">
<title>ExchangeBuggyTests_MG_gExchangeAction&#45;&gt;ExchangeBuggyTests_TestInfo_fa2_contract_addr</title>
<path fill="none" stroke="black" d="M2172.1,-749.7C2075,-693.39 1751.82,-506 1641.94,-442.29"/>
<polygon fill="black" stroke="black" points="1643.59,-439.2 1633.18,-437.22 1640.08,-445.26 1643.59,-439.2"/>
</g>
<!-- ExchangeBuggyTests_MG_gAddTokensToReserve -->
<g id="node9" class="node">
<title>ExchangeBuggyTests_MG_gAddTokensToReserve</title>
<g id="a_node9"><a xlink:href="ExchangeBuggyTests.html#MG.gAddTokensToReserve" xlink:title="gAddTokensToReserve">
<ellipse fill="#f070d1" stroke="black" cx="2200" cy="-596.87" rx="115.08" ry="18"/>
<text text-anchor="middle" x="2200" y="-593.17" font-family="Times,serif" font-size="14.00">gAddTokensToReserve</text>
</a>
</g>
</g>
<!-- ExchangeBuggyTests_MG_gExchangeAction&#45;&gt;ExchangeBuggyTests_MG_gAddTokensToReserve -->
<g id="edge9" class="edge">
<title>ExchangeBuggyTests_MG_gExchangeAction&#45;&gt;ExchangeBuggyTests_MG_gAddTokensToReserve</title>
<path fill="none" stroke="black" d="M2200,-748.84C2200,-719.78 2200,-660.4 2200,-625.39"/>
<polygon fill="black" stroke="black" points="2203.5,-624.95 2200,-614.95 2196.5,-624.95 2203.5,-624.95"/>
</g>
<!-- ExchangeBuggyTests_MG_gTokenExchange -->
<g id="node10" class="node">
<title>ExchangeBuggyTests_MG_gTokenExchange</title>
<g id="a_node10"><a xlink:href="ExchangeBuggyTests.html#MG.gTokenExchange" xlink:title="gTokenExchange">
<ellipse fill="#f070d1" stroke="black" cx="2422" cy="-596.87" rx="89.08" ry="18"/>
<text text-anchor="middle" x="2422" y="-593.17" font-family="Times,serif" font-size="14.00">gTokenExchange</text>
</a>
</g>
</g>
<!-- ExchangeBuggyTests_MG_gExchangeAction&#45;&gt;ExchangeBuggyTests_MG_gTokenExchange -->
<g id="edge10" class="edge">
<title>ExchangeBuggyTests_MG_gExchangeAction&#45;&gt;ExchangeBuggyTests_MG_gTokenExchange</title>
<path fill="none" stroke="black" d="M2222.1,-749.15C2262.07,-718.9 2346.45,-655.05 2391.74,-620.77"/>
<polygon fill="black" stroke="black" points="2394.13,-623.35 2399.99,-614.53 2389.91,-617.77 2394.13,-623.35"/>
</g>
<!-- ExchangeBuggyTests_MG_gAddTokensToReserve&#45;&gt;ExchangeBuggyTests_TestInfo_accounts -->
<g id="edge11" class="edge">
<title>ExchangeBuggyTests_MG_gAddTokensToReserve&#45;&gt;ExchangeBuggyTests_TestInfo_accounts</title>
<path fill="none" stroke="black" d="M2138.78,-581.62C2063.2,-562.53 1932.14,-524.5 1830,-468.87 1817.27,-461.94 1804.47,-452.36 1793.9,-443.58"/>
<polygon fill="black" stroke="black" points="1796.17,-440.91 1786.29,-437.07 1791.62,-446.23 1796.17,-440.91"/>
</g>
<!-- ExchangeBuggyTests_MG_gTokenExchange&#45;&gt;ExchangeBuggyTests_TestInfo_exploit_contract_addr -->
<g id="edge12" class="edge">
<title>ExchangeBuggyTests_MG_gTokenExchange&#45;&gt;ExchangeBuggyTests_TestInfo_exploit_contract_addr</title>
<path fill="none" stroke="black" d="M2379.98,-580.94C2314.31,-557.51 2183.41,-510.5 2073,-468.87 2048.7,-459.71 2021.81,-449.25 1999.39,-440.45"/>
<polygon fill="black" stroke="black" points="2000.66,-437.18 1990.07,-436.78 1998.1,-443.7 2000.66,-437.18"/>
</g>
<!-- ExchangeBuggyTests_MG_gTokensToExchange -->
<g id="node11" class="node">
<title>ExchangeBuggyTests_MG_gTokensToExchange</title>
<g id="a_node11"><a xlink:href="ExchangeBuggyTests.html#MG.gTokensToExchange" xlink:title="gTokensToExchange">
<ellipse fill="#f070d1" stroke="black" cx="2422" cy="-419.87" rx="104.78" ry="18"/>
<text text-anchor="middle" x="2422" y="-416.17" font-family="Times,serif" font-size="14.00">gTokensToExchange</text>
</a>
</g>
</g>
<!-- ExchangeBuggyTests_MG_gTokenExchange&#45;&gt;ExchangeBuggyTests_MG_gTokensToExchange -->
<g id="edge13" class="edge">
<title>ExchangeBuggyTests_MG_gTokenExchange&#45;&gt;ExchangeBuggyTests_MG_gTokensToExchange</title>
<path fill="none" stroke="black" d="M2422,-578.77C2422,-548.45 2422,-485.03 2422,-448.46"/>
<polygon fill="black" stroke="black" points="2425.5,-448.04 2422,-438.04 2418.5,-448.04 2425.5,-448.04"/>
</g>
<!-- ExchangeBuggyTests_tokens_to_asset_correct -->
<g id="node12" class="node">
<title>ExchangeBuggyTests_tokens_to_asset_correct</title>
<g id="a_node12"><a xlink:href="ExchangeBuggyTests.html#tokens_to_asset_correct" xlink:title="tokens_to_asset_correct">
<ellipse fill="#f070d1" stroke="black" cx="1177" cy="-955.87" rx="121.58" ry="18"/>
<ellipse fill="none" stroke="black" cx="1177" cy="-955.87" rx="125.58" ry="22"/>
<ellipse fill="none" stroke="black" cx="1177" cy="-955.87" rx="129.58" ry="26"/>
<text text-anchor="middle" x="1177" y="-952.17" font-family="Times,serif" font-size="14.00">tokens_to_asset_correct</text>
</a>
</g>
</g>
<!-- ExchangeBuggyTests_tokens_to_asset_correct_P -->
<g id="node13" class="node">
<title>ExchangeBuggyTests_tokens_to_asset_correct_P</title>
<g id="a_node13"><a xlink:href="ExchangeBuggyTests.html#tokens_to_asset_correct_P" xlink:title="tokens_to_asset_correct_P">
<ellipse fill="#f070d1" stroke="black" cx="1447" cy="-766.87" rx="131.88" ry="18"/>
<text text-anchor="middle" x="1447" y="-763.17" font-family="Times,serif" font-size="14.00">tokens_to_asset_correct_P</text>
</a>
</g>
</g>
<!-- ExchangeBuggyTests_tokens_to_asset_correct&#45;&gt;ExchangeBuggyTests_tokens_to_asset_correct_P -->
<g id="edge14" class="edge">
<title>ExchangeBuggyTests_tokens_to_asset_correct&#45;&gt;ExchangeBuggyTests_tokens_to_asset_correct_P</title>
<path fill="none" stroke="black" d="M1211.75,-930.81C1264.25,-894.44 1363.12,-825.97 1414.36,-790.48"/>
<polygon fill="black" stroke="black" points="1416.53,-793.24 1422.76,-784.66 1412.54,-787.48 1416.53,-793.24"/>
</g>
<!-- ExchangeBuggyTests_gExploitChainTraceList -->
<g id="node18" class="node">
<title>ExchangeBuggyTests_gExploitChainTraceList</title>
<g id="a_node18"><a xlink:href="ExchangeBuggyTests.html#gExploitChainTraceList" xlink:title="gExploitChainTraceList">
<ellipse fill="#f070d1" stroke="black" cx="1177" cy="-766.87" rx="120.48" ry="18"/>
<text text-anchor="middle" x="1177" y="-763.17" font-family="Times,serif" font-size="14.00">gExploitChainTraceList</text>
</a>
</g>
</g>
<!-- ExchangeBuggyTests_tokens_to_asset_correct&#45;&gt;ExchangeBuggyTests_gExploitChainTraceList -->
<g id="edge15" class="edge">
<title>ExchangeBuggyTests_tokens_to_asset_correct&#45;&gt;ExchangeBuggyTests_gExploitChainTraceList</title>
<path fill="none" stroke="black" d="M1177,-929.65C1177,-894.6 1177,-831.39 1177,-795.23"/>
<polygon fill="black" stroke="black" points="1180.5,-794.94 1177,-784.94 1173.5,-794.94 1180.5,-794.94"/>
</g>
<!-- ExchangeBuggyTests_chain -->
<g id="node23" class="node">
<title>ExchangeBuggyTests_chain</title>
<g id="a_node23"><a xlink:href="ExchangeBuggyTests.html#chain" xlink:title="chain">
<ellipse fill="#f070d1" stroke="black" cx="591" cy="-766.87" rx="36" ry="18"/>
<text text-anchor="middle" x="591" y="-763.17" font-family="Times,serif" font-size="14.00">chain</text>
</a>
</g>
</g>
<!-- ExchangeBuggyTests_tokens_to_asset_correct&#45;&gt;ExchangeBuggyTests_chain -->
<g id="edge16" class="edge">
<title>ExchangeBuggyTests_tokens_to_asset_correct&#45;&gt;ExchangeBuggyTests_chain</title>
<path fill="none" stroke="black" d="M1110.06,-933.51C986.96,-894.23 728.25,-811.67 629.99,-780.31"/>
<polygon fill="black" stroke="black" points="631.04,-776.97 620.45,-777.27 628.91,-783.64 631.04,-776.97"/>
</g>
<!-- ExchangeBuggyTests_tokens_to_asset_correct_P_opt -->
<g id="node14" class="node">
<title>ExchangeBuggyTests_tokens_to_asset_correct_P_opt</title>
<g id="a_node14"><a xlink:href="ExchangeBuggyTests.html#tokens_to_asset_correct_P_opt" xlink:title="tokens_to_asset_correct_P_opt">
<ellipse fill="#f070d1" stroke="black" cx="1447" cy="-596.87" rx="151.37" ry="18"/>
<text text-anchor="middle" x="1447" y="-593.17" font-family="Times,serif" font-size="14.00">tokens_to_asset_correct_P_opt</text>
</a>
</g>
</g>
<!-- ExchangeBuggyTests_tokens_to_asset_correct_P&#45;&gt;ExchangeBuggyTests_tokens_to_asset_correct_P_opt -->
<g id="edge17" class="edge">
<title>ExchangeBuggyTests_tokens_to_asset_correct_P&#45;&gt;ExchangeBuggyTests_tokens_to_asset_correct_P_opt</title>
<path fill="none" stroke="black" d="M1447,-748.84C1447,-719.78 1447,-660.4 1447,-625.39"/>
<polygon fill="black" stroke="black" points="1450.5,-624.95 1447,-614.95 1443.5,-624.95 1450.5,-624.95"/>
</g>
<!-- ExchangeBuggyTests_account_tokens -->
<g id="node15" class="node">
<title>ExchangeBuggyTests_account_tokens</title>
<g id="a_node15"><a xlink:href="ExchangeBuggyTests.html#account_tokens" xlink:title="account_tokens">
<ellipse fill="#f070d1" stroke="black" cx="794" cy="-419.87" rx="81.79" ry="18"/>
<text text-anchor="middle" x="794" y="-416.17" font-family="Times,serif" font-size="14.00">account_tokens</text>
</a>
</g>
</g>
<!-- ExchangeBuggyTests_tokens_to_asset_correct_P_opt&#45;&gt;ExchangeBuggyTests_account_tokens -->
<g id="edge18" class="edge">
<title>ExchangeBuggyTests_tokens_to_asset_correct_P_opt&#45;&gt;ExchangeBuggyTests_account_tokens</title>
<path fill="none" stroke="black" d="M1354.35,-582.61C1241.16,-564.68 1044.99,-527.96 885,-468.87 865.77,-461.77 845.5,-451.39 828.98,-442.1"/>
<polygon fill="black" stroke="black" points="830.64,-439.01 820.22,-437.08 827.15,-445.09 830.64,-439.01"/>
</g>
<!-- ExchangeBuggyTests_exchange_state -->
<g id="node22" class="node">
<title>ExchangeBuggyTests_exchange_state</title>
<g id="a_node22"><a xlink:href="ExchangeBuggyTests.html#exchange_state" xlink:title="exchange_state">
<ellipse fill="#f070d1" stroke="black" cx="1145" cy="-419.87" rx="82.59" ry="18"/>
<text text-anchor="middle" x="1145" y="-416.17" font-family="Times,serif" font-size="14.00">exchange_state</text>
</a>
</g>
</g>
<!-- ExchangeBuggyTests_tokens_to_asset_correct_P_opt&#45;&gt;ExchangeBuggyTests_exchange_state -->
<g id="edge19" class="edge">
<title>ExchangeBuggyTests_tokens_to_asset_correct_P_opt&#45;&gt;ExchangeBuggyTests_exchange_state</title>
<path fill="none" stroke="black" d="M1418.04,-579.09C1362.86,-547.11 1242.71,-477.49 1181.87,-442.24"/>
<polygon fill="black" stroke="black" points="1183.4,-439.08 1172.99,-437.09 1179.89,-445.13 1183.4,-439.08"/>
</g>
<!-- ExchangeBuggyTests_token_state -->
<g id="node21" class="node">
<title>ExchangeBuggyTests_token_state</title>
<g id="a_node21"><a xlink:href="ExchangeBuggyTests.html#token_state" xlink:title="token_state">
<ellipse fill="#f070d1" stroke="black" cx="1245" cy="-249.87" rx="64.19" ry="18"/>
<text text-anchor="middle" x="1245" y="-246.17" font-family="Times,serif" font-size="14.00">token_state</text>
</a>
</g>
</g>
<!-- ExchangeBuggyTests_account_tokens&#45;&gt;ExchangeBuggyTests_token_state -->
<g id="edge20" class="edge">
<title>ExchangeBuggyTests_account_tokens&#45;&gt;ExchangeBuggyTests_token_state</title>
<path fill="none" stroke="black" d="M833.63,-404.11C916.81,-373.13 1109.26,-301.43 1198.28,-268.28"/>
<polygon fill="black" stroke="black" points="1199.7,-271.48 1207.85,-264.71 1197.25,-264.92 1199.7,-271.48"/>
</g>
<!-- ExchangeBuggyTests_exchange_token_id -->
<g id="node40" class="node">
<title>ExchangeBuggyTests_exchange_token_id</title>
<g id="a_node40"><a xlink:href="ExchangeBuggyTests.html#exchange_token_id" xlink:title="exchange_token_id">
<ellipse fill="#f070d1" stroke="black" cx="1045" cy="-249.87" rx="98.28" ry="18"/>
<text text-anchor="middle" x="1045" y="-246.17" font-family="Times,serif" font-size="14.00">exchange_token_id</text>
</a>
</g>
</g>
<!-- ExchangeBuggyTests_account_tokens&#45;&gt;ExchangeBuggyTests_exchange_token_id -->
<g id="edge21" class="edge">
<title>ExchangeBuggyTests_account_tokens&#45;&gt;ExchangeBuggyTests_exchange_token_id</title>
<path fill="none" stroke="black" d="M818.52,-402.46C863.89,-372.1 960.91,-307.15 1011.99,-272.97"/>
<polygon fill="black" stroke="black" points="1014.01,-275.82 1020.38,-267.35 1010.12,-270.01 1014.01,-275.82"/>
</g>
<!-- ExchangeBuggyTests_exchange_liquidity -->
<g id="node16" class="node">
<title>ExchangeBuggyTests_exchange_liquidity</title>
<g id="a_node16"><a xlink:href="ExchangeBuggyTests.html#exchange_liquidity" xlink:title="exchange_liquidity">
<ellipse fill="#f070d1" stroke="black" cx="719" cy="-955.87" rx="97.48" ry="18"/>
<ellipse fill="none" stroke="black" cx="719" cy="-955.87" rx="101.48" ry="22"/>
<ellipse fill="none" stroke="black" cx="719" cy="-955.87" rx="105.48" ry="26"/>
<text text-anchor="middle" x="719" y="-952.17" font-family="Times,serif" font-size="14.00">exchange_liquidity</text>
</a>
</g>
</g>
<!-- ExchangeBuggyTests_exchange_liquidity&#45;&gt;ExchangeBuggyTests_chain -->
<g id="edge22" class="edge">
<title>ExchangeBuggyTests_exchange_liquidity&#45;&gt;ExchangeBuggyTests_chain</title>
<path fill="none" stroke="black" d="M702,-930.04C677.43,-894.14 632.25,-828.13 607.79,-792.4"/>
<polygon fill="black" stroke="black" points="610.58,-790.28 602.04,-784 604.8,-794.23 610.58,-790.28"/>
</g>
<!-- ExchangeBuggyTests_person_1_initial_balance -->
<g id="node17" class="node">
<title>ExchangeBuggyTests_person_1_initial_balance</title>
<g id="a_node17"><a xlink:href="ExchangeBuggyTests.html#person_1_initial_balance" xlink:title="person_1_initial_balance">
<ellipse fill="#f070d1" stroke="black" cx="463" cy="-955.87" rx="124.27" ry="18"/>
<ellipse fill="none" stroke="black" cx="463" cy="-955.87" rx="128.27" ry="22"/>
<ellipse fill="none" stroke="black" cx="463" cy="-955.87" rx="132.28" ry="26"/>
<text text-anchor="middle" x="463" y="-952.17" font-family="Times,serif" font-size="14.00">person_1_initial_balance</text>
</a>
</g>
</g>
<!-- ExchangeBuggyTests_person_1_initial_balance&#45;&gt;ExchangeBuggyTests_chain -->
<g id="edge23" class="edge">
<title>ExchangeBuggyTests_person_1_initial_balance&#45;&gt;ExchangeBuggyTests_chain</title>
<path fill="none" stroke="black" d="M480,-930.04C504.57,-894.14 549.75,-828.13 574.21,-792.4"/>
<polygon fill="black" stroke="black" points="577.2,-794.23 579.96,-784 571.42,-790.28 577.2,-794.23"/>
</g>
<!-- ExchangeBuggyTests_gExploitAction -->
<g id="node19" class="node">
<title>ExchangeBuggyTests_gExploitAction</title>
<g id="a_node19"><a xlink:href="ExchangeBuggyTests.html#gExploitAction" xlink:title="gExploitAction">
<ellipse fill="#f070d1" stroke="black" cx="1198" cy="-596.87" rx="79.09" ry="18"/>
<text text-anchor="middle" x="1198" y="-593.17" font-family="Times,serif" font-size="14.00">gExploitAction</text>
</a>
</g>
</g>
<!-- ExchangeBuggyTests_gExploitChainTraceList&#45;&gt;ExchangeBuggyTests_gExploitAction -->
<g id="edge24" class="edge">
<title>ExchangeBuggyTests_gExploitChainTraceList&#45;&gt;ExchangeBuggyTests_gExploitAction</title>
<path fill="none" stroke="black" d="M1179.13,-748.84C1182.78,-719.66 1190.25,-659.88 1194.62,-624.94"/>
<polygon fill="black" stroke="black" points="1198.1,-625.31 1195.87,-614.95 1191.15,-624.44 1198.1,-625.31"/>
</g>
<!-- ExchangeBuggyTests_call_exchange -->
<g id="node20" class="node">
<title>ExchangeBuggyTests_call_exchange</title>
<g id="a_node20"><a xlink:href="ExchangeBuggyTests.html#call_exchange" xlink:title="call_exchange">
<ellipse fill="#f070d1" stroke="black" cx="969" cy="-419.87" rx="75.29" ry="18"/>
<text text-anchor="middle" x="969" y="-416.17" font-family="Times,serif" font-size="14.00">call_exchange</text>
</a>
</g>
</g>
<!-- ExchangeBuggyTests_gExploitAction&#45;&gt;ExchangeBuggyTests_call_exchange -->
<g id="edge25" class="edge">
<title>ExchangeBuggyTests_gExploitAction&#45;&gt;ExchangeBuggyTests_call_exchange</title>
<path fill="none" stroke="black" d="M1176.46,-579.41C1135.26,-547.93 1045.28,-479.16 998.52,-443.44"/>
<polygon fill="black" stroke="black" points="1000.39,-440.46 990.32,-437.17 996.14,-446.02 1000.39,-440.46"/>
</g>
<!-- ExchangeBuggyTests_call_exchange&#45;&gt;ExchangeBuggyTests_exploit_caddr -->
<g id="edge26" class="edge">
<title>ExchangeBuggyTests_call_exchange&#45;&gt;ExchangeBuggyTests_exploit_caddr</title>
<path fill="none" stroke="black" d="M1013.81,-405.2C1026.46,-401.43 1040.24,-397.41 1053,-393.87 1232.86,-344 1447.1,-290.57 1549.17,-265.48"/>
<polygon fill="black" stroke="black" points="1550.12,-268.85 1558.99,-263.07 1548.45,-262.05 1550.12,-268.85"/>
</g>
<!-- ExchangeBuggyTests_call_exchange&#45;&gt;ExchangeBuggyTests_exchange_caddr -->
<g id="edge27" class="edge">
<title>ExchangeBuggyTests_call_exchange&#45;&gt;ExchangeBuggyTests_exchange_caddr</title>
<path fill="none" stroke="black" d="M1008.88,-404.4C1093.09,-373.85 1288.91,-302.79 1381.62,-269.15"/>
<polygon fill="black" stroke="black" points="1382.86,-272.43 1391.06,-265.73 1380.47,-265.85 1382.86,-272.43"/>
</g>
<!-- ExchangeBuggyTests_call_exchange&#45;&gt;ExchangeBuggyTests_fa2_caddr -->
<g id="edge28" class="edge">
<title>ExchangeBuggyTests_call_exchange&#45;&gt;ExchangeBuggyTests_fa2_caddr</title>
<path fill="none" stroke="black" d="M1008.86,-404.44C1096.55,-372.3 1299.85,-295.5 1318,-267.87 1350.76,-218.01 1321.13,-145.08 1301.01,-106.69"/>
<polygon fill="black" stroke="black" points="1303.98,-104.84 1296.14,-97.72 1297.83,-108.18 1303.98,-104.84"/>
</g>
<!-- ExchangeBuggyTests_token_state&#45;&gt;ExchangeBuggyTests_fa2_caddr -->
<g id="edge29" class="edge">
<title>ExchangeBuggyTests_token_state&#45;&gt;ExchangeBuggyTests_fa2_caddr</title>
<path fill="none" stroke="black" d="M1249.16,-231.84C1256.28,-202.66 1270.87,-142.88 1279.4,-107.94"/>
<polygon fill="black" stroke="black" points="1282.86,-108.5 1281.83,-97.95 1276.06,-106.84 1282.86,-108.5"/>
</g>
<!-- ExchangeBuggyTests_exchange_state&#45;&gt;ExchangeBuggyTests_exchange_caddr -->
<g id="edge30" class="edge">
<title>ExchangeBuggyTests_exchange_state&#45;&gt;ExchangeBuggyTests_exchange_caddr</title>
<path fill="none" stroke="black" d="M1172.52,-402.76C1224.59,-372.28 1337.52,-306.18 1395.71,-272.11"/>
<polygon fill="black" stroke="black" points="1397.7,-275 1404.56,-266.93 1394.17,-268.96 1397.7,-275"/>
</g>
<!-- ExchangeBuggyTests_add_operator_all -->
<g id="node24" class="node">
<title>ExchangeBuggyTests_add_operator_all</title>
<g id="a_node24"><a xlink:href="ExchangeBuggyTests.html#add_operator_all" xlink:title="add_operator_all">
<ellipse fill="#f070d1" stroke="black" cx="591" cy="-596.87" rx="87.99" ry="18"/>
<text text-anchor="middle" x="591" y="-593.17" font-family="Times,serif" font-size="14.00">add_operator_all</text>
</a>
</g>
</g>
<!-- ExchangeBuggyTests_chain&#45;&gt;ExchangeBuggyTests_add_operator_all -->
<g id="edge31" class="edge">
<title>ExchangeBuggyTests_chain&#45;&gt;ExchangeBuggyTests_add_operator_all</title>
<path fill="none" stroke="black" d="M591,-748.84C591,-719.78 591,-660.4 591,-625.39"/>
<polygon fill="black" stroke="black" points="594.5,-624.95 591,-614.95 587.5,-624.95 594.5,-624.95"/>
</g>
<!-- ExchangeBuggyTests_exchange_other_msg -->
<g id="node25" class="node">
<title>ExchangeBuggyTests_exchange_other_msg</title>
<g id="a_node25"><a xlink:href="ExchangeBuggyTests.html#exchange_other_msg" xlink:title="exchange_other_msg">
<ellipse fill="#f070d1" stroke="black" cx="805" cy="-596.87" rx="107.78" ry="18"/>
<text text-anchor="middle" x="805" y="-593.17" font-family="Times,serif" font-size="14.00">exchange_other_msg</text>
</a>
</g>
</g>
<!-- ExchangeBuggyTests_chain&#45;&gt;ExchangeBuggyTests_exchange_other_msg -->
<g id="edge32" class="edge">
<title>ExchangeBuggyTests_chain&#45;&gt;ExchangeBuggyTests_exchange_other_msg</title>
<path fill="none" stroke="black" d="M609.62,-751.26C646.87,-722.01 730.86,-656.08 775.62,-620.94"/>
<polygon fill="black" stroke="black" points="778.06,-623.47 783.76,-614.55 773.73,-617.97 778.06,-623.47"/>
</g>
<!-- ExchangeBuggyTests_exchange_setup -->
<g id="node26" class="node">
<title>ExchangeBuggyTests_exchange_setup</title>
<g id="a_node26"><a xlink:href="ExchangeBuggyTests.html#exchange_setup" xlink:title="exchange_setup">
<ellipse fill="#f070d1" stroke="black" cx="1016" cy="-596.87" rx="85.29" ry="18"/>
<text text-anchor="middle" x="1016" y="-593.17" font-family="Times,serif" font-size="14.00">exchange_setup</text>
</a>
</g>
</g>
<!-- ExchangeBuggyTests_chain&#45;&gt;ExchangeBuggyTests_exchange_setup -->
<g id="edge33" class="edge">
<title>ExchangeBuggyTests_chain&#45;&gt;ExchangeBuggyTests_exchange_setup</title>
<path fill="none" stroke="black" d="M618.23,-755.11C688.94,-727.16 879.06,-652 968.39,-616.69"/>
<polygon fill="black" stroke="black" points="969.73,-619.93 977.75,-612.99 967.16,-613.42 969.73,-619.93"/>
</g>
<!-- ExchangeBuggyTests_token_setup -->
<g id="node27" class="node">
<title>ExchangeBuggyTests_token_setup</title>
<g id="a_node27"><a xlink:href="ExchangeBuggyTests.html#token_setup" xlink:title="token_setup">
<ellipse fill="#f070d1" stroke="black" cx="418" cy="-596.87" rx="66.89" ry="18"/>
<text text-anchor="middle" x="418" y="-593.17" font-family="Times,serif" font-size="14.00">token_setup</text>
</a>
</g>
</g>
<!-- ExchangeBuggyTests_chain&#45;&gt;ExchangeBuggyTests_token_setup -->
<g id="edge34" class="edge">
<title>ExchangeBuggyTests_chain&#45;&gt;ExchangeBuggyTests_token_setup</title>
<path fill="none" stroke="black" d="M575.34,-750.67C545.06,-721.26 478.28,-656.41 442.22,-621.39"/>
<polygon fill="black" stroke="black" points="444.63,-618.85 435.02,-614.4 439.75,-623.88 444.63,-618.85"/>
</g>
<!-- ExchangeBuggyTests_exploit_contract -->
<g id="node30" class="node">
<title>ExchangeBuggyTests_exploit_contract</title>
<g id="a_node30"><a xlink:href="ExchangeBuggyTests.html#exploit_contract" xlink:title="exploit_contract">
<ellipse fill="#f070d1" stroke="black" cx="228" cy="-596.87" rx="85.29" ry="18"/>
<text text-anchor="middle" x="228" y="-593.17" font-family="Times,serif" font-size="14.00">exploit_contract</text>
</a>
</g>
</g>
<!-- ExchangeBuggyTests_chain&#45;&gt;ExchangeBuggyTests_exploit_contract -->
<g id="edge35" class="edge">
<title>ExchangeBuggyTests_chain&#45;&gt;ExchangeBuggyTests_exploit_contract</title>
<path fill="none" stroke="black" d="M565.47,-754.06C504.03,-725.62 347.37,-653.12 271.07,-617.8"/>
<polygon fill="black" stroke="black" points="272.28,-614.51 261.73,-613.48 269.34,-620.86 272.28,-614.51"/>
</g>
<!-- ExchangeBuggyTests_chain&#45;&gt;ExchangeBuggyTests_exploit_caddr -->
<g id="edge36" class="edge">
<title>ExchangeBuggyTests_chain&#45;&gt;ExchangeBuggyTests_exploit_caddr</title>
<path fill="none" stroke="black" d="M559.72,-757.76C504.06,-741.43 389.25,-698.79 342,-614.87 334.86,-602.2 314.78,-430.53 349,-393.87 528.49,-201.58 1266.08,-308.31 1526,-267.87 1532.54,-266.85 1539.35,-265.67 1546.13,-264.41"/>
<polygon fill="black" stroke="black" points="1546.84,-267.83 1556,-262.51 1545.52,-260.96 1546.84,-267.83"/>
</g>
<!-- ExchangeBuggyTests_exchange_setup&#45;&gt;ExchangeBuggyTests_fa2_caddr -->
<g id="edge37" class="edge">
<title>ExchangeBuggyTests_exchange_setup&#45;&gt;ExchangeBuggyTests_fa2_caddr</title>
<path fill="none" stroke="black" d="M956.91,-583.76C846.6,-558.48 627.11,-493.99 703,-393.87 828.2,-228.7 989.37,-396.36 1152,-267.87 1166.36,-256.53 1162.02,-247.21 1172,-231.87 1202.17,-185.52 1241.97,-134.82 1265.68,-105.54"/>
<polygon fill="black" stroke="black" points="1268.61,-107.49 1272.21,-97.52 1263.18,-103.07 1268.61,-107.49"/>
</g>
<!-- ExchangeBuggyTests_token_metadata_0 -->
<g id="node28" class="node">
<title>ExchangeBuggyTests_token_metadata_0</title>
<g id="a_node28"><a xlink:href="ExchangeBuggyTests.html#token_metadata_0" xlink:title="token_metadata_0">
<ellipse fill="#f070d1" stroke="black" cx="579" cy="-419.87" rx="94.78" ry="18"/>
<text text-anchor="middle" x="579" y="-416.17" font-family="Times,serif" font-size="14.00">token_metadata_0</text>
</a>
</g>
</g>
<!-- ExchangeBuggyTests_token_setup&#45;&gt;ExchangeBuggyTests_token_metadata_0 -->
<g id="edge38" class="edge">
<title>ExchangeBuggyTests_token_setup&#45;&gt;ExchangeBuggyTests_token_metadata_0</title>
<path fill="none" stroke="black" d="M433.44,-579.09C461.97,-548.07 523.09,-481.64 556.33,-445.51"/>
<polygon fill="black" stroke="black" points="559.18,-447.59 563.37,-437.86 554.03,-442.85 559.18,-447.59"/>
</g>
<!-- ExchangeBuggyTests_policy_all -->
<g id="node29" class="node">
<title>ExchangeBuggyTests_policy_all</title>
<g id="a_node29"><a xlink:href="ExchangeBuggyTests.html#policy_all" xlink:title="policy_all">
<ellipse fill="#f070d1" stroke="black" cx="412" cy="-419.87" rx="53.89" ry="18"/>
<text text-anchor="middle" x="412" y="-416.17" font-family="Times,serif" font-size="14.00">policy_all</text>
</a>
</g>
</g>
<!-- ExchangeBuggyTests_token_setup&#45;&gt;ExchangeBuggyTests_policy_all -->
<g id="edge39" class="edge">
<title>ExchangeBuggyTests_token_setup&#45;&gt;ExchangeBuggyTests_policy_all</title>
<path fill="none" stroke="black" d="M417.41,-578.77C416.37,-548.45 414.2,-485.03 412.95,-448.46"/>
<polygon fill="black" stroke="black" points="416.43,-447.91 412.59,-438.04 409.43,-448.15 416.43,-447.91"/>
</g>
<!-- ExchangeBuggyTests_token_metadata_0&#45;&gt;ExchangeBuggyTests_exchange_token_id -->
<g id="edge40" class="edge">
<title>ExchangeBuggyTests_token_metadata_0&#45;&gt;ExchangeBuggyTests_exchange_token_id</title>
<path fill="none" stroke="black" d="M621.18,-403.67C706.65,-372.85 900.05,-303.13 993.09,-269.59"/>
<polygon fill="black" stroke="black" points="994.36,-272.85 1002.58,-266.16 991.99,-266.26 994.36,-272.85"/>
</g>
<!-- ExchangeBuggyTests_exploit_receive -->
<g id="node31" class="node">
<title>ExchangeBuggyTests_exploit_receive</title>
<g id="a_node31"><a xlink:href="ExchangeBuggyTests.html#exploit_receive" xlink:title="exploit_receive">
<ellipse fill="#f070d1" stroke="black" cx="239" cy="-419.87" rx="80.69" ry="18"/>
<text text-anchor="middle" x="239" y="-416.17" font-family="Times,serif" font-size="14.00">exploit_receive</text>
</a>
</g>
</g>
<!-- ExchangeBuggyTests_exploit_contract&#45;&gt;ExchangeBuggyTests_exploit_receive -->
<g id="edge41" class="edge">
<title>ExchangeBuggyTests_exploit_contract&#45;&gt;ExchangeBuggyTests_exploit_receive</title>
<path fill="none" stroke="black" d="M229.07,-578.77C230.98,-548.45 234.97,-485.03 237.27,-448.46"/>
<polygon fill="black" stroke="black" points="240.79,-448.24 237.92,-438.04 233.8,-447.8 240.79,-448.24"/>
</g>
<!-- ExchangeBuggyTests_exploit_init -->
<g id="node32" class="node">
<title>ExchangeBuggyTests_exploit_init</title>
<g id="a_node32"><a xlink:href="ExchangeBuggyTests.html#exploit_init" xlink:title="exploit_init">
<ellipse fill="#f070d1" stroke="black" cx="78" cy="-419.87" rx="62.29" ry="18"/>
<text text-anchor="middle" x="78" y="-416.17" font-family="Times,serif" font-size="14.00">exploit_init</text>
</a>
</g>
</g>
<!-- ExchangeBuggyTests_exploit_contract&#45;&gt;ExchangeBuggyTests_exploit_init -->
<g id="edge42" class="edge">
<title>ExchangeBuggyTests_exploit_contract&#45;&gt;ExchangeBuggyTests_exploit_init</title>
<path fill="none" stroke="black" d="M213.62,-579.09C186.96,-548 129.8,-481.3 98.88,-445.23"/>
<polygon fill="black" stroke="black" points="101.5,-442.92 92.34,-437.6 96.19,-447.47 101.5,-442.92"/>
</g>
<!-- ExchangeBuggyTests_ExplotContractError -->
<g id="node33" class="node">
<title>ExchangeBuggyTests_ExplotContractError</title>
<g id="a_node33"><a xlink:href="ExchangeBuggyTests.html#ExplotContractError" xlink:title="ExplotContractError">
<ellipse fill="#f070d1" stroke="black" cx="595" cy="-249.87" rx="106.68" ry="18"/>
<text text-anchor="middle" x="595" y="-246.17" font-family="Times,serif" font-size="14.00">ExplotContractError</text>
</a>
</g>
</g>
<!-- ExchangeBuggyTests_exploit_receive&#45;&gt;ExchangeBuggyTests_ExplotContractError -->
<g id="edge43" class="edge">
<title>ExchangeBuggyTests_exploit_receive&#45;&gt;ExchangeBuggyTests_ExplotContractError</title>
<path fill="none" stroke="black" d="M271.85,-403.37C336.35,-372.93 479.5,-305.38 551.65,-271.33"/>
<polygon fill="black" stroke="black" points="553.38,-274.39 560.93,-266.95 550.39,-268.06 553.38,-274.39"/>
</g>
<!-- ExchangeBuggyTests_ExploitContractState -->
<g id="node35" class="node">
<title>ExchangeBuggyTests_ExploitContractState</title>
<g id="a_node35"><a xlink:href="ExchangeBuggyTests.html#ExploitContractState" xlink:title="ExploitContractState">
<ellipse fill="#f070d1" stroke="black" cx="361" cy="-249.87" rx="109.38" ry="18"/>
<text text-anchor="middle" x="361" y="-246.17" font-family="Times,serif" font-size="14.00">ExploitContractState</text>
</a>
</g>
</g>
<!-- ExchangeBuggyTests_exploit_receive&#45;&gt;ExchangeBuggyTests_ExploitContractState -->
<g id="edge44" class="edge">
<title>ExchangeBuggyTests_exploit_receive&#45;&gt;ExchangeBuggyTests_ExploitContractState</title>
<path fill="none" stroke="black" d="M251.37,-401.84C272.93,-372.16 317.47,-310.81 342.64,-276.15"/>
<polygon fill="black" stroke="black" points="345.55,-278.1 348.6,-267.95 339.89,-273.99 345.55,-278.1"/>
</g>
<!-- ExchangeBuggyTests_ExploitContractMsg -->
<g id="node36" class="node">
<title>ExchangeBuggyTests_ExploitContractMsg</title>
<g id="a_node36"><a xlink:href="ExchangeBuggyTests.html#ExploitContractMsg" xlink:title="ExploitContractMsg">
<ellipse fill="#f070d1" stroke="black" cx="824" cy="-249.87" rx="104.78" ry="18"/>
<text text-anchor="middle" x="824" y="-246.17" font-family="Times,serif" font-size="14.00">ExploitContractMsg</text>
</a>
</g>
</g>
<!-- ExchangeBuggyTests_exploit_receive&#45;&gt;ExchangeBuggyTests_ExploitContractMsg -->
<g id="edge45" class="edge">
<title>ExchangeBuggyTests_exploit_receive&#45;&gt;ExchangeBuggyTests_ExploitContractMsg</title>
<path fill="none" stroke="black" d="M286.38,-405.27C391.7,-375.02 645.21,-302.22 762.53,-268.53"/>
<polygon fill="black" stroke="black" points="763.79,-271.81 772.43,-265.68 761.86,-265.08 763.79,-271.81"/>
</g>
<!-- ExchangeBuggyTests_exploit_receive&#45;&gt;ExchangeBuggyTests_exchange_caddr -->
<g id="edge46" class="edge">
<title>ExchangeBuggyTests_exploit_receive&#45;&gt;ExchangeBuggyTests_exchange_caddr</title>
<path fill="none" stroke="black" d="M286.08,-405.19C301.28,-401.12 318.26,-396.94 334,-393.87 766.77,-309.59 881.27,-328.39 1318,-267.87 1329.92,-266.22 1342.54,-264.41 1354.86,-262.6"/>
<polygon fill="black" stroke="black" points="1355.74,-266 1365.12,-261.08 1354.72,-259.08 1355.74,-266"/>
</g>
<!-- ExchangeBuggyTests_exploit_receive&#45;&gt;ExchangeBuggyTests_exchange_token_id -->
<g id="edge47" class="edge">
<title>ExchangeBuggyTests_exploit_receive&#45;&gt;ExchangeBuggyTests_exchange_token_id</title>
<path fill="none" stroke="black" d="M287.68,-405.47C302.51,-401.55 318.88,-397.38 334,-393.87 563.22,-340.71 836.67,-288.96 967.63,-264.89"/>
<polygon fill="black" stroke="black" points="968.36,-268.31 977.57,-263.07 967.1,-261.43 968.36,-268.31"/>
</g>
<!-- ExchangeBuggyTests_exploit_init&#45;&gt;ExchangeBuggyTests_ExplotContractError -->
<g id="edge48" class="edge">
<title>ExchangeBuggyTests_exploit_init&#45;&gt;ExchangeBuggyTests_ExplotContractError</title>
<path fill="none" stroke="black" d="M115.52,-405.44C126.3,-401.64 138.1,-397.54 149,-393.87 287.45,-347.31 451.2,-295.68 536.58,-269.02"/>
<polygon fill="black" stroke="black" points="537.84,-272.3 546.35,-265.98 535.76,-265.62 537.84,-272.3"/>
</g>
<!-- ExchangeBuggyTests_ExplotContractSetup -->
<g id="node34" class="node">
<title>ExchangeBuggyTests_ExplotContractSetup</title>
<g id="a_node34"><a xlink:href="ExchangeBuggyTests.html#ExplotContractSetup" xlink:title="ExplotContractSetup">
<ellipse fill="#f070d1" stroke="black" cx="125" cy="-249.87" rx="108.58" ry="18"/>
<text text-anchor="middle" x="125" y="-246.17" font-family="Times,serif" font-size="14.00">ExplotContractSetup</text>
</a>
</g>
</g>
<!-- ExchangeBuggyTests_exploit_init&#45;&gt;ExchangeBuggyTests_ExplotContractSetup -->
<g id="edge49" class="edge">
<title>ExchangeBuggyTests_exploit_init&#45;&gt;ExchangeBuggyTests_ExplotContractSetup</title>
<path fill="none" stroke="black" d="M82.77,-401.84C90.93,-372.66 107.65,-312.88 117.43,-277.94"/>
<polygon fill="black" stroke="black" points="120.9,-278.52 120.22,-267.95 114.16,-276.64 120.9,-278.52"/>
</g>
<!-- ExchangeBuggyTests_exploit_init&#45;&gt;ExchangeBuggyTests_ExploitContractState -->
<g id="edge50" class="edge">
<title>ExchangeBuggyTests_exploit_init&#45;&gt;ExchangeBuggyTests_ExploitContractState</title>
<path fill="none" stroke="black" d="M104.12,-403.37C154.77,-373.3 266.47,-306.99 324.46,-272.57"/>
<polygon fill="black" stroke="black" points="326.47,-275.44 333.28,-267.33 322.9,-269.42 326.47,-275.44"/>
</g>
</g>
</svg>
