<?xml version="1.0" encoding="UTF-8" standalone="no"?>
<!DOCTYPE svg PUBLIC "-//W3C//DTD SVG 1.1//EN"
 "http://www.w3.org/Graphics/SVG/1.1/DTD/svg11.dtd">
<!-- Generated by graphviz version 2.43.0 (0)
 -->
<!-- Title: Env Pages: 1 -->
<svg width="679pt" height="343pt"
 viewBox="0.00 0.00 679.00 343.50" xmlns="http://www.w3.org/2000/svg" xmlns:xlink="http://www.w3.org/1999/xlink">
<g id="graph0" class="graph" transform="scale(1 1) rotate(0) translate(4 339.5)">
<title>Env</title>
<polygon fill="white" stroke="transparent" points="-4,4 -4,-339.5 675,-339.5 675,4 -4,4"/>
<g id="clust1" class="cluster">
<title>cluster_Env</title>
<polygon fill="#ffffc3" stroke="black" points="8,-10.05 8,-325.45 663,-325.45 663,-10.05 8,-10.05"/>
<text text-anchor="middle" x="30" y="-310.25" font-family="Times,serif" font-size="14.00">Env</text>
</g>
<!-- Env_lookup_i_length_false -->
<g id="node1" class="node">
<title>Env_lookup_i_length_false</title>
<g id="a_node1"><a xlink:href="Env.html#lookup_i_length_false" xlink:title="lookup_i_length_false">
<ellipse fill="#7fffd4" stroke="black" cx="538" cy="-254.05" rx="109.37" ry="18"/>
<ellipse fill="none" stroke="black" cx="538" cy="-254.05" rx="113.37" ry="22"/>
<ellipse fill="none" stroke="black" cx="538" cy="-254.05" rx="117.38" ry="26"/>
<text text-anchor="middle" x="538" y="-250.35" font-family="Times,serif" font-size="14.00">lookup_i_length_false</text>
</a>
</g>
</g>
<!-- Env_lookup_i -->
<g id="node4" class="node">
<title>Env_lookup_i</title>
<g id="a_node4"><a xlink:href="Env.html#lookup_i" xlink:title="lookup_i">
<ellipse fill="#f070d1" stroke="black" cx="606" cy="-143.05" rx="48.99" ry="18"/>
<text text-anchor="middle" x="606" y="-139.35" font-family="Times,serif" font-size="14.00">lookup_i</text>
</a>
</g>
</g>
<!-- Env_lookup_i_length_false&#45;&gt;Env_lookup_i -->
<g id="edge1" class="edge">
<title>Env_lookup_i_length_false&#45;&gt;Env_lookup_i</title>
<path fill="none" stroke="black" d="M553.6,-228.05C564.55,-210.49 579.15,-187.09 590.16,-169.45"/>
<polygon fill="black" stroke="black" points="593.22,-171.15 595.54,-160.81 587.28,-167.44 593.22,-171.15"/>
</g>
<!-- Env_lookup_i_length -->
<g id="node2" class="node">
<title>Env_lookup_i_length</title>
<g id="a_node2"><a xlink:href="Env.html#lookup_i_length" xlink:title="lookup_i_length">
<ellipse fill="#f070d1" stroke="black" cx="312" cy="-254.05" rx="83.37" ry="18"/>
<ellipse fill="none" stroke="black" cx="312" cy="-254.05" rx="87.38" ry="22"/>
<ellipse fill="none" stroke="black" cx="312" cy="-254.05" rx="91.39" ry="26"/>
<text text-anchor="middle" x="312" y="-250.35" font-family="Times,serif" font-size="14.00">lookup_i_length</text>
</a>
</g>
</g>
<!-- Env_lookup_i_length&#45;&gt;Env_lookup_i -->
<g id="edge2" class="edge">
<title>Env_lookup_i_length&#45;&gt;Env_lookup_i</title>
<path fill="none" stroke="black" d="M369.61,-233.72C417.64,-217.32 487.69,-192.75 548,-169.05 554.03,-166.68 560.36,-164.08 566.54,-161.47"/>
<polygon fill="black" stroke="black" points="568.23,-164.55 576.05,-157.4 565.48,-158.11 568.23,-164.55"/>
</g>
<!-- Env_remove_by_key -->
<g id="node3" class="node">
<title>Env_remove_by_key</title>
<g id="a_node3"><a xlink:href="Env.html#remove_by_key" xlink:title="remove_by_key">
<ellipse fill="#f070d1" stroke="black" cx="450" cy="-143.05" rx="81.46" ry="18"/>
<ellipse fill="none" stroke="black" cx="450" cy="-143.05" rx="85.48" ry="22"/>
<ellipse fill="none" stroke="black" cx="450" cy="-143.05" rx="89.49" ry="26"/>
<text text-anchor="middle" x="450" y="-139.35" font-family="Times,serif" font-size="14.00">remove_by_key</text>
</a>
</g>
</g>
<!-- Env_env -->
<g id="node8" class="node">
<title>Env_env</title>
<g id="a_node8"><a xlink:href="Env.html#env" xlink:title="env">
<ellipse fill="#f070d1" stroke="black" cx="344" cy="-43.05" rx="27.1" ry="18"/>
<text text-anchor="middle" x="344" y="-39.35" font-family="Times,serif" font-size="14.00">env</text>
</a>
</g>
</g>
<!-- Env_remove_by_key&#45;&gt;Env_env -->
<g id="edge3" class="edge">
<title>Env_remove_by_key&#45;&gt;Env_env</title>
<path fill="none" stroke="black" d="M424.07,-118.08C406.58,-101.91 383.72,-80.78 366.9,-65.23"/>
<polygon fill="black" stroke="black" points="368.9,-62.31 359.19,-58.09 364.15,-67.45 368.9,-62.31"/>
</g>
<!-- Env_lookup_i&#45;&gt;Env_env -->
<g id="edge4" class="edge">
<title>Env_lookup_i&#45;&gt;Env_env</title>
<path fill="none" stroke="black" d="M576.05,-128.71C567.08,-124.83 557.18,-120.67 548,-117.05 488.47,-93.6 418,-69.09 377.39,-55.28"/>
<polygon fill="black" stroke="black" points="378.33,-51.9 367.74,-52 376.09,-58.53 378.33,-51.9"/>
</g>
<!-- Env_lookup_with_ind -->
<g id="node5" class="node">
<title>Env_lookup_with_ind</title>
<g id="a_node5"><a xlink:href="Env.html#lookup_with_ind" xlink:title="lookup_with_ind">
<ellipse fill="#f070d1" stroke="black" cx="110" cy="-254.05" rx="85.27" ry="18"/>
<ellipse fill="none" stroke="black" cx="110" cy="-254.05" rx="89.28" ry="22"/>
<ellipse fill="none" stroke="black" cx="110" cy="-254.05" rx="93.29" ry="26"/>
<text text-anchor="middle" x="110" y="-250.35" font-family="Times,serif" font-size="14.00">lookup_with_ind</text>
</a>
</g>
</g>
<!-- Env_lookup_with_ind_rec -->
<g id="node6" class="node">
<title>Env_lookup_with_ind_rec</title>
<g id="a_node6"><a xlink:href="Env.html#lookup_with_ind_rec" xlink:title="lookup_with_ind_rec">
<ellipse fill="#f070d1" stroke="black" cx="238" cy="-143.05" rx="104.78" ry="18"/>
<text text-anchor="middle" x="238" y="-139.35" font-family="Times,serif" font-size="14.00">lookup_with_ind_rec</text>
</a>
</g>
</g>
<!-- Env_lookup_with_ind&#45;&gt;Env_lookup_with_ind_rec -->
<g id="edge5" class="edge">
<title>Env_lookup_with_ind&#45;&gt;Env_lookup_with_ind_rec</title>
<path fill="none" stroke="black" d="M138.09,-229.13C159.62,-210.79 189.18,-185.63 210.55,-167.43"/>
<polygon fill="black" stroke="black" points="212.96,-169.97 218.31,-160.82 208.43,-164.64 212.96,-169.97"/>
</g>
<!-- Env_lookup_with_ind_rec&#45;&gt;Env_env -->
<g id="edge6" class="edge">
<title>Env_lookup_with_ind_rec&#45;&gt;Env_env</title>
<path fill="none" stroke="black" d="M256.46,-124.98C274.5,-108.31 301.99,-82.89 321.34,-65"/>
<polygon fill="black" stroke="black" points="323.87,-67.43 328.83,-58.07 319.12,-62.29 323.87,-67.43"/>
</g>
<!-- Env_lookup -->
<g id="node7" class="node">
<title>Env_lookup</title>
<g id="a_node7"><a xlink:href="Env.html#lookup" xlink:title="lookup">
<ellipse fill="#f070d1" stroke="black" cx="66" cy="-143.05" rx="41.68" ry="18"/>
<ellipse fill="none" stroke="black" cx="66" cy="-143.05" rx="45.69" ry="22"/>
<ellipse fill="none" stroke="black" cx="66" cy="-143.05" rx="49.69" ry="26"/>
<text text-anchor="middle" x="66" y="-139.35" font-family="Times,serif" font-size="14.00">lookup</text>
</a>
</g>
</g>
<!-- Env_lookup&#45;&gt;Env_env -->
<g id="edge7" class="edge">
<title>Env_lookup&#45;&gt;Env_env</title>
<path fill="none" stroke="black" d="M102.93,-125.57C109.89,-122.62 117.13,-119.67 124,-117.05 188.94,-92.34 266.35,-67.75 309.88,-54.37"/>
<polygon fill="black" stroke="black" points="311.13,-57.64 319.67,-51.37 309.08,-50.95 311.13,-57.64"/>
</g>
</g>
</svg>
