<?xml version="1.0" encoding="UTF-8" standalone="no"?>
<!DOCTYPE svg PUBLIC "-//W3C//DTD SVG 1.1//EN"
 "http://www.w3.org/Graphics/SVG/1.1/DTD/svg11.dtd">
<!-- Generated by graphviz version 2.43.0 (0)
 -->
<!-- Title: SpecializeChainBase Pages: 1 -->
<svg width="1231pt" height="620pt"
 viewBox="0.00 0.00 1231.00 619.50" xmlns="http://www.w3.org/2000/svg" xmlns:xlink="http://www.w3.org/1999/xlink">
<g id="graph0" class="graph" transform="scale(1 1) rotate(0) translate(4 615.5)">
<title>SpecializeChainBase</title>
<polygon fill="white" stroke="transparent" points="-4,4 -4,-615.5 1227,-615.5 1227,4 -4,4"/>
<g id="clust1" class="cluster">
<title>cluster_SpecializeChainBase</title>
<polygon fill="#ffffc3" stroke="black" points="8,-8.57 8,-602.93 1215,-602.93 1215,-8.57 8,-8.57"/>
<text text-anchor="middle" x="90" y="-587.73" font-family="Times,serif" font-size="14.00">SpecializeChainBase</text>
</g>
<!-- SpecializeChainBase_specialize_ChainBase_env -->
<g id="node1" class="node">
<title>SpecializeChainBase_specialize_ChainBase_env</title>
<g id="a_node1"><a xlink:href="SpecializeChainBase.html#specialize_ChainBase_env" xlink:title="specialize_ChainBase_env">
<ellipse fill="#f070d1" stroke="black" cx="860" cy="-541.57" rx="130.77" ry="18"/>
<ellipse fill="none" stroke="black" cx="860" cy="-541.57" rx="134.77" ry="22"/>
<ellipse fill="none" stroke="black" cx="860" cy="-541.57" rx="138.78" ry="26"/>
<text text-anchor="middle" x="860" y="-537.87" font-family="Times,serif" font-size="14.00">specialize_ChainBase_env</text>
</a>
</g>
</g>
<!-- SpecializeChainBase_specialize_env_rev -->
<g id="node2" class="node">
<title>SpecializeChainBase_specialize_env_rev</title>
<g id="a_node2"><a xlink:href="SpecializeChainBase.html#specialize_env_rev" xlink:title="specialize_env_rev">
<ellipse fill="#f070d1" stroke="black" cx="860" cy="-456.57" rx="96.68" ry="18"/>
<text text-anchor="middle" x="860" y="-452.87" font-family="Times,serif" font-size="14.00">specialize_env_rev</text>
</a>
</g>
</g>
<!-- SpecializeChainBase_specialize_ChainBase_env&#45;&gt;SpecializeChainBase_specialize_env_rev -->
<g id="edge1" class="edge">
<title>SpecializeChainBase_specialize_ChainBase_env&#45;&gt;SpecializeChainBase_specialize_env_rev</title>
<path fill="none" stroke="black" d="M860,-515.21C860,-505.55 860,-494.5 860,-484.68"/>
<polygon fill="black" stroke="black" points="863.5,-484.63 860,-474.63 856.5,-484.63 863.5,-484.63"/>
</g>
<!-- SpecializeChainBase_axiomatized_ChainBase_decl -->
<g id="node3" class="node">
<title>SpecializeChainBase_axiomatized_ChainBase_decl</title>
<g id="a_node3"><a xlink:href="SpecializeChainBase.html#axiomatized_ChainBase_decl" xlink:title="axiomatized_ChainBase_decl">
<ellipse fill="#f070d1" stroke="black" cx="1058" cy="-301.57" rx="143.77" ry="18"/>
<text text-anchor="middle" x="1058" y="-297.87" font-family="Times,serif" font-size="14.00">axiomatized_ChainBase_decl</text>
</a>
</g>
</g>
<!-- SpecializeChainBase_specialize_env_rev&#45;&gt;SpecializeChainBase_axiomatized_ChainBase_decl -->
<g id="edge2" class="edge">
<title>SpecializeChainBase_specialize_env_rev&#45;&gt;SpecializeChainBase_axiomatized_ChainBase_decl</title>
<path fill="none" stroke="black" d="M939.31,-446.18C972.75,-438.33 1009.52,-423.94 1034,-397.57 1050.95,-379.31 1056.36,-350.84 1057.89,-329.83"/>
<polygon fill="black" stroke="black" points="1061.4,-329.77 1058.37,-319.61 1054.4,-329.44 1061.4,-329.77"/>
</g>
<!-- SpecializeChainBase_axiomatized_ChainBase_kername -->
<g id="node4" class="node">
<title>SpecializeChainBase_axiomatized_ChainBase_kername</title>
<g id="a_node4"><a xlink:href="SpecializeChainBase.html#axiomatized_ChainBase_kername" xlink:title="axiomatized_ChainBase_kername">
<ellipse fill="#f070d1" stroke="black" cx="860" cy="-379.57" rx="165.17" ry="18"/>
<text text-anchor="middle" x="860" y="-375.87" font-family="Times,serif" font-size="14.00">axiomatized_ChainBase_kername</text>
</a>
</g>
</g>
<!-- SpecializeChainBase_specialize_env_rev&#45;&gt;SpecializeChainBase_axiomatized_ChainBase_kername -->
<g id="edge3" class="edge">
<title>SpecializeChainBase_specialize_env_rev&#45;&gt;SpecializeChainBase_axiomatized_ChainBase_kername</title>
<path fill="none" stroke="black" d="M860,-438.55C860,-429.5 860,-418.16 860,-407.92"/>
<polygon fill="black" stroke="black" points="863.5,-407.78 860,-397.78 856.5,-407.78 863.5,-407.78"/>
</g>
<!-- SpecializeChainBase_specialize_decl -->
<g id="node6" class="node">
<title>SpecializeChainBase_specialize_decl</title>
<g id="a_node6"><a xlink:href="SpecializeChainBase.html#specialize_decl" xlink:title="specialize_decl">
<ellipse fill="#f070d1" stroke="black" cx="579" cy="-379.57" rx="79.09" ry="18"/>
<text text-anchor="middle" x="579" y="-375.87" font-family="Times,serif" font-size="14.00">specialize_decl</text>
</a>
</g>
</g>
<!-- SpecializeChainBase_specialize_env_rev&#45;&gt;SpecializeChainBase_specialize_decl -->
<g id="edge4" class="edge">
<title>SpecializeChainBase_specialize_env_rev&#45;&gt;SpecializeChainBase_specialize_decl</title>
<path fill="none" stroke="black" d="M807.15,-441.46C759,-428.61 688,-409.66 638.02,-396.32"/>
<polygon fill="black" stroke="black" points="638.89,-392.93 628.32,-393.73 637.08,-399.69 638.89,-392.93"/>
</g>
<!-- SpecializeChainBase_ChainBase_kername -->
<g id="node20" class="node">
<title>SpecializeChainBase_ChainBase_kername</title>
<g id="a_node20"><a xlink:href="SpecializeChainBase.html#ChainBase_kername" xlink:title="ChainBase_kername">
<ellipse fill="#f070d1" stroke="black" cx="1102" cy="-122.57" rx="104.78" ry="18"/>
<text text-anchor="middle" x="1102" y="-118.87" font-family="Times,serif" font-size="14.00">ChainBase_kername</text>
</a>
</g>
</g>
<!-- SpecializeChainBase_axiomatized_ChainBase_decl&#45;&gt;SpecializeChainBase_ChainBase_kername -->
<g id="edge5" class="edge">
<title>SpecializeChainBase_axiomatized_ChainBase_decl&#45;&gt;SpecializeChainBase_ChainBase_kername</title>
<path fill="none" stroke="black" d="M1062.3,-283.27C1069.97,-252.4 1086.09,-187.57 1095.25,-150.71"/>
<polygon fill="black" stroke="black" points="1098.73,-151.22 1097.75,-140.67 1091.94,-149.53 1098.73,-151.22"/>
</g>
<!-- SpecializeChainBase_axiomatized_ChainBase -->
<g id="node5" class="node">
<title>SpecializeChainBase_axiomatized_ChainBase</title>
<g id="a_node5"><a xlink:href="SpecializeChainBase.html#axiomatized_ChainBase" xlink:title="axiomatized_ChainBase">
<ellipse fill="#f070d1" stroke="black" cx="369" cy="-541.57" rx="120.46" ry="18"/>
<ellipse fill="none" stroke="black" cx="369" cy="-541.57" rx="124.47" ry="22"/>
<ellipse fill="none" stroke="black" cx="369" cy="-541.57" rx="128.48" ry="26"/>
<text text-anchor="middle" x="369" y="-537.87" font-family="Times,serif" font-size="14.00">axiomatized_ChainBase</text>
</a>
</g>
</g>
<!-- SpecializeChainBase_specialize_body -->
<g id="node7" class="node">
<title>SpecializeChainBase_specialize_body</title>
<g id="a_node7"><a xlink:href="SpecializeChainBase.html#specialize_body" xlink:title="specialize_body">
<ellipse fill="#f070d1" stroke="black" cx="579" cy="-301.57" rx="83.39" ry="18"/>
<text text-anchor="middle" x="579" y="-297.87" font-family="Times,serif" font-size="14.00">specialize_body</text>
</a>
</g>
</g>
<!-- SpecializeChainBase_specialize_decl&#45;&gt;SpecializeChainBase_specialize_body -->
<g id="edge6" class="edge">
<title>SpecializeChainBase_specialize_decl&#45;&gt;SpecializeChainBase_specialize_body</title>
<path fill="none" stroke="black" d="M579,-361.32C579,-352.09 579,-340.5 579,-330.06"/>
<polygon fill="black" stroke="black" points="582.5,-329.74 579,-319.74 575.5,-329.74 582.5,-329.74"/>
</g>
<!-- SpecializeChainBase_specialize -->
<g id="node16" class="node">
<title>SpecializeChainBase_specialize</title>
<g id="a_node16"><a xlink:href="SpecializeChainBase.html#specialize" xlink:title="specialize">
<ellipse fill="#7faaff" stroke="black" cx="136" cy="-36.57" rx="55.79" ry="18"/>
<text text-anchor="middle" x="136" y="-32.87" font-family="Times,serif" font-size="14.00">specialize</text>
</a>
</g>
</g>
<!-- SpecializeChainBase_specialize_decl&#45;&gt;SpecializeChainBase_specialize -->
<g id="edge7" class="edge">
<title>SpecializeChainBase_specialize_decl&#45;&gt;SpecializeChainBase_specialize</title>
<path fill="none" stroke="black" d="M509.7,-370.7C379.11,-354.38 104.2,-312.43 43,-242.57 0.12,-193.62 -0.75,-152.8 32,-96.57 43.91,-76.11 65.85,-62.17 86.52,-53"/>
<polygon fill="black" stroke="black" points="87.98,-56.18 95.88,-49.12 85.3,-49.72 87.98,-56.18"/>
</g>
<!-- SpecializeChainBase_specialize_term -->
<g id="node8" class="node">
<title>SpecializeChainBase_specialize_term</title>
<g id="a_node8"><a xlink:href="SpecializeChainBase.html#specialize_term" xlink:title="specialize_term">
<ellipse fill="#f070d1" stroke="black" cx="579" cy="-216.57" rx="83.39" ry="18"/>
<text text-anchor="middle" x="579" y="-212.87" font-family="Times,serif" font-size="14.00">specialize_term</text>
</a>
</g>
</g>
<!-- SpecializeChainBase_specialize_body&#45;&gt;SpecializeChainBase_specialize_term -->
<g id="edge8" class="edge">
<title>SpecializeChainBase_specialize_body&#45;&gt;SpecializeChainBase_specialize_term</title>
<path fill="none" stroke="black" d="M579,-283.37C579,-272.24 579,-257.51 579,-244.81"/>
<polygon fill="black" stroke="black" points="582.5,-244.74 579,-234.74 575.5,-244.74 582.5,-244.74"/>
</g>
<!-- SpecializeChainBase_specialize_type -->
<g id="node9" class="node">
<title>SpecializeChainBase_specialize_type</title>
<g id="a_node9"><a xlink:href="SpecializeChainBase.html#specialize_type" xlink:title="specialize_type">
<ellipse fill="#f070d1" stroke="black" cx="898" cy="-122.57" rx="81.49" ry="18"/>
<text text-anchor="middle" x="898" y="-118.87" font-family="Times,serif" font-size="14.00">specialize_type</text>
</a>
</g>
</g>
<!-- SpecializeChainBase_specialize_term&#45;&gt;SpecializeChainBase_specialize_type -->
<g id="edge9" class="edge">
<title>SpecializeChainBase_specialize_term&#45;&gt;SpecializeChainBase_specialize_type</title>
<path fill="none" stroke="black" d="M626.76,-201.79C683.97,-185.29 779.73,-157.68 840.83,-140.06"/>
<polygon fill="black" stroke="black" points="842.06,-143.34 850.7,-137.21 840.12,-136.62 842.06,-143.34"/>
</g>
<!-- SpecializeChainBase_result_string -->
<g id="node10" class="node">
<title>SpecializeChainBase_result_string</title>
<g id="a_node10"><a xlink:href="SpecializeChainBase.html#result_string" xlink:title="result_string">
<ellipse fill="#f070d1" stroke="black" cx="441" cy="-122.57" rx="70.39" ry="18"/>
<text text-anchor="middle" x="441" y="-118.87" font-family="Times,serif" font-size="14.00">result_string</text>
</a>
</g>
</g>
<!-- SpecializeChainBase_specialize_term&#45;&gt;SpecializeChainBase_result_string -->
<g id="edge10" class="edge">
<title>SpecializeChainBase_specialize_term&#45;&gt;SpecializeChainBase_result_string</title>
<path fill="none" stroke="black" d="M554.65,-199.33C532.08,-184.29 498.35,-161.8 473.5,-145.23"/>
<polygon fill="black" stroke="black" points="475.37,-142.28 465.11,-139.64 471.49,-148.1 475.37,-142.28"/>
</g>
<!-- SpecializeChainBase_none -->
<g id="node15" class="node">
<title>SpecializeChainBase_none</title>
<g id="a_node15"><a xlink:href="SpecializeChainBase.html#none" xlink:title="none">
<ellipse fill="#7faaff" stroke="black" cx="268" cy="-36.57" rx="33.29" ry="18"/>
<text text-anchor="middle" x="268" y="-32.87" font-family="Times,serif" font-size="14.00">none</text>
</a>
</g>
</g>
<!-- SpecializeChainBase_specialize_term&#45;&gt;SpecializeChainBase_none -->
<g id="edge11" class="edge">
<title>SpecializeChainBase_specialize_term&#45;&gt;SpecializeChainBase_none</title>
<path fill="none" stroke="black" d="M499.49,-211.27C358.44,-202.82 76.42,-181.93 47,-148.57 31.71,-131.23 32.92,-114.9 47,-96.57 48.41,-94.73 165.2,-64.22 228.4,-47.82"/>
<polygon fill="black" stroke="black" points="229.63,-51.11 238.43,-45.22 227.87,-44.34 229.63,-51.11"/>
</g>
<!-- SpecializeChainBase_contains -->
<g id="node19" class="node">
<title>SpecializeChainBase_contains</title>
<g id="a_node19"><a xlink:href="SpecializeChainBase.html#contains" xlink:title="contains">
<ellipse fill="#f070d1" stroke="black" cx="579" cy="-122.57" rx="50.09" ry="18"/>
<text text-anchor="middle" x="579" y="-118.87" font-family="Times,serif" font-size="14.00">contains</text>
</a>
</g>
</g>
<!-- SpecializeChainBase_specialize_term&#45;&gt;SpecializeChainBase_contains -->
<g id="edge12" class="edge">
<title>SpecializeChainBase_specialize_term&#45;&gt;SpecializeChainBase_contains</title>
<path fill="none" stroke="black" d="M579,-198.26C579,-185.03 579,-166.51 579,-151.23"/>
<polygon fill="black" stroke="black" points="582.5,-150.79 579,-140.79 575.5,-150.79 582.5,-150.79"/>
</g>
<!-- SpecializeChainBase_specialize_term&#45;&gt;SpecializeChainBase_ChainBase_kername -->
<g id="edge13" class="edge">
<title>SpecializeChainBase_specialize_term&#45;&gt;SpecializeChainBase_ChainBase_kername</title>
<path fill="none" stroke="black" d="M645.79,-205.75C726.92,-193.56 867.86,-171.56 988,-148.57 1002.31,-145.83 1017.57,-142.66 1032.13,-139.51"/>
<polygon fill="black" stroke="black" points="1033.05,-142.89 1042.07,-137.34 1031.56,-136.05 1033.05,-142.89"/>
</g>
<!-- SpecializeChainBase_replace -->
<g id="node17" class="node">
<title>SpecializeChainBase_replace</title>
<g id="a_node17"><a xlink:href="SpecializeChainBase.html#replace" xlink:title="replace">
<ellipse fill="#7faaff" stroke="black" cx="496" cy="-36.57" rx="44.69" ry="18"/>
<text text-anchor="middle" x="496" y="-32.87" font-family="Times,serif" font-size="14.00">replace</text>
</a>
</g>
</g>
<!-- SpecializeChainBase_specialize_type&#45;&gt;SpecializeChainBase_replace -->
<g id="edge14" class="edge">
<title>SpecializeChainBase_specialize_type&#45;&gt;SpecializeChainBase_replace</title>
<path fill="none" stroke="black" d="M851.02,-107.71C837.22,-103.86 822.06,-99.84 808,-96.57 716.58,-75.27 608.75,-56.2 546.78,-45.82"/>
<polygon fill="black" stroke="black" points="547.3,-42.36 536.86,-44.17 546.15,-49.26 547.3,-42.36"/>
</g>
<!-- SpecializeChainBase_VarInfo -->
<g id="node18" class="node">
<title>SpecializeChainBase_VarInfo</title>
<g id="a_node18"><a xlink:href="SpecializeChainBase.html#VarInfo" xlink:title="VarInfo">
<ellipse fill="#e2cdfa" stroke="black" cx="669" cy="-36.57" rx="44.39" ry="18"/>
<text text-anchor="middle" x="669" y="-32.87" font-family="Times,serif" font-size="14.00">VarInfo</text>
</a>
</g>
</g>
<!-- SpecializeChainBase_specialize_type&#45;&gt;SpecializeChainBase_VarInfo -->
<g id="edge15" class="edge">
<title>SpecializeChainBase_specialize_type&#45;&gt;SpecializeChainBase_VarInfo</title>
<path fill="none" stroke="black" d="M857.85,-106.84C816.4,-91.64 752.06,-68.04 710.23,-52.69"/>
<polygon fill="black" stroke="black" points="711.22,-49.32 700.62,-49.17 708.81,-55.9 711.22,-49.32"/>
</g>
<!-- SpecializeChainBase_VarInfo_sind -->
<g id="node11" class="node">
<title>SpecializeChainBase_VarInfo_sind</title>
<g id="a_node11"><a xlink:href="SpecializeChainBase.html#VarInfo_sind" xlink:title="VarInfo_sind">
<ellipse fill="#f070d1" stroke="black" cx="723" cy="-122.57" rx="68.46" ry="18"/>
<ellipse fill="none" stroke="black" cx="723" cy="-122.57" rx="72.48" ry="22"/>
<ellipse fill="none" stroke="black" cx="723" cy="-122.57" rx="76.49" ry="26"/>
<text text-anchor="middle" x="723" y="-118.87" font-family="Times,serif" font-size="14.00">VarInfo_sind</text>
</a>
</g>
</g>
<!-- SpecializeChainBase_VarInfo_sind&#45;&gt;SpecializeChainBase_none -->
<g id="edge16" class="edge">
<title>SpecializeChainBase_VarInfo_sind&#45;&gt;SpecializeChainBase_none</title>
<path fill="none" stroke="black" d="M668.4,-104.39C658.35,-101.55 647.9,-98.8 638,-96.57 520.62,-70.06 379.66,-51.05 310.5,-42.55"/>
<polygon fill="black" stroke="black" points="310.78,-39.06 300.43,-41.32 309.94,-46 310.78,-39.06"/>
</g>
<!-- SpecializeChainBase_VarInfo_sind&#45;&gt;SpecializeChainBase_specialize -->
<g id="edge17" class="edge">
<title>SpecializeChainBase_VarInfo_sind&#45;&gt;SpecializeChainBase_specialize</title>
<path fill="none" stroke="black" d="M668.96,-104.05C658.75,-101.21 648.11,-98.55 638,-96.57 457.39,-61.12 408.15,-81.01 226,-54.57 214.8,-52.94 202.88,-50.91 191.49,-48.82"/>
<polygon fill="black" stroke="black" points="192.13,-45.37 181.66,-46.97 190.84,-52.25 192.13,-45.37"/>
</g>
<!-- SpecializeChainBase_VarInfo_sind&#45;&gt;SpecializeChainBase_replace -->
<g id="edge18" class="edge">
<title>SpecializeChainBase_VarInfo_sind&#45;&gt;SpecializeChainBase_replace</title>
<path fill="none" stroke="black" d="M672.62,-102.93C632.09,-87.93 575.82,-67.11 537.77,-53.03"/>
<polygon fill="black" stroke="black" points="538.63,-49.61 528.03,-49.42 536.2,-56.17 538.63,-49.61"/>
</g>
<!-- SpecializeChainBase_VarInfo_sind&#45;&gt;SpecializeChainBase_VarInfo -->
<g id="edge19" class="edge">
<title>SpecializeChainBase_VarInfo_sind&#45;&gt;SpecializeChainBase_VarInfo</title>
<path fill="none" stroke="black" d="M707.09,-96.82C700.19,-86.08 692.11,-73.52 685.18,-62.74"/>
<polygon fill="black" stroke="black" points="688.03,-60.69 679.68,-54.18 682.14,-64.48 688.03,-60.69"/>
</g>
<!-- SpecializeChainBase_VarInfo_rec -->
<g id="node12" class="node">
<title>SpecializeChainBase_VarInfo_rec</title>
<g id="a_node12"><a xlink:href="SpecializeChainBase.html#VarInfo_rec" xlink:title="VarInfo_rec">
<ellipse fill="#f070d1" stroke="black" cx="124" cy="-216.57" rx="63.87" ry="18"/>
<ellipse fill="none" stroke="black" cx="124" cy="-216.57" rx="67.88" ry="22"/>
<ellipse fill="none" stroke="black" cx="124" cy="-216.57" rx="71.89" ry="26"/>
<text text-anchor="middle" x="124" y="-212.87" font-family="Times,serif" font-size="14.00">VarInfo_rec</text>
</a>
</g>
</g>
<!-- SpecializeChainBase_VarInfo_rect -->
<g id="node14" class="node">
<title>SpecializeChainBase_VarInfo_rect</title>
<g id="a_node14"><a xlink:href="SpecializeChainBase.html#VarInfo_rect" xlink:title="VarInfo_rect">
<ellipse fill="#f070d1" stroke="black" cx="124" cy="-122.57" rx="67.69" ry="18"/>
<text text-anchor="middle" x="124" y="-118.87" font-family="Times,serif" font-size="14.00">VarInfo_rect</text>
</a>
</g>
</g>
<!-- SpecializeChainBase_VarInfo_rec&#45;&gt;SpecializeChainBase_VarInfo_rect -->
<g id="edge20" class="edge">
<title>SpecializeChainBase_VarInfo_rec&#45;&gt;SpecializeChainBase_VarInfo_rect</title>
<path fill="none" stroke="black" d="M124,-190.43C124,-178.25 124,-163.59 124,-151.11"/>
<polygon fill="black" stroke="black" points="127.5,-150.82 124,-140.82 120.5,-150.82 127.5,-150.82"/>
</g>
<!-- SpecializeChainBase_VarInfo_ind -->
<g id="node13" class="node">
<title>SpecializeChainBase_VarInfo_ind</title>
<g id="a_node13"><a xlink:href="SpecializeChainBase.html#VarInfo_ind" xlink:title="VarInfo_ind">
<ellipse fill="#7fffd4" stroke="black" cx="281" cy="-122.57" rx="63.87" ry="18"/>
<ellipse fill="none" stroke="black" cx="281" cy="-122.57" rx="67.88" ry="22"/>
<ellipse fill="none" stroke="black" cx="281" cy="-122.57" rx="71.89" ry="26"/>
<text text-anchor="middle" x="281" y="-118.87" font-family="Times,serif" font-size="14.00">VarInfo_ind</text>
</a>
</g>
</g>
<!-- SpecializeChainBase_VarInfo_ind&#45;&gt;SpecializeChainBase_none -->
<g id="edge21" class="edge">
<title>SpecializeChainBase_VarInfo_ind&#45;&gt;SpecializeChainBase_none</title>
<path fill="none" stroke="black" d="M277.1,-96.36C275.56,-86.39 273.78,-74.91 272.21,-64.75"/>
<polygon fill="black" stroke="black" points="275.65,-64.11 270.66,-54.77 268.73,-65.18 275.65,-64.11"/>
</g>
<!-- SpecializeChainBase_VarInfo_ind&#45;&gt;SpecializeChainBase_specialize -->
<g id="edge22" class="edge">
<title>SpecializeChainBase_VarInfo_ind&#45;&gt;SpecializeChainBase_specialize</title>
<path fill="none" stroke="black" d="M244.04,-100.15C221.47,-87.08 192.8,-70.47 170.67,-57.65"/>
<polygon fill="black" stroke="black" points="172.33,-54.57 161.92,-52.59 168.82,-60.63 172.33,-54.57"/>
</g>
<!-- SpecializeChainBase_VarInfo_ind&#45;&gt;SpecializeChainBase_replace -->
<g id="edge23" class="edge">
<title>SpecializeChainBase_VarInfo_ind&#45;&gt;SpecializeChainBase_replace</title>
<path fill="none" stroke="black" d="M328.45,-103.03C366.43,-88.19 419.13,-67.6 455.23,-53.5"/>
<polygon fill="black" stroke="black" points="456.9,-56.6 464.95,-49.7 454.36,-50.08 456.9,-56.6"/>
</g>
<!-- SpecializeChainBase_VarInfo_ind&#45;&gt;SpecializeChainBase_VarInfo -->
<g id="edge24" class="edge">
<title>SpecializeChainBase_VarInfo_ind&#45;&gt;SpecializeChainBase_VarInfo</title>
<path fill="none" stroke="black" d="M333.05,-104.58C342.63,-101.72 352.58,-98.92 362,-96.57 451.35,-74.26 557.13,-55.61 618.31,-45.56"/>
<polygon fill="black" stroke="black" points="619.16,-48.97 628.46,-43.9 618.03,-42.06 619.16,-48.97"/>
</g>
<!-- SpecializeChainBase_VarInfo_rect&#45;&gt;SpecializeChainBase_none -->
<g id="edge25" class="edge">
<title>SpecializeChainBase_VarInfo_rect&#45;&gt;SpecializeChainBase_none</title>
<path fill="none" stroke="black" d="M150.75,-105.96C175.23,-91.68 211.46,-70.55 237.15,-55.56"/>
<polygon fill="black" stroke="black" points="239.23,-58.4 246.1,-50.34 235.7,-52.36 239.23,-58.4"/>
</g>
<!-- SpecializeChainBase_VarInfo_rect&#45;&gt;SpecializeChainBase_specialize -->
<g id="edge26" class="edge">
<title>SpecializeChainBase_VarInfo_rect&#45;&gt;SpecializeChainBase_specialize</title>
<path fill="none" stroke="black" d="M126.43,-104.57C128.06,-93.14 130.25,-77.84 132.12,-64.74"/>
<polygon fill="black" stroke="black" points="135.58,-65.22 133.53,-54.83 128.65,-64.23 135.58,-65.22"/>
</g>
<!-- SpecializeChainBase_VarInfo_rect&#45;&gt;SpecializeChainBase_replace -->
<g id="edge27" class="edge">
<title>SpecializeChainBase_VarInfo_rect&#45;&gt;SpecializeChainBase_replace</title>
<path fill="none" stroke="black" d="M162.78,-107.81C174.64,-103.87 187.78,-99.78 200,-96.57 285.03,-74.2 385.76,-55.8 445.08,-45.79"/>
<polygon fill="black" stroke="black" points="445.66,-49.24 454.94,-44.13 444.5,-42.33 445.66,-49.24"/>
</g>
<!-- SpecializeChainBase_VarInfo_rect&#45;&gt;SpecializeChainBase_VarInfo -->
<g id="edge28" class="edge">
<title>SpecializeChainBase_VarInfo_rect&#45;&gt;SpecializeChainBase_VarInfo</title>
<path fill="none" stroke="black" d="M161.86,-107.48C173.91,-103.43 187.39,-99.37 200,-96.57 352.94,-62.59 394.66,-74.98 550,-54.57 572.41,-51.62 597.15,-48.13 618.24,-45.08"/>
<polygon fill="black" stroke="black" points="618.88,-48.52 628.27,-43.62 617.88,-41.59 618.88,-48.52"/>
</g>
</g>
</svg>
