<?xml version="1.0" encoding="UTF-8" standalone="no"?>
<!DOCTYPE svg PUBLIC "-//W3C//DTD SVG 1.1//EN"
 "http://www.w3.org/Graphics/SVG/1.1/DTD/svg11.dtd">
<!-- Generated by graphviz version 2.43.0 (0)
 -->
<!-- Title: BATPrinters Pages: 1 -->
<svg width="542pt" height="275pt"
 viewBox="0.00 0.00 542.00 275.00" xmlns="http://www.w3.org/2000/svg" xmlns:xlink="http://www.w3.org/1999/xlink">
<g id="graph0" class="graph" transform="scale(1 1) rotate(0) translate(4 271)">
<title>BATPrinters</title>
<polygon fill="white" stroke="transparent" points="-4,4 -4,-271 538,-271 538,4 -4,4"/>
<g id="clust1" class="cluster">
<title>cluster_BATPrinters</title>
<polygon fill="#ffffc3" stroke="black" points="8.36,-8 8.36,-259 525.64,-259 525.64,-8 8.36,-8"/>
<text text-anchor="middle" x="60.36" y="-243.8" font-family="Times,serif" font-size="14.00">BATPrinters</text>
</g>
<!-- BATPrinters_showSerializedMsg -->
<g id="node1" class="node">
<title>BATPrinters_showSerializedMsg</title>
<g id="a_node1"><a xlink:href="BATPrinters.html#showSerializedMsg" xlink:title="showSerializedMsg">
<ellipse fill="#f070d1" stroke="black" cx="351.58" cy="-202" rx="100.96" ry="18"/>
<ellipse fill="none" stroke="black" cx="351.58" cy="-202" rx="104.97" ry="22"/>
<ellipse fill="none" stroke="black" cx="351.58" cy="-202" rx="108.98" ry="26"/>
<text text-anchor="middle" x="351.58" y="-198.3" font-family="Times,serif" font-size="14.00">showSerializedMsg</text>
</a>
</g>
</g>
<!-- BATPrinters_showBATSetup -->
<g id="node3" class="node">
<title>BATPrinters_showBATSetup</title>
<g id="a_node3"><a xlink:href="BATPrinters.html#showBATSetup" xlink:title="showBATSetup">
<ellipse fill="#f070d1" stroke="black" cx="299.58" cy="-114" rx="80.69" ry="18"/>
<text text-anchor="middle" x="299.58" y="-110.3" font-family="Times,serif" font-size="14.00">showBATSetup</text>
</a>
</g>
</g>
<!-- BATPrinters_showSerializedMsg&#45;&gt;BATPrinters_showBATSetup -->
<g id="edge1" class="edge">
<title>BATPrinters_showSerializedMsg&#45;&gt;BATPrinters_showBATSetup</title>
<path fill="none" stroke="black" d="M336.54,-176.13C329.84,-165.04 321.95,-151.99 315.18,-140.8"/>
<polygon fill="black" stroke="black" points="317.98,-138.67 309.81,-131.92 311.99,-142.29 317.98,-138.67"/>
</g>
<!-- BATPrinters_showMsg -->
<g id="node4" class="node">
<title>BATPrinters_showMsg</title>
<g id="a_node4"><a xlink:href="BATPrinters.html#showMsg" xlink:title="showMsg">
<ellipse fill="#f070d1" stroke="black" cx="459.58" cy="-114" rx="54.69" ry="18"/>
<text text-anchor="middle" x="459.58" y="-110.3" font-family="Times,serif" font-size="14.00">showMsg</text>
</a>
</g>
</g>
<!-- BATPrinters_showSerializedMsg&#45;&gt;BATPrinters_showMsg -->
<g id="edge2" class="edge">
<title>BATPrinters_showSerializedMsg&#45;&gt;BATPrinters_showMsg</title>
<path fill="none" stroke="black" d="M381.95,-176.82C397.53,-164.41 416.39,-149.4 431.61,-137.27"/>
<polygon fill="black" stroke="black" points="434.01,-139.84 439.65,-130.87 429.65,-134.36 434.01,-139.84"/>
</g>
<!-- BATPrinters_showBATState -->
<g id="node2" class="node">
<title>BATPrinters_showBATState</title>
<g id="a_node2"><a xlink:href="BATPrinters.html#showBATState" xlink:title="showBATState">
<ellipse fill="#f070d1" stroke="black" cx="106.58" cy="-114" rx="77.99" ry="18"/>
<ellipse fill="none" stroke="black" cx="106.58" cy="-114" rx="81.99" ry="22"/>
<ellipse fill="none" stroke="black" cx="106.58" cy="-114" rx="85.99" ry="26"/>
<text text-anchor="middle" x="106.58" y="-110.3" font-family="Times,serif" font-size="14.00">showBATState</text>
</a>
</g>
</g>
<!-- BATPrinters_showTokenValue -->
<g id="node5" class="node">
<title>BATPrinters_showTokenValue</title>
<g id="a_node5"><a xlink:href="BATPrinters.html#showTokenValue" xlink:title="showTokenValue">
<ellipse fill="#f070d1" stroke="black" cx="203.58" cy="-34" rx="87.18" ry="18"/>
<text text-anchor="middle" x="203.58" y="-30.3" font-family="Times,serif" font-size="14.00">showTokenValue</text>
</a>
</g>
</g>
<!-- BATPrinters_showBATState&#45;&gt;BATPrinters_showTokenValue -->
<g id="edge3" class="edge">
<title>BATPrinters_showBATState&#45;&gt;BATPrinters_showTokenValue</title>
<path fill="none" stroke="black" d="M135.95,-89.39C148.27,-79.48 162.56,-67.99 174.81,-58.13"/>
<polygon fill="black" stroke="black" points="177.33,-60.6 182.93,-51.61 172.94,-55.15 177.33,-60.6"/>
</g>
<!-- BATPrinters_showBATSetup&#45;&gt;BATPrinters_showTokenValue -->
<g id="edge4" class="edge">
<title>BATPrinters_showBATSetup&#45;&gt;BATPrinters_showTokenValue</title>
<path fill="none" stroke="black" d="M279.22,-96.46C265.48,-85.29 247.14,-70.39 231.97,-58.06"/>
<polygon fill="black" stroke="black" points="233.88,-55.11 223.91,-51.52 229.47,-60.54 233.88,-55.11"/>
</g>
</g>
</svg>
