<?xml version="1.0" encoding="UTF-8" standalone="no"?>
<!DOCTYPE svg PUBLIC "-//W3C//DTD SVG 1.1//EN"
 "http://www.w3.org/Graphics/SVG/1.1/DTD/svg11.dtd">
<!-- Generated by graphviz version 2.43.0 (0)
 -->
<!-- Title: FA2Printers Pages: 1 -->
<svg width="4700pt" height="2354pt"
 viewBox="0.00 0.00 4700.00 2354.00" xmlns="http://www.w3.org/2000/svg" xmlns:xlink="http://www.w3.org/1999/xlink">
<g id="graph0" class="graph" transform="scale(1 1) rotate(0) translate(4 2350)">
<title>FA2Printers</title>
<polygon fill="white" stroke="transparent" points="-4,4 -4,-2350 4696,-2350 4696,4 -4,4"/>
<g id="clust1" class="cluster">
<title>cluster_FA2Printers</title>
<polygon fill="#ffffc3" stroke="black" points="8,-38.86 8,-2307.14 4684,-2307.14 4684,-38.86 8,-38.86"/>
<text text-anchor="middle" x="59" y="-2291.94" font-family="Times,serif" font-size="14.00">FA2Printers</text>
</g>
<!-- FA2Printers_showSerializedMsg -->
<g id="node1" class="node">
<title>FA2Printers_showSerializedMsg</title>
<g id="a_node1"><a xlink:href="FA2Printers.html#showSerializedMsg" xlink:title="showSerializedMsg">
<ellipse fill="#f070d1" stroke="black" cx="2096" cy="-2029.86" rx="100.96" ry="18"/>
<ellipse fill="none" stroke="black" cx="2096" cy="-2029.86" rx="104.97" ry="22"/>
<ellipse fill="none" stroke="black" cx="2096" cy="-2029.86" rx="108.98" ry="26"/>
<text text-anchor="middle" x="2096" y="-2026.16" font-family="Times,serif" font-size="14.00">showSerializedMsg</text>
</a>
</g>
</g>
<!-- FA2Printers_showFA2TransferHookContractSetup -->
<g id="node2" class="node">
<title>FA2Printers_showFA2TransferHookContractSetup</title>
<g id="a_node2"><a xlink:href="FA2Printers.html#showFA2TransferHookContractSetup" xlink:title="showFA2TransferHookContractSetup">
<ellipse fill="#f070d1" stroke="black" cx="1599" cy="-1641.86" rx="183.07" ry="18"/>
<text text-anchor="middle" x="1599" y="-1638.16" font-family="Times,serif" font-size="14.00">showFA2TransferHookContractSetup</text>
</a>
</g>
</g>
<!-- FA2Printers_showSerializedMsg&#45;&gt;FA2Printers_showFA2TransferHookContractSetup -->
<g id="edge1" class="edge">
<title>FA2Printers_showSerializedMsg&#45;&gt;FA2Printers_showFA2TransferHookContractSetup</title>
<path fill="none" stroke="black" d="M2064.91,-2004.71C1975.25,-1935.08 1717.01,-1734.51 1628.88,-1666.07"/>
<polygon fill="black" stroke="black" points="1630.94,-1663.23 1620.9,-1659.86 1626.65,-1668.76 1630.94,-1663.23"/>
</g>
<!-- FA2Printers_showTransferHookMsg -->
<g id="node4" class="node">
<title>FA2Printers_showTransferHookMsg</title>
<g id="a_node4"><a xlink:href="FA2Printers.html#showTransferHookMsg" xlink:title="showTransferHookMsg">
<ellipse fill="#f070d1" stroke="black" cx="1154" cy="-1641.86" rx="118.08" ry="18"/>
<text text-anchor="middle" x="1154" y="-1638.16" font-family="Times,serif" font-size="14.00">showTransferHookMsg</text>
</a>
</g>
</g>
<!-- FA2Printers_showSerializedMsg&#45;&gt;FA2Printers_showTransferHookMsg -->
<g id="edge2" class="edge">
<title>FA2Printers_showSerializedMsg&#45;&gt;FA2Printers_showTransferHookMsg</title>
<path fill="none" stroke="black" d="M2043,-2007.14C1876.2,-1938.79 1363.64,-1728.76 1202.81,-1662.86"/>
<polygon fill="black" stroke="black" points="1203.75,-1659.46 1193.17,-1658.91 1201.1,-1665.94 1203.75,-1659.46"/>
</g>
<!-- FA2Printers_showFA2ClientSetup -->
<g id="node6" class="node">
<title>FA2Printers_showFA2ClientSetup</title>
<g id="a_node6"><a xlink:href="FA2Printers.html#showFA2ClientSetup" xlink:title="showFA2ClientSetup">
<ellipse fill="#f070d1" stroke="black" cx="2033" cy="-1641.86" rx="107.48" ry="18"/>
<text text-anchor="middle" x="2033" y="-1638.16" font-family="Times,serif" font-size="14.00">showFA2ClientSetup</text>
</a>
</g>
</g>
<!-- FA2Printers_showSerializedMsg&#45;&gt;FA2Printers_showFA2ClientSetup -->
<g id="edge3" class="edge">
<title>FA2Printers_showSerializedMsg&#45;&gt;FA2Printers_showFA2ClientSetup</title>
<path fill="none" stroke="black" d="M2091.91,-2003.83C2080.63,-1934.7 2049.11,-1741.56 2037.43,-1669.99"/>
<polygon fill="black" stroke="black" points="2040.86,-1669.27 2035.79,-1659.96 2033.95,-1670.4 2040.86,-1669.27"/>
</g>
<!-- FA2Printers_showFA2ClientContractMsg -->
<g id="node8" class="node">
<title>FA2Printers_showFA2ClientContractMsg</title>
<g id="a_node8"><a xlink:href="FA2Printers.html#showFA2ClientContractMsg" xlink:title="showFA2ClientContractMsg">
<ellipse fill="#f070d1" stroke="black" cx="2369" cy="-1641.86" rx="140.28" ry="18"/>
<text text-anchor="middle" x="2369" y="-1638.16" font-family="Times,serif" font-size="14.00">showFA2ClientContractMsg</text>
</a>
</g>
</g>
<!-- FA2Printers_showSerializedMsg&#45;&gt;FA2Printers_showFA2ClientContractMsg -->
<g id="edge4" class="edge">
<title>FA2Printers_showSerializedMsg&#45;&gt;FA2Printers_showFA2ClientContractMsg</title>
<path fill="none" stroke="black" d="M2113.49,-2004.12C2162.59,-1934.71 2301.3,-1738.59 2351,-1668.31"/>
<polygon fill="black" stroke="black" points="2353.96,-1670.19 2356.87,-1660 2348.24,-1666.14 2353.96,-1670.19"/>
</g>
<!-- FA2Printers_showFA2Setup -->
<g id="node10" class="node">
<title>FA2Printers_showFA2Setup</title>
<g id="a_node10"><a xlink:href="FA2Printers.html#showFA2Setup" xlink:title="showFA2Setup">
<ellipse fill="#f070d1" stroke="black" cx="2159" cy="-1252.86" rx="79.09" ry="18"/>
<text text-anchor="middle" x="2159" y="-1249.16" font-family="Times,serif" font-size="14.00">showFA2Setup</text>
</a>
</g>
</g>
<!-- FA2Printers_showSerializedMsg&#45;&gt;FA2Printers_showFA2Setup -->
<g id="edge5" class="edge">
<title>FA2Printers_showSerializedMsg&#45;&gt;FA2Printers_showFA2Setup</title>
<path fill="none" stroke="black" d="M2100.7,-2003.48C2111.53,-1943.8 2138.11,-1789.81 2149,-1659.86 2160.92,-1517.72 2160.24,-1346.7 2159.44,-1281.2"/>
<polygon fill="black" stroke="black" points="2162.93,-1280.87 2159.3,-1270.91 2155.93,-1280.96 2162.93,-1280.87"/>
</g>
<!-- FA2Printers_showFA2TokenMsg -->
<g id="node13" class="node">
<title>FA2Printers_showFA2TokenMsg</title>
<g id="a_node13"><a xlink:href="FA2Printers.html#showFA2TokenMsg" xlink:title="showFA2TokenMsg">
<ellipse fill="#f070d1" stroke="black" cx="2959" cy="-1641.86" rx="99.38" ry="18"/>
<text text-anchor="middle" x="2959" y="-1638.16" font-family="Times,serif" font-size="14.00">showFA2TokenMsg</text>
</a>
</g>
</g>
<!-- FA2Printers_showSerializedMsg&#45;&gt;FA2Printers_showFA2TokenMsg -->
<g id="edge6" class="edge">
<title>FA2Printers_showSerializedMsg&#45;&gt;FA2Printers_showFA2TokenMsg</title>
<path fill="none" stroke="black" d="M2145.81,-2006.58C2299.83,-1937.69 2766.82,-1728.82 2914.04,-1662.97"/>
<polygon fill="black" stroke="black" points="2915.57,-1666.12 2923.27,-1658.84 2912.71,-1659.73 2915.57,-1666.12"/>
</g>
<!-- FA2Printers_showFA2Interfacepermissions_descriptor -->
<g id="node22" class="node">
<title>FA2Printers_showFA2Interfacepermissions_descriptor</title>
<g id="a_node22"><a xlink:href="FA2Printers.html#showFA2Interfacepermissions_descriptor" xlink:title="showFA2Interfacepermissions_descriptor">
<ellipse fill="#f070d1" stroke="black" cx="935" cy="-864.86" rx="202.26" ry="18"/>
<text text-anchor="middle" x="935" y="-861.16" font-family="Times,serif" font-size="14.00">showFA2Interfacepermissions_descriptor</text>
</a>
</g>
</g>
<!-- FA2Printers_showFA2TransferHookContractSetup&#45;&gt;FA2Printers_showFA2Interfacepermissions_descriptor -->
<g id="edge7" class="edge">
<title>FA2Printers_showFA2TransferHookContractSetup&#45;&gt;FA2Printers_showFA2Interfacepermissions_descriptor</title>
<path fill="none" stroke="black" d="M1582.72,-1623.72C1536.19,-1573.99 1400.66,-1423.9 1319,-1278.86 1306.85,-1257.28 1312.54,-1247.59 1299,-1226.86 1201.95,-1078.2 1035.15,-942.03 966.21,-889.15"/>
<polygon fill="black" stroke="black" points="967.99,-886.1 957.92,-882.82 963.75,-891.67 967.99,-886.1"/>
</g>
<!-- FA2Printers_showFA2TransferHookContractState -->
<g id="node3" class="node">
<title>FA2Printers_showFA2TransferHookContractState</title>
<g id="a_node3"><a xlink:href="FA2Printers.html#showFA2TransferHookContractState" xlink:title="showFA2TransferHookContractState">
<ellipse fill="#f070d1" stroke="black" cx="1873" cy="-1252.86" rx="180.86" ry="18"/>
<ellipse fill="none" stroke="black" cx="1873" cy="-1252.86" rx="184.86" ry="22"/>
<ellipse fill="none" stroke="black" cx="1873" cy="-1252.86" rx="188.87" ry="26"/>
<text text-anchor="middle" x="1873" y="-1249.16" font-family="Times,serif" font-size="14.00">showFA2TransferHookContractState</text>
</a>
</g>
</g>
<!-- FA2Printers_showFA2TransferHookContractState&#45;&gt;FA2Printers_showFA2Interfacepermissions_descriptor -->
<g id="edge8" class="edge">
<title>FA2Printers_showFA2TransferHookContractState&#45;&gt;FA2Printers_showFA2Interfacepermissions_descriptor</title>
<path fill="none" stroke="black" d="M1815.03,-1228C1644.36,-1157.77 1145.61,-952.52 985.27,-886.54"/>
<polygon fill="black" stroke="black" points="986.23,-883.15 975.65,-882.58 983.56,-889.63 986.23,-883.15"/>
</g>
<!-- FA2Printers_showFA2TransferHookMsg -->
<g id="node5" class="node">
<title>FA2Printers_showFA2TransferHookMsg</title>
<g id="a_node5"><a xlink:href="FA2Printers.html#showFA2TransferHookMsg" xlink:title="showFA2TransferHookMsg">
<ellipse fill="#f070d1" stroke="black" cx="1154" cy="-1252.86" rx="135.68" ry="18"/>
<text text-anchor="middle" x="1154" y="-1249.16" font-family="Times,serif" font-size="14.00">showFA2TransferHookMsg</text>
</a>
</g>
</g>
<!-- FA2Printers_showTransferHookMsg&#45;&gt;FA2Printers_showFA2TransferHookMsg -->
<g id="edge9" class="edge">
<title>FA2Printers_showTransferHookMsg&#45;&gt;FA2Printers_showFA2TransferHookMsg</title>
<path fill="none" stroke="black" d="M1154,-1623.73C1154,-1562.8 1154,-1356.22 1154,-1281.29"/>
<polygon fill="black" stroke="black" points="1157.5,-1281.23 1154,-1271.23 1150.5,-1281.23 1157.5,-1281.23"/>
</g>
<!-- FA2Printers_showFA2TransferHook -->
<g id="node14" class="node">
<title>FA2Printers_showFA2TransferHook</title>
<g id="a_node14"><a xlink:href="FA2Printers.html#showFA2TransferHook" xlink:title="showFA2TransferHook">
<ellipse fill="#f070d1" stroke="black" cx="410" cy="-1252.86" rx="115.88" ry="18"/>
<text text-anchor="middle" x="410" y="-1249.16" font-family="Times,serif" font-size="14.00">showFA2TransferHook</text>
</a>
</g>
</g>
<!-- FA2Printers_showTransferHookMsg&#45;&gt;FA2Printers_showFA2TransferHook -->
<g id="edge10" class="edge">
<title>FA2Printers_showTransferHookMsg&#45;&gt;FA2Printers_showFA2TransferHook</title>
<path fill="none" stroke="black" d="M1122.51,-1624.48C1003.8,-1562.73 583.42,-1344.07 450.56,-1274.96"/>
<polygon fill="black" stroke="black" points="451.99,-1271.75 441.5,-1270.24 448.76,-1277.96 451.99,-1271.75"/>
</g>
<!-- FA2Printers_showFA2TransferHookMsg&#45;&gt;FA2Printers_showFA2Interfacepermissions_descriptor -->
<g id="edge11" class="edge">
<title>FA2Printers_showFA2TransferHookMsg&#45;&gt;FA2Printers_showFA2Interfacepermissions_descriptor</title>
<path fill="none" stroke="black" d="M1144.31,-1234.77C1109.69,-1173.75 991.97,-966.27 950.01,-892.31"/>
<polygon fill="black" stroke="black" points="952.81,-890.15 944.83,-883.18 946.72,-893.61 952.81,-890.15"/>
</g>
<!-- FA2Printers_showFA2ClientState -->
<g id="node7" class="node">
<title>FA2Printers_showFA2ClientState</title>
<g id="a_node7"><a xlink:href="FA2Printers.html#showFA2ClientState" xlink:title="showFA2ClientState">
<ellipse fill="#f070d1" stroke="black" cx="1025" cy="-2029.86" rx="104.77" ry="18"/>
<ellipse fill="none" stroke="black" cx="1025" cy="-2029.86" rx="108.78" ry="22"/>
<ellipse fill="none" stroke="black" cx="1025" cy="-2029.86" rx="112.78" ry="26"/>
<text text-anchor="middle" x="1025" y="-2026.16" font-family="Times,serif" font-size="14.00">showFA2ClientState</text>
</a>
</g>
</g>
<!-- FA2Printers_showFA2ClientMsg -->
<g id="node9" class="node">
<title>FA2Printers_showFA2ClientMsg</title>
<g id="a_node9"><a xlink:href="FA2Printers.html#showFA2ClientMsg" xlink:title="showFA2ClientMsg">
<ellipse fill="#f070d1" stroke="black" cx="2600" cy="-1252.86" rx="100.18" ry="18"/>
<text text-anchor="middle" x="2600" y="-1249.16" font-family="Times,serif" font-size="14.00">showFA2ClientMsg</text>
</a>
</g>
</g>
<!-- FA2Printers_showFA2ClientContractMsg&#45;&gt;FA2Printers_showFA2ClientMsg -->
<g id="edge12" class="edge">
<title>FA2Printers_showFA2ClientContractMsg&#45;&gt;FA2Printers_showFA2ClientMsg</title>
<path fill="none" stroke="black" d="M2379.22,-1623.73C2415.9,-1562.29 2540.99,-1352.72 2584.74,-1279.42"/>
<polygon fill="black" stroke="black" points="2587.77,-1281.17 2589.89,-1270.79 2581.76,-1277.58 2587.77,-1281.17"/>
</g>
<!-- FA2Printers_showFA2ReceiverMsg -->
<g id="node15" class="node">
<title>FA2Printers_showFA2ReceiverMsg</title>
<g id="a_node15"><a xlink:href="FA2Printers.html#showFA2ReceiverMsg" xlink:title="showFA2ReceiverMsg">
<ellipse fill="#f070d1" stroke="black" cx="2369" cy="-1252.86" rx="112.38" ry="18"/>
<text text-anchor="middle" x="2369" y="-1249.16" font-family="Times,serif" font-size="14.00">showFA2ReceiverMsg</text>
</a>
</g>
</g>
<!-- FA2Printers_showFA2ClientContractMsg&#45;&gt;FA2Printers_showFA2ReceiverMsg -->
<g id="edge13" class="edge">
<title>FA2Printers_showFA2ClientContractMsg&#45;&gt;FA2Printers_showFA2ReceiverMsg</title>
<path fill="none" stroke="black" d="M2369,-1623.73C2369,-1562.8 2369,-1356.22 2369,-1281.29"/>
<polygon fill="black" stroke="black" points="2372.5,-1281.23 2369,-1271.23 2365.5,-1281.23 2372.5,-1281.23"/>
</g>
<!-- FA2Printers_showFA2ClientMsg&#45;&gt;FA2Printers_showFA2Interfacepermissions_descriptor -->
<g id="edge14" class="edge">
<title>FA2Printers_showFA2ClientMsg&#45;&gt;FA2Printers_showFA2Interfacepermissions_descriptor</title>
<path fill="none" stroke="black" d="M2541.23,-1238.23C2289.42,-1179.86 1301.36,-950.79 1013.87,-884.14"/>
<polygon fill="black" stroke="black" points="1014.47,-880.69 1003.94,-881.84 1012.89,-887.51 1014.47,-880.69"/>
</g>
<!-- FA2Printers_showFA2Interfaceis_operator_param -->
<g id="node26" class="node">
<title>FA2Printers_showFA2Interfaceis_operator_param</title>
<g id="a_node26"><a xlink:href="FA2Printers.html#showFA2Interfaceis_operator_param" xlink:title="showFA2Interfaceis_operator_param">
<ellipse fill="#f070d1" stroke="black" cx="2922" cy="-864.86" rx="180.87" ry="18"/>
<text text-anchor="middle" x="2922" y="-861.16" font-family="Times,serif" font-size="14.00">showFA2Interfaceis_operator_param</text>
</a>
</g>
</g>
<!-- FA2Printers_showFA2ClientMsg&#45;&gt;FA2Printers_showFA2Interfaceis_operator_param -->
<g id="edge15" class="edge">
<title>FA2Printers_showFA2ClientMsg&#45;&gt;FA2Printers_showFA2Interfaceis_operator_param</title>
<path fill="none" stroke="black" d="M2614.04,-1235.02C2664.98,-1173.97 2840.19,-963.92 2901.01,-891.02"/>
<polygon fill="black" stroke="black" points="2903.8,-893.14 2907.52,-883.22 2898.42,-888.66 2903.8,-893.14"/>
</g>
<!-- FA2Printers_showFA2Interfacetoken_metadata -->
<g id="node32" class="node">
<title>FA2Printers_showFA2Interfacetoken_metadata</title>
<g id="a_node32"><a xlink:href="FA2Printers.html#showFA2Interfacetoken_metadata" xlink:title="showFA2Interfacetoken_metadata">
<ellipse fill="#f070d1" stroke="black" cx="1323" cy="-864.86" rx="168.17" ry="18"/>
<text text-anchor="middle" x="1323" y="-861.16" font-family="Times,serif" font-size="14.00">showFA2Interfacetoken_metadata</text>
</a>
</g>
</g>
<!-- FA2Printers_showFA2ClientMsg&#45;&gt;FA2Printers_showFA2Interfacetoken_metadata -->
<g id="edge16" class="edge">
<title>FA2Printers_showFA2ClientMsg&#45;&gt;FA2Printers_showFA2Interfacetoken_metadata</title>
<path fill="none" stroke="black" d="M2551.11,-1237.08C2352.86,-1177.15 1608.83,-952.26 1386.27,-884.98"/>
<polygon fill="black" stroke="black" points="1386.97,-881.54 1376.38,-881.99 1384.94,-888.24 1386.97,-881.54"/>
</g>
<!-- FA2Printers_showFA2Interfacetotal_supply_response -->
<g id="node34" class="node">
<title>FA2Printers_showFA2Interfacetotal_supply_response</title>
<g id="a_node34"><a xlink:href="FA2Printers.html#showFA2Interfacetotal_supply_response" xlink:title="showFA2Interfacetotal_supply_response">
<ellipse fill="#f070d1" stroke="black" cx="2506" cy="-864.86" rx="196.87" ry="18"/>
<text text-anchor="middle" x="2506" y="-861.16" font-family="Times,serif" font-size="14.00">showFA2Interfacetotal_supply_response</text>
</a>
</g>
</g>
<!-- FA2Printers_showFA2ClientMsg&#45;&gt;FA2Printers_showFA2Interfacetotal_supply_response -->
<g id="edge17" class="edge">
<title>FA2Printers_showFA2ClientMsg&#45;&gt;FA2Printers_showFA2Interfacetotal_supply_response</title>
<path fill="none" stroke="black" d="M2595.84,-1234.77C2581.04,-1174 2530.86,-967.96 2512.66,-893.22"/>
<polygon fill="black" stroke="black" points="2515.99,-892.07 2510.22,-883.18 2509.18,-893.73 2515.99,-892.07"/>
</g>
<!-- FA2Printers_showFA2Interfacebalance_of_response -->
<g id="node36" class="node">
<title>FA2Printers_showFA2Interfacebalance_of_response</title>
<g id="a_node36"><a xlink:href="FA2Printers.html#showFA2Interfacebalance_of_response" xlink:title="showFA2Interfacebalance_of_response">
<ellipse fill="#f070d1" stroke="black" cx="2102" cy="-864.86" rx="189.27" ry="18"/>
<text text-anchor="middle" x="2102" y="-861.16" font-family="Times,serif" font-size="14.00">showFA2Interfacebalance_of_response</text>
</a>
</g>
</g>
<!-- FA2Printers_showFA2ClientMsg&#45;&gt;FA2Printers_showFA2Interfacebalance_of_response -->
<g id="edge18" class="edge">
<title>FA2Printers_showFA2ClientMsg&#45;&gt;FA2Printers_showFA2Interfacebalance_of_response</title>
<path fill="none" stroke="black" d="M2578.6,-1235.27C2499.53,-1173.98 2223.66,-960.15 2131.92,-889.05"/>
<polygon fill="black" stroke="black" points="2133.93,-886.18 2123.88,-882.82 2129.64,-891.71 2133.93,-886.18"/>
</g>
<!-- FA2Printers_showFA2Setup&#45;&gt;FA2Printers_showFA2Interfacepermissions_descriptor -->
<g id="edge19" class="edge">
<title>FA2Printers_showFA2Setup&#45;&gt;FA2Printers_showFA2Interfacepermissions_descriptor</title>
<path fill="none" stroke="black" d="M2114.71,-1237.89C1928.99,-1179.32 1212.57,-953.39 996.83,-885.36"/>
<polygon fill="black" stroke="black" points="997.83,-882 987.24,-882.33 995.72,-888.68 997.83,-882"/>
</g>
<!-- FA2Printers_showFA2Setup&#45;&gt;FA2Printers_showFA2Interfacetoken_metadata -->
<g id="edge20" class="edge">
<title>FA2Printers_showFA2Setup&#45;&gt;FA2Printers_showFA2Interfacetoken_metadata</title>
<path fill="none" stroke="black" d="M2125.71,-1236.49C1995.26,-1176.25 1518.66,-956.2 1368.58,-886.9"/>
<polygon fill="black" stroke="black" points="1369.72,-883.57 1359.17,-882.56 1366.78,-889.93 1369.72,-883.57"/>
</g>
<!-- FA2Printers_showFA2State -->
<g id="node11" class="node">
<title>FA2Printers_showFA2State</title>
<g id="a_node11"><a xlink:href="FA2Printers.html#showFA2State" xlink:title="showFA2State">
<ellipse fill="#f070d1" stroke="black" cx="915" cy="-1252.86" rx="77.2" ry="18"/>
<ellipse fill="none" stroke="black" cx="915" cy="-1252.86" rx="81.19" ry="22"/>
<ellipse fill="none" stroke="black" cx="915" cy="-1252.86" rx="85.19" ry="26"/>
<text text-anchor="middle" x="915" y="-1249.16" font-family="Times,serif" font-size="14.00">showFA2State</text>
</a>
</g>
</g>
<!-- FA2Printers_showFA2TokenLedger -->
<g id="node12" class="node">
<title>FA2Printers_showFA2TokenLedger</title>
<g id="a_node12"><a xlink:href="FA2Printers.html#showFA2TokenLedger" xlink:title="showFA2TokenLedger">
<ellipse fill="#f070d1" stroke="black" cx="602" cy="-864.86" rx="112.38" ry="18"/>
<text text-anchor="middle" x="602" y="-861.16" font-family="Times,serif" font-size="14.00">showFA2TokenLedger</text>
</a>
</g>
</g>
<!-- FA2Printers_showFA2State&#45;&gt;FA2Printers_showFA2TokenLedger -->
<g id="edge21" class="edge">
<title>FA2Printers_showFA2State&#45;&gt;FA2Printers_showFA2TokenLedger</title>
<path fill="none" stroke="black" d="M895.18,-1227.42C839.01,-1158.14 679.14,-960.99 622.33,-890.93"/>
<polygon fill="black" stroke="black" points="624.95,-888.6 615.93,-883.04 619.51,-893.01 624.95,-888.6"/>
</g>
<!-- FA2Printers_showFA2State&#45;&gt;FA2Printers_showFA2Interfacepermissions_descriptor -->
<g id="edge22" class="edge">
<title>FA2Printers_showFA2State&#45;&gt;FA2Printers_showFA2Interfacepermissions_descriptor</title>
<path fill="none" stroke="black" d="M916.3,-1226.83C919.88,-1157.7 929.89,-964.56 933.59,-892.99"/>
<polygon fill="black" stroke="black" points="937.09,-893.13 934.11,-882.96 930.1,-892.77 937.09,-893.13"/>
</g>
<!-- FA2Printers_showoperator_tokens -->
<g id="node30" class="node">
<title>FA2Printers_showoperator_tokens</title>
<g id="a_node30"><a xlink:href="FA2Printers.html#showoperator_tokens" xlink:title="showoperator_tokens">
<ellipse fill="#f070d1" stroke="black" cx="1163" cy="-164.86" rx="109.68" ry="18"/>
<text text-anchor="middle" x="1163" y="-161.16" font-family="Times,serif" font-size="14.00">showoperator_tokens</text>
</a>
</g>
</g>
<!-- FA2Printers_showFA2State&#45;&gt;FA2Printers_showoperator_tokens -->
<g id="edge23" class="edge">
<title>FA2Printers_showFA2State&#45;&gt;FA2Printers_showoperator_tokens</title>
<path fill="none" stroke="black" d="M870.21,-1230.63C776.78,-1183.51 562.97,-1060.15 481,-882.86 470.61,-860.38 388.03,-652.53 487,-496.86 619.19,-288.94 923.34,-207.74 1074.46,-179.38"/>
<polygon fill="black" stroke="black" points="1075.43,-182.76 1084.63,-177.51 1074.16,-175.88 1075.43,-182.76"/>
</g>
<!-- FA2Printers_showFA2State&#45;&gt;FA2Printers_showFA2Interfacetoken_metadata -->
<g id="edge24" class="edge">
<title>FA2Printers_showFA2State&#45;&gt;FA2Printers_showFA2Interfacetoken_metadata</title>
<path fill="none" stroke="black" d="M940.21,-1228C1013.13,-1159.02 1223.72,-959.78 1297.28,-890.19"/>
<polygon fill="black" stroke="black" points="1299.9,-892.53 1304.76,-883.11 1295.09,-887.44 1299.9,-892.53"/>
</g>
<!-- FA2Printers_showFA2Interfaceset_hook_param -->
<g id="node16" class="node">
<title>FA2Printers_showFA2Interfaceset_hook_param</title>
<g id="a_node16"><a xlink:href="FA2Printers.html#showFA2Interfaceset_hook_param" xlink:title="showFA2Interfaceset_hook_param">
<ellipse fill="#f070d1" stroke="black" cx="1497" cy="-1252.86" rx="168.97" ry="18"/>
<text text-anchor="middle" x="1497" y="-1249.16" font-family="Times,serif" font-size="14.00">showFA2Interfaceset_hook_param</text>
</a>
</g>
</g>
<!-- FA2Printers_showFA2TokenMsg&#45;&gt;FA2Printers_showFA2Interfaceset_hook_param -->
<g id="edge25" class="edge">
<title>FA2Printers_showFA2TokenMsg&#45;&gt;FA2Printers_showFA2Interfaceset_hook_param</title>
<path fill="none" stroke="black" d="M2905.23,-1626.62C2680.91,-1567.25 1819.6,-1339.25 1567.01,-1272.39"/>
<polygon fill="black" stroke="black" points="1567.78,-1268.97 1557.22,-1269.8 1565.99,-1275.74 1567.78,-1268.97"/>
</g>
<!-- FA2Printers_showFA2Interfacetransfer_descriptor_param -->
<g id="node19" class="node">
<title>FA2Printers_showFA2Interfacetransfer_descriptor_param</title>
<g id="a_node19"><a xlink:href="FA2Printers.html#showFA2Interfacetransfer_descriptor_param" xlink:title="showFA2Interfacetransfer_descriptor_param">
<ellipse fill="#f070d1" stroke="black" cx="234" cy="-864.86" rx="217.96" ry="18"/>
<text text-anchor="middle" x="234" y="-861.16" font-family="Times,serif" font-size="14.00">showFA2Interfacetransfer_descriptor_param</text>
</a>
</g>
</g>
<!-- FA2Printers_showFA2TokenMsg&#45;&gt;FA2Printers_showFA2Interfacetransfer_descriptor_param -->
<g id="edge26" class="edge">
<title>FA2Printers_showFA2TokenMsg&#45;&gt;FA2Printers_showFA2Interfacetransfer_descriptor_param</title>
<path fill="none" stroke="black" d="M2872.32,-1632.98C2463.55,-1595.14 740.48,-1427.79 555,-1278.86 535.69,-1263.35 547.54,-1248.21 535,-1226.86 452.5,-1086.41 315.65,-945.5 259.37,-890.24"/>
<polygon fill="black" stroke="black" points="261.58,-887.51 251.98,-883.02 256.69,-892.51 261.58,-887.51"/>
</g>
<!-- FA2Printers_showFA2TokenMsg&#45;&gt;FA2Printers_showFA2Interfaceis_operator_param -->
<g id="edge27" class="edge">
<title>FA2Printers_showFA2TokenMsg&#45;&gt;FA2Printers_showFA2Interfaceis_operator_param</title>
<path fill="none" stroke="black" d="M2958.89,-1623.49C2958.48,-1566.58 2956.6,-1380.53 2949,-1226.86 2942.84,-1102.17 2929.98,-953.63 2924.53,-893.33"/>
<polygon fill="black" stroke="black" points="2927.99,-892.76 2923.6,-883.12 2921.02,-893.4 2927.99,-892.76"/>
</g>
<!-- FA2Printers_showupdate_operator -->
<g id="node28" class="node">
<title>FA2Printers_showupdate_operator</title>
<g id="a_node28"><a xlink:href="FA2Printers.html#showupdate_operator" xlink:title="showupdate_operator">
<ellipse fill="#f070d1" stroke="black" cx="2829" cy="-1252.86" rx="111.28" ry="18"/>
<text text-anchor="middle" x="2829" y="-1249.16" font-family="Times,serif" font-size="14.00">showupdate_operator</text>
</a>
</g>
</g>
<!-- FA2Printers_showFA2TokenMsg&#45;&gt;FA2Printers_showupdate_operator -->
<g id="edge28" class="edge">
<title>FA2Printers_showFA2TokenMsg&#45;&gt;FA2Printers_showupdate_operator</title>
<path fill="none" stroke="black" d="M2953.25,-1623.73C2932.74,-1562.68 2863.1,-1355.38 2838.06,-1280.83"/>
<polygon fill="black" stroke="black" points="2841.34,-1279.59 2834.83,-1271.23 2834.7,-1281.82 2841.34,-1279.59"/>
</g>
<!-- FA2Printers_showFA2Interfacetoken_metadata_param -->
<g id="node31" class="node">
<title>FA2Printers_showFA2Interfacetoken_metadata_param</title>
<g id="a_node31"><a xlink:href="FA2Printers.html#showFA2Interfacetoken_metadata_param" xlink:title="showFA2Interfacetoken_metadata_param">
<ellipse fill="#f070d1" stroke="black" cx="3694" cy="-864.86" rx="202.26" ry="18"/>
<text text-anchor="middle" x="3694" y="-861.16" font-family="Times,serif" font-size="14.00">showFA2Interfacetoken_metadata_param</text>
</a>
</g>
</g>
<!-- FA2Printers_showFA2TokenMsg&#45;&gt;FA2Printers_showFA2Interfacetoken_metadata_param -->
<g id="edge29" class="edge">
<title>FA2Printers_showFA2TokenMsg&#45;&gt;FA2Printers_showFA2Interfacetoken_metadata_param</title>
<path fill="none" stroke="black" d="M2975.04,-1623.95C3069.95,-1523.87 3557.85,-1009.42 3670.69,-890.44"/>
<polygon fill="black" stroke="black" points="3673.52,-892.54 3677.86,-882.87 3668.44,-887.72 3673.52,-892.54"/>
</g>
<!-- FA2Printers_showFA2Interfacetotal_supply_param -->
<g id="node33" class="node">
<title>FA2Printers_showFA2Interfacetotal_supply_param</title>
<g id="a_node33"><a xlink:href="FA2Printers.html#showFA2Interfacetotal_supply_param" xlink:title="showFA2Interfacetotal_supply_param">
<ellipse fill="#f070d1" stroke="black" cx="4099" cy="-864.86" rx="184.67" ry="18"/>
<text text-anchor="middle" x="4099" y="-861.16" font-family="Times,serif" font-size="14.00">showFA2Interfacetotal_supply_param</text>
</a>
</g>
</g>
<!-- FA2Printers_showFA2TokenMsg&#45;&gt;FA2Printers_showFA2Interfacetotal_supply_param -->
<g id="edge30" class="edge">
<title>FA2Printers_showFA2TokenMsg&#45;&gt;FA2Printers_showFA2Interfacetotal_supply_param</title>
<path fill="none" stroke="black" d="M2983.34,-1624.31C3130.03,-1524.59 3895.75,-1004.03 4065.6,-888.56"/>
<polygon fill="black" stroke="black" points="4067.61,-891.43 4073.92,-882.91 4063.68,-885.64 4067.61,-891.43"/>
</g>
<!-- FA2Printers_showFA2Interfacebalance_of_param -->
<g id="node35" class="node">
<title>FA2Printers_showFA2Interfacebalance_of_param</title>
<g id="a_node35"><a xlink:href="FA2Printers.html#showFA2Interfacebalance_of_param" xlink:title="showFA2Interfacebalance_of_param">
<ellipse fill="#f070d1" stroke="black" cx="3297" cy="-864.86" rx="176.57" ry="18"/>
<text text-anchor="middle" x="3297" y="-861.16" font-family="Times,serif" font-size="14.00">showFA2Interfacebalance_of_param</text>
</a>
</g>
</g>
<!-- FA2Printers_showFA2TokenMsg&#45;&gt;FA2Printers_showFA2Interfacebalance_of_param -->
<g id="edge31" class="edge">
<title>FA2Printers_showFA2TokenMsg&#45;&gt;FA2Printers_showFA2Interfacebalance_of_param</title>
<path fill="none" stroke="black" d="M2966.53,-1623.58C3010.3,-1523.22 3231.8,-1015.35 3285.34,-892.59"/>
<polygon fill="black" stroke="black" points="3288.66,-893.74 3289.45,-883.17 3282.24,-890.94 3288.66,-893.74"/>
</g>
<!-- FA2Printers_showFA2InterfaceTransfer -->
<g id="node38" class="node">
<title>FA2Printers_showFA2InterfaceTransfer</title>
<g id="a_node38"><a xlink:href="FA2Printers.html#showFA2InterfaceTransfer" xlink:title="showFA2InterfaceTransfer">
<ellipse fill="#f070d1" stroke="black" cx="4207" cy="-1252.86" rx="133.78" ry="18"/>
<text text-anchor="middle" x="4207" y="-1249.16" font-family="Times,serif" font-size="14.00">showFA2InterfaceTransfer</text>
</a>
</g>
</g>
<!-- FA2Printers_showFA2TokenMsg&#45;&gt;FA2Printers_showFA2InterfaceTransfer -->
<g id="edge32" class="edge">
<title>FA2Printers_showFA2TokenMsg&#45;&gt;FA2Printers_showFA2InterfaceTransfer</title>
<path fill="none" stroke="black" d="M3006.78,-1626.04C3200.97,-1565.82 3930.96,-1339.46 4146.64,-1272.58"/>
<polygon fill="black" stroke="black" points="4147.7,-1275.91 4156.21,-1269.61 4145.63,-1269.22 4147.7,-1275.91"/>
</g>
<!-- FA2Printers_showFA2TransferHook&#45;&gt;FA2Printers_showFA2Interfacetransfer_descriptor_param -->
<g id="edge33" class="edge">
<title>FA2Printers_showFA2TransferHook&#45;&gt;FA2Printers_showFA2Interfacetransfer_descriptor_param</title>
<path fill="none" stroke="black" d="M402.21,-1234.77C374.39,-1173.75 279.78,-966.27 246.06,-892.31"/>
<polygon fill="black" stroke="black" points="249.23,-890.83 241.9,-883.18 242.86,-893.73 249.23,-890.83"/>
</g>
<!-- FA2Printers_showFA2ReceiverMsg&#45;&gt;FA2Printers_showFA2Interfacepermissions_descriptor -->
<g id="edge34" class="edge">
<title>FA2Printers_showFA2ReceiverMsg&#45;&gt;FA2Printers_showFA2Interfacepermissions_descriptor</title>
<path fill="none" stroke="black" d="M2314.1,-1237.08C2091.27,-1177.1 1254.44,-951.84 1005.36,-884.8"/>
<polygon fill="black" stroke="black" points="1005.91,-881.32 995.35,-882.1 1004.1,-888.08 1005.91,-881.32"/>
</g>
<!-- FA2Printers_showFA2Interfaceis_operator_response -->
<g id="node27" class="node">
<title>FA2Printers_showFA2Interfaceis_operator_response</title>
<g id="a_node27"><a xlink:href="FA2Printers.html#showFA2Interfaceis_operator_response" xlink:title="showFA2Interfaceis_operator_response">
<ellipse fill="#f070d1" stroke="black" cx="1702" cy="-864.86" rx="192.27" ry="18"/>
<text text-anchor="middle" x="1702" y="-861.16" font-family="Times,serif" font-size="14.00">showFA2Interfaceis_operator_response</text>
</a>
</g>
</g>
<!-- FA2Printers_showFA2ReceiverMsg&#45;&gt;FA2Printers_showFA2Interfaceis_operator_response -->
<g id="edge35" class="edge">
<title>FA2Printers_showFA2ReceiverMsg&#45;&gt;FA2Printers_showFA2Interfaceis_operator_response</title>
<path fill="none" stroke="black" d="M2340.34,-1235.27C2233.9,-1173.67 1861.21,-958 1740.24,-887.99"/>
<polygon fill="black" stroke="black" points="1741.71,-884.8 1731.3,-882.82 1738.21,-890.85 1741.71,-884.8"/>
</g>
<!-- FA2Printers_showFA2ReceiverMsg&#45;&gt;FA2Printers_showFA2Interfacetoken_metadata -->
<g id="edge36" class="edge">
<title>FA2Printers_showFA2ReceiverMsg&#45;&gt;FA2Printers_showFA2Interfacetoken_metadata</title>
<path fill="none" stroke="black" d="M2326.37,-1236.13C2160.86,-1175.05 1560.94,-953.66 1376.99,-885.78"/>
<polygon fill="black" stroke="black" points="1378.12,-882.47 1367.52,-882.29 1375.69,-889.03 1378.12,-882.47"/>
</g>
<!-- FA2Printers_showFA2ReceiverMsg&#45;&gt;FA2Printers_showFA2Interfacetotal_supply_response -->
<g id="edge37" class="edge">
<title>FA2Printers_showFA2ReceiverMsg&#45;&gt;FA2Printers_showFA2Interfacetotal_supply_response</title>
<path fill="none" stroke="black" d="M2375.06,-1234.77C2396.68,-1173.88 2470.06,-967.12 2496.45,-892.77"/>
<polygon fill="black" stroke="black" points="2499.8,-893.78 2499.85,-883.18 2493.21,-891.44 2499.8,-893.78"/>
</g>
<!-- FA2Printers_showFA2ReceiverMsg&#45;&gt;FA2Printers_showFA2Interfacebalance_of_response -->
<g id="edge38" class="edge">
<title>FA2Printers_showFA2ReceiverMsg&#45;&gt;FA2Printers_showFA2Interfacebalance_of_response</title>
<path fill="none" stroke="black" d="M2357.18,-1234.77C2314.8,-1173.5 2170.28,-964.57 2119.68,-891.41"/>
<polygon fill="black" stroke="black" points="2122.55,-889.41 2113.98,-883.18 2116.79,-893.4 2122.55,-889.41"/>
</g>
<!-- FA2Printers_showFA2Interfaceset_hook_param&#45;&gt;FA2Printers_showFA2Interfacepermissions_descriptor -->
<g id="edge39" class="edge">
<title>FA2Printers_showFA2Interfaceset_hook_param&#45;&gt;FA2Printers_showFA2Interfacepermissions_descriptor</title>
<path fill="none" stroke="black" d="M1472.49,-1235.02C1382.58,-1173.27 1070.76,-959.1 968.07,-888.57"/>
<polygon fill="black" stroke="black" points="969.86,-885.56 959.64,-882.78 965.9,-891.33 969.86,-885.56"/>
</g>
<!-- FA2Printers_showfa2_token_sender -->
<g id="node17" class="node">
<title>FA2Printers_showfa2_token_sender</title>
<g id="a_node17"><a xlink:href="FA2Printers.html#showfa2_token_sender" xlink:title="showfa2_token_sender">
<ellipse fill="#f070d1" stroke="black" cx="688" cy="-1252.86" rx="115.87" ry="18"/>
<ellipse fill="none" stroke="black" cx="688" cy="-1252.86" rx="119.87" ry="22"/>
<ellipse fill="none" stroke="black" cx="688" cy="-1252.86" rx="123.88" ry="26"/>
<text text-anchor="middle" x="688" y="-1249.16" font-family="Times,serif" font-size="14.00">showfa2_token_sender</text>
</a>
</g>
</g>
<!-- FA2Printers_showfa2_token_sender&#45;&gt;FA2Printers_showFA2Interfacetransfer_descriptor_param -->
<g id="edge40" class="edge">
<title>FA2Printers_showfa2_token_sender&#45;&gt;FA2Printers_showFA2Interfacetransfer_descriptor_param</title>
<path fill="none" stroke="black" d="M659.26,-1227.42C577.19,-1157.64 342.52,-958.12 261.73,-889.43"/>
<polygon fill="black" stroke="black" points="263.84,-886.64 253.96,-882.83 259.31,-891.97 263.84,-886.64"/>
</g>
<!-- FA2Printers_showfa2_token_receiver -->
<g id="node18" class="node">
<title>FA2Printers_showfa2_token_receiver</title>
<g id="a_node18"><a xlink:href="FA2Printers.html#showfa2_token_receiver" xlink:title="showfa2_token_receiver">
<ellipse fill="#f070d1" stroke="black" cx="146" cy="-1252.86" rx="122.37" ry="18"/>
<ellipse fill="none" stroke="black" cx="146" cy="-1252.86" rx="126.37" ry="22"/>
<ellipse fill="none" stroke="black" cx="146" cy="-1252.86" rx="130.38" ry="26"/>
<text text-anchor="middle" x="146" y="-1249.16" font-family="Times,serif" font-size="14.00">showfa2_token_receiver</text>
</a>
</g>
</g>
<!-- FA2Printers_showfa2_token_receiver&#45;&gt;FA2Printers_showFA2Interfacetransfer_descriptor_param -->
<g id="edge41" class="edge">
<title>FA2Printers_showfa2_token_receiver&#45;&gt;FA2Printers_showFA2Interfacetransfer_descriptor_param</title>
<path fill="none" stroke="black" d="M151.71,-1226.83C167.46,-1157.7 211.5,-964.56 227.81,-892.99"/>
<polygon fill="black" stroke="black" points="231.29,-893.49 230.1,-882.96 224.46,-891.94 231.29,-893.49"/>
</g>
<!-- FA2Printers_showFA2Interfacetransfer_descriptor -->
<g id="node20" class="node">
<title>FA2Printers_showFA2Interfacetransfer_descriptor</title>
<g id="a_node20"><a xlink:href="FA2Printers.html#showFA2Interfacetransfer_descriptor" xlink:title="showFA2Interfacetransfer_descriptor">
<ellipse fill="#f070d1" stroke="black" cx="245" cy="-514.86" rx="183.87" ry="18"/>
<text text-anchor="middle" x="245" y="-511.16" font-family="Times,serif" font-size="14.00">showFA2Interfacetransfer_descriptor</text>
</a>
</g>
</g>
<!-- FA2Printers_showFA2Interfacetransfer_descriptor_param&#45;&gt;FA2Printers_showFA2Interfacetransfer_descriptor -->
<g id="edge42" class="edge">
<title>FA2Printers_showFA2Interfacetransfer_descriptor_param&#45;&gt;FA2Printers_showFA2Interfacetransfer_descriptor</title>
<path fill="none" stroke="black" d="M234.55,-846.6C236.32,-790.36 241.96,-612.05 244.13,-543.28"/>
<polygon fill="black" stroke="black" points="247.63,-543.32 244.45,-533.22 240.64,-543.1 247.63,-543.32"/>
</g>
<!-- FA2Printers_showFA2Interfacetransfer_destination_descriptor -->
<g id="node21" class="node">
<title>FA2Printers_showFA2Interfacetransfer_destination_descriptor</title>
<g id="a_node21"><a xlink:href="FA2Printers.html#showFA2Interfacetransfer_destination_descriptor" xlink:title="showFA2Interfacetransfer_destination_descriptor">
<ellipse fill="#f070d1" stroke="black" cx="256" cy="-164.86" rx="240.46" ry="18"/>
<text text-anchor="middle" x="256" y="-161.16" font-family="Times,serif" font-size="14.00">showFA2Interfacetransfer_destination_descriptor</text>
</a>
</g>
</g>
<!-- FA2Printers_showFA2Interfacetransfer_descriptor&#45;&gt;FA2Printers_showFA2Interfacetransfer_destination_descriptor -->
<g id="edge43" class="edge">
<title>FA2Printers_showFA2Interfacetransfer_descriptor&#45;&gt;FA2Printers_showFA2Interfacetransfer_destination_descriptor</title>
<path fill="none" stroke="black" d="M245.55,-496.6C247.32,-440.36 252.96,-262.05 255.13,-193.28"/>
<polygon fill="black" stroke="black" points="258.63,-193.32 255.45,-183.22 251.64,-193.1 258.63,-193.32"/>
</g>
<!-- FA2Printers_showowner_transfer_policy -->
<g id="node23" class="node">
<title>FA2Printers_showowner_transfer_policy</title>
<g id="a_node23"><a xlink:href="FA2Printers.html#showowner_transfer_policy" xlink:title="showowner_transfer_policy">
<ellipse fill="#f070d1" stroke="black" cx="1215" cy="-514.86" rx="137.28" ry="18"/>
<text text-anchor="middle" x="1215" y="-511.16" font-family="Times,serif" font-size="14.00">showowner_transfer_policy</text>
</a>
</g>
</g>
<!-- FA2Printers_showFA2Interfacepermissions_descriptor&#45;&gt;FA2Printers_showowner_transfer_policy -->
<g id="edge44" class="edge">
<title>FA2Printers_showFA2Interfacepermissions_descriptor&#45;&gt;FA2Printers_showowner_transfer_policy</title>
<path fill="none" stroke="black" d="M948.89,-846.6C994.71,-789.65 1141.24,-607.53 1194.99,-540.73"/>
<polygon fill="black" stroke="black" points="1197.82,-542.79 1201.36,-532.81 1192.37,-538.41 1197.82,-542.79"/>
</g>
<!-- FA2Printers_showoperator_transfer_policy -->
<g id="node24" class="node">
<title>FA2Printers_showoperator_transfer_policy</title>
<g id="a_node24"><a xlink:href="FA2Printers.html#showoperator_transfer_policy" xlink:title="showoperator_transfer_policy">
<ellipse fill="#f070d1" stroke="black" cx="644" cy="-514.86" rx="148.37" ry="18"/>
<text text-anchor="middle" x="644" y="-511.16" font-family="Times,serif" font-size="14.00">showoperator_transfer_policy</text>
</a>
</g>
</g>
<!-- FA2Printers_showFA2Interfacepermissions_descriptor&#45;&gt;FA2Printers_showoperator_transfer_policy -->
<g id="edge45" class="edge">
<title>FA2Printers_showFA2Interfacepermissions_descriptor&#45;&gt;FA2Printers_showoperator_transfer_policy</title>
<path fill="none" stroke="black" d="M920.57,-846.6C872.95,-789.65 720.66,-607.53 664.8,-540.73"/>
<polygon fill="black" stroke="black" points="667.27,-538.23 658.17,-532.81 661.9,-542.72 667.27,-538.23"/>
</g>
<!-- FA2Printers_showself_transfer_policy -->
<g id="node25" class="node">
<title>FA2Printers_showself_transfer_policy</title>
<g id="a_node25"><a xlink:href="FA2Printers.html#showself_transfer_policy" xlink:title="showself_transfer_policy">
<ellipse fill="#f070d1" stroke="black" cx="935" cy="-514.86" rx="124.58" ry="18"/>
<text text-anchor="middle" x="935" y="-511.16" font-family="Times,serif" font-size="14.00">showself_transfer_policy</text>
</a>
</g>
</g>
<!-- FA2Printers_showFA2Interfacepermissions_descriptor&#45;&gt;FA2Printers_showself_transfer_policy -->
<g id="edge46" class="edge">
<title>FA2Printers_showFA2Interfacepermissions_descriptor&#45;&gt;FA2Printers_showself_transfer_policy</title>
<path fill="none" stroke="black" d="M935,-846.6C935,-790.36 935,-612.05 935,-543.28"/>
<polygon fill="black" stroke="black" points="938.5,-543.22 935,-533.22 931.5,-543.22 938.5,-543.22"/>
</g>
<!-- FA2Printers_showFA2Interfaceoperator_param -->
<g id="node29" class="node">
<title>FA2Printers_showFA2Interfaceoperator_param</title>
<g id="a_node29"><a xlink:href="FA2Printers.html#showFA2Interfaceoperator_param" xlink:title="showFA2Interfaceoperator_param">
<ellipse fill="#f070d1" stroke="black" cx="1717" cy="-514.86" rx="168.17" ry="18"/>
<text text-anchor="middle" x="1717" y="-511.16" font-family="Times,serif" font-size="14.00">showFA2Interfaceoperator_param</text>
</a>
</g>
</g>
<!-- FA2Printers_showFA2Interfaceis_operator_param&#45;&gt;FA2Printers_showFA2Interfaceoperator_param -->
<g id="edge47" class="edge">
<title>FA2Printers_showFA2Interfaceis_operator_param&#45;&gt;FA2Printers_showFA2Interfaceoperator_param</title>
<path fill="none" stroke="black" d="M2865.9,-847.65C2666.83,-790.17 1994.94,-596.12 1782.18,-534.68"/>
<polygon fill="black" stroke="black" points="1782.98,-531.27 1772.4,-531.86 1781.04,-537.99 1782.98,-531.27"/>
</g>
<!-- FA2Printers_showCallback -->
<g id="node40" class="node">
<title>FA2Printers_showCallback</title>
<g id="a_node40"><a xlink:href="FA2Printers.html#showCallback" xlink:title="showCallback">
<ellipse fill="#f070d1" stroke="black" cx="3495" cy="-514.86" rx="74.19" ry="18"/>
<text text-anchor="middle" x="3495" y="-511.16" font-family="Times,serif" font-size="14.00">showCallback</text>
</a>
</g>
</g>
<!-- FA2Printers_showFA2Interfaceis_operator_param&#45;&gt;FA2Printers_showCallback -->
<g id="edge48" class="edge">
<title>FA2Printers_showFA2Interfaceis_operator_param&#45;&gt;FA2Printers_showCallback</title>
<path fill="none" stroke="black" d="M2950.02,-846.84C3045.11,-789.09 3355.29,-600.71 3460.06,-537.08"/>
<polygon fill="black" stroke="black" points="3461.96,-540.02 3468.69,-531.84 3458.33,-534.04 3461.96,-540.02"/>
</g>
<!-- FA2Printers_showFA2Interfaceis_operator_response&#45;&gt;FA2Printers_showFA2Interfaceoperator_param -->
<g id="edge49" class="edge">
<title>FA2Printers_showFA2Interfaceis_operator_response&#45;&gt;FA2Printers_showFA2Interfaceoperator_param</title>
<path fill="none" stroke="black" d="M1702.74,-846.6C1705.17,-790.36 1712.85,-612.05 1715.82,-543.28"/>
<polygon fill="black" stroke="black" points="1719.32,-543.36 1716.25,-533.22 1712.32,-543.06 1719.32,-543.36"/>
</g>
<!-- FA2Printers_showupdate_operator&#45;&gt;FA2Printers_showFA2Interfaceoperator_param -->
<g id="edge50" class="edge">
<title>FA2Printers_showupdate_operator&#45;&gt;FA2Printers_showFA2Interfaceoperator_param</title>
<path fill="none" stroke="black" d="M2824.96,-1234.37C2807.76,-1160.48 2740.21,-876.21 2712,-846.86 2487.62,-613.34 2094.62,-544.53 1875.7,-524.28"/>
<polygon fill="black" stroke="black" points="1876,-520.79 1865.73,-523.38 1875.37,-527.76 1876,-520.79"/>
</g>
<!-- FA2Printers_showFA2Interfaceoperator_param&#45;&gt;FA2Printers_showoperator_tokens -->
<g id="edge51" class="edge">
<title>FA2Printers_showFA2Interfaceoperator_param&#45;&gt;FA2Printers_showoperator_tokens</title>
<path fill="none" stroke="black" d="M1690.28,-497.07C1599.22,-439.87 1301.03,-252.56 1198.22,-187.98"/>
<polygon fill="black" stroke="black" points="1199.78,-184.83 1189.45,-182.47 1196.06,-190.76 1199.78,-184.83"/>
</g>
<!-- FA2Printers_showFA2Interfacetoken_metadata_param&#45;&gt;FA2Printers_showCallback -->
<g id="edge52" class="edge">
<title>FA2Printers_showFA2Interfacetoken_metadata_param&#45;&gt;FA2Printers_showCallback</title>
<path fill="none" stroke="black" d="M3684.13,-846.6C3651.7,-789.88 3548.27,-609.01 3509.69,-541.55"/>
<polygon fill="black" stroke="black" points="3512.7,-539.75 3504.69,-532.81 3506.62,-543.23 3512.7,-539.75"/>
</g>
<!-- FA2Printers_showFA2Interfacetotal_supply_param&#45;&gt;FA2Printers_showCallback -->
<g id="edge53" class="edge">
<title>FA2Printers_showFA2Interfacetotal_supply_param&#45;&gt;FA2Printers_showCallback</title>
<path fill="none" stroke="black" d="M4069.87,-847.07C3969.94,-789.5 3641.16,-600.07 3531.19,-536.71"/>
<polygon fill="black" stroke="black" points="3532.86,-533.63 3522.45,-531.67 3529.37,-539.7 3532.86,-533.63"/>
</g>
<!-- FA2Printers_showFA2Interfacebalance_of_request -->
<g id="node37" class="node">
<title>FA2Printers_showFA2Interfacebalance_of_request</title>
<g id="a_node37"><a xlink:href="FA2Printers.html#showFA2Interfacebalance_of_request" xlink:title="showFA2Interfacebalance_of_request">
<ellipse fill="#f070d1" stroke="black" cx="2661" cy="-514.86" rx="182.77" ry="18"/>
<text text-anchor="middle" x="2661" y="-511.16" font-family="Times,serif" font-size="14.00">showFA2Interfacebalance_of_request</text>
</a>
</g>
</g>
<!-- FA2Printers_showFA2Interfacebalance_of_param&#45;&gt;FA2Printers_showFA2Interfacebalance_of_request -->
<g id="edge54" class="edge">
<title>FA2Printers_showFA2Interfacebalance_of_param&#45;&gt;FA2Printers_showFA2Interfacebalance_of_request</title>
<path fill="none" stroke="black" d="M3266.32,-847.07C3161.6,-789.77 2818.18,-601.86 2700.77,-537.62"/>
<polygon fill="black" stroke="black" points="2702.19,-534.41 2691.74,-532.68 2698.83,-540.55 2702.19,-534.41"/>
</g>
<!-- FA2Printers_showFA2Interfacebalance_of_param&#45;&gt;FA2Printers_showCallback -->
<g id="edge55" class="edge">
<title>FA2Printers_showFA2Interfacebalance_of_param&#45;&gt;FA2Printers_showCallback</title>
<path fill="none" stroke="black" d="M3306.82,-846.6C3339.09,-789.88 3442,-609.01 3480.38,-541.55"/>
<polygon fill="black" stroke="black" points="3483.45,-543.23 3485.36,-532.81 3477.37,-539.77 3483.45,-543.23"/>
</g>
<!-- FA2Printers_showFA2Interfacebalance_of_response&#45;&gt;FA2Printers_showFA2Interfacebalance_of_request -->
<g id="edge56" class="edge">
<title>FA2Printers_showFA2Interfacebalance_of_response&#45;&gt;FA2Printers_showFA2Interfacebalance_of_request</title>
<path fill="none" stroke="black" d="M2129.34,-846.84C2221.57,-789.42 2521.24,-602.87 2625.14,-538.18"/>
<polygon fill="black" stroke="black" points="2627.07,-541.1 2633.71,-532.84 2623.37,-535.16 2627.07,-541.1"/>
</g>
<!-- FA2Printers_showFA2InterfaceTransferDestination -->
<g id="node39" class="node">
<title>FA2Printers_showFA2InterfaceTransferDestination</title>
<g id="a_node39"><a xlink:href="FA2Printers.html#showFA2InterfaceTransferDestination" xlink:title="showFA2InterfaceTransferDestination">
<ellipse fill="#f070d1" stroke="black" cx="4489" cy="-864.86" rx="187.37" ry="18"/>
<text text-anchor="middle" x="4489" y="-861.16" font-family="Times,serif" font-size="14.00">showFA2InterfaceTransferDestination</text>
</a>
</g>
</g>
<!-- FA2Printers_showFA2InterfaceTransfer&#45;&gt;FA2Printers_showFA2InterfaceTransferDestination -->
<g id="edge57" class="edge">
<title>FA2Printers_showFA2InterfaceTransfer&#45;&gt;FA2Printers_showFA2InterfaceTransferDestination</title>
<path fill="none" stroke="black" d="M4219.48,-1234.77C4264.24,-1173.5 4416.88,-964.57 4470.33,-891.41"/>
<polygon fill="black" stroke="black" points="4473.27,-893.32 4476.34,-883.18 4467.62,-889.19 4473.27,-893.32"/>
</g>
</g>
</svg>
