<?xml version="1.0" encoding="UTF-8" standalone="no"?>
<!DOCTYPE svg PUBLIC "-//W3C//DTD SVG 1.1//EN"
 "http://www.w3.org/Graphics/SVG/1.1/DTD/svg11.dtd">
<!-- Generated by graphviz version 2.43.0 (0)
 -->
<!-- Title: CrowdfundingCameLIGO Pages: 1 -->
<svg width="996pt" height="502pt"
 viewBox="0.00 0.00 996.00 502.00" xmlns="http://www.w3.org/2000/svg" xmlns:xlink="http://www.w3.org/1999/xlink">
<g id="graph0" class="graph" transform="scale(1 1) rotate(0) translate(4 498)">
<title>CrowdfundingCameLIGO</title>
<polygon fill="white" stroke="transparent" points="-4,4 -4,-498 992,-498 992,4 -4,4"/>
<g id="clust1" class="cluster">
<title>cluster_CrowdfundingCameLIGO</title>
<polygon fill="#ffffc3" stroke="black" points="8.29,-8 8.29,-486 979.71,-486 979.71,-8 8.29,-8"/>
<text text-anchor="middle" x="105.79" y="-470.8" font-family="Times,serif" font-size="14.00">CrowdfundingCameLIGO</text>
</g>
<g id="clust2" class="cluster">
<title>cluster_CrowdfundingCameLIGO_Crowdfunding</title>
<polygon fill="#ffffa3" stroke="black" points="16.59,-16 16.59,-395 555.69,-395 555.69,-16 16.59,-16"/>
<text text-anchor="middle" x="75.59" y="-379.8" font-family="Times,serif" font-size="14.00">Crowdfunding</text>
</g>
<!-- CrowdfundingCameLIGO_Crowdfunding_CF_MODULE -->
<g id="node1" class="node">
<title>CrowdfundingCameLIGO_Crowdfunding_CF_MODULE</title>
<g id="a_node1"><a xlink:href="CrowdfundingCameLIGO.html#Crowdfunding.CF_MODULE" xlink:title="CF_MODULE">
<ellipse fill="#f070d1" stroke="black" cx="431.24" cy="-338" rx="72.59" ry="18"/>
<text text-anchor="middle" x="431.24" y="-334.3" font-family="Times,serif" font-size="14.00">CF_MODULE</text>
</a>
</g>
</g>
<!-- CrowdfundingCameLIGO_Crowdfunding_crowdfunding_receive -->
<g id="node2" class="node">
<title>CrowdfundingCameLIGO_Crowdfunding_crowdfunding_receive</title>
<g id="a_node2"><a xlink:href="CrowdfundingCameLIGO.html#Crowdfunding.crowdfunding_receive" xlink:title="crowdfunding_receive">
<ellipse fill="#f070d1" stroke="black" cx="431.24" cy="-258" rx="112.38" ry="18"/>
<text text-anchor="middle" x="431.24" y="-254.3" font-family="Times,serif" font-size="14.00">crowdfunding_receive</text>
</a>
</g>
</g>
<!-- CrowdfundingCameLIGO_Crowdfunding_CF_MODULE&#45;&gt;CrowdfundingCameLIGO_Crowdfunding_crowdfunding_receive -->
<g id="edge1" class="edge">
<title>CrowdfundingCameLIGO_Crowdfunding_CF_MODULE&#45;&gt;CrowdfundingCameLIGO_Crowdfunding_crowdfunding_receive</title>
<path fill="none" stroke="black" d="M431.24,-319.69C431.24,-309.89 431.24,-297.42 431.24,-286.33"/>
<polygon fill="black" stroke="black" points="434.74,-286.26 431.24,-276.26 427.74,-286.26 434.74,-286.26"/>
</g>
<!-- CrowdfundingCameLIGO_Crowdfunding_init -->
<g id="node7" class="node">
<title>CrowdfundingCameLIGO_Crowdfunding_init</title>
<g id="a_node7"><a xlink:href="CrowdfundingCameLIGO.html#Crowdfunding.init" xlink:title="init">
<ellipse fill="#f070d1" stroke="black" cx="268.24" cy="-258" rx="27" ry="18"/>
<text text-anchor="middle" x="268.24" y="-254.3" font-family="Times,serif" font-size="14.00">init</text>
</a>
</g>
</g>
<!-- CrowdfundingCameLIGO_Crowdfunding_CF_MODULE&#45;&gt;CrowdfundingCameLIGO_Crowdfunding_init -->
<g id="edge2" class="edge">
<title>CrowdfundingCameLIGO_Crowdfunding_CF_MODULE&#45;&gt;CrowdfundingCameLIGO_Crowdfunding_init</title>
<path fill="none" stroke="black" d="M399.42,-321.78C370.29,-307.83 327.46,-287.34 298.74,-273.6"/>
<polygon fill="black" stroke="black" points="300.12,-270.38 289.58,-269.22 297.09,-276.69 300.12,-270.38"/>
</g>
<!-- CrowdfundingCameLIGO_Crowdfunding_crowdfunding_receive_inner -->
<g id="node3" class="node">
<title>CrowdfundingCameLIGO_Crowdfunding_crowdfunding_receive_inner</title>
<g id="a_node3"><a xlink:href="CrowdfundingCameLIGO.html#Crowdfunding.crowdfunding_receive_inner" xlink:title="crowdfunding_receive_inner">
<ellipse fill="#f070d1" stroke="black" cx="400.24" cy="-186" rx="141.88" ry="18"/>
<text text-anchor="middle" x="400.24" y="-182.3" font-family="Times,serif" font-size="14.00">crowdfunding_receive_inner</text>
</a>
</g>
</g>
<!-- CrowdfundingCameLIGO_Crowdfunding_crowdfunding_receive&#45;&gt;CrowdfundingCameLIGO_Crowdfunding_crowdfunding_receive_inner -->
<g id="edge3" class="edge">
<title>CrowdfundingCameLIGO_Crowdfunding_crowdfunding_receive&#45;&gt;CrowdfundingCameLIGO_Crowdfunding_crowdfunding_receive_inner</title>
<path fill="none" stroke="black" d="M423.57,-239.7C420.04,-231.73 415.78,-222.1 411.87,-213.26"/>
<polygon fill="black" stroke="black" points="415.06,-211.83 407.81,-204.1 408.66,-214.67 415.06,-211.83"/>
</g>
<!-- CrowdfundingCameLIGO_Crowdfunding_to_simple_ctx_addr -->
<g id="node4" class="node">
<title>CrowdfundingCameLIGO_Crowdfunding_to_simple_ctx_addr</title>
<g id="a_node4"><a xlink:href="CrowdfundingCameLIGO.html#Crowdfunding.to_simple_ctx_addr" xlink:title="to_simple_ctx_addr">
<ellipse fill="#f070d1" stroke="black" cx="400.24" cy="-114" rx="99.38" ry="18"/>
<text text-anchor="middle" x="400.24" y="-110.3" font-family="Times,serif" font-size="14.00">to_simple_ctx_addr</text>
</a>
</g>
</g>
<!-- CrowdfundingCameLIGO_Crowdfunding_crowdfunding_receive_inner&#45;&gt;CrowdfundingCameLIGO_Crowdfunding_to_simple_ctx_addr -->
<g id="edge4" class="edge">
<title>CrowdfundingCameLIGO_Crowdfunding_crowdfunding_receive_inner&#45;&gt;CrowdfundingCameLIGO_Crowdfunding_to_simple_ctx_addr</title>
<path fill="none" stroke="black" d="M400.24,-167.7C400.24,-159.98 400.24,-150.71 400.24,-142.11"/>
<polygon fill="black" stroke="black" points="403.74,-142.1 400.24,-132.1 396.74,-142.1 403.74,-142.1"/>
</g>
<!-- CrowdfundingCameLIGO_Crowdfunding_addr_to_nat -->
<g id="node5" class="node">
<title>CrowdfundingCameLIGO_Crowdfunding_addr_to_nat</title>
<g id="a_node5"><a xlink:href="CrowdfundingCameLIGO.html#Crowdfunding.addr_to_nat" xlink:title="addr_to_nat">
<ellipse fill="#facdef" stroke="black" cx="400.24" cy="-42" rx="65.79" ry="18"/>
<text text-anchor="middle" x="400.24" y="-38.3" font-family="Times,serif" font-size="14.00">addr_to_nat</text>
</a>
</g>
</g>
<!-- CrowdfundingCameLIGO_Crowdfunding_to_simple_ctx_addr&#45;&gt;CrowdfundingCameLIGO_Crowdfunding_addr_to_nat -->
<g id="edge5" class="edge">
<title>CrowdfundingCameLIGO_Crowdfunding_to_simple_ctx_addr&#45;&gt;CrowdfundingCameLIGO_Crowdfunding_addr_to_nat</title>
<path fill="none" stroke="black" d="M400.24,-95.7C400.24,-87.98 400.24,-78.71 400.24,-70.11"/>
<polygon fill="black" stroke="black" points="403.74,-70.1 400.24,-60.1 396.74,-70.1 403.74,-70.1"/>
</g>
<!-- CrowdfundingCameLIGO_Crowdfunding_crowdfunding_init_eq_init -->
<g id="node6" class="node">
<title>CrowdfundingCameLIGO_Crowdfunding_crowdfunding_init_eq_init</title>
<g id="a_node6"><a xlink:href="CrowdfundingCameLIGO.html#Crowdfunding.crowdfunding_init_eq_init" xlink:title="crowdfunding_init_eq_init">
<ellipse fill="#7fffd4" stroke="black" cx="181.24" cy="-338" rx="129.98" ry="18"/>
<ellipse fill="none" stroke="black" cx="181.24" cy="-338" rx="133.98" ry="22"/>
<ellipse fill="none" stroke="black" cx="181.24" cy="-338" rx="137.98" ry="26"/>
<text text-anchor="middle" x="181.24" y="-334.3" font-family="Times,serif" font-size="14.00">crowdfunding_init_eq_init</text>
</a>
</g>
</g>
<!-- CrowdfundingCameLIGO_Crowdfunding_crowdfunding_init_eq_init&#45;&gt;CrowdfundingCameLIGO_Crowdfunding_init -->
<g id="edge6" class="edge">
<title>CrowdfundingCameLIGO_Crowdfunding_crowdfunding_init_eq_init&#45;&gt;CrowdfundingCameLIGO_Crowdfunding_init</title>
<path fill="none" stroke="black" d="M208.76,-312.32C220.46,-301.83 233.95,-289.74 245.12,-279.73"/>
<polygon fill="black" stroke="black" points="247.67,-282.14 252.78,-272.85 243,-276.92 247.67,-282.14"/>
</g>
<!-- CrowdfundingCameLIGO_Crowdfunding_crowdfunding_init -->
<g id="node8" class="node">
<title>CrowdfundingCameLIGO_Crowdfunding_crowdfunding_init</title>
<g id="a_node8"><a xlink:href="CrowdfundingCameLIGO.html#Crowdfunding.crowdfunding_init" xlink:title="crowdfunding_init">
<ellipse fill="#f070d1" stroke="black" cx="123.24" cy="-258" rx="94.78" ry="18"/>
<text text-anchor="middle" x="123.24" y="-254.3" font-family="Times,serif" font-size="14.00">crowdfunding_init</text>
</a>
</g>
</g>
<!-- CrowdfundingCameLIGO_Crowdfunding_crowdfunding_init_eq_init&#45;&gt;CrowdfundingCameLIGO_Crowdfunding_crowdfunding_init -->
<g id="edge7" class="edge">
<title>CrowdfundingCameLIGO_Crowdfunding_crowdfunding_init_eq_init&#45;&gt;CrowdfundingCameLIGO_Crowdfunding_crowdfunding_init</title>
<path fill="none" stroke="black" d="M162.56,-311.89C155.94,-302.98 148.49,-292.96 141.86,-284.05"/>
<polygon fill="black" stroke="black" points="144.6,-281.87 135.82,-275.93 138.98,-286.04 144.6,-281.87"/>
</g>
<!-- CrowdfundingCameLIGO_cameLIGO_crowdfunding -->
<g id="node9" class="node">
<title>CrowdfundingCameLIGO_cameLIGO_crowdfunding</title>
<g id="a_node9"><a xlink:href="CrowdfundingCameLIGO.html#cameLIGO_crowdfunding" xlink:title="cameLIGO_crowdfunding">
<ellipse fill="#f070d1" stroke="black" cx="831.24" cy="-429" rx="127.28" ry="18"/>
<ellipse fill="none" stroke="black" cx="831.24" cy="-429" rx="131.28" ry="22"/>
<ellipse fill="none" stroke="black" cx="831.24" cy="-429" rx="135.28" ry="26"/>
<text text-anchor="middle" x="831.24" y="-425.3" font-family="Times,serif" font-size="14.00">cameLIGO_crowdfunding</text>
</a>
</g>
</g>
<!-- CrowdfundingCameLIGO_cameLIGO_crowdfunding_prepared -->
<g id="node10" class="node">
<title>CrowdfundingCameLIGO_cameLIGO_crowdfunding_prepared</title>
<g id="a_node10"><a xlink:href="CrowdfundingCameLIGO.html#cameLIGO_crowdfunding_prepared" xlink:title="cameLIGO_crowdfunding_prepared">
<ellipse fill="#f070d1" stroke="black" cx="483.24" cy="-429" rx="174.36" ry="18"/>
<ellipse fill="none" stroke="black" cx="483.24" cy="-429" rx="178.37" ry="22"/>
<ellipse fill="none" stroke="black" cx="483.24" cy="-429" rx="182.37" ry="26"/>
<text text-anchor="middle" x="483.24" y="-425.3" font-family="Times,serif" font-size="14.00">cameLIGO_crowdfunding_prepared</text>
</a>
</g>
</g>
<!-- CrowdfundingCameLIGO_cameLIGO_crowdfunding_prepared&#45;&gt;CrowdfundingCameLIGO_Crowdfunding_CF_MODULE -->
<g id="edge8" class="edge">
<title>CrowdfundingCameLIGO_cameLIGO_crowdfunding_prepared&#45;&gt;CrowdfundingCameLIGO_Crowdfunding_CF_MODULE</title>
<path fill="none" stroke="black" d="M468.47,-402.73C461.49,-390.78 453.16,-376.52 446.15,-364.53"/>
<polygon fill="black" stroke="black" points="449.16,-362.75 441.1,-355.88 443.12,-366.28 449.16,-362.75"/>
</g>
<!-- CrowdfundingCameLIGO_TT_rename -->
<g id="node11" class="node">
<title>CrowdfundingCameLIGO_TT_rename</title>
<g id="a_node11"><a xlink:href="CrowdfundingCameLIGO.html#TT_rename" xlink:title="TT_rename">
<ellipse fill="#f070d1" stroke="black" cx="628.24" cy="-338" rx="62.29" ry="18"/>
<text text-anchor="middle" x="628.24" y="-334.3" font-family="Times,serif" font-size="14.00">TT_rename</text>
</a>
</g>
</g>
<!-- CrowdfundingCameLIGO_cameLIGO_crowdfunding_prepared&#45;&gt;CrowdfundingCameLIGO_TT_rename -->
<g id="edge9" class="edge">
<title>CrowdfundingCameLIGO_cameLIGO_crowdfunding_prepared&#45;&gt;CrowdfundingCameLIGO_TT_rename</title>
<path fill="none" stroke="black" d="M542.14,-404.35C548.03,-401.42 553.83,-398.29 559.24,-395 574.7,-385.61 590.48,-373.06 603.04,-362.23"/>
<polygon fill="black" stroke="black" points="605.6,-364.64 610.79,-355.41 600.98,-359.39 605.6,-364.64"/>
</g>
<!-- CrowdfundingCameLIGO_TT_remap_crowdfunding -->
<g id="node12" class="node">
<title>CrowdfundingCameLIGO_TT_remap_crowdfunding</title>
<g id="a_node12"><a xlink:href="CrowdfundingCameLIGO.html#TT_remap_crowdfunding" xlink:title="TT_remap_crowdfunding">
<ellipse fill="#f070d1" stroke="black" cx="842.24" cy="-338" rx="125.38" ry="18"/>
<text text-anchor="middle" x="842.24" y="-334.3" font-family="Times,serif" font-size="14.00">TT_remap_crowdfunding</text>
</a>
</g>
</g>
<!-- CrowdfundingCameLIGO_cameLIGO_crowdfunding_prepared&#45;&gt;CrowdfundingCameLIGO_TT_remap_crowdfunding -->
<g id="edge10" class="edge">
<title>CrowdfundingCameLIGO_cameLIGO_crowdfunding_prepared&#45;&gt;CrowdfundingCameLIGO_TT_remap_crowdfunding</title>
<path fill="none" stroke="black" d="M620.15,-411.77C646.61,-407.32 673.96,-401.79 699.24,-395 733.09,-385.9 769.9,-371.38 797.69,-359.4"/>
<polygon fill="black" stroke="black" points="799.36,-362.49 807.12,-355.28 796.56,-356.07 799.36,-362.49"/>
</g>
</g>
</svg>
